<svg xmlns="http://www.w3.org/2000/svg" viewBox="0 0 200 56" fill="none" overflow="visible"><path d="M14 -0.58C19.27 -2.63 26.51 -1.66 32.77 -1.34C39.03 -1.02 45.28 1.23 51.54 1.31C57.8 1.39 64.04 -0.76 70.3 -0.85C76.56 -0.94 82.81 0.38 89.07 0.75C95.33 1.12 101.58 1.63 107.84 1.36C114.1 1.09 120.35 -0.89 126.61 -0.87C132.87 -0.85 139.12 1.41 145.38 1.45C151.64 1.49 157.88 -0.2 164.14 -0.6C170.4 -1 177.27 -2.45 182.91 -0.98C188.55 0.49 194.83 3.63 197.99 8.2C201.15 12.77 201.66 20.31 201.88 26.46C202.1 32.61 201.93 40.24 199.28 45.11C196.63 49.98 191.34 53.73 186 55.68C180.66 57.63 173.49 57.1 167.23 56.83C160.97 56.56 154.72 54.15 148.46 54.06C142.2 53.97 135.96 56.03 129.7 56.29C123.44 56.55 117.19 55.89 110.93 55.65C104.67 55.41 98.42 54.53 92.16 54.86C85.9 55.19 79.65 57.52 73.39 57.61C67.13 57.7 60.88 55.57 54.62 55.43C48.36 55.29 42.12 56.44 35.86 56.76C29.6 57.08 22.67 58.86 17.09 57.34C11.51 55.82 5.43 52.25 2.4 47.62C-0.63 42.99 -0.91 35.65 -1.12 29.54C-1.33 23.43 -1.39 16 1.13 10.98C3.65 5.96 8.73 1.47 14 -0.58Z" stroke="currentColor" stroke-width="2.5" vector-effect="non-scaling-stroke" stroke-linecap="round" stroke-linejoin="round"/></svg>
