<svg xmlns="http://www.w3.org/2000/svg" viewBox="0 0 1024 1024"><path d="
		M455.5,721c1.27,1.81,3.19,1.5,5,1.5c33.67,0,67.34,0.3,101-0.06c81.5-0.86,163-0.4,244.5-0.29c18.66,0.03,37.33,0.06,56,0.35
		c4.83,0.08,9.64-1.24,14.51-0.05c2.72,0.66,3.67-1.29,3.44-3.45c-1.14-10.7,0.04-21.34,0.51-32.01c0.22-4.99,0.24-10.02-0.48-15
		c-1.11-7.68,0-15.34,0.05-23c0.02-2.89-0.79-4.34-4.03-4.56c-20.48-1.43-40.97-2.47-61.5-1.89c-16.86,0.48-33.69,1.27-50.52,2.75
		c-8.65,0.76-17.35,1.4-25.96,2.38c-9.35,1.06-18.72,2.32-28.06,3.56c-10,1.32-20,2.81-29.94,4.42
		c-14.74,2.38-29.39,5.34-44.04,8.25c-13.18,2.62-25.98,7.36-39.49,7.95c-6.98,0.31-12.48,4.26-18.92,5.93
		c-22.55,5.83-45.05,12.04-67.05,19.77c-7.01,2.46-13.97,5.33-21.08,7.22c-9.91,2.64-18.54,8.2-28.39,10.9
		c-4.5,1.23-7.75,5.58-13.03,6.01c-2.29,0.19-4.64,0.81-7.02,0.81c-48.83,0.01-97.67,0.01-146.5,0c-19.83-0.01-39.67,0.29-59.5-0.1
		c-10.5-0.21-21-0.32-31.5-0.38c-10.5-0.07-21,0.82-31.5,0.41c-7.34-0.28-14.67-0.44-22-0.4c-3.18,0.02-4.61-0.89-4.59-4.53
		c0.17-21.67,0.07-43.33,0.09-65c0-4.64,1.12-5.75,5.49-6.01c17.32-1.03,34.67-1.32,52-1.34c11.16-0.01,22.39-0.41,33.49,0.52
		c12.35,1.03,24.71,2.12,37.04,3.62c15.59,1.9,31.07,4.38,46.45,7.34c19.01,3.67,37.88,8.06,56.54,13.33
		c2.6,0.73,5.16,1.68,7.99,1.57c7.16-0.28,12.9,4.24,19.48,6.03c22.14,6.01,43.9,13.26,65.49,21c4.82,1.73,10.31,2.22,14.03,6.43" fill="none" stroke="currentColor" stroke-width="2" stroke-linecap="round" stroke-linejoin="round"/><path d="
		M758.5,550.5c-2.15-4.02-6.21-5.52-10.03-6.93c-20.39-7.53-37.66,7.69-39.96,25.93c-0.51,4.03-1.53,4.37-6.02,3.56
		c-15.07-2.69-30.96,2.52-36.54,19.42c-0.72,2.17-0.38,4.36-0.83,6.54c-0.83,4,2.03,5.67,5.4,6.43c1.27,0.29,2.66,0.05,3.99,0.05
		c63.5,0,127-0.03,190.5,0.08c3.43,0.01,6.62-1.03,9.99-1.22c3.21-0.18,3.15-3.78,3.38-5.88c1.65-14.9-7.6-29.01-23.83-32.21
		c-4.95-0.97-9.38,0.47-14.04,0.21c-1.21-0.07-0.85,1-1.25,1.51" fill="none" stroke="currentColor" stroke-width="2" stroke-linecap="round" stroke-linejoin="round"/><path d="
		M507,325c-2.54,0.05-4.99,0.17-7.53,0.88c-3.52,0.99-7.01,1.86-11.02,0.83c-4.04-1.03-8.32,0.91-12.44,1.81
		c-27.67,6.06-52.29,18.16-74.05,36.42c-26.6,22.33-42.74,51.2-53.3,83.61c-1.35,4.15-1.86,8.74-3.3,12.9
		c-1.13,3.26,1.98,6.05,0.15,9.05" fill="none" stroke="currentColor" stroke-width="2" stroke-linecap="round" stroke-linejoin="round"/><path d="
		M520,482.5c9.78,0.26,19.05,2.91,27.95,6.63c4.26,1.78,7.67,1.24,11.58-0.57c12.02-5.56,24.81-8.18,37.97-7.9
		c7.57,0.17,15.21,0.92,22.55,3.71c4.83,1.84,9.65,2,14.57-1.72c7.33-5.53,16.38-7.17,25.39-8.1c5.47-0.56,10.94-1.23,16.5-1.17
		c4.64,0.05,5.91-2.53,5.23-9.39c-0.95-9.46-4.04-18.43-7.33-27.21c-8.67-23.1-20.86-44.24-38.47-61.72
		c-22.85-22.68-49.84-38.28-81.41-45.64c-4.16-0.97-8.65-3.06-12.45-2.15c-7.66,1.85-14.05-2.11-21.07-2.78" fill="none" stroke="currentColor" stroke-width="2" stroke-linecap="round" stroke-linejoin="round"/><path d="
		M797.5,365.5c-2.58,0.28-1.98-1.61-1.99-3c-0.11-15.8-11.99-30.07-27.54-33.89c-21.15-5.21-40.69,4.49-46.07,26.99
		c-5.1,21.35,6.59,40.68,29.09,45.93c18.84,4.39,38.42-6.74,44.46-29.04c0.6-2.23-0.45-4.71,0.55-6.99" fill="none" stroke="currentColor" stroke-width="2" stroke-linecap="round" stroke-linejoin="round"/><path d="
		M492,328c-1.06,2.51-3.28,3.95-5.52,4.94c-31.42,13.96-53.17,37.64-67.89,68.09c-8.61,17.8-12.65,37.01-15.58,56.46
		c-0.1,0.66-0.21-0.06,0.03,0.48c4.17,9.44-2.12,17.67-3.03,26.52" fill="none" stroke="currentColor" stroke-width="2" stroke-linecap="round" stroke-linejoin="round"/><path d="
		M537,329c1.29,2.52,3.57,3.8,5.99,5.02c40.79,20.44,64.87,53.94,75.98,97.49c1.84,7.23,3.54,14.5,4.09,21.99
		c0.03,0.37,0.52,0.65,0.45,1.01c-1.94,9.88,0.53,19.22,3.46,28.51c0.19,0.61,0.03,1.33,0.03,1.99" fill="none" stroke="currentColor" stroke-width="2" stroke-linecap="round" stroke-linejoin="round"/><path d="
		M518.5,455c0,46,0,92,0,138c0,2.18,0.09,4.37-0.5,6.5" fill="none" stroke="currentColor" stroke-width="2" stroke-linecap="round" stroke-linejoin="round"/><path d="
		M552,461.5c-8.52-4.89-17.95-7.48-27.51-7.65c-5.42-0.1-11.1-3.56-16.48-0.13c-0.33,9.61-0.09,18.95-0.28,28.29
		c-0.15,7.12,0.21,14.33,0.24,21.5c0.09,19.83-0.25,39.67,0.14,59.5c0.22,11.17,0.31,22.33,0.36,33.5c0,0.92,0.34,1.67,0.53,2.5" fill="none" stroke="currentColor" stroke-width="2" stroke-linecap="round" stroke-linejoin="round"/><path d="
		M839.5,566.5c-1.69-6.49-1.98-13.37-5.02-19.49c-6.47-13.01-16.15-22.18-30.99-24.46c-18.41-2.83-32.51,4.42-42.08,20.9
		c-0.91,1.57-1.1,3.94-3.41,4.55" fill="none" stroke="currentColor" stroke-width="2" stroke-linecap="round" stroke-linejoin="round"/><path d="
		M490.5,653.5c0.08-0.87-0.04-1.71-1-1.99c-10.1-2.88-13.04-6.66-12.97-17.01c0.03-3.8-0.3-7.27-4.01-9.53
		c-3.56-2.17-7.37-1.48-10.02,2.02c-2.13,2.82-3.02,6.07-2.96,9.5c0.14,9.18,2.63,18.16,9.2,24.24c6.54,6.06,15.38,8.82,24.76,8.27
		c5.37-0.32,10.41-1.91,14.96-4.58c6.96-4.09,10.27-11.02,11.93-18.46c2.94-13.15,2.17-26.61,2.04-39.98
		c-0.03-3.73-3.06-6.02-6.94-6c-11,0.07-11,0.07-11,11c0,6.83,0.2,13.67-0.06,20.5c-0.19,5.07-1.12,10.05-3.91,14.52
		c-2.35,3.77-5.68,5.68-10.03,5.98" fill="none" stroke="currentColor" stroke-width="2" stroke-linecap="round" stroke-linejoin="round"/><path d="
		M514,661.5c4.67,1.84,9.76,1.61,14.51,1.76c10.38,0.32,20.69,1.41,30.98,2.42c8.69,0.85,17.41,2.08,26.03,3.76
		c1.93,0.38,3.27,1.23,4.49,2.57" fill="none" stroke="currentColor" stroke-width="2" stroke-linecap="round" stroke-linejoin="round"/><path d="
		M468,661.5c-3.55,1.33-7.15,2.04-11,2.05c-12.4,0.06-24.71,1.31-37.02,2.82c-7.19,0.89-14.34,1.94-21.51,2.96
		c-2.47,0.35-3.79,1.69-5.48,2.91" fill="none" stroke="currentColor" stroke-width="2" stroke-linecap="round" stroke-linejoin="round"/><path d="
		M473,489.5c-1.53,0.09-3.02,0.19-4.51-0.48c-9.38-4.27-19.11-6.61-29.46-7.79c-11.85-1.35-22.93,0.35-34.03,3.77
		c-3.47,1.07-7.07,0.78-9.95-1.08c-9.95-6.44-20.89-8.73-32.54-9.62c-5.86-0.45-12.42,0.84-17.56-3.75
		c-0.46-0.41-1.62-0.06-2.45-0.06" fill="none" stroke="currentColor" stroke-width="2" stroke-linecap="round" stroke-linejoin="round"/><path d="
		M622,463c-7.59-4.49-16.05-6.9-24.54-8.24c-6.29-0.99-12.95-0.45-19.47,0.13c-8.16,0.72-15.3,5.18-23.49,5.69
		c-3.02,0.19-3.91,3.15-3.39,5.4c1.83,7.93,2.38,16,3.38,24.03" fill="none" stroke="currentColor" stroke-width="2" stroke-linecap="round" stroke-linejoin="round"/><path d="
		M680.5,468.5c-6.52-3.47-12.92-6.91-20.48-8.14c-10.28-1.67-20.22-1.13-30,2.21c-2.36,0.81-4.65,0.89-7.02,0.93" fill="none" stroke="currentColor" stroke-width="2" stroke-linecap="round" stroke-linejoin="round"/><path d="
		M404,463.5c-5.68,0.86-10.57-2.36-15.97-3.2c-13.6-2.12-26.24-0.59-38.02,6.71c-0.96,0.6-1.92,1.16-3.01,1.49" fill="none" stroke="currentColor" stroke-width="2" stroke-linecap="round" stroke-linejoin="round"/><path d="
		M506.5,482.5c-9.71,0.22-18.7,3.17-27.52,6.95c-1.67,0.72-3.64,2.21-5.48,0.05" fill="none" stroke="currentColor" stroke-width="2" stroke-linecap="round" stroke-linejoin="round"/><path d="
		M507,454c-11.41-1.32-21.69,2.1-31.5,7.5" fill="none" stroke="currentColor" stroke-width="2" stroke-linecap="round" stroke-linejoin="round"/><path d="
		M833.5,358.5c-6.38-0.48-12.6,1.86-19,1" fill="none" stroke="currentColor" stroke-width="2" stroke-linecap="round" stroke-linejoin="round"/><path d="
		M806,308c-3.5,4.33-6.6,9.01-10.55,12.95c-1.5,1.49-0.63,3.05-0.95,4.55" fill="none" stroke="currentColor" stroke-width="2" stroke-linecap="round" stroke-linejoin="round"/><path d="
		M764,420c0.97,5.97,1.45,11.99,2,18" fill="none" stroke="currentColor" stroke-width="2" stroke-linecap="round" stroke-linejoin="round"/><path d="
		M700.5,373.5c-6.04-0.42-11.94,1.69-18,1" fill="none" stroke="currentColor" stroke-width="2" stroke-linecap="round" stroke-linejoin="round"/><path d="
		M750.25,295c0.57,5.67,1.2,11.33,1.75,17" fill="none" stroke="currentColor" stroke-width="2" stroke-linecap="round" stroke-linejoin="round"/><path d="
		M710.5,332.5c-3.33-2.5-6.63-5.05-10.02-7.48c-1.47-1.05-2.87-2.48-4.98-2.02" fill="none" stroke="currentColor" stroke-width="2" stroke-linecap="round" stroke-linejoin="round"/><path d="
		M721,410c-2.32,4.07-5.87,7.17-8.62,10.91c-0.9,1.22-1.46,2.17-1.38,3.59" fill="none" stroke="currentColor" stroke-width="2" stroke-linecap="round" stroke-linejoin="round"/><path d="
		M803,400c3.95,3.46,8.24,6.46,12.5,9.5" fill="none" stroke="currentColor" stroke-width="2" stroke-linecap="round" stroke-linejoin="round"/><path d="
		M519.5,325.5c-3.78-1.48-7.63-1.15-11.5-0.5" fill="none" stroke="currentColor" stroke-width="2" stroke-linecap="round" stroke-linejoin="round"/><path d="
		M237.5,514.5c-4.8,1.6-9.92,1.96-14.53,4.45c-14.23,7.69-21.95,19.57-23.41,35.56c-0.21,2.29-1.34,3.84-2.58,5.57
		c-12.94-2.25-24.37,0.42-32.38,11.49c-4.72,6.52-6.46,14.02-4.19,22.21c0.83,3,2.24,3.68,5.09,3.78c59.49,2.19,119,0.37,178.5,0.88
		c7.83,0.07,15.65-0.93,23.5-0.95c3.96-0.01,5-2.65,4.99-5.99c-0.03-8.53-6.15-19.47-17.69-24.11c-6.73-2.71-13.53-1.9-20.29-1.74
		c-4.69,0.11-5.26,0.24-6.03-4.15c-2.09-11.84-8.41-20.41-19.72-25c-8.58-3.48-16.82-2.45-24.74,2.01
		c-5.52,3.11-5.57,3.21-8.49-2.02c-5.83-10.48-14.26-17.65-26.03-20.43c-3.74-0.88-7.55-1.81-11.49-1.56" fill="none" stroke="currentColor" stroke-width="2" stroke-linecap="round" stroke-linejoin="round"/></svg>