<svg xmlns="http://www.w3.org/2000/svg" viewBox="0 0 1024 1024"><path d="
		M811.5,338.5c-3.94-3.84-4.06-9.39-6.24-13.88c-12.47-25.78-27.56-49.92-49.83-68.54c-17.08-14.28-35.84-25.83-56.88-33.73
		c-13.59-5.1-27.36-9.48-41.59-11.63c-14.53-2.2-29.15-4.86-43.96-4.12c-7.17,0.36-14.32-1.95-21.65,1.07
		c-2.57,1.06-6.98,0.06-10.32-0.44c-4.35-0.65-8.07,1.08-12.01,1.54c-7.67,0.89-15.27,2.16-22.71,5.32
		c-4.61,1.95-10.52,2.08-15.84,3.31c-19.57,4.52-37.77,12.46-55.44,21.68c-19.22,10.02-36.53,22.75-52.62,37.35
		c-20.07,18.21-36.32,39.26-48.82,63.14c-9.47,18.08-15.55,37.46-19.55,57.46c-0.48,2.41,0,4.86,1.58,7.17
		c-1.65,2.09-3.2,4.35-2.63,7.32" fill="none" stroke="currentColor" stroke-width="2" stroke-linecap="round" stroke-linejoin="round"/><path d="
		M545,215.5c0.35,2.68-1.25,4.36-3,6.01c-27.77,26.15-44.07,59.04-54.31,95.05c-5.99,21.08-9.34,42.81-8.2,64.94" fill="none" stroke="currentColor" stroke-width="2" stroke-linecap="round" stroke-linejoin="round"/><path d="
		M591.5,208.5c1.24,2.32,3.03,3.78,5.44,5.11c10.85,6.01,21.41,12.47,31.1,20.34c13.79,11.2,24.26,25.15,33.37,40.1
		c12.31,20.22,20.31,42.37,26.98,64.98c0.59,2.01,0.34,4.37,1.11,6.47" fill="none" stroke="currentColor" stroke-width="2" stroke-linecap="round" stroke-linejoin="round"/><path d="
		M431,606c-2.13,3.3-5.76,4.42-9.02,5.97c-20.03,9.51-35.54,24.19-47.36,42.61c-8.04,12.52-7.13,25.69,0.38,38.42
		c4.4,7.46,10.55,13.37,17.01,18.98c0.95,0.83,2.27,0.86,3.48,1.02" fill="none" stroke="currentColor" stroke-width="2" stroke-linecap="round" stroke-linejoin="round"/><path d="
		M303.5,413c4.55,4.19,6.52,10.1,9.9,15.07c4.61,6.78,9.77,13.39,12.05,21.45c2.54,8.97,0.08,15.67-8.96,18.94
		c-6.1,2.21-11.63-1.15-16.02-8.94c-4.44-7.89-4.08-16.47-3.92-25.02c0.09-4.92,1.63-9.67,2.5-14.49c0.35-1.97,0.89-4.16,2.5-5.44
		c1.67-1.32,1.41-2.91,1.45-4.56" fill="none" stroke="currentColor" stroke-width="2" stroke-linecap="round" stroke-linejoin="round"/><path d="
		M262.75,469.5c1.21,2.18,1.16,4.19-0.75,6c-3.2,3.05-2.5,7.54-2.71,11.01c-0.67,11.24-1.33,22.68,5.11,33.04
		c2.62,4.21,5.5,7.28,10.59,7.96c10.29,1.39,15.53-7.86,14.37-16c-0.62-4.33-2.62-8.41-5.35-12.03
		c-6.57-8.74-12.54-17.94-20.02-25.98" fill="none" stroke="currentColor" stroke-width="2" stroke-linecap="round" stroke-linejoin="round"/><path d="
		M585,386.5c-9.64,2.76-19.54,4.69-28.51,9.49c-2.37,1.27-4.64,2.75-7.03,3.94c-3.09,1.54-6.18,2.58-10,1.18
		c-12.38-4.55-25.19-6.63-38.45-7.27c-20.21-0.97-39.36,2.98-57.98,10.24c-4.17,1.63-8.95,3.2-9.53,8.92" fill="none" stroke="currentColor" stroke-width="2" stroke-linecap="round" stroke-linejoin="round"/><path d="
		M547.5,633.5c5.28,24.92,10,49.96,16.83,74.55c1.33,4.79,2.07,9.9,2.8,14.93c0.49,3.41-1.97,3.8-3.66,4.98
		c-3.89,2.71-8.6,3.48-12.98,5.02c-13.45,4.75-27.35,7.27-41.47,9.15c-17.82,2.38-35.68,2.08-53.51,1.71
		c-11.27-0.24-22.46-2.41-33.5-4.88c-4.25-0.95-7.84-6.09-8.04-10.46c-0.42-9.55,2.43-18.66,3.59-27.99
		c0.36-2.94,0.94-5.75-0.56-8.51" fill="none" stroke="currentColor" stroke-width="2" stroke-linecap="round" stroke-linejoin="round"/><path d="
		M806,334.5c-3.21,4.16-8.3,3.36-12.53,4.37c-19.06,4.53-37.13,10.82-50.96,25.64c-4.38,4.69-10.02,2.72-14.99,2.36
		c-26.15-1.91-51.44,0.5-75.02,13.11c-3.32,1.78-6.87,3.51-9.36,6.14c-4.05,4.28-8.63,3.29-13.11,2.3
		c-9.75-2.18-19.47-4.04-29.52-2.92" fill="none" stroke="currentColor" stroke-width="2" stroke-linecap="round" stroke-linejoin="round"/><path d="
		M578.5,344c2.15,7.54,2.98,15.34,4.4,23.02c3.45,18.64,6.55,37.35,9.99,56c3.28,17.81,6.56,35.63,9.64,53.47
		c0.15,0.86,0.77,1.62,0.98,2.5" fill="none" stroke="currentColor" stroke-width="2" stroke-linecap="round" stroke-linejoin="round"/><path d="
		M494,575c9.2-0.71,18.48-12.17,17-21c-0.6-3.57-3.21-5.92-6.48-4.92c-14.28,4.35-28.94,3.44-43.52,3.35
		c-4.6-0.03-8.45,1.54-9.78,5.64c-1.11,3.41-0.14,6.79,3.11,10.1c10.24,10.44,22.4,11.57,35.67,9.3c1.33-0.23,2.23-1.5,3.51-1.97" fill="none" stroke="currentColor" stroke-width="2" stroke-linecap="round" stroke-linejoin="round"/><path d="
		M591,342.5c2.38,12.83,4.49,25.7,7.03,38.49c4.63,23.28,8.44,46.71,12.78,70.04c1.62,8.71,3.28,17.53,3.69,26.46" fill="none" stroke="currentColor" stroke-width="2" stroke-linecap="round" stroke-linejoin="round"/><path d="
		M805.5,332c-7.01-2.29-13.62-5.54-20.97-7.15c-18.57-4.06-36.91-3.16-54.99,1.79c-11.72,3.21-22.88,8.1-32.57,15.83
		c-4.66,3.72-9.76,5.02-16,3.66c-17.76-3.87-35.79-6.1-53.97-6.58c-10.34-0.28-20.71-0.14-30.99,1
		c-15.65,1.74-31.27,3.98-46.48,8.05c-23.28,6.24-45.38,15.44-65.47,28.99c-1.45,0.98-2.69,0.71-4.06,0.91" fill="none" stroke="currentColor" stroke-width="2" stroke-linecap="round" stroke-linejoin="round"/><path d="
		M622.5,553c-5.63,15.16-12.94,29.43-22.51,42.49c-10.12,13.82-22.02,25.94-35.5,36.5c-4.59,3.6-8.02,8.75-13.99,10.51" fill="none" stroke="currentColor" stroke-width="2" stroke-linecap="round" stroke-linejoin="round"/><path d="
		M518.25,417c-1.34-1.88-2.8-3.41-5.24-4.05c-14.81-3.88-29.94-4.11-45-3.26c-8.19,0.46-16.53,1.39-24.5,3.83
		c-4.78,1.46-9.74-1.13-14.55,0.88c-1.48,0.62-1.58-1.16-2.03-2.38c-2.33-6.31,0.5-12.06,1.54-18.03c1.15-6.64,4.8-12.63,5.04-19.49
		" fill="none" stroke="currentColor" stroke-width="2" stroke-linecap="round" stroke-linejoin="round"/><path d="
		M558.5,731.5c0.88,7.17,0.19,14.4,0.46,21.48c0.36,9.5,0.18,19.02,0.49,28.52c0.52,16.33,1.34,32.65,1.13,49
		c-0.04,3.11-0.55,5.87-2.08,8.5" fill="none" stroke="currentColor" stroke-width="2" stroke-linecap="round" stroke-linejoin="round"/><path d="
		M479,378.5c-1.83,1.09-3.82,0.57-5.48-0.06c-10.98-4.18-22.55-5.66-34.02-5.24c-26.03,0.95-50.82,6.79-72.53,22.28
		c-3.54,2.52-7.28,4.73-8.98,9.03" fill="none" stroke="currentColor" stroke-width="2" stroke-linecap="round" stroke-linejoin="round"/><path d="
		M615,532c2.95,2.82,6.37,3.91,10.51,3.57c3.91-0.32,7.5-0.07,11.14,2.73c4.3,3.3,10.78-1.09,11.27-7.31
		c0.28-3.64,0.32-7.33-0.6-11.01c-1.25-5.01,0.3-8.62,3.68-9.98c3.92-1.58,9.03,0.42,10.92,5.03c3.98,9.7,4.29,19.9-1.13,28.84
		c-5.46,9-14.51,12.91-25.29,12.15c-9.77-0.69-19.8-8.53-23.04-18c-0.7-2.04-0.79-4.09-0.35-5.99c0.5-2.19,0.71-4.09-0.59-6.03
		c-1.99-2.97-1.23-5.61,1.52-7.45c4.25-2.83,4.58-7.49,3.16-10.92c-1.6-3.87-4.97-7.52-9.7-8.6c-10.41-2.38-17.2,5.96-15.69,15.01
		c0.8,4.8,1.94,9.23,4.18,13.47c0.86,1.63,1.5,3.01,0.09,5.05c-6.39,9.25-12.87,18.43-19.64,27.4
		c-4.55,6.04-10.12,11.22-15.99,15.99c-2.22,1.81-4.96,2.79-7.96,1.55" fill="none" stroke="currentColor" stroke-width="2" stroke-linecap="round" stroke-linejoin="round"/><path d="
		M516.5,842.5c-1.05,8.68,0.28,17.14,2.52,25.49c0.6,2.22,1.87,3.89,4.48,4.01c3.71,0.18,7.33,1.25,11,1.43
		c11.82,0.55,23.64,1.51,35.5,1.11c3.42-0.12,6.64-1.19,9.97-1.7c2.09-0.32,3.86-1.85,4.13-4.83c0.83-9.15,0.34-13.61-9.03-20.11
		c-5.06-3.51-11.81-3.49-16.12-8.36c-0.67-0.76-1.84-0.32-2.97-0.16c-12.09,1.81-24.25,2.24-36.48,2.25c-7.2,0-8.75-1.74-9.86-8.16
		c-3.43-19.79-6.86-39.57-12.09-58.99c-0.47-1.74,0.3-3.72-0.55-5.49" fill="none" stroke="currentColor" stroke-width="2" stroke-linecap="round" stroke-linejoin="round"/><path d="
		M470,842c2.04,6.56,0.9,13.1-0.62,19.47c-0.82,3.43,0.09,7.76-3.88,10.02c-4.18,2.39-8.89,2.46-13.49,3.02
		c-12.79,1.57-25.62,2.36-38.5,1.94c-4.11-0.13-8.69-0.55-10.37-5.01c-1.69-4.48-2.11-9.4,0.38-13.94
		c3.41-6.22,9.06-9.64,15.49-12.01c2.39-0.88,5.22-1.08,6.94-3.05c2.81-3.22,6.11-2.72,9.56-1.94c11.44,2.58,23,1.19,34.5,0.82
		c3.3-0.11,5.54-2.88,6.09-6.81c1.54-11.04,3.42-22.04,5.33-33.03c1.83-10.5,3.9-20.96,5.59-31.48" fill="none" stroke="currentColor" stroke-width="2" stroke-linecap="round" stroke-linejoin="round"/><path d="
		M421.5,739.5c-3.27,6.18-1.38,12.82-0.68,18.96c0.74,6.51,0.93,13.09,1.39,19.56c1.02,14.46,2.99,28.92,2.27,43.48
		c-0.06,1.16,0.11,2.27-0.39,3.53c-2.32,5.84-1.45,11.14,3.42,15.47" fill="none" stroke="currentColor" stroke-width="2" stroke-linecap="round" stroke-linejoin="round"/><path d="
		M374.5,467.5c-5.88,1.78-8.6,6.72-11.51,11.5c-6.73,11.07-4.65,22.62-1.38,33.97c2.37,8.25,6.16,16.02,10.39,23.53" fill="none" stroke="currentColor" stroke-width="2" stroke-linecap="round" stroke-linejoin="round"/><path d="
		M426.5,413c-2.57,0.16-4.76-0.64-7.03-1.94c-16.75-9.65-34.65-10.23-52.94-5.94c-3.86,0.91-7.36-0.66-11.03-0.12" fill="none" stroke="currentColor" stroke-width="2" stroke-linecap="round" stroke-linejoin="round"/><path d="
		M468.5,863.5c-6.45-0.97-12.68,1.03-18.98,1.66c-13.85,1.36-27.65,1.86-41.51,0.82c-1.73-0.13-3.3,0.74-5,0.53" fill="none" stroke="currentColor" stroke-width="2" stroke-linecap="round" stroke-linejoin="round"/><path d="
		M396.5,474.5c2.45,5.77,8.45,5.83,13.06,7.31c12.6,4.04,25.56,6.31,38.95,4.26c3.13-0.48,6.46,0.35,9.48-1.08
		c2.23-1.05,4.95-1.71,5.01-4.98" fill="none" stroke="currentColor" stroke-width="2" stroke-linecap="round" stroke-linejoin="round"/><path d="
		M583.5,864c-9.68,0.25-19.26,1.89-29,1.58c-10.56-0.33-21.1-0.36-31.5-2.55c-1.49-0.31-2.94,0.81-4.49,0.47" fill="none" stroke="currentColor" stroke-width="2" stroke-linecap="round" stroke-linejoin="round"/><path d="
		M382.5,537.5c-1.22,1.06-2.83,0.75-3.98,0.42c-7.55-2.22-12.55,1.54-16.46,7.13c-3.93,5.61-3.32,11.91-1.01,17.93
		c3.36,8.79,14.95,15.34,23.96,14.07c2.33-0.33,4.07-2.22,6.49-2.05" fill="none" stroke="currentColor" stroke-width="2" stroke-linecap="round" stroke-linejoin="round"/><path d="
		M551.5,509.5c6.42,0.74,13.3-0.43,18.05,5.96c8.34,11.23,5.4,28.96-9.05,32.54" fill="none" stroke="currentColor" stroke-width="2" stroke-linecap="round" stroke-linejoin="round"/><path d="
		M443,607.5c-1.86,4.42,0.88,8.16,2.7,11.39c3.59,6.4,8.44,11.99,14.76,16.18c2.97,1.97,5.7,2.24,8.52,0.4
		c5.38-3.51,11.69-5.98,14.52-12.47" fill="none" stroke="currentColor" stroke-width="2" stroke-linecap="round" stroke-linejoin="round"/><path d="
		M450.5,534.5c-0.21-6.04-1.84-11.55-5.46-16.53c-3.21-4.41-7.02-6.77-12.54-4.96c-5.05,1.66-7.32,5.72-8.47,10.49
		c-1.2,5.01-0.43,10.02,0.47,14.99" fill="none" stroke="currentColor" stroke-width="2" stroke-linecap="round" stroke-linejoin="round"/><path d="
		M530.75,522c-1-5.66-1.85-11.3-5.7-16.04c-2.81-3.47-6.15-6.02-10.52-4.82c-4.9,1.36-7.52,5.43-8.52,10.36
		c-1.07,5.32-0.42,10.66-0.02,16" fill="none" stroke="currentColor" stroke-width="2" stroke-linecap="round" stroke-linejoin="round"/><path d="
		M542,464c-5.12,3.53-11.12,4.01-16.99,5.04c-4.85,0.85-9.6,1.64-13.62,5.33c-3.41,3.12-8.47,3.08-12.89,3.52
		c-8.96,0.9-17.99,1.74-26.99,0.12c-0.48-0.09-1.02-0.1-1.5,0c-9.75,2-17.95-2.73-26.53-5.95c-1.24-0.47-2.4-1.7-3.98-1.06" fill="none" stroke="currentColor" stroke-width="2" stroke-linecap="round" stroke-linejoin="round"/><path d="
		M519.5,599c1.55,3.5,1.16,6.93,0.05,10.52c-2.04,6.63-4.83,12.77-9.51,18.02c-2.6,2.92-5.1,4.34-9.08,2.53
		c-4.43-2.01-9.57-2.53-12.97-6.57" fill="none" stroke="currentColor" stroke-width="2" stroke-linecap="round" stroke-linejoin="round"/><path d="
		M545.5,351c2.17,6,0.12,12.05-0.21,17.99c-0.6,10.69-1.19,21.33-0.29,32.01" fill="none" stroke="currentColor" stroke-width="2" stroke-linecap="round" stroke-linejoin="round"/><path d="
		M577,206.5c-1.18-4.77-2.39-9.53-4.49-14c-0.83-1.78-1.81-3.47-3.04-4.97c-1.37-1.66-3.1-3.05-5.46-2.49
		c-2.52,0.6-3.46,2.96-3.91,4.99c-1.41,6.25-1.6,12.61-0.59,18.98" fill="none" stroke="currentColor" stroke-width="2" stroke-linecap="round" stroke-linejoin="round"/><path d="
		M621.5,340.5c-0.47,4.48,2.07,8.11,3.56,11.98c3.86,10.01,6.92,20.26,9.89,30.54c0.5,1.74,0.79,3.62,0.55,5.49" fill="none" stroke="currentColor" stroke-width="2" stroke-linecap="round" stroke-linejoin="round"/><path d="
		M428.5,415c-1.88,2.77-4.32,4.65-7.46,6.08c-13.39,6.11-25.75,13.66-34.09,26.39c-0.94,1.44-2.34,2.68-3.95,3.53" fill="none" stroke="currentColor" stroke-width="2" stroke-linecap="round" stroke-linejoin="round"/><path d="
		M563,419c-1.87-0.61-3.39,0.86-4.4,1.63c-10.31,7.8-21.81,7.86-33.55,5.19c-2.69-0.61-5.92-0.66-8.26-3.65
		c-1.47-1.88-5.11-0.48-7.78-0.42" fill="none" stroke="currentColor" stroke-width="2" stroke-linecap="round" stroke-linejoin="round"/><path d="
		M548.5,461.5c3.36,2.28,4.39,5.84,5.55,9.48c3.25,10.22,1.93,20.35-0.05,30.52c-0.35,1.82-1.84,2.79-3,4" fill="none" stroke="currentColor" stroke-width="2" stroke-linecap="round" stroke-linejoin="round"/><path d="
		M392.75,573c-0.39,0.79-1.19,1.7-0.71,2.48c7.94,12.7,18.58,21.89,32.9,27.19c10.01,3.7,20.34,3.53,30.57,4.75
		c3.5,0.42,6.45,0.32,8.18,4.5c1.25,3.01,4.8,4.52,7.8,6.1c3.53,1.85,7.41,2.78,11.06,4.36c3.76,1.63,6.65-1.39,9.42-3.42
		c5.01-3.68,10.47-7.13,10.53-14.46" fill="none" stroke="currentColor" stroke-width="2" stroke-linecap="round" stroke-linejoin="round"/><path d="
		M564.5,413.5c-1.53,3.84,0.82,7.32,1.01,11c0.68,13.27-3.8,24.55-13.04,33.97c-0.93,0.95-1.46,2.18-2.47,3.03" fill="none" stroke="currentColor" stroke-width="2" stroke-linecap="round" stroke-linejoin="round"/><path d="
		M399.5,479c-0.29,1.67-0.75,2.99-0.25,5.06c2.17,9.06,2.98,18.34-0.27,27.43c-1.1,3.07-1.84,6.69-6.48,6.01" fill="none" stroke="currentColor" stroke-width="2" stroke-linecap="round" stroke-linejoin="round"/><path d="
		M550.5,506.5c-0.32,1.33,0.66,2.59,0.03,4.01c-2.77,6.29,0.44,11.91,3.14,16.9c7.25,13.41,8.16,26.51,0.92,40.14
		c-1.38,2.59-3.18,5.24-3.08,8.45c0.07,2.23-1.57,3.27-3,4.51c-8.73,7.51-18.88,13.22-29.2,17.54c-8.74,3.66-18.43,6.16-28.29,7.13
		c-7.5,0.74-14.97,1.94-22.52,2.26c-2.18,0.09-4.06,0.82-6,1.56" fill="none" stroke="currentColor" stroke-width="2" stroke-linecap="round" stroke-linejoin="round"/><path d="
		M493.5,575c-6.37-11.2-27.46-15.92-37.5-7" fill="none" stroke="currentColor" stroke-width="2" stroke-linecap="round" stroke-linejoin="round"/><path d="
		M537,468c1.48,6.49,5.35,12.07,7.02,18.5c1.2,4.63,2.76,9.19,2.95,14.01c0.09,2.33,1.53,3.63,3.04,5" fill="none" stroke="currentColor" stroke-width="2" stroke-linecap="round" stroke-linejoin="round"/><path d="
		M718,332c4.14,7.23,9.65,13.58,13.53,20.99c2.27,4.34,5.09,8.42,5.47,13.51" fill="none" stroke="currentColor" stroke-width="2" stroke-linecap="round" stroke-linejoin="round"/><path d="
		M382.5,454.5c-0.03-4.22-3.81-11.77-7.69-14.85c-5.4,5.93-1.77,12.42-1.31,18.6" fill="none" stroke="currentColor" stroke-width="2" stroke-linecap="round" stroke-linejoin="round"/><path d="
		M397.5,717c-4.07,5.15-4.55,8.24-2.02,11.51c4.29,5.55,12.37,8.28,16.52,4.99c0.6-0.47,1.22-0.89,2-1" fill="none" stroke="currentColor" stroke-width="2" stroke-linecap="round" stroke-linejoin="round"/><path d="
		M389,509c3.8,10.73,3.79,22.35,7.86,33.05c0.77,2.04,1.22,5.53-2.38,6.38c-3.05,0.72-5.84,0.83-7.1-3.4
		c-1.28-4.27-5.03-7.64-4.88-12.54" fill="none" stroke="currentColor" stroke-width="2" stroke-linecap="round" stroke-linejoin="round"/><path d="
		M591.5,540c7.02,9.25,16.96,14.44,27,19.5" fill="none" stroke="currentColor" stroke-width="2" stroke-linecap="round" stroke-linejoin="round"/><path d="
		M488.5,464c6.11,2.53,12.51,3.96,19.01,4.96c2.29,0.35,4.2,1.06,5.49,3.04" fill="none" stroke="currentColor" stroke-width="2" stroke-linecap="round" stroke-linejoin="round"/><path d="
		M403.5,665c2.89,5.01,6.41,9.62,9.47,14.52c1.06,1.69,2.08,3.07,3.98,4.08c2.59,1.39,2.23,6.92-0.47,7.83
		c-7.6,2.56-11.72,8.93-16.37,14.65c-0.87,1.07-2.07,1.92-2.69,3.38c-1.36,3.22-2.54,5.95,2.06,7.61c1.91,0.69,2.48,3.12,4.03,4.43" fill="none" stroke="currentColor" stroke-width="2" stroke-linecap="round" stroke-linejoin="round"/><path d="
		M439,743c-0.31,8.38-9.06,17.63-17.5,18.5" fill="none" stroke="currentColor" stroke-width="2" stroke-linecap="round" stroke-linejoin="round"/><path d="
		M608.5,499c1.02-6.23,6.34-8.54,11.04-9.18c5.56-0.75,11.68,0.42,15.92,5.21c1.9,2.14,1.42,5.1,0.85,7.43
		c-0.5,2.07-3.08,2.62-5.32,2.54c-4.79-0.16-9.46,0.47-14,2" fill="none" stroke="currentColor" stroke-width="2" stroke-linecap="round" stroke-linejoin="round"/><path d="
		M636.5,504c4.14,3.06,5.37,7.04,4.06,12.02c-0.41,1.56-0.57,3.53,0.02,4.95c2.8,6.64-0.64,10.59-5.59,14.04" fill="none" stroke="currentColor" stroke-width="2" stroke-linecap="round" stroke-linejoin="round"/><path d="
		M526,490.5c-2.06-5.24-6.63-6.47-11.5-6.95c-2.64-0.26-5.33-0.05-8-0.05" fill="none" stroke="currentColor" stroke-width="2" stroke-linecap="round" stroke-linejoin="round"/><path d="
		M633.5,519.5c-7.95-0.16-14.57,3.4-21,7.5" fill="none" stroke="currentColor" stroke-width="2" stroke-linecap="round" stroke-linejoin="round"/><path d="
		M543,737c2.42,7.75,5.77,14.63,15,16" fill="none" stroke="currentColor" stroke-width="2" stroke-linecap="round" stroke-linejoin="round"/><path d="
		M620.5,489c-2.88-10.77-2.88-10.77-14-10c-4.9,0.34-7.72,3.75-6.41,8.48c0.92,3.32,1.16,6.71,1.91,10.02" fill="none" stroke="currentColor" stroke-width="2" stroke-linecap="round" stroke-linejoin="round"/><path d="
		M423.5,649.5c-0.22,3.18-0.74,6.35-0.89,9.51c-0.2,4.08-1.7,6.57-5.58,8.08c-3.03,1.18-4.62,4.34-7.03,6.42" fill="none" stroke="currentColor" stroke-width="2" stroke-linecap="round" stroke-linejoin="round"/><path d="
		M419.5,666.5c3.04,5.98,0.97,11.51-1.5,17" fill="none" stroke="currentColor" stroke-width="2" stroke-linecap="round" stroke-linejoin="round"/><path d="
		M434.5,493.5c-7.4,0.99-13.12,4.57-17,11" fill="none" stroke="currentColor" stroke-width="2" stroke-linecap="round" stroke-linejoin="round"/><path d="
		M493.5,531.5c-2.08-3.72-5.1-5.2-9.47-3.89c-1.85,0.56-4.09,0.69-5.53,2.39" fill="none" stroke="currentColor" stroke-width="2" stroke-linecap="round" stroke-linejoin="round"/><path d="
		M494.5,531.5c-2.79,1.29-1.57,4.64-3.42,6.58c-1.42,1.5-2.66,3.06-4.58,3.92" fill="none" stroke="currentColor" stroke-width="2" stroke-linecap="round" stroke-linejoin="round"/><path d="
		M508.5,766c-4.77,1.12-9.57,1.77-14.49,2.15c-5.17,0.41-10.32,0.84-15.51,0.85" fill="none" stroke="currentColor" stroke-width="2" stroke-linecap="round" stroke-linejoin="round"/><path d="
		M371.5,553c7.24-0.32,12.1,4.13,17,8.5" fill="none" stroke="currentColor" stroke-width="2" stroke-linecap="round" stroke-linejoin="round"/><path d="
		M600,515c2.24,3.67,6.22,5.15,9.5,7.5" fill="none" stroke="currentColor" stroke-width="2" stroke-linecap="round" stroke-linejoin="round"/><path d="
		M422,546.5c1.17,3.01,4.19,3.84,6.5,5.5" fill="none" stroke="currentColor" stroke-width="2" stroke-linecap="round" stroke-linejoin="round"/><path d="
		M528.5,534c3.18,0.59,4.32,4.79,8,4.5" fill="none" stroke="currentColor" stroke-width="2" stroke-linecap="round" stroke-linejoin="round"/></svg>