<svg xmlns="http://www.w3.org/2000/svg" viewBox="0 0 1024 1024"><path d="
		M703,688.5c1.76,2.06,1.5,4.56,1.5,7c0,16.83,0,33.67,0,50.5c0,9.15,2.33,12.27,11.01,13.97c11.32,2.21,22.24,0.26,33.01-3.41
		c4.63-1.58,5.21-5.08,5.49-9.06c1-14.16,0.5-28.34,0.44-42.5c-0.12-28.33-0.83-56.66-1.13-85c-0.27-25.67-0.56-51.34-0.16-77
		c0.39-25.17,0.29-50.34,0.28-75.5c-0.01-27.5,0.33-55.01,0.72-82.5c0.47-32.5,0.02-65,0.39-97.5c0.03-2.38-0.51-4.65-0.59-7
		c-0.11-3.24-1.66-5.38-4.94-6.55c-11.05-3.97-22.08-3.45-32.99,0.13c-5.79,1.9-5.77,7.77-6.41,12.43
		c-2.87,20.88-4.14,41.9-4.12,62.98c0.02,25.83,0.21,51.67-0.15,77.5c-0.08,5.68,0.18,11.34,0.16,17
		c-0.02,5.5,0.56,11.07-0.13,16.48c-1.14,8.87,0.79,17.64-0.17,26.54c-0.94,8.73-0.41,17.65-0.14,26.48
		c0.2,6.51,0.84,13.02-0.09,19.5c-1.41,9.85,1.17,19.71-0.08,29.49c-1.01,7.93,0.86,15.66,0.65,23.51
		c-0.21,7.83-0.18,15.67-0.02,23.5c0.26,12.68-0.1,25.37-0.82,37.98c-0.34,5.93,0.58,11.67,0.41,17.52c-0.17,5.67-0.9,11.32-0.61,17
		c0.11,2.09-0.12,4.09-1.01,6" fill="none" stroke="currentColor" stroke-width="2" stroke-linecap="round" stroke-linejoin="round"/><path d="
		M300,685.5c-7.21-9.22-7.53-18.94-1.97-28.98c1.59-2.86,0.53-5.66,0.5-8.52c-0.1-7.17-0.03-14.33-0.03-21.5
		c-0.01-7.02-0.71-14.02-1.21-20.98c-0.57-7.87-0.87-8.47-8.82-10.41c-5.51-1.35-11.06-2.09-17.01-0.79
		c-10.79,2.36-9.39,3.04-10.78,11.21c-2.64,15.5-3.04,31.28-4.28,46.96c-1.92,24.14-2.97,48.3-3.48,72.51
		c-0.22,10.54,0.6,21.01,1.13,31.5c0.15,2.95,1.79,4.76,4.93,5.57c7.64,1.99,15.29,1.6,23.02,0.99c3.23-0.26,6.36-0.99,9.47-1.66
		c5.44-1.16,6.48-3.13,7.06-8.9c1.95-19.16,0.63-38.34,0.44-57.5c-0.03-3.12,0.08-6.16,1.7-9.03c5.68-0.8,11.48,0.56,17.32,0.72
		c4.47,0.13,9.03,0.5,13.51,0.68c38.82,1.51,77.66,1.14,116.5,1.11c10.51-0.01,20.97-1.48,31.5-0.99c1.18,0.06,2.41-0.21,3.5,0.5" fill="none" stroke="currentColor" stroke-width="2" stroke-linecap="round" stroke-linejoin="round"/><path d="
		M702.5,688.5c-11.68-0.08-23.35,0.8-35,0.85c-19.5,0.07-39.01-0.49-58.5-1.28c-10.49-0.42-21.01-0.47-31.5-1.09
		c-12.83-0.76-25.68-0.37-38.51-1.37c-6.62-0.51-8.64-1.45-8.55,7.89c0.19,19.16,0.17,38.33,0.02,57.5
		c-0.1,12.79-0.94,11.82-11.97,14.46c-8.71,2.08-17.41,1.18-25.98-0.98c-5.28-1.33-6.81-3.41-7.57-8.47c-0.38-2.52-0.36-5-0.44-7.51
		c-0.62-20.16,1.15-40.35-0.82-60.52c-0.26-2.61,1.52-5.48,1.36-8.48c-0.5-8.99,2.36-18.11-1.03-27c3.11-7.33,0.78-15.01,1.48-22.5
		c0.11-1.16,0.47-2.62-0.06-3.45c-3.75-5.99-0.62-11.15,2.15-16c10.47-18.36,14.92-38.16,13.25-59.03
		c-1.13-14.06-5.07-27.58-12.22-40.07c-3.38-5.91-6.16-12.36-2.63-19.45c0.85-1.7,0.52-3.64,0.52-5.49c0.01-18-0.3-36.01,0.11-54
		c0.28-12.67,0.4-25.39,1.95-38c1.08-8.79,3.92-10.01,14.98-11.82c5.5-0.9,11.34-0.64,16.98,0.78c6.29,1.58,7.98,3.22,8.47,9.54
		c0.65,8.32,1.6,16.63,1.53,25c-0.05,5.67-0.9,11.51,0.22,16.95c1.35,6.58-3.81,10.7-4.64,16.49c-0.62,4.25,0.15,8.08,1.73,10.88
		c2.1,3.73,3.85,6.91,2.71,11.18c-0.17,0.62-0.02,1.33-0.02,1.99c0,20-0.2,40,0.14,60c0.09,4.97-0.56,9.09-2.91,13.62
		c-2.92,5.63-3.26,12.1,0.78,17.87c2.04,2.91,3.19,5.93,2.02,9.52c-0.24,0.75-0.04,1.66-0.04,2.49c0,22.67-0.09,45.33,0.08,68
		c0.04,4.8-0.36,8.71-3.24,13.22c-3.78,5.91-4,18.84,3.66,25.28" fill="none" stroke="currentColor" stroke-width="2" stroke-linecap="round" stroke-linejoin="round"/><path d="
		M703.5,466.5c-8,0-16,0.09-24-0.02c-17.01-0.23-34,0.44-51,0.64c-18.67,0.21-37.34,0.36-56,0.99c-12.17,0.41-24.34,0.21-36.5,0.36
		c-1.38,0.02-2.67,0.34-4,0.53" fill="none" stroke="currentColor" stroke-width="2" stroke-linecap="round" stroke-linejoin="round"/><path d="
		M703.5,434.5c-21.17,0.47-42.34,0.94-63.5,1.57c-19.5,0.58-39,1.13-58.5,1.6c-14.67,0.35-29.35-0.29-44.01,0.81
		c-1.83,0.14-3.71,0.21-5.5-0.48" fill="none" stroke="currentColor" stroke-width="2" stroke-linecap="round" stroke-linejoin="round"/><path d="
		M703,571.5c-3.17,1.3-6.33-0.05-9.5-0.05c-52,0.07-104,0.05-156,0.05c-1.85,0-3.71-0.19-5.5,0.5" fill="none" stroke="currentColor" stroke-width="2" stroke-linecap="round" stroke-linejoin="round"/><path d="
		M703,653.5c-9.17,0-18.34-0.2-27.5,0.03c-45.83,1.18-91.66,0.98-137.5,0.96c-2.01,0-4.05,0.22-6-0.49" fill="none" stroke="currentColor" stroke-width="2" stroke-linecap="round" stroke-linejoin="round"/><path d="
		M703,540.5c-3.33,0-6.67,0.04-10-0.01c-25.67-0.34-51.34,0.27-77,0.66c-24.84,0.38-49.67,0.09-74.5,0.29
		c-3.16,0.03-6.33,1.35-9.5,0.05" fill="none" stroke="currentColor" stroke-width="2" stroke-linecap="round" stroke-linejoin="round"/><path d="
		M483.5,499c-3.31-0.45-5.43-2.67-7.5-5c-11.6-13.03-25.88-21.95-43.03-24.81c-17.66-2.94-35.27-1.39-51.93,5.89
		c-4.57,2-9.4,1.78-14.04,2.88c-3.05,0.72-6.06,1.79-8.43,3.61c-11.76,9.03-22.81,18.82-29.53,32.44
		c-5.85,11.84-10.09,24-11.35,37.46c-0.87,9.33-1.29,18.46,0.46,27.5c1.72,8.89,3.74,17.58,7.35,26.24
		c5.13,12.3,12.81,21.93,22.11,30.68c3.48,3.28,7.47,6.39,12.4,7.6" fill="none" stroke="currentColor" stroke-width="2" stroke-linecap="round" stroke-linejoin="round"/><path d="
		M482.5,622c-2.5,0.11-3.99,1.88-5.49,3.51c-5.89,6.45-12.7,11.77-20.05,16.43c-0.52,0.33-1.13,0.62-1.44,1.08
		c-5.5,8.2-14.33,7.78-22.53,8.4c-13.86,1.05-27.76,1.47-41.48-1.47c-3.16-0.68-5.43,1.77-8.51,1.66c-6.08-0.21-12.03-1.16-18-2.1
		c-0.92-0.14-1.92-1.03-2.72-0.48c-5.48,3.81-11.87,2.52-17.79,2.78c-13.66,0.62-27.34,0.72-40.99,1.72
		c-1.27,0.09-2.3-0.62-3.5-0.54" fill="none" stroke="currentColor" stroke-width="2" stroke-linecap="round" stroke-linejoin="round"/><path d="
		M437,530c-8.69-5.33-17.86-6.35-27.52-3.74c1.77,9.69,1.24,18.74,0.67,27.73c-0.34,5.34-0.69,5.33,4.85,6.04
		c5.54,0.71,10.97,1.95,16,4.49c8,4.04,11.4,9.86,9.96,17.48c-1.09,5.81-5.47,12.53-14.96,13.51" fill="none" stroke="currentColor" stroke-width="2" stroke-linecap="round" stroke-linejoin="round"/><path d="
		M409,527c-10.17,3.1-15.17,10.78-13,20c1.59,6.78,5.42,9.9,13.5,11" fill="none" stroke="currentColor" stroke-width="2" stroke-linecap="round" stroke-linejoin="round"/><path d="
		M411,560c-2.1,6.24-1.02,12.69-0.84,19c0.16,5.52,0.44,11-0.19,16.8c5.12,2.23,10.34,0.78,14.83,1.23
		c0.55-11.86-0.38-22.69,0.7-33.52" fill="none" stroke="currentColor" stroke-width="2" stroke-linecap="round" stroke-linejoin="round"/><path d="
		M425.5,526.5c-1.1,9.48-0.24,19-0.48,28.5c-0.06,2.23,0.06,4.45-1.02,6.5" fill="none" stroke="currentColor" stroke-width="2" stroke-linecap="round" stroke-linejoin="round"/><path d="
		M451,649.5c2.82,2.16,6.04,2.59,9.5,2.54c7.67-0.1,15.34-0.24,23,0.46" fill="none" stroke="currentColor" stroke-width="2" stroke-linecap="round" stroke-linejoin="round"/><path d="
		M363.5,492.5c-0.35,3.18-3.17,4.49-5.04,6.47c-5.97,6.34-10.23,14.07-13.54,21.72c-2.85,6.58-5.02,13.86-6.51,21.25
		c-1.73,8.55-2.27,17.33-1.83,25.54c0.48,8.93,2.31,18.33,5.85,27.06c4.13,10.2,9.7,19.33,16.28,28.19
		c3.85,5.19,10.21,7.7,12.79,13.79c5.09,0.68,8.19,4.95,12.52,6.96c2.76,1.28,4.67,3.11,5.48,6.04" fill="none" stroke="currentColor" stroke-width="2" stroke-linecap="round" stroke-linejoin="round"/><path d="
		M338.5,585c-2.94,1.91-6.26,1.46-9.5,1.5c-2.84,0.03-5.7-0.15-8.5,0.5" fill="none" stroke="currentColor" stroke-width="2" stroke-linecap="round" stroke-linejoin="round"/><path d="
		M336,552c-3.46-1.04-7.06-0.74-10.48-0.34c-2.43,0.29-4.69-0.17-7.02-0.16" fill="none" stroke="currentColor" stroke-width="2" stroke-linecap="round" stroke-linejoin="round"/><path d="
		M335.5,567.5c-5.68-0.37-11.33,0.58-17,0.5" fill="none" stroke="currentColor" stroke-width="2" stroke-linecap="round" stroke-linejoin="round"/><path d="
		M375.5,478c0.15,7.34-5.41,10.92-10.66,13.11c-3.03,1.27-8.16,0.19-11.34-3.11" fill="none" stroke="currentColor" stroke-width="2" stroke-linecap="round" stroke-linejoin="round"/><path d="
		M343.5,601c-4.19,2.5-9.2,0.52-13.52,2.46c-1.15,0.52-2.46,0.71-3.48,1.54" fill="none" stroke="currentColor" stroke-width="2" stroke-linecap="round" stroke-linejoin="round"/><path d="
		M322,534.5c2.54,1.31,5.09,1.55,8.02,1.15c2.74-0.37,5.82-0.99,8.48,0.85" fill="none" stroke="currentColor" stroke-width="2" stroke-linecap="round" stroke-linejoin="round"/><path d="
		M328,519c3.02,1.7,6.22,2.04,9.49,0.97c2.29-0.75,4.41-0.52,6.51,0.53" fill="none" stroke="currentColor" stroke-width="2" stroke-linecap="round" stroke-linejoin="round"/><path d="
		M351,614.5c-2.6,2.79-6.38,2.17-9.54,2.76c-2.53,0.48-4.43,1.54-6.46,2.74" fill="none" stroke="currentColor" stroke-width="2" stroke-linecap="round" stroke-linejoin="round"/><path d="
		M394.5,590.5c4.87,2.06,9.41,5.1,15,5" fill="none" stroke="currentColor" stroke-width="2" stroke-linecap="round" stroke-linejoin="round"/><path d="
		M361.75,627.5c-3.15,1.92-6.79,2.22-10.27,2.91c-1.93,0.38-3.26,1.25-4.48,2.59" fill="none" stroke="currentColor" stroke-width="2" stroke-linecap="round" stroke-linejoin="round"/><path d="
		M337.5,503c4.5,2.79,9.9,0.29,14.5,2.5" fill="none" stroke="currentColor" stroke-width="2" stroke-linecap="round" stroke-linejoin="round"/><path d="
		M410.5,511.5c0.07,4.67-0.28,9.36,0.5,14" fill="none" stroke="currentColor" stroke-width="2" stroke-linecap="round" stroke-linejoin="round"/><path d="
		M424.5,597.5c1.23,4.63-0.06,9.35,0.5,14" fill="none" stroke="currentColor" stroke-width="2" stroke-linecap="round" stroke-linejoin="round"/><path d="
		M411,597c-0.9,4.47-0.36,9-0.5,13.5" fill="none" stroke="currentColor" stroke-width="2" stroke-linecap="round" stroke-linejoin="round"/><path d="
		M413.5,488.5c-14.84,1.71-27.72,7.82-37.91,18.59c-11.73,12.41-19.04,27.41-20.98,44.42c-2.8,24.49,3.87,46.49,21.52,63.86
		c23.75,23.38,61.87,22.35,84.46-2.29c14.55-15.88,21.31-34.42,20.81-55.57c-0.41-17.5-5.68-33.4-17.32-47.06
		c-13.24-15.55-29.87-22.65-50.07-21.94" fill="none" stroke="currentColor" stroke-width="2" stroke-linecap="round" stroke-linejoin="round"/></svg>