<svg xmlns="http://www.w3.org/2000/svg" viewBox="0 0 1024 1024"><path d="
		M513.5,868c6.57-1.48,12.75-4.08,19-6.5" fill="none" stroke="currentColor" stroke-width="2" stroke-linecap="round" stroke-linejoin="round"/><path d="
		M797.25,593c2.25-11.74,3.32-23.65,4.75-35.5" fill="none" stroke="currentColor" stroke-width="2" stroke-linecap="round" stroke-linejoin="round"/><path d="
		M678,192c-7.5-2.5-15-5-22.5-7.5" fill="none" stroke="currentColor" stroke-width="2" stroke-linecap="round" stroke-linejoin="round"/><path d="
		M349,192c-8.4,2.58-16.45,6.04-24.5,9.5" fill="none" stroke="currentColor" stroke-width="2" stroke-linecap="round" stroke-linejoin="round"/><path d="
		M279,224c-12.87,7.78-25.43,16.02-37.5,25" fill="none" stroke="currentColor" stroke-width="2" stroke-linecap="round" stroke-linejoin="round"/><path d="
		M257,671c0.33,0.5,1.13,0.69,1,1.5" fill="none" stroke="currentColor" stroke-width="2" stroke-linecap="round" stroke-linejoin="round"/><path d="
		M360,786c18.26,14.33,37.37,27.42,57.5,39" fill="none" stroke="currentColor" stroke-width="2" stroke-linecap="round" stroke-linejoin="round"/><path d="
		M524,682.5c5.16,3.52,6.31,8.65,6.03,14.5c-0.7,14.16-1.08,28.33-1.59,42.5c-0.41,11.53-0.96,23.06-5.41,34.02
		c-9.45,23.28-27.63,33.21-51.02,30.84c-30.29-3.08-43.68-26.99-42.91-52.35c0.14-4.65,0.86-9.51,4.87-13.03
		c4.4-3.86,9.29-4.62,14.5-2.42c5.14,2.17,7.53,6.38,7.52,11.95c-0.02,6.62-0.01,13.4,4.07,18.95c9.11,12.37,27.23,9.51,33.5-4.92
		c2.33-5.36,2.88-10.89,2.9-16.53c0.08-17.83,0.05-35.67,0.01-53.5c-0.01-2.98,0.26-5.83,2.55-7.98c1.81-1.7,3.34-2.61,6.55-1.79
		c5.8,1.48,12.05,1.8,17.93-0.73" fill="none" stroke="currentColor" stroke-width="2" stroke-linecap="round" stroke-linejoin="round"/><path d="
		M404.5,569c-3.15,1.95-5.38,4.57-7.06,7.97c-10.36,20.9-19.63,42.22-24.87,65.05c-2.03,8.84-3.81,17.74-1.65,27
		c3.17,13.6,14.45,22.18,27.09,23.92c8.57,1.18,17.26,0.78,24.94-3.53c11.9-6.68,16.12-17.79,16.6-30.9
		c0.56-15.29-4-29.46-9.11-43.48c-4.66-12.77-10.55-25.02-16.95-37.01c-1.93-3.62-4.23-6.97-7.98-9.01" fill="none" stroke="currentColor" stroke-width="2" stroke-linecap="round" stroke-linejoin="round"/><path d="
		M766,476.5c3.82-7.76,1.7-15.61,0.54-23.51c-3.4-23.18-9.89-45.45-19.02-67c-12.23-28.85-29.08-54.65-50.5-77.51
		c-19.79-21.12-42.92-37.69-68.51-51c-6.17-3.21-12.5-6.04-19.01-8.48c-2.42-0.91-4.99-2.02-7.48-1.42
		c-6.47,1.56-11.67-1.11-16.48-4.64c-8.54-6.27-18.65-7.52-28.55-9.38c-6.25-1.17-12.52-2.21-19.02-0.72
		c-2.97,0.68-5.85-1.84-8.96-2.4c-5.98-1.07-12.06-0.39-17.99-1.09c-7.26-0.85-13.92,0.49-20.52,3.12
		c-0.78,0.31-1.57,0.76-2.49,0.52c-8.73-2.33-17.02,0.9-25.51,1.89c-10.39,1.22-19.15,5.72-27.59,11.46
		c-1.05,0.72-2.06,2.43-4.43,1.77c-8.26-2.29-15.79,1.08-22.93,4.46c-34.12,16.16-64.17,37.83-88.53,66.93
		c-28.08,33.54-46.15,72.01-56.02,114.49c-2.45,10.55-4.03,21.23-4.95,32.01c-0.08,0.96-0.11,1.93,0.37,3.03
		c2.25,5.13,1.05,9.93-1.91,14.47c-4.7,7.21-3.92,15.49-4.51,23.5" fill="none" stroke="currentColor" stroke-width="2" stroke-linecap="round" stroke-linejoin="round"/><path d="
		M654.5,577.5c-0.11,3.7,0.84,7.26-3.36,10.2c-4.11,2.87-5.51,8.36-7.5,12.87c-7.03,15.93-14.08,31.91-18.09,48.95
		c-1.78,7.54-3.02,15.27-1.47,22.97c2.02,10.05,8.3,16.31,17.88,20.13c13.44,5.35,30.06,1.81,37.53-9.12
		c4.83-7.08,6.54-15.22,5.9-23.48c-1.88-24.08-11.72-45.56-22.93-66.48c-1.85-3.46-3.9-6.99-7.95-8.53" fill="none" stroke="currentColor" stroke-width="2" stroke-linecap="round" stroke-linejoin="round"/><path d="
		M489,233.5c1.29,7.57-1.03,14.49-3.44,21.52c-8.89,25.9-15.07,52.47-19.63,79.47c-2.36,13.96-4.27,27.96-6.02,42
		c-2.69,21.61-4.11,43.3-5.49,65.01c-0.62,9.83-0.46,19.7-1.42,29.5c-0.51,5.17,1.55,10.33,0.01,15.5" fill="none" stroke="currentColor" stroke-width="2" stroke-linecap="round" stroke-linejoin="round"/><path d="
		M537,233.5c-1.29,7.57,1.05,14.49,3.44,21.52c8.77,25.76,15,52.15,19.66,78.96c2.97,17.1,5.04,34.28,7.05,51.5
		c2.12,18.14,3.64,36.34,4.63,54.53c1.07,19.61,2.42,39.31,0.67,58.98c-0.18,2.06,1.15,3.97,0.3,6" fill="none" stroke="currentColor" stroke-width="2" stroke-linecap="round" stroke-linejoin="round"/><path d="
		M431.5,249c0.78,7.9-2.65,14-7.41,20.07c-26.08,33.24-45.15,70.26-58.06,110.44c-6.25,19.45-10.86,39.28-14.18,59.46
		c-1.73,10.5-3.12,21.04-4.76,31.54c-0.67,4.28,1.27,8.6,0.91,12.99" fill="none" stroke="currentColor" stroke-width="2" stroke-linecap="round" stroke-linejoin="round"/><path d="
		M594.5,248.5c-0.64,7.57,2.21,13.58,6.88,19.59c24.32,31.38,43.34,65.79,56.01,103.44c8.7,25.85,15.2,52.3,18.75,79.45
		c0.83,6.34,1.54,12.72,2.7,19.05c0.75,4.09-1.08,8.32-1.83,12.47" fill="none" stroke="currentColor" stroke-width="2" stroke-linecap="round" stroke-linejoin="round"/><path d="
		M525,472c-1.14,67.83-0.2,135.67-0.46,203.5c-0.01,2.2-0.71,4.31-0.54,6.5" fill="none" stroke="currentColor" stroke-width="2" stroke-linecap="round" stroke-linejoin="round"/><path d="
		M501,472c1.12,43.16-0.12,86.34,0.62,129.5c0.43,24.67,0.11,49.34,0.33,74c0.02,2.04,0.62,3.98,0.55,6" fill="none" stroke="currentColor" stroke-width="2" stroke-linecap="round" stroke-linejoin="round"/><path d="
		M724.5,509.5c0.81,4.32-0.29,7.39-3.82,10.69c-4.77,4.47-6.22,11.33-8.58,17.35c-2.8,7.17-5.34,14.49-5.15,22.46
		c0.22,9.29,5.67,15.63,15.55,17.5c7.64,1.45,15.96-3.39,19.01-11c2.47-6.18,1.59-12.28,0.05-18.52
		c-2.03-8.24-5.46-15.89-9.08-23.47c-1.62-3.4-3.93-6.26-7.72-7.51" fill="none" stroke="currentColor" stroke-width="2" stroke-linecap="round" stroke-linejoin="round"/><path d="
		M452.5,487c-6.04-0.79-11.26-3.52-16.54-6.44c-24.16-13.35-48.7-14.98-73.45-1.54c-3.65,1.98-7.46,3.29-11.52,3.96
		c-0.65,0.11-1.64-0.27-1.95,0.06c-5.81,6.2-11.56,1.67-15.9-1.26c-12.43-8.41-25.73-12.6-40.65-11.77
		c-6.04,0.34-11.88,1.72-17.5,3.98c-4.49,1.8-9.14,2.67-14,2.01" fill="none" stroke="currentColor" stroke-width="2" stroke-linecap="round" stroke-linejoin="round"/><path d="
		M680.75,505c-0.8-5.32,0.18-10.66-0.12-16.01c-0.2-3.52-1.62-6.04-4.65-6.35c-7.58-0.77-13.69-5.04-20.49-7.63
		c-22.17-8.43-43.76-6.39-64.41,4.64c-5.68,3.03-11.26,5.5-17.58,6.34" fill="none" stroke="currentColor" stroke-width="2" stroke-linecap="round" stroke-linejoin="round"/><path d="
		M773,507c0.83-9.86-0.28-19.32-5.46-28.02c-0.98-1.65-1.94-2.73-4.04-2.5c-4.4,0.48-8.48-0.99-12.49-2.5
		c-19.1-7.18-37.18-4.76-54.52,5.5c-4.95,2.93-9.83,6.21-15.99,6.03" fill="none" stroke="currentColor" stroke-width="2" stroke-linecap="round" stroke-linejoin="round"/><path d="
		M314.5,533.5c0.1,4.6-0.89,8.07-4.12,12.29c-6.91,9.02-10.37,20.15-11.34,31.71c-0.45,5.34,1.79,9.79,6.02,12.92
		c2.26,1.68,4.99,2.9,7.95,3.05c1.4,0.07,2.27,0.42,2,2.03" fill="none" stroke="currentColor" stroke-width="2" stroke-linecap="round" stroke-linejoin="round"/><path d="
		M572.5,486c-6.87-0.88-13.01-3.68-19.02-6.97c-6.58-3.59-13.5-6.76-20.99-7.4c-7.54-0.64-14.91-2.48-22.49-2.63
		c-0.5-0.01-1.02-0.09-1.5,0.01c-13.89,2.91-28.42,3.54-40.56,12.41c-4.01,2.93-9.16,3.45-13.95,4.58" fill="none" stroke="currentColor" stroke-width="2" stroke-linecap="round" stroke-linejoin="round"/><path d="
		M582.5,528c-1.99,0.79-3.48,2.33-4.44,4.03c-6.02,10.69-10.81,21.81-10.03,34.47c0.46,7.47,6.96,13.42,14.48,13.5
		c7.67,0.08,14.68-5.71,15.48-13c1.13-10.22-2.39-19.37-6.34-28.56c-1.88-4.37-4.12-7.97-8.14-10.44" fill="none" stroke="currentColor" stroke-width="2" stroke-linecap="round" stroke-linejoin="round"/><path d="
		M315,542c3.11,1.78,5.4,4.48,6.93,7.54c3.95,7.88,7.45,15.99,8.05,24.97c0.67,9.98-1.3,16.95-14.48,19.5" fill="none" stroke="currentColor" stroke-width="2" stroke-linecap="round" stroke-linejoin="round"/><path d="
		M522,229c-0.01-7.72,0.97-15.52-1.93-23.03c-0.22-0.58-0.31-1.46-0.63-1.94c-1.65-2.51-2.88-6.34-6.42-5.84
		c-3.31,0.47-5.52,3.16-6.61,6.78c-2.26,7.55-2.96,15.22-2.92,23.02" fill="none" stroke="currentColor" stroke-width="2" stroke-linecap="round" stroke-linejoin="round"/></svg>