<svg xmlns="http://www.w3.org/2000/svg" viewBox="0 0 1024 1024"><path d="
		M535,316c-0.64-5.36,2.14-9.85,4.64-13.91c11.09-18.01,19.71-37.35,30.33-55.6c5.01-8.6,10.01-17.22,15.63-25.41
		c3.22-4.69,6.14-9.25,6.25-15.07c-0.02,0-0.19,0-0.35,0c0.08-0.17,0.24-0.48,0.24-0.48c-9.34-4.91-19.47-3.09-29.23-2.82
		c-8.49,0.23-17.03,0.8-25.51,1.08c-11.33,0.36-22.65,1.09-33.99,1.32c-16.71,0.34-33.35,2.01-50,3.39c-3.24,0.27-5.02,1.86-6.05,5
		c-8.47,26.02-16.04,52.28-22.02,79c-4.18,18.66-8.21,37.36-12.4,56.02c-2.48,11.05-4.2,22.26-5.4,33.51
		c-0.79,7.35,0.07,9.1,7.87,10.01c10.54,1.24,21.03,0.08,31.49-0.65c7.67-0.54,15.35-0.22,23.02-0.72c5.77-0.38,8.38,3.1,6.88,8.82
		c-1.93,7.33-4.9,14.36-7.37,21.53c-8.75,25.42-18.61,50.45-26.99,76c-1.43,4.36-2.28,8.85-1.52,13.49" fill="none" stroke="currentColor" stroke-width="2" stroke-linecap="round" stroke-linejoin="round"/><path d="
		M614.5,448c0.36,6.22-3.09,11.19-6.12,15.92c-11.68,18.26-22.69,36.97-35.39,54.57c-16.46,22.82-32.6,45.88-50.01,67.99
		c-3.66,4.65-5.27,10.21-7.44,15.53c-0.29,0.72-0.83,1.38-0.12,2.53c3.02,4.91,2.94,10.29,2.73,15.96
		c-0.48,13.32-0.15,26.66-0.15,39.99" fill="none" stroke="currentColor" stroke-width="2" stroke-linecap="round" stroke-linejoin="round"/><path d="
		M608,321c0.95,7.27-3.15,13.02-6.08,18.96c-13.22,26.81-26.8,53.45-41.45,79.52c-3.07,5.46-5.89,11.06-8.88,16.56
		c-1.28,2.35-1.98,5.12-1.58,7.96" fill="none" stroke="currentColor" stroke-width="2" stroke-linecap="round" stroke-linejoin="round"/><path d="
		M509.5,510.25c-0.51,0.01-1.49-0.01-1.44,0.24c1.99,9.52-2.19,18.19-4.27,26.96c-5.77,24.34-11.92,48.62-19.28,72.55
		c-1.8,5.84-1.2,11.52,1.54,16.62c-3.61,6.85-9.74,12.11-9.55,20.37" fill="none" stroke="currentColor" stroke-width="2" stroke-linecap="round" stroke-linejoin="round"/><path d="
		M533,778.5c1.08,14.66,0.3,29.33,0.45,44c0.04,3.61,0.64,7.06,1.57,10.5c1.55,5.75,4.71,7.92,11.49,8
		c5.49,0.07,9.13-2.26,10.43-7.52c1.88-7.53,2.04-15.32,1.45-22.97c-0.82-10.51-0.85-21-0.88-31.51" fill="none" stroke="currentColor" stroke-width="2" stroke-linecap="round" stroke-linejoin="round"/><path d="
		M463.5,780c-0.2,15.18,0.23,30.34,0.99,45.5c0.44,8.7,3.2,13.46,9.52,14.93c7.58,1.76,15.16-1.65,15.23-10.93
		c0.05-6.12,1.42-12.42,0.6-18.48c-1.41-10.36-0.43-20.69-0.84-31.02" fill="none" stroke="currentColor" stroke-width="2" stroke-linecap="round" stroke-linejoin="round"/><path d="
		M538.5,745.5c-11.33-0.39-22.65-1.74-34-0.49c-2.21,0.24-4.31-0.62-6.5-0.52c-16.33,0.73-32.67,0.89-49,1.5
		c-1,0.04-2.1,0.27-2.98-0.05c-2.47-0.89-4.71-1.74-7.05,0.51c-2.62,2.52-4.9,5.31-4.37,9.02c0.67,4.71,1.31,9.41,2.76,14.06
		c2.06,6.6,6.82,8.27,12.65,8.41c10.16,0.23,20.32,0.45,30.5,0.32c6.73-0.08,13.34-0.66,20.01-1.04
		c10.45-0.59,21.03-0.99,31.46,0.48c1.52,0.21,2.24-0.39,2.98-0.8c1.82-1.02,3.89-1.43,5.51-0.8c5.21,2.03,11.03,1.75,16.05,1.8
		c6.43,0.05,13.59,0.22,19.98-2.43c2.15-0.89,2.94-3.09,4.02-4.97c2.67-4.65,3.58-9.85,4.43-15.01c0.43-2.6-0.58-4.9-2.93-6.51
		c-4.11-2.82-3.65-6.55-2.89-11.01c3.91-22.79-3.78-45.41-31.13-51.93c-0.55-0.13-0.96-0.45-1.47-0.61
		c-3.86-1.24-8.7-0.66-11.38-4.05c-2.38-3.02-0.87-7.22-1.14-10.89c-0.35-4.76-2.97-6.34-7.95-7.66c-7.5-2-14.72,0.89-22.04,0.14
		c-4.54-0.46-8.97-0.62-13.52,0.44c-5.83,1.36-9.59,2.72-8.99,10.09c0.08,0.99,0.03,2,0.01,3c-0.11,6.45-0.07,6.19-6.54,7.85
		c-8.76,2.24-16.72,5.24-23.56,11.55c-7.35,6.78-10.2,15.13-12.09,24.57c-1.69,8.46,0.75,16.37,1.19,24.54" fill="none" stroke="currentColor" stroke-width="2" stroke-linecap="round" stroke-linejoin="round"/><path d="
		M526.5,316.5c13.26,1.93,26.57,3.19,40,2.52c10.49-0.53,20.99-1.11,31.5-1.02c1.17,0.01,2.55-0.41,3.46,0.07
		c4.04,2.13,8.26,1.88,12.54,1.43" fill="none" stroke="currentColor" stroke-width="2" stroke-linecap="round" stroke-linejoin="round"/><path d="
		M508,510c-2.31-2.1-4.86-2.19-8-2.19c-9.26-0.01-18.32,1.73-27.49,2.37c-7.67,0.54-15.36,1.4-23.01,2.31
		c-1.15,0.14-2.54,0.43-3.46-0.05c-3.7-1.93-7.12-1.3-10.54,0.57" fill="none" stroke="currentColor" stroke-width="2" stroke-linecap="round" stroke-linejoin="round"/><path d="
		M544,444.5c3.47-0.22,6.87-0.1,10.01,1.73c1.85,1.08,3.96,0.7,5.99,0.77c14.7,0.57,29.34-0.9,44-1.49
		c1.67-0.07,3.36-0.24,5.01,0.46c5.36,2.28,10.26-1.67,15.49-1.23" fill="none" stroke="currentColor" stroke-width="2" stroke-linecap="round" stroke-linejoin="round"/><path d="
		M558.5,204c0.33,4.18-0.52,7.98-2.97,11.52c-7.81,11.26-13.66,23.67-20.53,35.48" fill="none" stroke="currentColor" stroke-width="2" stroke-linecap="round" stroke-linejoin="round"/><path d="
		M486.5,627.5c7.39,1.55,10.21,9.43,10.51,16c0.27,6-1.29,12-0.01,18" fill="none" stroke="currentColor" stroke-width="2" stroke-linecap="round" stroke-linejoin="round"/><path d="
		M514.5,604c-5.83,0.69-9.18,5.07-12.39,9.09c-3.42,4.29-6.86,8.45-11.11,11.91" fill="none" stroke="currentColor" stroke-width="2" stroke-linecap="round" stroke-linejoin="round"/><path d="
		M578,745c-6.39,1.88-13.05,0.33-19.5,1.5" fill="none" stroke="currentColor" stroke-width="2" stroke-linecap="round" stroke-linejoin="round"/><path d="
		M540.5,702.5c-4.71,0.74-6.06,5.27-9,8" fill="none" stroke="currentColor" stroke-width="2" stroke-linecap="round" stroke-linejoin="round"/><path d="
		M529.5,262.5c-2.28,4.07-3.54,8.65-6.25,12.5" fill="none" stroke="currentColor" stroke-width="2" stroke-linecap="round" stroke-linejoin="round"/><path d="
		M465.5,713c-2.61,3.08-4.92,6.39-7.5,9.5" fill="none" stroke="currentColor" stroke-width="2" stroke-linecap="round" stroke-linejoin="round"/></svg>