<svg xmlns="http://www.w3.org/2000/svg" viewBox="0 0 1024 1024"><path d="
		M713.5,474.75c7.25-3.32,12.57,1.75,18.5,4.24c16.96,7.11,28.74,19.36,34.88,36.55c4.42,12.38,5.02,25.37,3.65,38.46
		c-1.49,14.2-4.8,27.8-12.54,39.99c-12.65,19.91-30.37,32.08-53.97,35.62c-6.68,1-13.34,0.96-20.01,1.47
		c-21.65,1.65-43.36,1.3-65,1.19c-36.83-0.18-73.67-2.18-110.5-1.09c-34.18,1.01-68.36-0.19-102.5,1.08
		c-20.19,0.75-40.35,0.76-60.51,0.52c-11.47-0.14-23.05,0.56-34.53-1.9c-14.41-3.1-25.91-10.74-35.4-21.44
		c-15.63-17.61-22.22-38.69-20.43-61.93c2.21-28.6,16.81-48.44,44.36-58c0.3-0.1,0.7,0.09,0.99-0.03c6.46-2.51,7.37-4.55,4.49-10.98
		c-5-11.16-7.57-22.9-6.36-35c2.09-20.86,10.82-38.66,26.89-52.5c10.57-9.1,22.46-15.23,36.46-17.67
		c12.46-2.18,24.4-1.19,35.99,3.25c10.41,3.99,11.43,5.32,15.17-6.55c8.58-27.21,24.92-48.79,49.92-62.94
		c18.78-10.63,39.32-16.14,60.93-14.43c30.31,2.4,57.63,12.39,78.49,35.85c10.9,12.26,17.52,26.85,22,42.48
		c0.63,2.18,0.8,4.82,2.15,6.39c3.07,3.59,2.49,6.95,0.63,10.6" fill="none" stroke="currentColor" stroke-width="2" stroke-linecap="round" stroke-linejoin="round"/><path d="
		M720.5,472.5c0.1-2.42,0.84-4.69,1.48-7.01c7.43-27.19,0.75-50.47-19.47-70c-12.43-12.01-27.24-18.09-44.51-17.95
		c-8.23,0.06-16.09,2.49-24,4.45c-1.3,0.32-2.61,0.75-4,0.52" fill="none" stroke="currentColor" stroke-width="2" stroke-linecap="round" stroke-linejoin="round"/><path d="
		M628.5,439c-3.31-7.63-6.96-15.02-14.5-19.5c-7.29-4.33-14.86-7.13-23.51-4.53c-1.27,0.38-2.61,0.76-3.99,0.53" fill="none" stroke="currentColor" stroke-width="2" stroke-linecap="round" stroke-linejoin="round"/><path d="
		M365.5,658.5c1.15,6.09-3.09,10.4-5.69,14.89c-4.8,8.27-10.52,16.01-14.84,24.6c-0.82,1.63-1.85,3.24-3.97,3.51" fill="none" stroke="currentColor" stroke-width="2" stroke-linecap="round" stroke-linejoin="round"/><path d="
		M454.5,658.5c0.82,7.23-4.3,12.22-7.16,17.92c-5.1,10.17-10.76,20.09-17.09,29.58" fill="none" stroke="currentColor" stroke-width="2" stroke-linecap="round" stroke-linejoin="round"/><path d="
		M637,652.5c0.74,3.46-0.7,6.56-2.07,9.47c-4.57,9.72-9.35,19.35-15.04,28.46c-1.65,2.64-2.67,5.06-2.39,8.07" fill="none" stroke="currentColor" stroke-width="2" stroke-linecap="round" stroke-linejoin="round"/><path d="
		M481.25,713c-5.5,13.76-13.26,26.27-21.5,38.5" fill="none" stroke="currentColor" stroke-width="2" stroke-linecap="round" stroke-linejoin="round"/><path d="
		M383.5,718.5c-4.82,6.96-7.43,15.14-12.38,22.08c-2.09,2.92-4.12,6.03-5.74,9.36c-0.79,1.62-2.25,3.64-4.88,2.81" fill="none" stroke="currentColor" stroke-width="2" stroke-linecap="round" stroke-linejoin="round"/><path d="
		M569.75,715c-3.13,7.91-7.49,15.18-11.75,22.5c-2.74,4.72-5.3,9.58-8.59,13.93c-1.32,1.75-0.62,3.39-0.92,5.06" fill="none" stroke="currentColor" stroke-width="2" stroke-linecap="round" stroke-linejoin="round"/><path d="
		M547.5,658c0.11,3.23-2.23,5.43-3.59,7.95c-5.42,10.07-11.28,19.89-17.41,29.55" fill="none" stroke="currentColor" stroke-width="2" stroke-linecap="round" stroke-linejoin="round"/><path d="
		M408.5,380c1.62,3.35,3.77,6.52,3.5,10.5" fill="none" stroke="currentColor" stroke-width="2" stroke-linecap="round" stroke-linejoin="round"/></svg>