<svg xmlns="http://www.w3.org/2000/svg" viewBox="0 0 1024 1024"><path d="
		M718.5,595c0.24,1.36,1.02,2.52,1.04,4c0.17,15.27-0.44,30.48-3.54,45.5c-1.48,7.16-4.91,13.16-9.94,18.55
		c-18.26,19.6-41.67,30.52-66.04,39.98c-21.6,8.38-43.8,14.68-66.54,18.83c-15.01,2.74-30.16,4.73-45.46,5.85
		c-16.7,1.23-33.41,1.7-50,0.55c-23.52-1.63-46.81-5.36-69.54-12.17c-20.9-6.26-41.28-13.67-61.01-23.01
		c-15.25-7.22-27.97-17.46-38.99-30.05c-2.94-3.36-3.66-7.43-4.46-11.53c-2.12-10.75-4.56-21.65-4.13-32.48
		c0.3-7.46-1.83-15.04,0.97-22.57c2.04-5.49,5.44-9.81,9.23-13.87c2.7-2.89,2.52-5.29,0.4-8.07c-0.51-0.66-0.91-1.39-1.45-2.04
		c-5.88-7.08-8.38-15.4-8.52-24.47c-0.15-9.52-1.65-18.96-1.53-28.5c0.05-4,0.86-7.91-0.29-12.05c-0.89-3.19,0.98-6.6,2.87-9.4
		c0.97-1.43,2.17-2.78,3.41-4.07c6.81-7.08,7.05-7.26,2.45-15.43c-4.51-8.02-5.42-16.78-5.81-25.55
		c-0.46-10.48-1.41-21.24,0.72-31.43c1.87-8.96-0.4-17.98,1.85-26.52c2.93-11.12,7.9-21.52,15.31-30.55
		c17-20.71,39.45-33.25,64.03-42.44c18.18-6.8,36.48-13.41,55.5-17.45c13.67-2.91,27.47-5.07,41.47-6.23
		c16.83-1.4,33.66-2.42,50.51-1.78c27.28,1.04,54.18,4.82,80.52,12.35c17.47,4.99,34.72,10.5,51.51,17.5
		c11.71,4.88,22.05,11.87,31.96,19.58c7.17,5.58,12.98,12.41,18.06,19.95c6.55,9.72,9.66,20.54,9.83,32.03
		c0.16,10.2,2.12,20.24,1.74,30.5c-0.51,13.82-2.13,27.37-6.62,40.5c-2.18,6.38-2.53,12.07,2.83,17.66c3.64,3.79,4.8,9.13,3.8,14.86
		c-0.8,4.56,1.25,9.17,0.48,14c-1.67,10.5-1.29,21.32-5.11,31.48c-2.1,5.6-5.28,10.69-7.18,16.44c-1.28,3.88-1.06,7.07,1.22,10.02
		c4.9,6.36,6.33,13.31,4.45,21.04" fill="none" stroke="currentColor" stroke-width="2" stroke-linecap="round" stroke-linejoin="round"/><path d="
		M715.5,479c-2.46,0.36-4.82,0.94-6.5,3c-14.5,17.75-33.73,28.92-54.03,38.44c-22.07,10.35-45.11,17.95-68.97,23.08
		c-10.42,2.24-20.91,3.79-31.49,5.09c-10.66,1.31-21.39,1.09-31.99,2.15c-11.45,1.15-22.74-0.15-34.01-0.59
		c-13.03-0.5-26.07-2.34-39.05-4.47c-18.43-3.02-36.59-6.94-54.45-12.26c-19.28-5.75-37.97-13.14-54.92-24.09
		c-8-5.17-16.14-10.55-21.64-18.83c-1.69-2.55-4.34-4.05-7.45-4.53" fill="none" stroke="currentColor" stroke-width="2" stroke-linecap="round" stroke-linejoin="round"/><path d="
		M723.5,504c-3.99-0.09-6.15,2.9-7.91,5.56c-12.13,18.28-29.63,29.59-49.09,38.44c-31.82,14.48-65.52,21.69-99.99,26.05
		c-14.3,1.81-28.62,3.13-43.01,3.38c-28.91,0.51-57.53-2.4-86.01-7.34c-27.71-4.81-55.24-10.2-81.98-19.09
		c-11.34-3.77-22.13-8.91-31.86-15.69c-5.91-4.12-11.25-9.49-15.06-15.85c-1.95-3.25-4.55-4.86-8.08-5.45" fill="none" stroke="currentColor" stroke-width="2" stroke-linecap="round" stroke-linejoin="round"/><path d="
		M711,568c-2.56,0.2-5.03,0.78-6.99,2.51c-16.82,14.88-36.78,24.45-57.02,33.46c-22.15,9.85-45.4,16.39-69.02,21.35
		c-11.33,2.38-22.94,3.7-34.43,5.43c-13.19,1.99-26.38,1.64-39.54,2.04c-8.95,0.27-18.04,0.39-26.98-0.41
		c-21.6-1.93-42.94-5.2-64.08-10.62c-22.6-5.79-44.48-13.14-65.4-23.33c-9.58-4.66-18.62-10.34-27.01-16.97
		c-2.28-1.8-4.69-2.65-7.53-2.47" fill="none" stroke="currentColor" stroke-width="2" stroke-linecap="round" stroke-linejoin="round"/><path d="
		M722,410c-3.18,0.9-5.07,2.93-6.58,5.96c-7.33,14.69-19.48,24.77-32.91,33.55C660.33,464,635.7,472.68,610.5,480
		c-11.51,3.34-23.26,5.67-35,7.97c-10.92,2.15-21.99,3.54-33.02,4.81c-5.09,0.58-10.32,0.97-15.46,1.39
		c-14.68,1.2-29.35,0.87-44.01,0.77c-16.13-0.11-32.08-2.13-48.03-4.77c-16.38-2.71-32.34-6.64-47.98-12.14
		c-21.36-7.51-41.49-17.29-58.43-32.59c-7.13-6.44-13.1-14.01-17.05-22.94c-1.44-3.26-3.28-6.06-7.01-7" fill="none" stroke="currentColor" stroke-width="2" stroke-linecap="round" stroke-linejoin="round"/><path d="
		M718,594.5c-3.22,0.29-5.41,1.95-7.58,4.43c-13.43,15.43-30.75,25.21-48.85,34.22c-21.97,10.94-45.1,18.43-68.63,24.66
		c-15.39,4.07-31.14,7.07-46.97,9.05c-11.11,1.39-22.29,2.4-33.46,3.38c-10.02,0.89-20.04,0.85-30.03,1.05
		c-13.48,0.27-27.06,0.09-40.49-1.37c-29.81-3.24-59.18-8.54-87.02-20.38c-17.93-7.63-34.7-16.86-46.91-32.59
		c-1.95-2.52-4.49-3.04-7.07-3.94" fill="none" stroke="currentColor" stroke-width="2" stroke-linecap="round" stroke-linejoin="round"/><path d="
		M534,447.5c10.52-0.1,20.27-3.35,28.38-9.65c11.21-8.71,9.12-21.85-2.9-28.82c-8.01-4.65-16.96-6.23-25.84-8.58
		c-10.38-2.75-20.58-0.37-30.64-2.45c-1.56-0.32-2.97,0.61-4.5,0.5" fill="none" stroke="currentColor" stroke-width="2" stroke-linecap="round" stroke-linejoin="round"/><path d="
		M528,350.5c-9.36-0.37-18.93-0.8-27.94,1.26c-13.07,2.99-26.44,6.09-35.64,17.67c-7.04,8.87-3.38,18.96,4.53,22.67
		c8.85,4.16,17.96,5.55,27.55,4.89" fill="none" stroke="currentColor" stroke-width="2" stroke-linecap="round" stroke-linejoin="round"/><path d="
		M495.5,354c1.76,4.05,1.28,8.22,1.11,12.5c-0.36,8.99-0.75,18.05,0.05,26.98c1.04,11.67,0.9,23.35,1.53,35
		c0.3,5.69,1.15,11.31,0.34,17.01c-0.25,1.8,0,3.55,2.47,3.49c10.5-0.28,21.03,1.84,31.5-0.49" fill="none" stroke="currentColor" stroke-width="2" stroke-linecap="round" stroke-linejoin="round"/><path d="
		M529,332c-0.9,5.65-0.82,11.57-0.17,16.96c1.62,13.36,0.41,26.74,1.65,40.04c0.3,3.21-0.15,6.38-0.99,9.5" fill="none" stroke="currentColor" stroke-width="2" stroke-linecap="round" stroke-linejoin="round"/><path d="
		M532,401.5c-1.95,8.67,0.11,17.33,0.04,26c-0.05,7.34,1.13,14.61,1.26,21.99c0.14,7.63,0.82,15.33,1.19,23.01" fill="none" stroke="currentColor" stroke-width="2" stroke-linecap="round" stroke-linejoin="round"/><path d="
		M581,494.5c1.16,11.52,0.21,23-0.45,34.5c-0.18,3.2-1.51,6.25-1.05,9.5" fill="none" stroke="currentColor" stroke-width="2" stroke-linecap="round" stroke-linejoin="round"/><path d="
		M356.5,466c-2.24,5.68-0.8,11.68-1.33,17.52c-0.76,8.29,0.37,16.66,0.83,24.98" fill="none" stroke="currentColor" stroke-width="2" stroke-linecap="round" stroke-linejoin="round"/><path d="
		M664.5,469.5c-0.03,13.53,0.37,27.09-2.02,40.5c-0.12,0.67,0.79,0.86,0.52,1.5" fill="none" stroke="currentColor" stroke-width="2" stroke-linecap="round" stroke-linejoin="round"/><path d="
		M625.5,483.5c1.1,7.65,0.6,15.35,0.38,23c-0.17,5.99-0.68,12.02-1.38,18" fill="none" stroke="currentColor" stroke-width="2" stroke-linecap="round" stroke-linejoin="round"/><path d="
		M326.5,446c-1.19,1.07-2.08,2.09-2.06,4c0.11,12.2,0.15,24.4,2.06,36.5" fill="none" stroke="currentColor" stroke-width="2" stroke-linecap="round" stroke-linejoin="round"/><path d="
		M460.5,436.5c11.57,6.83,23.93,10.97,37.5,11" fill="none" stroke="currentColor" stroke-width="2" stroke-linecap="round" stroke-linejoin="round"/><path d="
		M452,580.5c0,8.17,0.03,16.33-0.01,24.5c-0.02,3.5,0.17,7,0.01,10.5" fill="none" stroke="currentColor" stroke-width="2" stroke-linecap="round" stroke-linejoin="round"/><path d="
		M452.5,502.5c-0.76,11.67-0.76,23.33,0,35" fill="none" stroke="currentColor" stroke-width="2" stroke-linecap="round" stroke-linejoin="round"/><path d="
		M447.5,677.5c-0.91,11.73-0.92,23.42,1.5,35" fill="none" stroke="currentColor" stroke-width="2" stroke-linecap="round" stroke-linejoin="round"/><path d="
		M504.5,588.5c2.13,11.37,0.86,22.68-0.5,34" fill="none" stroke="currentColor" stroke-width="2" stroke-linecap="round" stroke-linejoin="round"/><path d="
		M645,651.5c1.77,11.29,2.04,22.63,1,34" fill="none" stroke="currentColor" stroke-width="2" stroke-linecap="round" stroke-linejoin="round"/><path d="
		M391,484.5c1.14,6.46,0.25,13,0.87,19.51c0.42,4.45,0.98,8.97,0.63,13.49" fill="none" stroke="currentColor" stroke-width="2" stroke-linecap="round" stroke-linejoin="round"/><path d="
		M352,649.5c-2.11,7.08-0.81,14.34-0.87,21.5c-0.03,3.46,0.46,7.06,1.37,10.5" fill="none" stroke="currentColor" stroke-width="2" stroke-linecap="round" stroke-linejoin="round"/><path d="
		M400.5,667.5c0.12,10.68-0.61,21.41,1.5,32" fill="none" stroke="currentColor" stroke-width="2" stroke-linecap="round" stroke-linejoin="round"/><path d="
		M322.5,536c-2.08,4.88-1.14,10.05-0.83,14.99c0.36,5.5-0.28,11.06,0.83,16.51" fill="none" stroke="currentColor" stroke-width="2" stroke-linecap="round" stroke-linejoin="round"/><path d="
		M407.5,576.5c-0.86,10.37-0.91,20.72,1,31" fill="none" stroke="currentColor" stroke-width="2" stroke-linecap="round" stroke-linejoin="round"/><path d="
		M324.5,642.5c-0.03,8.89,0.17,17.76,2,26.5c0.32,1.54-0.34,2.62-1.5,3.5" fill="none" stroke="currentColor" stroke-width="2" stroke-linecap="round" stroke-linejoin="round"/><path d="
		M534,506.5c-0.83,3.88,0.58,7.64,0.59,11.5c0,6.2-0.35,12.35-1.09,18.5" fill="none" stroke="currentColor" stroke-width="2" stroke-linecap="round" stroke-linejoin="round"/><path d="
		M376,567.5c-1.07,9.69,0.04,19.34,0.5,29" fill="none" stroke="currentColor" stroke-width="2" stroke-linecap="round" stroke-linejoin="round"/><path d="
		M343.5,551.5c-0.53,9.72-0.66,19.42,1.5,29" fill="none" stroke="currentColor" stroke-width="2" stroke-linecap="round" stroke-linejoin="round"/><path d="
		M594.5,671.5c1.53,9.31,1.3,18.65,0.5,28" fill="none" stroke="currentColor" stroke-width="2" stroke-linecap="round" stroke-linejoin="round"/><path d="
		M598,579.5c-0.16,9.33,0.42,18.68-0.5,28" fill="none" stroke="currentColor" stroke-width="2" stroke-linecap="round" stroke-linejoin="round"/><path d="
		M703.5,445.5c0.1,9.39,0.02,18.76-2,28" fill="none" stroke="currentColor" stroke-width="2" stroke-linecap="round" stroke-linejoin="round"/><path d="
		M493.5,686.5c0.22,9.34,0.49,18.67,1,28" fill="none" stroke="currentColor" stroke-width="2" stroke-linecap="round" stroke-linejoin="round"/><path d="
		M547,680.5c1.34,8.98,1.16,17.98,0.5,27" fill="none" stroke="currentColor" stroke-width="2" stroke-linecap="round" stroke-linejoin="round"/><path d="
		M658,561.5c-0.08,9,0.29,18.01-0.5,27" fill="none" stroke="currentColor" stroke-width="2" stroke-linecap="round" stroke-linejoin="round"/><path d="
		M675,642.5c-0.21,10.36-2.04,20.62-2,31" fill="none" stroke="currentColor" stroke-width="2" stroke-linecap="round" stroke-linejoin="round"/><path d="
		M530.5,352c8.26-0.46,15.35,3.15,22.47,6.56c1.03,0.49,2.16,1.46,2.28,2.94" fill="none" stroke="currentColor" stroke-width="2" stroke-linecap="round" stroke-linejoin="round"/><path d="
		M499.5,508.5c-0.19,8.02-0.34,16.04-1.5,24" fill="none" stroke="currentColor" stroke-width="2" stroke-linecap="round" stroke-linejoin="round"/><path d="
		M549.5,591.5c0.17,7.69-0.19,15.35-1,23" fill="none" stroke="currentColor" stroke-width="2" stroke-linecap="round" stroke-linejoin="round"/><path d="
		M421,504.5c0,6.67,0,13.33,0,20" fill="none" stroke="currentColor" stroke-width="2" stroke-linecap="round" stroke-linejoin="round"/><path d="
		M686,464.5c0.58,5.69-0.85,11.32-0.5,17" fill="none" stroke="currentColor" stroke-width="2" stroke-linecap="round" stroke-linejoin="round"/><path d="
		M384,371.5c-3.16,5.66-6.45,11.23-11.5,15.5" fill="none" stroke="currentColor" stroke-width="2" stroke-linecap="round" stroke-linejoin="round"/><path d="
		M702.5,539.5c0.38,5.38-0.69,10.67-1,16" fill="none" stroke="currentColor" stroke-width="2" stroke-linecap="round" stroke-linejoin="round"/><path d="
		M680.5,556.5c-0.03,5.33,1.16,10.67,0,16" fill="none" stroke="currentColor" stroke-width="2" stroke-linecap="round" stroke-linejoin="round"/><path d="
		M697,632.5c0.27,5.33,1.02,10.67,0,16" fill="none" stroke="currentColor" stroke-width="2" stroke-linecap="round" stroke-linejoin="round"/><path d="
		M670,416.5c-3.2,5.8-7.96,10.04-13.5,13.5" fill="none" stroke="currentColor" stroke-width="2" stroke-linecap="round" stroke-linejoin="round"/><path d="
		M603,504.5c0.05,5-0.03,10,0,15" fill="none" stroke="currentColor" stroke-width="2" stroke-linecap="round" stroke-linejoin="round"/><path d="
		M622,672.5c-0.04,5,0.16,10.02-0.5,15" fill="none" stroke="currentColor" stroke-width="2" stroke-linecap="round" stroke-linejoin="round"/><path d="
		M370.5,362.5c-4.64,4.55-9.11,9.27-13,14.5" fill="none" stroke="currentColor" stroke-width="2" stroke-linecap="round" stroke-linejoin="round"/><path d="
		M518.5,692.5c-0.65,4.7,1.08,9.31,0.5,14" fill="none" stroke="currentColor" stroke-width="2" stroke-linecap="round" stroke-linejoin="round"/><path d="
		M628.5,580.5c0.78,4.64,0.43,9.33,0.5,14" fill="none" stroke="currentColor" stroke-width="2" stroke-linecap="round" stroke-linejoin="round"/><path d="
		M653,404.5c-2.26,5.52-8.09,8.03-11,13" fill="none" stroke="currentColor" stroke-width="2" stroke-linecap="round" stroke-linejoin="round"/><path d="
		M643,493.5c0.06,4.03-0.02,8.05-1,12" fill="none" stroke="currentColor" stroke-width="2" stroke-linecap="round" stroke-linejoin="round"/><path d="
		M474.5,597.5c-1.16,3.62-0.18,7.34-0.5,11" fill="none" stroke="currentColor" stroke-width="2" stroke-linecap="round" stroke-linejoin="round"/><path d="
		M572.5,597.5c0.42,3.33,0.42,6.67,0,10" fill="none" stroke="currentColor" stroke-width="2" stroke-linecap="round" stroke-linejoin="round"/><path d="
		M373.5,490.5c0,3.33,0,6.67,0,10" fill="none" stroke="currentColor" stroke-width="2" stroke-linecap="round" stroke-linejoin="round"/><path d="
		M375,674.5c-0.38,3.36,0.7,6.65,0.5,10" fill="none" stroke="currentColor" stroke-width="2" stroke-linecap="round" stroke-linejoin="round"/><path d="
		M507,264.5c-6.95,1.27-14.01,0.89-21,1.44c-15.97,1.24-31.78,3.49-47.5,6.53c-19.45,3.77-38.33,9.53-56.99,16.05
		c-28.12,9.83-54.2,23.34-75.95,44.04c-16.84,16.03-28.34,35.37-32.41,58.47c-1.38,7.85-1.31,15.98-2.09,23.98
		c-1.12,11.46-1.33,22.98-1.06,34.49c0.23,9.98,0.7,19.91,3.89,29.54c0.47,1.42,0.21,3.2-0.78,5.03
		c-7.05,13.05-6.77,27.23-5.57,41.43c0.63,7.5,0.8,15.01,1.37,22.51c0.65,8.47,1,17,4.2,24.94c1.33,3.3,0.89,6.32-0.23,9
		c-5.78,13.79-5.42,28.14-4.33,42.54c0.54,7.19,1.74,14.36,2.28,21.52c1.57,20.95,10.84,37.66,26.15,51.5
		c16.83,15.21,36.69,25.12,57.5,33.52c23.22,9.37,46.87,17.16,71.49,22.06c19.36,3.85,38.82,6.37,58.52,7.44
		c25.02,1.36,49.75-0.97,74.52-4.4c26.43-3.66,52.31-9.41,77.45-18.21c24.96-8.74,49.67-18.14,71.04-34.41
		c12.16-9.25,23.38-19.28,31.57-32.47c5.3-8.54,7.59-17.79,8.98-27.54c2.2-15.44,2.91-30.97,3.35-46.51
		c0.26-9.11,0.27-18.39-3.53-26.95c-1.25-2.83-0.84-5.26,0.19-7.52c5.9-12.9,6.73-26.73,8-40.53c0.49-5.33,0.81-10.69,1.48-16
		c1.09-8.63-0.03-17.12-4.3-24.36c-3.63-6.16-2.42-11.91-1.11-17.61c4.02-17.53,4.81-35.17,3.96-53.04
		c-0.39-8.21-1.3-16.35-2.2-24.48c-1.77-15.89-7.78-30.33-17.47-42.96c-18.68-24.36-43.48-40.45-71.96-50.97
		c-18.5-6.84-37.14-13.28-56.46-17.65c-21.28-4.81-42.72-8.22-64.52-9.45c-11.99-0.68-23.99-1.04-36-0.98" fill="none" stroke="currentColor" stroke-width="2" stroke-linecap="round" stroke-linejoin="round"/></svg>