<svg xmlns="http://www.w3.org/2000/svg" viewBox="0 0 1024 1024"><path d="
		M559.5,449.5c-7.71-2.03-15.58-2.32-23.5-2.55c-17.33-0.51-34.67-0.5-52-0.42c-12.98,0.06-23.49,5.29-30.97,15.99
		c-5.34,7.64-5.59,16.6-6.04,25.48c-0.63,12.33-0.45,24.67-0.5,37.05c-26.3-2.17-52.13-2.44-77.97-1.62
		c0.06-1.13-0.62-2.17-0.57-3.43c0.45-10.67-0.6-21.33-0.45-32c0.33-23.34-0.38-46.67-0.67-70c-0.19-15.33,0.25-30.68-0.42-46
		c-0.71-16.17,0.25-32.36-0.93-48.5c-1.15-15.76-8.13-27.78-24.01-31.89c-18.17-4.71-39.73,3.12-42.94,28.9
		c-0.64,5.14-1.01,10.32-1.01,15.5c-0.02,63.5,0.39,127-0.15,190.5c-0.39,46.34-0.22,92.67-0.26,139
		c-0.01,9.53-0.26,19.24,2.91,28.49c4.51,13.14,13.73,20.53,27.48,22.54c11.98,1.74,23.97,1.93,36.01,0.98
		c1.16-0.09,2.33-0.01,3.5-0.01c95.33,0,190.67-0.15,286,0.14c17.66,0.05,35.33,0.26,53,0.3c7.96,0.02,16.06-0.22,23.48-3.5
		c22.96-10.14,26.22-41.03,11.53-57.45c-7.49-8.37-17.17-11.5-28.01-12c-3.5-0.16-7.04,0.42-10.5-0.48
		c0-13.19,0.09-26.36-0.02-39.52c-0.31-38.34,1.13-76.67,0.42-115c-0.6-32.17-0.08-64.34-0.42-96.5
		c-0.25-23.71-18.45-37.42-36.48-37.73c-23.36-0.41-46.69,0.15-70,0.91c-18.42,0.6-34.35,13.9-34.51,37.33
		c-0.13,17.67-0.94,35.33-0.96,53c0,0.92-0.34,1.67-0.53,2.5" fill="none" stroke="currentColor" stroke-width="2" stroke-linecap="round" stroke-linejoin="round"/><path d="
		M332,323c-0.06,8.67-0.49,17.35-0.38,26c0.74,58.17-0.12,116.34,0.52,174.5c0.31,27.84-0.26,55.68,0.47,83.5
		c0.59,22.67,0.11,45.34,0.4,68c0.07,5.41,1.42,6.98,6.5,6.98c28.33,0.04,56.67,0.46,85-0.06c96-1.78,192-0.49,288-0.93
		c0.33,0,0.67,0.01,1,0.26" fill="none" stroke="currentColor" stroke-width="2" stroke-linecap="round" stroke-linejoin="round"/><path d="
		M594.5,397c0,48.83-0.09,97.67,0.04,146.5c0.07,25.67-0.6,51.33-0.69,77c-0.03,9.99,0.02,20.01-0.43,30
		c-0.18,4.01,1.78,5.43,5.09,5.97c1.3,0.21,2.66,0.01,3.99,0.04c19.68,0.5,39.33-0.82,59-0.94c4.17-0.03,5.06-1.92,5.04-5.57
		c-0.1-18.67-0.62-37.36,0.09-55.99c1.03-26.84,0.17-53.69,0.99-80.5c1.07-34.84,0.7-69.67,0.84-104.5c0.02-4.7,1.48-9.24,1.1-14.01
		c-0.29-3.72-1.43-5.59-5.57-5.56c-21,0.14-42,0.05-63,0.08c-5.11,0.01-6.52,1.72-6,6.99" fill="none" stroke="currentColor" stroke-width="2" stroke-linecap="round" stroke-linejoin="round"/><path d="
		M483.5,479.5c-3.3,1.11-3.02,3.8-3.02,6.5c0.03,43.33,0.08,86.67-0.02,130c-0.03,12,0.63,24.01-0.44,36
		c-0.28,3.14,1.05,4.58,4.48,4.56c20.5-0.12,41-0.07,61.5-0.05c3.75,0,5.61-1.37,5.57-5.51c-0.16-15.67-0.27-31.34-0.03-47
		c0.61-39,1.26-78,0.97-117c-0.04-5.85-0.63-6.47-6.51-6.5c-3.33-0.01-6.67-0.12-10,0.02c-17.36,0.7-34.65-1.57-52-1.02" fill="none" stroke="currentColor" stroke-width="2" stroke-linecap="round" stroke-linejoin="round"/><path d="
		M373.5,556.5c-2.92,1.28-3.06,3.88-2.99,6.5c0.51,18.16-0.71,36.33,0.82,54.51c0.91,10.76,0.16,21.65,0.17,32.49
		c0,5.28,1.49,6.89,6.5,6.47c19.15-1.59,38.33-0.76,57.5-0.97c5.5-0.06,5.99-0.5,6-6c0.01-28.67,0.01-57.33,0-86
		c0-5.49-0.52-5.6-5.99-6.06c-20.49-1.72-41.01-0.59-61.51-0.94" fill="none" stroke="currentColor" stroke-width="2" stroke-linecap="round" stroke-linejoin="round"/></svg>