<svg xmlns="http://www.w3.org/2000/svg" viewBox="0 0 120 220" fill="none"><path d="M60 20C68 19 76 24 78 33C80 42 79 52 71 57C63 62 51 61 45 54C39 47 39 36 44 29C47 24 53 21 60 20Z" stroke="currentColor" stroke-width="3.5" vector-effect="non-scaling-stroke" stroke-linecap="round" stroke-linejoin="round"/><path d="M50 39C50 41 51 43 52 43" stroke="currentColor" stroke-width="3" vector-effect="non-scaling-stroke" stroke-linecap="round" stroke-linejoin="round"/><path d="M68 38C68 40 69 42 70 43" stroke="currentColor" stroke-width="3" vector-effect="non-scaling-stroke" stroke-linecap="round" stroke-linejoin="round"/><path d="M49 49C53 54 65 54 70 48" stroke="currentColor" stroke-width="3" vector-effect="non-scaling-stroke" stroke-linecap="round" stroke-linejoin="round"/><path d="M46 62C50 60 55 61 60 61C66 61 71 59 75 61C81 68 84 79 85 89C86 97 85 105 83 113C76 116 68 114 61 115C54 116 47 117 41 114C39 105 38 96 39 87C40 78 42 69 46 62Z" stroke="currentColor" stroke-width="3.5" vector-effect="non-scaling-stroke" stroke-linecap="round" stroke-linejoin="round"/><path d="M45 65C39 70 33 78 29 87C26 94 24 102 23 109" stroke="currentColor" stroke-width="3.5" vector-effect="non-scaling-stroke" stroke-linecap="round" stroke-linejoin="round"/><path d="M23 109C21 112 22 116 25 117C28 118 32 116 33 113" stroke="currentColor" stroke-width="3.2" vector-effect="non-scaling-stroke" stroke-linecap="round" stroke-linejoin="round"/><path d="M75 63C80 55 84 46 87 37C89 30 91 23 92 16" stroke="currentColor" stroke-width="3.5" vector-effect="non-scaling-stroke" stroke-linecap="round" stroke-linejoin="round"/><path d="M92 16C90 13 91 9 94 8C97 7 101 9 102 12C103 15 101 18 98 19" stroke="currentColor" stroke-width="3.2" vector-effect="non-scaling-stroke" stroke-linecap="round" stroke-linejoin="round"/><path d="M48 114C47 130 46 146 47 162C47 170 48 178 50 186" stroke="currentColor" stroke-width="3.5" vector-effect="non-scaling-stroke" stroke-linecap="round" stroke-linejoin="round"/><path d="M76 114C78 130 79 146 78 162C78 170 78 178 77 186" stroke="currentColor" stroke-width="3.5" vector-effect="non-scaling-stroke" stroke-linecap="round" stroke-linejoin="round"/><path d="M42 186C46 184 54 184 58 186C59 190 58 194 55 196C50 198 43 197 40 194C39 191 40 188 42 186Z" stroke="currentColor" stroke-width="3.2" vector-effect="non-scaling-stroke" stroke-linecap="round" stroke-linejoin="round"/><path d="M69 186C73 184 81 185 85 187C86 191 85 194 82 196C77 198 70 197 67 194C66 191 67 188 69 186Z" stroke="currentColor" stroke-width="3.2" vector-effect="non-scaling-stroke" stroke-linecap="round" stroke-linejoin="round"/></svg>
