<svg xmlns="http://www.w3.org/2000/svg" viewBox="0 0 140 80" fill="none">
<path d="M22 54C12 51 8 42 13 35C17 29 25 28 30 31C29 20 39 11 51 12C61 13 68 21 68 30C75 24 86 26 90 34C99 33 108 39 107 48C115 50 119 58 113 64C108 69 99 68 94 64C88 68 78 69 71 65C63 70 51 69 44 63C36 66 27 63 22 57C22 56 22 55 22 54Z" stroke="currentColor" stroke-width="3" vector-effect="non-scaling-stroke" stroke-linecap="round" stroke-linejoin="round"/>
<path d="M27 38C31 34 36 34 39 37" stroke="currentColor" stroke-width="2.5" vector-effect="non-scaling-stroke" stroke-linecap="round" stroke-linejoin="round"/>
<path d="M96 46C100 43 105 44 107 48" stroke="currentColor" stroke-width="2.5" vector-effect="non-scaling-stroke" stroke-linecap="round" stroke-linejoin="round"/>
</svg>
