<svg xmlns="http://www.w3.org/2000/svg" viewBox="0 0 140 80" fill="none">
<path d="M28 60C16 59 8 51 9 42C10 34 18 30 25 31C24 21 33 12 44 12C53 12 60 18 62 26C68 21 78 22 83 29C91 27 100 32 101 41C110 41 117 48 116 56C115 64 106 68 98 66C93 69 85 70 79 67C72 70 63 69 58 65C49 68 39 67 33 62C31 62 29 61 28 60Z" stroke="currentColor" stroke-width="3" vector-effect="non-scaling-stroke" stroke-linecap="round" stroke-linejoin="round"/>
<path d="M32 40C36 36 41 35 45 37" stroke="currentColor" stroke-width="2.5" vector-effect="non-scaling-stroke" stroke-linecap="round" stroke-linejoin="round"/>
<path d="M86 38C90 35 95 35 98 38" stroke="currentColor" stroke-width="2.5" vector-effect="non-scaling-stroke" stroke-linecap="round" stroke-linejoin="round"/>
</svg>
