<svg xmlns="http://www.w3.org/2000/svg" viewBox="0 0 140 80" fill="none">
<path d="M18 48C10 44 9 35 16 30C21 26 27 27 30 30C31 19 42 11 53 13C62 15 67 22 66 29C73 22 84 23 88 31C97 28 107 34 105 43C114 44 119 51 114 58C109 64 100 63 96 59C90 64 80 65 73 61C65 66 53 65 46 60C38 63 27 61 22 55C21 53 19 51 18 48Z" stroke="currentColor" stroke-width="3" vector-effect="non-scaling-stroke" stroke-linecap="round" stroke-linejoin="round"/>
<path d="M23 34C27 30 32 31 34 34" stroke="currentColor" stroke-width="2.5" vector-effect="non-scaling-stroke" stroke-linecap="round" stroke-linejoin="round"/>
<path d="M76 32C80 28 85 29 87 33" stroke="currentColor" stroke-width="2.5" vector-effect="non-scaling-stroke" stroke-linecap="round" stroke-linejoin="round"/>
<path d="M95 47C99 44 104 45 106 48" stroke="currentColor" stroke-width="2.5" vector-effect="non-scaling-stroke" stroke-linecap="round" stroke-linejoin="round"/>
</svg>
