<svg xmlns="http://www.w3.org/2000/svg" viewBox="0 0 280 220" fill="none">
<ellipse cx="140" cy="182" rx="78" ry="17" fill="#bcd9cf" fill-opacity="0.4" stroke="currentColor" stroke-width="2.5" vector-effect="non-scaling-stroke" stroke-linecap="round" stroke-linejoin="round"/>
<path d="M96 176C104 179 116 180 128 178C138 176.5 148 179 158 177C167 175.3 178 178 186 175" stroke="currentColor" stroke-width="1.6" vector-effect="non-scaling-stroke" stroke-linecap="round" stroke-linejoin="round"/>
<path d="M118 172C121 168 126 170 128 174" stroke="currentColor" stroke-width="1.6" vector-effect="non-scaling-stroke" stroke-linecap="round" stroke-linejoin="round"/>
<path d="M62 104C72 90 88 79 108 75C130 71 152 76 168 89C177 96 184 105 188 115C180 112 174 118 166 116C160 121 152 118 146 122C139 118 132 122 124 119C118 123 110 120 103 121C95 122 87 119 80 114C73 111 66 108 62 104Z" stroke="currentColor" stroke-width="3" vector-effect="non-scaling-stroke" stroke-linecap="round" stroke-linejoin="round"/>
<path d="M108 75C107 70 108 64 113 60" stroke="currentColor" stroke-width="3" vector-effect="non-scaling-stroke" stroke-linecap="round" stroke-linejoin="round"/>
<path d="M113 60C116 57 121 58 123 62" stroke="currentColor" stroke-width="2.4" vector-effect="non-scaling-stroke" stroke-linecap="round" stroke-linejoin="round"/>
<path d="M125 120C129 131 135 141 144 149C149 154 155 158 158 163" stroke="currentColor" stroke-width="2.8" vector-effect="non-scaling-stroke" stroke-linecap="round" stroke-linejoin="round"/>
<path d="M158 167C154 172 156 178 163 180C169 182 176 179 178 173" stroke="currentColor" stroke-width="2.8" vector-effect="non-scaling-stroke" stroke-linecap="round" stroke-linejoin="round"/>
<path d="M84 92C87 96 89 101 89 106" stroke="currentColor" stroke-width="1.4" vector-effect="non-scaling-stroke" stroke-linecap="round" stroke-linejoin="round"/>
<path d="M148 86C150 90 151 95 150 100" stroke="currentColor" stroke-width="1.4" vector-effect="non-scaling-stroke" stroke-linecap="round" stroke-linejoin="round"/>
<path d="M40 46C42 52 45 58 44 65" stroke="currentColor" stroke-width="2.4" vector-effect="non-scaling-stroke" stroke-linecap="round" stroke-linejoin="round"/>
<path d="M70 30C71 37 73 44 71 51" stroke="currentColor" stroke-width="2.4" vector-effect="non-scaling-stroke" stroke-linecap="round" stroke-linejoin="round"/>
<path d="M204 40C207 47 210 53 208 61" stroke="currentColor" stroke-width="2.4" vector-effect="non-scaling-stroke" stroke-linecap="round" stroke-linejoin="round"/>
<path d="M232 66C234 72 237 78 234 85" stroke="currentColor" stroke-width="2.4" vector-effect="non-scaling-stroke" stroke-linecap="round" stroke-linejoin="round"/>
<path d="M28 100C30 105 32 110 30 116" stroke="currentColor" stroke-width="2" vector-effect="non-scaling-stroke" stroke-linecap="round" stroke-linejoin="round"/>
<path d="M242 118C244 123 246 129 243 134" stroke="currentColor" stroke-width="2" vector-effect="non-scaling-stroke" stroke-linecap="round" stroke-linejoin="round"/>
<path d="M100 30C102 35 104 40 102 46" stroke="currentColor" stroke-width="2" vector-effect="non-scaling-stroke" stroke-linecap="round" stroke-linejoin="round"/>
<path d="M180 20C182 26 184 32 181 38" stroke="currentColor" stroke-width="2" vector-effect="non-scaling-stroke" stroke-linecap="round" stroke-linejoin="round"/>
</svg>
