<svg xmlns="http://www.w3.org/2000/svg" viewBox="0 0 400 260" preserveAspectRatio="none" fill="none"><path d="M34 8C80 2 126 10 172 5C218 0 264 8 310 3C344 -1 380 9 391 27C398 39 393 56 395 73C397 90 391 106 394 123C397 140 399 157 395 174C391 191 397 211 386 224C376 236 355 231 339 233C303 237 267 230 231 233C195 236 159 231 123 233C99 234 75 238 51 233C31 229 12 218 8 199C5 184 10 167 8 151C6 135 0 118 5 102C10 86 4 68 11 53C17 40 19 12 34 8Z" stroke="currentColor" stroke-width="4" vector-effect="non-scaling-stroke" stroke-linecap="round" stroke-linejoin="round"/></svg>
