<svg xmlns="http://www.w3.org/2000/svg" viewBox="0 0 200 140" preserveAspectRatio="none" fill="none"><path d="M17 4C40 1 63 4.6 87 2.4C111 0.2 135 3.1 158 1.6C176 0.4 194 4.8 197 14C199.4 21.3 196.6 30.1 197.7 39C198.8 47.9 196.4 56.9 197.2 66C198 75.1 199.4 84.4 197.8 93C196.2 101.6 199.1 112.3 193 118C187.5 123.2 176.4 120.4 168 121.3C150 123.2 132 119.9 114 121.6C96 123.3 78 120.5 60 121.7C48 122.5 35.8 124.4 24 122C13.8 119.9 4.6 114.4 2.6 105C0.8 96.5 3.6 87.6 2.8 79C2 70.4 -0.6 61.6 2 53C4.4 45 1.6 35.9 5.2 28C8.6 20.5 9.4 6.9 17 4Z" stroke="currentColor" stroke-width="3" vector-effect="non-scaling-stroke" stroke-linecap="round" stroke-linejoin="round"/></svg>
