<svg xmlns="http://www.w3.org/2000/svg" viewBox="0 0 320 280" fill="none"><path d="M18 244C40 232 66 226 92 228C110 223 129 221 148 224C170 219 193 220 214 227C238 224 263 227 284 238C292 241 297 246 296 251C294 257 285 259 277 258C250 253 222 256 195 258C170 260 145 257 120 258C93 259 66 261 40 257C30 255 20 253 15 249C13 247 15 245 18 244Z" stroke="currentColor" stroke-width="3.5" vector-effect="non-scaling-stroke" stroke-linecap="round" stroke-linejoin="round"/><path d="M55 240C62 238 70 239 77 241" stroke="currentColor" stroke-width="2.5" vector-effect="non-scaling-stroke" stroke-linecap="round" stroke-linejoin="round"/><path d="M100 244C108 242 117 243 124 245" stroke="currentColor" stroke-width="2.5" vector-effect="non-scaling-stroke" stroke-linecap="round" stroke-linejoin="round"/><path d="M155 247C163 245 172 246 179 248" stroke="currentColor" stroke-width="2.5" vector-effect="non-scaling-stroke" stroke-linecap="round" stroke-linejoin="round"/><path d="M205 249C213 247 222 248 229 250" stroke="currentColor" stroke-width="2.5" vector-effect="non-scaling-stroke" stroke-linecap="round" stroke-linejoin="round"/><path d="M158 18C161 18 163 21 163 24C193 27 220 42 236 66C247 83 253 102 252 121C240 116 229 110 216 113C206 116 199 124 188 124C178 124 170 116 160 116C150 116 142 124 132 124C121 124 113 116 103 113C90 110 79 116 67 121C67 99 74 78 86 61C100 41 126 28 155 24C154 21 156 18 158 18Z" fill="#e8756a" stroke="#2f3e36" stroke-width="4" vector-effect="non-scaling-stroke" stroke-linecap="round" stroke-linejoin="round"/><path d="M158 24C144 46 135 76 133 110" stroke="#2f3e36" stroke-width="2.2" vector-effect="non-scaling-stroke" stroke-linecap="round" stroke-linejoin="round"/><path d="M158 24C172 46 181 76 183 110" stroke="#2f3e36" stroke-width="2.2" vector-effect="non-scaling-stroke" stroke-linecap="round" stroke-linejoin="round"/><path d="M153 25C127 32 104 47 88 68" stroke="#2f3e36" stroke-width="2.2" vector-effect="non-scaling-stroke" stroke-linecap="round" stroke-linejoin="round"/><path d="M163 25C189 32 212 47 228 68" stroke="#2f3e36" stroke-width="2.2" vector-effect="non-scaling-stroke" stroke-linecap="round" stroke-linejoin="round"/><path d="M153 11C151 8 152 4 156 3C160 2 165 4 165 9C165 13 162 17 158 17" stroke="#2f3e36" stroke-width="3.2" vector-effect="non-scaling-stroke" stroke-linecap="round" stroke-linejoin="round"/><path d="M182 116C181 128 179 140 176 151C173 162 169 172 162 180" stroke="#2f3e36" stroke-width="3" vector-effect="non-scaling-stroke" stroke-linecap="round" stroke-linejoin="round"/><path d="M162 180C157 185 150 187 145 184" stroke="#2f3e36" stroke-width="3" vector-effect="non-scaling-stroke" stroke-linecap="round" stroke-linejoin="round"/><path d="M119 171C110 176 102 184 96 193C91 200 87 208 84 216" stroke="currentColor" stroke-width="3.3" vector-effect="non-scaling-stroke" stroke-linecap="round" stroke-linejoin="round"/><path d="M84 216C82 219 83 222 86 223C89 224 93 222 94 220" stroke="currentColor" stroke-width="3" vector-effect="non-scaling-stroke" stroke-linecap="round" stroke-linejoin="round"/><path d="M150 168C158 165 165 160 170 154" stroke="currentColor" stroke-width="3.3" vector-effect="non-scaling-stroke" stroke-linecap="round" stroke-linejoin="round"/><path d="M117 165C121 163 126 164 131 164C137 164 142 162 147 164C152 172 155 183 156 194C157 202 156 210 154 217C147 220 140 218 134 219C127 220 121 221 115 218C112 210 111 202 112 194C113 185 113 174 117 165Z" fill="none" stroke="currentColor" stroke-width="3.5" vector-effect="non-scaling-stroke" stroke-linecap="round" stroke-linejoin="round"/><path d="M122 217C121 231 120 245 121 259C121 264 122 268 123 272" stroke="currentColor" stroke-width="3.5" vector-effect="non-scaling-stroke" stroke-linecap="round" stroke-linejoin="round"/><path d="M148 217C150 231 151 245 150 259C150 264 150 268 149 272" stroke="currentColor" stroke-width="3.5" vector-effect="non-scaling-stroke" stroke-linecap="round" stroke-linejoin="round"/><path d="M116 272C120 270 127 270 131 272C132 275 131 278 128 280C124 281 118 280 115 278C114 276 114 274 116 272Z" stroke="currentColor" stroke-width="3.1" vector-effect="non-scaling-stroke" stroke-linecap="round" stroke-linejoin="round"/><path d="M140 272C144 270 151 271 155 273C156 276 155 278 152 280C148 281 142 280 139 278C138 276 139 274 140 272Z" stroke="currentColor" stroke-width="3.1" vector-effect="non-scaling-stroke" stroke-linecap="round" stroke-linejoin="round"/><path d="M132 128C138 127 145 130 148 136C151 142 150 150 145 155C140 160 131 160 126 155C121 150 121 142 124 136C126 132 129 129 132 128Z" fill="none" stroke="currentColor" stroke-width="3.5" vector-effect="non-scaling-stroke" stroke-linecap="round" stroke-linejoin="round"/><path d="M128 141C128 143 129 144 130 145" stroke="currentColor" stroke-width="2.6" vector-effect="non-scaling-stroke" stroke-linecap="round" stroke-linejoin="round"/><path d="M143 140C143 142 144 144 145 144" stroke="currentColor" stroke-width="2.6" vector-effect="non-scaling-stroke" stroke-linecap="round" stroke-linejoin="round"/><path d="M127 148C130 152 141 152 145 147" stroke="currentColor" stroke-width="2.6" vector-effect="non-scaling-stroke" stroke-linecap="round" stroke-linejoin="round"/></svg>
