<svg xmlns="http://www.w3.org/2000/svg" viewBox="0 0 800 200" preserveAspectRatio="none" fill="none">
<path d="M-10 172C90 116 175 78 265 76C345 74 400 108 460 132C430 148 385 158 345 156C300 154 265 138 225 140C160 143 90 168 -10 190Z" fill="#a8c9bc" stroke="#2f3e36" stroke-width="3" vector-effect="non-scaling-stroke" stroke-linecap="round" stroke-linejoin="round"/>
<path d="M330 168C400 108 470 70 555 70C635 70 700 106 745 158C690 180 615 192 540 190C470 188 400 182 330 168Z" fill="#a8c9bc" stroke="#2f3e36" stroke-width="3" vector-effect="non-scaling-stroke" stroke-linecap="round" stroke-linejoin="round"/>
<path d="M-10 190C70 132 145 100 225 98C310 96 370 130 420 158C365 182 285 195 195 194C110 193 45 190 -10 197Z" fill="#bcd9cf" stroke="#2f3e36" stroke-width="3" vector-effect="non-scaling-stroke" stroke-linecap="round" stroke-linejoin="round"/>
<path d="M540 195C600 138 665 106 730 108C775 109 805 130 815 165C775 188 715 198 655 196C610 195 575 197 540 195Z" fill="#bcd9cf" stroke="#2f3e36" stroke-width="3" vector-effect="non-scaling-stroke" stroke-linecap="round" stroke-linejoin="round"/>
<path d="M115 105C119 99 123 108 127 101" stroke="#2f3e36" stroke-width="2.5" vector-effect="non-scaling-stroke" stroke-linecap="round" stroke-linejoin="round"/>
<path d="M135 99C139 93 143 102 147 95" stroke="#2f3e36" stroke-width="2.5" vector-effect="non-scaling-stroke" stroke-linecap="round" stroke-linejoin="round"/>
<path d="M155 96C159 90 163 99 167 93" stroke="#2f3e36" stroke-width="2.5" vector-effect="non-scaling-stroke" stroke-linecap="round" stroke-linejoin="round"/>
<path d="M175 97C179 92 183 100 187 95" stroke="#2f3e36" stroke-width="2.5" vector-effect="non-scaling-stroke" stroke-linecap="round" stroke-linejoin="round"/>
<path d="M195 100C199 95 203 103 207 98" stroke="#2f3e36" stroke-width="2.5" vector-effect="non-scaling-stroke" stroke-linecap="round" stroke-linejoin="round"/>
<path d="M470 80C474 74 478 83 482 76" stroke="#2f3e36" stroke-width="2.5" vector-effect="non-scaling-stroke" stroke-linecap="round" stroke-linejoin="round"/>
<path d="M490 76C494 70 498 79 502 73" stroke="#2f3e36" stroke-width="2.5" vector-effect="non-scaling-stroke" stroke-linecap="round" stroke-linejoin="round"/>
<path d="M510 75C514 70 518 78 522 72" stroke="#2f3e36" stroke-width="2.5" vector-effect="non-scaling-stroke" stroke-linecap="round" stroke-linejoin="round"/>
<path d="M530 76C534 71 538 79 542 74" stroke="#2f3e36" stroke-width="2.5" vector-effect="non-scaling-stroke" stroke-linecap="round" stroke-linejoin="round"/>
<path d="M550 78C554 73 558 81 562 76" stroke="#2f3e36" stroke-width="2.5" vector-effect="non-scaling-stroke" stroke-linecap="round" stroke-linejoin="round"/>
<path d="M228 118C232 113 236 121 240 115" stroke="#2f3e36" stroke-width="2.5" vector-effect="non-scaling-stroke" stroke-linecap="round" stroke-linejoin="round"/>
<path d="M248 115C252 110 256 118 260 113" stroke="#2f3e36" stroke-width="2.5" vector-effect="non-scaling-stroke" stroke-linecap="round" stroke-linejoin="round"/>
</svg>
