<svg xmlns="http://www.w3.org/2000/svg" viewBox="0 0 200 200" fill="none"><path d="M100 22C102 22 103 24 103 26C124 28 143 39 154 57C162 70 166 84 166 99C158 96 150 92 141 94C134 96 129 102 121 102C114 102 108 96 100 96C92 96 86 102 78 102C70 102 64 96 57 94C49 92 41 96 34 99C34 83 39 68 47 55C58 39 76 29 97 26C97 24 98 22 100 22Z" fill="#e8756a" stroke="#2f3e36" stroke-width="3.5" vector-effect="non-scaling-stroke" stroke-linecap="round" stroke-linejoin="round"/><path d="M100 26L100 96" stroke="#2f3e36" stroke-width="2.5" vector-effect="non-scaling-stroke" stroke-linecap="round" stroke-linejoin="round"/><path d="M100 29C90 46 84 68 82 91" stroke="#2f3e36" stroke-width="2.2" vector-effect="non-scaling-stroke" stroke-linecap="round" stroke-linejoin="round"/><path d="M100 29C110 46 116 68 118 91" stroke="#2f3e36" stroke-width="2.2" vector-effect="non-scaling-stroke" stroke-linecap="round" stroke-linejoin="round"/><path d="M97 27C79 32 63 42 51 57" stroke="#2f3e36" stroke-width="2.2" vector-effect="non-scaling-stroke" stroke-linecap="round" stroke-linejoin="round"/><path d="M103 27C121 32 137 42 149 57" stroke="#2f3e36" stroke-width="2.2" vector-effect="non-scaling-stroke" stroke-linecap="round" stroke-linejoin="round"/><path d="M96 18C95 16 96 13 99 13C102 12 105 14 105 17C105 20 103 23 100 23" stroke="#2f3e36" stroke-width="3" vector-effect="non-scaling-stroke" stroke-linecap="round" stroke-linejoin="round"/><path d="M100 100L99 150" stroke="#2f3e36" stroke-width="3.5" vector-effect="non-scaling-stroke" stroke-linecap="round" stroke-linejoin="round"/><path d="M99 150C98 160 97 168 92 175C88 181 81 184 74 183C68 182 63 178 61 173" stroke="#2f3e36" stroke-width="3.5" vector-effect="non-scaling-stroke" stroke-linecap="round" stroke-linejoin="round"/></svg>
