<svg xmlns="http://www.w3.org/2000/svg" viewBox="0 0 220 200" fill="none"><path d="M118 60C121 58 124 59 126 62C144 58 162 63 174 76C182 85 187 96 188 108C179 103 170 97 160 98C153 99 148 105 141 106C133 107 126 102 119 100C118 108 118 116 119 124C112 122 106 116 102 109C97 111 92 116 90 122C84 116 81 108 82 100C74 100 67 105 60 110C60 100 64 91 71 84C79 76 90 71 101 70C99 67 100 62 104 60C108 58 114 58 118 60Z" fill="#e8756a" stroke="#2f3e36" stroke-width="3.5" vector-effect="non-scaling-stroke" stroke-linecap="round" stroke-linejoin="round"/><path d="M122 61C118 76 108 88 95 95" stroke="#2f3e36" stroke-width="2.2" vector-effect="non-scaling-stroke" stroke-linecap="round" stroke-linejoin="round"/><path d="M126 63C128 78 124 92 114 102" stroke="#2f3e36" stroke-width="2.2" vector-effect="non-scaling-stroke" stroke-linecap="round" stroke-linejoin="round"/><path d="M108 60C99 68 93 79 91 91" stroke="#2f3e36" stroke-width="2" vector-effect="non-scaling-stroke" stroke-linecap="round" stroke-linejoin="round"/><path d="M133 63C142 71 148 82 150 94" stroke="#2f3e36" stroke-width="2" vector-effect="non-scaling-stroke" stroke-linecap="round" stroke-linejoin="round"/><path d="M118 60C122 63 123 68 121 72" stroke="#2f3e36" stroke-width="2.8" vector-effect="non-scaling-stroke" stroke-linecap="round" stroke-linejoin="round"/><path d="M119 60C124 55 130 53 136 55" stroke="#2f3e36" stroke-width="3" vector-effect="non-scaling-stroke" stroke-linecap="round" stroke-linejoin="round"/><path d="M141 106C143 116 143 127 141 137C140 145 137 152 132 158" stroke="#2f3e36" stroke-width="3.5" vector-effect="non-scaling-stroke" stroke-linecap="round" stroke-linejoin="round"/><path d="M132 158C127 165 120 170 112 170C106 170 100 167 97 162" stroke="#2f3e36" stroke-width="3.5" vector-effect="non-scaling-stroke" stroke-linecap="round" stroke-linejoin="round"/><path d="M50 70C48 74 47 78 48 82C51 81 54 78 54 74C54 71 52 69 50 70Z" fill="none" stroke="#2f3e36" stroke-width="2.5" vector-effect="non-scaling-stroke" stroke-linecap="round" stroke-linejoin="round"/><path d="M68 45C66 49 65 53 66 57C69 56 72 53 72 49C72 46 70 44 68 45Z" fill="none" stroke="#2f3e36" stroke-width="2.5" vector-effect="non-scaling-stroke" stroke-linecap="round" stroke-linejoin="round"/><path d="M158 48C156 52 155 56 156 60C159 59 162 56 162 52C162 49 160 47 158 48Z" fill="none" stroke="#2f3e36" stroke-width="2.5" vector-effect="non-scaling-stroke" stroke-linecap="round" stroke-linejoin="round"/></svg>
