<svg viewBox="0 0 24 24" fill="none" xmlns="http://www.w3.org/2000/svg"><g fill="none" stroke="currentColor" stroke-width="2" stroke-linecap="round" stroke-linejoin="round"><polygon points="1.31 13.52 1.1 11.57 15.32 11.69 15.26 13.65 8.35 14.98 1.12 13.63 1.31 13.52"/><polygon points="1.12 9.97 1.16 8.08 15.26 8.16 15.19 9.92 8.35 11.51 1.12 10.21 1.12 9.97"/><polygon points="1.13 6.47 1.16 4.66 15.25 4.42 15.28 6.69 8.22 8.11 1.15 6.59 1.13 6.47"/><polyline points="1.17 4.44 1.21 2.64 4.17 1.19 12.22 1.1 15.16 2.56 15.21 4.47 12.1 6.15 4.1 6.06 1.15 4.45"/></g></svg>