<svg xmlns="http://www.w3.org/2000/svg" viewBox="0 0 1024 1024"><path fill="#FCFCFC" d="M597.18,247.32c2.06,7.91,10.05,9.57,8.6,17.18c3.58-1.08,6.58-2,9.65-0.76
		c0.74,0.36,0.72,2.89,0.5,4.01c-38.17,12.37-68.04,41.22-83.96,78.05c-0.81,1.87-0.65,3.31,0.8,3.83c4.21,1.52,2.42-5.61,8.29-5.62
		c21.09-0.03,43.13,9.34,52.78,28.29c1.08,2.13-3.45,6.62,0.19,8.08c3.67,1.47,2.28-5.14,9.34-6.3c14.74-2.42,29.79-0.38,43.65,5.45
		l-35.63,88.62c-3.27,1.26-4.86,3.26-6.03,6.22l-7.36,18.54c-2.75,6.91-2.92,14.22,0.54,21.32c-7.03,14.03-9.17,29.29-6.43,44.82
		l4.92,27.97c3.14,17.86-2.07,34.63-13.44,48.63c-16.8,20.68-38.85,34.69-54.15,57.18c-6.78-10.55-10.97-20.41-14.04-31.35
		c-6.98-24.89,3.82-41.9,13.77-62.26l13.75-28.14c7.92-19.94,6.25-40.61-3.47-59.67l-16.86-29.04
		c-15.98-27.52-21.86-55.53-10.02-85.61c5.57-4.73,8.12-11.29,8.78-18.39l-0.13-22.42c-0.02-2.94-0.95-5.25-3.44-7.32l-2.6-99.68
		c14.29,0.1,28.2,3,40.63,10.11c6.1,3.49,1.78,8.59,5.7,8.48c0.88-0.02,2.12-0.08,2.18-1.87c0.04-1.19-0.33-4.11,0.83-5.11
		C573.85,252.6,585.26,248.64,597.18,247.32z"/><path fill="#1D1B18" d="M631.15,253.82c-3.17-2.73-7.46-3.7-11.74-4.86c-7.43-2-14.7-2.47-22.23-1.64
		c-11.92,1.32-23.33,5.27-32.67,13.25c-1.16,0.99-0.79,3.91-0.83,5.11c-0.06,1.8-1.29,1.85-2.18,1.87c-3.92,0.1,0.4-4.99-5.7-8.48
		c-12.43-7.11-26.34-10.01-40.63-10.11l2.6,99.68c2.48,2.07,3.42,4.38,3.44,7.32l0.13,22.42c-0.66,7.1-3.21,13.66-8.78,18.39
		c-11.84,30.08-5.96,58.08,10.02,85.61l16.86,29.04c9.72,19.06,11.39,39.73,3.47,59.67l-13.75,28.14
		c-9.95,20.36-20.75,37.37-13.77,62.26c3.07,10.93,7.26,20.8,14.04,31.35c15.3-22.49,37.35-36.5,54.15-57.18
		c11.37-14,16.58-30.78,13.44-48.63l-4.92-27.97c-2.73-15.53-0.6-30.79,6.43-44.82c-3.46-7.1-3.28-14.41-0.54-21.32l7.36-18.54
		c1.17-2.96,2.76-4.95,6.03-6.22l35.63-88.62c-13.85-5.83-28.9-7.87-43.65-5.45c-7.06,1.16-5.68,7.77-9.34,6.3
		c-3.63-1.46,0.9-5.95-0.19-8.08c-9.65-18.95-31.69-28.32-52.78-28.29c-5.88,0.01-4.09,7.14-8.29,5.62
		c-1.45-0.52-1.61-1.96-0.8-3.83c15.92-36.82,45.79-65.68,83.96-78.05c24.54-7.95,50.27-7.99,74.73,0.08l4.53-9.67
		c1.25-2.68,4.45-3.3,6.89-2.51c5.49,1.77,4.22,9,0.46,16.77c61.75,31.95,84.21,107.24,56.13,170c-8.36,1.8-0.26-4.54-4.12-9.01
		c-12.79-14.82-35.67-23.75-55.08-19.11c-5.39,1.29-4.64,5.83-7.09,6.19c-0.89,0.13-1.74-0.14-2.4-0.93
		c-1.69-2.02,3.26-4.6-0.09-9.44c-7.78-11.25-18.37-19.78-30.72-25.66l-35.61,88.43l-0.05,6.82l-7.96,21.25
		c-0.88,2.35,0.16,5.16,1.58,6.44c1.87,1.69,4.88,1.67,7.04-0.26c4.43-3.94,5.6-13.12,13.72-11.25c4.77,1.1,7.88,4.96,6.87,10.01
		c-1.38,6.86-5.24,12.89-10.79,17.02c-6.71,5-14.96,5.47-23.12,2.33c-4.98,10.09-5.64,20.79-3.7,31.46l5.35,29.37
		c4.22,23.16-3.29,45.15-19.2,62.32l-26.7,26.21c-10.73,10.53-20.59,21.11-28.3,34.64c11.15,22.36,17.43,43.06,9.3,67.54
		c-6.54,19.68-18.98,31.78-25.36,50.45l8.96,6.64c3.17,2.35,0.7,7.28-1.34,9.54c-2.98,3.29-6.85,2.72-11.27,0.27
		c-0.86,22.8,6.72,44.05,19.32,62.29c2.91,4.22,3.49,8.32-0.13,11.53c-3.56,3.16-9.44,3.45-12.29-1
		c-15.58-24.36-24.23-53.5-20.24-82.27c-1.85-2.14-3.76-3.58-6.38-4.63c-4.29,19.04,1.62,42.45,9.24,60
		c2.04,4.69-1.08,8.88-5.43,10.33c-4.34,1.45-7.99-0.89-10.05-5.59c-10.96-24.94-12.66-52.33-6.95-79.5
		c-17.93-22.5-25.21-50.91-18.6-78.93l9.87-28.07c16.04-34.56,7.73-74.78-20.43-100.41l-23.59-19.33
		c-11.86-9.72-21.4-21.26-25.84-36.56c-15.76,4.3-28.96-5.48-31.89-20.51c-0.94-4.81,1.73-8.65,6.04-10.03
		c3.58-1.15,7.94,0.7,9.99,4.77c2.84,5.65,6.24,10.1,10.69,7.62c2.58-1.44,3.66-4.65,2.63-7.47l-8.1-22.14l0.5-5.66l-34.56-88.47
		c-13.96,5.84-24.57,15.57-32.46,27.62c-0.39,2.22,1.27,5.1,0.44,6.74c-0.77,1.52-2.92,0.97-3.23,0.42l-2.04-3.61
		c-17.48-9.37-45.95,1.64-60.2,18.33c-1.31,1.54,1.87,6.36,0.32,7.56c-0.53,0.42-2.4,0.5-3.22,0
		c-27.14-64.86-4.46-137.62,58.62-170.07c-4.18-7.48-5.49-14.4-0.25-16.69c5.19-2.27,8.85,4.15,11.84,11.87
		c66.51-20.63,133.46,16.75,158.88,80.26c-2.34,4.57-1.09,9.86,3.97,11.45c3.54,1.11,7.17-2,7.16-5.64L502.17,357
		c-0.01-3.25,1.54-5.9,2.69-8.4l-2.66-99.25c-14.55,1.02-28,4.92-39.76,12.95c-5.17,3.53-1.81,7.96-4.94,8.65
		c-1.18,0.26-2.89-0.84-2.69-2.32c0.53-4-1.52-5.89-4.83-7.88c-18.78-11.28-42.18-11.2-62.15-2.12c-5.96,2.71-2.13,8.64-5.45,8.92
		c-1.67,0.14-2.59-0.87-2.65-2.77c-0.61-21.95,2.77-42.79,11.09-62.94c18.72-45.35,60.07-76.56,108.9-81.06l0.27-9.91
		c0.1-3.45,2.53-5.74,5.55-5.84c3.02-0.11,5.84,1.78,6.28,5.2l1.3,10.21c72.25,5.93,123.24,64.53,123.74,136.44
		c0.01,2.04-0.85,2.94-2.34,2.92C631.48,259.77,633.63,255.96,631.15,253.82z M509.03,120.52c-0.2-6.36-0.93-12.31-3.46-11.56
		c-2.12,0.63-2.14,5.76-1.9,11.41L509.03,120.52z M559.32,256.32c-0.72-39.74-10.33-84.02-32.03-116.58
		c-8.79-13.19-13.6-18.78-29.81-13.44c-11.75,11.87-18.7,26.4-24.34,42.07c-10.5,29.15-14.12,59.42-13.99,90.97
		c10.12-6.84,20.91-11.05,33.01-13.05C513.91,242.7,539.85,244.3,559.32,256.32z M632.37,248.83
		c-1.97-28.81-11.78-54.54-28.82-76.39c-20.43-25.21-49.11-41.99-81.93-46.83c29.63,34.26,40.99,85.03,41.96,129.98
		C584.22,241,609.45,239.21,632.37,248.83z M454.92,258.33c-0.05-33.72,4.06-64.41,15.26-94.16c4.72-13.88,11.91-25.15,20.75-38.01
		c-36.41,6.19-66.64,27.21-85.63,57.11c-13.53,21.81-21.02,45.81-21.15,72.28c16.62-7.95,34.8-9.62,52.58-5.16
		C443.44,252.07,448.83,255.63,454.92,258.33z M511.25,248.74l-5.33,0.14l2.64,99.75l5.33-0.14L511.25,248.74z M698.73,270.13
		c1.76-3.22,3.35-7.02,2.79-10.81c-4.16,0.61-7.04,9.38-6.45,10.01C695.62,269.93,698.11,270.72,698.73,270.13z M596.79,367.47
		c6.39-14.76,11.48-27.29,19.07-39.67c15.1-25.06,36.33-47.77,63.67-58.61c-25.16-6.33-49.61-3.06-72.83,6.55
		c-29.34,12.64-52.69,35.32-67.17,64.24C564.13,339.46,583.03,348.63,596.79,367.47z M694.17,408.74
		c15.79-35.29,26.03-71.2,17.33-109c-2.61-7.92-4.37-15.91-10.33-22.14c-2.8-2.94-9.74-6.24-13.93-5.61
		c-11.78,1.77-21.08,8.23-30.42,14.84c-27.37,22.01-43.74,50.23-56.04,83.37c17.6-3.12,34.05-0.41,50.25,5.9
		C668.25,382.82,683.38,392.71,694.17,408.74z M711.29,282.31c-0.91-1.2-2.41,0.3-1.07,1.15L711.29,282.31z M711.74,282.71
		c-0.42,0.47-0.74,0.76-1.31,1.03c11.18,26.38,10.41,54.93,3.46,83.24c-3.76,14.94-9,28.71-15.28,43.12
		c22.73-4.5,44.46,4.08,59.95,21.16c11.73-32.32,10.39-68.02-4.4-99.29C744.41,311.61,730.14,294.72,711.74,282.71z M328.5,292.79
		l-4.28-8.03c-0.55-1.03-2.01-1.18-2.64-0.78c-1.45,0.92-0.07,6.42,2.39,10.94C325.82,294.67,327.18,294.17,328.5,292.79z
		 M425.27,392.46c6.53-9.58,13.68-16.46,23.37-20.81c10.72-5.44,22.14-7.58,34.81-6.67c-25.21-52.3-81.94-85.08-140.02-71.68
		C385.53,311.5,408.47,349.91,425.27,392.46z M383.17,396.83c12.95-3.64,24.97-4.42,38.29-1.71
		c-11.31-30.65-27.83-61.33-52.95-81.61c-9.73-7.85-20.06-15.12-32.74-17.41c-4.17-0.75-11.92,2.82-14.46,5.99
		c-6.72,8.35-9.37,18.52-11.45,28.82c-6.81,33.63,2.72,70.48,17.37,102.5c3.72-5.55,7.63-10.17,12.74-14.53
		C352.33,408.18,366.88,401.31,383.17,396.83z M322.26,433.31c-5.13-12.61-10.19-25.18-13.54-38.94
		c-7.71-29.94-7.82-59.39,4.61-88.81c-51.23,32.34-70.12,92.89-51.03,149.7c15.44-16.26,37.36-24.97,58.96-20.74
		C321.41,433.93,321.77,433.61,322.26,433.31z M479.07,387.97c4.54,8.39,13.51,11.89,22.84,9.66c7.63-1.82,15.18-8.69,15.11-17.77
		l-0.19-26.47c-2.97-1.55-8.31-1.78-10.18,0.41l-0.52,25.23c-0.07,3.48-2.93,6.5-5.01,7.69c-2.85,1.63-6.34,1.7-9.07,0.2
		c-10.3-5.68-3.35-18.36-11.52-18.37C474.03,368.56,474.92,380.32,479.07,387.97z M467.37,596.13
		c13.84,13.02,23.93,27.74,29.42,45.54c1.66-10.29,2.8-18.75,6.56-27.49l13.38-26.47c4.01-7.93,8.46-15.18,11.6-23.46
		c5.89-15.5,5.65-31.73-2.35-46.15l-13.93-25.13c-6.37-11.5-12.69-22.41-16.9-34.91c-6.08-18.05-6.55-36.63-0.64-55.6
		c-16.8-1.98-24.19-15.38-21.87-33.18c-17.71,1.76-33.18,9.69-42.46,23.84c-4.56,6.95,0.42,10.66-2.8,11.64
		c-1.37,0.42-2.75-0.23-3.22-1.73c-0.61-2.96-2.7-3.57-5.36-4.12c-14.89-3.07-29.73-0.41-44.31,5.12l35.03,89.3
		c2.2,1.63,4.45,3.1,5.43,5.72l7.1,18.84c3.03,8.04,2.54,16.43-1.58,23.99c3.55,14.65,12.33,25.77,23.61,35.07L467.37,596.13z
		 M650.81,380.5l-35.91,89.3l4.85,1.95l35.91-89.3L650.81,380.5z M522.41,705.5l4.83-8.53c-14.51-23.55-23.61-46.76-13.8-73.6
		c4.01-10.96,9.92-20.51,14.85-31.04l11.79-25.18c6.06-16.64,4.89-33.8-2.37-49.89c-11.12-24.63-28.86-41.79-33.96-72.97
		c-2.48-15.16-1.73-29.7,3.57-44.29c-3.03,1.18-5.06,2.13-8.43,2.23c-6.48,17.78-6.02,36.6,0.21,54.7
		c4.14,12.01,10.28,22.53,16.3,33.69l15.38,28.5c6.57,15.31,7.12,31.39,1.21,46.98l-11.64,23.22l-12.27,23.79
		C493.63,645.47,504.67,676.99,522.41,705.5z M370.71,405.31l-5.02,1.96l35.07,89.82l5.02-1.96L370.71,405.31z M322.65,433.8
		l-0.91,0.89C322.47,435.71,323.56,434.53,322.65,433.8z M617.46,512.39c-5.69-1.74-7.51-8.36-5.6-13.55l8.01-21.8
		c-2.73-2.5-5.96-3.93-9.27-3.73l-9.31,23.03c-3.4,8.42-0.16,17.46,6.58,22.36c6.82,4.97,15.72,6.1,22.98,1.16
		c8.29-5.63,13.53-18.39,6.48-19.81C630.85,498.75,629.5,516.08,617.46,512.39z M390.08,545.86c7.61,4.36,17.07,2.81,23.45-2.71
		c6.22-5.38,8.24-14.59,5.07-22.78l-8.39-21.69c-3.31-0.28-8.64,1.4-9.54,4.09l7.67,21.78c1.21,3.44,0.67,7.09-1.36,9.91
		c-1.58,2.21-4.49,4.16-8.03,3.75c-11.04-1.28-9.84-14.35-16.42-13.23C375.72,526.15,380.45,540.33,390.08,545.86z M498.23,811.21
		c3.8-12.77,8.85-24.3,14.88-36.14c6.15-12.06,10.56-24.1,12.28-37.64c2.29-18.04,9.69-33.85,21.39-47.67l28.14-28.8l18.65-19.38
		c12.91-15.28,18.56-34.45,14.98-54.24l-5.65-31.29c-2.04-11.31-0.48-22.44,4.29-32.63l-6.33-4.97
		c-5.39,12.48-7.26,25.39-4.93,38.59l4.94,27.98c3.37,19.1-1.53,37.34-13.4,52.5c-6.8,8.69-14.54,15.82-22.53,23.45l-19.41,18.55
		c-14.46,13.82-22.82,31.45-25.68,51.37c-1.99,13.86-6.18,26.16-12.41,38.53c-6.19,12.31-11.51,24.31-15.48,37.62
		c-8.47,28.34-7.3,58.53,4.32,85.47c0.92,2.13,2.5,3.53,4.16,3.46c1.6-0.07,3.85-1.12,4.3-2.68
		C505.83,889.59,484.41,857.62,498.23,811.21z M489.64,799.85c-13.35-19.64-16.68-43.16-10.35-65.62l8.56-23.37
		c3.84-10.48,6.97-20.62,8.19-31.83c2.86-26.38-5.31-51.56-22.89-71.2c-20.91-23.37-47.34-31.93-55.57-62.06l-6.82,5.05
		c4.17,12.6,11.47,22.81,21.44,31l23.51,19.31c33.02,27.11,42.28,72.23,24.09,110.78c-16.19,34.32-15.49,66.59,6.65,97.55
		C488.58,806.1,489.25,803.27,489.64,799.85z M506.75,761.26c4.15-9.41,6.96-18.31,8.55-28c1.3-7.94,2.78-15.43,5.55-22.75
		c-8.46-12.95-14.54-25.83-19.87-40.23c-1.3,15.55-4.07,28.74-9.5,42.31l-7.88,21.17c-6.58,20.98-4.09,43.35,8.05,61.74
		L506.75,761.26z M535.09,909.34c-9.52-13.71-15.97-28.27-19.09-44.29c-3.76-19.31-0.29-37.73,9.4-54.7l14.86-26.02
		c11.31-24.37,7.82-46.53-3.86-69.62c-1.89,2.85-4.67,7.06-3.41,10c6.55,15.32,9.32,31.65,4.37,47.64
		c-7.02,22.67-30.81,41.89-29.05,79.59c1.03,22.12,8.37,42.99,20.14,61.39c1.51,2.36,3.74,2.91,5.38,2.08
		C536.24,914.2,536.89,911.93,535.09,909.34z M509.94,817.54c4.22-10.96,9.46-19.86,15.47-29.12c11.25-17.35,14.46-38.32,4.99-57.13
		c-2.24,16.4-5.56,30.41-13.16,43.98l-14.7,34.68C504.76,813,507.12,815.3,509.94,817.54z M505.91,829.41
		c1.56-3.06,1.87-4.9,2.41-7.43l-6.93-6.92c-0.85,2.22-2.7,5.84-1.76,8.54C500.66,826.08,503.95,827.47,505.91,829.41z
		 M527.61,836.16c-2.01-2.22-4.47-3.08-6.45-4.36c-1.42,2.5-2.61,5.97-1.17,7.77c1.68,2.1,4.5,2.59,5.95,1.85
		C527.61,840.57,529.28,838,527.61,836.16z"/><path fill="#FCFCFC" d="M631.15,253.82c-2.25,2.72-4.95,3.49-7.8,2.37c-3.44-1.35-4.58-3.76-3.94-7.23
		C623.69,250.12,627.98,251.09,631.15,253.82z"/><path fill="#FCFCFC" d="M467.37,596.13l-23.29-19.2c-11.28-9.3-20.06-20.42-23.61-35.07c4.12-7.56,4.61-15.94,1.58-23.99
		l-7.1-18.84c-0.99-2.62-3.23-4.1-5.43-5.72l-35.03-89.3c14.58-5.54,29.41-8.2,44.31-5.12c2.65,0.55,4.75,1.16,5.36,4.12
		c0.46,1.5,1.85,2.15,3.22,1.73c3.22-0.98-1.76-4.69,2.8-11.64c9.27-14.15,24.74-22.08,42.46-23.84
		c-2.31,17.8,5.08,31.21,21.87,33.18c-5.91,18.97-5.44,37.55,0.64,55.6c4.21,12.5,10.53,23.41,16.9,34.91l13.93,25.13
		c8,14.43,8.23,30.65,2.35,46.15c-3.14,8.28-7.6,15.53-11.6,23.46l-13.38,26.47c-3.76,8.75-4.9,17.21-6.56,27.49
		C491.29,623.87,481.2,609.15,467.37,596.13z"/><path fill="#B1CCA6" d="M559.32,256.32c-19.47-12.01-45.41-13.61-67.15-10.03c-12.1,1.99-22.89,6.21-33.01,13.05
		c-0.13-31.55,3.49-61.82,13.99-90.97c5.64-15.67,12.6-30.2,24.34-42.07c16.21-5.34,21.02,0.25,29.81,13.44
		C548.99,172.3,558.59,216.57,559.32,256.32z"/><path fill="#F07B64" d="M383.17,396.83c-16.28,4.48-30.83,11.35-43.19,22.05c-5.11,4.36-9.03,8.98-12.74,14.53
		c-14.66-32.02-24.19-68.87-17.37-102.5c2.09-10.3,4.74-20.46,11.45-28.82c2.55-3.17,10.3-6.75,14.46-5.99
		c12.68,2.29,23.01,9.55,32.74,17.41c25.12,20.27,41.64,50.96,52.95,81.61C408.13,392.41,396.12,393.19,383.17,396.83z"/><path fill="#F3E1A1" d="M694.17,408.74c-10.8-16.04-25.92-25.93-43.14-32.64c-16.19-6.32-32.65-9.03-50.25-5.9
		c12.3-33.14,28.66-61.35,56.04-83.37c9.34-6.61,18.65-13.07,30.42-14.84c4.19-0.63,11.13,2.67,13.93,5.61
		c5.95,6.24,7.72,14.23,10.33,22.14C720.21,337.54,709.97,373.46,694.17,408.74z"/><path fill="#B1CCA6" d="M454.92,258.33c-6.09-2.7-11.48-6.26-18.19-7.94c-17.78-4.46-35.96-2.79-52.58,5.16
		c0.14-26.47,7.62-50.48,21.15-72.28c18.99-29.9,49.22-50.92,85.63-57.11c-8.84,12.87-16.03,24.13-20.75,38.01
		C458.98,193.92,454.86,224.61,454.92,258.33z"/><path fill="#B1CCA6" d="M632.37,248.83c-22.92-9.62-48.15-7.83-68.79,6.76c-0.98-44.95-12.34-95.72-41.96-129.98
		c32.82,4.84,61.51,21.62,81.93,46.83C620.59,194.29,630.4,220.02,632.37,248.83z"/><path fill="#F07B64" d="M425.27,392.46c-16.8-42.56-39.74-80.96-81.84-99.16c58.08-13.4,114.81,19.38,140.02,71.68
		c-12.67-0.91-24.09,1.23-34.81,6.67C438.95,376,431.8,382.88,425.27,392.46z"/><path fill="#F3E1A1" d="M710.23,283.45c-1.34-0.85,0.15-2.34,1.07-1.15c-0.1,0.21,0.13,0.58,0.45,0.41
		c18.4,12.01,32.67,28.9,42.42,49.25c14.79,31.27,16.12,66.97,4.4,99.29c-15.49-17.08-37.22-25.66-59.95-21.16
		c6.28-14.41,11.52-28.18,15.28-43.12c6.95-28.31,7.73-56.86-3.46-83.24C710.48,283.54,710.32,283.47,710.23,283.45z"/><path fill="#F3E1A1" d="M596.79,367.47c-13.75-18.84-32.65-28.01-57.25-27.5c14.48-28.92,37.83-51.6,67.17-64.24
		c23.22-9.61,47.67-12.88,72.83-6.55c-27.34,10.85-48.57,33.56-63.67,58.61C608.26,340.18,603.18,352.71,596.79,367.47z"/><path fill="#F3E1A1" d="M498.23,811.21c-13.82,46.41,7.6,78.38,6.53,82.07c-0.45,1.55-2.7,2.61-4.3,2.68
		c-1.66,0.07-3.24-1.33-4.16-3.46c-11.62-26.94-12.79-57.13-4.32-85.47c3.98-13.31,9.29-25.31,15.48-37.62
		c6.23-12.37,10.41-24.68,12.41-38.53c2.86-19.91,11.22-37.54,25.68-51.37l19.41-18.55c7.99-7.63,15.72-14.76,22.53-23.45
		c11.87-15.16,16.78-33.39,13.4-52.5l-4.94-27.98c-2.33-13.2-0.45-26.11,4.93-38.59l6.33,4.97c-4.76,10.19-6.33,21.31-4.29,32.63
		l5.65,31.29c3.57,19.79-2.07,38.96-14.98,54.24l-18.65,19.38l-28.14,28.8c-11.7,13.82-19.1,29.63-21.39,47.67
		c-1.72,13.54-6.14,25.58-12.28,37.64C507.08,786.9,502.03,798.43,498.23,811.21z"/><path fill="#FCFCFC" d="M506.75,761.26l-15.11,34.24c-12.14-18.39-14.62-40.75-8.05-61.74l7.88-21.17
		c5.43-13.56,8.2-26.76,9.5-42.31c5.33,14.4,11.42,27.28,19.87,40.23c-2.77,7.32-4.25,14.81-5.55,22.75
		C513.72,742.95,510.9,751.85,506.75,761.26z"/><path fill="#B1CCA6" d="M522.41,705.5c-17.74-28.51-28.78-60.04-14.35-92.39l12.27-23.79l11.64-23.22
		c5.92-15.59,5.36-31.67-1.21-46.98l-15.38-28.5c-6.02-11.17-12.16-21.68-16.3-33.69c-6.23-18.1-6.68-36.92-0.21-54.7
		c3.38-0.11,5.4-1.05,8.43-2.23c-5.29,14.6-6.04,29.13-3.57,44.29c5.1,31.18,22.84,48.33,33.96,72.97
		c7.26,16.09,8.43,33.25,2.37,49.89l-11.79,25.18c-4.93,10.53-10.84,20.08-14.85,31.04c-9.81,26.85-0.71,50.06,13.8,73.6
		L522.41,705.5z"/><path fill="#B1CCA6" d="M489.64,799.85c-0.39,3.42-1.05,6.24-3.18,9.6c-22.14-30.96-22.84-63.24-6.65-97.55
		c18.19-38.55,8.92-83.67-24.09-110.78l-23.51-19.31c-9.97-8.19-17.27-18.4-21.44-31l6.82-5.05c8.23,30.13,34.66,38.69,55.57,62.06
		c17.58,19.64,25.75,44.82,22.89,71.2c-1.22,11.22-4.35,21.36-8.19,31.83l-8.56,23.37C472.96,756.69,476.29,780.21,489.64,799.85z"/><path fill="#B1CCA6" d="M535.09,909.34c1.8,2.59,1.15,4.86-1.25,6.07c-1.64,0.83-3.87,0.29-5.38-2.08
		c-11.77-18.4-19.11-39.28-20.14-61.39c-1.76-37.7,22.02-56.92,29.05-79.59c4.95-16,2.18-32.32-4.37-47.64
		c-1.26-2.94,1.52-7.15,3.41-10c11.68,23.09,15.16,45.25,3.86,69.62l-14.86,26.02c-9.69,16.97-13.16,35.39-9.4,54.7
		C519.13,881.07,525.57,895.63,535.09,909.34z"/><path fill="#FCFCFC" d="M509.94,817.54c-2.82-2.24-5.18-4.54-7.41-7.59l14.7-34.68c7.6-13.57,10.92-27.59,13.16-43.98
		c9.48,18.8,6.26,39.77-4.99,57.13C519.4,797.68,514.15,806.58,509.94,817.54z"/><path fill="#F07B64" d="M390.08,545.86c-9.63-5.52-14.36-19.71-7.53-20.87c6.59-1.12,5.38,11.95,16.42,13.23
		c3.53,0.41,6.44-1.54,8.03-3.75c2.02-2.82,2.57-6.47,1.36-9.91l-7.67-21.78c0.9-2.7,6.22-4.37,9.54-4.09l8.39,21.69
		c3.17,8.2,1.15,17.4-5.07,22.78C407.15,548.67,397.69,550.22,390.08,545.86z"/><path fill="#B1CCA6" d="M479.07,387.97c-4.14-7.65-5.04-19.41,1.45-19.41c8.17,0,1.23,12.69,11.52,18.37
		c2.73,1.51,6.22,1.43,9.07-0.2c2.08-1.19,4.94-4.21,5.01-7.69l0.52-25.23c1.88-2.19,7.21-1.96,10.18-0.41l0.19,26.47
		c0.06,9.08-7.49,15.95-15.11,17.77C492.58,399.86,483.61,396.36,479.07,387.97z"/><path fill="#F3E1A1" d="M617.46,512.39c12.03,3.69,13.39-13.64,19.88-12.34c7.05,1.42,1.81,14.18-6.48,19.81
		c-7.27,4.94-16.16,3.8-22.98-1.16c-6.74-4.91-9.98-13.95-6.58-22.36l9.31-23.03c3.31-0.2,6.54,1.23,9.27,3.73l-8.01,21.8
		C609.95,504.03,611.78,510.65,617.46,512.39z"/><path fill="#B1CCA6" d="M505.91,829.41c-1.96-1.94-5.26-3.33-6.28-5.82c-0.94-2.7,0.92-6.32,1.76-8.54l6.93,6.92
		C507.79,824.51,507.47,826.35,505.91,829.41z"/><path fill="#B1CCA6" d="M527.61,836.16c1.67,1.85,0,4.41-1.67,5.27c-1.45,0.74-4.27,0.25-5.95-1.85
		c-1.44-1.8-0.25-5.27,1.17-7.77C523.14,833.08,525.6,833.94,527.61,836.16z"/><path fill="#F3E1A1" d="M509.03,120.52l-5.36-0.15c-0.24-5.65-0.22-10.78,1.9-11.41
		C508.1,108.21,508.83,114.16,509.03,120.52z"/><path fill="#F3E1A1" d="M328.5,292.79c-1.33,1.39-2.68,1.88-4.53,2.14c-2.46-4.53-3.84-10.02-2.39-10.94
		c0.64-0.41,2.09-0.25,2.64,0.78L328.5,292.79z"/><path fill="#F3E1A1" d="M698.73,270.13c-0.62,0.59-3.1-0.2-3.66-0.8c-0.59-0.63,2.29-9.4,6.45-10.01
		C702.07,263.12,700.49,266.91,698.73,270.13z"/><path fill="#F07B64" d="M321.26,434.52c-21.6-4.23-43.52,4.48-58.96,20.74c-19.09-56.81-0.2-117.36,51.03-149.7
		c-12.43,29.42-12.32,58.88-4.61,88.81c3.35,13.76,8.41,26.33,13.54,38.94c-0.16,0.25,0.12,0.54,0.39,0.49
		c0.91,0.73-0.18,1.91-0.91,0.89C321.67,434.56,321.5,434.39,321.26,434.52z"/></svg>