<svg xmlns="http://www.w3.org/2000/svg" xmlns:xlink="http://www.w3.org/1999/xlink"
	 viewBox="0 0 1184 864">
<g>
	<path fill="#F9F5E5" d="M14,0h1170v864H0V9c1.723,0.022,3.597-0.456,5.119-1.899C9.007,3.415,14.786,5.443,14,0z M459.967,695.842
		c26.943-4.094,61.895-13.243,81.037-32.037l513.641-0.025c1.12-0.139,1.08-1.091,0.851-1.561c0.011-1.134-0.592-1.207-1.473-1.213
		l-40.893-0.277l9.425-40.13l6.463-0.713l-0.05-17.397l-13.31-0.615c6.864-7.881,12.806-15.732,16.708-25.351
		c4.254-10.487,4.099-22.705-4.559-26.925c-7.986-3.893-16.212,2.037-22.714,9.889c0.796-17.338,1.679-44.959-13.079-47.887
		c-23.728-4.708-25.96,34.621-21.823,59.48c0.181,1.085-1.171,1.392-1.427,0.292c-3.737-3.93-7.239-7.542-12.011-10.02
		c-5.541-2.878-12.78-2.447-16.077,3.272c-7.436,12.895,8.652,27.914,20.816,37.058l-12.658,0.532
		c-0.317,6.04-0.371,12.002,0.728,18.05c2.357,0.036,4.15-0.235,6.443,0.542l8.851,40.204l-421.466-0.036
		c6.53-11.194,5.113-22.246-2.565-30.955c-6.726-7.629-15.351-12.671-25.033-17.103c0.544-19.059-14.737-32.886-34.234-30.99
		l-4.623-29.454l453.896,0.1c16.985,0.004,30.902-12.17,30.89-29.742l-0.236-345.743c-0.01-14.33-13.298-27.384-27.596-27.388
		l-496.713-0.149c-15.308,0.904-28.459,12.816-28.493,28.587L408.4,308.254c-33.388-4.873-66.541,3.231-92.337,24.278
		c-1.172-5.26-1.71-9.393-4.5-13.034c-1.626-1.363-3.761-2.222-5.501-1.719c-5.278,1.528-6.102,10.278-3.589,18.938
		c-7.89-2.271-14.656-1.557-15.44,3.894c-0.799,5.55,5.549,7.71,13.864,8.68c-10.462,16.624-15.352,34.931-14.105,54.762
		c-11.007,2.799-16.746,12.617-14.783,23.13c2.068,11.075,11.543,18.211,23.453,17.572c6.119,17.907,17.638,32.642,33.79,43.559
		c-18.576,16.116-23.994,39.348-20.011,63.613c-2.816,14.241-4.883,28.33-3.447,42.745c0.404,4.053,1.722,7.896-0.299,12.001
		c-11.56,3.441-21.852,8.394-33.039,14.773c14.694-29.224,21.414-65.484,5.448-93.312c-3.049-5.315-6.585-10.138-12.124-12.851
		l-20.082-9.837c-17.838-8.738-42.509,2.766-58.103,16.388c-26.068,22.771-42.37,55.357-45.08,89.962
		c-1.371,17.504,2.896,37.388,15.83,49.071l-35.097,0.268c-0.542,0.295-0.416,2.318,0.066,2.332l39.308,1.13
		c7.982,1.5,15.129,7.142,22.501,10.108c17.657,7.105,34.483-1.212,50.432-10.16c7.957-2.484,17.753,0.078,26.263-0.849
		c6.664,6.864,13.612,11.57,21.966,15.515C332.491,702.213,406.566,703.957,459.967,695.842z"/>
	<path fill="#F8F4E3" d="M14,0c0.786,5.443-4.993,3.415-8.881,7.101C3.597,8.544,1.723,9.022,0,9V5c2.835-0.281,5.769-1.969,6-5H14z
		"/>
	<path fill="#A8CAA6" d="M6,0C5.769,3.031,2.835,4.719,0,5V0H6z"/>
	<path fill="#272723" d="M459.967,695.842c-53.401,8.115-127.476,6.37-176.182-16.632c-8.354-3.945-15.302-8.65-21.966-15.515
		c-8.509,0.926-18.306-1.635-26.263,0.849c-15.948,8.948-32.774,17.265-50.432,10.16c-7.372-2.966-14.519-8.608-22.501-10.108
		l-39.308-1.13c-0.482-0.014-0.608-2.037-0.066-2.332l35.097-0.268c-12.934-11.683-17.202-31.567-15.83-49.071
		c2.711-34.605,19.013-67.191,45.08-89.962c15.594-13.622,40.265-25.125,58.103-16.388l20.082,9.837
		c5.539,2.713,9.074,7.536,12.124,12.851c15.966,27.829,9.246,64.088-5.448,93.312c11.186-6.378,21.479-11.332,33.039-14.773
		c2.021-4.105,0.703-7.948,0.299-12.001c-1.436-14.415,0.63-28.504,3.447-42.745c-3.983-24.266,1.435-47.497,20.011-63.613
		c-16.152-10.917-27.671-25.653-33.79-43.559c-11.91,0.639-21.385-6.497-23.453-17.572c-1.963-10.513,3.776-20.331,14.783-23.13
		c-1.247-19.831,3.643-38.138,14.105-54.762c-8.314-0.97-14.663-3.13-13.864-8.68c0.785-5.452,7.55-6.165,15.44-3.894
		c-2.513-8.659-1.689-17.41,3.589-18.938c1.74-0.504,3.874,0.356,5.501,1.719c2.79,3.641,3.328,7.774,4.5,13.034
		c25.796-21.047,58.95-29.151,92.337-24.278l0.281-130.121c0.034-15.772,13.185-27.683,28.493-28.587l496.713,0.149
		c14.298,0.004,27.586,13.059,27.596,27.388l0.236,345.743c0.012,17.573-13.905,29.746-30.89,29.742l-453.896-0.1l4.623,29.454
		c19.497-1.896,34.779,11.932,34.234,30.99c9.683,4.432,18.307,9.474,25.033,17.103c7.678,8.709,9.095,19.762,2.565,30.955
		l421.466,0.036l-8.851-40.204c-2.293-0.777-4.086-0.506-6.443-0.542c-1.099-6.049-1.046-12.01-0.728-18.05l12.658-0.532
		c-12.164-9.144-28.252-24.163-20.816-37.058c3.297-5.718,10.536-6.149,16.077-3.272c4.771,2.478,8.274,6.09,12.011,10.02
		c0.257,1.1,1.608,0.792,1.427-0.292c-4.137-24.859-1.905-64.188,21.823-59.48c14.758,2.928,13.875,30.549,13.079,47.887
		c6.501-7.852,14.728-13.782,22.714-9.889c8.658,4.221,8.813,16.438,4.559,26.925c-3.902,9.62-9.844,17.471-16.708,25.351
		l13.31,0.615l0.05,17.397l-6.463,0.713l-9.425,40.13l40.893,0.277c0.882,0.006,1.484,0.078,1.473,1.213
		c0.229,0.471,0.269,1.423-0.851,1.561l-513.641,0.025C521.862,682.599,486.91,691.748,459.967,695.842z M926.271,536.662
		l-452.357,0.143c0.089,4.295,1.279,8.029,2.42,12.772l454.448,0.048c15.593,0.002,27.981-11.04,27.987-27.028l0.082-199.548
		l-0.345-144.959c-0.033-13.861-11.631-25.5-25.705-25.499l-495.632,0.035c-14.198,0.001-25.556,12.782-25.579,26.382
		l-0.221,129.849l12.964,3.542l0.142-128.358c0.011-9.936,8.755-18.556,18.96-18.553l484.103,0.124
		c10.42,0.003,18.282,9.588,18.284,19.536l0.068,329.701C945.893,525.829,938.915,536.659,926.271,536.662z M564.483,438.694
		l19.653,0.512l0.024,74.154l-51.231,0.034l-0.462-34.031c-19.266,18.039-39.054,32.503-60.859,45.428
		c-0.218,3.438,0.284,6.088,1.781,9.202l452.315-0.08c9.546-0.002,17.235-7.812,17.234-17.122l-0.017-331.55
		c0-9.4-7.69-16.784-17.14-16.786l-481.534-0.069c-10.269,0.649-16.944,7.686-16.936,17.722l0.102,127.771
		c25.796,10.635,43.96,31.799,53.518,57.234c9.713,0.629,17.129,7.522,18.713,15.726c1.856,9.617-2.374,18.5-11.138,23.029
		c0.881,17.708-3.73,33.685-12.23,49.451l34.314-19.684l15.183-9.888c9.207-8.245,29.279-28.521,35.483-23.459
		c3.916,3.195,0.61,9.422-4.536,15.021c2.251,1.51,2.543,5.019,4.138,6.656C563.713,430.898,565.365,433.299,564.483,438.694z
		 M472.396,359.309c-19.546-35.043-52.087-52.952-92.862-49.024c-24.328,2.343-46.649,11.045-65.174,27.578l-3.433-13.69
		c-0.429-1.713-1.78-3.556-3.443-3.541c-1.393,0.012-2.543,1.533-2.956,3.105c-2.201,8.374,3.437,15.43,1.688,16.899
		c-1.031,0.866-16.08-5.739-16.327,0.854c-0.046,1.235,1.316,2.605,2.838,2.917l13.335,2.736
		c-11.68,16.929-17.708,35.673-16.282,56.099c3.561,0.337,7.957-0.37,9.563,2.408l4.719,8.162c1.332,2.303,3.932,3.444,6.244,2.318
		c1.307-0.637,2.783-2.867,3.065-5.086c1.799-14.133,5.049-46.331,11.145-50.067c1.572-0.963,3.979-0.831,5.805-0.113
		c12.533,4.928,30.071,10.347,41.427,6.045c2.578-0.977,4.14-3.141,4.209-5.396c0.076-2.475-1.3-4.526-3.75-5.801l-11.731-6.104
		c-1.155-0.601-0.728-2.288,0.061-2.609c1.495-0.608,18.422,10.765,40.405,13.54c8.263,1.043,16.653-0.664,17.114-6.123
		c0.192-2.278-0.665-5.313-2.925-6.597l-11.418-6.488c-0.938-0.533-0.952-1.867-0.517-2.498c1.684-2.443,28.164,19.506,49.467,8.531
		c7.172,2.843,12.74,8.943,18.522,12.884L472.396,359.309z M277.857,433.777c8.936,13.253,25.304,5.197,25.477,8.715
		c0.107,2.182-5.094,1.717-4.428,3.434c22.362,57.65,96.666,71.453,147.207,39.34c24.926-15.838,39.464-42.565,39.52-71.84
		c0.059-31.157-6.877-46.771-33.139-63.25c-10.165,5.955-20.729,3.187-32.161-0.491c1.629,5.375,0.004,9.82-4.494,12.141
		c-9.567,4.936-24.935,0.223-37.132-3.513c1.533,20.519-30.875,12.855-48.837,5.551c-1.44-0.586-2.991-0.703-4.087,0.121
		c-4.17,3.135-7.871,35.154-9.689,48.025c-0.521,3.687-3.113,6.805-6.04,7.428c-3.338,0.71-6.676-0.775-8.485-4.029l-4.345-7.816
		c-7.183-2.873-15.211-0.039-19.452,5.764C273.496,419.21,273.328,427.06,277.857,433.777z M472.629,359.719l-0.606,0.801
		c-0.894,0.549-0.416,2.858,1.304,2.193C473.996,362.364,473.298,360.066,472.629,359.719z M488.808,406.224
		c7.448-4.679,9.674-12.41,7.632-19.867c-1.637-5.978-6.914-11.444-14.486-12.123C485.91,384.679,487.523,394.974,488.808,406.224z
		 M539.994,440.963l3.711-8.029c0.507-1.098,5.386-0.02,4.379-3.201c-1.399-4.421-10.347-0.247-11.141-1.422
		c-0.515-0.762-0.245-2.036,0.75-2.62c3.263-1.913,7.345-0.776,10.551,0.124c6.006-5.898,14.69-14.898,10.903-17.282
		c-3.669-2.31-24.321,16.169-31.585,24.141l19.495,26.84c4.368-2.314,8.025-5.059,10.828-8.302c-2.622-0.35-4.263-0.405-5.534-1.011
		c-0.9-0.429-0.529-3.247-1.319-3.99c-2.401-2.259-4.589-3.166-3.836-7.979c-3.925,1.008-3.612,5.844-6.672,4.8
		C540.09,442.883,539.497,442.037,539.994,440.963z M547.339,435.861c4.383,1.996,6.691-0.988,8.069-3.053
		c1.414-2.12,2.465-5.616,0.489-7.715c-1.151-1.223-3.204,0.275-3.945,1.267C550.384,428.46,554.164,431.661,547.339,435.861z
		 M551.742,442.693c5.56-0.154,10.386-4.938,9.705-9.949c-0.187-1.376-2.328-1.582-2.815-0.302
		c-1.509,3.968-4.415,5.924-8.196,7.094C549.674,439.772,549.87,442.745,551.742,442.693z M377.983,564.516
		c5.647,3.849,10.37,8.443,16.322,11.088c5.297,2.355,13.309,1.653,16.839,7.433c1.524,2.495,0.553,6.01,4.879,7.228
		c2.797,0.788,4.447,4.55,3.995,8.139c20.521-2.363,39.718-8.607,58.271-16.858l-4.949-31.844l-8.237-38.754
		c0.659-0.106,1.567-0.43,1.774-0.535c2.304,3.061,1.636,6.429,3.696,11.463c27.472-16.346,52.655-36.04,74.869-59.969
		l-20.618-27.845c-17.87,11.106-34.61,22.31-53.188,31.266c-9.59,13.444-22.027,22.672-36.713,29.665
		c-32.819,14.221-71.663,14.333-103.003-4.879c-12.867,10.442-19.485,25.663-20.844,41.858
		c-3.319,39.54,26.864,64.731,63.276,72.272l14.887-28.084c-17.776-12.039-36.13-24.678-36.879-46.986
		c-0.043-1.294,0.227-1.835,1.324-1.847c2.507-0.029,0.133,10.63,8.812,22.204C366.747,555.201,371.715,560.244,377.983,564.516z
		 M555.632,448.364c5.078,0.095,10.246-4.144,7.754-9.003c-3.017,3.058-5.282,5.042-8.742,6.37
		C554.104,445.939,553.844,448.33,555.632,448.364z M535.838,510.576l45.481-0.075l-0.033-68.397l-13.937-0.039
		c-3.507,8.168-9.32,14.244-16.777,18.589l-14.822,15.376L535.838,510.576z M229.577,639.397
		c26.912-28.541,45.963-77.371,31.128-113.904c-5.707-14.055-18.675-21.88-33.841-19.822c-11.432,1.551-21.569,6.317-30.986,13.398
		c-56.969,42.838-66.502,132.539-25.069,145.021C191.187,670.228,214.824,655.043,229.577,639.397z M1000.891,566.179
		c1.423-10.83,1.931-20.772,1.168-31.171c-0.885-9.757-3.89-19.761-12.035-20.675c-9.546-1.071-15.184,8.918-17.153,19.749
		c-4.017,22.093-0.008,44.055,9.906,64.047c0.766,1.544,0.606,3.38,2.014,3.737c1.236,0.314,2.955,0.49,4.524-0.125
		C991.129,589.498,994.674,577.76,1000.891,566.179z M259.254,515.312c-0.975-0.892-1.108,0.446-1.071,0.449L259.254,515.312z
		 M259.639,515.78l-0.643,0.74c3.482,5.573,6.263,11.545,7.922,18.47l13.478,6.445C276.643,529.325,270.385,519.152,259.639,515.78z
		 M283.869,559.895c0.191-5.701-0.878-9.385-1.779-14.096l-14.295-6.904l1.243,13.723L283.869,559.895z M1011.106,601.822
		c8.542-8.58,15.069-17.8,19.138-28.6c3.355-8.905,2.205-18.67-4.294-21.033c-16.343-5.94-31.431,30.564-33.63,49.714
		L1011.106,601.822z M283.413,575.658c1.126-4.929,1.082-8.366,0.664-12.575l-15.296-7.265l-0.945,12.073L283.413,575.658z
		 M353.369,600.861c-6.847-3.521-13.447-6.723-19.686-11.572c-10.534-7.931-17.864-18.356-22.51-30.762
		c-2.899,12.922-3.491,24.892-2.445,37.45C323.788,599.102,337.926,600.624,353.369,600.861z M980.901,601.9l-7.829-18.928
		c-6.42-11.956-22.005-26.345-28.931-17.823c-8.892,10.941,10.829,29.192,23.746,36.922L980.901,601.9z M280.524,591.944
		l2.579-12.893l-16.044-8.206l-2.807,13.357L280.524,591.944z M413.552,603.362c1.662,0.65,2.407-0.876,2.245-1.735
		c-0.09-0.476-0.192-0.99-1.069-1.357l-7.77-3.254c-1.4-0.586-1.694-1.674-1.211-2.543c1.602-2.884,6.778,2.823,10.142,2.134
		c1.429-0.293,0.249-2.8-0.997-3.5l-12.852-7.224c1.929-1.476,3.925,0.095,6.979-1.255c-4.703-4.025-10.744-4.862-17.403-6.157
		l-14.027,25.967c8.744,5.427,18.653,9.247,29.06,8.377c-3.274-3.957-12.021-4.787-8.092-6.969c0.52-0.289,1.541-0.325,2.409-0.019
		l9.067,3.191c1.264,0.445,2.094-0.692,2.117-1.514c0.065-2.287-14.814-5.778-9.553-7.518c0.502-0.166,1.38-0.367,2.29-0.011
		L413.552,603.362z M448.476,627.095c6.623,0.19,11.025,5.238,9.375,10.903l-4.744,16.29c-0.568,1.951-1.373,3.647,0.063,6.496
		c27.449-10.216,71.538-31.535,56.656-61.739c-6.266-12.717-23.678-17.762-36.093-12.374c-17.347,7.527-35.037,12.439-53.85,14.77
		l-4.459,5.563c-0.865,3.781-2.229,4.456-6.525,6.218l27.043,11.819c9.129-8.737,36.568-33.165,38.868-28.528
		c0.186,0.375,0.147,1.039-0.225,1.49c-0.271,0.329-1.022,0.497-1.729,0.839c-12.669,7.916-23.551,17.55-34.541,27.929
		C442.023,628.301,445.018,626.996,448.476,627.095z M274.785,609.001c2.152-5.39,4.029-8.989,4.649-13.916l-16.173-8.103
		l-4.675,13.732L274.785,609.001z M437.121,628.795l-29.294-12.782c-11.044,0.517-21.333-2.877-30.911-8.388l-14.531-3.02
		c-17.65-1.193-34.822-1.699-52.626-5.314c-5.756,35.395,18.092,52.078,50.025,59.202c22.787,5.083,45.679,7.248,69.222,7.034
		L437.121,628.795z M257.2,603.152l-6.678,12.841l16.711,8.691l6.678-12.841L257.2,603.152z M1026.283,604.81l-74.63,0.035
		l0.006,12.542l74.63-0.035L1026.283,604.81z M490.976,658.531c1.047,0.764,1.132,2.132,0.841,2.821
		c-1.23,2.912-7.524-6.988-15.428-7.014l-23.091,9.102c-0.449,5.247-3.701,7.624-8.377,8.299c-4.589,0.663-8.559-2.304-12.49-3.269
		c-28.434,0.109-56.794-2.071-84.373-10.026c-8.072,1.381-17.5,10.87-16.199,6.051c0.736-2.728,5.884-5.073,10.795-7.97
		c-5.756-2.276-11.131-5.145-16.714-8.803c-11.424-1.88-25.244,4.864-25.36,3.265l-0.149-2.037
		c5.943-3.188,12.366-3.401,20.37-4.896c-9.77-9.483-14.812-20.693-14.64-34.39c-13.333,4.447-25.829,9.429-36.445,18.08
		c-4.66,3.798-7.212,9.593-10.652,14.499c-4.907,17.044,15.26,29.875,31.205,36.526c12.843,5.356,25.445,9.153,39.401,11.828
		c49.741,9.537,100.692,9.281,150.059-1.696c19.85-4.414,46.195-13.41,59.226-27.842c7.733-8.565,7.52-20.305-0.259-28.84
		c-6.121-7.063-13.855-11.774-23.201-16.181c-2.847,11.609-10.64,19.695-20.334,26.787c6.174,1.436,10.77,1.244,15.487,3.592
		c0.821,0.268,1.229,0.781,1.353,1.205c1.36,4.638-9.926-3.394-21.628-1.108c-3.375,0.659-6.225,3.454-8.861,5.109L490.976,658.531z
		 M257.461,638.797l8.261-11.83l-16.51-8.553l-7.923,11.782L257.461,638.797z M1010.013,660.833l9.279-40.554l-60.289-0.051
		l9.017,40.652L1010.013,660.833z M450.304,653.222l4.694-16.287c0.779-2.704-1.052-5.482-3.738-6.262
		c-3.733-1.084-7.507-1.046-11.388,0.364l-7.669,33.862c6.313,3.676,13.941,5.366,17.103,1.817
		C451.695,664.035,448.158,660.669,450.304,653.222z M246.198,651.316l8.982-10.132l-15.9-8.469l-9.152,10.317L246.198,651.316z
		 M233.122,662.303l10.395-8.883l-15.523-8.221l-10.644,9.355L233.122,662.303z M259.193,660.607
		c-3.177-5.977-3.764-9.394-4.301-15.001c-4.724,6.097-9.515,10.224-15.24,15.212L259.193,660.607z M217.004,670.198
		c4.739-0.326,8.658-3.988,12.647-5.952l-15.514-7.812l-12.381,7.284C206.82,665.756,211.768,670.558,217.004,670.198z
		 M211.86,672.256l-13.989-7.394c-5.877,2.218-11.444,3.363-18.027,3.379C189.027,675.122,200.558,676.25,211.86,672.256z"/>
	<path fill="#F8F4E3" d="M277.857,433.777c-4.529-6.717-4.361-14.568-0.083-20.42c4.241-5.803,12.268-8.637,19.452-5.764
		l4.345,7.816c1.809,3.254,5.148,4.739,8.485,4.029c2.927-0.623,5.519-3.741,6.04-7.428c1.818-12.871,5.519-44.89,9.689-48.025
		c1.095-0.824,2.647-0.707,4.087-0.121c17.962,7.304,50.369,14.969,48.837-5.551c12.197,3.736,27.565,8.449,37.132,3.513
		c4.499-2.321,6.124-6.766,4.494-12.141c11.432,3.677,21.996,6.446,32.161,0.491c26.262,16.479,33.198,32.092,33.139,63.25
		c-0.056,29.275-14.594,56.002-39.52,71.84c-50.541,32.113-124.846,18.31-147.207-39.34c-0.666-1.717,4.535-1.252,4.428-3.434
		C303.161,438.974,286.793,447.03,277.857,433.777z M445.08,386.656l1.009,2.82c0.293,0.819,2.185,0.784,2.423,0.029
		c0.756-2.398-0.626-4.978-1.862-7.183c-2.584-4.614-7.709-6.31-12.471-4.497c-7.014,2.671-7.898,16.217-2.903,15.202l0.287-6.024
		c0.196-4.115,3.094-6.96,6.901-6.751C441.382,380.411,443.718,382.852,445.08,386.656z M372.361,403.865
		c1.613-3.914-0.471-7.496-2.626-10.148c-2.103-2.588-5.674-4.121-9.625-3.235c-7.014,1.573-10.154,10.836-5.825,16.891
		c2.673-4.298-0.106-13.143,7.23-13.943C369.156,392.596,368.29,401.515,372.361,403.865z M410.475,404.004
		c2.165-0.157,2.261-8.608-2.505-10.333c-4.579-1.657-9.379,3.531-8.437,5.516c1.719,3.623,4.651-4.432,7.929-2.408
		C409.984,398.336,407.838,404.195,410.475,404.004z M465.4,409.049c2.251-2.34,2.404-5.434,1.65-7.53
		c-2.652-7.365-16.681-7.511-23.741-0.307c-1.974,2.015-2.512,5.214-1.675,7.619C443.89,415.314,457.702,417.051,465.4,409.049z
		 M385.379,435.356c10.573,9.603,26.905,9.596,37.769,0.919c5.929-4.736,8.72-11.865,7.844-19.202
		c-0.56-4.687-5.069-8.294-9.802-6.647c-21.417,7.455-36.167-0.139-40.329,9.326C378.555,424.999,380.722,431.125,385.379,435.356z
		 M362.34,426.982c2.093-2.074,2.359-4.851,1.787-7.289c-1.411-6.008-14.829-8.848-23.395-2.043
		c-2.497,1.983-3.504,4.706-2.918,7.714C339.312,433.046,354.336,434.911,362.34,426.982z M297.231,430.885
		c0.282-0.234,0.22-0.503,0.253-1.545c-3.974-10.605-15.119-11.814-14.943-8.661c0.027,0.478-0.083,1.575,1.114,1.527
		C294.322,421.775,293.867,433.672,297.231,430.885z"/>
	<path fill="#A8CAA6" d="M926.271,536.662c12.644-0.004,19.622-10.834,19.62-21.815l-0.068-329.701
		c-0.002-9.947-7.865-19.533-18.284-19.536l-484.103-0.124c-10.205-0.003-18.949,8.617-18.96,18.553l-0.142,128.358l-12.964-3.542
		l0.221-129.849c0.023-13.6,11.381-26.381,25.579-26.382l495.632-0.035c14.074-0.001,25.672,11.638,25.705,25.499l0.345,144.959
		l-0.082,199.548c-0.007,15.987-12.395,27.029-27.987,27.028l-454.448-0.048c-1.141-4.743-2.331-8.477-2.42-12.772L926.271,536.662z
		"/>
	<path fill="#EE7A67" d="M377.983,564.516c-6.267-4.272-11.236-9.315-15.487-14.985c-8.679-11.574-6.305-22.233-8.812-22.204
		c-1.097,0.013-1.368,0.553-1.324,1.847c0.749,22.308,19.103,34.946,36.879,46.986l-14.887,28.084
		c-36.412-7.541-66.595-32.732-63.276-72.272c1.36-16.195,7.978-31.417,20.844-41.858c31.34,19.213,70.185,19.1,103.003,4.879
		c14.686-6.993,27.123-16.221,36.713-29.665c18.578-8.955,35.318-20.16,53.188-31.266l20.618,27.845
		c-22.214,23.929-47.397,43.622-74.869,59.969c-2.06-5.035-1.392-8.402-3.696-11.463c-0.207,0.105-1.116,0.429-1.774,0.535
		l8.237,38.754l4.949,31.844c-18.554,8.251-37.751,14.495-58.271,16.858c0.452-3.589-1.198-7.351-3.995-8.139
		c-4.326-1.218-3.355-4.733-4.879-7.228c-3.53-5.779-11.542-5.078-16.839-7.433C388.353,572.959,383.63,568.366,377.983,564.516z"/>
	<path fill="#A8CAA6" d="M490.976,658.531l-9.463-6.909c2.636-1.655,5.486-4.45,8.861-5.109c11.702-2.286,22.988,5.746,21.628,1.108
		c-0.124-0.424-0.533-0.937-1.353-1.205c-4.718-2.347-9.313-2.156-15.487-3.592c9.694-7.092,17.487-15.179,20.334-26.787
		c9.345,4.407,17.079,9.118,23.201,16.181c7.779,8.535,7.992,20.275,0.259,28.84c-13.031,14.432-39.376,23.429-59.226,27.842
		c-49.368,10.977-100.319,11.233-150.059,1.696c-13.956-2.676-26.558-6.472-39.401-11.828c-15.945-6.65-36.113-19.481-31.205-36.526
		c3.44-4.906,5.992-10.701,10.652-14.499c10.616-8.651,23.112-13.633,36.445-18.08c-0.172,13.698,4.87,24.908,14.64,34.39
		c-8.004,1.495-14.427,1.708-20.37,4.896l0.149,2.037c0.117,1.599,13.936-5.146,25.36-3.265c5.583,3.658,10.958,6.527,16.714,8.803
		c-4.911,2.897-10.058,5.242-10.795,7.97c-1.301,4.818,8.127-4.67,16.199-6.051c27.579,7.955,55.94,10.135,84.373,10.026
		c3.931,0.965,7.901,3.932,12.49,3.269c4.677-0.675,7.928-3.052,8.377-8.299l23.091-9.102c7.904,0.026,14.198,9.926,15.428,7.014
		C492.107,660.663,492.023,659.295,490.976,658.531z"/>
	<path fill="#A8CAA6" d="M471.185,360.245c-5.783-3.941-11.35-10.041-18.522-12.884c-21.304,10.975-47.783-10.975-49.467-8.531
		c-0.435,0.631-0.421,1.965,0.517,2.498l11.418,6.488c2.259,1.284,3.117,4.319,2.925,6.597c-0.461,5.459-8.851,7.167-17.114,6.123
		c-21.983-2.775-38.91-14.148-40.405-13.54c-0.789,0.321-1.216,2.009-0.061,2.609l11.731,6.104c2.45,1.275,3.826,3.325,3.75,5.801
		c-0.069,2.255-1.631,4.419-4.209,5.396c-11.356,4.302-28.893-1.117-41.427-6.045c-1.826-0.718-4.233-0.851-5.805,0.113
		c-6.096,3.737-9.346,35.934-11.145,50.067c-0.282,2.219-1.758,4.449-3.065,5.086c-2.312,1.126-4.912-0.014-6.244-2.318
		l-4.719-8.162c-1.606-2.778-6.002-2.071-9.563-2.408c-1.426-20.425,4.602-39.169,16.282-56.099l-13.335-2.736
		c-1.521-0.312-2.884-1.682-2.838-2.917c0.247-6.594,15.296,0.011,16.327-0.854c1.749-1.469-3.889-8.525-1.688-16.899
		c0.413-1.572,1.563-3.093,2.956-3.105c1.663-0.014,3.014,1.829,3.443,3.541l3.433,13.69c18.525-16.534,40.846-25.235,65.174-27.578
		c40.775-3.928,73.316,13.981,92.862,49.024c0.071,0.128,0.116,0.349,0.233,0.41c0.669,0.347,1.367,2.645,0.697,2.995
		c-1.72,0.665-2.198-1.644-1.304-2.193L471.185,360.245z"/>
	<path fill="#A8CAA6" d="M437.121,628.795l-8.115,36.732c-23.543,0.215-46.436-1.95-69.222-7.034
		c-31.933-7.124-55.781-23.807-50.025-59.202c17.804,3.614,34.976,4.121,52.626,5.314l14.531,3.02
		c9.578,5.51,19.867,8.904,30.911,8.388L437.121,628.795z"/>
	<path fill="#EDC973" d="M229.577,639.397c-14.753,15.646-38.39,30.831-58.768,24.692c-41.434-12.482-31.9-102.183,25.069-145.021
		c9.417-7.081,19.555-11.847,30.986-13.398c15.166-2.058,28.133,5.767,33.841,19.822C275.54,562.026,256.49,610.856,229.577,639.397
		z M189.517,651.77c42.377-6.326,79.03-75.127,61.769-116c-5.479-12.973-18.434-19.646-32.371-16.662
		c-10.35,2.216-19.286,7.42-27.357,14.593c-20.307,18.046-33.464,42.986-36.263,70.135c-1.098,10.655-0.106,20.596,3.699,30.076
		C163.982,646.337,175.473,653.867,189.517,651.77z"/>
	<path fill="#A8CAA6" d="M448.476,627.095c-3.458-0.099-6.453,1.207-10.162-0.324c10.99-10.38,21.872-20.013,34.541-27.929
		c0.707-0.342,1.458-0.51,1.729-0.839c0.372-0.451,0.411-1.115,0.225-1.49c-2.3-4.638-29.739,19.791-38.868,28.528l-27.043-11.819
		c4.296-1.761,5.66-2.436,6.525-6.218l4.459-5.563c18.813-2.331,36.504-7.243,53.85-14.77c12.415-5.388,29.827-0.343,36.093,12.374
		c14.882,30.204-29.206,51.523-56.656,61.739c-1.436-2.849-0.631-4.544-0.063-6.496l4.744-16.29
		C459.502,632.332,455.099,627.284,448.476,627.095z"/>
	<path fill="#A8CAA6" d="M535.838,510.576l-0.088-34.547l14.822-15.376c7.457-4.345,13.27-10.421,16.777-18.589l13.937,0.039
		l0.033,68.397L535.838,510.576z"/>
	<polygon fill="#EE7A67" points="1010.013,660.833 968.02,660.879 959.004,620.227 1019.292,620.278 	"/>
	<path fill="#A8CAA6" d="M1000.891,566.179c-6.217,11.582-9.761,23.319-11.576,35.562c-1.568,0.615-3.288,0.439-4.524,0.125
		c-1.408-0.358-1.249-2.194-2.014-3.737c-9.914-19.992-13.924-41.953-9.906-64.047c1.969-10.831,7.607-20.819,17.153-19.749
		c8.145,0.913,11.15,10.917,12.035,20.675C1002.822,545.407,1002.314,555.349,1000.891,566.179z"/>
	<path fill="#A8CAA6" d="M1011.106,601.822l-18.786,0.081c2.199-19.151,17.287-55.655,33.63-49.714
		c6.5,2.363,7.65,12.128,4.294,21.033C1026.175,584.022,1019.648,593.242,1011.106,601.822z"/>
	<rect x="951.656" y="604.828" fill="#EE7A67" width="74.63" height="12.542"/>
	<path fill="#A8CAA6" d="M980.901,601.9l-13.014,0.171c-12.917-7.73-32.638-25.981-23.746-36.922
		c6.926-8.522,22.511,5.867,28.931,17.823L980.901,601.9z"/>
	<path fill="#F8F4E3" d="M413.552,603.362l-8.664-3.388c-0.91-0.356-1.788-0.154-2.29,0.011c-5.261,1.74,9.618,5.231,9.553,7.518
		c-0.023,0.821-0.853,1.959-2.117,1.514l-9.067-3.191c-0.868-0.305-1.889-0.27-2.409,0.019c-3.929,2.182,4.817,3.012,8.092,6.969
		c-10.407,0.871-20.316-2.95-29.06-8.377l14.027-25.967c6.658,1.295,12.7,2.132,17.403,6.157c-3.054,1.35-5.05-0.22-6.979,1.255
		l12.852,7.224c1.246,0.701,2.426,3.207,0.997,3.5c-3.364,0.69-8.54-5.017-10.142-2.134c-0.483,0.87-0.189,1.957,1.211,2.543
		l7.77,3.254c0.877,0.367,0.978,0.881,1.069,1.357C415.959,602.486,415.214,604.012,413.552,603.362z"/>
	<path fill="#EE7A67" d="M353.369,600.861c-15.443-0.238-29.58-1.759-44.64-4.884c-1.047-12.558-0.454-24.528,2.445-37.45
		c4.646,12.406,11.976,22.832,22.51,30.762C339.922,594.138,346.521,597.34,353.369,600.861z"/>
	<path fill="#F8F4E3" d="M450.304,653.222c-2.147,7.447,1.391,10.813-0.997,13.493c-3.162,3.549-10.79,1.859-17.103-1.817
		l7.669-33.862c3.88-1.41,7.654-1.448,11.388-0.364c2.686,0.78,4.517,3.559,3.738,6.262L450.304,653.222z"/>
	<path fill="#F8F4E3" d="M539.994,440.963c-0.497,1.074,0.096,1.921,0.531,2.069c3.06,1.044,2.747-3.792,6.672-4.8
		c-0.753,4.812,1.435,5.719,3.836,7.979c0.79,0.743,0.419,3.561,1.319,3.99c1.271,0.605,2.912,0.661,5.534,1.011
		c-2.803,3.243-6.46,5.988-10.828,8.302l-19.495-26.84c7.264-7.972,27.915-26.451,31.585-24.141
		c3.788,2.385-4.897,11.384-10.903,17.282c-3.207-0.9-7.288-2.037-10.551-0.124c-0.995,0.584-1.265,1.858-0.75,2.62
		c0.794,1.175,9.742-2.999,11.141,1.422c1.007,3.18-3.872,2.103-4.379,3.201L539.994,440.963z"/>
	<path fill="#EDC973" d="M274.785,609.001l-16.2-8.287l4.675-13.732l16.173,8.103C278.813,600.013,276.937,603.611,274.785,609.001z
		"/>
	<path fill="#F8F4E3" d="M488.808,406.224c-1.285-11.249-2.898-21.544-6.854-31.989c7.572,0.678,12.849,6.145,14.486,12.123
		C498.482,393.813,496.256,401.545,488.808,406.224z"/>
	<polygon fill="#EDC973" points="257.461,638.797 241.289,630.197 249.212,618.414 265.722,626.967 	"/>
	
		<rect x="254.98" y="604.5" transform="matrix(0.4614 -0.8872 0.8872 0.4614 -403.4322 563.2816)" fill="#EDC973" width="14.474" height="18.836"/>
	<polygon fill="#EDC973" points="246.198,651.316 230.127,643.032 239.279,632.715 255.179,641.185 	"/>
	<polygon fill="#EDC973" points="280.524,591.944 264.253,584.201 267.059,570.844 283.103,579.051 	"/>
	<polygon fill="#EDC973" points="233.122,662.303 217.35,654.555 227.994,645.199 243.517,653.421 	"/>
	<path fill="#EDC973" d="M217.004,670.198c-5.236,0.361-10.185-4.442-15.248-6.48l12.381-7.284l15.514,7.812
		C225.663,666.21,221.744,669.871,217.004,670.198z"/>
	<path fill="#EDC973" d="M283.413,575.658l-15.578-7.768l0.945-12.073l15.296,7.265
		C284.495,567.291,284.539,570.729,283.413,575.658z"/>
	<path fill="#EDC973" d="M258.183,515.762c-0.037-0.004,0.096-1.342,1.071-0.449c0.049,0.17,0.231,0.4,0.385,0.468
		c10.746,3.372,17.003,13.544,20.757,25.655l-13.478-6.445c-1.658-6.924-4.44-12.896-7.922-18.47
		C258.837,516.42,258.562,516.255,258.183,515.762z"/>
	<path fill="#EDC973" d="M283.869,559.895l-14.831-7.277l-1.243-13.723l14.295,6.904C282.991,550.51,284.06,554.194,283.869,559.895
		z"/>
	<path fill="#EDC973" d="M211.86,672.256c-11.302,3.994-22.833,2.866-32.016-4.015c6.583-0.016,12.149-1.161,18.027-3.379
		L211.86,672.256z"/>
	<path fill="#F8F4E3" d="M259.193,660.607l-19.54,0.211c5.724-4.989,10.515-9.115,15.24-15.212
		C255.43,651.213,256.016,654.629,259.193,660.607z"/>
	<path fill="#F8F4E3" d="M551.742,442.693c-1.872,0.052-2.068-2.921-1.306-3.157c3.78-1.17,6.686-3.126,8.196-7.094
		c0.487-1.28,2.628-1.074,2.815,0.302C562.128,437.755,557.303,442.539,551.742,442.693z"/>
	<path fill="#F8F4E3" d="M547.339,435.861c6.824-4.2,3.045-7.401,4.613-9.5c0.741-0.992,2.793-2.49,3.945-1.267
		c1.976,2.099,0.925,5.595-0.489,7.715C554.03,434.873,551.722,437.857,547.339,435.861z"/>
	<path fill="#F8F4E3" d="M555.632,448.364c-1.788-0.033-1.528-2.425-0.988-2.632c3.46-1.328,5.726-3.312,8.742-6.37
		C565.877,444.22,560.71,448.458,555.632,448.364z"/>
	<path fill="#F8F4E3" d="M564.483,438.694c0.882-5.395-0.77-7.796-3.627-10.731c-1.594-1.637-1.887-5.146-4.138-6.656
		c5.146-5.599,8.452-11.826,4.536-15.021c-6.204-5.062-26.276,15.214-35.483,23.459l-15.183,9.888l-34.314,19.684
		c8.5-15.766,13.111-31.742,12.23-49.451c8.764-4.529,12.994-13.411,11.138-23.029c-1.583-8.204-8.999-15.097-18.713-15.726
		c-9.558-25.436-27.722-46.599-53.518-57.234l-0.102-127.771c-0.008-10.037,6.667-17.074,16.936-17.722l481.534,0.069
		c9.45,0.001,17.14,7.385,17.14,16.786l0.017,331.55c0,9.311-7.688,17.121-17.234,17.122l-452.315,0.08
		c-1.497-3.115-1.999-5.764-1.781-9.202c21.805-12.925,41.593-27.39,60.859-45.428l0.462,34.031l51.231-0.034l-0.024-74.154
		L564.483,438.694z M874.86,241.614c-2.039,3.761,1.062,7.607,4.846,7.938c3.301,0.289,6.634-1.961,6.663-5.983l0.151-20.638
		c0.025-3.4,3.842-5.271,6.853-5.154c2.624,0.102,4.949,2.078,7.098,5.719c2.702-3.285,5.118-5.436,8.111-5.754
		c4.17-0.443,5.672,2.629,10.193,5.229c1.318-19.225-13.868-33.857-32.285-35.241c0.062-1.779-0.305-2.701-0.509-3.255
		c-0.26-0.708-1.913-0.807-2.29-0.206c-0.298,0.476-0.576,1.657-0.413,3.501c-18.591,0.842-33.697,16.027-32.346,34.97
		c4.401-2.835,5.868-4.689,9.489-4.712c2.771-0.017,5.303,3.317,7.59,5.123c2.555-1.973,4.577-5.562,7.663-5.397
		c2.44,0.131,7.338,1.105,7.382,4.413l0.289,21.8c0.026,1.959-2.466,2.933-3.832,2.47
		C876.248,245.331,877.954,240.389,874.86,241.614z M788.564,207.905c0.332,0.157,1.546-0.23,1.895-0.638l-0.693-9.973
		c-4.252,0.436-8.62,1.263-11.611,4.401c3.266,1.876,5.241-0.3,8.07-1.01C788.434,202.47,786.182,206.776,788.564,207.905z
		 M754.55,252.262c12.839,8.075,28.323,4.114,35.989-7.318c7.693-11.473,5.388-26.893-6.003-35.635
		c-10.515-8.07-26.02-5.991-34.575,3.222c-9.017,9.711-9.724,24.305-1.176,34.645c0.944,1.142,2.355,2.044,2.15,3.305
		c-0.12,0.74-1.403,2.291-0.794,3.602C750.754,255.401,753.333,254.341,754.55,252.262z M743.04,269.646l3.376-5.975
		c0.476-0.842,0.054-1.863-0.347-2.17c-0.262-0.2-1.468-0.435-1.725-0.025l-3.645,5.833c-0.436,0.697-0.054,1.986,0.41,2.054
		L743.04,269.646z M832.008,268.227L832,513.516l51.268,0.002l0.008-245.289L832.008,268.227z M633.782,315.487l7.2,0.654
		c8.701,11.132,25.081,13.372,36.25,4.845c10.966-8.372,13.802-24.046,5.841-35.507c-7.94-11.429-23.483-14.903-35.427-7.377
		c-11.537,7.269-15.588,22.116-9.042,34.439l-4.895,0.479C633.138,313.076,633.183,314.645,633.782,315.487z M737.487,276.873
		c-0.374-0.575-1.524-0.927-2.025-0.796c-0.742,0.195-3.803,4.249-4.038,7.44C734.786,284.911,737.989,277.646,737.487,276.873z
		 M728.452,290.87c-0.405-0.396-1.532-0.679-2.008-0.64c-0.783,0.063-5.682,6.464-3.317,7.732
		C726.004,298.107,728.89,291.298,728.452,290.87z M718.499,304.983c-0.383-0.395-1.47-0.368-1.885,0.018
		c-0.316,0.294-0.561,0.658-1.036,1.802c-1.562,0.923-3.593,5.061-1.548,5.588C716.073,312.917,720.022,306.551,718.499,304.983z
		 M757.756,308.405l-0.033,205.134l51.258,0.008l0.033-205.134L757.756,308.405z M607.399,312.818
		c0.043-1.279-0.887-1.327-1.764-1.249c-1.647,0.146-6.101,4.812-5.263,6.345C601.718,320.379,607.339,314.609,607.399,312.818z
		 M616.471,311.775l-0.112,3.161l8.344,0.296l0.112-3.161L616.471,311.775z M692.675,318.243c-2.529-0.906-5.198-1-7.959-0.68
		c-0.616,3.723,6.926,3.911,8.122,2.851C693.156,320.132,693.115,318.401,692.675,318.243z M701.54,318.483l-0.183,3.328
		l8.302,0.458l0.183-3.328L701.54,318.483z M594.482,325.153c-1.027-2.679-7.719,4.248-5.726,6.048
		C590.311,332.605,595.517,327.853,594.482,325.153z M575.106,363.897c0-14.496-11.751-26.248-26.248-26.248
		s-26.248,11.751-26.248,26.248c0,14.496,11.751,26.248,26.248,26.248S575.106,378.394,575.106,363.897z M582.629,339.352
		c0.802-1.814-1.149-2.548-1.895-1.883l-1.847,1.646c-1.11,0.989-3.8,3.515-1.796,5.028
		C578.785,344.459,581.832,341.153,582.629,339.352z M683.331,355.471l-0.019,157.954l51.154,0.006l0.019-157.954L683.331,355.471z
		 M608.26,391.268v122.24h51.252v-122.24H608.26z"/>
	<path fill="#272723" d="M832.008,268.227l51.268,0.002l-0.008,245.289L832,513.516L832.008,268.227z M834.855,270.985
		l-0.085,239.527l45.485,0.016l0.085-239.527L834.855,270.985z"/>
	<path fill="#272723" d="M757.756,308.405l51.258,0.008l-0.033,205.134l-51.258-0.008L757.756,308.405z M760.705,311.326
		l-0.057,199.165l45.367,0.013l0.057-199.165L760.705,311.326z"/>
	<path fill="#272723" d="M683.331,355.471l51.154,0.006l-0.019,157.954l-51.154-0.006L683.331,355.471z M731.565,358.563
		l-45.48,0.006l0.021,152.001l45.48-0.006L731.565,358.563z"/>
	<path fill="#272723" d="M608.26,391.268h51.252v122.24H608.26V391.268z M656.571,394.029l-45.361,0.007l0.018,116.513l45.361-0.007
		L656.571,394.029z"/>
	<path fill="#272723" d="M874.86,241.614c3.094-1.224,1.388,3.717,4.654,4.823c1.366,0.462,3.858-0.512,3.832-2.47l-0.289-21.8
		c-0.044-3.308-4.941-4.283-7.382-4.413c-3.085-0.165-5.108,3.424-7.663,5.397c-2.287-1.806-4.818-5.14-7.59-5.123
		c-3.621,0.022-5.088,1.876-9.489,4.712c-1.351-18.943,13.755-34.128,32.346-34.97c-0.163-1.843,0.115-3.025,0.413-3.501
		c0.377-0.602,2.03-0.502,2.29,0.206c0.203,0.554,0.571,1.476,0.509,3.255c18.417,1.384,33.603,16.017,32.285,35.241
		c-4.52-2.6-6.023-5.672-10.193-5.229c-2.993,0.318-5.409,2.469-8.111,5.754c-2.15-3.641-4.475-5.617-7.098-5.719
		c-3.011-0.117-6.829,1.754-6.853,5.154l-0.151,20.638c-0.029,4.023-3.363,6.273-6.663,5.983
		C875.922,249.22,872.821,245.374,874.86,241.614z M884.922,218.18c5.104-4.585,11.299-3.792,15.75-0.135
		c4.314-3.584,9.267-4.12,14.669-2.013c-2.715-15.076-16.102-25.155-30.812-25.277c-14.558-0.12-27.604,10.257-30.415,25.457
		c4.922-1.736,9.758-1.478,13.887,2.041C873.159,213.91,879.578,214.228,884.922,218.18z"/>
	<path fill="#272723" d="M633.782,315.487c-0.599-0.842-0.644-2.411-0.074-2.467l4.895-0.479
		c-6.546-12.323-2.495-27.17,9.042-34.439c11.945-7.526,27.488-4.052,35.427,7.377c7.962,11.461,5.125,27.135-5.841,35.507
		c-11.168,8.527-27.549,6.287-36.25-4.845L633.782,315.487z M684.602,300.17c0-12.716-10.308-23.025-23.025-23.025
		c-12.716,0-23.025,10.308-23.025,23.025s10.308,23.025,23.025,23.025C674.293,323.195,684.602,312.886,684.602,300.17z"/>
	<path fill="#272723" d="M754.55,252.262c-1.217,2.079-3.797,3.139-4.409,1.821c-0.609-1.312,0.674-2.862,0.794-3.602
		c0.205-1.261-1.206-2.163-2.15-3.305c-8.548-10.34-7.841-24.933,1.176-34.645c8.555-9.213,24.059-11.292,34.575-3.222
		c11.391,8.742,13.697,24.162,6.003,35.635C782.873,256.376,767.39,260.337,754.55,252.262z M792.068,230.418
		c0-12.785-10.364-23.15-23.15-23.15c-12.785,0-23.15,10.364-23.15,23.15s10.364,23.15,23.15,23.15
		C781.704,253.567,792.068,243.203,792.068,230.418z"/>
	<path fill="#272723" d="M575.106,363.897c0,14.496-11.751,26.248-26.248,26.248s-26.248-11.751-26.248-26.248
		c0-14.496,11.751-26.248,26.248-26.248S575.106,349.401,575.106,363.897z M572.104,363.87c0-12.816-10.389-23.205-23.206-23.205
		s-23.206,10.389-23.206,23.205s10.389,23.206,23.206,23.206S572.104,376.686,572.104,363.87z"/>
	<path fill="#272723" d="M788.564,207.905c-2.382-1.129-0.13-5.435-2.34-7.22c-2.829,0.71-4.803,2.886-8.07,1.01
		c2.992-3.138,7.359-3.965,11.611-4.401l0.693,9.973C790.11,207.674,788.896,208.062,788.564,207.905z"/>
	<path fill="#272723" d="M743.04,269.646l-1.932-0.282c-0.464-0.068-0.846-1.357-0.41-2.054l3.645-5.833
		c0.256-0.41,1.463-0.176,1.725,0.025c0.401,0.307,0.823,1.328,0.347,2.17L743.04,269.646z"/>
	<path fill="#272723" d="M607.399,312.818c-0.06,1.791-5.68,7.561-7.027,5.095c-0.837-1.533,3.616-6.199,5.263-6.345
		C606.511,311.492,607.442,311.539,607.399,312.818z"/>
	<path fill="#272723" d="M594.482,325.153c1.035,2.701-4.171,7.452-5.726,6.048C586.763,329.4,593.455,322.473,594.482,325.153z"/>
	<path fill="#272723" d="M728.452,290.87c0.438,0.428-2.448,7.237-5.325,7.091c-2.365-1.268,2.534-7.669,3.317-7.732
		C726.92,290.191,728.047,290.474,728.452,290.87z"/>
	<path fill="#272723" d="M737.487,276.873c0.502,0.773-2.701,8.038-6.063,6.644c0.235-3.191,3.296-7.245,4.038-7.44
		C735.963,275.946,737.113,276.298,737.487,276.873z"/>
	
		<rect x="703.932" y="316.218" transform="matrix(0.055 -0.9985 0.9985 0.055 346.8792 1007.2748)" fill="#272723" width="3.334" height="8.315"/>
	<path fill="#272723" d="M692.675,318.243c0.44,0.158,0.481,1.889,0.163,2.171c-1.196,1.061-8.739,0.872-8.122-2.851
		C687.477,317.244,690.146,317.337,692.675,318.243z"/>
	<path fill="#272723" d="M718.499,304.983c1.523,1.568-2.426,7.934-4.468,7.408c-2.045-0.527-0.014-4.665,1.548-5.588
		c0.475-1.144,0.72-1.508,1.036-1.802C717.029,304.615,718.116,304.588,718.499,304.983z"/>
	<path fill="#272723" d="M582.629,339.352c-0.797,1.801-3.844,5.108-5.538,4.791c-2.004-1.513,0.686-4.039,1.796-5.028l1.847-1.646
		C581.48,336.804,583.431,337.537,582.629,339.352z"/>
	
		<rect x="619.005" y="309.328" transform="matrix(0.0354 -0.9994 0.9994 0.0354 285.3059 922.5997)" fill="#272723" width="3.163" height="8.349"/>
	<path fill="#272723" d="M385.379,435.356c-4.658-4.231-6.824-10.357-4.517-15.604c4.162-9.465,18.912-1.871,40.329-9.326
		c4.732-1.647,9.242,1.96,9.802,6.647c0.876,7.337-1.915,14.466-7.844,19.202C412.285,444.952,395.952,444.96,385.379,435.356z
		 M422.311,433.017c4.593-4.642,6.397-9.474,5.862-15.063c-0.045-2.707-3.125-5.865-5.989-4.758
		c-18.989,7.338-33.842,1.051-38.104,7.403c-1.502,2.239-1.687,5.009,0.037,7.435C396.556,420.427,411.208,422.541,422.311,433.017z
		 M419.66,435.111c-9.735-9.807-23.459-11.122-34.024-3.923C393.92,441.087,408.97,442.502,419.66,435.111z"/>
	<path fill="#EE7A67" d="M362.34,426.982c-8.004,7.93-23.028,6.064-24.526-1.618c-0.587-3.009,0.421-5.731,2.918-7.714
		c8.566-6.805,21.985-3.965,23.395,2.043C364.699,422.13,364.433,424.908,362.34,426.982z"/>
	<path fill="#EE7A67" d="M465.4,409.049c-7.698,8.002-21.51,6.264-23.766-0.217c-0.837-2.405-0.299-5.604,1.675-7.619
		c7.06-7.205,21.089-7.058,23.741,0.307C467.805,403.616,467.651,406.71,465.4,409.049z"/>
	<path fill="#272723" d="M445.08,386.656c-1.361-3.804-3.698-6.245-6.615-6.405c-3.807-0.209-6.705,2.637-6.901,6.751l-0.287,6.024
		c-4.995,1.015-4.111-12.531,2.903-15.202c4.762-1.813,9.887-0.117,12.471,4.497c1.235,2.206,2.618,4.785,1.862,7.183
		c-0.238,0.755-2.13,0.79-2.423-0.029L445.08,386.656z"/>
	<path fill="#272723" d="M372.361,403.865c-4.072-2.349-3.205-11.269-10.846-10.435c-7.335,0.8-4.556,9.645-7.23,13.943
		c-4.329-6.055-1.189-15.318,5.825-16.891c3.952-0.886,7.523,0.646,9.625,3.235C371.891,396.369,373.975,399.951,372.361,403.865z"
		/>
	<path fill="#272723" d="M410.475,404.004c-2.637,0.191-0.491-5.668-3.013-7.225c-3.278-2.024-6.21,6.031-7.929,2.408
		c-0.942-1.985,3.858-7.173,8.437-5.516C412.736,395.395,412.641,403.847,410.475,404.004z"/>
	<path fill="#272723" d="M297.231,430.885c-3.364,2.787-2.91-9.111-13.577-8.679c-1.197,0.048-1.087-1.049-1.114-1.527
		c-0.175-3.153,10.969-1.944,14.943,8.661C297.452,430.382,297.513,430.651,297.231,430.885z"/>
	<path fill="#272723" d="M189.517,651.77c-14.044,2.096-25.535-5.433-30.523-17.858c-3.806-9.479-4.798-19.421-3.699-30.076
		c2.798-27.149,15.955-52.089,36.263-70.135c8.071-7.172,17.007-12.377,27.357-14.593c13.937-2.984,26.892,3.689,32.371,16.662
		C268.548,576.643,231.894,645.445,189.517,651.77z M192.782,648.318c38.846-10.133,70.831-71.78,56.29-110.232
		c-4.273-11.299-14.95-18.142-27.166-16.431c-9.827,1.376-18.374,5.908-26.034,12.327c-20.169,16.903-33.391,40.536-37.363,66.627
		c-1.675,11-0.963,21.665,2.933,31.704C166.441,645.194,178.885,651.943,192.782,648.318z"/>
	
		<rect x="737.791" y="368.014" transform="matrix(3.546637e-04 -1 1 3.546637e-04 466.4941 1248.1722)" fill="#A8CAA6" width="239.527" height="45.485"/>
	
		<rect x="683.777" y="388.232" transform="matrix(2.885589e-04 -1 1 2.885589e-04 372.2182 1194.1555)" fill="#EE7A67" width="199.165" height="45.367"/>
	<rect x="686.095" y="358.566" fill="#A8CAA6" width="45.48" height="152.001"/>
	<rect x="611.219" y="394.032" fill="#EE7A67" width="45.361" height="116.513"/>
	<path fill="#EE7A67" d="M884.922,218.18c-5.344-3.952-11.763-4.27-16.919,0.073c-4.13-3.519-8.965-3.778-13.887-2.041
		c2.811-15.2,15.857-25.577,30.415-25.457c14.71,0.121,28.097,10.201,30.812,25.277c-5.402-2.107-10.355-1.571-14.669,2.013
		C896.221,214.388,890.026,213.596,884.922,218.18z"/>
	<path fill="#EDC973" d="M684.602,300.17c0,12.716-10.308,23.025-23.025,23.025c-12.716,0-23.025-10.308-23.025-23.025
		s10.308-23.025,23.025-23.025C674.293,277.146,684.602,287.454,684.602,300.17z M681.164,300.084
		c0-10.832-8.781-19.613-19.613-19.613c-10.832,0-19.613,8.781-19.613,19.613c0,10.832,8.781,19.613,19.613,19.613
		C672.383,319.696,681.164,310.915,681.164,300.084z"/>
	<path fill="#EDC973" d="M792.068,230.418c0,12.785-10.364,23.15-23.15,23.15c-12.785,0-23.15-10.364-23.15-23.15
		s10.364-23.15,23.15-23.15C781.704,207.268,792.068,217.633,792.068,230.418z M788.505,230.488c0-10.847-8.793-19.64-19.64-19.64
		c-10.847,0-19.64,8.793-19.64,19.64c0,10.847,8.793,19.64,19.64,19.64C779.712,250.128,788.505,241.335,788.505,230.488z"/>
	<path fill="#EDC973" d="M572.104,363.87c0,12.816-10.389,23.206-23.206,23.206s-23.206-10.389-23.206-23.206
		s10.389-23.205,23.206-23.205S572.104,351.053,572.104,363.87z M568.575,363.883c0-10.898-8.834-19.732-19.732-19.732
		c-10.898,0-19.732,8.834-19.732,19.732s8.834,19.732,19.732,19.732C559.741,383.615,568.575,374.781,568.575,363.883z"/>
	<path fill="#EE7A67" d="M422.311,433.017c-11.103-10.476-25.755-12.59-38.194-4.984c-1.724-2.426-1.539-5.196-0.037-7.435
		c4.262-6.352,19.115-0.065,38.104-7.403c2.865-1.107,5.944,2.052,5.989,4.758C428.707,423.543,426.903,428.375,422.311,433.017z"/>
	<path fill="#EE7A67" d="M419.66,435.111c-10.69,7.391-25.74,5.976-34.024-3.923C396.201,423.989,409.925,425.304,419.66,435.111z"
		/>
	<path fill="#EDC973" d="M192.782,648.318c-13.897,3.625-26.341-3.123-31.34-16.005c-3.896-10.039-4.608-20.704-2.933-31.704
		c3.973-26.091,17.194-49.724,37.363-66.627c7.659-6.419,16.206-10.951,26.034-12.327c12.216-1.711,22.893,5.133,27.166,16.431
		C263.613,576.538,231.628,638.184,192.782,648.318z M190.571,617.841c12.141,3.732,23.279-4.394,24.682-16.549
		c0.809-7.012-2.592-13.18-7.797-18.384l13.346-27.669c8.507,3.733,6.137,11.819,8.702,11.882
		c2.888,0.071,1.881-10.212-7.066-14.363l2.934-8.833c0.249-0.748-1.986-0.938-2.29-0.361l-1.245,2.359
		c-0.66,1.252-1.715,5.097-3.642,4.785c-9.123-1.474-16.737,2.879-20.275,10.721c-3.362,7.454-0.753,15.533,6.059,21.477
		l-14.785,30.996c-8.949-4.697-6.575-14.759-9.622-13.846c-2.653,0.795,0.08,11.686,8.205,16.707l-3.749,8.438
		c-0.379,0.853,0.803,1.963,1.904,1.536L190.571,617.841z"/>
	<path fill="#272723" d="M681.164,300.084c0,10.832-8.781,19.613-19.613,19.613c-10.832,0-19.613-8.781-19.613-19.613
		c0-10.832,8.781-19.613,19.613-19.613C672.383,280.471,681.164,289.252,681.164,300.084z M678.112,300.077
		c0-9.152-7.419-16.57-16.57-16.57s-16.57,7.419-16.57,16.57c0,9.152,7.419,16.57,16.57,16.57S678.112,309.228,678.112,300.077z"/>
	<path fill="#272723" d="M788.505,230.488c0,10.847-8.793,19.64-19.64,19.64c-10.847,0-19.64-8.793-19.64-19.64
		c0-10.847,8.793-19.64,19.64-19.64C779.712,210.848,788.505,219.641,788.505,230.488z M785.529,230.494
		c0-9.175-7.438-16.612-16.612-16.612s-16.612,7.438-16.612,16.612s7.438,16.612,16.612,16.612S785.529,239.669,785.529,230.494z"/>
	<path fill="#272723" d="M568.575,363.883c0,10.898-8.834,19.732-19.732,19.732c-10.898,0-19.732-8.834-19.732-19.732
		s8.834-19.732,19.732-19.732C559.741,344.151,568.575,352.986,568.575,363.883z M565.563,363.872
		c0-9.224-7.477-16.701-16.701-16.701c-9.224,0-16.701,7.477-16.701,16.701c0,9.224,7.477,16.701,16.701,16.701
		C558.086,380.573,565.563,373.095,565.563,363.872z"/>
	<path fill="#272723" d="M190.571,617.841l-4.639,8.896c-1.101,0.427-2.283-0.683-1.904-1.536l3.749-8.438
		c-8.125-5.021-10.858-15.912-8.205-16.707c3.047-0.913,0.673,9.149,9.622,13.846l14.785-30.996
		c-6.812-5.944-9.421-14.023-6.059-21.477c3.538-7.842,11.152-12.196,20.275-10.721c1.927,0.312,2.981-3.533,3.642-4.785
		l1.245-2.359c0.304-0.577,2.539-0.387,2.29,0.361l-2.934,8.833c8.948,4.151,9.955,14.434,7.066,14.363
		c-2.565-0.063-0.195-8.149-8.702-11.882l-13.346,27.669c5.205,5.205,8.607,11.372,7.797,18.384
		C213.85,613.447,202.712,621.572,190.571,617.841z M217.476,553.95c-8.676-1.783-14.231,3.024-16.727,8.438
		c-2.872,6.232-0.934,13.476,4.973,17.166L217.476,553.95z M192,615.088c8.801,2.366,15.683-2.351,18.66-8.253
		c3.668-7.273,1.667-15.484-4.787-20.643L192,615.088z"/>
	<path fill="#EDC973" d="M678.112,300.077c0,9.152-7.419,16.57-16.57,16.57s-16.57-7.419-16.57-16.57
		c0-9.152,7.419-16.57,16.57-16.57S678.112,290.925,678.112,300.077z M661.169,313.797c2.549,0.451,2.286-3.035,3.043-3.517
		c2.617-1.668,6.155-6.291,2.478-9.058c-2.491-1.875-4.659-5.373-2.755-8.13c0.291-0.421,2.168-0.141,2.581-0.004
		c2.882,0.957-6.167-9.914-5.898-5.976c0.224,3.285-5.173,3.822-4.873,8.384c0.154,2.339,1.825,4.188,4.633,5.089l0.105,6.86
		c-1.678-0.405-2.535-0.671-3.086-1.118c-1.047-0.851-2.342,0.996-1.494,1.516C658.545,309.461,660.361,311.147,661.169,313.797z"/>
	<path fill="#EDC973" d="M785.529,230.494c0,9.175-7.438,16.612-16.612,16.612s-16.612-7.438-16.612-16.612
		s7.438-16.612,16.612-16.612S785.529,221.32,785.529,230.494z M768.996,245.994c2.199-4.159,2.742-5.08,4.93-7.11
		c2.432-2.256,2.333-6.51-0.71-7.967c-2.451-1.173-2.987-3.257-2.72-5.536c0.228-1.944,1.727-2.737,4.519-3.064l-5.789-6.421
		l-2.265,3.834c-2.809,1.786-4.179,3.706-3.882,6.661c0.203,2.019,2.215,3.728,4.525,4.861l-0.133,6.955l-2.967-1.213
		c-1.229-0.503-2.177,1.196-1.433,1.693C766.152,240.747,767.682,241.562,768.996,245.994z"/>
	<path fill="#EDC973" d="M565.563,363.872c0,9.224-7.477,16.701-16.701,16.701c-9.224,0-16.701-7.477-16.701-16.701
		c0-9.224,7.477-16.701,16.701-16.701C558.086,347.17,565.563,354.648,565.563,363.872z M549.387,378.515
		c2.197-5.986,7.254-6.665,6.093-11.508c-0.885-3.688-7.795-5.092-3.951-10.774c0.511-0.011,2.333,1.016,2.872,0.593
		c1.307-1.027-0.486-2.288-1.191-3.051l-3.195-3.457c-1.437-1.555-2.372,2.047-3.07,2.813c-1.386,1.524-4.463,2.8-4.217,5.402
		c0.527,5.565,7.374,4.383,4.77,12.775l-2.94-1.132c-1.061-0.408-2.05,0.898-1.307,1.485
		C545.738,373.624,547.264,374.314,549.387,378.515z"/>
	<path fill="#EDC973" d="M192,615.088l13.873-28.896c6.454,5.159,8.455,13.37,4.787,20.643
		C207.682,612.736,200.801,617.453,192,615.088z"/>
	<path fill="#EDC973" d="M217.476,553.95l-11.753,25.605c-5.908-3.69-7.846-10.934-4.973-17.166
		C203.245,556.975,208.8,552.167,217.476,553.95z"/>
	<path fill="#272723" d="M661.169,313.797c-0.809-2.65-2.625-4.336-5.265-5.954c-0.849-0.52,0.446-2.366,1.494-1.516
		c0.551,0.447,1.408,0.712,3.086,1.118l-0.105-6.86c-2.808-0.901-4.48-2.75-4.633-5.089c-0.3-4.562,5.098-5.099,4.873-8.384
		c-0.269-3.938,8.78,6.933,5.898,5.976c-0.414-0.137-2.29-0.418-2.581,0.004c-1.904,2.757,0.264,6.255,2.755,8.13
		c3.677,2.767,0.139,7.39-2.478,9.058C663.456,310.762,663.719,314.248,661.169,313.797z"/>
	<path fill="#272723" d="M768.996,245.994c-1.314-4.432-2.844-5.247-5.923-7.307c-0.744-0.497,0.204-2.196,1.433-1.693l2.967,1.213
		l0.133-6.955c-2.31-1.133-4.322-2.843-4.525-4.861c-0.297-2.955,1.073-4.875,3.882-6.661l2.265-3.834l5.789,6.421
		c-2.793,0.327-4.291,1.12-4.519,3.064c-0.267,2.279,0.269,4.363,2.72,5.536c3.043,1.456,3.142,5.71,0.71,7.967
		C771.738,240.914,771.195,241.834,768.996,245.994z"/>
	<path fill="#272723" d="M549.387,378.515c-2.122-4.201-3.649-4.891-6.136-6.855c-0.743-0.587,0.246-1.893,1.307-1.485l2.94,1.132
		c2.605-8.392-4.243-7.209-4.77-12.775c-0.246-2.601,2.831-3.878,4.217-5.402c0.697-0.767,1.633-4.368,3.07-2.813l3.195,3.457
		c0.705,0.763,2.499,2.023,1.191,3.051c-0.539,0.423-2.361-0.604-2.872-0.593c-3.844,5.681,3.067,7.086,3.951,10.774
		C556.641,371.85,551.584,372.53,549.387,378.515z"/>
</g>
</svg>
