<svg xmlns="http://www.w3.org/2000/svg" viewBox="0 0 1024 1024"><path fill="#050403" d="M762.02,786.69l-139.84,0.01c-6.61,0-9.97-5.65-9.99-11.82l-0.36-149.95l0.56-305.68
		c0.02-12.51,0.45-23.6,2.51-35.39c3.77-21.59,20.99-28.97,42.09-30.07c23.45-1.21,46.41-1.06,69.91,0.13
		c19.37,0.98,35.72,4.42,40.97,23.28c2.73,9.8,3.23,19.25,3.24,30.06l0.11,288.7l-0.28,179.88
		C770.93,781.57,767.96,785.15,762.02,786.69z M751.51,767.07l-0.07-424.82l-0.73-49.06c-0.07-4.96-0.7-10.93-4.44-14.5
		c-3.35-3.2-8.91-4.05-13.71-4.44c-27.72-2.21-55.3-2.34-82.83,0.15c-8.81,0.8-14.35,6.52-15.73,14.78
		c-1.74,10.4-1.91,20.02-1.94,31.03l-0.55,226.78l0.24,220.34L751.51,767.07z"/><path fill="#050403" d="M589.78,778.31c-1.06,4.6-4.53,8.24-9.1,8.24l-136.6,0.27c-7.26,0.01-11.72-4.61-11.71-12.18
		l0.28-290.52c0.01-11.38,0.34-21.53,2.29-32.24c4.4-24.22,24.13-29.73,47.09-30.6c22.6-0.86,44.64-0.92,67.12,0.48
		c6.58,0.41,12.76,1.46,18.86,3.34c19.72,6.11,21.8,28.55,21.83,49.04l0.24,161.84L589.78,778.31z M570.43,767.17l-0.11-257.95
		l-0.88-48.27c-0.09-4.68-0.81-10-3.68-13.78c-2.52-3.32-7.61-4.8-12.06-5.16c-27.8-2.29-55.63-2.51-83.28,0
		c-9.16,0.83-15.07,6.69-16.36,15.17c-1.61,10.53-1.79,20.13-1.8,31.12l-0.31,279.14L570.43,767.17z"/><path fill="#050403" d="M400.35,786.66l-137.23,0.06c-5.83,0-9.67-3.53-10.67-9.27l0.07-192.29c0-9.71,0.66-18.2,2.44-27.31
		c4.3-22,22.84-28.01,44.14-28.99c21.78-1,43.05-0.99,64.86,0.25c20.08,1.14,38.16,3.94,43.38,24.57c2.12,8.4,2.75,16.36,2.75,25.51
		L410,776.85C410,782.08,406.08,786.66,400.35,786.66z M390.77,767.36l-0.3-180.17l-1.37-25.06c-0.38-7.03-5.48-10.94-12.57-11.87
		c-19.05-2.51-38.07-2.38-57.5-2.13c-10.56,0.14-20.63,0.27-30.9,1.76c-8.22,1.2-13.32,6.83-14.49,15.08
		c-1.84,13.03-1.73,25.55-1.75,39.19l-0.14,163.17L390.77,767.36z"/><path fill="#050403" d="M551.12,386.44c-0.09,6.99-4.31,10.49-10.62,11c-19.77,1.59-39.38,1.04-59.12,1.07
		c-6.78,0.01-11.15-3.18-11.73-10.37c-1.24-15.33-0.54-30.54-0.48-46.4l-16.06-1.96c-4.14-0.5-7.82-2.86-9.38-6.12
		c-1.59-3.32-1.6-7.99,0.4-11.82c12.25-23.41,36.62-52.83,59.54-66.14c4.27-2.48,9.11-2.1,13.36,0.25
		c20.1,11.09,42.47,37.92,55.23,57.67c2.69,4.16,4.84,8.71,5.29,13.35c0.77,7.85-4.42,13.4-12,13.48l-13.88,0.15L551.12,386.44z
		 M488.59,364.65l0.29,14.42l42.55-0.53l0.15-15.31l0.73-32.02c0.12-5.1,3.62-9.75,8.74-10.13l11.86-0.88
		c-12.26-17.78-25.55-33.57-42.76-45.99c-17.43,11.86-31.02,29.43-42.6,46.59l11.54,0.92c5.99,0.48,9.39,5.36,9.41,11.25
		L488.59,364.65z"/><path fill="#F4D377" d="M751.51,767.07l-119.76,0.28l-0.24-220.34l0.55-226.78c0.03-11.01,0.21-20.63,1.94-31.03
		c1.38-8.26,6.91-13.98,15.73-14.78c27.53-2.49,55.11-2.36,82.83-0.15c4.79,0.38,10.35,1.23,13.71,4.44
		c3.74,3.57,4.37,9.54,4.44,14.5l0.73,49.06L751.51,767.07z"/><path fill="#A2CAA0" d="M570.43,767.17l-118.48,0.27l0.31-279.14c0.01-10.99,0.19-20.59,1.8-31.12
		c1.29-8.48,7.2-14.34,16.36-15.17c27.64-2.5,55.47-2.29,83.28,0c4.45,0.37,9.54,1.84,12.06,5.16c2.87,3.78,3.6,9.1,3.68,13.78
		l0.88,48.27L570.43,767.17z"/><path fill="#F06D5A" d="M390.77,767.36l-119.01-0.03l0.14-163.17c0.01-13.64-0.09-26.16,1.75-39.19
		c1.16-8.24,6.27-13.88,14.49-15.08c10.27-1.5,20.34-1.63,30.9-1.76c19.43-0.25,38.45-0.38,57.5,2.13
		c7.08,0.93,12.18,4.84,12.57,11.87l1.37,25.06L390.77,767.36z"/><path fill="#FAF1DA" d="M531.58,363.23c-8.08-3.79-14-10.12-20.57-16.66l-15.2,13.24c-2.34,2.04-4.27,4.35-7.21,4.84
		l-0.11-31.67c-0.02-5.88-3.41-10.77-9.41-11.25l-11.54-0.92c11.58-17.17,25.17-34.73,42.6-46.59
		c17.21,12.42,30.5,28.21,42.76,45.99l-11.86,0.88c-5.12,0.38-8.62,5.02-8.74,10.13L531.58,363.23z"/><path fill="#A2CAA0" d="M531.58,363.23l-0.15,15.31l-42.55,0.53l-0.29-14.42c2.94-0.48,4.87-2.8,7.21-4.84l15.2-13.24
		C517.58,353.11,523.5,359.44,531.58,363.23z"/></svg>