<svg xmlns="http://www.w3.org/2000/svg" viewBox="0 0 1024 1024"><path fill="#FCFCFC" d="M335.41,906.19c-1.17,1.16-2.17-0.16-2.41-1.19l-7.72-4.28l-15.45-9.52l-6.14-5.76
		c-0.02-1.09-0.42-2.41-1.4-3.7c-15.36-20.24-12.91-44.81-6.05-68.73c-1.31-7.71-2.61-15.12-2.21-22.76
		c-2.33-4.45-0.46-8.88-0.28-13.3c0.64-16.35,3.53-31.71,10.93-46.7c2.31-4.68,7.49-8.46,8.12-14.31l1.07-10.07l0.22-7.84
		c0.11-3.77,1.76-8.07,0.75-12.06c-3.96-15.59-8.42-30.67-9.66-46.95c-1.37-18.04-0.51-38.32,5.98-54.87
		c1.33-3.38,0.35-6.01,0.14-9.23l-0.98-14.8c-0.32-4.82,1-9.16,0.81-14.26c-0.13-3.32,2.12-7,0.46-10.58
		c-3.28-7.07-7.56-14.37-8.31-22.32c-0.47-4.94-1.9-7.57-5.69-10.58c-17.9-14.2-23.42-30.4-25.12-53.02
		c-1.51-20.17,0.57-40.4,7.43-59.47c2.51-6.98,7.94-12.37,10.13-17.87l2.09-0.8c0.99-0.38,1.43-1.46,2.11-2.17
		c0.85-0.89,1.38-1.75,1.94-2.83c2.5-0.44,4.13-2.51,6.01-4.13l0.95-0.82c2.34-2.02,1.64-5.04,2.06-8.22
		c0.5-3.85,2.3-8.25-0.76-11.5c-1.9-2.02-4.37-3.52-5.19-6.06c-0.41-0.09-0.97-0.17-1.3-0.42c-11.98-18.7-11.51-36.8-7.94-58.78
		c-5.44-15.25-7.98-30.95-6.59-46.85c1.38-15.8,3.78-30.99,10.88-45.15c2.86-5.7,4.02-11.93,7.96-17.12
		c1.2-1.58,2.23-2.75,1.53-4.65c3.65-1.26,4.07-5.46,5.87-5.66c1.49-0.17,3.07-0.45,4.35-1.86c3.71-4.09,8.75-5.96,13.25-8.86
		c18.55-11.98,56.75-21.54,80.17-24.67l32.55-4.35l21.98-2.01c3.93-0.36,7.41-0.68,11.17-0.81l21.44-0.74l47.12-0.1l17.41,0.78
		l16.96,1l12.03,1c3.22,0.27,6.66,0.52,9.93,0.98l17.46,2.46c32.73,4.61,83.26,16.08,99.94,44.77c3.67,6.32,4.79,12.79,6.78,19.52
		c5.5,18.59,10.09,41.28,6.82,59.93c-0.74,4.23-0.09,8.1,1.87,11.29c18.39,29.91,5.52,58.06,7.33,64.59
		c3.99,14.47,5.51,31.31,4.02,46.3l-0.99,9.97c-1.65,16.6-10.26,29.89-23.53,39.75c-2.95,2.19-1.32,8.11-1.65,10.94
		c-0.73,6.21,0.5,10.55,4.67,14.64c14.87,14.62,19.2,33.67,18.39,54.69l-1.94,15.84l3.56,20.37l0.15,28.72
		c0.01,2.88-2.19,6.68-0.54,9.67c8.12,14.69,12.03,30.54,12.99,47.34c0.34,5.98,1.04,11.25,0.21,17.29
		c-1.25,9.01-1.43,17.93-4.44,26.92c7.46,30.77,10.14,73.35-14.98,95l-0.17,29.91c-0.03,5.65-3.51,13.02-1.67,18.64
		c13.21,24.03,12.38,61.9-6.67,79.59c-9.78,9.09-20.73,15.45-32.96,20.27c-14.5,5.72-29.02,10.01-44.43,12.49l-29.18,4.7l-28.99,3
		l-12.04,0.88l-13.97,1l-23.59,0.71l-52.91,0l-23.59-0.71l-13.96-1l-13.03-0.96l-10.98-0.96l-25.83-3.09
		C377.74,919.03,355.81,913.37,335.41,906.19z M606.58,901.2c31.14-3.27,70.43-10.15,95.08-26.44c11.62-7.68,17.3-19.88,16.72-33.78
		c-0.52-12.5-4.74-24.02-15.21-32.01c11.17-17.27,9.28-42.06,4.29-61.74l13.14-9.66c15.47-15.93,12.93-55.3,2.39-76.28
		c10.26-17.25,9.08-44.5,3.9-63.1c-2.52-9.06-6.69-16.43-13.45-22.91c8.96-19.38,5.72-45.8-2.18-65.07
		c6.5-13.24,6.77-28.73,0.01-41.47c-4.5-8.49-12.09-14.07-20.7-19.12c3.64-14.77,3.89-29.6-0.09-44.88l10.91-6.32
		c7.91-4.58,13.79-11.67,15.97-20.95c4.98-21.22,3.1-43.4-6.01-63c11.59-17.8,7.01-43.8-10.03-56.46
		c8.95-19.96,6.03-48.11-2.74-67.91c0.06-7.63-3.31-13.97-8.5-19.27c-9.05-8.31-19.7-13.55-31.54-17.45
		c-45.2-14.92-103.35-17.69-151.58-17.11c-36.85,0.44-72.45,3.22-108.5,10.21c-24.4,4.74-69.02,16.72-78.66,38.05l-5.71,12.63
		c-9.42,20.83-12.86,57.9,2.25,75.98c-6.55,13.81-7.8,29.34-1.94,43.41c4.06,7.54,10.52,12.24,18.51,16.4
		c-5.06,14.17-6.56,28.15-5.52,42.68c-14,4.18-23.11,14.25-27.36,27.54c-5.93,18.56-6.52,38.31-2.77,57.54
		c3.13,16.05,13.99,23.44,28.26,30.05l-0.08,11.98c-0.07,10.17,5.05,18.9,13.58,25.17c-6.91,18.73-7.38,38.07-2.05,56.32
		c-13.06,21.1-12.03,53.31-3.98,75.92c1.23,9.43,3.48,18.07,6.84,26.81c-3.95,13.52-4.92,27.04-2.44,41.09
		c-7.16,4.9-12.01,11.34-14.93,19.51c-6.97,19.52-8.88,49.25,0.03,68.73c-6.91,10.04-9.42,21.6-8.46,33.73
		c0.87,10.93,6.2,19.67,15.21,25.82c22.85,15.6,62.86,22.48,91.75,25.46C482.77,907.65,544.18,907.76,606.58,901.2z"/><path fill="#E0E0E1" d="M335.41,906.19c20.4,7.18,42.33,12.84,64.75,15.53l25.83,3.09l10.98,0.96l13.03,0.96l13.96,1
		l23.59,0.71l52.91,0l23.59-0.71l13.97-1l12.04-0.88l28.99-3l29.18-4.7c15.41-2.48,29.93-6.77,44.43-12.49
		c12.23-4.82,23.17-11.18,32.96-20.27c19.05-17.69,19.88-55.56,6.67-79.59c-1.84-5.62,1.64-12.99,1.67-18.64l0.17-29.91
		c25.12-21.66,22.43-64.23,14.98-95c3.01-8.99,3.19-17.91,4.44-26.92c0.84-6.04,0.14-11.32-0.21-17.29
		c-0.96-16.8-4.87-32.65-12.99-47.34c-1.65-2.99,0.55-6.79,0.54-9.67l-0.15-28.72l-3.56-20.37l1.94-15.84
		c0.8-21.02-3.52-40.07-18.39-54.69c-4.16-4.09-5.4-8.43-4.67-14.64c0.34-2.84-1.29-8.76,1.65-10.94
		c13.27-9.86,21.89-23.15,23.53-39.75l0.99-9.97c1.49-14.99-0.03-31.83-4.02-46.3c-1.8-6.54,11.06-34.68-7.33-64.59
		c-1.96-3.19-2.61-7.06-1.87-11.29c3.27-18.65-1.32-41.35-6.82-59.93c-1.99-6.73-3.11-13.2-6.78-19.52
		c-16.68-28.69-67.21-40.15-99.94-44.77l-17.46-2.46c-3.27-0.46-6.71-0.72-9.93-0.98l-12.03-1l-16.96-1l-17.41-0.78l-47.12,0.1
		l-21.44,0.74c-3.76,0.13-7.25,0.45-11.17,0.81l-21.98,2.01l-32.55,4.35c-23.41,3.13-61.61,12.69-80.17,24.67
		c-4.49,2.9-9.54,4.77-13.25,8.86c-1.28,1.41-2.86,1.7-4.35,1.86c4.21-3.2,9.33-7.32,13.99-10.27
		c31.53-19.88,87.76-29.46,125.61-32.19l15.7-1.13l11.19-1.08l79.87,0l15.13,1.04c28.13,1.94,54.71,5.31,82.18,12.43
		c22.89,5.93,47.36,16.65,61.65,35.32c4.46,5.83,6.14,12.17,7.97,19.25c3.23,12.47,7.67,24.55,7.89,37.73
		c0.07,4.01,1,8.21,0.8,11.97l-0.85,15.88c-0.32,6.04,1.5,8.75,4.01,13.33c8.15,14.89,9.66,32.49,6.27,48.94
		c-1.2,5.84-1.75,11.13,0.03,16.88c2.31,7.46,2.38,15.19,3.43,22.7c0.76,5.46,0.34,10.08-0.09,15.47
		c-1.87,23.44-5.75,39.23-26.3,53.21l0.05,21.43c13.63,10.22,19.99,25.42,22.33,41.92c1.48,10.42-0.27,19.88-1.28,30.42l3.55,23.03
		l-0.26,27.55c-1.41,8.31,0.61,13.48,4.22,20.63c10.39,20.59,10.65,58.17,4.04,81.58c7.09,24.24,8.47,63.57-4.98,82.7l-9.96,11.22
		c-2.02,2.27-0.45,6-0.21,8.56c1.26,13.43,0.16,26.27-2.44,39.16l4.44,9.98c6.44,14.46,6.91,30.99,3.45,46.29
		c-3.99,17.61-18.67,31.3-34.32,40.07c-26.38,14.79-74.76,23.34-106,25.72l-15.67,1.19l-12.06,1l-16.52,0.68l-28.94,0.94
		c-10.27,0.33-20.82,0.36-31.08,0l-25.96-0.93l-16.52-0.68l-12.01-1.06l-11.04-0.84l-38.19-4.71
		C373.14,919.77,352.93,913.49,335.41,906.19z"/><path fill="#E0E0E1" d="M303.69,885.44l-4.45-5.7c-6.55-8.4-8.54-18.74-9.91-29.14c-1.62-12.25,1.9-23.64,4.53-35.54
		c1.25-5.65-1.64-11.78-1.62-17.3l0.1-27.53c3.18-37.99,19.04-49.09,19.26-54.66l0.72-18.31c0.19-4.9,1.74-8.98,0.28-13.99
		c-4.26-14.63-7.73-29.19-9.21-44.56l0.04-27.28c0.01-8.33,2.01-16.41,4.89-24.16c1.92-5.17,1.08-9.15,1.03-14.41l-0.23-23.01
		c-0.05-4.69,2.56-10.93,0.41-15.85c-3.87-8.84-8.08-18.03-9.35-28.05c-10.43-8.44-16.69-15-22.49-26.78
		c-6.31-12.8-8.62-36.61-7.14-51.34c2.11-21.14,4.6-40.28,19.46-55.85c-2.19,5.49-7.62,10.88-10.13,17.87
		c-6.86,19.07-8.94,39.31-7.43,59.47c1.7,22.62,7.22,38.82,25.12,53.02c3.79,3.01,5.23,5.64,5.69,10.58
		c0.75,7.95,5.03,15.25,8.31,22.32c1.66,3.58-0.59,7.25-0.46,10.58c0.19,5.1-1.13,9.43-0.81,14.26l0.98,14.8
		c0.21,3.22,1.19,5.85-0.14,9.23c-6.49,16.55-7.35,36.83-5.98,54.87c1.24,16.28,5.69,31.36,9.66,46.95
		c1.01,3.99-0.64,8.29-0.75,12.06l-0.22,7.84l-1.07,10.07c-0.62,5.86-5.8,9.63-8.12,14.31c-7.41,14.99-10.3,30.35-10.93,46.7
		c-0.17,4.43-2.05,8.85,0.28,13.3c-0.4,7.64,0.9,15.04,2.21,22.76c-6.87,23.92-9.32,48.49,6.05,68.73
		C303.27,883.03,303.67,884.35,303.69,885.44z"/><path fill="#E0E0E1" d="M297.92,335.07c-2.71-2.06-4.49-5.35-6.22-8.99c-6.07-12.79-6.96-27.76-4.5-41.92
		c0.73-4.19,1.35-8.01-0.3-11.99c-4.45-10.74-4.79-21.68-5.07-33.15c-0.51-21.28,3.48-41.22,13.03-60.12
		c2.13-4.21,2.54-9.31,6.53-12.59c0.94-0.77,1.35-3.43,2.37-3.78c0.7,1.89-0.33,3.06-1.53,4.65c-3.94,5.19-5.1,11.42-7.96,17.12
		c-7.11,14.15-9.5,29.35-10.88,45.15c-1.39,15.89,1.15,31.6,6.59,46.85C286.41,298.26,285.94,316.37,297.92,335.07z"/><path fill="#E0E0E1" d="M303.11,361.26c-0.26-5.73,2.44-13.71,0.23-18.8c-1.01-2.33-5.11-3.88-4.12-6.98
		c0.82,2.54,3.29,4.05,5.19,6.06c3.06,3.25,1.26,7.65,0.76,11.5C304.75,356.22,305.45,359.24,303.11,361.26z"/><path fill="#E0E0E1" d="M333,905c-8.6-2.75-16.61-7.64-23.17-13.8l15.45,9.52L333,905z"/><path fill="#E0E0E1" d="M302.15,362.09c-1.88,1.62-3.51,3.69-6.01,4.13C297.33,363.92,299.56,362.01,302.15,362.09z"/><path fill="#E0E0E1" d="M294.21,369.04c-0.68,0.71-1.13,1.79-2.11,2.17c-0.3-0.67-0.17-1.76,0.47-2.1
		C293.03,368.86,293.78,368.9,294.21,369.04z"/><path fill="#1E1D1B" d="M606.58,901.2c-62.4,6.55-123.81,6.44-185.55,0.08c-28.89-2.98-68.9-9.86-91.75-25.46
		c-9-6.15-14.34-14.88-15.21-25.82c-0.96-12.13,1.55-23.69,8.46-33.73c-8.91-19.47-7-49.21-0.03-68.73
		c2.92-8.18,7.77-14.61,14.93-19.51c-2.48-14.05-1.51-27.57,2.44-41.09c-3.36-8.74-5.6-17.39-6.84-26.81
		c-8.04-22.61-9.08-54.82,3.98-75.92c-5.33-18.25-4.86-37.59,2.05-56.32c-8.54-6.27-13.65-15-13.58-25.17l0.08-11.98
		c-14.27-6.61-25.13-14-28.26-30.05c-3.75-19.23-3.17-38.98,2.77-57.54c4.25-13.29,13.36-23.36,27.36-27.54
		c-1.04-14.53,0.45-28.51,5.52-42.68c-8-4.16-14.46-8.85-18.51-16.4c-5.87-14.08-4.61-29.61,1.94-43.41
		c-15.11-18.08-11.67-55.15-2.25-75.98l5.71-12.63c9.64-21.34,54.26-33.32,78.66-38.05c36.06-7,71.65-9.78,108.5-10.21
		c48.23-0.57,106.38,2.2,151.58,17.11c11.84,3.91,22.49,9.14,31.54,17.45c5.2,5.3,8.56,11.65,8.5,19.27
		c8.77,19.8,11.69,47.95,2.74,67.91c17.03,12.67,21.62,38.67,10.03,56.46c9.11,19.6,10.99,41.78,6.01,63
		c-2.18,9.27-8.06,16.36-15.97,20.95l-10.91,6.32c3.97,15.29,3.72,30.11,0.09,44.88c8.61,5.05,16.2,10.63,20.7,19.12
		c6.76,12.75,6.48,28.24-0.01,41.47c7.9,19.27,11.14,45.7,2.18,65.07c6.76,6.48,10.93,13.86,13.45,22.91
		c5.18,18.6,6.35,45.85-3.9,63.1c10.54,20.98,13.08,60.35-2.39,76.28l-13.14,9.66c4.99,19.68,6.88,44.47-4.29,61.74
		c10.47,7.98,14.69,19.51,15.21,32.01c0.58,13.9-5.1,26.1-16.72,33.78C677.01,891.06,637.73,897.93,606.58,901.2z M652.26,214.33
		c12.76-4.48,34.06-14.45,32.46-26.17c-1.6-11.71-26.67-20.96-40.36-24.62c-63.06-16.84-147.04-16.42-212.03-8.27
		c-23.23,2.91-45.26,7.43-67.15,14.79c-13.49,4.54-35.3,14.36-34.18,26.29c1.05,11.2,22.94,19.94,36.13,23.66
		c19.48,5.49,38.64,8.65,59.1,10.85C493.63,238.11,588.66,236.68,652.26,214.33z M367.06,281.06c68.34,15.6,153.8,13.19,223.72,4.8
		c28.35-3.4,64.35-10.58,88.24-24.74c7.41-4.17,11.81-10.89,12.87-19.35c1.4-11.19,1.1-22.19-1.57-33.38
		c-8.82,8.14-18.1,13.19-28.71,17.26c-21.56,8.27-43.36,13.11-66.43,16.53c-47.7,6.81-94.9,7.78-143.1,4.91
		c-28.26-1.68-55.04-5.07-82.24-11.92c-16.67-4.6-34.23-10.22-46.41-23.25c-3.86,14.18-4.38,28.99-0.91,43.43
		C325.87,269.24,351.65,277.54,367.06,281.06z M427.22,340.83c60.02,5.35,119.73,4.52,179.52-2.94
		c27.29-3.41,63.74-10.22,85.84-24.17c7.23-4.57,10.95-11.13,11.05-19.75c0.11-9.76-2.97-19.5-11.34-24.93l-9.16,6.09
		c-12.25,6.47-24.8,11.17-38.36,14.61c-20.24,5.14-39.93,8.58-60.82,10.91c-59.02,6.57-121.7,8.01-180.48,0.89
		c-25.39-3.08-52.73-8.06-75.25-19.99c-3.94,8.4-4.5,17.01-2.26,25.4C332.08,329.83,401.1,338.5,427.22,340.83z M472.08,418.2
		c43.4,1.24,85.84-1.01,128.88-6.05c29.8-3.49,67.95-10.34,92.6-25.47c5.26-3.23,9.26-7.51,10.53-13.68
		c3.28-15.88,2.45-32.42-3.59-47.62c-11.24,7.15-22.15,11.39-34.22,14.9c-25.44,7.4-50.71,10.82-77.34,13.91
		c-58.32,5.19-116.24,5.46-174.39-0.7c-23.64-2.5-45.98-6.61-68.94-14.39c-5.17,13.58-5.43,28.01-2.84,41.95
		c1.42,7.64,6.14,12.75,13,16.33C385.6,412.92,436.79,417.19,472.08,418.2z M581.57,459.01l19.18-25.22
		c2.68-3.52,6.04-6.09,9.35-8.63c-69.09,7.94-152.11,12.05-219.62-1.6c-21.23-4.29-54.22-13.55-59.5-34.58
		c-7.88,2.52-13.52,7.92-16.4,15.78c-6.44,17.63-7.29,36.95-2.81,55.2c1.28,5.21,4.13,9.1,8.42,11.84
		c30.07,19.17,83.91,22,120.29,23.06c5.59-10.91,12.97-19.57,22.3-27.15C497.48,439.54,541.79,441.63,581.57,459.01z M677.74,409.93
		c-17.31,5.86-34.22,9.78-52.55,12.8c11.36,5.5,21.14,12.07,28.79,21.2c5.7,6.8,4.89,15.21,0.58,23.35
		C680.75,457.7,681.83,435.89,677.74,409.93z M391.79,789.76l22.05-29.95c1.98-2.69,5.58-4.21,9-2.57
		c42.29,20.31,91.69,24.17,125.11-12.33c42.48-46.4,15.37-90.21-15.05-134.72c-2.46-3.6-1.11-7.79,1.38-11l46.62-60.17
		c1.65-2.14,3.18-3.64,5.63-3.67c1.93-0.02,3.78,1.08,5.25,2.93c10.67,13.39,16.23,29.23,19.47,46.45
		c13.96,0.66,27.06-1.35,41.14-3.93c-2.53-29.33-14.72-56.12-33.89-78.24c-2.69-3.16-2.72-7.09-0.23-10.4l23.97-31.9
		c1.72-2.28,2.36-5.7,0.46-7.96c-4.99-5.93-11.24-10.39-17.91-14.12c-4.46-2.49-8.77-1.06-11.81,2.9l-24.25,31.58
		c-2.14,2.78-5.63,2.44-8.53,1.03c-18.78-9.17-39.03-14.62-60.14-13.5c-22.15,1.18-42.5,10.47-57.05,26.59
		c-16.78,18.6-22.84,42.76-15.55,66.62c3.55,11.62,8.03,22.33,14.47,32.6l14.25,22.74c2.25,3.59,2.21,7.63-0.44,11.12l-56.82,74.84
		c-1.4,1.84-3.64,2.84-5.27,2.78c-1.64-0.07-3.28-1.16-4.57-2.74c-15.01-18.51-22.2-41.32-22.31-65.31
		c-13.86-0.78-27.03-0.83-40.65,1.61c-2.15,23.41,3.05,45.67,13.7,66c6.04,12.63,13.68,23.75,23.25,33.75
		c3.13,3.27,3.12,7.31,0.51,10.8l-20.89,27.96c-3.23,4.33-2.47,9.81,1.48,13.27C374.35,791.76,384.61,799.52,391.79,789.76z
		 M650.99,525.45c13.05-3.51,24.19-6.76,35.01-12.37c5.42-3.05,10.39-6.06,13.85-11.43c5.71-16.94,1.06-32.18-15.6-39.53
		c-10.49,13.62-28.4,20.91-44.07,25.99c-3.15,2.78-5.64,6.04-7.7,9.77C639.94,506.62,645.52,515.41,650.99,525.45z M430.43,538.25
		c-0.41-11.27,0.89-19.79,3.79-29.44c-20.46-0.82-39.87-2.37-59.77-5.23c-11.87-1.77-22.86-4.04-34.9-7.86
		c-3.79,22.68,21.85,29.14,42.85,35.03C398.2,534.47,413.68,536.81,430.43,538.25z M662.98,590.79c11.35-2.9,20.78-7.24,29.68-13.08
		c5.56-3.32,9.03-8.22,10.64-14.57c2.54-14.11,1.95-28.57-3.19-42.43c-13.36,8.81-27.72,13.58-43.24,17.63
		c5.1,13.7,8.53,27.81,9.12,42.63C666.15,584.92,664.89,588.05,662.98,590.79z M460.33,610.1l-12.59-20.83
		c-6.99-11.56-11.84-23.59-14.92-36.84c-28.04-2.71-56.02-6.89-81.7-17.36c-4.51,14.24-4.76,27.96-1.8,41.5
		c1.25,5.72,4.64,9.68,9.49,12.69C383.8,604.74,429.07,608.64,460.33,610.1z M623.39,598.59l-12.42-0.31
		c-7.66-0.19-12.27-5.53-13.7-12.66c-2.1-10.48-4.75-20.52-10.42-30.54l-39.47,50.26c-0.55,0.7,0.22,3.35,1.39,3.29
		c28.79-1.49,57.24-4.5,85.36-9.99C630.54,597.03,627.15,598.68,623.39,598.59z M583.27,684.22c36.16-2.09,90.47-6.22,120.28-24.54
		c6.31-3.88,10.53-9.23,11.69-16.61c2.8-17.81,2.03-44.78-11.03-56.36c-8.94,6.76-18.24,11.35-28.55,14.96
		c-37.97,13.3-77.33,16.87-117.71,20.71c7.37,11.94,13.21,22.58,18.15,34.49C579.74,665.64,582.21,674.23,583.27,684.22z
		 M384.87,614.69c-14.72-5-27.55-8.39-38.9-17.79c-3.04,7.41-4.05,13.49-4.58,21.28C355.77,614,370.49,615.78,384.87,614.69z
		 M414.34,677.24l40.72-53.44c-21.8-1.14-40.77-3.58-61.42-7.23c4.79,3.43,6.57,7.73,6.59,13.34
		C401.64,646.29,404.17,662.77,414.34,677.24z M707.11,730.19c4.92-3.49,7.93-8.47,8.86-14.41c2.34-14.82,1.5-29.67-4.06-44.39
		c-6.84,4.18-13.38,7.22-20.65,9.89c-34.11,11.72-70.83,14.55-107.47,16.98c-1.86,25.6-14.74,47.63-34.49,65
		C595.09,760.55,672.45,754.77,707.11,730.19z M364.97,742.52c2.56-2.14,3.44-3.34,4.49-5.75c-7.6-8.82-13.63-18.01-19.34-28.04
		C349.26,724.55,350.88,735.71,364.97,742.52z M523.33,778.48c-30.43,13.54-66.78,7.63-97.35-4.56c-1.35-0.54-4.19-1.38-5.09-0.16
		l-19.58,26.42c-7.47,8.45-18.26,10.94-28.36,5.74c-16.01-8.24-31.91-21.99-24.27-39.23l7.99-12.82
		c-5.23-3.81-9.75-7.17-13.56-12.43c-4.5,3.73-6.78,8.17-8.36,13.45c-4.85,16.24-5.43,33.36-1.72,49.87
		c1.3,5.78,4.41,9.93,9.38,12.91c11.36,6.81,23.61,10.57,36.82,13.3c26.13,5.4,51.87,7.94,78.85,8.67
		c55.47,1.51,136.67-2.2,189.29-16.22c13.1-3.49,25.4-8.03,36.59-15.35c7.11-4.65,11.46-11.25,12.57-19.65
		c1.57-11.77,1.16-23.61-2.04-35.34C640.48,773.27,579.78,775.61,523.33,778.48z M426.15,887.94c55.96,5.45,111.44,5.98,167.36,0.64
		c24.27-2.32,47.33-5.88,70.54-12.49c10.76-3.06,20.53-7.37,29.76-13.14c6.93-4.33,10.23-10.75,10.45-18.93
		c0.27-9.73-2.3-19.09-10.88-25.2c-19.54,12.94-44.92,19.72-68.73,23.89c-36.79,6.45-73.11,9.29-110.55,10.65
		c-34.89,1.27-68.7,0.86-103.29-3.05c-26.54-3.53-56.59-8-78.61-22.8c-4.83,9.72-5.92,20.37-1.45,29.8
		C339.68,876.16,401.57,885.55,426.15,887.94z"/><path fill="#E5725E" d="M391.79,789.76c-7.18,9.75-17.45,1.99-27.62-6.92c-3.95-3.46-4.71-8.94-1.48-13.27l20.89-27.96
		c2.61-3.49,2.62-7.53-0.51-10.8c-9.57-10-17.21-21.12-23.25-33.75c-10.64-20.33-15.85-42.59-13.7-66
		c13.62-2.44,26.79-2.39,40.65-1.61c0.12,23.99,7.31,46.8,22.31,65.31c1.28,1.58,2.92,2.67,4.57,2.74c1.63,0.07,3.87-0.93,5.27-2.78
		l56.82-74.84c2.65-3.49,2.68-7.53,0.44-11.12l-14.25-22.74c-6.44-10.27-10.92-20.99-14.47-32.6c-7.29-23.86-1.23-48.02,15.55-66.62
		c14.54-16.12,34.9-25.41,57.05-26.59c21.11-1.13,41.36,4.33,60.14,13.5c2.9,1.41,6.39,1.76,8.53-1.03l24.25-31.58
		c3.04-3.96,7.35-5.39,11.81-2.9c6.67,3.73,12.92,8.2,17.91,14.12c1.9,2.26,1.25,5.67-0.46,7.96l-23.97,31.9
		c-2.49,3.31-2.46,7.24,0.23,10.4c19.17,22.11,31.36,48.91,33.89,78.24c-14.07,2.58-27.17,4.59-41.14,3.93
		c-3.24-17.22-8.8-33.06-19.47-46.45c-1.47-1.85-3.32-2.95-5.25-2.93c-2.44,0.02-3.97,1.53-5.63,3.67l-46.62,60.17
		c-2.49,3.21-3.84,7.4-1.38,11c30.41,44.52,57.53,88.32,15.05,134.72c-33.42,36.5-82.82,32.64-125.11,12.33
		c-3.42-1.64-7.02-0.12-9,2.57L391.79,789.76z M514.54,570.87l38.32-50.87c1.92-2.55,1.15-7.73-1.62-9.16
		c-9.65-4.98-20.38-6.41-30.92-4.68c-17.75,2.92-28.86,18.03-27.1,35.94c1.09,11.08,9.45,30.93,15.54,31.46
		C510.57,573.74,512.87,573.08,514.54,570.87z M512.72,708.79c13.39-20.17,5.4-38.67-6.19-58.34c-1.38-2.34-3.56-4.04-5.87-3.96
		c-2.44,0.09-4.17,1.39-5.76,3.47l-45.07,58.79c-2.69,3.5-4.02,9.24,0.76,11.67C470.71,730.68,499.44,728.78,512.72,708.79z"/><path fill="#EDC56A" d="M652.26,214.33c-63.6,22.36-158.63,23.79-226.04,16.54c-20.45-2.2-39.61-5.36-59.1-10.85
		c-13.19-3.72-35.08-12.46-36.13-23.66c-1.12-11.93,20.69-21.75,34.18-26.29c21.89-7.36,43.92-11.88,67.15-14.79
		c64.99-8.15,148.98-8.57,212.03,8.27c13.69,3.65,38.76,12.9,40.36,24.62C686.32,199.88,665.02,209.84,652.26,214.33z
		 M443.69,178.38c2.17-2.2,2.07-5.1,1.44-6.91c-2.29-6.58-14.87-6.03-22.35,0.26c-2.21,1.86-3.14,4.78-2.3,7.24
		C423.05,186.54,437.06,185.07,443.69,178.38z M402.2,195.74c3.7-2.66,5.5-5.86,4.83-10.19c-1.59-10.35-25.45-7.71-35.12,6.97
		c-2.28,3.45-2.17,7.59-0.46,10.47C376.83,212.05,391.84,203.19,402.2,195.74z M622.97,208.04c5.87-2.35,11.06-5.17,15.79-9.31
		c3.9-3.42,4.33-10.2-0.16-13.26c-4.06-2.77-9.49-1.76-13.77,0.34c-12.48,6.13-24.95,10.63-38.58,13.45
		c-7.34,1.52-16.01,5.1-16.35,10.31C568.84,225.38,606.45,214.66,622.97,208.04z"/><path fill="#EDC56A" d="M472.08,418.2c-35.28-1.01-86.48-5.27-116.3-20.83c-6.86-3.58-11.58-8.69-13-16.33
		c-2.59-13.94-2.33-28.37,2.84-41.95c22.95,7.77,45.3,11.89,68.94,14.39c58.15,6.16,116.08,5.89,174.39,0.7
		c26.63-3.09,51.91-6.51,77.34-13.91c12.07-3.51,22.98-7.75,34.22-14.9c6.03,15.2,6.86,31.73,3.59,47.62
		c-1.27,6.17-5.27,10.45-10.53,13.68c-24.65,15.13-62.8,21.98-92.6,25.47C557.91,417.18,515.48,419.44,472.08,418.2z M678.4,370.88
		c4.74-8.52,3.2-19.03-5.49-23.82c-4.61-2.54-11.54-1.39-14.93,2.87c-4.41,5.54-5.31,13.58-2.98,19.96
		c1.98,5.41,6.62,8.29,11.48,8.3C671.45,378.21,675.64,375.83,678.4,370.88z"/><path fill="#EDC56A" d="M523.33,778.48c56.45-2.87,117.15-5.21,171.16-25.39c3.2,11.74,3.61,23.57,2.04,35.34
		c-1.12,8.4-5.46,15-12.57,19.65c-11.19,7.32-23.49,11.86-36.59,15.35c-52.62,14.02-133.82,17.74-189.29,16.22
		c-26.98-0.74-52.72-3.27-78.85-8.67c-13.21-2.73-25.46-6.48-36.82-13.3c-4.97-2.98-8.08-7.13-9.38-12.91
		c-3.71-16.51-3.13-33.64,1.72-49.87c1.58-5.28,3.85-9.72,8.36-13.45c3.8,5.26,8.32,8.62,13.56,12.43l-7.99,12.82
		c-7.64,17.25,8.26,30.99,24.27,39.23c10.1,5.2,20.89,2.71,28.36-5.74l19.58-26.42c0.91-1.22,3.75-0.38,5.09,0.16
		C456.55,786.11,492.9,792.02,523.33,778.48z"/><path fill="#EDC56A" d="M367.06,281.06c-15.41-3.52-41.19-11.81-44.53-25.7c-3.47-14.44-2.96-29.25,0.91-43.43
		c12.18,13.03,29.74,18.65,46.41,23.25c27.2,6.84,53.98,10.23,82.24,11.92c48.2,2.87,95.4,1.9,143.1-4.91
		c23.07-3.42,44.87-8.26,66.43-16.53c10.61-4.07,19.89-9.13,28.71-17.26c2.67,11.19,2.97,22.19,1.57,33.38
		c-1.06,8.46-5.46,15.18-12.87,19.35c-23.89,14.16-59.89,21.33-88.24,24.74C520.86,294.25,435.4,296.65,367.06,281.06z"/><path fill="#EDC56A" d="M427.22,340.83c-26.12-2.33-95.14-11-101.26-33.88c-2.24-8.39-1.68-16.99,2.26-25.4
		c22.52,11.93,49.86,16.91,75.25,19.99c58.78,7.13,121.45,5.68,180.48-0.89c20.89-2.32,40.58-5.77,60.82-10.91
		c13.56-3.44,26.11-8.14,38.36-14.61l9.16-6.09c8.36,5.42,11.45,15.17,11.34,24.93c-0.1,8.62-3.82,15.18-11.05,19.75
		c-22.1,13.95-58.55,20.76-85.84,24.17C546.95,345.35,487.24,346.19,427.22,340.83z"/><path fill="#EDC56A" d="M426.15,887.94c-24.59-2.39-86.47-11.79-95.4-30.63c-4.47-9.43-3.38-20.08,1.45-29.8
		c22.02,14.8,52.08,19.27,78.61,22.8c34.59,3.91,68.4,4.32,103.29,3.05c37.44-1.36,73.76-4.2,110.55-10.65
		c23.81-4.17,49.19-10.96,68.73-23.89c8.58,6.1,11.15,15.47,10.88,25.2c-0.23,8.18-3.53,14.59-10.45,18.93
		c-9.23,5.77-19,10.08-29.76,13.14c-23.21,6.61-46.28,10.17-70.54,12.49C537.59,893.93,482.12,893.39,426.15,887.94z"/><path fill="#EDC56A" d="M581.57,459.01c-39.78-17.38-84.09-19.47-118.78,8.7c-9.33,7.58-16.71,16.24-22.3,27.15
		c-36.39-1.06-90.23-3.89-120.29-23.06c-4.29-2.74-7.14-6.63-8.42-11.84c-4.49-18.26-3.64-37.57,2.81-55.2
		c2.87-7.86,8.52-13.26,16.4-15.78c5.28,21.03,38.27,30.29,59.5,34.58c67.51,13.65,150.54,9.54,219.62,1.6
		c-3.31,2.53-6.67,5.1-9.35,8.63L581.57,459.01z M356.99,459.73c2.33-6.72,1.09-12.95-2.23-18.57c-3.53-5.99-12.97-9.38-18.32-3.66
		c-7.35,7.85-5.37,21.6,2.8,28.09C345.41,470.49,354.46,467.02,356.99,459.73z"/><path fill="#EDC56A" d="M583.27,684.22c-1.06-9.99-3.53-18.58-7.18-27.35c-4.94-11.91-10.78-22.55-18.15-34.49
		c40.38-3.84,79.74-7.41,117.71-20.71c10.31-3.61,19.61-8.2,28.55-14.96c13.06,11.59,13.84,38.55,11.03,56.36
		c-1.16,7.38-5.38,12.73-11.69,16.61C673.73,678,619.43,682.13,583.27,684.22z M688.71,640.14c5.44-7.98,5.64-17.9-1.12-24.82
		c-3.39-3.47-8.43-4.26-13.34-2.82c-9.44,2.77-15.21,19.35-8.05,29.15c3.03,4.14,7.35,6.21,11.78,5.79
		C682.57,647,685.79,644.43,688.71,640.14z"/><path fill="#EDC56A" d="M707.11,730.19c-34.65,24.58-112.02,30.36-157.81,33.07c19.75-17.36,32.63-39.4,34.49-65
		c36.65-2.43,73.36-5.26,107.47-16.98c7.27-2.67,13.81-5.71,20.65-9.89c5.55,14.72,6.39,29.57,4.06,44.39
		C715.03,721.73,712.03,726.7,707.11,730.19z M689.28,724.69c6.93-4.73,9.75-12.91,7.66-20.53c-1.41-5.16-5.23-8.29-9.63-9.09
		c-5.14-0.93-9.53,1.4-12.67,5.56c-4.32,5.74-6.51,13.28-3.16,19.78C674.95,727.15,682.83,729.1,689.28,724.69z"/><path fill="#EDC56A" d="M460.33,610.1c-31.25-1.45-76.53-5.36-101.51-20.84c-4.84-3-8.24-6.97-9.49-12.69
		c-2.97-13.54-2.72-27.25,1.8-41.5c25.68,10.47,53.66,14.65,81.7,17.36c3.08,13.25,7.93,25.28,14.92,36.84L460.33,610.1z"/><path fill="#EDC56A" d="M650.99,525.45c-5.47-10.04-11.05-18.83-18.51-27.58c2.05-3.73,4.54-7,7.7-9.77
		c15.67-5.07,33.58-12.37,44.07-25.99c16.66,7.35,21.31,22.6,15.6,39.53c-3.46,5.37-8.43,8.38-13.85,11.43
		C675.19,518.69,664.04,521.94,650.99,525.45z"/><path fill="#EDC56A" d="M430.43,538.25c-16.75-1.44-32.23-3.79-48.03-7.51c-21-5.89-46.64-12.36-42.85-35.03
		c12.04,3.82,23.03,6.09,34.9,7.86c19.9,2.86,39.31,4.41,59.77,5.23C431.32,518.46,430.02,526.98,430.43,538.25z"/><path fill="#EDC56A" d="M414.34,677.24c-10.17-14.47-12.7-30.96-14.12-47.33c-0.02-5.61-1.8-9.91-6.59-13.34
		c20.65,3.65,39.62,6.09,61.42,7.23L414.34,677.24z"/><path fill="#EDC56A" d="M623.39,598.59c3.76,0.09,7.15-1.56,10.75,0.05c-28.12,5.49-56.57,8.5-85.36,9.99
		c-1.17,0.06-1.94-2.59-1.39-3.29l39.47-50.26c5.66,10.02,8.32,20.06,10.42,30.54c1.43,7.13,6.04,12.47,13.7,12.66L623.39,598.59z"/><path fill="#EDC56A" d="M677.74,409.93c4.1,25.95,3.01,47.77-23.19,57.35c4.31-8.14,5.12-16.55-0.58-23.35
		c-7.65-9.13-17.43-15.7-28.79-21.2C643.52,419.72,660.43,415.8,677.74,409.93z"/><path fill="#EDC56A" d="M384.87,614.69c-14.38,1.08-29.1-0.7-43.48,3.49c0.53-7.79,1.55-13.87,4.58-21.28
		C357.32,606.3,370.15,609.69,384.87,614.69z"/><path fill="#EDC56A" d="M364.97,742.52c-14.09-6.8-15.71-17.97-14.85-33.79c5.72,10.03,11.75,19.22,19.34,28.04
		C368.42,739.18,367.53,740.38,364.97,742.52z"/><path fill="#EDC56A" d="M662.98,590.79c1.9-2.74,3.17-5.88,3.01-9.82c-0.59-14.83-4.01-28.93-9.12-42.63
		c15.52-4.05,29.88-8.82,43.24-17.63c5.14,13.86,5.73,28.32,3.19,42.43c-1.61,6.35-5.08,11.26-10.64,14.57
		C683.76,583.56,674.34,587.89,662.98,590.79z"/><path fill="#1E1D1B" d="M512.72,708.79c-13.28,19.99-42.01,21.89-62.14,11.64c-4.78-2.43-3.44-8.17-0.76-11.67l45.07-58.79
		c1.59-2.08,3.32-3.38,5.76-3.47c2.31-0.08,4.49,1.62,5.87,3.96C518.12,670.12,526.12,688.62,512.72,708.79z M505.92,686.02
		c-0.88-7.91-2.7-13.22-6.2-19.31l-14.08,18.85L505.92,686.02z M501.24,700.48l-26.94-0.79l-7.87,11.33
		C479.87,714.37,493.72,712.04,501.24,700.48z"/><path fill="#1E1D1B" d="M514.54,570.87c-1.67,2.21-3.97,2.86-5.78,2.7c-6.1-0.53-14.45-20.38-15.54-31.46
		c-1.76-17.92,9.34-33.02,27.1-35.94c10.54-1.73,21.28-0.3,30.92,4.68c2.77,1.43,3.55,6.61,1.62,9.16L514.54,570.87z M519.56,541.54
		l15.49-21.45c-5.28-1.06-10.36-0.79-15.34,0.75c-9.05,2.81-14.06,11.61-12.47,20.91L519.56,541.54z"/><path fill="#FCFCFC" d="M622.97,208.04c-16.52,6.62-54.13,17.34-53.07,1.52c0.35-5.2,9.01-8.79,16.35-10.31
		c13.63-2.82,26.1-7.32,38.58-13.45c4.28-2.1,9.7-3.12,13.77-0.34c4.49,3.07,4.07,9.84,0.16,13.26
		C634.03,202.87,628.84,205.69,622.97,208.04z"/><path fill="#FCFCFC" d="M402.2,195.74c-10.36,7.45-25.37,16.3-30.75,7.25c-1.72-2.88-1.82-7.02,0.46-10.47
		c9.68-14.67,33.53-17.32,35.12-6.97C407.69,189.89,405.9,193.08,402.2,195.74z"/><path fill="#FCFCFC" d="M443.69,178.38c-6.62,6.7-20.63,8.16-23.21,0.59c-0.84-2.46,0.08-5.38,2.3-7.24
		c7.48-6.29,20.06-6.84,22.35-0.26C445.75,173.27,445.86,176.18,443.69,178.38z"/><path fill="#FCFCFC" d="M678.4,370.88c-2.75,4.95-6.95,7.33-11.93,7.31c-4.86-0.01-9.5-2.89-11.48-8.3
		c-2.33-6.37-1.42-14.41,2.98-19.96c3.39-4.27,10.33-5.41,14.93-2.87C681.6,351.85,683.13,362.36,678.4,370.88z"/><path fill="#FCFCFC" d="M356.99,459.73c-2.53,7.3-11.58,10.77-17.74,5.86c-8.17-6.5-10.15-20.25-2.8-28.09
		c5.36-5.72,14.79-2.33,18.32,3.66C358.08,446.78,359.32,453,356.99,459.73z"/><path fill="#FCFCFC" d="M688.71,640.14c-2.93,4.29-6.14,6.86-10.74,7.3c-4.43,0.42-8.75-1.64-11.78-5.79
		c-7.16-9.8-1.39-26.38,8.05-29.15c4.91-1.44,9.95-0.65,13.34,2.82C694.36,622.24,694.15,632.16,688.71,640.14z"/><path fill="#FCFCFC" d="M689.28,724.69c-6.45,4.4-14.33,2.46-17.8-4.27c-3.35-6.5-1.16-14.05,3.16-19.78
		c3.13-4.16,7.52-6.49,12.67-5.56c4.39,0.8,8.21,3.93,9.63,9.09C699.02,711.78,696.2,719.96,689.28,724.69z"/><path fill="#EDC56A" d="M501.24,700.48c-7.52,11.56-21.37,13.9-34.81,10.54l7.87-11.33L501.24,700.48z"/><path fill="#EDC56A" d="M505.92,686.02l-20.28-0.47l14.08-18.85C503.22,672.8,505.04,678.1,505.92,686.02z"/><path fill="#EDC56A" d="M519.56,541.54l-12.32,0.21c-1.59-9.29,3.42-18.1,12.47-20.91c4.98-1.54,10.06-1.81,15.34-0.75
		L519.56,541.54z"/></svg>