<svg xmlns="http://www.w3.org/2000/svg" xmlns:xlink="http://www.w3.org/1999/xlink"
	 viewBox="0 0 1184 864">
<g>
	<path fill="#FAF6E8" d="M10,0h1174v864H0V7C4.181,6.22,8.985,4.476,10,0z M402.014,274.342
		c19.704-1.044,37.524-8.686,50.831-22.651c29.155,9.474,66.691,9.396,90.859-8.67c9.841-8.801,14.941-21.022,10.85-33.602
		c-3.088-9.498-10.568-16.196-19.637-20.556c5.728-10.287,6.267-22.495-0.794-32.015c-7.172-9.67-18.904-12.899-30.999-11.801
		c-0.202-11.817-4.712-22.668-14.825-28.349c-8.403-4.72-18.266-3.413-27.317,0.155c-3.432-12.606-10.352-22.75-21.596-28.282
		c-14.847-7.304-31.941-4.061-44.357,7.262c-12.034-16.673-28.591-28.112-48.601-31.219c-37.995-5.9-70.815,20.638-77.974,58.531
		c-14.606-3.709-28.742-2.181-40.89,5.35c-18.255,11.317-24.844,32.786-15.547,52.478c-22.998,5.553-36.872,28.836-28.893,48.131
		c10.775,26.057,39.499,32.158,65.927,24.111c3.725,4.879,6.863,9.608,11.039,13.417c24.14,17.262,58.072,10.513,80.156-9.17
		C357.451,270.801,379.77,276.749,402.014,274.342z M910.433,133.727l0.639-19.783c0.076-2.352-1.175-3.921-3.292-3.434
		c-1.325,0.305-2.137,1.662-2.219,3.568l-0.852,19.794c-0.073,1.685,0.439,3.104,1.3,3.623c1.123,0.676,2.47,0.483,3.068-0.002
		C909.893,136.829,910.379,135.392,910.433,133.727z M865.503,148.913l-14.352-15.972c-1.076-1.197-3.66-0.58-4.248,0.365
		c-0.444,0.712-0.445,2.397,0.481,3.44l14.953,16.829c0.874,0.984,3.415,0.086,3.848-0.745
		C866.596,152.04,866.747,150.297,865.503,148.913z M960.008,149.348l8.703-8.596c1.469-1.451,1.263-3.59,0.303-4.352
		c-1.166-0.925-3.164-0.681-4.334,0.44l-16.261,15.584c-0.893,0.855-1.109,2.767-0.64,3.508c0.538,0.85,2.98,1.514,3.94,0.674
		L960.008,149.348z M950.756,193.733c0-25.029-20.29-45.319-45.319-45.319c-25.029,0-45.319,20.29-45.319,45.319
		s20.29,45.319,45.319,45.319C930.466,239.052,950.756,218.762,950.756,193.733z M847.361,194.989
		c1.516,0.014,1.278-3.653,0.305-4.049c-0.612-0.249-1.196-0.991-2.658-0.99l-24.908,0.014l1.365,4.79L847.361,194.989z
		 M989.887,198.986c1.718,0.02,2.499-1.431,2.492-2.505c-0.005-0.901-0.884-2.655-2.525-2.664l-24.407-0.134
		c-1.723-0.009-1.506,5.006,0.646,5.031L989.887,198.986z M849.758,253.206l14.976-15.455c1.362-1.405,1.197-3.551,0.243-4.309
		c-1.137-0.904-3.155-0.743-4.24,0.287l-10.26,9.738l-4.936,6.046c-1.159,1.42-0.557,3.383,0.358,4.049
		C846.572,254.052,848.538,254.465,849.758,253.206z M965.379,255.786c0.546-0.554,1.146-2.549,0.284-3.481l-15.835-17.135
		c-1.257-1.36-3.062-0.93-3.922,0.225c-0.717,0.962-0.712,2.202,0.284,3.405l8.674,10.481
		C958.939,254.205,962.961,258.239,965.379,255.786z M271.576,765.226c-3.564,6.992-3.701,15.354,0.909,22.45
		c4.469,6.879,11.589,10.139,20.584,10.064l60.053-0.502l161.557-0.443l206.313-0.576l197.815-0.621
		c9.009-0.028,15.854-5.899,19.217-12.46c4.109-8.016,2.502-17.223-3.082-23.827c0.914-1.228,1.871-2.643,1.646-3.635
		c-0.274-1.207-1.387-2.079-2.404-2.84l-6.619-4.952c-44.033-28.909-91.964-50.041-143.39-64.313
		c12.18-10.53,18.714-23.314,20.112-38.248c13.088-7.537,20.962-20.163,22.068-35.26c-0.351-7.414,9.887-12.654,3.953-21.297
		c-1.578-2.298-4.863-2.813-7.179-2.101c-2.168,0.667-3.015,2.637-4.133,5.898c-2.007-2.716-2.885-4.498-4.654-4.963
		c-2.305-0.605-5.643,0.331-6.834,1.833c-4.589,5.788,1.756,10.651,3.306,15.177c2.558,7.471-2.45,16.642-7.638,21.871
		c-5.556-18.108-17.5-31.53-34.608-38.142l2.944-9.896c4.25-0.712,7.494-3.667,7.959-7.292c0.499-3.892-1.907-7.065-4.983-8.254
		c-3.984-1.539-8.129-0.138-9.947,2.997c-2.236,3.856-0.75,6.899,1.093,10.642c1.299,2.639-1.341,7.772-3.176,9.868
		c-35.22-7.144-64.432,14.154-69.147,48.578c-11.956,6.021-20.558,15.492-24.3,28.512l-34.646-2.004
		c9.899-9.49,16.744-20.697,18.194-34.863c13.208-6.376,19.562-18.413,22.971-32.126c3.062-2.995,8.023-6.567,6.462-12.545
		c-0.795-3.046-2.797-5.692-6.482-5.527c-2.444,0.11-4.371,2.145-6.259,5.038c-1.485-4.37-3.88-6.583-7.686-5.792
		c-2.61,0.542-4.754,3.103-4.891,6.473c-0.146,3.577,0.223,6.828,3.779,9.004c-0.866,6.605-3.185,12.798-8.511,17.367
		c-2.974-15.169-11.34-26.611-23.217-35.442l0.036-92.196c29.035,2.273,55.607,12.243,79.601,27.601
		c1.333,4.87-0.46,9.531,1.623,10.978c0.759,0.527,2.158,0.561,2.982-0.032c2.086-1.5,0.108-6.908,1.59-12.038
		c20.478-14.939,44.951-22.943,70.205-24.29c1.756,4.486,4.752,6.725,7.991,7.159c6.286,0.843,8.339-3.5,12.621-7.272
		c23.596,0.737,46.97,7.146,65.546,22.001l0.472,6.827c0.158,2.277,1.119,3.581,3.105,3.429c1.548-0.119,2.432-1.379,2.222-3.304
		l-3.282-30.002l-1.154-5.19c-9.555-42.979-21.454-79.721-49.287-114.511c4.017-6.709,3.773-13.68,3.338-21.142l-2.763-10.698
		c-0.49-1.898-3.457-3.001-4.629-1.393l-11.935,16.378c-21.726-22.67-48.602-37.93-76.544-51.024l-3.254-16.602
		c-0.311-1.588-2.351-2.077-3.596-1.793c-1.18,0.269-2.303,1.195-3.22,2.461l-6.392,8.83c-28.187-9.988-55.083-17.933-84.996-20.16
		l-2.122-16.865c-0.621-4.935-4.563-8.016-9.364-7.936c-3.825,0.064-7.771,3.113-8.359,7.764l-2.132,16.861
		c-68.12,3.104-151.154,42.005-195.392,92.826c-17.655,20.283-30.424,43.221-40.142,68.449l-11.035,35.672
		c-3.56,14.913-5.952,29.545-7.036,44.635c-0.1,1.391,3.101,1.868,3.805,1.205c3.867-3.638-0.916-7.323,6.429-12.239
		c22.48-15.048,49.465-21.181,76.38-18.767c3.783,4.431,9.345,5.132,14.221,2.104c21.583,4.362,41.172,13.946,58.82,26.904
		l-0.021,8.355c-0.005,2.094,1.112,2.683,2.437,2.734c1.531,0.059,2.726-0.848,2.746-2.774l0.083-7.796
		c27.642-14.958,56.727-26.383,89.154-27.743l0.089,83.77l-9.709-0.59c-0.298-2.69-1.607-7.787,0.309-10.168
		c2.648-3.289,5.164-6.034,3.461-10.65c-1.06-2.874-4.558-5.443-8.867-4.79c-3.252,0.493-6.424,2.951-6.429,7.328
		c-0.003,3.022,1.601,6.409,5.29,8.185c0.637,3.459,0.863,6.758,0.495,10.515c-28.395,3.939-50.157,27.099-50.675,55.744
		c-8.5,5.618-13.335,12.693-17.235,22.326c-5.767-8.269-12.113-13.286-20.206-16.826c-6.836-31.881-37.964-50.071-68.768-42.213
		c-0.893-3.071-3.283-7.119-2.105-9.666c2.086-4.02,3.305-7.339,0.669-10.916c-2.135-2.897-5.968-3.915-9.407-2.552
		c-3.344,1.326-5.378,4.629-4.976,8.356c0.388,3.594,3.228,6.096,7.308,6.777c1.27,3.351,2.711,6.246,2.642,9.93
		c-23.655,9.804-38.083,33.385-34.554,59.175c-11.77,10.461-13.332,24.015-13.458,38.759c-0.281,4.629-6.66,11.154-0.027,16.692
		c-39.025,15-75.87,33.962-109.727,58.776c-1.644,1.205-2.676,2.188-2.559,3.969C269.117,763.525,269.963,764.622,271.576,765.226z
		 M907.863,275.388l0.128-23.406c0.006-1.145-1.831-1.568-2.522-1.654c-0.704-0.088-2.481,0.406-2.493,1.71l-0.218,23.812
		c-0.015,1.61,1.716,2.528,2.587,2.583C906.367,278.496,907.852,277.35,907.863,275.388z M471.547,300.086l8.721-20.749
		c0.773-1.84,0.139-3.484-1.095-3.969c-1.691-0.665-3.383-0.144-4.124,1.642l-8.793,21.19c-0.734,1.769-0.064,3.616,1.659,4.207
		C469.141,302.825,470.637,302.252,471.547,300.086z M420.727,312.313l8.925-20.669c0.967-2.239,0.255-4.372-2.15-4.518
		c-1.44-0.088-2.597,0.923-3.346,2.752l-8.443,20.618c-0.657,1.604-0.166,3.256,1.307,3.819
		C418.233,314.778,419.888,314.255,420.727,312.313z M329.199,312.685l8.753-20.839c0.755-1.798,0.062-3.566-1.426-3.94
		c-1.018-0.255-3.256,0.173-3.873,1.721l-8.513,21.378c-0.631,1.586,0.171,3.397,1.438,3.82
		C326.835,315.243,328.389,314.613,329.199,312.685z M234.8,316.262l9.63-23.241c0.528-1.274-1.393-2.534-2.249-2.594
		c-0.686-0.048-2.343-0.274-2.852,0.902l-9.911,22.923c-0.725,1.678,0.14,3.582,1.554,4.085
		C232.11,318.743,233.923,318.377,234.8,316.262z M278.415,317.917l9.48-22.074c0.718-1.671-0.23-3.33-1.447-3.693
		c-0.771-0.229-2.68-0.05-3.167,1.071l-9.594,22.084c-0.755,1.738,0.057,3.25,0.959,3.682
		C275.644,319.464,277.716,319.546,278.415,317.917z M373.375,321.904l8.363-20.073c0.681-1.634-0.206-3.33-1.334-3.727
		c-1.1-0.388-3.077,0.146-3.689,1.604l-9.074,21.623c-0.662,1.578,1.174,2.901,2.2,3.076
		C371.387,324.67,372.506,323.988,373.375,321.904z M384.357,363.899l9.004-21.254c0.68-1.605-0.957-3.051-2.121-3.126
		c-1.076-0.069-2.5,0.141-3.125,1.565l-9.126,20.781c-0.755,1.719,0.108,4.093,1.443,4.466
		C381.831,366.72,383.479,365.972,384.357,363.899z M293.373,367.889l9.144-21.075c0.743-1.714-0.239-3.224-1.235-3.581
		c-0.854-0.306-2.842-0.417-3.356,0.729l-9.568,21.289c-0.778,1.731-0.06,3.819,1.372,4.194
		C290.627,369.679,292.604,369.663,293.373,367.889z M240.25,370.768l9.027-21.215c0.727-1.71-0.277-2.908-1.126-3.324
		c-0.746-0.366-3.126-0.563-3.559,0.454l-9.503,22.332c-0.662,1.556,0.41,3.376,1.609,3.57
		C237.742,372.755,239.448,372.653,240.25,370.768z M335.443,377.933l8.411-20.092c0.739-1.765-0.011-3.518-1.35-3.912
		c-0.903-0.266-2.742,0.042-3.292,1.345l-9.598,22.727c-0.521,1.234,1.926,2.671,2.87,2.485
		C333.388,380.307,334.753,379.58,335.443,377.933z M257.86,418.463l8.738-20.613c0.66-1.558-0.452-3.266-1.337-3.61
		c-1.125-0.437-3.028-0.211-3.684,1.302l-9.054,20.871c-0.784,1.806-0.355,3.799,1.154,4.327
		C255.227,421.283,256.938,420.638,257.86,418.463z M339.952,437.958l9.521-21.536c0.741-1.675-0.066-3.223-1.428-3.88
		c-0.92-0.444-3.242,0.169-3.763,1.695c-3.468,10.166-10.54,22.143-8.274,24.057C336.725,438.899,339.414,439.175,339.952,437.958z
		 M296.545,442.131l8.915-21.379c0.693-1.661-0.209-3.101-1.209-3.39c-0.718-0.207-2.889-0.481-3.351,0.608l-9.435,22.239
		c-0.651,1.534,0.411,3.153,1.298,3.448C293.968,444.056,295.807,443.899,296.545,442.131z M463.321,490.963
		c-1.059-0.523-2.883-0.442-3.76,0.61c-7.215,8.651-14.325,18.029-13.045,28.258c0.643,5.138,4.601,8.373,9.051,8.573
		C472.652,529.169,467.571,493.064,463.321,490.963z M576.355,495.677c-1.665-2.479-5.331,1.743-6.369,3.318
		c-4.837,7.336-11.356,15.085-11.013,23.618c0.227,5.643,4.398,9.791,8.608,10.377C581.674,534.953,584.21,510.415,576.355,495.677z
		 M683.244,516.462c-3.262-0.6-12.505,12.982-15.177,20.269c-2.268,6.186-1.666,13.328,4.172,16.901
		c2.864,1.753,6.663,1.343,9.425-0.29C692.837,546.736,687.487,517.242,683.244,516.462z"/>
	<path fill="#8DA990" d="M10,0C8.985,4.476,4.181,6.22,0,7V0H10z"/>
	<path fill="#A9CAAD" d="M934.942,759.311c5.584,6.605,7.19,15.811,3.082,23.827c-3.363,6.561-10.208,12.432-19.217,12.46
		l-197.815,0.621l-206.313,0.576l-161.557,0.443l-60.053,0.502c-8.995,0.075-16.115-3.186-20.584-10.064
		c-4.61-7.096-4.473-15.458-0.909-22.45c47.823-35.592,101.859-60.251,160.37-76.026l0.556,16.102
		c-4.057,2.745-7.043,10.779-3.218,14.296c7.853,0.68,17.342-1.473,24.64-3.554c2.822-4.676-2.229-9.677-5.226-12.499
		c-2.118-2.717-1.431-7.46-0.897-10.79c8.012-0.841,14.866-1.178,22.559-4.523c5.975,11.741-3.853,17.231,1.163,24.694
		c7.443-1.205,17.54,0.371,24.333-3.549c4.76-3.12-1.995-12.609-7.355-12.476l-3.441-16.43c-0.355-1.697,2.113-3.531,4.021-3.654
		c7.677-0.495,14.916-3.328,22.562-2.488c1.928,0.918,3.961,3.97,6.703,3.296c1.965-0.483,3.653-3.023,5.482-4.447
		c10.026,6.866,9.272-3.189,20.885-3.964l15.721-1.049c0.328,0.513,1.004,1.212,1.311,2.086c-6.681,0.511-9.287,7.416-9.407,13.637
		c-0.425,22.102,15.661,38.862,37.682,39.089c17.367,0.179,32.181-9.092,38.271-25.606l7.904-1.14
		c1.818-4.685,0.241-9.678-4.248-12.586l0.596-17.098l33.678,2.069c1.798,0.11,1.469,3.497-0.19,4.394
		c-3.834,2.073-5.598,5.78-5.74,9.963c-0.136,4.023,1.888,6.758,5.244,7.074c3.528,0.332,5.622-0.732,7.192-4.624
		c1.284,4.187,3.064,5.528,5.845,5.664c2.435,0.119,4.933-0.794,6.094-3.465c1.61-3.704,1.186-8.442-1.816-11.625
		c-1.076-1.141-1.556-5.721,0.227-5.659c6.593,0.227,13.677,0.615,19.908,2.687l9.887,9.858l-3.417,17.9
		c-5.068-0.098-11.107,9.282-6.528,12.072c6.053,3.647,15.961,2.942,22.922,3.937c4.182-2.716,1.187-8.91-0.036-12.285
		c-1.527-4.211,0.301-8.334,1.282-12.631c7.507,3.384,14.756,4.056,23.261,4.762c0.361,3.535,1.385,9-1.381,11.41
		c-2.917,2.542-7.836,7.669-4.644,11.618c7.43,2.574,17.354,4.227,24.932,3.887c4.164-4.438-0.348-11.148-3.145-14.314l0.237-15.442
		l12.809-6.079c37.841,10.14,73.876,24.126,108.34,42.605c14.894,7.986,28.714,15.956,42.075,26.058L934.942,759.311z"/>
	<path fill="#43443C" d="M934.942,759.311l-5.364-2.932c-13.361-10.102-27.181-18.072-42.075-26.058
		c-34.465-18.48-70.5-32.465-108.34-42.605l-12.809,6.079l-0.237,15.442c2.798,3.166,7.309,9.877,3.145,14.314
		c-7.578,0.34-17.501-1.313-24.932-3.887c-3.192-3.949,1.728-9.076,4.644-11.618c2.766-2.41,1.741-7.875,1.381-11.41
		c-8.505-0.706-15.754-1.378-23.261-4.762c-0.981,4.297-2.809,8.42-1.282,12.631c1.223,3.374,4.218,9.568,0.036,12.285
		c-6.961-0.995-16.868-0.291-22.922-3.937c-4.579-2.79,1.461-12.17,6.528-12.072l3.417-17.9l-9.887-9.858
		c-6.23-2.072-13.314-2.46-19.908-2.687c-1.783-0.061-1.302,4.518-0.227,5.659c3.002,3.184,3.426,7.921,1.816,11.625
		c-1.161,2.671-3.66,3.584-6.094,3.465c-2.781-0.136-4.56-1.477-5.845-5.664c-1.57,3.891-3.664,4.956-7.192,4.624
		c-3.356-0.316-5.38-3.05-5.244-7.074c0.141-4.183,1.906-7.89,5.74-9.963c1.659-0.897,1.988-4.284,0.19-4.394l-33.678-2.069
		l-0.596,17.098c4.489,2.908,6.066,7.901,4.248,12.586l-7.904,1.14c-6.091,16.514-20.904,25.785-38.271,25.606
		c-22.021-0.227-38.107-16.986-37.682-39.089c0.12-6.221,2.726-13.126,9.407-13.637l9.545-0.73
		c-3.366-2.768-7.316-1.592-10.856-1.356l-15.721,1.049c-11.613,0.775-10.859,10.83-20.885,3.964
		c-1.828,1.424-3.517,3.964-5.482,4.447c-2.742,0.674-4.775-2.377-6.703-3.296c-7.646-0.84-14.884,1.994-22.562,2.488
		c-1.908,0.123-4.376,1.957-4.021,3.654l3.441,16.43c5.36-0.133,12.115,9.356,7.355,12.476c-6.793,3.92-16.89,2.344-24.333,3.549
		c-5.016-7.463,4.812-12.953-1.163-24.694c-7.693,3.346-14.547,3.682-22.559,4.523c-0.534,3.331-1.221,8.074,0.897,10.79
		c2.997,2.822,8.049,7.823,5.226,12.499c-7.298,2.081-16.786,4.233-24.64,3.554c-3.825-3.517-0.839-11.551,3.218-14.296
		l-0.556-16.102c-58.511,15.775-112.547,40.434-160.37,76.026c-1.613-0.604-2.459-1.701-2.532-2.809
		c-0.117-1.78,0.915-2.764,2.559-3.969c33.857-24.814,70.703-43.776,109.727-58.776c-6.633-5.539-0.254-12.063,0.027-16.692
		c0.126-14.744,1.688-28.297,13.458-38.759c-3.529-25.791,10.899-49.371,34.554-59.175c0.069-3.684-1.372-6.579-2.642-9.93
		c-4.08-0.681-6.92-3.183-7.308-6.777c-0.402-3.727,1.632-7.03,4.976-8.356c3.439-1.364,7.272-0.345,9.407,2.552
		c2.637,3.577,1.418,6.896-0.669,10.916c-1.178,2.547,1.212,6.595,2.105,9.666c30.804-7.858,61.932,10.333,68.768,42.213
		c8.092,3.54,14.439,8.557,20.206,16.826c3.9-9.634,8.735-16.708,17.235-22.326c0.518-28.645,22.28-51.805,50.675-55.744
		c0.368-3.758,0.142-7.056-0.495-10.515c-3.689-1.776-5.293-5.163-5.29-8.185c0.005-4.377,3.177-6.836,6.429-7.328
		c4.309-0.653,7.807,1.916,8.867,4.79c1.703,4.617-0.814,7.362-3.461,10.65c-1.916,2.381-0.607,7.478-0.309,10.168l9.709,0.59
		l-0.089-83.77c-32.427,1.36-61.513,12.785-89.154,27.743l-0.083,7.796c-0.021,1.926-1.215,2.833-2.746,2.774
		c-1.325-0.051-2.442-0.64-2.437-2.734l0.021-8.355c-17.648-12.958-37.237-22.542-58.82-26.904
		c-4.876,3.028-10.439,2.327-14.221-2.104c-26.915-2.414-53.899,3.719-76.38,18.767c-7.345,4.917-2.562,8.601-6.429,12.239
		c-0.704,0.662-3.905,0.186-3.805-1.205c1.084-15.089,3.476-29.721,7.036-44.635l11.035-35.672
		c9.718-25.228,22.487-48.166,40.142-68.449c44.238-50.821,127.272-89.722,195.392-92.826l2.132-16.861
		c0.588-4.651,4.535-7.7,8.359-7.764c4.8-0.08,8.743,3.001,9.364,7.936l2.122,16.865c29.913,2.227,56.809,10.171,84.996,20.16
		l6.392-8.83c0.917-1.266,2.04-2.192,3.22-2.461c1.244-0.284,3.284,0.204,3.596,1.793l3.254,16.602
		c27.942,13.094,54.818,28.353,76.544,51.024l11.935-16.378c1.172-1.608,4.139-0.505,4.629,1.393l2.763,10.698
		c0.436,7.462,0.68,14.433-3.338,21.142c27.833,34.79,39.733,71.532,49.287,114.511l1.154,5.19l3.282,30.002
		c0.211,1.925-0.674,3.185-2.222,3.304c-1.985,0.153-2.947-1.152-3.105-3.429l-0.472-6.827
		c-18.576-14.856-41.95-21.265-65.546-22.001c-4.282,3.772-6.335,8.115-12.621,7.272c-3.239-0.434-6.235-2.673-7.991-7.159
		c-25.254,1.347-49.727,9.351-70.205,24.29c-1.481,5.13,0.496,10.538-1.59,12.038c-0.824,0.593-2.224,0.559-2.982,0.032
		c-2.083-1.447-0.29-6.108-1.623-10.978c-23.994-15.358-50.567-25.328-79.601-27.601l-0.036,92.196
		c11.877,8.831,20.243,20.273,23.217,35.442c5.325-4.569,7.645-10.763,8.511-17.367c-3.556-2.175-3.925-5.427-3.779-9.004
		c0.137-3.37,2.281-5.931,4.891-6.473c3.806-0.791,6.201,1.422,7.686,5.792c1.888-2.893,3.814-4.928,6.259-5.038
		c3.685-0.166,5.687,2.481,6.482,5.527c1.561,5.978-3.399,9.55-6.462,12.545c-3.409,13.713-9.763,25.75-22.971,32.126
		c-1.45,14.165-8.295,25.373-18.194,34.863l34.646,2.004c3.742-13.02,12.344-22.491,24.3-28.512
		c4.715-34.423,33.927-55.722,69.147-48.578c1.835-2.096,4.476-7.229,3.176-9.868c-1.843-3.742-3.329-6.786-1.093-10.642
		c1.818-3.135,5.963-4.537,9.947-2.997c3.076,1.189,5.482,4.361,4.983,8.254c-0.465,3.625-3.708,6.58-7.959,7.292l-2.944,9.896
		c17.108,6.612,29.052,20.033,34.608,38.142c5.188-5.229,10.196-14.4,7.638-21.871c-1.549-4.525-7.895-9.389-3.306-15.177
		c1.191-1.502,4.529-2.438,6.834-1.833c1.77,0.465,2.647,2.247,4.654,4.963c1.119-3.261,1.965-5.231,4.133-5.898
		c2.315-0.713,5.601-0.197,7.179,2.101c5.935,8.643-4.304,13.883-3.953,21.297c-1.106,15.096-8.981,27.722-22.068,35.26
		c-1.399,14.934-7.932,27.718-20.112,38.248c51.426,14.273,99.357,35.405,143.39,64.313l6.619,4.952
		c1.018,0.761,2.131,1.633,2.404,2.84C936.813,756.668,935.856,758.083,934.942,759.311z M623.623,266.245l-1.944-15.879
		c-0.739-1.768-2.391-3.155-4.04-2.964c-1.218,0.141-2.739,1.634-2.94,3.217l-2.02,15.876L623.623,266.245z M691.5,380.401
		c-7.079-22.856-16.144-43.638-28.51-63.325l-19.841-26.499c1.898,13.893,0.516,29.534-10.675,29.358
		c-4.445-0.07-8.349-3.028-9.608-7.806c-2.751-10.438,6.455-20.631,12.815-29.974c-9.271-9.926-12.921-12.237-26.372-9.99
		c-19.611,14.697-34.977,32.557-48.054,53.157c-33.004,51.994-42.768,115.4-43.25,176.908
		c62.238-34.077,127.884-38.366,190.465-0.098c-0.297-33.067-3.685-63.86-9.847-94.674c-4.634,0.318-8.167-0.48-10.444-3.094
		C682.669,398.039,686.338,389.14,691.5,380.401z M451.405,445.937c1.038-1.483,2.701-1.686,3.557-1.293
		c0.909,0.417,1.537,1.32,1.925,2.458c2.986,9.503,4.525,19.255,1.182,29.019c19.653,4.477,37.003,12.602,54.542,24.372
		c0.491-84.784,20.133-171.501,87.295-227.65c-48.789,3.458-99.611,25.027-138.811,51.156
		c-29.264,19.506-53.221,44.098-70.122,75.041c-15.57,29-25.774,59.895-30.212,93.694c23.621-15.41,49.69-21.544,77.372-19.406
		c0.203-5.234,1.252-9.515,3.631-13.613L451.405,445.937z M805.967,477.461c23.546,0.891,43.834,6.933,63.696,19.171
		c-5.829-46.225-21.916-95.28-50.606-130.579c-3.694-0.05-7.764,0.606-10.402-2.093c-6.057-6.199-0.421-10.755-6.876-16.874
		c-20.885-19.799-45.153-34.954-71.362-46.703c-1.872,9.669-6.774,15.719-14.16,13.828c-3.489-0.893-6.436-4.14-7.378-8.17
		c-1.104-4.724,0.795-9.185,2.559-14.044c-25.5-9.306-50.544-16.593-77.849-19.141c30.802,29.265,48.089,61.363,61.724,101.267
		c1.287-0.942,2.166-2.102,3.159-3.758c0.998-1.665,4.245-1.954,5.04,0.047c3.934,9.902,5.526,24.274-0.253,33.086
		c7.112,31.974,9.875,64.194,10.993,97.087c21.794-14.348,44.872-21.194,69.791-23.132c2.497-8.886,6.992-16.017,12.528-22.929
		c0.722-1.26,1.871-1.969,3.047-2.098c0.838-0.092,1.924,0.25,2.617,1.301C805.416,461.187,805.616,468.834,805.967,477.461z
		 M723.378,283.334l-7.409,11.654c-1.808,2.844-2.575,6.478-1.975,9.8c0.492,2.723,2.194,4.487,4.492,4.489
		C725.398,309.286,726.586,294.024,723.378,283.334z M637.17,289.255c-8.286,9.584-13.583,23.55-5.517,25.462
		C638.535,316.348,640.758,301.008,637.17,289.255z M819.795,335.772l-6.749,10.283c-2.02,3.078-3.189,6.834-2.631,10.51
		c0.434,2.859,2.557,4.614,5.016,4.401C821.985,360.399,822.748,346.525,819.795,335.772z M700.127,376.489
		c-7.479,9.716-13.92,23.644-5.62,25.754C701.794,404.096,703.505,388.358,700.127,376.489z M444.733,475.662
		c1.25,2.264,3.676,2.263,5.061,1.714c5.726-2.268,6.135-15.422,3.112-25.079l-8.194,13.388
		C443.06,468.384,443.022,472.564,444.733,475.662z M798.809,460.466c-8.189,9.137-13.245,23.369-5.252,24.603
		C800.796,486.185,802.292,471.666,798.809,460.466z M623.748,480.069l-11.205,0.003l0.041,159.892l11.205-0.003L623.748,480.069z
		 M597.063,545.873c0-1.544-1.252-2.796-2.796-2.796c-1.544,0-2.796,1.252-2.796,2.796c0,1.544,1.252,2.796,2.796,2.796
		C595.811,548.669,597.063,547.417,597.063,545.873z M430.468,567.234c0-1.682-1.363-3.045-3.045-3.045
		c-1.682,0-3.045,1.363-3.045,3.045s1.363,3.045,3.045,3.045C429.105,570.28,430.468,568.916,430.468,567.234z M774.314,570.193
		c0-1.64-1.329-2.969-2.969-2.969c-1.64,0-2.969,1.329-2.969,2.969c0,1.64,1.329,2.969,2.969,2.969
		C772.985,573.162,774.314,571.833,774.314,570.193z M607.515,640.421l-0.239-34.001c-0.022-3.097-0.166-4.789-0.147-7.91
		l0.174-28.624c-27.224-4.77-53.566,13.373-59.417,39.997c-4.733,21.534,5.927,42.699,24.199,54.008
		c9.618,5.953,20.215,8.061,31.746,6.661l-0.011-21.524C603.818,645.541,606.547,642.956,607.515,640.421z M632.999,655.36
		c22.08-21.531,19.431-56.394-4.137-75.345l0.63,59.987C629.536,644.188,635.037,649.089,632.999,655.36z M675.726,581.11
		c-2.02,4.577-4.154,5.105-7.209,4.997c-3.068-0.109-4.406-1.909-5.092-5.991c-3.036,2.582-1.645,5.039-0.14,6.973
		c2.466,3.17,10.368,3.862,12.201,0.894C676.663,586.075,678.463,583.769,675.726,581.11z M500.101,636.816
		c0-27.821-22.554-50.375-50.375-50.375s-50.375,22.554-50.375,50.375c0,27.821,22.554,50.375,50.375,50.375
		S500.101,664.637,500.101,636.816z M799.483,640.569c0-27.924-22.637-50.56-50.56-50.56c-27.924,0-50.56,22.636-50.56,50.56
		c0,27.923,22.636,50.56,50.56,50.56C776.846,691.129,799.483,668.493,799.483,640.569z M826.235,597.67
		c0.695-2.363,1.64-5.028-1.631-6.867c-0.577,4.433-2.225,6.233-5.104,6.542c-3.483,0.373-5.59-0.719-6.518-5.479
		c-3.127,2.088-1.635,5.066-0.261,6.897C815.16,602.013,825.075,601.617,826.235,597.67z M669.152,594.929
		c-1.535-1.056-4.179-0.789-4.588,0.103c-0.424,0.926-0.761,3.275-0.416,4.252c0.326,0.925,2.394,1.872,4.082,1.485
		C669.372,599.936,670.187,596.007,669.152,594.929z M665.617,606.156c-0.723-1.654-3.63-2.242-4.501-1.664
		c-0.863,0.573-1.896,2.579-1.664,3.746c0.202,1.016,2.288,2.609,3.637,2.473C664.336,610.512,666.133,607.339,665.617,606.156z
		 M816.6,604.877l-0.988,7.974l5.453,0.675l0.988-7.974L816.6,604.877z M659.321,615.945l-3.365-4.13
		c-3.109,1.566-3.55,4.734-2.641,8.211C655.675,619.145,657.326,617.832,659.321,615.945z M819.28,618.598
		c-1.431-1.541-4.326-1.75-4.93-0.806c-0.677,1.058-1.404,3.338-1.239,4.491c0.157,1.092,2.587,2.773,3.92,2.347
		C818.418,623.799,819.842,619.989,819.28,618.598z M539.925,635.201c3.151-3.246,3.261-5.866,1.209-8.806l-6.561,6.447
		C535.916,634.969,538.62,636.545,539.925,635.201z M805.686,638.466c4.157-3.028,6.81-6.014,9.04-9.177
		c-1.939-1.247-3.059-2.26-4.216-2.446C809.862,626.74,801.874,633.631,805.686,638.466z M513.51,637.482
		c-1.029-2.335-4.931-4.957-7.652-5.449c-3.069,4.217,4.311,9.038,5.349,8.528C511.943,640.199,514.223,639.098,513.51,637.482z
		 M531.545,637.761l-2.337,5.465l4.776,2.042l2.337-5.465L531.545,637.761z M541.734,664.346l19.623-1.629
		c-8.074-7.089-12.892-15.386-17.107-25.667c-4.144,5.913-7.881,12.129-7.03,18.834L541.734,664.346z M517.672,641.378l-4.31,2.835
		l3.496,5.317l4.31-2.835L517.672,641.378z M685.939,651.994c3.074-1.941,5.629-3.208,7.351-5.383
		c0.77-0.973,0.021-4.665-1.176-4.778c-4.037,0.613-6.581,4.331-9.499,7.299C681.661,650.101,684.272,653.046,685.939,651.994z
		 M509.937,668.108l4.152-8.055c0.252-7.091-3.891-12.828-9.227-17.437c-1.436,10.515-5.047,18.749-10.895,27.585L509.937,668.108z
		 M568.139,709.449c14.908,13.045,37.756,10.65,49.901-4.307c7.01-8.633,8.956-19.263,9.146-30.122l0.422-24.113
		c0.029-1.635,0.212-3.146-0.735-4.27c-0.766-0.909-2.21-1.634-3.902-1.654l-9.045-0.105c-2.622-0.03-4.804,1.512-4.814,4.27
		l-0.107,29.899c-0.024,6.815-2.568,13.866-7.791,17.946c-5.631,4.398-12.408,4.957-18.449,1.846
		c-13.176-6.785-3.47-23.628-16.318-24.207c-3.888-0.175-8.328,2.345-8.683,7.436C557.079,691.941,560.081,702.397,568.139,709.449z
		 M527.413,648.795l-0.122,5.65l5.009,0.108l0.122-5.65L527.413,648.795z M394.815,660.16c2.971-2.006,2.837-6.053,0.682-9.165
		c-2.047,2.077-4.015,4.45-5.256,8.046C391.051,659.753,393.691,660.919,394.815,660.16z M699.876,666.857
		c-2.315-4.558-3.743-8.689-5.105-14.364c-5.336,2.167-8.717,6.84-10.168,12.337L699.876,666.857z M678.252,654.234l-3.152,5.818
		l4.664,2.527l3.152-5.818L678.252,654.234z M535.08,667.746c2.462-3.356,0.631-5.839-1.06-7.203
		c-3.049-2.459-11.585-2.605-12.689,1.26c-0.62,2.172-1.275,5.318,1.562,6.681c1.011-3.75,2.868-6.333,5.678-6.399
		C531.593,662.014,533.579,664.077,535.08,667.746z M404.203,692.105l19.157-6.409c-10.251-5.404-17.829-13.317-23.658-24.021
		c-2.91,6.341-4.011,13.091-2.506,19.902C401.393,683.733,403.656,687.167,404.203,692.105z M387.884,663.898l-1.237,6.55
		l5.231,0.988l1.237-6.55L387.884,663.898z M673.03,665.031l-1.151,6.731l5.246,0.897l1.151-6.731L673.03,665.031z M581.198,674.239
		c-1.462-2.236-3.738-2.506-5.185-2.819c-0.866,2.834,0.612,3.887,1.589,4.541C579.273,677.078,582.038,675.524,581.198,674.239z
		 M391.722,675.172l-5.401,0.213l0.228,5.779l5.401-0.213L391.722,675.172z M603.971,675.917c-6.319,0.351-11.73,0.309-17.824-0.933
		c0.074,4.006-1.035,8.605,0.963,11.962c1.678,2.819,4.219,4.831,4.443,8.768C601.005,693.686,604.06,685.531,603.971,675.917z
		 M678.828,686.703c3.595-3,1.389-5.703,0.248-7.28c-2.028-2.804-10.527-4.373-12.993,0.187c-0.997,1.843-2.114,4.377,0.666,6.076
		c1.281-4.258,3.776-5.424,6.782-5.25C676.732,680.62,678.131,682.741,678.828,686.703z M581.105,679.947l-2.619,0.633l1.225,5.065
		l2.619-0.633L581.105,679.947z M481.286,687.465c0.481-1.058,0.103-2.89-0.767-4.256c-1.356,0.219-5.061,1.9-4.809,3.673
		C475.979,688.777,479.566,688.79,481.286,687.465z M398.289,693.276c1.744-3.981-0.684-5.432-1.819-6.357
		c-2.871-2.341-11.432-0.742-12.318,1.926c-0.906,2.729-1.281,5.71,1.794,6.989c0.432-4.666,2.316-6.428,5.592-6.792
		C394.52,688.711,396.32,690.821,398.289,693.276z M721.816,690.151c-0.604-1.728-2.828-2.534-3.931-3.354
		c-1.793,1.399-1.966,3.648,0.037,4.779C719.293,692.351,722.672,692.599,721.816,690.151z M440.814,691.643
		c-1.254-0.326-2.954-0.394-3.841-0.185c-0.685,0.161-0.61,1.965-0.354,2.625c0.308,0.793,5.162,1.059,5.477-0.578
		C442.208,692.923,442.069,691.968,440.814,691.643z M482.601,693.195c-1.519-0.636-4.545-0.571-5.461,0.446
		c-0.225,1.211-0.098,3.465,0.508,3.836c0.366,0.224,4.958-0.822,5.516-1.99C483.341,695.116,483.05,693.383,482.601,693.195z
		 M758.952,698.481c1.25,0.157,2.65-0.214,2.88-0.847c0.212-0.584,0.047-1.919-0.367-2.423c-0.106-0.129-4.951,0.038-5.461,1.348
		c-0.278,0.715,0.128,1.567,0.56,1.622L758.952,698.481z M715.585,695.707l-0.978,4.425l5.359,1.184l0.978-4.425L715.585,695.707z
		 M442.707,699.218l-5.728,0.462l0.317,3.929l5.728-0.462L442.707,699.218z M492.365,705.449c-2.941-4.878-6.593-4.512-10.49-3.965
		c-2.91,0.409-6.527,2.209-6.867,6.254C481.073,707.238,486.838,707.132,492.365,705.449z M755.52,703.181l-0.226,3.924l5.796,0.333
		l0.225-3.924L755.52,703.181z M722.97,711.477c-1.299-5.039-4.817-5.881-7.659-6.329c-3.369-0.532-6.786,0.359-8.77,4.264
		L722.97,711.477z M449.556,711.883c-2.954-4.498-6.801-4.313-10.719-3.49c-2.68,0.563-5.986,2.734-6.124,6.388
		C438.71,714.073,443.823,713.83,449.556,711.883z M765.928,718.53c-1.574-5.537-5.19-6.21-8.456-6.466
		c-3.666-0.288-6.67,0.15-8.611,3.945L765.928,718.53z"/>
	<path fill="#43443C" d="M402.014,274.342c-22.244,2.407-44.563-3.541-61.768-16.88c-22.084,19.683-56.016,26.432-80.156,9.17
		c-4.175-3.809-7.313-8.538-11.039-13.417c-26.428,8.047-55.152,1.946-65.927-24.111c-7.979-19.295,5.895-42.578,28.893-48.131
		c-9.298-19.692-2.708-41.161,15.547-52.478c12.148-7.531,26.284-9.059,40.89-5.35c7.16-37.893,39.98-64.432,77.974-58.531
		c20.011,3.108,36.568,14.546,48.601,31.219c12.417-11.323,29.51-14.566,44.357-7.262c11.244,5.532,18.164,15.676,21.596,28.282
		c9.051-3.568,18.914-4.875,27.317-0.155c10.113,5.681,14.622,16.532,14.825,28.349c12.095-1.098,23.827,2.131,30.999,11.801
		c7.061,9.52,6.523,21.727,0.794,32.015c9.069,4.36,16.549,11.058,19.637,20.556c4.09,12.58-1.01,24.801-10.85,33.602
		c-24.168,18.066-61.704,18.144-90.859,8.67C439.538,265.656,421.718,273.299,402.014,274.342z M447.602,249.306
		c2.65-2.752,4.457-3.377,7.787-2.339c20.534,6.403,42.674,7.822,63.443,2.191c9.182-2.49,17.178-6.176,23.625-12.566
		c8.938-8.86,11.301-21.569,3.855-31.941c-4.307-6-10.573-9.552-17.028-12.941c-1.046-1.899,0.908-5.051,1.694-6.711
		c4.021-8.493,4.51-18.126-1.545-25.457c-11.496-13.918-28.895-7.504-31.193-9.287c-1.851-1.436,1.932-16.34-8.486-25.991
		c-13.257-12.28-29.027,0.274-31.649-0.973c-3.03-1.442-3.208-23.155-23.439-31.024c-22.787-8.862-38.076,10.291-40.055,10.217
		c-0.905-0.034-1.84-0.503-2.587-1.647c-12.132-18.581-32.189-31.512-54.969-31.621c-32.876-0.157-58.773,24.845-63.112,56.811
		c-0.214,1.579-0.784,2.817-1.939,3.321c-1.793,0.781-25.233-10.449-46.213,7.324c-12.198,10.333-15.84,26.189-9.349,40.851
		c0.804,1.816,2.265,5.969,0.63,7.328c-9.012,2.448-16.945,6.145-23.085,13.143c-7.737,8.819-9.656,20.83-4.643,31.599
		c9.511,20.432,35.385,25.789,57.405,18.411c1.991-0.667,3.736-1.206,6.099-0.672c5.987,14.636,19.492,22.91,35.457,23.699
		c18.457,0.912,36.169-6.368,49.686-18.977c1.472-1.373,3.489-1.148,4.897,0.098C369.56,275.759,422.017,275.879,447.602,249.306z"
		/>
	<path fill="#43443C" d="M950.756,193.733c0,25.029-20.29,45.319-45.319,45.319c-25.029,0-45.319-20.29-45.319-45.319
		s20.29-45.319,45.319-45.319C930.466,148.414,950.756,168.704,950.756,193.733z M945.407,193.606
		c0-22.06-17.883-39.944-39.944-39.944s-39.944,17.883-39.944,39.944s17.883,39.944,39.944,39.944S945.407,215.666,945.407,193.606z
		"/>
	<path fill="#43443C" d="M683.244,516.462c4.243,0.78,9.593,30.274-1.58,36.88c-2.763,1.633-6.562,2.043-9.425,0.29
		c-5.838-3.573-6.44-10.715-4.172-16.901C670.739,529.444,679.982,515.862,683.244,516.462z M681.649,523.992
		c-7.811,9.231-13.415,23.18-6.084,25.299C683.276,551.522,685.124,535.915,681.649,523.992z"/>
	<path fill="#43443C" d="M463.321,490.963c4.251,2.101,9.331,38.207-7.753,37.44c-4.45-0.2-8.408-3.435-9.051-8.573
		c-1.28-10.229,5.83-19.607,13.045-28.258C460.438,490.52,462.262,490.439,463.321,490.963z M460.759,498.541
		c-8.535,9.148-13.158,23.432-5.224,24.631C462.371,524.206,464.383,509.821,460.759,498.541z"/>
	<path fill="#43443C" d="M576.355,495.677c7.854,14.738,5.319,39.276-8.775,37.312c-4.209-0.586-8.381-4.734-8.608-10.377
		c-0.343-8.533,6.176-16.282,11.013-23.618C571.024,497.42,574.69,493.198,576.355,495.677z M573.702,502.951
		c-8.613,9.902-13.327,23.801-5.123,25.054C575.824,529.111,577.358,513.625,573.702,502.951z"/>
	<path fill="#43443C" d="M234.8,316.262c-0.876,2.115-2.69,2.481-3.829,2.076c-1.413-0.503-2.279-2.408-1.554-4.085l9.911-22.923
		c0.508-1.176,2.166-0.95,2.852-0.902c0.856,0.06,2.777,1.32,2.249,2.594L234.8,316.262z"/>
	<path fill="#43443C" d="M471.547,300.086c-0.911,2.166-2.406,2.739-3.631,2.32c-1.724-0.59-2.393-2.438-1.659-4.207l8.793-21.19
		c0.741-1.785,2.433-2.307,4.124-1.642c1.234,0.485,1.869,2.129,1.095,3.969L471.547,300.086z"/>
	<path fill="#43443C" d="M257.86,418.463c-0.922,2.175-2.633,2.82-4.182,2.277c-1.509-0.529-1.938-2.521-1.154-4.327l9.054-20.871
		c0.657-1.513,2.559-1.74,3.684-1.302c0.885,0.344,1.997,2.053,1.337,3.61L257.86,418.463z"/>
	<path fill="#43443C" d="M296.545,442.131c-0.738,1.769-2.577,1.925-3.781,1.525c-0.887-0.294-1.949-1.913-1.298-3.448l9.435-22.239
		c0.462-1.089,2.632-0.815,3.351-0.608c1,0.289,1.902,1.729,1.209,3.39L296.545,442.131z"/>
	<path fill="#43443C" d="M240.25,370.768c-0.802,1.884-2.507,1.987-3.552,1.818c-1.2-0.194-2.271-2.015-1.609-3.57l9.503-22.332
		c0.433-1.017,2.813-0.82,3.559-0.454c0.848,0.416,1.853,1.614,1.126,3.324L240.25,370.768z"/>
	<path fill="#43443C" d="M293.373,367.889c-0.77,1.775-2.747,1.79-3.644,1.555c-1.432-0.375-2.15-2.463-1.372-4.194l9.568-21.289
		c0.515-1.145,2.502-1.035,3.356-0.729c0.996,0.357,1.979,1.867,1.235,3.581L293.373,367.889z"/>
	<path fill="#43443C" d="M420.727,312.313c-0.838,1.942-2.494,2.464-3.707,2.001c-1.473-0.563-1.963-2.215-1.307-3.819l8.443-20.618
		c0.749-1.828,1.906-2.839,3.346-2.752c2.405,0.146,3.117,2.279,2.15,4.518L420.727,312.313z"/>
	<path fill="#43443C" d="M960.008,149.348l-8.288,7.257c-0.96,0.841-3.402,0.176-3.94-0.674c-0.469-0.741-0.253-2.653,0.64-3.508
		l16.261-15.584c1.169-1.12,3.168-1.365,4.334-0.44c0.96,0.762,1.166,2.901-0.303,4.352L960.008,149.348z"/>
	<path fill="#43443C" d="M278.415,317.917c-0.7,1.629-2.771,1.547-3.769,1.07c-0.902-0.432-1.714-1.943-0.959-3.682l9.594-22.084
		c0.487-1.121,2.396-1.3,3.167-1.071c1.217,0.362,2.164,2.022,1.447,3.693L278.415,317.917z"/>
	<path fill="#43443C" d="M329.199,312.685c-0.81,1.928-2.364,2.559-3.621,2.139c-1.268-0.423-2.07-2.234-1.438-3.82l8.513-21.378
		c0.616-1.547,2.855-1.976,3.873-1.721c1.488,0.373,2.181,2.142,1.426,3.94L329.199,312.685z"/>
	<path fill="#43443C" d="M373.375,321.904c-0.868,2.084-1.988,2.766-3.533,2.502c-1.026-0.175-2.862-1.498-2.2-3.076l9.074-21.623
		c0.612-1.458,2.589-1.991,3.689-1.604c1.128,0.397,2.014,2.093,1.334,3.727L373.375,321.904z"/>
	<path fill="#43443C" d="M384.357,363.899c-0.878,2.073-2.525,2.821-3.925,2.431c-1.335-0.373-2.198-2.747-1.443-4.466l9.126-20.781
		c0.625-1.423,2.049-1.634,3.125-1.565c1.163,0.075,2.801,1.521,2.121,3.126L384.357,363.899z"/>
	<path fill="#43443C" d="M965.379,255.786c-2.418,2.454-6.439-1.581-10.515-6.505l-8.674-10.481
		c-0.996-1.203-1.001-2.443-0.284-3.405c0.861-1.155,2.666-1.585,3.922-0.225l15.835,17.135
		C966.524,253.237,965.924,255.232,965.379,255.786z"/>
	<path fill="#43443C" d="M335.443,377.933c-0.69,1.647-2.055,2.375-2.96,2.553c-0.944,0.186-3.391-1.251-2.87-2.485l9.598-22.727
		c0.55-1.303,2.389-1.611,3.292-1.345c1.339,0.394,2.089,2.147,1.35,3.912L335.443,377.933z"/>
	<path fill="#43443C" d="M910.433,133.727c-0.054,1.664-0.54,3.102-1.356,3.765c-0.598,0.485-1.945,0.678-3.068,0.002
		c-0.861-0.518-1.373-1.937-1.3-3.623l0.852-19.794c0.082-1.906,0.894-3.263,2.219-3.568c2.117-0.487,3.368,1.082,3.292,3.434
		L910.433,133.727z"/>
	<path fill="#43443C" d="M339.952,437.958c-0.538,1.217-3.228,0.94-3.943,0.336c-2.267-1.914,4.806-13.892,8.274-24.057
		c0.521-1.526,2.842-2.139,3.763-1.695c1.362,0.658,2.169,2.205,1.428,3.88L339.952,437.958z"/>
	<path fill="#43443C" d="M865.503,148.913c1.244,1.384,1.093,3.127,0.682,3.916c-0.433,0.831-2.974,1.729-3.848,0.745
		l-14.953-16.829c-0.927-1.043-0.925-2.727-0.481-3.44c0.588-0.945,3.172-1.562,4.248-0.365L865.503,148.913z"/>
	<path fill="#43443C" d="M849.758,253.206c-1.22,1.259-3.186,0.846-3.858,0.357c-0.915-0.666-1.517-2.63-0.358-4.049l4.936-6.046
		l10.26-9.738c1.085-1.029,3.102-1.191,4.24-0.287c0.953,0.758,1.119,2.903-0.243,4.309L849.758,253.206z"/>
	<path fill="#43443C" d="M989.887,198.986l-23.794-0.272c-2.152-0.025-2.369-5.04-0.646-5.031l24.407,0.134
		c1.642,0.009,2.52,1.763,2.525,2.664C992.386,197.555,991.605,199.005,989.887,198.986z"/>
	<path fill="#43443C" d="M847.361,194.989l-25.896-0.234l-1.365-4.79l24.908-0.014c1.462-0.001,2.045,0.741,2.658,0.99
		C848.639,191.335,848.878,195.002,847.361,194.989z"/>
	<path fill="#43443C" d="M907.863,275.388c-0.011,1.962-1.497,3.108-2.518,3.045c-0.871-0.054-2.602-0.973-2.587-2.583l0.218-23.812
		c0.012-1.304,1.789-1.798,2.493-1.71c0.692,0.086,2.528,0.509,2.522,1.654L907.863,275.388z"/>
	<path fill="#8DA990" d="M561.744,670.251c-0.307-0.874-0.982-1.573-1.311-2.086c3.54-0.236,7.49-1.412,10.856,1.356
		L561.744,670.251z"/>
	<path fill="#E37660" d="M691.5,380.401c-5.162,8.739-8.832,17.638-3.321,23.963c2.278,2.614,5.81,3.412,10.444,3.094
		c6.162,30.814,9.55,61.607,9.847,94.674c-62.582-38.268-128.227-33.979-190.465,0.098c0.482-61.508,10.246-124.915,43.25-176.908
		c13.077-20.601,28.443-38.461,48.054-53.157c13.451-2.247,17.101,0.064,26.372,9.99c-6.36,9.343-15.567,19.535-12.815,29.974
		c1.259,4.779,5.163,7.736,9.608,7.806c11.192,0.176,12.574-15.465,10.675-29.358l19.841,26.499
		C675.357,336.763,684.421,357.546,691.5,380.401z M602.66,375.04c3.249-10.388,0.282-29.162-4.295-29.593
		c-2.123-0.2-13.885,14.581-15.484,24.327c-1.026,6.254,1.957,12.069,7.553,13.249C595.586,384.109,600.721,381.239,602.66,375.04z
		 M674.274,422.556c2.693-9.573,1.567-20.49-2.582-29.098c-2.332-2.013-5.509,1.884-6.588,3.481
		c-4.642,6.869-9.851,12.858-10.688,21.047c-0.605,5.921,2.177,11.248,7.554,12.492C667.059,431.655,672.469,428.97,674.274,422.556
		z M578.406,423.073c-1.005-0.182-2.428,0.099-3.224,1.127c-6.855,8.852-15.267,20.425-12.16,29.737
		c1.624,4.867,5.679,7.449,10.39,7.043C589.671,459.58,583.359,423.969,578.406,423.073z"/>
	<path fill="#E37660" d="M805.967,477.461c-0.351-8.627-0.552-16.274-3.731-23.733c-0.693-1.052-1.779-1.394-2.617-1.301
		c-1.176,0.129-2.326,0.839-3.047,2.098c-5.536,6.912-10.032,14.043-12.528,22.929c-24.919,1.937-47.998,8.784-69.791,23.132
		c-1.118-32.893-3.881-65.112-10.993-97.087c5.778-8.812,4.187-23.184,0.253-33.086c-0.795-2.001-4.041-1.712-5.04-0.047
		c-0.993,1.656-1.872,2.816-3.159,3.758c-13.635-39.904-30.922-72.002-61.724-101.267c27.305,2.548,52.349,9.835,77.849,19.141
		c-1.764,4.859-3.663,9.32-2.559,14.044c0.942,4.03,3.889,7.276,7.378,8.17c7.385,1.891,12.288-4.159,14.16-13.828
		c26.208,11.749,50.477,26.904,71.362,46.703c6.455,6.119,0.819,10.675,6.876,16.874c2.638,2.699,6.708,2.043,10.402,2.093
		c28.69,35.299,44.777,84.354,50.606,130.579C849.801,484.393,829.513,478.352,805.967,477.461z M782.284,383.65
		c-1.022-2.276-5.107,0.099-6.06,1.469c-4.208,6.046-8.632,11.139-10.846,18.075c-1.887,5.911-1.103,12.635,4.483,15.903
		c3.161,1.849,7.501,1.317,10.51-0.995C788.091,412.17,787.039,394.234,782.284,383.65z"/>
	<path fill="#E37660" d="M451.405,445.937l-9.639,13.777c-2.379,4.099-3.428,8.379-3.631,13.613
		c-27.682-2.138-53.752,3.996-77.372,19.406c4.438-33.799,14.641-64.694,30.212-93.694c16.901-30.943,40.858-55.535,70.122-75.041
		c39.2-26.129,90.022-47.697,138.811-51.156c-67.162,56.149-86.804,142.866-87.295,227.65
		c-17.539-11.77-34.889-19.895-54.542-24.372c3.343-9.764,1.803-19.516-1.182-29.019c-0.388-1.139-1.017-2.042-1.925-2.458
		C454.105,444.251,452.442,444.454,451.405,445.937z M452.706,338.728l-10.525,16.434c-2.867,4.477-3.137,10.568-0.679,15.341
		c2.125,4.127,6.305,5.169,10.819,4.424C467.847,372.368,459.976,327.376,452.706,338.728z M415.255,399.349
		c-3.861-0.868-10.751,10.455-14.169,17.691c-1.831,3.876-2.529,8.187-1.41,12.351c1.25,4.648,5.339,7.583,9.76,7.428
		C425.915,436.239,420.618,400.555,415.255,399.349z"/>
	<path fill="#EECF75" d="M500.101,636.816c0,27.821-22.554,50.375-50.375,50.375s-50.375-22.554-50.375-50.375
		c0-27.821,22.554-50.375,50.375-50.375S500.101,608.994,500.101,636.816z M475.818,617.138c0-2.411-1.954-4.365-4.365-4.365
		c-2.411,0-4.365,1.954-4.365,4.365c0,2.411,1.954,4.365,4.365,4.365C473.864,621.502,475.818,619.548,475.818,617.138z
		 M439.096,628.439c0-2.454-1.989-4.443-4.443-4.443s-4.443,1.989-4.443,4.443c0,2.454,1.989,4.443,4.443,4.443
		S439.096,630.893,439.096,628.439z M469.586,628.516l-24.53,7.853c0.906,8.103,9.344,11.482,16.325,9.373
		C468.095,643.715,472.458,636.297,469.586,628.516z"/>
	<path fill="#EECF75" d="M799.483,640.569c0,27.923-22.637,50.56-50.56,50.56c-27.924,0-50.56-22.636-50.56-50.56
		c0-27.924,22.636-50.56,50.56-50.56C776.846,590.009,799.483,612.646,799.483,640.569z M731.658,618.613
		c0-2.424-1.965-4.388-4.388-4.388c-2.424,0-4.388,1.965-4.388,4.388c0,2.424,1.965,4.388,4.388,4.388
		C729.693,623.002,731.658,621.037,731.658,618.613z M754.483,635.258c-7.631-4.15-16.299-5.93-24.689-8.41
		c-2.931,5.344-1.231,11.702,2.387,15.473c4.015,4.185,9.188,5.167,15.088,3.766C751.326,645.124,756.787,639.516,754.483,635.258z
		 M769.726,631.199c0-2.412-1.955-4.367-4.367-4.367c-2.412,0-4.367,1.955-4.367,4.367c0,2.412,1.955,4.367,4.367,4.367
		C767.77,635.566,769.726,633.611,769.726,631.199z"/>
	<path fill="#EECF75" d="M607.515,640.421c-0.968,2.535-3.697,5.12-3.695,8.607l0.011,21.524c-11.531,1.4-22.127-0.708-31.746-6.661
		c-18.272-11.309-28.932-32.474-24.199-54.008c5.851-26.624,32.193-44.767,59.417-39.997l-0.174,28.624
		c-0.019,3.121,0.125,4.813,0.147,7.91L607.515,640.421z M579.223,605.712c0-2.413-1.956-4.369-4.369-4.369
		s-4.369,1.956-4.369,4.369c0,2.413,1.956,4.369,4.369,4.369S579.223,608.125,579.223,605.712z M583.683,617.816
		c2.753,4.765,6.945,6.347,11.638,5.903c4.181-0.395,8.1-3.161,9.62-7.859c0.504-1.556-0.146-3.189-1.574-3.503
		c-2.978-0.655-3.301,6.325-8.924,6.708c-5.612,0.382-7.009-7.296-10.661-4.805C583.088,614.733,582.931,616.514,583.683,617.816z"
		/>
	<path fill="#E37660" d="M568.139,709.449c-8.059-7.052-11.06-17.508-10.373-27.381c0.354-5.091,4.795-7.611,8.683-7.436
		c12.847,0.579,3.141,17.422,16.318,24.207c6.041,3.111,12.818,2.552,18.449-1.846c5.224-4.079,7.767-11.131,7.791-17.946
		l0.107-29.899c0.01-2.758,2.191-4.3,4.814-4.27l9.045,0.105c1.691,0.02,3.136,0.744,3.902,1.654
		c0.947,1.124,0.764,2.636,0.735,4.27l-0.422,24.113c-0.19,10.859-2.136,21.489-9.146,30.122
		C605.896,720.099,583.047,722.494,568.139,709.449z"/>
	<rect x="612.563" y="480.07" fill="#A9CAAD" width="11.205" height="159.892"/>
	<path fill="#EECF75" d="M632.999,655.36c2.039-6.271-3.463-11.172-3.507-15.357l-0.63-59.987
		C652.43,598.966,655.078,633.829,632.999,655.36z"/>
	<path fill="#FAF6E8" d="M404.203,692.105c-0.547-4.938-2.81-8.372-7.007-10.529c-1.505-6.811-0.404-13.561,2.506-19.902
		c5.83,10.704,13.407,18.617,23.658,24.021L404.203,692.105z"/>
	<path fill="#FAF6E8" d="M541.734,664.346l-4.514-8.461c-0.851-6.705,2.886-12.922,7.03-18.834
		c4.216,10.281,9.033,18.578,17.107,25.667L541.734,664.346z"/>
	<path fill="#FAF6E8" d="M509.937,668.108l-15.969,2.093c5.848-8.836,9.459-17.07,10.895-27.585
		c5.336,4.609,9.479,10.346,9.227,17.437L509.937,668.108z"/>
	<path fill="#A9CAAD" d="M603.971,675.917c0.089,9.615-2.967,17.769-12.419,19.797c-0.224-3.937-2.765-5.949-4.443-8.768
		c-1.998-3.356-0.888-7.956-0.963-11.962C592.242,676.226,597.652,676.268,603.971,675.917z"/>
	<path fill="#A9CAAD" d="M700.127,376.489c3.377,11.869,1.667,27.606-5.62,25.754C686.207,400.133,692.649,386.205,700.127,376.489z
		"/>
	<path fill="#A9CAAD" d="M723.378,283.334c3.208,10.69,2.02,25.952-4.892,25.943c-2.298-0.003-3.999-1.767-4.492-4.489
		c-0.601-3.322,0.167-6.956,1.975-9.8L723.378,283.334z"/>
	<path fill="#A9CAAD" d="M637.17,289.255c3.588,11.752,1.365,27.093-5.517,25.462C623.587,312.805,628.884,298.839,637.17,289.255z"
		/>
	<path fill="#8DA990" d="M444.733,475.662c-1.711-3.098-1.673-7.278-0.021-9.977l8.194-13.388
		c3.023,9.656,2.614,22.811-3.112,25.079C448.41,477.925,445.983,477.926,444.733,475.662z"/>
	<path fill="#A9CAAD" d="M798.809,460.466c3.483,11.2,1.987,25.719-5.252,24.603C785.563,483.835,790.62,469.603,798.809,460.466z"
		/>
	<path fill="#A9CAAD" d="M819.795,335.772c2.953,10.753,2.19,24.627-4.364,25.194c-2.46,0.213-4.583-1.542-5.016-4.401
		c-0.558-3.676,0.612-7.432,2.631-10.51L819.795,335.772z"/>
	<path fill="#A9CAAD" d="M623.623,266.245l-10.945,0.25l2.02-15.876c0.202-1.584,1.722-3.076,2.94-3.217
		c1.649-0.191,3.301,1.196,4.04,2.964L623.623,266.245z"/>
	<path fill="#FAF6E8" d="M699.876,666.857l-15.274-2.027c1.451-5.497,4.833-10.17,10.168-12.337
		C696.133,658.168,697.561,662.298,699.876,666.857z"/>
	<path fill="#A9CAAD" d="M492.365,705.449c-5.526,1.683-11.292,1.789-17.357,2.289c0.34-4.045,3.957-5.845,6.867-6.254
		C485.771,700.937,489.424,700.57,492.365,705.449z"/>
	<path fill="#8DA990" d="M826.235,597.67c-1.16,3.947-11.075,4.343-13.514,1.093c-1.375-1.832-2.867-4.809,0.261-6.897
		c0.928,4.76,3.036,5.852,6.518,5.479c2.879-0.309,4.527-2.109,5.104-6.542C827.875,592.642,826.93,595.307,826.235,597.67z"/>
	<path fill="#A9CAAD" d="M765.928,718.53l-17.067-2.522c1.941-3.794,4.945-4.232,8.611-3.945
		C760.738,712.32,764.353,712.993,765.928,718.53z"/>
	<path fill="#A9CAAD" d="M449.556,711.883c-5.734,1.946-10.847,2.189-16.843,2.898c0.138-3.654,3.444-5.825,6.124-6.388
		C442.756,707.57,446.602,707.386,449.556,711.883z"/>
	<path fill="#8DA990" d="M678.828,686.703c-0.697-3.962-2.096-6.083-5.297-6.268c-3.006-0.174-5.501,0.992-6.782,5.25
		c-2.78-1.699-1.663-4.233-0.666-6.076c2.467-4.559,10.965-2.991,12.993-0.187C680.216,681,682.423,683.703,678.828,686.703z"/>
	<path fill="#A9CAAD" d="M535.08,667.746c-1.501-3.669-3.487-5.732-6.509-5.661c-2.81,0.066-4.668,2.649-5.678,6.399
		c-2.837-1.363-2.182-4.509-1.562-6.681c1.104-3.864,9.64-3.719,12.689-1.26C535.711,661.907,537.542,664.39,535.08,667.746z"/>
	<path fill="#A9CAAD" d="M722.97,711.477l-16.428-2.066c1.984-3.904,5.401-4.795,8.77-4.264
		C718.153,705.596,721.671,706.438,722.97,711.477z"/>
	<path fill="#8DA990" d="M398.289,693.276c-1.97-2.454-3.769-4.565-6.751-4.233c-3.276,0.364-5.16,2.126-5.592,6.792
		c-3.076-1.279-2.7-4.26-1.794-6.989c0.886-2.669,9.447-4.267,12.318-1.926C397.605,687.843,400.033,689.294,398.289,693.276z"/>
	<path fill="#8DA990" d="M675.726,581.11c2.737,2.659,0.938,4.965-0.24,6.872c-1.833,2.968-9.735,2.276-12.201-0.894
		c-1.505-1.934-2.896-4.391,0.14-6.973c0.686,4.083,2.025,5.882,5.092,5.991C671.571,586.215,673.705,585.687,675.726,581.11z"/>
	<path fill="#A9CAAD" d="M685.939,651.994c-1.667,1.052-4.278-1.893-3.324-2.862c2.918-2.967,5.462-6.686,9.499-7.299
		c1.197,0.114,1.946,3.805,1.176,4.778C691.568,648.786,689.013,650.053,685.939,651.994z"/>
	<path fill="#8DA990" d="M805.686,638.466c-3.812-4.835,4.176-11.727,4.824-11.623c1.157,0.186,2.277,1.199,4.216,2.446
		C812.496,632.453,809.843,635.438,805.686,638.466z"/>
	<path fill="#8DA990" d="M513.51,637.482c0.713,1.617-1.568,2.718-2.303,3.079c-1.038,0.51-8.418-4.311-5.349-8.528
		C508.579,632.525,512.481,635.147,513.51,637.482z"/>
	
		<rect x="814.815" y="606.455" transform="matrix(0.1229 -0.9924 0.9924 0.1229 113.6076 1346.9497)" fill="#8DA990" width="8.035" height="5.495"/>
	<path fill="#8DA990" d="M539.925,635.201c-1.305,1.345-4.009-0.232-5.352-2.358l6.561-6.447
		C543.186,629.335,543.076,631.954,539.925,635.201z"/>
	<path fill="#8DA990" d="M394.815,660.16c-1.124,0.759-3.764-0.407-4.574-1.119c1.241-3.596,3.209-5.969,5.256-8.046
		C397.652,654.107,397.786,658.154,394.815,660.16z"/>
	<path fill="#8DA990" d="M819.28,618.598c0.563,1.392-0.862,5.201-2.249,6.032c-1.333,0.426-3.763-1.254-3.92-2.347
		c-0.166-1.153,0.562-3.433,1.239-4.491C814.953,616.848,817.849,617.057,819.28,618.598z"/>
	<path fill="#8DA990" d="M669.152,594.929c1.035,1.079,0.22,5.007-0.922,5.84c-1.688,0.388-3.755-0.56-4.082-1.485
		c-0.345-0.977-0.008-3.326,0.416-4.252C664.973,594.14,667.617,593.873,669.152,594.929z"/>
	
		<rect x="386.549" y="665.006" transform="matrix(0.1855 -0.9826 0.9826 0.1855 -338.5329 926.8962)" fill="#8DA990" width="6.666" height="5.323"/>
	<circle fill="#EECF75" cx="427.423" cy="567.234" r="3.045"/>
	
		<rect x="671.663" y="666.184" transform="matrix(0.1686 -0.9857 0.9857 0.1686 -98.0028 1221.5026)" fill="#8DA990" width="6.829" height="5.323"/>
	<path fill="#8DA990" d="M659.321,615.945c-1.996,1.888-3.646,3.201-6.007,4.081c-0.909-3.478-0.467-6.645,2.641-8.211
		L659.321,615.945z"/>
	<path fill="#8DA990" d="M665.617,606.156c0.517,1.183-1.281,4.355-2.529,4.556c-1.349,0.136-3.435-1.457-3.637-2.473
		c-0.232-1.167,0.801-3.174,1.664-3.746C661.987,603.914,664.894,604.502,665.617,606.156z"/>
	
		<rect x="386.432" y="675.276" transform="matrix(0.9992 -0.0393 0.0393 0.9992 -26.376 15.8324)" fill="#8DA990" width="5.405" height="5.783"/>
	<circle fill="#EECF75" cx="771.345" cy="570.193" r="2.969"/>
	
		<rect x="514.685" y="642.272" transform="matrix(0.8355 -0.5494 0.5494 0.8355 -269.5662 390.3641)" fill="#8DA990" width="5.159" height="6.364"/>
	
		<rect x="675.7" y="655.755" transform="matrix(0.4764 -0.8792 0.8792 0.4764 -223.3599 941.7516)" fill="#8DA990" width="6.617" height="5.305"/>
	
		<rect x="529.793" y="638.918" transform="matrix(0.3932 -0.9195 0.9195 0.3932 -266.55 879.1609)" fill="#8DA990" width="5.944" height="5.194"/>
	<circle fill="#EECF75" cx="594.267" cy="545.873" r="2.796"/>
	
		<rect x="527.031" y="649.169" transform="matrix(0.0216 -0.9998 0.9998 0.0216 -133.1064 1167.3367)" fill="#8DA990" width="5.651" height="5.01"/>
	<path fill="#8DA990" d="M482.601,693.195c0.449,0.188,0.74,1.922,0.563,2.292c-0.559,1.168-5.15,2.214-5.516,1.99
		c-0.606-0.371-0.733-2.625-0.508-3.836C478.056,692.624,481.081,692.558,482.601,693.195z"/>
	
		<rect x="715.51" y="695.767" transform="matrix(0.2158 -0.9764 0.9764 0.2158 -119.1508 1248.6692)" fill="#8DA990" width="4.532" height="5.488"/>
	
		<rect x="437.128" y="699.442" transform="matrix(0.9968 -0.0804 0.0804 0.9968 -55.0011 37.6706)" fill="#8DA990" width="5.747" height="3.942"/>
	
		<rect x="756.341" y="702.407" transform="matrix(0.0574 -0.9984 0.9984 0.0574 10.6468 1421.8951)" fill="#8DA990" width="3.93" height="5.806"/>
	<path fill="#8DA990" d="M481.286,687.465c-1.719,1.325-5.307,1.312-5.576-0.583c-0.253-1.773,3.453-3.454,4.809-3.673
		C481.389,684.575,481.767,686.407,481.286,687.465z"/>
	<path fill="#8DA990" d="M440.814,691.643c1.255,0.326,1.394,1.281,1.282,1.862c-0.315,1.637-5.169,1.37-5.477,0.578
		c-0.257-0.66-0.331-2.464,0.354-2.625C437.86,691.249,439.56,691.317,440.814,691.643z"/>
	<path fill="#8DA990" d="M721.816,690.151c0.856,2.448-2.523,2.2-3.894,1.425c-2.003-1.131-1.83-3.38-0.037-4.779
		C718.989,687.618,721.212,688.423,721.816,690.151z"/>
	<path fill="#8DA990" d="M581.198,674.239c0.84,1.284-1.925,2.838-3.596,1.721c-0.978-0.654-2.455-1.707-1.589-4.541
		C577.461,671.733,579.736,672.004,581.198,674.239z"/>
	<path fill="#8DA990" d="M758.952,698.481l-2.389-0.301c-0.433-0.054-0.838-0.907-0.56-1.622c0.511-1.311,5.355-1.478,5.461-1.348
		c0.414,0.504,0.579,1.84,0.367,2.423C761.602,698.267,760.202,698.638,758.952,698.481z"/>
	
		<rect x="579.061" y="680.19" transform="matrix(0.972 -0.235 0.235 0.972 -144.1999 155.5131)" fill="#8DA990" width="2.694" height="5.211"/>
	<path fill="#8DA990" d="M447.602,249.306c-25.585,26.573-78.042,26.453-104.715,2.846c-1.408-1.246-3.425-1.472-4.897-0.098
		c-13.517,12.609-31.229,19.889-49.686,18.977c-15.964-0.789-29.47-9.063-35.457-23.699c-2.363-0.534-4.108,0.004-6.099,0.672
		c-22.02,7.378-47.893,2.021-57.405-18.411c-5.013-10.769-3.093-22.78,4.643-31.599c6.14-6.998,14.073-10.695,23.085-13.143
		c1.635-1.359,0.174-5.512-0.63-7.328c-6.491-14.661-2.848-30.518,9.349-40.851c20.98-17.773,44.42-6.542,46.213-7.324
		c1.156-0.504,1.725-1.742,1.939-3.321c4.339-31.966,30.237-56.968,63.112-56.811c22.78,0.109,42.837,13.039,54.969,31.621
		c0.747,1.144,1.681,1.613,2.587,1.647c1.979,0.074,17.268-19.079,40.055-10.217c20.231,7.868,20.41,29.582,23.439,31.024
		c2.621,1.248,18.392-11.307,31.649,0.973c10.418,9.651,6.636,24.554,8.486,25.991c2.298,1.783,19.697-4.631,31.193,9.287
		c6.056,7.332,5.567,16.964,1.545,25.457c-0.786,1.66-2.74,4.813-1.694,6.711c6.456,3.389,12.721,6.94,17.028,12.941
		c7.445,10.372,5.083,23.081-3.855,31.941c-6.447,6.39-14.443,10.077-23.625,12.566c-20.768,5.631-42.908,4.213-63.443-2.191
		C452.059,245.929,450.251,246.554,447.602,249.306z M343.681,177.649c3.714,1.223,4.844,1.968,7.223,1.931
		c1.755-0.027,2.915-1.747,2.807-2.961c-0.176-1.991-1.84-2.121-3.561-2.697c-16.007-5.363-30.829-18.961-33.66-15.79
		c-1.386,1.553-0.811,3.588,0.853,4.507l11.97,6.613c-4.177,10.265-1.791,22.502,6.172,22.462
		C340.783,191.687,343.836,185.283,343.681,177.649z M392.493,190.77c8.013-0.196,10.354-12.232,6.129-22.514l11.781-6.797
		c1.079-0.622,0.764-2.826,0.188-3.513c-0.676-0.807-1.773-1.271-3.203-0.5l-29.314,15.801c-1.775,0.957-4.071,0.697-3.797,3.348
		c0.139,1.349,1.918,2.897,3.685,2.273l5.938-2.097C383.635,184.849,386.311,190.921,392.493,190.77z M350.715,206.176
		c14.361-8.588,31.509-3.429,39.37,10.768c0.748,1.35,3.09,1.969,3.976,1.367c4.64-3.156-10.291-24.683-34.059-20.867
		c-17.151,2.754-30.173,19.577-25.957,21.964C338.287,221.81,339.924,212.629,350.715,206.176z"/>
	<path fill="#EECF75" d="M945.407,193.606c0,22.06-17.883,39.944-39.944,39.944s-39.944-17.883-39.944-39.944
		s17.883-39.944,39.944-39.944S945.407,171.546,945.407,193.606z M892.077,190.142c0-2.22-1.8-4.02-4.02-4.02s-4.02,1.8-4.02,4.02
		s1.8,4.02,4.02,4.02S892.077,192.363,892.077,190.142z M927.47,191.787c0-2.3-1.865-4.165-4.165-4.165s-4.165,1.865-4.165,4.165
		s1.865,4.165,4.165,4.165S927.47,194.087,927.47,191.787z M904.599,206.096c-6.689-0.432-6.107-8.089-10.124-7.12
		c-1.429,0.345-1.737,2.104-1.169,3.814c1.883,5.672,6.644,8.579,12.186,8.256c4.829-0.281,9.651-2.967,11.438-8.165
		c0.56-1.628-0.116-3.266-1.535-3.617C911.996,198.425,911.849,206.565,904.599,206.096z"/>
	<path fill="#A9CAAD" d="M681.649,523.992c3.475,11.923,1.627,27.529-6.084,25.299C668.234,547.172,673.838,533.223,681.649,523.992
		z"/>
	<path fill="#A9CAAD" d="M460.759,498.541c3.624,11.28,1.612,25.665-5.224,24.631C447.6,521.973,452.224,507.689,460.759,498.541z"
		/>
	<path fill="#A9CAAD" d="M573.702,502.951c3.656,10.674,2.122,26.161-5.123,25.054C560.375,526.752,565.089,512.853,573.702,502.951
		z"/>
	<path fill="#43443C" d="M578.406,423.073c4.953,0.896,11.265,36.507-4.994,37.907c-4.711,0.406-8.766-2.176-10.39-7.043
		c-3.108-9.312,5.305-20.885,12.16-29.737C575.978,423.172,577.401,422.891,578.406,423.073z M576.839,430.608
		c-8.218,9.444-13.365,24.118-5.25,25.307C579.039,457.007,580.434,441.968,576.839,430.608z"/>
	<path fill="#43443C" d="M674.274,422.556c-1.805,6.414-7.214,9.099-12.303,7.922c-5.377-1.243-8.16-6.57-7.554-12.492
		c0.837-8.189,6.046-14.178,10.688-21.047c1.08-1.598,4.256-5.494,6.588-3.481C675.841,402.066,676.967,412.984,674.274,422.556z
		 M669.071,400.383c-8.639,9.57-13.443,24.111-5.391,25.353C670.786,426.832,672.344,411.8,669.071,400.383z"/>
	<path fill="#43443C" d="M602.66,375.04c-1.939,6.199-7.073,9.07-12.226,7.983c-5.596-1.18-8.579-6.995-7.553-13.249
		c1.599-9.745,13.361-24.527,15.484-24.327C602.942,345.878,605.908,364.652,602.66,375.04z M597.471,352.885
		c-8.069,9.117-13.345,23.559-5.956,25.3C598.962,379.94,600.568,364.643,597.471,352.885z"/>
	<path fill="#43443C" d="M782.284,383.65c4.755,10.584,5.806,28.521-1.913,34.451c-3.009,2.311-7.349,2.844-10.51,0.995
		c-5.587-3.268-6.37-9.992-4.483-15.903c2.214-6.936,6.638-12.029,10.846-18.075C777.177,383.749,781.262,381.373,782.284,383.65z
		 M779.168,389.57c-8.344,9.806-13.607,23.997-5.682,25.39C781.095,416.298,782.364,401.043,779.168,389.57z"/>
	<path fill="#43443C" d="M415.255,399.349c5.363,1.206,10.661,36.89-5.819,37.47c-4.421,0.156-8.51-2.779-9.76-7.428
		c-1.119-4.164-0.421-8.475,1.41-12.351C404.504,409.804,411.394,398.481,415.255,399.349z M413.654,406.703
		c-8.314,9.254-13.421,23.815-5.023,24.94C415.493,432.562,417.283,417.868,413.654,406.703z"/>
	<path fill="#43443C" d="M452.706,338.728c7.27-11.352,15.141,33.64-0.385,36.2c-4.515,0.744-8.694-0.298-10.819-4.424
		c-2.458-4.773-2.189-10.865,0.679-15.341L452.706,338.728z M454.577,344.912c-7.655,8.99-13.347,22.403-5.881,25.077
		C455.588,372.458,458.121,356.936,454.577,344.912z"/>
	<path fill="#43443C" d="M469.586,628.516c2.872,7.781-1.491,15.198-8.205,17.226c-6.981,2.108-15.419-1.27-16.325-9.373
		L469.586,628.516z M465.029,634.018l-13.915,4.833c2.808,3.024,6.349,3.426,9.415,2.238
		C463.285,640.02,465.702,637.456,465.029,634.018z"/>
	<circle fill="#43443C" cx="434.652" cy="628.439" r="4.443"/>
	<circle fill="#43443C" cx="471.453" cy="617.138" r="4.365"/>
	<path fill="#43443C" d="M754.483,635.258c2.304,4.258-3.157,9.866-7.214,10.83c-5.9,1.401-11.073,0.419-15.088-3.766
		c-3.618-3.771-5.318-10.129-2.387-15.473C738.183,629.328,746.852,631.108,754.483,635.258z M749.219,638.009l-15.503-5.144
		c-0.322,4.455,2.59,7.599,6.301,8.563C743.275,642.275,747.424,641.513,749.219,638.009z"/>
	<circle fill="#43443C" cx="727.27" cy="618.613" r="4.388"/>
	<circle fill="#43443C" cx="765.358" cy="631.199" r="4.367"/>
	<path fill="#43443C" d="M583.683,617.816c-0.752-1.302-0.596-3.082,0.098-3.556c3.652-2.491,5.048,5.187,10.661,4.805
		c5.623-0.383,5.947-7.363,8.924-6.708c1.428,0.314,2.078,1.947,1.574,3.503c-1.52,4.698-5.439,7.464-9.62,7.859
		C590.628,624.162,586.436,622.581,583.683,617.816z"/>
	<circle fill="#43443C" cx="574.855" cy="605.712" r="4.369"/>
	<path fill="#43443C" d="M392.493,190.77c-6.182,0.151-8.858-5.922-8.594-13.998l-5.938,2.097c-1.767,0.624-3.545-0.924-3.685-2.273
		c-0.274-2.651,2.021-2.391,3.797-3.348l29.314-15.801c1.431-0.771,2.527-0.307,3.203,0.5c0.576,0.687,0.89,2.89-0.188,3.513
		l-11.781,6.797C402.847,178.538,400.506,190.574,392.493,190.77z"/>
	<path fill="#43443C" d="M343.681,177.649c0.155,7.634-2.898,14.038-8.197,14.065c-7.963,0.04-10.349-12.197-6.172-22.462
		l-11.97-6.613c-1.664-0.919-2.239-2.954-0.853-4.507c2.831-3.172,17.653,10.426,33.66,15.79c1.721,0.577,3.385,0.706,3.561,2.697
		c0.108,1.215-1.052,2.934-2.807,2.961C348.525,179.617,347.395,178.872,343.681,177.649z"/>
	<path fill="#43443C" d="M350.715,206.176c-10.791,6.453-12.428,15.634-16.671,13.231c-4.216-2.387,8.806-19.211,25.957-21.964
		c23.769-3.816,38.699,17.711,34.059,20.867c-0.886,0.602-3.228-0.016-3.976-1.367C382.224,202.747,365.076,197.589,350.715,206.176
		z"/>
	<path fill="#43443C" d="M904.599,206.096c7.25,0.469,7.397-7.671,10.795-6.831c1.419,0.351,2.095,1.988,1.535,3.617
		c-1.787,5.198-6.609,7.884-11.438,8.165c-5.542,0.322-10.303-2.584-12.186-8.256c-0.568-1.71-0.26-3.469,1.169-3.814
		C898.492,198.007,897.911,205.664,904.599,206.096z"/>
	<circle fill="#43443C" cx="923.305" cy="191.787" r="4.165"/>
	<circle fill="#43443C" cx="888.057" cy="190.142" r="4.02"/>
	<path fill="#A9CAAD" d="M576.839,430.608c3.595,11.36,2.201,26.399-5.25,25.307C563.474,454.726,568.621,440.052,576.839,430.608z"
		/>
	<path fill="#A9CAAD" d="M669.071,400.383c3.273,11.417,1.715,26.449-5.391,25.353C655.628,424.494,660.432,409.953,669.071,400.383
		z"/>
	<path fill="#A9CAAD" d="M597.471,352.885c3.097,11.758,1.491,27.055-5.956,25.3C584.126,376.444,589.402,362.003,597.471,352.885z"
		/>
	<path fill="#A9CAAD" d="M779.168,389.57c3.197,11.473,1.927,26.728-5.682,25.39C765.561,413.567,770.824,399.376,779.168,389.57z"
		/>
	<path fill="#A9CAAD" d="M413.654,406.703c3.628,11.166,1.839,25.859-5.023,24.94C400.234,430.518,405.341,415.957,413.654,406.703z
		"/>
	<path fill="#A9CAAD" d="M454.577,344.912c3.544,12.024,1.011,27.547-5.881,25.077C441.23,367.315,446.923,353.902,454.577,344.912z
		"/>
	<path fill="#EECF75" d="M465.029,634.018c0.673,3.439-1.744,6.002-4.5,7.07c-3.066,1.188-6.607,0.786-9.415-2.238L465.029,634.018z
		"/>
	<path fill="#EECF75" d="M749.219,638.009c-1.795,3.504-5.944,4.266-9.201,3.42c-3.711-0.964-6.623-4.109-6.301-8.563
		L749.219,638.009z"/>
</g>
</svg>
