<svg xmlns="http://www.w3.org/2000/svg" viewBox="0 0 1024 1024"><path fill="#050605" d="M533.37,739.46c-50.63-2.14-99.3-2.34-149.31-0.43l-60.41,2.32c-3.96,0.15-6.07-1.61-8.44-4.66
		c-15.61-20.1-30.69-39.88-41.79-63.18c-16.1-33.78-26.92-69.84-30.39-107.48c-6.74-73.24,18.77-146.64,68.68-200.21
		c34.97-37.54,79.32-63.63,128.95-75.96c24.77-6.15,48.76-10.08,74.35-11.5c36.46-2.03,71.78,3.95,105.13,18.69
		c19.93,8.81,38.61,18.98,56.45,31.36c63.97,44.36,102.68,116.73,105.14,194.62c3.78,81.86-23.97,148.87-76.37,210.23
		c-34.14,4.45-67.15,6.95-101.28,7.35L533.37,739.46z M527.56,722.45c57.45,1.07,113.84,2.49,169.82-5.85l17.91-23.39
		c14.3-21.1,25.67-43.35,34.66-67.27c18.25-48.53,20.27-100.19,7.46-150.18c-12.49-48.76-39.25-91.2-77.82-123.41
		c-28.32-23.65-60.27-40.49-96.14-49.95c-31.81-8.39-63.3-10.94-96.14-7.06c-87.4,10.32-162.89,57.87-202.86,137
		c-23.01,45.55-30.47,96.33-23.77,146.75c7.46,56.19,33.09,99.52,66.08,143.87l52.23-0.41l64.03-1.69L527.56,722.45z"/><path fill="#9DC7A1" d="M527.56,722.45l-84.55-1.58l-64.03,1.69l-52.23,0.41c-32.98-44.35-58.61-87.68-66.08-143.87
		c-6.7-50.42,0.77-101.19,23.77-146.75c39.96-79.13,115.46-126.69,202.86-137c32.84-3.88,64.33-1.33,96.14,7.06
		c35.87,9.46,67.82,26.3,96.14,49.95c38.57,32.21,65.33,74.65,77.82,123.41c12.81,50,10.79,101.65-7.46,150.18
		c-8.99,23.91-20.37,46.17-34.66,67.27l-17.91,23.39C641.39,724.94,585.01,723.52,527.56,722.45z M506.23,340.88l0.5,25.14
		c0.07,3.54,2.48,5.99,5.66,5.82c2.96-0.16,5.58-2.21,5.54-5.81l-0.23-25.53c17.71,0.54,34.45,2.4,50.96,6.87l-4.98,17.61
		c-0.81,2.86,1.29,5.11,3.79,5.35c2.04,0.19,3.94-0.82,4.62-3.3l4.77-17.42c17.51,5.39,33.22,12.66,48.31,21.94l-13.76,21.82
		c-1.51,2.4-1.63,5.03-0.47,7.12c1.38,2.48,4.33,1.9,6.75,2.76c4.2,1.49,6.99,5.12,10.91,7.98l-7.76,6.6c-1.79-5.21-5.16-8-9.6-8.38
		c-4.29-0.36-8.67,1.73-10.69,6.08c-2.66,5.74-1.85,12.19,2.27,17.63l-83.12,70.39c-1.7,1.44-3.18,4.61-5.67,4.53
		c-24.18-0.77-44.67,14.26-51.61,37.36c-5.09,16.97-2.08,34.45,9.13,48.17c10.25,12.55,26.21,19.51,43.4,18.42
		c32.76-2.06,55.25-32.02,47.71-64.01l29.66-45.79l49.43-79.04c17.93,17.21,30.02,37.06,38.55,59.6
		c12.41,32.78,14.55,67.74,6.47,101.92c-0.51,2.14-0.7,4.05,0.36,5.58c0.88,1.27,2.72,2.47,4.72,2.91l34.37,7.51
		c3.01,0.66,5.58-1.16,6.36-4.51c10.69-46.28,6.14-95.18-14.56-138.46c-24.51-51.26-67.62-91.99-120.44-113.17
		c-71.1-28.51-152.53-17.82-214.82,26.12c-61.93,43.69-99.68,111.84-98.34,188.25c0.23,12.97,3.17,42.86,7.48,44.81
		c1.05,0.47,2.76,0.61,4.09,0.28l31.32-7.81c3.2-0.8,3.52-5.02,2.41-7.39c-1.09-2.32-3.56-3.49-6.65-2.79l-23.35,5.34
		c-3.72-17.21-4.26-34.1-3.18-51.83l16.38,1.17c2.96,0.21,4.71-1.87,4.7-4.28c0-2.57-1.78-4.3-4.7-4.57l-15.44-1.42
		c2.22-18.27,6.43-35,13.01-51.17l23.71,9.4c3.06,1.21,5.49-2.07,5.87-4.27c0.56-3.19-1.05-5.14-4.11-6.46l-21.08-9.1
		c7.37-16.22,16.63-30.74,28.11-44.95l14.35,11.71c2.07,1.69,5.21,0.69,6.14-1.57c0.66-1.61,0.58-3.88-1.23-5.38l-13.9-11.47
		c12.65-13.72,25.5-25.66,40.28-35.97l13.76,21.29c1.95,3.02,5.22,3.73,7.87,2.14c2.54-1.53,3.43-5.02,1.71-7.72l-14.13-22.03
		c15.47-9.82,30.94-17.31,47.93-22.94l5.52,18.67c0.75,2.54,2.88,3.53,5.14,3.3c1.5-0.15,4.13-1.75,3.46-4.02l-6.12-20.53
		C471.37,344.37,488.21,341.4,506.23,340.88z M510.06,408.6c2.58-1.61,3.12-3.89,3.21-6.07c0.1-2.28-1.48-4.01-2.95-5.94
		c0.64-1.58,2.55-3.77,1.81-6.01c-0.52-1.55-1.2-3.4-3.2-4.6c-4.01-2.41-9.42-1.96-12.87,0.93c-3.57,2.99-0.96,6.84-0.54,9.84
		c-0.78,2.44-3.62,5.01-2.04,8.29C496.37,411.06,504.68,411.96,510.06,408.6z M537.71,397.51c0.01-7.53-4.55-13.14-11.11-13.06
		c-6.91,0.08-11.05,5.68-11.26,12.69c-0.22,7.11,4.14,13.49,11.16,13.53C533.12,410.7,537.7,404.95,537.71,397.51z M596.9,429.38
		c0.71-2.97-1.41-5.35-2.87-7.37c1.66-2.96,3.06-6.2,0.75-9.27c-3.33-4.43-12.25-4.28-15.61-0.03c-2.55,3.23-0.23,5.94-0.09,9.52
		c0.08,1.95-3.04,4.27-1.93,7.18c0.69,1.8,1.26,4.15,4.27,5.34C587.67,437.21,595.37,435.73,596.9,429.38z M451.26,428.52
		c0.28-7.56-4.12-13.03-10.7-13.2c-6.47-0.17-11.22,4.7-11.43,11.74c-0.17,5.66,1.56,11.39,7.09,13.7c3.65,1.53,7.8,0.49,10.42-1.63
		C449.64,436.72,451.09,433.22,451.26,428.52z M410,432.51c-1.08,0.39-3.15,1.23-2.5,3.08c1.61,4.59,6.49,6.25,11.03,5.78
		c4.07-0.42,7.32-2.83,8.13-6.18c0.96-4.01-0.79-7.19-3.93-9.64c2.41-1.29,3.41-2.72,3.83-4.39c0.35-1.39,0.06-4.14-1.95-4.73
		c-6.29-1.83-17.09-1.13-16.36,2.88c0.2,1.11,1.28,2.36,2.89,2.39l8.44,0.13c-0.89,2.17-2.31,2.3-4.03,2.81
		c-1.68,0.5-2.31,2.47-1.79,3.86c0.75,2.02,5.54,0.59,6.6,3.06c0.59,1.38-0.18,2.89-1.03,3.35
		C414.61,437.44,413.32,431.31,410,432.51z M630.45,502.75c5.4,1.29,10.66,0.37,15.49,0.41c1.63,0.02,2.04-1.86,1.99-2.7
		c-0.05-0.79,0-2.81-1.42-2.96l-6.89-0.71l6.33-6.85c2.93-3.17,1.72-9.25-2.38-11.49c-4.25-2.32-9.8-1.34-13.17,1.8
		c-1.99,1.85-1.93,4.23,0.07,5.68c3.84,2.78,7.17-5.79,10.34-1.39c0.63,0.88,0.07,3.01-1.19,4.07l-8.72,7.39
		C629.19,497.47,627.56,502.06,630.45,502.75z M672.22,490.49c-0.12-5.25-2.02-9.36-5.62-11.63c-3.47-2.18-8.43-2.12-11.96,0.79
		c-4.37,3.6-5.04,9.4-3.94,14.71c1.33,6.39,6.68,10.12,12.56,9.17C669.04,502.59,672.37,497.24,672.22,490.49z M620.08,501.44
		c0.03,2.18,2.91,2.33,3.94,1.98c0.93-0.32,2.59-1.17,2.47-2.83c-0.5-7.01,1.1-14.48-0.76-21.5c-0.92-3.5-10.77,0.57-11.02,3.41
		c-0.09,1.11,0.54,2.71,2.01,3.12c0.74,0.21,1.86,0.01,3.14-0.45L620.08,501.44z M369.32,493.36l-0.66-7.08
		c-0.17-1.8-3.33-1.57-4.57-0.7c-3.69,2.6,1.39,11.15-6.25,8.26c3.49-7.58,7.57-14.69,2.57-15.14c-0.86-0.08-2.97-0.05-3.52,1.22
		l-7.03,16.13c-0.45,1.03,0.03,2.45,0.51,3c0.43,0.49,1.41,1.09,2.61,1.1l9.12,0.07c-0.24,2.94,0.97,4.86,3.33,4.74
		c2.16-0.11,2.82-1.69,3.77-3.83c0.6-1.35,2.73-2.26,2.84-3.66C372.14,496.02,369.48,495.12,369.32,493.36z M392.12,501.68
		c4-4.62,4.29-10.85,2.19-15.94c-1.55-3.74-4.89-6.12-8.02-6.48c-3.95-0.46-7.82,0.44-10.23,3.88c-4.19,5.98-3.52,14.74,1.95,19.85
		C381.84,506.56,388.55,505.81,392.12,501.68z M360.87,581.5c0.02-5.54-2.59-10.09-6.34-11.73c-4.26-1.86-9.57-1.48-12.58,2.2
		c-4.7,5.73-4.41,14.96,0.89,20.08c3.57,3.45,8.96,3.2,12.52,0.88C358.86,590.66,360.84,586.67,360.87,581.5z M625.57,593.19
		c0.1,2.74,5.82,2.64,5.95,0.44c0.47-7.54,0.85-15.51-0.37-22.91c-1.34-2.75-6.74-0.58-8.61,0.59c-2.22,1.38-3.34,2.76-2.46,5.04
		c0.52,1.33,3.4,1.32,4.93,1.79L625.57,593.19z M638.49,594.97l13.3-0.32c1.86-0.05,1.97-2.76,1.59-3.8
		c-1.35-3.67-5.6-0.71-7.96-2.78c6.07-4.55,9.3-10.14,6.09-15c-1.59-2.4-4.21-3.71-7.61-3.73c-4.02-0.02-8.34,1.62-9.42,5.8
		c-0.39,1.52,2.1,3.22,3.25,3.47c1.44,0.32,2.41-1.39,3.46-2.37c1.55-1.44,3.89-0.94,4.71,0.29c0.66,0.99,0.48,2.67-0.66,3.71
		l-9.4,8.58c-1.28,1.16-1.62,3.07-1.18,4.14C635.15,594.15,636.38,595.02,638.49,594.97z M678.1,582.53
		c0.14-7.88-4.63-13.51-11.54-13.28c-6.56,0.22-10.61,5.87-10.76,12.74c-0.16,7.08,3.62,13.23,10.8,13.46
		C673,595.65,677.97,590.08,678.1,582.53z M607.79,699.62c3.16-1.15,2.95-3.24,3.18-5.64c2.05-20.82,3.19-41.35-0.78-62.08
		c-32.04-1.87-62.59-2.27-94.19-1.73l-99.92,1.72c-2.38,0.04-5.92,0.12-7.52,1.71c-2.02,22.07-2.92,43.83-0.26,65.75l12.9,1.12
		L607.79,699.62z"/><path fill="#050605" d="M506.23,340.88c-18.03,0.52-34.86,3.49-52.45,8.54l6.12,20.53c0.67,2.27-1.96,3.86-3.46,4.02
		c-2.26,0.23-4.39-0.76-5.14-3.3l-5.52-18.67c-17,5.63-32.46,13.12-47.93,22.94l14.13,22.03c1.73,2.7,0.83,6.19-1.71,7.72
		c-2.64,1.6-5.91,0.89-7.87-2.14l-13.76-21.29c-14.78,10.31-27.63,22.25-40.28,35.97l13.9,11.47c1.81,1.49,1.89,3.77,1.23,5.38
		c-0.93,2.26-4.07,3.26-6.14,1.57l-14.35-11.71c-11.48,14.22-20.74,28.73-28.11,44.95l21.08,9.1c3.05,1.32,4.67,3.27,4.11,6.46
		c-0.39,2.2-2.82,5.48-5.87,4.27l-23.71-9.4c-6.58,16.17-10.79,32.9-13.01,51.17l15.44,1.42c2.92,0.27,4.69,2,4.7,4.57
		c0,2.4-1.74,4.49-4.7,4.28l-16.38-1.17c-1.08,17.72-0.54,34.61,3.18,51.83l23.35-5.34c3.09-0.71,5.56,0.46,6.65,2.79
		c1.11,2.37,0.79,6.59-2.41,7.39L296,604.06c-1.33,0.33-3.03,0.19-4.09-0.28c-4.31-1.95-7.26-31.84-7.48-44.81
		c-1.34-76.41,36.4-144.56,98.34-188.25c62.3-43.94,143.72-54.62,214.82-26.12c52.82,21.18,95.94,61.91,120.44,113.17
		c20.69,43.28,25.25,92.18,14.56,138.46c-0.77,3.35-3.35,5.17-6.36,4.51l-34.37-7.51c-2-0.44-3.84-1.64-4.72-2.91
		c-1.06-1.53-0.87-3.44-0.36-5.58c8.09-34.18,5.94-69.14-6.47-101.92c-8.53-22.54-20.62-42.39-38.55-59.6l-49.43,79.04l-29.66,45.79
		c7.54,31.99-14.95,61.95-47.71,64.01c-17.19,1.08-33.15-5.88-43.4-18.42c-11.21-13.73-14.23-31.2-9.13-48.17
		c6.93-23.1,27.43-38.13,51.61-37.36c2.49,0.08,3.96-3.09,5.67-4.53l83.12-70.39c-4.12-5.44-4.93-11.89-2.27-17.63
		c2.02-4.35,6.4-6.44,10.69-6.08c4.44,0.37,7.8,3.16,9.6,8.38l7.76-6.6c-3.92-2.86-6.71-6.48-10.91-7.98
		c-2.41-0.86-5.37-0.28-6.75-2.76c-1.16-2.09-1.04-4.72,0.47-7.12l13.76-21.82c-15.09-9.28-30.81-16.56-48.31-21.94l-4.77,17.42
		c-0.68,2.48-2.58,3.49-4.62,3.3c-2.5-0.24-4.59-2.49-3.79-5.35l4.98-17.61c-16.51-4.47-33.25-6.33-50.96-6.87l0.23,25.53
		c0.03,3.6-2.58,5.65-5.54,5.81c-3.18,0.17-5.59-2.28-5.66-5.82L506.23,340.88z M657.18,426.06l-3.44,1.34
		c-0.62,0.24,0.06,2.48,0.89,2.37c3.11-0.42,5.93,0.84,6.38-0.3c0.23-0.58,0.14-2.2-0.07-2.85c-0.19-0.59-1.58-0.75-2.45-0.74
		c-0.45-2.02,1.02-3.32,2.6-4.77l11.54-10.59c-11.5-12.51-23.95-23.65-38.1-33.12L623.29,396l12.6,9.32l7.98-5.5
		c2.26-1.56,5.12-1.84,7.02-0.21c1.57,1.35,2.21,4.04,1.18,6.28l-4.48,9.72L657.18,426.06z M614.38,422.88
		c1.56-2.19,0.14-4.96-1.3-6.4c-1.12-1.13-3.93-1.95-5.66,0c-2.96,3.35-2.67,9.08,0.08,12.13
		C610.22,426.63,612.65,425.32,614.38,422.88z M685.86,471.67l21.6-9.13c-7.86-17.3-17.83-31.6-29.15-45.71l-11.59,10.89
		c-1.58,1.48-3.3,2.11-5.91,2.59C671.18,442.92,679.02,456.35,685.86,471.67z M486.48,528.08c-16.51,13.65-19.45,36.49-8.24,54.08
		c10.67,16.74,33.11,23.24,51.31,14.81c18.54-8.59,28.13-29.75,21.92-50.19l75.02-119.49l-100.13,84.88l-6.75,6.52
		C507.67,517.51,496.21,520.04,486.48,528.08z M708.76,535.56c-3.01,0.31-4.3-3-3.9-4.97c0.38-1.84,1.74-3.61,4.15-3.81l16.45-1.33
		c-2.07-18.78-6.4-35.86-13.28-52.82l-22.22,9.34c11.63,32.65,14.18,67.07,6.88,101.45l26,5.01c3.63-18.54,4.64-36.09,3.39-54.64
		L708.76,535.56z"/><path fill="#050605" d="M607.79,699.62l-186.58,0.86l-12.9-1.12c-2.67-21.93-1.76-43.68,0.26-65.75
		c1.6-1.59,5.14-1.67,7.52-1.71l99.92-1.72c31.6-0.54,62.15-0.14,94.19,1.73c3.96,20.73,2.83,41.25,0.78,62.08
		C610.74,696.38,610.95,698.47,607.79,699.62z M499.53,691.21l101.5-1.26c1.82-16.37,2.24-32.15,0.37-48.77
		c-40.58-1.14-80.53-1.08-121.33-0.11l-61.9,0.83c-0.84,16.7-1.1,32.52,0,48.75L499.53,691.21z"/><path fill="#0A0B09" d="M537.71,397.51c-0.01,7.44-4.59,13.19-11.21,13.15c-7.03-0.04-11.38-6.42-11.16-13.53
		c0.21-7,4.35-12.61,11.26-12.69C533.17,384.37,537.72,389.98,537.71,397.51z M530.33,401.76c1.32-3.32,1.08-6.73-0.53-9.51
		c-0.92-1.58-2.62-2.05-4.25-1.7c-3.7,0.78-4.88,6.9-2.67,11.55c0.78,1.66,2.2,2.4,3.63,2.39
		C527.87,404.46,529.51,403.8,530.33,401.76z"/><path fill="#0A0B09" d="M596.9,429.38c-1.53,6.35-9.23,7.83-15.49,5.36c-3.01-1.19-3.58-3.54-4.27-5.34
		c-1.11-2.91,2.01-5.23,1.93-7.18c-0.14-3.57-2.46-6.29,0.09-9.52c3.36-4.25,12.29-4.4,15.61,0.03c2.31,3.07,0.91,6.31-0.75,9.27
		C595.49,424.03,597.61,426.41,596.9,429.38z M589.77,417.39c0-1.57-1.28-2.85-2.85-2.85c-1.57,0-2.85,1.28-2.85,2.85
		s1.28,2.85,2.85,2.85C588.5,420.23,589.77,418.96,589.77,417.39z M590.51,426.98c-0.6-2.26-3.29-2.5-4.84-2.03
		c-0.97,0.29-2.5,1.16-2.24,3.06c0.27,1.97,2.34,2.45,4.05,2.33C588.85,430.26,591.18,429.53,590.51,426.98z"/><path fill="#0A0B09" d="M510.06,408.6c-5.38,3.37-13.69,2.47-16.58-3.55c-1.58-3.29,1.26-5.85,2.04-8.29
		c-0.42-3-3.03-6.85,0.54-9.84c3.46-2.9,8.87-3.34,12.87-0.93c2,1.2,2.68,3.05,3.2,4.6c0.75,2.23-1.17,4.42-1.81,6.01
		c1.47,1.93,3.05,3.65,2.95,5.94C513.18,404.71,512.64,406.98,510.06,408.6z M505.76,392.12c0-1.47-1.19-2.65-2.65-2.65
		c-1.47,0-2.65,1.19-2.65,2.65s1.19,2.65,2.65,2.65C504.57,394.77,505.76,393.58,505.76,392.12z M503.44,404.88
		c2.32-0.16,3.53-1.75,3.29-3.23c-0.24-1.51-1.83-2.32-3.61-2.29c-2.16,0.04-3.6,1.28-3.41,3.15
		C499.84,403.86,501.15,405.04,503.44,404.88z"/><path fill="#0A0B09" d="M672.22,490.49c0.15,6.75-3.18,12.1-8.97,13.04c-5.88,0.95-11.22-2.78-12.56-9.17
		c-1.11-5.31-0.44-11.11,3.94-14.71c3.53-2.91,8.5-2.97,11.96-0.79C670.19,481.13,672.1,485.24,672.22,490.49z M665.23,486.83
		c-0.57-2.06-2.1-3.15-3.74-3.27c-1.73-0.13-3.46,0.76-4.21,2.79c-1.08,2.9-1.07,6.21,0.42,8.93c0.98,1.79,3,2.35,4.72,1.91
		C665.43,496.41,666.52,491.52,665.23,486.83z"/><path fill="#0A0B09" d="M678.1,582.53c-0.14,7.55-5.11,13.12-11.5,12.92c-7.18-0.22-10.96-6.37-10.8-13.46
		c0.15-6.87,4.21-12.52,10.76-12.74C673.47,569.02,678.25,574.65,678.1,582.53z M669.92,576.61c-0.89-0.99-3.23-2.09-5.09-0.59
		c-3.63,2.92-3.59,10.03,0.24,12.83c1.83,1.34,4.22,0.2,5.07-1.14C672.26,584.4,672.22,579.14,669.92,576.61z"/><path fill="#0A0B09" d="M451.26,428.52c-0.17,4.7-1.62,8.19-4.62,10.61c-2.62,2.12-6.77,3.15-10.42,1.63
		c-5.54-2.32-7.26-8.04-7.09-13.7c0.21-7.03,4.95-11.91,11.43-11.74C447.14,415.49,451.54,420.96,451.26,428.52z M443.01,422.52
		c-0.93-0.96-3.34-2.05-5.14-0.5c-3.46,2.99-3.44,9.92,0.31,12.65c1.8,1.32,4.17,0.4,5.09-0.85
		C445.43,430.9,445.42,425.01,443.01,422.52z"/><path fill="#0A0B09" d="M392.12,501.68c-3.57,4.13-10.28,4.88-14.11,1.3c-5.47-5.11-6.14-13.87-1.95-19.85
		c2.41-3.44,6.28-4.34,10.23-3.88c3.13,0.37,6.47,2.75,8.02,6.48C396.42,490.83,396.12,497.06,392.12,501.68z M386.64,485.83
		c-1.29-0.95-3.78-1.17-5.22,0.74c-2.41,3.21-2.29,9.3,0.93,11.85c2.03,1.61,4.65,0.24,5.43-1.11
		C389.8,493.8,389.44,487.89,386.64,485.83z"/><path fill="#0A0B09" d="M360.87,581.5c-0.02,5.18-2.01,9.16-5.5,11.43c-3.56,2.31-8.95,2.57-12.52-0.88
		c-5.3-5.12-5.59-14.34-0.89-20.08c3.01-3.67,8.32-4.06,12.58-2.2C358.28,571.41,360.89,575.96,360.87,581.5z M351.97,575.4
		c-1.15-0.8-3.33-1.24-4.63,0.09c-3.09,3.16-3.26,10.08,0.58,12.57c2.05,1.33,4.48-0.31,5.17-1.44
		C355.15,583.28,354.56,577.2,351.97,575.4z"/><path fill="#0A0B09" d="M410,432.51c3.32-1.2,4.61,4.93,9.33,2.39c0.86-0.46,1.62-1.97,1.03-3.35
		c-1.06-2.47-5.85-1.04-6.6-3.06c-0.52-1.39,0.11-3.35,1.79-3.86c1.72-0.51,3.14-0.65,4.03-2.81l-8.44-0.13
		c-1.61-0.02-2.69-1.28-2.89-2.39c-0.73-4.01,10.06-4.71,16.36-2.88c2.02,0.59,2.31,3.34,1.95,4.73c-0.43,1.67-1.42,3.1-3.83,4.39
		c3.14,2.45,4.89,5.64,3.93,9.64c-0.8,3.35-4.06,5.76-8.13,6.18c-4.54,0.47-9.41-1.19-11.03-5.78
		C406.85,433.74,408.92,432.9,410,432.51z"/><path fill="#0A0B09" d="M630.45,502.75c-2.89-0.69-1.26-5.29,0.46-6.75l8.72-7.39c1.25-1.06,1.82-3.19,1.19-4.07
		c-3.18-4.39-6.51,4.18-10.34,1.39c-2-1.45-2.05-3.83-0.07-5.68c3.37-3.14,8.92-4.12,13.17-1.8c4.1,2.24,5.31,8.32,2.38,11.49
		l-6.33,6.85l6.89,0.71c1.42,0.15,1.37,2.17,1.42,2.96c0.05,0.84-0.36,2.71-1.99,2.7C641.11,503.12,635.86,504.05,630.45,502.75z"/><path fill="#0A0B09" d="M638.49,594.97c-2.11,0.05-3.33-0.81-3.83-2.02c-0.44-1.07-0.09-2.97,1.18-4.14l9.4-8.58
		c1.14-1.04,1.32-2.72,0.66-3.71c-0.82-1.23-3.16-1.73-4.71-0.29c-1.05,0.98-2.03,2.69-3.46,2.37c-1.15-0.25-3.65-1.95-3.25-3.47
		c1.09-4.18,5.4-5.82,9.42-5.8c3.4,0.02,6.02,1.32,7.61,3.73c3.21,4.85-0.02,10.44-6.09,15c2.36,2.07,6.61-0.89,7.96,2.78
		c0.39,1.05,0.27,3.76-1.59,3.8L638.49,594.97z"/><path fill="#0A0B09" d="M369.32,493.36c0.17,1.76,2.82,2.66,2.71,4.11c-0.11,1.4-2.24,2.31-2.84,3.66
		c-0.95,2.14-1.61,3.72-3.77,3.83c-2.36,0.12-3.56-1.8-3.33-4.74l-9.12-0.07c-1.2-0.01-2.17-0.61-2.61-1.1
		c-0.48-0.55-0.96-1.97-0.51-3l7.03-16.13c0.55-1.26,2.66-1.3,3.52-1.22c5,0.45,0.92,7.56-2.57,15.14c7.64,2.88,2.56-5.66,6.25-8.26
		c1.23-0.87,4.4-1.1,4.57,0.7L369.32,493.36z"/><path fill="#0A0B09" d="M625.57,593.19l-0.55-15.05c-1.53-0.47-4.41-0.46-4.93-1.79c-0.88-2.28,0.24-3.65,2.46-5.04
		c1.87-1.17,7.27-3.34,8.61-0.59c1.22,7.4,0.83,15.37,0.37,22.91C631.39,595.83,625.67,595.93,625.57,593.19z"/><path fill="#050605" d="M620.08,501.44l-0.21-16.27c-1.29,0.46-2.41,0.66-3.14,0.45c-1.47-0.41-2.1-2.01-2.01-3.12
		c0.24-2.84,10.09-6.9,11.02-3.41c1.85,7.02,0.26,14.49,0.76,21.5c0.12,1.66-1.54,2.51-2.47,2.83
		C622.98,503.77,620.1,503.62,620.08,501.44z"/><path fill="#E86A56" d="M486.48,528.08c9.73-8.04,21.18-10.57,33.13-9.4l6.75-6.52l100.13-84.88l-75.02,119.49
		c6.21,20.44-3.39,41.6-21.92,50.19c-18.2,8.44-40.64,1.93-51.31-14.81C467.03,564.57,469.98,541.73,486.48,528.08z M535.11,559.49
		c0-12.64-10.25-22.89-22.89-22.89c-12.64,0-22.89,10.25-22.89,22.89s10.25,22.89,22.89,22.89
		C524.86,582.38,535.11,572.13,535.11,559.49z"/><path fill="#E86A56" d="M708.76,535.56l17.48-1.77c1.25,18.55,0.24,36.11-3.39,54.64l-26-5.01
		c7.3-34.38,4.75-68.8-6.88-101.45l22.22-9.34c6.88,16.96,11.21,34.04,13.28,52.82l-16.45,1.33c-2.41,0.19-3.78,1.97-4.15,3.81
		C704.46,532.55,705.75,535.86,708.76,535.56z"/><path fill="#E86A56" d="M685.86,471.67c-6.84-15.32-14.68-28.76-25.05-41.37c2.61-0.48,4.33-1.1,5.91-2.59l11.59-10.89
		c11.32,14.12,21.29,28.41,29.15,45.71L685.86,471.67z"/><path fill="#E86A56" d="M658.49,425.89c-0.51,0-0.94,0.03-1.31,0.17l-9.61-10.45l4.48-9.72c1.03-2.24,0.4-4.92-1.18-6.28
		c-1.9-1.63-4.76-1.34-7.02,0.21l-7.98,5.5l-12.6-9.32l11.26-18.58c14.14,9.46,26.59,20.6,38.1,33.12l-11.54,10.59
		C659.51,422.57,658.05,423.87,658.49,425.89z"/><path fill="#9DC7A1" d="M614.38,422.88c-1.73,2.44-4.16,3.75-6.88,5.74c-2.75-3.06-3.04-8.78-0.08-12.13
		c1.73-1.96,4.54-1.13,5.66,0C614.52,417.93,615.93,420.69,614.38,422.88z"/><path fill="#0A0B09" d="M658.49,425.89c0.87-0.01,2.25,0.15,2.45,0.74c0.22,0.65,0.3,2.27,0.07,2.85
		c-0.45,1.14-3.27-0.12-6.38,0.3c-0.84,0.11-1.51-2.13-0.89-2.37l3.44-1.34C657.55,425.91,657.98,425.89,658.49,425.89z"/><path fill="#EFDCA2" d="M499.53,691.21l-81.35-0.56c-1.1-16.23-0.84-32.05,0-48.75l61.9-0.83
		c40.8-0.98,80.75-1.03,121.33,0.11c1.86,16.62,1.45,32.41-0.37,48.77L499.53,691.21z M461.38,678.99
		c3.41-2.71,3.71-7.27,2.25-10.86c-2.69-6.6-13.24-4.24-16.4-9.11c6.58-6.74,10.24,5.18,14.73,0.31c1.6-1.73,1.4-4.17-0.52-5.95
		c-4.8-4.44-12.72-4.96-18.18-1.24c-3.36,2.29-4.5,6.22-3.59,9.62c2.06,7.77,11.32,5.98,17.03,10.4c-2.2,3.88-7.38,3.23-10.25,0.46
		c-2.07-2-3.93-1.9-5.84-0.48c-1.5,1.11-2.59,3.19-0.77,5.18C445.07,683.09,454.86,684.17,461.38,678.99z M480.8,672.87
		c6.65,0.41,12.14-3.04,13.23-8.49c1.2-5.96-1.66-12.06-8-13.4c-5.53-1.17-11.23-1.05-17.23,0.16l-0.08,27.94
		c-0.01,2.7,3.8,2.96,5.36,2.52C480.11,679.9,473.26,672.41,480.8,672.87z M506.85,669.66l11.3-0.64c2.21-0.12,2.36-6.08,0.18-6.18
		l-12.03-0.58l0.01-4.28l13.41-0.29c2.02-0.04,2.26-2.73,2.14-4.11c-0.09-1.05-0.57-3.09-2.38-3.04l-21.28,0.61l-0.14,27.73
		c-0.01,1.45,1.74,2.82,3.07,2.81l18.6-0.17c1.97-0.02,2.38-2.75,2.33-4.01c-0.04-1.25-0.21-3.32-2.23-3.35l-12.97-0.22
		C505.82,673.92,505.75,669.72,506.85,669.66z M534.83,669.6l11.09-0.55c1.84-0.09,2.18-2.16,2.06-3.48
		c-0.1-1.12-0.5-2.98-2.37-3.04l-10.76-0.32c-1.01-0.18-0.96-3.9,0.05-4.08l13.69-0.66c2.23-0.11,1.91-6.59-0.44-6.6l-21.62-0.11
		l-0.38,27.25c-0.02,1.74,1.36,3.57,3.2,3.54l19.31-0.25c2.26-0.03,2.46-6.72,0.07-6.81l-14.31-0.57
		C534.04,672.72,534.06,670.18,534.83,669.6z M575.62,679.57c5.51-3.07,7.78-8.87,7.36-15.03c-0.34-4.91-3.17-10.5-8.81-12.66
		c-6.07-2.32-13.23-2.16-19.64-0.45l-0.03,26.19C554.5,683.78,570.09,682.65,575.62,679.57z"/><path fill="#9DC7A1" d="M530.33,401.76c-0.82,2.04-2.46,2.71-3.82,2.72c-1.43,0.02-2.85-0.73-3.63-2.39
		c-2.2-4.65-1.03-10.76,2.67-11.55c1.63-0.35,3.34,0.12,4.25,1.7C531.41,395.03,531.65,398.44,530.33,401.76z"/><path fill="#9DC7A1" d="M590.51,426.98c0.67,2.54-1.66,3.28-3.03,3.37c-1.71,0.12-3.78-0.36-4.05-2.33
		c-0.26-1.9,1.27-2.77,2.24-3.06C587.22,424.49,589.91,424.72,590.51,426.98z"/><path fill="#9DC7A1" d="M503.44,404.88c-2.3,0.16-3.6-1.02-3.74-2.37c-0.19-1.87,1.25-3.11,3.41-3.15
		c1.79-0.03,3.37,0.78,3.61,2.29C506.97,403.14,505.77,404.72,503.44,404.88z"/><path fill="#9DC7A1" d="M665.23,486.83c1.29,4.69,0.2,9.58-2.82,10.36c-1.72,0.45-3.74-0.12-4.72-1.91
		c-1.49-2.72-1.5-6.03-0.42-8.93c0.75-2.03,2.48-2.92,4.21-2.79C663.13,483.69,664.66,484.78,665.23,486.83z"/><path fill="#9DC7A1" d="M669.92,576.61c2.3,2.54,2.34,7.79,0.22,11.1c-0.86,1.34-3.24,2.48-5.07,1.14
		c-3.82-2.81-3.87-9.92-0.24-12.83C666.69,574.52,669.02,575.62,669.92,576.61z"/><path fill="#9DC7A1" d="M443.01,422.52c2.41,2.49,2.42,8.38,0.26,11.31c-0.92,1.25-3.29,2.16-5.09,0.85
		c-3.74-2.74-3.77-9.66-0.31-12.65C439.67,420.47,442.08,421.56,443.01,422.52z"/><path fill="#9DC7A1" d="M386.64,485.83c2.81,2.06,3.17,7.97,1.15,11.48c-0.78,1.36-3.4,2.73-5.43,1.11
		c-3.22-2.56-3.34-8.65-0.93-11.85C382.86,484.66,385.34,484.88,386.64,485.83z"/><path fill="#9DC7A1" d="M351.97,575.4c2.59,1.81,3.18,7.88,1.12,11.23c-0.69,1.12-3.12,2.76-5.17,1.44
		c-3.85-2.49-3.67-9.42-0.58-12.57C348.64,574.15,350.81,574.59,351.97,575.4z"/><path fill="#0A0B09" d="M535.11,559.49c0,12.64-10.25,22.89-22.89,22.89c-12.64,0-22.89-10.25-22.89-22.89
		s10.25-22.89,22.89-22.89C524.86,536.6,535.11,546.85,535.11,559.49z M526.59,559.35c0-7.87-6.38-14.25-14.25-14.25
		c-7.87,0-14.25,6.38-14.25,14.25c0,7.87,6.38,14.25,14.25,14.25C520.21,573.6,526.59,567.22,526.59,559.35z"/><path fill="#0A0B09" d="M575.62,679.57c-5.53,3.08-21.12,4.2-21.12-1.95l0.03-26.19c6.4-1.71,13.57-1.87,19.64,0.45
		c5.64,2.16,8.47,7.75,8.81,12.66C583.4,670.7,581.12,676.51,575.62,679.57z M563,673.21c1.87,2.47,8.69,0.64,10.34-2.15
		c2.01-3.42,1.86-7.59-0.52-10.62c-1.9-2.42-8.2-3.84-9.97-1.57C562.29,663.09,562.16,668.87,563,673.21z"/><path fill="#0A0B09" d="M506.85,669.66c-1.1,0.06-1.03,4.27,0.01,4.28l12.97,0.22c2.02,0.03,2.19,2.1,2.23,3.35
		c0.04,1.26-0.37,3.99-2.33,4.01l-18.6,0.17c-1.33,0.01-3.07-1.36-3.07-2.81l0.14-27.73l21.28-0.61c1.81-0.05,2.29,1.99,2.38,3.04
		c0.12,1.38-0.12,4.07-2.14,4.11l-13.41,0.29l-0.01,4.28l12.03,0.58c2.18,0.1,2.02,6.06-0.18,6.18L506.85,669.66z"/><path fill="#0A0B09" d="M534.83,669.6c-0.78,0.58-0.79,3.12-0.4,4.31l14.31,0.57c2.39,0.09,2.19,6.78-0.07,6.81l-19.31,0.25
		c-1.84,0.02-3.23-1.8-3.2-3.54l0.38-27.25l21.62,0.11c2.35,0.01,2.66,6.49,0.44,6.6l-13.69,0.66c-1.01,0.19-1.06,3.9-0.05,4.08
		l10.76,0.32c1.87,0.06,2.27,1.92,2.37,3.04c0.12,1.32-0.22,3.39-2.06,3.48L534.83,669.6z"/><path fill="#0A0B09" d="M461.38,678.99c-6.51,5.18-16.3,4.1-21.56-1.68c-1.82-2-0.72-4.08,0.77-5.18
		c1.92-1.42,3.77-1.52,5.84,0.48c2.88,2.78,8.05,3.42,10.25-0.46c-5.71-4.42-14.97-2.63-17.03-10.4c-0.9-3.4,0.24-7.33,3.59-9.62
		c5.46-3.72,13.38-3.2,18.18,1.24c1.92,1.78,2.12,4.22,0.52,5.95c-4.49,4.87-8.15-7.05-14.73-0.31c3.16,4.87,13.71,2.51,16.4,9.11
		C465.09,671.72,464.79,676.28,461.38,678.99z"/><path fill="#0A0B09" d="M480.8,672.87c-7.53-0.46-0.68,7.03-6.71,8.73c-1.56,0.44-5.37,0.18-5.36-2.52l0.08-27.94
		c6-1.21,11.7-1.34,17.23-0.16c6.34,1.35,9.19,7.44,8,13.4C492.93,669.84,487.45,673.28,480.8,672.87z M483.92,665.34
		c2.14-0.81,2.48-3.13,2.12-4.71c-0.68-3.02-4.55-3.66-9.07-2.96l0.04,8.06C479.36,665.97,481.58,666.23,483.92,665.34z"/><path fill="#EFDCA2" d="M563,673.21c-0.85-4.34-0.71-10.11-0.15-14.34c1.76-2.28,8.06-0.85,9.97,1.57
		c2.38,3.02,2.53,7.2,0.52,10.62C571.7,673.85,564.88,675.67,563,673.21z"/><path fill="#EFDCA2" d="M483.92,665.34c-2.34,0.89-4.56,0.64-6.9,0.38l-0.04-8.06c4.52-0.7,8.38-0.06,9.07,2.96
		C486.41,662.21,486.07,664.52,483.92,665.34z"/></svg>