<svg xmlns="http://www.w3.org/2000/svg" xmlns:xlink="http://www.w3.org/1999/xlink"
	 viewBox="0 0 864 1184"><rect width="864" height="1184" fill="#F6F2E2"/>
<g>
	<path fill="#F6F2E2" d="M0,918.874V0h864v900c-1.722,0.552-3.23-0.149-5.158-0.873c-17.101-6.422-33.869-11.259-51.933-15.155
		c-88.589-19.11-179.689-12.656-267.753,7.737c-9.294-9.439-20.955-14.207-33.424-15.112l-0.788-2.899
		c-0.276-1.016-1.771-1.162-2.65-0.173c-0.454,0.511-0.97,1.153-0.682,3.003c-22.969,2.566-43,17.837-46.443,41.746l-26.694,9.513
		c7.82-22.693,5.127-45.588-7.391-64.386l13.48-18.145c1.746,4.996,3.548,8.981,7.516,10.131c4.391,1.273,8.923-0.14,11.823-2.895
		c5.2-4.94,4.514-17.442,0.963-14.974c-1.91,1.328,0.686,14.968-9.353,14.519c-2.209-0.099-5.308-1.484-5.968-4.531
		c-0.698-3.222-1.53-7.958-0.088-11.073l7.268-15.696c1.529-3.303,2.268-6.396,0.206-9.995c-1.194-2.083-4.021-4.097-7.572-5.234
		l-0.374-51.497c16.231-0.136,31.261,5.128,44.336,15.391c20.562-17.81,50.283-19.846,72.575-4.377l1.806,2.726
		c0.351,0.529,3.65,0.197,3.539-0.803c-6.843-61.745-59.354-108.963-121.489-110.808c-1.222-4.381,0.842-8.3-1.405-10.048
		c-0.545-0.424-2.522-0.354-2.594,0.749l-0.607,9.252c-57.966,1.595-108.092,41.622-120.255,97.721
		c-0.931,4.293-3.443,9.113-1.774,13.343c0.657,1.664,4.54-0.184,4.899-2.202c22.099-15.274,51.666-13.69,72.401,4.556
		c12.801-10.142,28.094-15.405,44.89-15.834l0.02,47.372c-9.787-0.931-4.483,11.754-14.443,22.536
		c2.098-8.307-3.489-12.408-9.606-14.354c-5.056-16.7-18.358-30.909-34.777-34.827c-19.189-4.578-37.581,1.438-49.889,16.169
		c-4.496,5.381-6.499,12.529-9.13,18.748c-2.907,1.035-6.737,2.179-8.343,4.453c-2.013,2.85-1.709,6.864-1.043,10.409
		c0.849,4.522,7.754,4.344,9.146,7.278l6.309,13.295c-3.489,3.915-6.756,5.875-10.776,8.298
		c-10.008,6.035-18.633,14.601-25.206,24.325l-12.64,22.594c-2.439,4.359-2.586,8.922-2.473,14.18
		C182.057,898.066,87.716,896.786,0,918.874z M521.802,485.345c0-15.215-12.335-27.55-27.55-27.55s-27.55,12.335-27.55,27.55
		s12.335,27.55,27.55,27.55S521.802,500.56,521.802,485.345z M465.082,554.309c0-15.2-12.322-27.522-27.522-27.522
		c-15.2,0-27.522,12.322-27.522,27.522s12.322,27.522,27.522,27.522C452.76,581.831,465.082,569.509,465.082,554.309z
		 M541.853,585.14c0-15.157-12.287-27.444-27.444-27.444c-15.157,0-27.444,12.287-27.444,27.444s12.287,27.444,27.444,27.444
		C529.566,612.584,541.853,600.297,541.853,585.14z M392.869,618.419c0-15.128-12.264-27.391-27.391-27.391
		s-27.391,12.264-27.391,27.391s12.264,27.391,27.391,27.391S392.869,633.547,392.869,618.419z"/>
	<path fill="#AED1AB" d="M864,1072v112H0v-105c1.879-0.06,3.223-0.749,5.396-1.878c101.569-52.785,213.708-81.165,326.857-92.998
		l1.545,12.841c-7.001,2.242-11.986,7.93-10.016,15.459l27.52-0.078l1.486-30.191l23.229-1.562l1.382,31.501l27.173,0.18
		c1.761-7.695-2.988-12.793-9.644-15.254l2.009-17.434l69.532-0.709c1.864,7.703,6.892,12.274,12.215,16.608
		c1.906,1.7,2.838,7.974,1.226,10.137c-1.351,1.815-5.054,5.453-1.831,7.24c2.501,1.386,7.704,0.268,10.938,0.273l1.196-13.784
		c2.271-0.552,4.393-0.63,7.106-0.182c0.721,4.793-0.475,9.382,1.35,14.045c3.366-0.096,8.392,0.965,10.967-0.42
		c2.425-2.051-0.802-4.717-2.223-6.507c-1.763-2.22-1.155-8.727,0.891-10.698c4.623-4.454,8.845-7.911,11.338-14.562
		C638.646,989.202,758.035,1017.07,864,1072z"/>
	<path fill="#9BBE9B" d="M864,905v162c-103.885-53.18-219.149-80.461-336.172-89.593c2.55-11.082-6.598-20.085-15.358-27.233
		c-2.519-2.055,1.195-6.298,3.025-7.441c1.957-1.222,1.69-4.619,0.752-5.422l-3.422-2.928c-4.09-8.887-10.659-8.441-7.72-18.112
		c6.392-0.09,11.941,1.86,17.164,6.038c8.588-7.853,20.021-7.451,30.201-0.294c0.82-10.581-4.61-18.799-9.779-26.694
		C648.999,870.821,762.093,866.878,864,905z"/>
	<path fill="#9BBE9B" d="M0,1074.969V923c81.05-20.352,167.107-20.965,250.089-8.445l47.231,8.398
		c5.291,16.788,16.626,30.178,31.937,38.734l2.479,18.179C215.716,992.441,103.24,1020.745,0,1074.969z"/>
	<path fill="#161513" d="M864,900v5c-101.907-38.122-215.001-34.179-321.311-9.678c5.169,7.894,10.6,16.113,9.779,26.694
		c-10.18-7.156-21.613-7.559-30.201,0.294c-5.224-4.178-10.773-6.128-17.164-6.038c-2.939,9.671,3.63,9.225,7.72,18.112l3.422,2.928
		c0.938,0.802,1.205,4.199-0.752,5.422c-1.83,1.143-5.544,5.386-3.025,7.441c8.76,7.148,17.908,16.151,15.358,27.233
		C644.851,986.539,760.115,1013.82,864,1067v5c-105.965-54.93-225.354-82.798-344.358-90.973
		c-2.493,6.651-6.715,10.108-11.338,14.562c-2.045,1.971-2.653,8.477-0.891,10.698c1.421,1.79,4.648,4.457,2.223,6.507
		c-2.575,1.385-7.602,0.324-10.967,0.42c-1.825-4.664-0.629-9.253-1.35-14.045c-2.713-0.448-4.835-0.37-7.106,0.182l-1.196,13.784
		c-3.234-0.005-8.437,1.113-10.938-0.273c-3.223-1.786,0.48-5.425,1.831-7.24c1.611-2.164,0.68-8.437-1.226-10.137
		c-5.324-4.334-10.351-8.905-12.215-16.608l-69.532,0.709l-2.009,17.434c6.657,2.461,11.405,7.559,9.644,15.254l-27.173-0.18
		l-1.382-31.501l-23.229,1.562l-1.486,30.191l-27.52,0.078c-1.97-7.529,3.015-13.217,10.016-15.459l-1.545-12.841
		c-113.15,11.833-225.288,40.213-326.857,92.998C3.223,1078.251,1.879,1078.94,0,1079v-4.031
		c103.24-54.224,215.716-82.527,331.736-95.103l-2.479-18.179c-15.312-8.556-26.647-21.946-31.937-38.734l-47.231-8.398
		C167.107,902.035,81.05,902.648,0,923v-4.126c87.716-22.088,182.057-20.808,272.457-4.721c-0.114-5.258,0.034-9.821,2.473-14.18
		l12.64-22.594c6.573-9.724,15.198-18.291,25.206-24.325c4.019-2.424,7.287-4.383,10.776-8.298l-6.309-13.295
		c-1.392-2.934-8.297-2.755-9.146-7.278c-0.666-3.545-0.97-7.559,1.043-10.409c1.606-2.274,5.436-3.418,8.343-4.453
		c2.632-6.219,4.634-13.367,9.13-18.748c12.308-14.73,30.7-20.747,49.889-16.169c16.419,3.917,29.72,18.127,34.777,34.827
		c6.117,1.947,11.704,6.047,9.606,14.354c9.96-10.782,4.656-23.467,14.443-22.536l-0.02-47.372
		c-16.797,0.428-32.089,5.692-44.89,15.834c-20.736-18.246-50.303-19.83-72.401-4.556c-0.359,2.018-4.243,3.867-4.899,2.202
		c-1.669-4.23,0.843-9.05,1.774-13.343c12.163-56.099,62.289-96.126,120.255-97.721l0.607-9.252
		c0.072-1.103,2.049-1.172,2.594-0.749c2.248,1.748,0.184,5.667,1.405,10.048c62.135,1.844,114.647,49.063,121.489,110.808
		c0.111,1-3.189,1.332-3.539,0.803l-1.806-2.726c-22.291-15.469-52.013-13.433-72.575,4.377
		c-13.075-10.263-28.105-15.527-44.336-15.391l0.374,51.497c3.551,1.137,6.378,3.15,7.572,5.234
		c2.061,3.598,1.323,6.692-0.206,9.995l-7.268,15.696c-1.442,3.115-0.61,7.851,0.088,11.073c0.66,3.047,3.759,4.432,5.968,4.531
		c10.039,0.449,7.442-13.191,9.353-14.519c3.55-2.467,4.237,10.034-0.963,14.974c-2.9,2.755-7.432,4.167-11.823,2.895
		c-3.968-1.15-5.77-5.135-7.516-10.131l-13.48,18.145c12.518,18.799,15.211,41.693,7.391,64.386l26.694-9.513
		c3.442-23.91,23.474-39.18,46.443-41.746c-0.288-1.851,0.227-2.492,0.682-3.003c0.879-0.989,2.374-0.843,2.65,0.173l0.788,2.899
		c12.47,0.905,24.131,5.673,33.424,15.112c88.064-20.393,179.164-26.847,267.753-7.737c18.065,3.897,34.832,8.733,51.933,15.155
		C860.77,899.851,862.278,900.552,864,900z M481.151,762.292c-0.708-26.493-6.417-50.239-16.68-72.612
		c-5.441-10.636-11.055-20.37-19.717-28.608c-4.758-1.689-9.95-1.472-15.05-0.392c-25.036,24.701-35.899,66.114-36.958,101.659
		C420.293,745.272,453.675,745.527,481.151,762.292z M408.61,682.207c4.399-8.069,8.901-14.484,14.549-21.244
		c-52.471,6.589-95.54,45.731-105.203,98.574c22.433-12.594,48.862-12.163,70.595,3.026
		C389.495,734.437,395.541,707.503,408.61,682.207z M556.133,759.97c-4.956-28.947-19.959-52.873-41.118-70.975
		c-18.492-15.21-39.958-25.276-64.399-28.07c23.776,28.277,33.034,65.588,34.83,101.472
		C507.408,747.423,533.846,746.798,556.133,759.97z M372.612,801.665c-1.011-5.382-2.108-6.764,0.377-9.431
		c9.47,7.797,20.103,11.807,32.259,12.567c-7.236-18.06-25.341-29.595-44.576-27.928c-18.607,1.612-35.151,14.863-39.016,34.562
		c19.633-3.093,18.109-23.684,19.926-24.457c0.739-0.314,1.772,0.138,2.567,0.916C351.875,795.447,361.695,801.131,372.612,801.665z
		 M406.571,808.963c-11.139-0.768-20.373-3.676-29.738-8.845c-0.385,1.798-0.694,3.674-1.606,4.476
		c-4.1,3.609-23.198-3.529-31.126-11.08c-2.87,12.007-10.961,21.174-23.249,21.957c-2.199,24.389,15.076,46.57,40.094,48.773
		c14.506,1.278,27.887-5.094,36.642-15.376C406.974,837.845,410.341,823.461,406.571,808.963z M444.333,816.308
		c0.513-3.694-2.505-7.524-5.997-6.669c-2.671,0.654-3.784,4.757-3.637,7.284c0.176,3.017,2.53,4.367,4.808,4.469
		C441.841,821.496,443.834,819.9,444.333,816.308z M316.918,813.701c-4.461,0.909-5.255,4.116-5.157,6.788
		c0.102,2.799,1.92,5.416,5.055,5.765L316.918,813.701z M411.908,826.043c4.423-0.932,5.345-3.858,5.201-6.526
		c-0.139-2.569-2.023-5.005-5.355-5.766L411.908,826.043z M434.385,824.543c-0.5-2.609-3.96-4.247-5.896-4.541
		c-6.097,10.411-13.133,18.821-22.161,27.216l12.447,12.393C428.763,847.291,437.295,839.722,434.385,824.543z M417.207,829.436
		c-3.502-0.684-4.742,0.488-6.281,1.457c-0.74,2.51-1.936,4.372-1.662,7.799C412.609,835.909,414.916,832.808,417.207,829.436z
		 M409.71,948.271c29.165-28.123,24.6-75.243-7.43-98.753c-9.934,12.419-23.656,19.234-38.656,18.899
		c-14.646-0.328-28.487-7.323-37.804-19.959c-19.574,14.473-30.312,36.714-27.344,60.896c2.692,21.94,16.368,41.831,37.952,51.47
		C360.703,971.665,389.952,967.323,409.71,948.271z M293.446,903.14c0.712-12.222,3.093-22.653,8.063-33.135
		c-0.071-0.895-1.679-1.463-2.356-0.727c-7.485,8.139-13.185,17.403-18.166,27.226L293.446,903.14z M519.987,916.21
		c-0.695-13.157-4.38-23.751-10.981-33.14c-1.533-1.944-3.27-3.312-5.425-3.079c-7.492,0.808-15.853,23.404-15.608,36.463
		C498.587,911.281,509.389,911.807,519.987,916.21z M484.265,916.344c1.13-13.885,4.757-24.981,11.814-35.341
		c-17.707,3.862-32.245,16.221-36.804,34.422C468.377,912.219,476.006,912.705,484.265,916.344z M513.234,881.348
		c-0.567-1.011-1.887-0.011-0.869,0.786L513.234,881.348z M513.852,881.306l-1.048,1.284c6.618,9.797,9.531,21.03,10.933,34.004
		c8.089-4.207,15.878-4.014,24.886-1.193C544.329,897.689,530.373,885.158,513.852,881.306z M290.711,911.96
		c1.494-2.244,0.677-5.111-1.371-6.217l-10.274-5.545c-1.844,3.744-2.897,6.923-2.687,10.556c0.152,2.642,1.795,4.674,4.096,4.575
		C285.627,915.109,285.867,905.409,290.711,911.96z M286.695,917.199l9.449,1.548l-0.744-4.731
		c-2.511,2.458-4.975,2.289-7.197,0.372C286.97,915.251,286.549,916.266,286.695,917.199z M470.942,942.945
		c-2.273-4.383,0.062-7.001,3.474-8.499c4.521-10.339,15.892-15.284,26.513-11.248c0.844-2.331,1.04-4.075,0.26-6.917
		c-5.86,0.296-10.331,2.921-15.02,6.057c-4.252-3.557-8.738-5.825-14.238-5.725l-46.252,17.202
		c-4.131,7.667-9.339,13.951-15.94,19.895l43.885,18.589c3.756,2.499,8.238,3.362,12.167,1.288
		c-1.415-10.007,3.139-17.297,9.227-23.956C476.51,947.999,472.881,943.357,470.942,942.945z M491.143,931.957
		c3.233-0.588,5.897-3.254,8.336-6.281c-8.332-2.231-16.999,0.313-21.071,8.597L491.143,931.957z M482.072,943.014
		c4.892-2.061,9.107,7.739,16.785-0.073c2.17-2.208,1.665-2.865,1.782-5.769c0.099-2.459,0.962-5.471-1.74-7.172
		c-3.764,4.242-7.763,4.649-12.292,5.749l-9.56,2.322c-0.872,6.076,1.732,10.93,6.16,14.867c4.766,4.239,12.893,5.719,17.866,0.953
		C500.544,942.576,489.865,954.503,482.072,943.014z M504.489,950.353c5.423-2.664,6.754-10.962,3.549-12.984
		c-1.167-0.736-3.64-0.899-4.099,0.554c0.753,2.141,3.361,3.37,3.171,6.379C507.015,945.795,503.216,947.34,504.489,950.353z
		 M501.705,957.504c-8.685,4.765-17.864,2.133-23.821-5.114c-10.745,8.934-11.875,24.969-2.785,34.968
		c9.163,10.08,24.973,10.979,34.974,1.457c9.301-8.856,10.37-24.07,1.466-33.956C509.632,959.251,505.878,959.136,501.705,957.504z
		 M397.92,975.473l48.832-1.521l-40.553-17.107l-6.942,4.485L397.92,975.473z M523.189,967.864c-0.382-2.58-1.602-5.338-3.905-6.883
		l1.412,8.193C521.366,969.569,523.291,968.554,523.189,967.864z M391.15,995.525l3.715-31.728l-16.103,5.217l2.499,26.495
		L391.15,995.525z M347.597,995.418l2.225-26.058l-16.087-4.941l4.241,31.197L347.597,995.418z M375.478,976.482
		c0.22-2.426,0.11-4.844-1.115-6.769c-7.27,1.262-13.416,1.221-20.428,0.149c-0.698,2.9-0.749,5.195-0.703,8.051L375.478,976.482z
		 M486.664,1000.47c0.068-1.519-0.093-2.622-0.702-2.935c-0.364-0.187-1.026-0.382-2.497-0.54c-0.259,2.317-0.245,5.234,0.685,7.591
		c0.903,0.473,2.336-0.126,2.361-0.675L486.664,1000.47z M503.635,997.172c-0.944-0.39-2.843,0.194-2.947,0.571
		c-0.475,2.458-0.815,5.487,1.268,7.988C504.08,1003.012,503.971,999.989,503.635,997.172z M347.514,1008.621l0.005-9.106
		l-11.278,0.545c-4.419,1.261-8.399,4.011-9.064,8.702L347.514,1008.621z M401.438,1008.286c-1.928-5.379-5.126-6.503-8.591-8.335
		c-3.99-0.462-7.738-0.705-11.575-0.137l0.164,8.804L401.438,1008.286z"/>
	
	
	
	
	<path fill="#EA745E" d="M409.71,948.271c-19.758,19.052-49.008,23.394-73.283,12.552c-21.584-9.64-35.259-29.531-37.952-51.47
		c-2.967-24.182,7.77-46.423,27.344-60.896c9.317,12.637,23.158,19.631,37.804,19.959c15.001,0.336,28.722-6.48,38.656-18.899
		C434.311,873.028,438.875,920.148,409.71,948.271z"/>
	<path fill="#EA745E" d="M481.151,762.292c-27.477-16.765-60.858-17.02-88.404,0.047c1.059-35.545,11.922-76.958,36.958-101.659
		c5.099-1.08,10.292-1.296,15.05,0.392c8.663,8.238,14.276,17.972,19.717,28.608C474.734,712.053,480.444,735.799,481.151,762.292z"
		/>
	<path fill="#EA745E" d="M556.133,759.97c-22.287-13.173-48.725-12.547-70.688,2.427c-1.796-35.884-11.054-73.195-34.83-101.472
		c24.441,2.794,45.907,12.86,64.399,28.07C536.173,707.098,551.177,731.024,556.133,759.97z"/>
	<path fill="#EA745E" d="M408.61,682.207c-13.069,25.296-19.115,52.23-20.058,80.356c-21.733-15.189-48.163-15.62-70.595-3.026
		c9.663-52.843,52.732-91.985,105.203-98.574C417.511,667.723,413.009,674.138,408.61,682.207z"/>
	<path fill="#F6F2E2" d="M406.571,808.963c3.771,14.498,0.403,28.882-8.982,39.905c-8.755,10.282-22.136,16.654-36.642,15.376
		c-25.018-2.203-42.293-24.384-40.094-48.773c12.288-0.783,20.379-9.95,23.249-21.957c7.928,7.551,27.026,14.689,31.126,11.08
		c0.911-0.802,1.221-2.678,1.606-4.476C386.198,805.287,395.431,808.195,406.571,808.963z M348.636,816.219
		c0-1.835-1.488-3.323-3.323-3.323c-1.835,0-3.323,1.488-3.323,3.323c0,1.835,1.488,3.323,3.323,3.323
		C347.148,819.542,348.636,818.054,348.636,816.219z M371.336,823.109c1.252-3.719-1.185-7.969-3.368-10.842
		c-3.217,2.468-1.398,5.543,0.566,9.152c-1.96,0.451-4.454-0.286-6.145,1.69C363.418,826.44,370.125,826.705,371.336,823.109z
		 M387.796,816.268c0-1.78-1.443-3.223-3.223-3.223s-3.223,1.443-3.223,3.223c0,1.78,1.443,3.223,3.223,3.223
		S387.796,818.048,387.796,816.268z M384.935,827.505c-10.52,13.219-30.03,12.599-40.391-0.059c-1.18-1.442-2.605-1.006-3.234-0.303
		c-1.101,1.232-0.576,2.718,0.567,3.916c12.968,13.587,34.367,13.746,46.222-0.88c1.008-1.244,0.798-2.505,0.158-3.043
		C387.549,826.542,386.015,826.148,384.935,827.505z"/>
	<path fill="#9BBE9B" d="M470.942,942.945c1.938,0.412,5.567,5.054,4.075,6.686c-6.088,6.659-10.641,13.948-9.227,23.956
		c-3.93,2.074-8.411,1.211-12.167-1.288l-43.885-18.589c6.602-5.945,11.809-12.228,15.94-19.895l46.252-17.202
		c5.5-0.1,9.986,2.168,14.238,5.725c4.689-3.135,9.16-5.76,15.02-6.057c0.781,2.842,0.584,4.586-0.26,6.917
		c-10.621-4.036-21.992,0.908-26.513,11.248C471.004,935.944,468.669,938.562,470.942,942.945z"/>
	<path fill="#EA745E" d="M501.705,957.504c4.173,1.632,7.927,1.747,9.834-2.644c8.904,9.886,7.835,25.101-1.466,33.956
		c-10.001,9.522-25.812,8.622-34.974-1.457c-9.09-10-7.96-26.034,2.785-34.968C483.841,959.637,493.02,962.269,501.705,957.504z"/>
	<path fill="#E4C16C" d="M372.612,801.665c-10.917-0.534-20.737-6.218-28.462-13.771c-0.795-0.778-1.828-1.23-2.567-0.916
		c-1.818,0.773-0.293,21.364-19.926,24.457c3.865-19.699,20.409-32.949,39.016-34.562c19.235-1.667,37.34,9.868,44.576,27.928
		c-12.155-0.76-22.789-4.77-32.259-12.567C370.504,794.901,371.601,796.283,372.612,801.665z"/>
	<path fill="#E4C16C" d="M519.987,916.21c-10.598-4.402-21.4-4.929-32.014,0.244c-0.244-13.06,8.117-35.656,15.608-36.463
		c2.155-0.232,3.892,1.135,5.425,3.079C515.607,892.459,519.292,903.052,519.987,916.21z"/>
	<path fill="#E4C16C" d="M512.365,882.134c-1.017-0.797,0.302-1.798,0.869-0.786c0.146,0.052,0.393,0.069,0.618-0.042
		c16.521,3.852,30.477,16.383,34.772,34.095c-9.008-2.821-16.797-3.015-24.886,1.193c-1.402-12.973-4.315-24.206-10.933-34.004
		C512.711,882.364,512.496,882.191,512.365,882.134z"/>
	<path fill="#E4C16C" d="M484.265,916.344c-8.259-3.639-15.888-4.125-24.99-0.92c4.559-18.201,19.097-30.559,36.804-34.422
		C489.021,891.362,485.394,902.459,484.265,916.344z"/>
	<path fill="#EA745E" d="M434.385,824.543c2.909,15.179-5.622,22.748-15.609,35.068l-12.447-12.393
		c9.027-8.395,16.063-16.805,22.161-27.216C430.426,820.296,433.885,821.934,434.385,824.543z"/>
	<polygon fill="#9BBE9B" points="397.92,975.473 399.256,961.329 406.198,956.844 446.752,973.952 	"/>
	<path fill="#F6F2E2" d="M482.072,943.014c7.793,11.489,18.472-0.438,19.001,10.877c-4.973,4.766-13.1,3.286-17.866-0.953
		c-4.428-3.938-7.032-8.791-6.16-14.867l9.56-2.322c4.529-1.1,8.528-1.507,12.292-5.749c2.702,1.701,1.84,4.713,1.74,7.172
		c-0.117,2.904,0.388,3.561-1.782,5.769C491.18,950.752,486.964,940.953,482.072,943.014z"/>
	<polygon fill="#EA745E" points="391.15,995.525 381.261,995.51 378.762,969.014 394.865,963.797 	"/>
	<polygon fill="#EA745E" points="347.597,995.418 337.976,995.617 333.735,964.42 349.822,969.36 	"/>
	<path fill="#EA745E" d="M293.446,903.14l-12.459-6.636c4.981-9.823,10.681-19.087,18.166-27.226
		c0.676-0.735,2.285-0.168,2.356,0.727C296.539,880.487,294.158,890.919,293.446,903.14z"/>
	<path fill="#E4C16C" d="M347.514,1008.621l-20.337,0.142c0.666-4.691,4.645-7.441,9.064-8.702l11.278-0.545L347.514,1008.621z"/>
	<path fill="#E4C16C" d="M401.438,1008.286l-20.002,0.333l-0.164-8.804c3.837-0.568,7.585-0.325,11.575,0.137
		C396.311,1001.784,399.51,1002.908,401.438,1008.286z"/>
	<path fill="#9BBE9B" d="M375.478,976.482l-22.245,1.432c-0.046-2.856,0.005-5.151,0.703-8.051
		c7.012,1.072,13.158,1.113,20.428-0.149C375.587,971.638,375.698,974.056,375.478,976.482z"/>
	<path fill="#F6F2E2" d="M290.711,911.96c-4.844-6.551-5.084,3.148-10.236,3.369c-2.301,0.099-3.944-1.933-4.096-4.575
		c-0.209-3.632,0.843-6.812,2.687-10.556l10.274,5.545C291.388,906.849,292.205,909.716,290.711,911.96z"/>
	<path fill="#E4C16C" d="M491.143,931.957l-12.735,2.315c4.072-8.284,12.739-10.828,21.071-8.597
		C497.039,928.703,494.376,931.369,491.143,931.957z"/>
	<path fill="#F6F2E2" d="M444.333,816.308c-0.499,3.592-2.492,5.188-4.826,5.084c-2.278-0.102-4.632-1.452-4.808-4.469
		c-0.147-2.527,0.966-6.63,3.637-7.284C441.828,808.784,444.846,812.615,444.333,816.308z"/>
	<path fill="#F6F2E2" d="M316.918,813.701l-0.102,12.553c-3.135-0.349-4.953-2.966-5.055-5.765
		C311.663,817.816,312.457,814.61,316.918,813.701z"/>
	<path fill="#F6F2E2" d="M411.908,826.043l-0.154-12.291c3.332,0.76,5.216,3.197,5.355,5.766
		C417.253,822.185,416.331,825.111,411.908,826.043z"/>
	<path fill="#F6F2E2" d="M504.489,950.353c-1.273-3.014,2.526-4.558,2.621-6.051c0.191-3.008-2.418-4.238-3.171-6.379
		c0.459-1.454,2.932-1.291,4.099-0.554C511.243,939.391,509.912,947.689,504.489,950.353z"/>
	<path fill="#F6F2E2" d="M417.207,829.436c-2.291,3.372-4.598,6.473-7.944,9.256c-0.274-3.427,0.922-5.289,1.662-7.799
		C412.466,829.924,413.706,828.752,417.207,829.436z"/>
	<path fill="#AED1AB" d="M286.695,917.199c-0.146-0.932,0.274-1.948,1.508-2.811c2.221,1.917,4.685,2.086,7.197-0.372l0.744,4.731
		L286.695,917.199z"/>
	<path fill="#EA745E" d="M486.664,1000.47l-0.154,3.441c-0.025,0.55-1.457,1.148-2.361,0.675c-0.93-2.357-0.944-5.274-0.685-7.591
		c1.47,0.157,2.133,0.353,2.497,0.54C486.571,997.848,486.732,998.951,486.664,1000.47z"/>
	<path fill="#EA745E" d="M503.635,997.172c0.336,2.817,0.445,5.84-1.679,8.559c-2.083-2.501-1.743-5.53-1.268-7.988
		C500.793,997.366,502.691,996.782,503.635,997.172z"/>
	<path fill="#EA745E" d="M523.189,967.864c0.102,0.691-1.824,1.706-2.492,1.31l-1.412-8.193
		C521.588,962.525,522.808,965.283,523.189,967.864z"/>
	
	
	
	
	
	<path fill="#161513" d="M384.935,827.505c1.081-1.358,2.615-0.963,3.322-0.369c0.64,0.538,0.85,1.799-0.158,3.043
		c-11.854,14.626-33.254,14.467-46.222,0.88c-1.143-1.198-1.668-2.685-0.567-3.916c0.629-0.703,2.054-1.138,3.234,0.303
		C354.905,840.105,374.415,840.725,384.935,827.505z"/>
	<path fill="#161513" d="M371.336,823.109c-1.211,3.595-7.918,3.331-8.948,0c1.691-1.977,4.185-1.239,6.145-1.69
		c-1.963-3.609-3.783-6.683-0.566-9.152C370.15,815.14,372.588,819.39,371.336,823.109z"/>
	<circle fill="#161513" cx="345.313" cy="816.219" r="3.323"/>
	<circle fill="#161513" cx="384.573" cy="816.268" r="3.223"/>
	
	
	
	
	
	
	
	
	
	
</g>
</svg>
