<svg xmlns="http://www.w3.org/2000/svg" xmlns:xlink="http://www.w3.org/1999/xlink"
	 viewBox="0 0 1344 768">
<g>
	<path fill="#F4F3E5" d="M0.124,675.006L0,0l1343.982,0.083L1344,560.184c-76.525-14.438-154.339-18.591-232.993-17.73
		c2.277-47.279-26.534-88.519-70.082-104.516l-0.507-4.42c-0.108-0.942-3.295,0.588-3.778,2.942
		c-45.811-14.763-94.267-0.528-122.25,40.655c21.487-3.786,40.895,2.945,51.41,21.103c16.434-2.564,32.153-1.631,47.895,3.566
		l-14.679,45.15l-19.355,1.821c-4.506-12.495-16.156-19.498-28.852-18.148c-12.322,1.31-22.618,10.959-23.763,24.321l-16.159,1.875
		c-1.647-2.89-2.388-5.592-2.929-8.983l17.789-19.966c-1.971-2.57-2.004-4.732-0.866-7.65c4.699-12.051,0.305-24.933-11.018-31.092
		c1.319-13.453-3.601-25.294-12.423-35.067l-1.863-49.068c28.891-0.693,56.126,5.12,81.242,18.117
		c14.97-13.75,34.237-19.821,54.183-18.25c13.211,1.04,23.854,5.679,37.298,11.911c-23.203-77.916-93.733-124.982-173.304-124.5
		c-2.426,0.015-1.157-3.019-2.403-6.221c-0.245-0.631-2.103-1.17-2.872,0.023l-0.495,6.257
		c-52.625,2.15-105.575,26.383-138.068,67.814c-14.952,19.065-25.133,40.571-31.557,63.765c-0.213,0.77,0.291,1.358,0.601,1.469
		c0.301,0.108,1.363,0.397,1.779,0.111c27.126-18.678,63.642-18.474,89.92,3.031c24.913-14.272,51.594-22.233,80.331-23.458
		l1.122,44.41c-21.352-18.51-52.502-15.301-69.77,5.525c-17.257,20.812-14.127,52.635,8.54,69.543
		c-9.519,8.26-17.753,17.731-25.119,28.332c0.975,1.562,1.778,2.259,3.109,3.484l-9.573,19.127
		c-76.876,16.23-151.847,36.486-224.641,65.795c-62.372-9.569-124.591-14.447-187.84-15.876
		c-65.408-1.478-129.883,0.85-195.255,8.484c-5.944-15.297-9.065-30.629-9.944-47.662c7.508,2.636,14.178,3.156,21.536,0.023
		c5.651-2.406,9.395-8.303,12.241-14.807c5.654-0.648,12.179-1.722,16.413-5.937c4.385-4.366,5.577-11.12,5.868-17.203
		c8.194-4.657,14.232-11.27,15.73-19.411c1.892-10.283-1.891-18.893-8.779-26.105c2.461-5.916,3.749-12.525,1.332-19.047
		c-2.187-5.902-8.291-8.91-14.075-12.289c-0.959-5.341-1.349-12.748-5.811-17.201c-4.699-4.689-11.378-4.874-17.295-5.662
		c-3.277-5.868-7.426-11.611-12.632-13.795c-7.09-2.974-13.988-1.491-20.303,1.287c-13.157-7.242-27.938-1.005-34.395,12.227
		c-9.65,0.135-20.253,2.726-26.633,10.24c-6.928,8.159-7.025,18.544-5.155,28.539c-6.609,5.19-13.102,12.819-13.658,21.534
		c-0.667,10.457,4.579,18.25,10.576,25.684c-0.876,6.824-3.022,16.019,2.431,22.883c4.399,5.537,11.164,9.956,20.123,9.846
		c1.122,5.695,2.757,10.873,7.01,14.71c7.304,6.591,17.416,8.048,27.009,4.214c0.57,17.728-0.434,34.926-3.896,52.231
		c-46.361,6.6-91.004,14.881-135.026,28.233L0.124,675.006z M919.218,194.407c0-13.315-10.793-24.109-24.107-24.109
		c-13.314,0-24.107,10.794-24.107,24.109c0,13.315,10.793,24.109,24.107,24.109C908.424,218.515,919.218,207.722,919.218,194.407z
		 M863.063,225.259c0-13.427-10.884-24.312-24.311-24.312s-24.311,10.885-24.311,24.312s10.884,24.312,24.311,24.312
		S863.063,238.686,863.063,225.259z M968.645,232.424c0-13.367-10.835-24.203-24.201-24.203s-24.201,10.836-24.201,24.203
		s10.835,24.203,24.201,24.203S968.645,245.791,968.645,232.424z M911.163,256.72c0-13.391-10.855-24.247-24.246-24.247
		c-13.391,0-24.246,10.856-24.246,24.247s10.855,24.247,24.246,24.247C900.307,280.968,911.163,270.112,911.163,256.72z"/>
	<path fill="#C2D093" d="M1343.991,672.48l0.006,93.52l-1028.353-0.013c32.26-18.73,66.01-33.874,101.314-47.24
		c131.131-49.648,276.604-70.608,416.27-81.596c0.391,5.786,1.579,10.833,0.673,15.713c-2.534,2.387-6.668,4.39-7.48,8.348
		c-0.673,3.28,0.575,5.68,3.933,6.351c8.956,1.792,21.844,0.419,21.43-5.602c-0.607-8.83,0.052-17.07,1.444-26.227l33.723-2.169
		c1.726,9.629,2.626,18.217,2.024,27.466c-0.162,2.483,1.456,4.63,3.752,5.151c8.404,1.907,20.037,2.206,21.544-2.335
		c1.475-4.444-2.975-8.566-8.158-11.953l0.771-19.222l22.048-0.663c0.322,1.454,0.185,3.864,0.992,4.417
		c0.645,0.443,3.45,0.139,3.76,0.877c1.083,2.58,2.036,8.612-0.091,11.076c-1.885,2.184-4.938,5.474-1.602,7.808
		c2.851,1.995,10.721,1.762,12.68-1.115l2.263-17.346c2.75,0.9,5.885-1.929,7.575-2.037c2.038,0.443,5.149,2.497,8.331,2.01
		l2.188,16.894c1.786,3.746,11.429,3.737,13.875,0.787c2.336-2.818-1.773-5.696-2.697-7.505c-1.539-3.013-1.146-7.869,0.155-10.606
		c0.492-1.034,3.477-0.949,3.555-1.93l0.36-4.565l32.237-0.1c-0.2,3.529,2.64,3.555,4.034,4.764
		c5.169,9.748-5.698,13.726-1.83,17.192c2.483,2.225,10.616,1.962,12.54-0.833l1.889-16.303c2.843,0.81,5.748-1.488,7.915-1.101
		l7.721,1.38l2.173,16.09c0.495,3.663,10.697,3.413,13.044,0.67c3.204-3.745-7.36-7.098-2.159-16.797
		c1.662-0.858,4.18-0.64,4.623-4.028C1157.283,635.334,1253.081,644.643,1343.991,672.48z"/>
	<path fill="#A5CCA7" d="M308.25,765.992L0.096,765.529l0.024-86.853c36.242-11.109,73.024-20.516,111.073-27.817
		c137.269-26.337,278.86-27.956,417.614-12.895c37.145,4.885,73.288,8.937,110.885,18.058l-94.816,19.91
		C461.839,696.343,381.664,723.31,308.25,765.992z"/>
	<path fill="#272522" d="M1344,560.184l-0.003,4.291c-34.224-7.001-68.602-11.587-104.125-14.405
		c-60.114-4.769-119.445-5.431-180.057-2.468c6.069,10.927,4.152,22.889-4.39,31.366l12.251,14.383
		c-0.89,2.583-0.504,4.745,0.874,6.979c3.778,6.125,4.935,12.946,1.1,14.739c-1.619,0.757-3.946,0.626-6.266-1.718
		c-2.545,4.229-3.229,9.299-1.329,14.741c95.307,3.734,190.883,12.743,281.942,40.217l-0.008,4.172
		c-90.909-27.837-186.708-37.147-281.527-40.775c-0.443,3.388-2.961,3.17-4.623,4.028c-5.2,9.698,5.364,13.052,2.159,16.797
		c-2.347,2.743-12.549,2.994-13.044-0.67l-2.173-16.09l-7.721-1.38c-2.167-0.387-5.072,1.911-7.915,1.101l-1.889,16.303
		c-1.924,2.795-10.057,3.058-12.54,0.833c-3.868-3.466,6.999-7.444,1.83-17.192c-1.394-1.209-4.234-1.235-4.034-4.764l-32.237,0.1
		l-0.36,4.565c-0.078,0.982-3.063,0.896-3.555,1.93c-1.301,2.737-1.694,7.593-0.155,10.606c0.924,1.809,5.032,4.687,2.697,7.505
		c-2.446,2.951-12.089,2.96-13.875-0.787l-2.188-16.894c-3.182,0.487-6.293-1.567-8.331-2.01c-1.69,0.108-4.825,2.937-7.575,2.037
		l-2.263,17.346c-1.96,2.877-9.829,3.11-12.68,1.115c-3.336-2.334-0.284-5.623,1.602-7.808c2.127-2.464,1.174-8.496,0.091-11.076
		c-0.31-0.738-3.115-0.434-3.76-0.877c-0.807-0.553-0.671-2.964-0.992-4.417l-22.048,0.663l-0.771,19.222
		c5.183,3.387,9.633,7.509,8.158,11.953c-1.507,4.541-13.139,4.243-21.544,2.335c-2.295-0.521-3.913-2.668-3.752-5.151
		c0.602-9.25-0.298-17.838-2.024-27.466l-33.723,2.169c-1.392,9.157-2.051,17.397-1.444,26.227
		c0.414,6.021-12.474,7.394-21.43,5.602c-3.358-0.672-4.606-3.071-3.933-6.351c0.812-3.958,4.946-5.961,7.48-8.348
		c0.906-4.881-0.283-9.927-0.673-15.713c-139.666,10.988-285.139,31.949-416.27,81.596c-35.304,13.366-69.054,28.51-101.314,47.24
		l-7.394,0.005c73.414-42.682,153.589-69.649,236.627-90.06l94.816-19.91c-37.598-9.12-73.74-13.172-110.885-18.058
		c-138.754-15.061-280.345-13.442-417.614,12.895c-38.049,7.3-74.831,16.708-111.073,27.817l0.003-3.669l29.352-8.606
		c44.022-13.352,88.664-21.633,135.026-28.233c3.461-17.304,4.466-34.503,3.896-52.231c-9.593,3.834-19.705,2.378-27.009-4.214
		c-4.252-3.838-5.888-9.015-7.01-14.71c-8.959,0.11-15.724-4.309-20.123-9.846c-5.453-6.864-3.307-16.059-2.431-22.883
		c-5.997-7.434-11.243-15.227-10.576-25.684c0.556-8.715,7.049-16.344,13.658-21.534c-1.869-9.995-1.772-20.38,5.155-28.539
		c6.38-7.514,16.982-10.105,26.633-10.24c6.457-13.233,21.238-19.469,34.395-12.227c6.315-2.778,13.213-4.261,20.303-1.287
		c5.207,2.184,9.355,7.927,12.632,13.795c5.917,0.788,12.597,0.973,17.295,5.662c4.462,4.453,4.852,11.859,5.811,17.201
		c5.783,3.38,11.888,6.387,14.075,12.289c2.417,6.522,1.129,13.131-1.332,19.047c6.888,7.212,10.671,15.822,8.779,26.105
		c-1.498,8.141-7.536,14.754-15.73,19.411c-0.291,6.083-1.483,12.837-5.868,17.203c-4.234,4.215-10.759,5.289-16.413,5.937
		c-2.846,6.503-6.59,12.4-12.241,14.807c-7.358,3.133-14.027,2.613-21.536-0.023c0.88,17.033,4,32.365,9.944,47.662
		c65.372-7.634,129.846-9.962,195.255-8.484c63.25,1.429,125.468,6.307,187.84,15.876c72.794-29.309,147.765-49.565,224.641-65.795
		l9.573-19.127c-1.331-1.225-2.134-1.922-3.109-3.484c7.365-10.602,15.599-20.072,25.119-28.332
		c-22.667-16.908-25.797-48.731-8.54-69.543c17.268-20.826,48.417-24.035,69.77-5.525l-1.122-44.41
		c-28.737,1.225-55.418,9.186-80.331,23.458c-26.278-21.505-62.794-21.709-89.92-3.031c-0.416,0.286-1.478-0.003-1.779-0.111
		c-0.311-0.112-0.815-0.7-0.601-1.469c6.424-23.194,16.605-44.7,31.557-63.765c32.493-41.432,85.443-65.664,138.068-67.814
		l0.495-6.257c0.769-1.193,2.627-0.654,2.872-0.023c1.246,3.201-0.023,6.235,2.403,6.221c79.57-0.482,150.1,46.584,173.304,124.5
		c-13.444-6.232-24.087-10.87-37.298-11.911c-19.945-1.571-39.212,4.501-54.183,18.25c-25.116-12.997-52.351-18.811-81.242-18.117
		l1.863,49.068c8.822,9.773,13.743,21.613,12.423,35.067c11.323,6.159,15.717,19.041,11.018,31.092
		c-1.138,2.918-1.105,5.08,0.866,7.65l-17.789,19.966c0.541,3.392,1.281,6.093,2.929,8.983l16.159-1.875
		c1.145-13.362,11.441-23.011,23.763-24.321c12.695-1.35,24.346,5.653,28.852,18.148l19.355-1.821l14.679-45.15
		c-15.742-5.196-31.461-6.129-47.895-3.566c-10.515-18.157-29.923-24.888-51.41-21.103c27.983-41.183,76.439-55.418,122.25-40.655
		c0.483-2.354,3.67-3.884,3.778-2.942l0.507,4.42c43.548,15.997,72.359,57.237,70.082,104.516
		C1189.661,541.593,1267.475,545.745,1344,560.184z M978.408,417.457c-2.131-16.36-6.748-29.232-11.78-43
		c-12.09-30.811-35.869-64.519-66.654-77.385c-2.898-1.211-6.015-1.348-8.87-0.004c-41.575,19.564-69.448,80.252-72.822,125.594
		c28.504-14.908,57.706-22.078,88.725-21.266C932.011,401.39,955.131,407.007,978.408,417.457z M1066.634,410.103
		c-25.021-68.792-86.057-110.865-158.992-114.092c43.497,25.677,65.643,72.579,74.637,120.748
		C1008.023,397.547,1038.325,396.662,1066.634,410.103z M814.363,422.638c3.744-33.228,13.99-63.011,31.801-89.372
		c9.809-14.745,21.568-26.35,36.483-36.334c-38.231,3.312-72.844,18.209-101.648,42.006c-24.565,20.827-42.192,47.857-51.617,79.384
		c12.308-6.002,23.813-9.424,36.692-9.826C783.551,407.159,799.518,412.428,814.363,422.638z M995.256,455.809
		c9.834-8.354,19.714-13.983,32.347-18.171c-39.008-10.418-80.146,2.629-105.993,35.14c17.805-1.229,34.136,5.405,44.799,19.662
		C974.14,477.978,983.31,466.167,995.256,455.809z M199.044,527.386c1.605,0.32,4.938,2.992,3.484,5.159
		c-9.909,14.765-15.832,31.307-15.603,49.38c6.565,3.888,13.713,3.457,20.698,0.652c5.68-2.281,7.626-9.884,10.565-14.669
		c5.96-0.823,12.669-0.948,16.817-5.601c3.827-4.292,4.699-10.371,3.877-16.427c8.032-3.489,14.438-9.43,16.092-17.103
		c1.966-9.117-1.268-17.773-8.042-23.64c-4.015-3.477,6.447-9.068-0.118-22.042c-2.385-4.713-9.196-6.779-14.12-8.556
		c0.503-6.023,0.509-12.774-3.569-17.181c-4.721-5.101-11.305-4.43-17.354-5.006c-2.827-4.219-5.36-11.97-11.284-13.648
		c-6.587-3.879-12.738-1.933-19.946,1.397c-5.552-3.818-12.602-4.574-18.944-1.982c-6.976,3.387-9.786,7.77-12.356,15.003
		c-10.443-2.792-20.188,0.992-26.456,8.062c-6.99,7.885-6.293,18.146-3.054,27.614c-6.919,4.424-14.342,10.869-14.759,20.337
		c-0.42,9.518,4.233,18.088,12.104,23.781c-3.187,6.262-4.385,12.239-1.612,18.875c1.985,4.75,6.845,9.877,13.169,10.868
		l9.224,1.446c-0.099,8.077,4.02,14.326,9.599,17.515c6.817,3.896,14.082,3.895,20.877,0.37
		c-0.764-15.062-4.716-29.438-14.295-40.866c-2.275-2.714-2.747-5.787-0.262-8.019c2.462-2.211,5.981-1.655,8.008,1.208
		l10.754,15.181c1.178,1.663,3.064,2.508,4.978,1.968c1.025-0.289,2.392-1.382,3.43-2.683
		C190.06,537.361,191.19,525.819,199.044,527.386z M1057.424,523.877c3.893-20.156,3.409-40.442-3.755-59.488
		c-3.305-8.786-8.096-18.841-16.393-23.776c-27.441,0.215-55.148,28.445-67.949,53.581
		C1002.492,490.626,1033.673,500.751,1057.424,523.877z M895.701,519.171l0.211-13.029c1.366-0.653,3.251-1.505,3.282-2.652
		c0.119-4.45-3.793-5.202-4.189-10.94c-0.177-2.561,2.106-4.872,3.698-6.78l-0.837-30.478c-15.478-17.007-40.767-19.185-59.232-5.65
		c-11.677,8.559-18.467,21.919-18.482,35.851c-0.016,14.046,6.365,26.873,17.634,35.786c10.702,8.465,24.428,11.977,37.651,8.024
		l0.335-9.785c1.386-3.269,7.926-2.995,9.586-0.151l0.953,6.217L895.701,519.171z M1107.566,536.741
		c0.352-25.213-8.991-47.586-24.447-65.826c-9.996-10.972-21.113-20.301-35.795-26.405c6.97,11.55,11.959,22.468,13.904,35.277
		c2.73,14.705,2.163,29.149-0.339,44.882C1077.904,519.727,1094.104,524.366,1107.566,536.741z M910.76,486.246
		c-0.238-9.788-3.03-18.141-8.7-25.825l0.376,24.028L910.76,486.246z M910.669,516.96l9.271,5.544
		c3.353-6.16,4.507-13.08,1.828-19.401c-5.403-12.748-21.47-18.8-23.148-11.48C896.786,499.632,916.414,498.403,910.669,516.96z
		 M1057.518,544.148l49.597-2.036c-11.936-14.832-31.614-20.256-49.196-12.677c-11.444-12.336-24.988-21.137-40.998-26.762
		l-14.23,43.916l13.809-1.139c4.979-6.793,12.227-10.733,20.346-10.925C1044.624,534.342,1051.908,537.352,1057.518,544.148z
		 M878.624,524.533c0.142,8.331,5.37,13.741,12.816,13.556c6.6-0.164,12.129-4.972,12.138-12.384l0.019-17.024
		c-1.846-0.49-3.405-0.483-4.638-0.063l0.031,17.274c0.01,5.365-4.604,9.236-9.399,8.26c-8.376-1.705-6.462-11.471-7.547-12.839
		c-0.542-0.683-2.072-0.957-2.616-0.549C878.693,521.314,878.597,522.929,878.624,524.533z M907.055,543.439l13.992-15.323
		l-14.113-9.26C908.931,531.515,899.739,535.752,907.055,543.439z M894.751,524.946l-7.041,4.11c1.31,2.054,3.822,1.674,5.309,0.63
		C893.882,529.08,895.555,528.084,894.751,524.946z M912.871,589.395c-1.802-18.935-5.992-34.738-12.522-50.778
		c-8.48,5.656-18.348,3.17-23.369-5.535c-12.904,2.912-25.436,1.2-36.983-5.693c-9.51,20.139-15.397,40.625-16.733,63.319
		C853.726,597.012,882.366,597.506,912.871,589.395z M171.301,575.206c2.039,21.155,0.491,41.162-2.789,62.206l24.707-3.189
		c-6.601-17.433-9.935-34.898-9.909-53.195c0.027-18.489,5.76-34.274,15.813-50.533c-8.26,2.377-12.186,24.664-22.602,24.716
		c-2.553,0.013-5.315-1.304-7.014-3.668l-10.42-14.502l-1.523-1.405c-0.514-0.474-2.334,0.839-1.828,1.463
		C164.552,547.978,169.895,560.61,171.301,575.206z M824.76,558.889l8.332-26.319l-17.503,19.704L824.76,558.889z M977.822,557.555
		c0-13.179-10.683-23.862-23.861-23.862s-23.861,10.683-23.861,23.862c0,13.179,10.683,23.862,23.861,23.862
		S977.822,570.733,977.822,557.555z M1060.168,560.466c0-12.507-10.138-22.645-22.644-22.645c-12.506,0-22.644,10.139-22.644,22.645
		s10.138,22.645,22.644,22.645C1050.03,583.111,1060.168,572.972,1060.168,560.466z M1012.292,566.943
		c-1.038-5.983-0.994-11.394,1.814-17.148l-11.857,0.714c-1.088,0.066-1.913,3.265-0.986,4.099
		c6.765,6.087,6.196,11.281,10.089,13.617L1012.292,566.943z M988.869,571.328c0.323-3.982,1.991-6.009,3.626-8.85
		c0.996-1.732-0.019-5.857,1.639-7.153c1.875-1.465,3.436-1.723,3.269-4.549l-16.689,1.961l0.014,12.899
		c1.995,0.625,5.597,1.591,5.244,3.088l-1.201,5.084c-0.395,1.672,2.367,0.922,2.725,0.218L988.869,571.328z M1006.135,576.44
		c1.357,0.672,3.932-3.642,2.904-5.011c-5.638-7.503-6.344-15.364-11.827-14.586c-1.462,0.207-1.676,2.726-1.116,3.464
		c0.532,0.701,1.395,1.332,2.698,2.043c2.588,1.412,2.089,4.736,1.266,7.486C1001.814,572.057,1003.228,575,1006.135,576.44z
		 M820.489,578.781l3.147-15.592c-2.274-2.181-3.955-3.493-6.684-4.7c-6.144,10.424-14.564,28.968-7.071,31.036
		C814.273,590.737,820.083,580.792,820.489,578.781z M919.54,616.104c-6.579-5.131,4.477-15.811,3.097-22.692
		c3.055-6.009,8.329-10.222,13.113-15.565c-5.131-5.404-8.418-11.309-8.709-19.313l-15.674,2.267
		c2.958,10.621,4.44,20.504,4.855,31.211l-4.469,1.879l2.717,34.676l14.68-0.465l0.951-8.139c0.237-2.027-0.571-3.108-2.028-3.692
		C925.433,615.213,922.328,618.279,919.54,616.104z M984.107,579.492c4.373,1.419,8.743-1.213,10.047-5.23l2.699-8.315
		c0.185-0.57-1.666-1.116-2.191-0.65c-2.111,1.877-3.751,16.348-10.7,12.165c-2.603-1.567-2.733-4.5-1.905-7.611
		c-2.551,0.642-2.614,3.504-2.326,5.228C980.022,576.811,981.63,578.688,984.107,579.492z M1012.627,567.788l-0.614,1.78
		C1011.999,569.301,1014.184,569.61,1012.627,567.788z M1013.29,627.034l0.664-9.945c-0.249-0.84-2.019-1.693-2.738-2.34
		c-0.058-7.997,2.074-15.692,3.981-23.345c-3.543-3.215-8.186-5.179-10.764-9.178c-1.694-2.628-1.969-6.61-6.118-9.495l-4.072,6.5
		c-4.906,5.174-10.853,8.451-16.955,12.622c2.752,8.06,4.292,15.74,4.285,23.884l-2.431,2.331l0.755,9.037L1013.29,627.034z
		 M1016.252,587.844l3.921-7.624l-7.789-6.235l-5.106,6.784L1016.252,587.844z M985.009,583.494
		c-4.129-1.674-5.436-2.932-7.308-5.583c-1.327-0.142-4.175,0.874-4.587,2.124c0.036,3.256,1.732,6.08,3.478,8.349L985.009,583.494z
		 M823.856,629.696l0.871-34.99c-2.256,0.078-4.362-0.182-4.669-1.128l-1.311-4.05c-3.222,3.045-7.937,4.997-11.976,2.601
		c-4.148-2.46-3.843-7.527-3.247-12.652c-47.594,9.742-92.784,21.435-138.38,35.383c-25.925,8.43-50.973,16.142-76.76,27.201
		l63.639,12.684l62.248-9.229l116.343-11.678l1.969-0.561c0.548-0.156,1.033-1.874,0.216-2.326
		C830.057,630.342,826.842,631.361,823.856,629.696z M978.616,613.37c-1.246-12.958-4.546-22.716-9.514-33.523
		c-9.369,6.803-20.388,6.508-29.843,0.633c-5.242,10.981-8.425,21.698-8.951,33.534C946.336,617.246,962.706,617.782,978.616,613.37
		z M1060.201,613.084c-1.159-11.736-3.736-20.867-8.39-30.957c-9.261,5.739-19.526,5.976-28.859-0.255
		c-5.277,10.073-7.833,20.294-8.32,31.152C1029.968,617.137,1045.135,616.877,1060.201,613.084z M932.528,586.002l-0.5,0.5l0.5,0.5
		l0.5-0.5L932.528,586.002z M1057.519,586.002l-0.5,0.5l0.5,0.5l0.5-0.5L1057.519,586.002z M929.802,595.784
		c1.258-3.391,2.388-4.839,2.295-8.766c-2.407,1.663-4.315,3.355-5.419,6.175C926.29,594.185,928.979,595.977,929.802,595.784z
		 M1063.07,593.074c-1.651-2.935-2.963-4.271-5.068-5.839c0.116,3.842,1.301,5.808,2.226,8.841
		C1061.51,596.225,1063.731,594.249,1063.07,593.074z M865.722,615.539l6.707,0.084l3.672,11.522l34.689-1.577l-2.596-31.214
		l-36.179,4.779c-14.6,0.145-28.48-1.206-43.478-3.468l-1.175,31.115l34.936,0.787L865.722,615.539z M928.345,599.24
		c-0.417-0.5-2.002-1.595-2.567-0.697c-4.143,6.589-6.808,15.152-3.294,15.316C926.363,614.04,929.788,600.968,928.345,599.24z
		 M1068.707,612.518c0.536-6.038-2.544-10.583-5.005-14.596C1059.011,599.944,1062.342,611.243,1068.707,612.518z M1043.928,632.584
		l14.766-0.55l-0.951-15.17c-13.547,2.901-26.823,3.29-40.501,0.148l-0.859,14.481l15.684,0.868
		c1.293,0.072,2.054-2.292,2.057-3.254c0.006-2.524,1.551-3.336,3.378-3.177C1041.512,626.279,1039.1,632.764,1043.928,632.584z
		 M959.955,634.224l17.095-0.792l-1.498-15.977c-14.71,3.208-28.283,2.767-42.455,0.305l-0.766,15.769l16.773,0.688
		c2.867,0.117,0.9-7.035,5.418-6.871C958.633,627.495,957.2,634.352,959.955,634.224z M873.435,630.226l-4.547-11.195l-3.637,11.957
		C868.881,631.293,871.359,631.361,873.435,630.226z M902.577,650.569l0.777-20.698l-13.043,0.711l2.342,19.82L902.577,650.569z
		 M847.975,650.778l1.748-19.371l-13.036-0.434l1.302,20.194L847.975,650.778z M1024.803,643.676
		c0.953-2.712,1.142-6.245,0.749-8.589c-2.051-0.608-4.196-0.519-4.714,0.417c-0.492,0.891-0.241,7.776,0.688,8.393
		C1022.09,644.273,1024.393,644.25,1024.803,643.676z M1053.814,643.84l0.026-8.664l-5.599,0.216l1.089,8.453
		C1050.752,644.401,1052.481,644.508,1053.814,643.84z M942.244,646.294c0.939-2.777,1.095-6.12,0.943-9.126l-5.355-0.112
		c-0.228,3.206-0.395,6.761,0.459,9.537C938.891,647.322,941.919,647.127,942.244,646.294z M972.15,645.997
		c0.529-3.422,0.604-5.696,0.133-8.232c-0.27-1.452-5.123-1.381-5.4,0.039c-0.597,3.063,0.262,5.917,0.823,8.514
		C968.738,647.173,971.987,647.049,972.15,645.997z M1025.903,648.402c-3.383-2.661-7.267-1.526-9.227,1.806
		C1019.681,651.118,1023.323,651.986,1025.903,648.402z M1057.051,650.304c-0.521-3.478-7.939-4.616-7.939-1.454
		C1049.113,651.734,1055.968,651.741,1057.051,650.304z M941.651,650.215c-3.996-1.114-7.193,0.338-7.853,3.668
		c2.938,0.544,5.448,0.449,7.974-0.278C942.856,653.294,943.129,650.627,941.651,650.215z M976.573,653.249
		c-2.843-4.237-6.256-3.967-9.167-3.148c-0.874,1.434-0.441,3.127,0.914,3.503C971.114,654.379,974.183,654.659,976.573,653.249z
		 M911.432,662.679c-1.473-4.893-5.006-6.815-8.753-8.297l-10.083,0.036l0.039,8.246
		C898.661,663.899,904.848,664.712,911.432,662.679z M848.071,663.013l-0.037-7.953c-7.652-1.719-15.489,0.28-18.749,8.375
		C835.594,665.357,842,664.736,848.071,663.013z"/>
	<path fill="#9AB68E" d="M1343.997,564.475l0.001,103.834c-91.059-27.474-186.635-36.483-281.942-40.217
		c-1.901-5.442-1.216-10.512,1.329-14.741c2.319,2.344,4.647,2.474,6.266,1.718c3.835-1.793,2.678-8.614-1.1-14.739
		c-1.378-2.234-1.764-4.396-0.874-6.979l-12.251-14.383c8.542-8.477,10.459-20.439,4.39-31.366
		c60.612-2.963,119.943-2.3,180.057,2.468C1275.395,552.888,1309.773,557.474,1343.997,564.475z"/>
	<polygon fill="#F4F3E5" points="308.25,765.992 315.644,765.987 1343.997,766 1343.997,768 0.1,768 0.096,765.529 	"/>
	<path fill="#272522" d="M911.163,256.72c0,13.391-10.855,24.247-24.246,24.247c-13.391,0-24.246-10.856-24.246-24.247
		s10.855-24.247,24.246-24.247C900.307,232.473,911.163,243.329,911.163,256.72z M907.646,256.662
		c0-11.423-9.259-20.683-20.682-20.683c-11.422,0-20.682,9.26-20.682,20.683c0,11.423,9.259,20.683,20.682,20.683
		C898.386,277.345,907.646,268.084,907.646,256.662z"/>
	<path fill="#272522" d="M863.063,225.259c0,13.427-10.884,24.312-24.311,24.312s-24.311-10.885-24.311-24.312
		s10.884-24.312,24.311-24.312S863.063,211.832,863.063,225.259z M859.514,225.288c0-11.465-9.293-20.758-20.757-20.758
		S818,213.824,818,225.288c0,11.465,9.293,20.758,20.757,20.758S859.514,236.753,859.514,225.288z"/>
	<path fill="#272522" d="M968.645,232.424c0,13.367-10.835,24.203-24.201,24.203s-24.201-10.836-24.201-24.203
		s10.835-24.203,24.201-24.203S968.645,219.058,968.645,232.424z M965.123,232.434c0-11.415-9.253-20.669-20.668-20.669
		s-20.668,9.254-20.668,20.669s9.253,20.669,20.668,20.669S965.123,243.849,965.123,232.434z"/>
	<path fill="#272522" d="M919.218,194.407c0,13.315-10.793,24.109-24.107,24.109c-13.314,0-24.107-10.794-24.107-24.109
		c0-13.315,10.793-24.109,24.107-24.109C908.424,170.298,919.218,181.092,919.218,194.407z M915.722,194.48
		c0-11.368-9.215-20.584-20.583-20.584c-11.368,0-20.583,9.216-20.583,20.584c0,11.368,9.215,20.584,20.583,20.584
		C906.507,215.065,915.722,205.849,915.722,194.48z"/>
	<path fill="#C2D093" d="M199.044,527.386c-7.854-1.568-8.984,9.974-18.098,21.393c-1.038,1.301-2.405,2.394-3.43,2.683
		c-1.914,0.54-3.799-0.305-4.978-1.968l-10.754-15.181c-2.027-2.862-5.546-3.419-8.008-1.208c-2.485,2.232-2.013,5.304,0.262,8.019
		c9.579,11.428,13.531,25.804,14.295,40.866c-6.795,3.526-14.06,3.527-20.877-0.37c-5.579-3.188-9.698-9.438-9.599-17.515
		l-9.224-1.446c-6.324-0.991-11.184-6.117-13.169-10.868c-2.773-6.636-1.575-12.613,1.612-18.875
		c-7.871-5.693-12.523-14.263-12.104-23.781c0.417-9.468,7.84-15.913,14.759-20.337c-3.239-9.468-3.936-19.729,3.054-27.614
		c6.268-7.07,16.013-10.854,26.456-8.062c2.57-7.234,5.38-11.616,12.356-15.003c6.342-2.592,13.392-1.836,18.944,1.982
		c7.208-3.33,13.359-5.276,19.946-1.397c5.925,1.678,8.458,9.428,11.284,13.648c6.049,0.577,12.633-0.095,17.354,5.006
		c4.078,4.406,4.072,11.157,3.569,17.181c4.923,1.777,11.735,3.843,14.12,8.556c6.566,12.974-3.897,18.565,0.118,22.042
		c6.774,5.867,10.008,14.523,8.042,23.64c-1.654,7.673-8.06,13.614-16.092,17.103c0.822,6.055-0.05,12.134-3.877,16.427
		c-4.148,4.653-10.857,4.778-16.817,5.601c-2.939,4.785-4.885,12.388-10.565,14.669c-6.985,2.805-14.133,3.237-20.698-0.652
		c-0.229-18.073,5.694-34.615,15.603-49.38C203.983,530.379,200.649,527.707,199.044,527.386z"/>
	<path fill="#EB7C64" d="M978.408,417.457c-23.278-10.45-46.397-16.067-71.4-16.06c-31.019-0.813-60.221,6.358-88.725,21.266
		c3.374-45.342,31.247-106.03,72.822-125.594c2.854-1.343,5.971-1.207,8.87,0.004c30.785,12.866,54.564,46.574,66.654,77.385
		C971.66,388.225,976.277,401.098,978.408,417.457z"/>
	<path fill="#9AB68E" d="M823.856,629.696c2.986,1.665,6.201,0.646,8.943,1.255c0.817,0.451,0.332,2.169-0.216,2.326l-1.969,0.561
		l-116.343,11.678l-62.248,9.229l-63.639-12.684c25.787-11.059,50.835-18.771,76.76-27.201
		c45.595-13.947,90.786-25.64,138.38-35.383c-0.596,5.125-0.901,10.192,3.247,12.652c4.04,2.396,8.755,0.444,11.976-2.601
		l1.311,4.05c0.306,0.946,2.412,1.207,4.669,1.128L823.856,629.696z"/>
	<path fill="#EB7C64" d="M814.363,422.638c-14.845-10.21-30.812-15.479-48.29-14.142c-12.879,0.402-24.384,3.825-36.692,9.826
		c9.426-31.527,27.053-58.557,51.617-79.384c28.804-23.797,63.417-38.694,101.648-42.006c-14.914,9.984-26.674,21.588-36.483,36.334
		C828.353,359.627,818.107,389.41,814.363,422.638z"/>
	<path fill="#EB7C64" d="M1066.634,410.103c-28.309-13.441-58.611-12.556-84.355,6.656c-8.994-48.169-31.14-95.071-74.637-120.748
		C980.576,299.238,1041.613,341.311,1066.634,410.103z"/>
	<path fill="#F4F3E5" d="M895.701,519.171l-9.39,6.412l-0.953-6.217c-1.66-2.844-8.2-3.118-9.586,0.151l-0.335,9.785
		c-13.223,3.953-26.949,0.44-37.651-8.024c-11.269-8.913-17.65-21.74-17.634-35.786c0.016-13.932,6.806-27.292,18.482-35.851
		c18.465-13.534,43.754-11.356,59.232,5.65l0.837,30.478c-1.593,1.908-3.875,4.219-3.698,6.78c0.396,5.738,4.308,6.491,4.189,10.94
		c-0.031,1.146-1.916,1.999-3.282,2.652L895.701,519.171z M880.341,486.12c3.188,0.436,3.353-2.794,3.176-4.302
		c-0.182-1.544-0.832-3.984-3.454-3.37C877.152,479.13,876.793,485.634,880.341,486.12z M846.532,486.727
		c2.491-0.163,2.721-2.814,2.677-4.216c-0.05-1.601-0.787-3.905-3.194-3.66c-2.287,0.233-2.654,2.856-2.562,4.527
		C843.522,484.62,844.056,486.889,846.532,486.727z M861.829,491.885l3.21-6.918c0.634-1.366-0.065-2.666-0.904-3.439
		c-0.428-0.394-2.085-0.374-2.255,0.191c-2.094,6.977-5.218,9.595-3.292,12.142c1.497,1.98,5.947,2.458,7.14,1.459
		c0.54-0.452,0.659-2.502,0.089-2.619L861.829,491.885z M886.628,502.996c-1.295-3.287-3.239-2.165-4.607-0.884
		c-10.059,9.419-25.978,9.272-36.264,0.266c-1.119-0.98-1.929-1.087-2.791-0.855C836.347,503.301,863.992,524.424,886.628,502.996z"
		/>
	<path fill="#F4F3E5" d="M912.871,589.395c-30.504,8.111-59.144,7.617-89.607,1.313c1.335-22.694,7.222-43.18,16.733-63.319
		c11.547,6.893,24.079,8.605,36.983,5.693c5.021,8.706,14.889,11.191,23.369,5.535C906.878,554.657,911.068,570.46,912.871,589.395z
		"/>
	<path fill="#C2D093" d="M1057.424,523.877c-23.751-23.125-54.932-33.251-88.097-29.683c12.801-25.136,40.508-53.366,67.949-53.581
		c8.297,4.935,13.088,14.99,16.393,23.776C1060.833,483.434,1061.317,503.721,1057.424,523.877z"/>
	<path fill="#C2D093" d="M995.256,455.809c-11.946,10.358-21.116,22.169-28.847,36.632c-10.663-14.258-26.994-20.891-44.799-19.662
		c25.847-32.51,66.985-45.558,105.993-35.14C1014.97,441.826,1005.09,447.455,995.256,455.809z"/>
	<path fill="#C2D093" d="M1107.566,536.741c-13.462-12.374-29.661-17.014-46.677-12.072c2.502-15.733,3.069-30.177,0.339-44.882
		c-1.944-12.809-6.934-23.727-13.904-35.277c14.682,6.104,25.798,15.433,35.795,26.405
		C1098.574,489.154,1107.918,511.527,1107.566,536.741z"/>
	<path fill="#A5CCA7" d="M865.722,615.539l-3.423,12.029l-34.936-0.787l1.175-31.115c14.997,2.262,28.878,3.613,43.478,3.468
		l36.179-4.779l2.596,31.214l-34.689,1.577l-3.672-11.522L865.722,615.539z"/>
	<path fill="#F4F3E5" d="M1057.518,544.148c-5.611-6.796-12.895-9.806-20.673-9.622c-8.12,0.192-15.367,4.131-20.346,10.925
		l-13.809,1.139l14.23-43.916c16.01,5.625,29.554,14.427,40.998,26.762c17.582-7.579,37.26-2.156,49.196,12.677L1057.518,544.148z"
		/>
	<path fill="#F4F3E5" d="M977.822,557.555c0,13.179-10.683,23.862-23.861,23.862s-23.861-10.683-23.861-23.862
		c0-13.179,10.683-23.862,23.861-23.862S977.822,544.376,977.822,557.555z M946.523,555.939c0-1.335-1.082-2.418-2.417-2.418
		s-2.417,1.082-2.417,2.418c0,1.335,1.082,2.418,2.417,2.418S946.523,557.274,946.523,555.939z M965.322,555.921
		c0-1.356-1.099-2.454-2.454-2.454c-1.355,0-2.454,1.099-2.454,2.454s1.099,2.454,2.454,2.454
		C964.224,558.376,965.322,557.277,965.322,555.921z M955.936,562.138c-2.535-1.793-2.023-3.735-1.095-6.117
		c0.477-1.223-1.716-2.123-2.263-1.073l-1.249,2.397c-1.025,1.967-2.424,4.42,0.01,5.685
		C952.484,563.626,954.994,564.116,955.936,562.138z M943.773,566.263c-0.972-0.804-2.291-0.528-2.714,0.264
		c-0.463,0.867,0.005,1.694,1.005,2.424c11.961,8.729,25.51,0.503,23.769-2.339C964.413,564.295,954.85,575.426,943.773,566.263z"/>
	<path fill="#F4F3E5" d="M1060.168,560.466c0,12.507-10.138,22.645-22.644,22.645c-12.506,0-22.644-10.139-22.644-22.645
		s10.138-22.645,22.644-22.645C1050.03,537.82,1060.168,547.959,1060.168,560.466z M1029.98,559.309
		c0-1.277-1.035-2.312-2.312-2.312c-1.277,0-2.312,1.035-2.312,2.312s1.035,2.312,2.312,2.312
		C1028.945,561.621,1029.98,560.586,1029.98,559.309z M1048.664,559.115c0-1.258-1.02-2.278-2.278-2.278s-2.278,1.02-2.278,2.278
		s1.02,2.278,2.278,2.278S1048.664,560.373,1048.664,559.115z M1039.65,565.071c-1.542-2.154-1.887-3.791-1.153-5.945
		c0.161-0.665-2.209-1.196-2.461-0.583l-0.949,2.31c-0.894,2.178-1.535,4.172,0.072,5.262
		C1036.236,566.846,1039.507,566.573,1039.65,565.071z M1046.905,568.451c-10.876,8.778-19.511-1.661-20.937,0.244
		c-2.4,3.206,11.716,10.836,22.235,2.581c0.908-0.713,1.164-1.912,0.702-2.53C1048.667,568.427,1048.121,568.063,1046.905,568.451z"
		/>
	<path fill="#9AB68E" d="M1013.29,627.034l-33.393,0.072l-0.755-9.037l2.431-2.331c0.007-8.144-1.532-15.824-4.285-23.884
		c6.102-4.171,12.049-7.448,16.955-12.622l4.072-6.5c4.149,2.885,4.424,6.868,6.118,9.495c2.578,3.999,7.221,5.963,10.764,9.178
		c-1.907,7.653-4.039,15.348-3.981,23.345c0.719,0.648,2.489,1.5,2.738,2.34L1013.29,627.034z"/>
	<path fill="#F4F3E5" d="M171.301,575.206c-1.407-14.597-6.749-27.229-15.565-38.106c-0.506-0.625,1.314-1.938,1.828-1.463
		l1.523,1.405l10.42,14.502c1.699,2.364,4.461,3.681,7.014,3.668c10.416-0.052,14.342-22.339,22.602-24.716
		c-10.053,16.259-15.786,32.043-15.813,50.533c-0.026,18.297,3.307,35.762,9.909,53.195l-24.707,3.189
		C171.792,616.368,173.34,596.362,171.301,575.206z"/>
	<path fill="#F4F3E5" d="M978.616,613.37c-15.91,4.412-32.279,3.877-48.308,0.644c0.527-11.836,3.709-22.553,8.951-33.534
		c9.454,5.875,20.474,6.171,29.843-0.633C974.07,590.654,977.37,600.412,978.616,613.37z"/>
	<path fill="#F4F3E5" d="M1060.201,613.084c-15.066,3.794-30.233,4.054-45.57-0.059c0.487-10.858,3.044-21.079,8.32-31.152
		c9.333,6.231,19.599,5.994,28.859,0.255C1056.465,592.217,1059.042,601.347,1060.201,613.084z"/>
	<path fill="#9AB68E" d="M919.54,616.104c2.789,2.175,5.893-0.891,8.533,0.167c1.457,0.583,2.265,1.665,2.028,3.692l-0.951,8.139
		l-14.68,0.465l-2.717-34.676l4.469-1.879c-0.416-10.707-1.897-20.589-4.855-31.211l15.674-2.267
		c0.29,8.004,3.577,13.909,8.709,19.313c-4.785,5.343-10.059,9.556-13.113,15.565C924.017,600.293,912.961,610.972,919.54,616.104z"
		/>
	<path fill="#C2D093" d="M959.955,634.224c-2.755,0.128-1.322-6.729-5.433-6.879c-4.518-0.164-2.551,6.988-5.418,6.871
		l-16.773-0.688l0.766-15.769c14.172,2.462,27.745,2.903,42.455-0.305l1.498,15.977L959.955,634.224z"/>
	<path fill="#C2D093" d="M1043.928,632.584c-4.828,0.18-2.417-6.306-6.426-6.655c-1.827-0.159-3.372,0.654-3.378,3.177
		c-0.002,0.962-0.764,3.326-2.057,3.254l-15.684-0.868l0.859-14.481c13.678,3.142,26.954,2.753,40.501-0.148l0.951,15.17
		L1043.928,632.584z"/>
	<path fill="#F4F3E5" d="M910.669,516.96c5.745-18.557-13.883-17.327-12.048-25.337c1.677-7.32,17.744-1.268,23.148,11.48
		c2.679,6.321,1.525,13.241-1.828,19.401L910.669,516.96z"/>
	<path fill="#F4F3E5" d="M820.489,578.781c-0.406,2.011-6.215,11.956-10.609,10.744c-7.493-2.068,0.927-20.612,7.071-31.036
		c2.729,1.207,4.41,2.52,6.684,4.7L820.489,578.781z"/>
	<path fill="#EB7C64" d="M878.624,524.533c-0.027-1.603,0.069-3.218,0.803-3.769c0.544-0.408,2.074-0.134,2.616,0.549
		c1.085,1.368-0.829,11.134,7.547,12.839c4.795,0.976,9.409-2.895,9.399-8.26l-0.031-17.274c1.233-0.42,2.792-0.426,4.638,0.063
		l-0.019,17.024c-0.008,7.412-5.538,12.22-12.138,12.384C883.994,538.274,878.766,532.864,878.624,524.533z"/>
	<polygon fill="#F4F3E5" points="902.577,650.569 892.653,650.403 890.311,630.582 903.354,629.871 	"/>
	<polygon fill="#F4F3E5" points="847.975,650.778 837.989,651.167 836.687,630.973 849.724,631.407 	"/>
	<path fill="#9AB68E" d="M988.869,571.328l-1.374,2.698c-0.358,0.703-3.12,1.454-2.725-0.218l1.201-5.084
		c0.354-1.497-3.249-2.462-5.244-3.088l-0.014-12.899l16.689-1.961c0.168,2.826-1.394,3.084-3.269,4.549
		c-1.658,1.296-0.643,5.422-1.639,7.153C990.859,565.319,989.192,567.346,988.869,571.328z"/>
	<path fill="#F4F3E5" d="M907.055,543.439c-7.316-7.687,1.876-11.924-0.121-24.583l14.113,9.26L907.055,543.439z"/>
	<path fill="#A5CCA7" d="M911.432,662.679c-6.584,2.033-12.771,1.22-18.797-0.016l-0.039-8.246l10.083-0.036
		C906.427,655.863,909.959,657.786,911.432,662.679z"/>
	<polygon fill="#F4F3E5" points="824.76,558.889 815.589,552.273 833.092,532.569 	"/>
	<path fill="#F4F3E5" d="M910.76,486.246l-8.323-1.797l-0.376-24.028C907.73,468.105,910.522,476.458,910.76,486.246z"/>
	<path fill="#A5CCA7" d="M848.071,663.013c-6.07,1.724-12.477,2.344-18.786,0.422c3.26-8.095,11.097-10.093,18.749-8.375
		L848.071,663.013z"/>
	<path fill="#9AB68E" d="M1011.353,568.224c-3.893-2.336-3.324-7.53-10.089-13.617c-0.927-0.834-0.102-4.033,0.986-4.099
		l11.857-0.714c-2.809,5.754-2.852,11.165-1.814,17.148c0.082,0.475,0.273,0.815,0.335,0.845c1.557,1.822-0.629,1.513-0.614,1.78
		C1011.412,568.818,1011.372,568.338,1011.353,568.224z"/>
	<path fill="#F4F3E5" d="M1006.135,576.44c-2.907-1.44-4.321-4.383-6.074-6.603c0.822-2.75,1.322-6.074-1.266-7.486
		c-1.303-0.711-2.167-1.343-2.698-2.043c-0.56-0.738-0.346-3.257,1.116-3.464c5.482-0.778,6.188,7.083,11.827,14.586
		C1010.067,572.798,1007.492,577.113,1006.135,576.44z"/>
	<polygon fill="#F4F3E5" points="1016.252,587.844 1007.278,580.769 1012.384,573.985 1020.173,580.22 	"/>
	<path fill="#EB7C64" d="M984.107,579.492c-2.477-0.804-4.085-2.681-4.375-4.414c-0.289-1.724-0.225-4.585,2.326-5.228
		c-0.828,3.111-0.698,6.045,1.905,7.611c6.949,4.182,8.588-10.289,10.7-12.165c0.525-0.466,2.376,0.081,2.191,0.65l-2.699,8.315
		C992.85,578.279,988.48,580.911,984.107,579.492z"/>
	<path fill="#F4F3E5" d="M928.345,599.24c1.443,1.728-1.982,14.8-5.861,14.619c-3.514-0.164-0.849-8.727,3.294-15.316
		C926.343,597.645,927.928,598.74,928.345,599.24z"/>
	<path fill="#F4F3E5" d="M985.009,583.494l-8.418,4.891c-1.746-2.269-3.442-5.093-3.478-8.349c0.412-1.25,3.26-2.266,4.587-2.124
		C979.572,580.562,980.88,581.82,985.009,583.494z"/>
	<path fill="#F4F3E5" d="M1068.707,612.518c-6.365-1.275-9.696-12.574-5.005-14.596
		C1066.163,601.935,1069.243,606.481,1068.707,612.518z"/>
	<path fill="#9AB68E" d="M873.435,630.226c-2.077,1.135-4.555,1.068-8.183,0.763l3.637-11.957L873.435,630.226z"/>
	<path fill="#F4F3E5" d="M942.244,646.294c-0.325,0.833-3.353,1.029-3.952,0.3c-0.854-2.777-0.688-6.331-0.459-9.537l5.355,0.112
		C943.339,640.173,943.182,643.516,942.244,646.294z"/>
	<path fill="#F4F3E5" d="M972.15,645.997c-0.163,1.052-3.412,1.176-4.443,0.32c-0.562-2.597-1.421-5.451-0.823-8.514
		c0.277-1.42,5.13-1.492,5.4-0.039C972.754,640.301,972.679,642.575,972.15,645.997z"/>
	<path fill="#F4F3E5" d="M1053.814,643.84c-1.332,0.668-3.062,0.561-4.484,0.006l-1.089-8.453l5.599-0.216L1053.814,643.84z"/>
	<path fill="#F4F3E5" d="M1024.803,643.676c-0.41,0.574-2.713,0.596-3.277,0.222c-0.929-0.617-1.18-7.503-0.688-8.393
		c0.517-0.937,2.663-1.025,4.714-0.417C1025.945,637.431,1025.755,640.964,1024.803,643.676z"/>
	<path fill="#C2D093" d="M976.573,653.249c-2.39,1.41-5.46,1.13-8.253,0.355c-1.355-0.376-1.787-2.069-0.914-3.503
		C970.317,649.282,973.731,649.012,976.573,653.249z"/>
	<path fill="#9AB68E" d="M941.651,650.215c1.478,0.412,1.205,3.079,0.121,3.39c-2.526,0.727-5.037,0.822-7.974,0.278
		C934.458,650.553,937.655,649.101,941.651,650.215z"/>
	<path fill="#C2D093" d="M1025.903,648.402c-2.58,3.585-6.222,2.716-9.227,1.806C1018.636,646.876,1022.52,645.741,1025.903,648.402
		z"/>
	<path fill="#C2D093" d="M1057.051,650.304c-1.083,1.438-7.938,1.43-7.939-1.454C1049.112,645.687,1056.53,646.826,1057.051,650.304
		z"/>
	<path fill="#F4F3E5" d="M929.802,595.784c-0.823,0.193-3.512-1.599-3.124-2.591c1.105-2.82,3.013-4.512,5.419-6.175
		C932.191,590.946,931.06,592.393,929.802,595.784z"/>
	<path fill="#F4F3E5" d="M1063.07,593.074c0.661,1.175-1.56,3.151-2.842,3.002c-0.925-3.032-2.11-4.999-2.226-8.841
		C1060.107,588.803,1061.419,590.139,1063.07,593.074z"/>
	<path fill="#F4F3E5" d="M894.751,524.946c0.803,3.138-0.869,4.134-1.732,4.74c-1.487,1.045-3.999,1.424-5.309-0.63L894.751,524.946
		z"/>
	
		<rect x="1057.165" y="586.148" transform="matrix(0.7071 -0.7071 0.7071 0.7071 -104.9903 919.5232)" fill="#F4F3E5" width="0.707" height="0.707"/>
	
		<rect x="932.175" y="586.148" transform="matrix(0.7071 -0.7071 0.7071 0.7071 -141.5963 831.1445)" fill="#F4F3E5" width="0.707" height="0.707"/>
	<path fill="#C2D093" d="M907.646,256.662c0,11.423-9.259,20.683-20.682,20.683c-11.422,0-20.682-9.26-20.682-20.683
		c0-11.423,9.259-20.683,20.682-20.683C898.386,235.979,907.646,245.239,907.646,256.662z M887.837,272.074l2.064-3.979
		c3.851-1.229,5.44-3.92,5.16-7.435c-0.26-3.271-2.962-4.093-5.67-6.126c-1.493-1.168-0.977-6.56,0.232-7.462
		c1.038,0.353,3.014,1.179,3.749,0.783c0.468-0.252,0.387-1.525,0.215-2.104c-0.179-0.603-0.99-1.146-1.942-1.176
		c-2.179-0.067-2.777-2.448-3.666-3.106c-1.867-1.383-2.716,2.05-3.678,2.742c-2.105,1.513-4.962,3.952-4.319,7.253
		c0.513,2.634,2.424,4.648,5.899,5.626l-0.04,7.948c-1.681,0.564-3.242-0.714-4.647-1.022c-1.637-0.359-2.2,1.779-1.303,2.419
		c2.493,1.78,4.988,1.376,5.652,2.591C885.912,269.699,885.583,272.189,887.837,272.074z"/>
	<path fill="#C2D093" d="M859.514,225.288c0,11.465-9.293,20.758-20.757,20.758S818,236.753,818,225.288
		c0-11.465,9.293-20.758,20.757-20.758S859.514,213.824,859.514,225.288z M839.693,240.112c1.718-2.339,1.925-3.71,3.898-4.61
		c2.742-1.251,3.759-4.097,3.381-6.828c-0.332-2.402-2.256-3.543-4.758-5.072c-2.396-1.464-2.102-6.252-0.703-8.008
		c1.515,0.792,2.351,1.008,2.98,1.136c0.938,0.191,1.634-2.405,0.628-2.69c-2.537-0.717-4.316-2.585-5.977-4.441l-5.449,5.078
		c-1.977,1.842-2.302,4.777-1.24,7.209c0.635,1.453,3.294,2.214,4.655,3.93c1.453,1.833,0.775,5.444,0.251,7.789
		c-2.476-0.722-3.745-1.734-6.312-0.997c0.636,3.608,3.993,3.146,6.278,4.091C837.289,237.825,838.871,241.231,839.693,240.112z"/>
	<path fill="#C2D093" d="M965.123,232.434c0,11.415-9.253,20.669-20.668,20.669s-20.668-9.254-20.668-20.669
		s9.253-20.669,20.668-20.669S965.123,221.018,965.123,232.434z M944.032,248.622c3.027-1.474,2.253-3.278,2.83-4.806
		c3.697-0.744,5.563-3.552,5.739-6.283c0.244-3.793-2.302-5.077-5.282-7.116c-1.735-1.187-1.462-6.988,0.318-7.574
		c1.337,0.662,3.207,1.457,3.917,0.27c1.878-3.139-4.391-1.686-6.498-6.875l-3.491,4.115c-3.008,1.553-4.357,3.985-4.071,6.857
		c0.488,4.897,8.377,3.562,5.545,13.918l-4.774-1.261c-1.245-0.329-1.165,1.943-0.781,2.293
		C939.53,244.02,943.732,242.462,944.032,248.622z"/>
	<path fill="#C2D093" d="M915.722,194.48c0,11.368-9.215,20.584-20.583,20.584c-11.368,0-20.583-9.216-20.583-20.584
		c0-11.368,9.215-20.584,20.583-20.584C906.507,173.896,915.722,183.112,915.722,194.48z M894.679,210.071
		c3.357-1.741,2.566-3.478,3.432-4.769c3.752-0.788,5.339-3.511,5.137-6.739c-0.175-2.798-2.61-4.804-5.857-5.727
		c-0.392-2.989-0.41-5.624,0.107-8.108c1.781,0.929,2.759,1.045,3.844,0.969c0.552-0.039,0.85-2.225,0.325-2.375
		c-2.547-0.729-4.774-1.362-5.499-4.864c-2.089,0.989-2.255,2.223-2.974,3.688c-3.474,0.905-4.989,3.418-5.1,6.316
		c-0.128,3.33,2.565,4.438,5.146,6.455c1.642,1.362,0.772,5.761,0.563,7.882c-1.594-0.243-3.13-1.295-4.727-1.065
		c-1.485,0.213-1.198,1.918-0.627,2.299C891.062,205.779,894.094,204.252,894.679,210.071z"/>
	<path fill="#272522" d="M886.628,502.996c-22.636,21.428-50.28,0.305-43.662-1.473c0.862-0.232,1.672-0.125,2.791,0.855
		c10.286,9.007,26.205,9.153,36.264-0.266C883.389,500.831,885.333,499.709,886.628,502.996z"/>
	<path fill="#272522" d="M861.829,491.885l3.989,0.816c0.57,0.117,0.451,2.167-0.089,2.619c-1.193,0.999-5.643,0.521-7.14-1.459
		c-1.925-2.547,1.198-5.165,3.292-12.142c0.17-0.565,1.827-0.585,2.255-0.191c0.838,0.773,1.538,2.073,0.904,3.439L861.829,491.885z
		"/>
	<path fill="#272522" d="M846.532,486.727c-2.476,0.162-3.01-2.107-3.079-3.349c-0.092-1.671,0.275-4.294,2.562-4.527
		c2.407-0.245,3.143,2.059,3.194,3.66C849.253,483.913,849.023,486.564,846.532,486.727z"/>
	<path fill="#272522" d="M880.341,486.12c-3.549-0.486-3.189-6.989-0.278-7.672c2.621-0.614,3.272,1.826,3.454,3.37
		C883.694,483.325,883.529,486.556,880.341,486.12z"/>
	<path fill="#272522" d="M943.773,566.263c11.077,9.163,20.64-1.968,22.06,0.349c1.741,2.842-11.808,11.068-23.769,2.339
		c-1-0.73-1.468-1.557-1.005-2.424C941.481,565.735,942.8,565.458,943.773,566.263z"/>
	<path fill="#272522" d="M955.936,562.138c-0.943,1.978-3.452,1.488-4.596,0.893c-2.434-1.266-1.035-3.719-0.01-5.685l1.249-2.397
		c0.547-1.05,2.739-0.15,2.263,1.073C953.913,558.403,953.402,560.345,955.936,562.138z"/>
	<circle fill="#272522" cx="944.106" cy="555.939" r="2.418"/>
	<circle fill="#272522" cx="962.868" cy="555.921" r="2.454"/>
	<path fill="#272522" d="M1046.905,568.451c1.217-0.387,1.762-0.024,2,0.294c0.462,0.619,0.207,1.817-0.702,2.53
		c-10.519,8.255-24.635,0.625-22.235-2.581C1027.394,566.79,1036.029,577.229,1046.905,568.451z"/>
	<path fill="#272522" d="M1039.65,565.071c-0.143,1.502-3.414,1.775-4.491,1.044c-1.607-1.09-0.966-3.084-0.072-5.262l0.949-2.31
		c0.252-0.613,2.622-0.082,2.461,0.583C1037.763,561.281,1038.108,562.917,1039.65,565.071z"/>
	<circle fill="#272522" cx="1027.668" cy="559.309" r="2.312"/>
	<circle fill="#272522" cx="1046.386" cy="559.115" r="2.278"/>
	<path fill="#272522" d="M887.837,272.074c-2.253,0.115-1.925-2.375-2.293-3.048c-0.664-1.214-3.158-0.811-5.652-2.591
		c-0.897-0.64-0.334-2.779,1.303-2.419c1.405,0.308,2.966,1.586,4.647,1.022l0.04-7.948c-3.475-0.978-5.386-2.992-5.899-5.626
		c-0.642-3.301,2.214-5.74,4.319-7.253c0.962-0.691,1.81-4.124,3.678-2.742c0.888,0.658,1.487,3.038,3.666,3.106
		c0.952,0.029,1.763,0.573,1.942,1.176c0.172,0.58,0.253,1.852-0.215,2.104c-0.735,0.396-2.711-0.43-3.749-0.783
		c-1.209,0.902-1.725,6.294-0.232,7.462c2.708,2.033,5.41,2.855,5.67,6.126c0.28,3.515-1.309,6.206-5.16,7.435L887.837,272.074z
		 M885.921,253.852l0.006-6.769c-1.714,0.616-2.74,1.996-2.738,3.401C883.192,252.004,884.209,253.409,885.921,253.852z
		 M888.848,264.396c1.32,1.058,3.195-1.049,2.917-2.897c-0.255-1.696-1.117-3.335-3.238-3.124
		C888.638,260.113,888.038,262.866,888.848,264.396z"/>
	<path fill="#272522" d="M839.693,240.112c-0.822,1.119-2.404-2.287-2.367-3.414c-2.285-0.945-5.642-0.482-6.278-4.091
		c2.567-0.737,3.835,0.275,6.312,0.997c0.524-2.345,1.202-5.956-0.251-7.789c-1.36-1.716-4.02-2.477-4.655-3.93
		c-1.063-2.433-0.737-5.367,1.24-7.209l5.449-5.078c1.661,1.856,3.44,3.723,5.977,4.441c1.007,0.285,0.311,2.881-0.628,2.69
		c-0.629-0.128-1.464-0.344-2.98-1.136c-1.398,1.757-1.692,6.544,0.703,8.008c2.502,1.529,4.426,2.67,4.758,5.072
		c0.378,2.731-0.639,5.578-3.381,6.828C841.618,236.402,841.411,237.773,839.693,240.112z M837.807,215.974
		c-2.101,0.071-2.97,1.604-2.729,3.484c0.175,1.369,0.842,2.617,2.871,2.629L837.807,215.974z M840.764,233.528
		c3.21-0.961,2.95-2.948,2.869-3.868c-0.113-1.293-0.786-2.671-2.993-3.093L840.764,233.528z"/>
	<path fill="#272522" d="M944.032,248.622c-0.3-6.159-4.502-4.601-6.548-6.463c-0.384-0.349-0.464-2.622,0.781-2.293l4.774,1.261
		c2.831-10.356-5.057-9.021-5.545-13.918c-0.286-2.872,1.063-5.304,4.071-6.857l3.491-4.115c2.107,5.189,8.375,3.736,6.498,6.875
		c-0.71,1.187-2.58,0.393-3.917-0.27c-1.78,0.586-2.053,6.387-0.318,7.574c2.98,2.04,5.526,3.323,5.282,7.116
		c-0.176,2.731-2.042,5.538-5.739,6.283C946.285,245.344,947.06,247.148,944.032,248.622z M946.753,240.805
		c3.425-1.515,2.646-3.612,2.199-5.087c-0.263-0.867-1.212-1.826-2.669-1.677C946.043,236.568,945.85,238.542,946.753,240.805z"/>
	<path fill="#272522" d="M894.679,210.071c-0.585-5.82-3.617-4.292-6.228-6.036c-0.571-0.381-0.858-2.086,0.627-2.299
		c1.597-0.229,3.133,0.822,4.727,1.065c0.209-2.121,1.079-6.52-0.563-7.882c-2.581-2.017-5.274-3.126-5.146-6.455
		c0.111-2.898,1.626-5.411,5.1-6.316c0.718-1.465,0.885-2.699,2.974-3.688c0.724,3.502,2.952,4.135,5.499,4.864
		c0.525,0.15,0.227,2.337-0.325,2.375c-1.085,0.076-2.064-0.04-3.844-0.969c-0.517,2.484-0.499,5.119-0.107,8.108
		c3.247,0.923,5.682,2.928,5.857,5.727c0.202,3.227-1.386,5.95-5.137,6.739C897.245,206.593,898.036,208.33,894.679,210.071z
		 M897.231,202.544c2.86-0.68,2.695-2.412,2.479-3.777c-0.183-1.161-0.534-2.625-2.747-2.748L897.231,202.544z"/>
	<path fill="#C2D093" d="M888.848,264.396c-0.81-1.529-0.21-4.283-0.321-6.021c2.121-0.211,2.983,1.429,3.238,3.124
		C892.043,263.346,890.167,265.454,888.848,264.396z"/>
	<path fill="#EB7C64" d="M885.921,253.852c-1.712-0.443-2.73-1.848-2.732-3.368c-0.002-1.404,1.024-2.785,2.738-3.401
		L885.921,253.852z"/>
	<path fill="#EB7C64" d="M840.764,233.528l-0.124-6.961c2.207,0.422,2.88,1.8,2.993,3.093
		C843.714,230.58,843.975,232.567,840.764,233.528z"/>
	<path fill="#EB7C64" d="M837.807,215.974l0.142,6.113c-2.029-0.012-2.696-1.26-2.871-2.629
		C834.837,217.578,835.707,216.045,837.807,215.974z"/>
	<path fill="#9AB68E" d="M946.753,240.805c-0.903-2.262-0.71-4.237-0.47-6.765c1.457-0.149,2.406,0.81,2.669,1.677
		C949.399,237.193,950.178,239.29,946.753,240.805z"/>
	<path fill="#EB7C64" d="M897.231,202.544l-0.267-6.525c2.213,0.124,2.564,1.587,2.747,2.748
		C899.925,200.132,900.091,201.863,897.231,202.544z"/>
</g>
</svg>
