<svg xmlns="http://www.w3.org/2000/svg" xmlns:xlink="http://www.w3.org/1999/xlink"
	 viewBox="0 0 864 1184">
<g>
	<path fill="#FAF6E3" d="M0,1064.001L0.034,0L864,0.057l-0.017,319.129c-4.698-0.757-9.065,1.656-13.104,5.115
		c-1.279-14.892-8.645-27.802-21.852-34.334c-20.619-10.198-45.454-1.575-56.273,18.653l-5.458,14.546
		c-7.44-5.039-14.789-7.265-23.416-5.067c-12.575,3.204-19.261,14.174-17.792,27.969c-9.798-4.911-21.02-4.978-29.695,1.171
		c-5.497,3.897-8.865,9.536-9.312,15.418c-0.474,6.231,1.567,13.401,7.079,16.835c5.758,3.587,12.84,2.646,18.789,2.565
		c-0.316,1.455,0.322,1.882,1.543,2.037c1.812,0.23,2.84-0.266,2.5-2.092l2.002,0.01c-0.117,0.338-0.162,1.137,0.057,1.445
		c0.238,0.334,1.045,0.629,1.852,0.629l9.178,0.001c0.8,0,1.625-0.303,1.851-0.628c0.217-0.311,0.174-1.107,0.049-1.437
		l33.171,0.256l98.533-0.353l-149.55-2.114l-13.651-0.492c-9.764-2.214-13.689-13.29-9.257-22.109
		c5.518-10.981,18.671-15.221,29.851-10.423l9.339,4.008c-3.698-9.682-1.702-19.481,5.895-25.895
		c7.542-6.368,18.054-6.694,26.946-1.117l7.756,6.34c-0.346-15.065,6.475-28.163,17.884-35.306c13.16-8.24,29.17-8.97,41.984-0.856
		c12.253,7.759,17.755,20.921,17.665,35.811c5.489-4.567,9.474-8.439,15.443-8.074v746.267
		c-43.961-23.778-91.545-39.617-142.067-46.141l1.002-12.107c9.541,1.72,18.309,3.556,28.164,2.027
		c8.375-22.838-8.697-53.125-33.078-54.928c-13.626-1.008-26.159,5.298-35.331,14.788c-5.443,5.631-10.2,12.006-10.558,19.985
		c7.927,6.621,17.247,9.392,27.408,12.486l-6.258,14.523c-27.477-1.581-54.482-1.379-82.941,1.683
		c-2.154-11.338-4.226-22.178-8.517-33.022c6.952-6.917,9.799-15.74,9.298-25.295c-0.62-16.844-11.041-30.865-27.317-36.001
		l1.173-13.5c8.644,1.271,16.689,3.837,23.677,8.904c0.73,0.529,1.314,2.152,1.951,2.387c1.334,0.493,2.222-1.614,3.034-2.053
		c13.79-7.463,38.209-4.372,49.965,3.82c0.898,0.625,2.149,2.848,3.948,1.742c-1.709-41.056-35.575-71.236-74.75-78.722
		c0.298-3.369-1.246-5.607-3.559-6.111c-2.348-0.511-4.67,1.617-5.393,4.98c-28.885-0.988-56.569,9.124-76.215,32.085
		c-16.915-22.599-41.593-35.697-69.401-38.374c-0.25-3.396-2.045-5.811-4.754-5.654c-2.595,0.15-4.548,1.993-4.563,5.491
		c-23.481,1.565-45.298,10.543-61.932,26.898c-2.187,2.15-3.742,4.005-7.156,4.728c-18.329-25.339-48.851-38.374-79.618-37.35
		c-1.504-2.664-2.804-5.636-5.674-5.261c-2.742,0.359-3.944,3.049-4.089,6.303c-39.388,7.238-74.498,37.472-75.657,78.539
		c1.082,0.771,3.256-0.39,3.306-1.894c13.006-6.773,27.754-9.307,42.166-6.462c4.461,1.134,8.297,2.346,11.865,5.786
		c3.909-7.251,16.618-10.394,25.735-11.662l1.268,14.76c-17.467,6.914-26.987,24.927-23.935,43.525
		c1.134,7.066,3.944,13.088,9.167,18.119c-3.327,11.05-6.156,21.395-7.685,33.445c-35.98-3.207-71.46-2.517-107.978,2.702
		l-1.209-32.649c14.655,0.518,28.037-3.17,38.542-12.379c8.995-8.047,13.858-18.98,12.852-31.167
		c-1.114-13.508-8.774-24.788-20.691-31.742c9.819-20.587,2.691-43.533-16.329-55.171c-16.607-9.43-37.499-8.773-52.585,3.202
		c-15.844,12.576-19.636,33.32-11.186,52.164c-21.13,11.503-27.11,37.523-13.126,56.93c4.965,6.891,12.389,10.723,19.946,14.828
		c7.434,2.595,14.997,3.412,23.698,3.544l-0.798,35.992c-38.305,7.704-74.571,19.781-108.849,37.363
		c-2.261,1.16-3.032,1.337-5.408,2.799l-9.144,5.626C2.819,1063.448,1.414,1064.009,0,1064.001z M119.739,53.508l-0.495-17.539
		c-0.089-3.149-1.304-5.516-3.832-6.068c-2.237-0.488-5.75-0.46-5.899,2.439l-0.584,11.347l0.687,11.078
		c0.204,3.288,3.125,5.544,5.763,5.15C118.04,59.519,119.841,57.133,119.739,53.508z M161.001,73.441l12.288-13.121
		c2.225-2.376,2.844-5.619,0.826-7.927c-1.85-2.115-5.583-2.488-7.805-0.074l-13.852,15.055c-2.212,2.405-1.023,6.06,1.087,7.483
		C155.954,76.481,158.655,75.945,161.001,73.441z M76.992,69.506L62.506,55.524c-1.847-1.783-5.03-1.456-6.652-0.119
		c-1.517,1.251-2.46,4.722-0.771,6.606c4.911,5.477,10.095,10.356,15.478,15.409c2.115,1.985,5.473,1.231,6.934-0.445
		C79.185,75.036,79.304,71.739,76.992,69.506z M159.75,109.715c0-23.916-19.387-43.303-43.302-43.303s-43.302,19.387-43.302,43.303
		s19.387,43.303,43.302,43.303S159.75,133.63,159.75,109.715z M180.159,113.387c0.17,1.925,1.673,1.812,3.331,1.755
		c1.32-0.046,2.843-0.033,2.933-2.128c2.524,0.223,4.97,0.593,7.604,0.216c2.93-0.419,4.721-3.156,4.514-5.567
		c-0.218-2.541-2.561-4.66-5.566-4.576l-19.019,0.534c-3.322,0.093-5.682,1.642-5.751,4.891c-0.043,2.01,0.982,5.016,4.039,4.978
		L180.159,113.387z M41.494,119.817l19.813-0.741c3.011-0.113,4.531-3.153,4.443-5.532c-0.097-2.639-2.027-4.502-5.085-4.864
		c-13.248,1.902-25.516-2.387-25.614,5.872C35.014,117.749,37.271,119.975,41.494,119.817z M176.513,157.973l-15.137-14.33
		c-1.887-1.787-5.513-0.982-7.048,1.024c-1.126,1.471-1.516,4.628,0.481,6.541l15.293,14.648c1.91,1.829,5.432,0.669,6.679-0.622
		C178.577,163.375,178.733,160.074,176.513,157.973z M68.35,168.897l13.032-14.532c2.028-2.262,2.626-5.157,0.377-7.584
		c-1.418-1.53-5.026-2.299-7.072-0.048l-14.254,15.683c-1.845,2.03-1.036,5.487,0.466,7.399
		C62.235,171.515,66.47,170.993,68.35,168.897z M124.355,182.531l-0.526-16.473c-0.111-3.482-2.265-5.837-5.358-5.708
		c-2.694,0.112-4.883,2.367-4.695,5.612l1.341,23.206c0.146,2.528,5.099,1.854,6.715,0.977
		C124.094,188.919,124.462,185.884,124.355,182.531z M276.777,679.794l-2.486,0.002l0.01,16.449l2.486-0.001L276.777,679.794z
		 M226.458,691.763v16.173h2.488v-16.173H226.458z M583.994,692h-2v17h2V692z M317.955,699.778l-2.523,0.002l0.014,16.26
		l2.523-0.002L317.955,699.778z M631.993,705h-2v16h2V705z M277.001,709h-2v17h2V709z M542.995,713h-2v16h2V713z M581.479,722.345
		l-0.014,15.993l2.533,0.002l0.014-15.992L581.479,722.345z M328.473,746.079c0-9.652-7.824-17.476-17.475-17.476
		s-17.475,7.824-17.475,17.476s7.824,17.476,17.475,17.476S328.473,755.73,328.473,746.079z M213.709,734.997l-2.402,0.004
		l0.029,16.323l2.402-0.004L213.709,734.997z M244.001,738h-2v15h2V738z M565.532,758.952c0-9.628-7.805-17.433-17.433-17.433
		c-9.628,0-17.433,7.805-17.433,17.433s7.805,17.433,17.433,17.433C557.727,776.385,565.532,768.58,565.532,758.952z M646.993,748
		h-2v17h2V748z M614.506,750.839l-0.053,16.204l2.49,0.008l0.053-16.204L614.506,750.839z M285.612,779.621
		c0-9.628-7.805-17.432-17.432-17.432s-17.432,7.805-17.432,17.432s7.805,17.432,17.432,17.432S285.612,789.248,285.612,779.621z
		 M607.799,792.856c0-9.627-7.804-17.431-17.431-17.431c-9.627,0-17.431,7.804-17.431,17.431c0,9.627,7.804,17.431,17.431,17.431
		C599.996,810.287,607.799,802.483,607.799,792.856z M300.264,775.777l-0.022,15.527l2.483,0.004l0.022-15.527L300.264,775.777z
		 M557.995,788.999h-2v15h2V788.999z M328.667,816.488c0-9.544-7.737-17.281-17.281-17.281s-17.281,7.737-17.281,17.281
		c0,9.544,7.737,17.281,17.281,17.281S328.667,826.032,328.667,816.488z M227.905,834.99c11.653,2.916,21.05-4.631,22.361-15.184
		c1.234-9.926-6.986-18.713-16.848-18.953c-10.178-0.248-18.687,8.36-17.88,19.343C216.014,826.658,221.359,833.353,227.905,834.99z
		 M564.822,829.18c0-9.545-7.737-17.282-17.282-17.282s-17.282,7.737-17.282,17.282s7.737,17.282,17.282,17.282
		S564.822,838.725,564.822,829.18z M610.854,840.56c6.202,10.266,18.842,11.844,26.934,4.697c7.874-6.954,7.983-19.49-0.585-26.563
		c-6.438-5.315-15.986-5.031-22.368,0.42C609.146,823.972,606.431,833.24,610.854,840.56z"/>
	<path fill="#93C5A1" d="M604.312,1183.998L0.04,1184l-0.017-117.279c1.254,0.298,2.437-0.133,3.813-0.966
		c37.933-22.963,79.571-37.471,123.02-46.324c1.302,2.787,0.88,4.691,0.662,7.191l21.347,0.339l-0.034-11.49
		c35.741-5.123,71.168-6.211,107.291-2.758l-1.437,17.547c2.754,1.856,5.831,2.081,9.451,2.812l6.839,29.997
		c0.769,3.375,1.209,6.463,5.366,7.746c4.976,1.537,11.872,2.825,17.051,0.425c3.086-1.43,1.247-6.85-1.652-8.327l5.797-13.635
		c0.77-1.81,4.588-1.622,4.906,0.481l1.982,13.114c0.522,3.451,1.377,6.468,5.037,7.722c7.064,2.421,17.413,2.911,18.855-1.599
		c1.044-3.265-4.04-6.137-3.39-7.894l10.514-28.419c4.379,0.306,7.135-1.409,9.526-4.011l48.545,14.907l7.899,19.14
		c3.089,7.486-3.213,6.967-1.842,11.379c1.351,4.347,21.235,4.566,23.035-3.361c0.983-4.328,0.989-8.805,3.026-12.102
		c4.373,0.711,11.231,4.843,9.922,8.836c-0.691,2.107-5.042,6.57-1.389,8.408c7.109,3.577,16.454,1.726,22.463-3.402
		C512.615,1100.161,565.132,1137.549,604.312,1183.998z M142.835,1052.174c-1.776,3.291-3.504,7.832-1.154,11.68
		C143.908,1056.854,145.54,1050.694,142.835,1052.174z M152.002,1064.276l3.071-10.744c-4.328,1.835-4.665,6.302-5.328,10.691
		C150.449,1064.656,151.459,1064.541,152.002,1064.276z M220.139,1077.372l-0.221,10.9l2.586,0.052l0.221-10.9L220.139,1077.372z
		 M232.109,1087.013l1.288-8.958c0.119-0.825-1.219-1.206-1.764-0.77c-0.304,0.243-0.857,0.341-0.967,1.284l-1.008,8.671
		C229.951,1087.711,232.04,1087.497,232.109,1087.013z M96.866,1097.564c1.929-4.459,1.291-8.912-2.181-12.118
		C94.537,1089.895,94.968,1093.747,96.866,1097.564z M87.889,1098.042c1.281-4.608,0.065-9.45-4.357-11.607
		C84.312,1090.668,85.737,1094.149,87.889,1098.042z M367.925,1099.302c0.369-1.198-0.968-1.658-1.395-1.338
		c-2.354,1.77-4.436,9.738-1.76,11.596L367.925,1099.302z M377.395,1101.096c-1.49-1.433-5.808,5.224-4.471,11.122
		C375.504,1110.482,377.835,1101.52,377.395,1101.096z M285.694,1133.354c-1.578,1.324-3.32,9.438-0.855,11.463
		C287.397,1137.197,288.414,1131.072,285.694,1133.354z M297.901,1137.164c0.619-1.463-0.241-1.851-1.125-1.612
		c-2.14,0.578-5.361,8.463-2.855,11.021L297.901,1137.164z"/>
	<path fill="#B4CC89" d="M863.04,1069.912L862.424,1184l-254.618-0.009c-11.102-14.462-24.157-27.01-38.286-39.634
		c-34.421-30.142-71.871-54.409-114.365-75.512c21.724-12.123,44.128-19.478,66.976-26.959c3.191-1.045,6.33,0.714,9.848,1.652
		l10.77,28.285c-2.324,2.118-5.84,6.855-2.695,9.054c3.94,2.756,10.149,1.222,14.485,0.624c5.621-0.775,7.319-4.535,8.176-9.559
		l2.055-12.047c0.317-1.857,2.545-2.073,3.711-1.503c0.703,0.344,1.42,1.11,1.961,2.285l5.375,11.672
		c-2.867,1.678-5.443,7.035-2.22,8.992c4.44,2.695,11.229,1.237,15.773,0.267c5.092-1.087,5.906-4.32,6.82-8.43l6.503-29.247
		l9.149-2.948l-1.158-18.401c27.533-2.931,53.985-3.744,81.971-1.67c-1.513,7.507,1.91,13.344,8.791,15.638
		c4.489,1.497,9.189,1.589,13.238-1.244c3.232-2.261,5.396-6.42,6.439-11.292C771.322,1030.593,818.945,1046.367,863.04,1069.912z
		 M637.949,1047.83c-0.62-0.26-1.953-0.349-2.544-0.112c1.262,3.988,0.737,7.908,3.435,12.003
		C640.56,1055.302,638.898,1051.626,637.949,1047.83z M648.488,1047.428l-2.488,0.039l0.159,10.115l2.488-0.039L648.488,1047.428z
		 M722.16,1137.637c8.461-2.873,14.156-9.955,14.752-18.698c-9.783-2.322-19.286,2.089-24.504,10.491l-0.157-12.513
		c6.357-0.599,10.129-5.465,9.757-12.116c5.694,4.576,13.266,3.405,16.79-2.369c3.362-5.509,1.095-11.994-5.411-15.13
		c7.114-3.454,8.914-10.489,5.593-15.918c-3.368-5.507-9.982-6.64-16.465-2.622c0.448-8.264-4.612-12.974-11.055-12.791
		c-6.778,0.192-10.951,5.675-10.212,13.392c-6.106-4.891-13.608-3.744-17.063,2.214c-3.191,5.503-1.212,12.055,5.805,15.398
		c-7.42,3.357-9.159,10.699-5.45,16.117c3.726,5.441,11.042,6.376,16.57,1.63c-0.272,6.223,2.781,10.32,8.378,12.232
		c0.301,3.891,0.692,7.264-0.561,11.659c-5.417-8.309-14.603-12.372-23.841-9.781
		C685.979,1136.701,706.968,1142.797,722.16,1137.637z M764.432,1073.039c0.746,3.784,0.066,7.213,2.308,10.877
		C769.945,1073.298,763.832,1069.999,764.432,1073.039z M776.374,1072.401l-2.387,0.148l0.628,10.127l2.387-0.148L776.374,1072.401z
		 M622.13,1110.778c-1.041-0.352-1.908-0.141-2.216,0.145c1.013,3.994,0.186,7.629,2.945,11.199
		C624.481,1117.868,623.011,1114.399,622.13,1110.778z M632.956,1110.342l-2.512,0.013l0.053,10.366l2.512-0.013L632.956,1110.342z
		 M824.213,1127.941c-0.008-1.293-2.224-1.416-2.589-0.261l1.077,9.677c0.513-0.122,1.238,0.049,1.572,0.205L824.213,1127.941z
		 M812.793,1127.858c-0.358,0.1-1.195,0.122-1.573,0.102l1.391,8.567C813.392,1141.331,817.883,1139.249,812.793,1127.858z"/>
	<path fill="#32302C" d="M863.988,1067.966l0,2.032l-0.948-0.086c-44.095-23.545-91.718-39.32-141.919-45.9
		c-1.043,4.872-3.207,9.031-6.439,11.292c-4.049,2.833-8.749,2.741-13.238,1.244c-6.881-2.294-10.304-8.131-8.791-15.638
		c-27.985-2.074-54.438-1.261-81.971,1.67l1.158,18.401l-9.149,2.948l-6.503,29.247c-0.914,4.109-1.728,7.343-6.82,8.43
		c-4.544,0.97-11.333,2.428-15.773-0.267c-3.223-1.957-0.647-7.313,2.22-8.992l-5.375-11.672c-0.541-1.175-1.258-1.941-1.961-2.285
		c-1.166-0.57-3.394-0.354-3.711,1.503l-2.055,12.047c-0.857,5.025-2.555,8.784-8.176,9.559c-4.335,0.598-10.545,2.132-14.485-0.624
		c-3.144-2.199,0.371-6.936,2.695-9.054l-10.77-28.285c-3.518-0.937-6.657-2.697-9.848-1.652
		c-22.848,7.481-45.251,14.836-66.976,26.959c42.493,21.104,79.944,45.37,114.365,75.512c14.129,12.624,27.184,25.172,38.286,39.634
		l-3.493,0.006c-39.18-46.448-91.697-83.836-147.685-111.52c-6.009,5.128-15.354,6.979-22.463,3.402
		c-3.653-1.838,0.698-6.301,1.389-8.408c1.309-3.994-5.548-8.125-9.922-8.836c-2.037,3.297-2.043,7.774-3.026,12.102
		c-1.8,7.927-21.684,7.708-23.035,3.361c-1.371-4.412,4.932-3.893,1.842-11.379l-7.899-19.14l-48.545-14.907
		c-2.391,2.602-5.147,4.317-9.526,4.011l-10.514,28.419c-0.65,1.757,4.434,4.629,3.39,7.894c-1.442,4.511-11.791,4.021-18.855,1.599
		c-3.66-1.255-4.515-4.271-5.037-7.722l-1.982-13.114c-0.318-2.103-4.136-2.291-4.906-0.481l-5.797,13.635
		c2.898,1.477,4.738,6.897,1.652,8.327c-5.179,2.401-12.075,1.112-17.051-0.425c-4.157-1.284-4.596-4.372-5.366-7.746l-6.839-29.997
		c-3.621-0.73-6.697-0.956-9.451-2.812l1.437-17.547c-36.123-3.453-71.55-2.365-107.291,2.758l0.034,11.49l-21.347-0.339
		c0.218-2.5,0.641-4.404-0.662-7.191c-43.449,8.853-85.087,23.361-123.02,46.324c-1.376,0.833-2.559,1.264-3.813,0.966L0,1064.001
		c1.414,0.008,2.819-0.553,4.4-1.526l9.144-5.626c2.377-1.462,3.147-1.639,5.408-2.799c34.278-17.582,70.545-29.659,108.849-37.363
		l0.798-35.992c-8.7-0.132-16.264-0.95-23.698-3.544c-7.557-4.105-14.981-7.937-19.946-14.828
		c-13.984-19.407-8.004-45.428,13.126-56.93c-8.45-18.844-4.658-39.588,11.186-52.164c15.087-11.975,35.978-12.632,52.585-3.202
		c19.02,11.639,26.148,34.585,16.329,55.171c11.916,6.954,19.576,18.234,20.691,31.742c1.005,12.187-3.857,23.12-12.852,31.167
		c-10.504,9.209-23.886,12.897-38.542,12.379l1.209,32.649c36.518-5.219,71.998-5.91,107.978-2.702
		c1.53-12.05,4.358-22.395,7.685-33.445c-5.223-5.031-8.033-11.053-9.167-18.119c-3.052-18.597,6.468-36.611,23.935-43.525
		l-1.268-14.76c-9.117,1.267-21.827,4.411-25.735,11.662c-3.568-3.44-7.404-4.652-11.865-5.786
		c-14.412-2.844-29.16-0.311-42.166,6.462c-0.05,1.504-2.224,2.665-3.306,1.894c1.159-41.067,36.269-71.301,75.657-78.539
		c0.145-3.254,1.347-5.945,4.089-6.303c2.871-0.375,4.171,2.596,5.674,5.261c30.768-1.024,61.289,12.011,79.618,37.35
		c3.413-0.724,4.969-2.579,7.156-4.728c16.634-16.355,38.451-25.333,61.932-26.898c0.015-3.497,1.968-5.34,4.563-5.491
		c2.708-0.157,4.503,2.257,4.754,5.654c27.808,2.678,52.486,15.775,69.401,38.374c19.646-22.961,47.33-33.073,76.215-32.085
		c0.723-3.363,3.045-5.491,5.393-4.98c2.313,0.504,3.858,2.742,3.559,6.111c39.174,7.487,73.04,37.667,74.75,78.722
		c-1.799,1.106-3.051-1.117-3.948-1.742c-11.756-8.192-36.176-11.283-49.965-3.82c-0.811,0.439-1.699,2.546-3.034,2.053
		c-0.637-0.235-1.221-1.858-1.951-2.387c-6.988-5.067-15.033-7.633-23.677-8.904l-1.173,13.5
		c16.276,5.135,26.698,19.157,27.317,36.001c0.501,9.555-2.346,18.379-9.298,25.295c4.292,10.843,6.363,21.684,8.517,33.022
		c28.459-3.062,55.464-3.265,82.941-1.683l6.258-14.523c-10.16-3.093-19.48-5.865-27.408-12.486
		c0.358-7.978,5.116-14.353,10.558-19.985c9.172-9.49,21.705-15.796,35.331-14.788c24.381,1.803,41.453,32.091,33.078,54.928
		c-9.854,1.529-18.622-0.307-28.164-2.027l-1.002,12.107C772.443,1028.349,820.028,1044.188,863.988,1067.966z M252.886,906.336
		c18.763-10.18,39.993-12.095,59.946-6.187c-3.69-21.907-15.31-49.476-33.447-61.602c-2.655-0.622-5.448-0.349-7.965,0.747
		C256.054,855.664,251.15,883.383,252.886,906.336z M351.405,889.445c2.307-5.088,4.751-8.76,7.864-12.579
		c-1.939-4.425-5.143-7.338-8.112-11.137c-17.592-18.053-41.47-28.382-67.788-27.924c18.161,16.105,27.078,38.797,32.122,61.725
		C326.499,891.692,338.261,889.724,351.405,889.445z M250.215,906.971c-0.388-15.076,0.411-28.133,4.425-41.34
		c2.503-9.544,6.646-17.621,12.77-26.147c-35.212,7.511-66.122,34.629-69.918,70.685
		C214.85,902.342,232.962,900.234,250.215,906.971z M399.834,907.993c1.791-17.545,5.414-32.779,13.055-47.052
		c3.235-6.458,7.167-11.687,12.344-17.077c-36.138,3.467-67.412,26.156-77.345,61.179
		C365.548,899.178,383.866,899.212,399.834,907.993z M461.808,909.017c-0.366-17.334-4.299-32.364-10.936-46.765
		c-3.248-6.429-6.766-12.211-12.023-17.132c-2.98-2.043-6.966-2.276-10.166-0.517c-16.787,14.463-24.76,41.09-26.064,63.605
		C422.198,900.254,443.194,900.531,461.808,909.017z M517.22,907.853c-7.65-35.184-39.723-59.265-75.557-63.849
		c15.623,18.027,21.178,41.395,22.945,65.248C480.389,900.465,500.708,901.313,517.22,907.853z M144.591,903.523l1.529,34.688
		l10.801-10.243c1.833-1.738,4.742,0.366,5.917,1.697c1.162,1.315,2.8,3.765,1.221,5.566l-16.777,19.138
		c-1.774,7.396,0.477,15.757,0.126,23.689c14.047,0.791,26.765-3.067,36.817-11.72c14.644-12.607,16.438-33.205,4.912-48.529
		c-3.652-4.855-8.297-8.135-13.956-11.831c9.432-17.995,5.513-38.521-10.424-50.901c-13.113-10.186-31.219-12.026-46.137-4.719
		c-21.098,10.334-28.475,34.734-17.462,55.557c-7.945,5.337-14.813,11.09-18.576,19.764c-6.405,14.761-1.552,31.653,11.08,41.723
		c9.954,7.935,22.427,11.244,35.007,10.653l0.451-19.858l-17.483-17.795c-2.348-2.39-3.247-5.265-1.472-7.837
		c1.678-2.433,5.221-3.698,7.714-1.445l11.482,10.376l1.421-37.732C135.002,901.726,140.426,901.243,144.591,903.523z
		 M548.059,911.463c3.458-17.095,8.694-31.048,16.955-44.425c3.919-6.606,8.944-11.638,14.523-17.179
		c-27.838-0.081-53.325,11.139-70.545,31.995c3.994,6.444,6.893,12.662,9.462,19.843
		C529.365,902.064,538.725,905.513,548.059,911.463z M609.92,918.872c1.201-18.086-1.457-34.425-7.436-50.222
		c-4.11-10.427-10.889-22.209-19.326-17.566c-15.824,8.708-29.906,40.944-32.379,61.229
		C569.826,906.21,593.223,908.554,609.92,918.872z M664.751,921.086c-4.485-34.965-33.994-61.609-68.948-69.439
		c13.594,19.023,17.145,43.13,16.759,67.154c17.36-6.511,35.349-4.339,50.85,3.343L664.751,921.086z M383.093,1035.256
		c-0.047-19.872,3.908-38.048,10.666-56.306c-8.438-7.963-11.113-18.591-9.586-30.055c-6.074-1.207-9.879-4.975-11.558-10.6
		c-0.679-2.272-2.989-4.197-2.286-6.959l11.296-3.553c3.558-1.119,6.847-0.034,10.574,1.691c9.177-11.11,22.431-16.01,36.654-16.271
		c0.684-3.012,0.689-5.4,0.163-8.202c-8.756,0.36-16.83,1.68-24.633,5.383l-3.656,3.113c-2.048-3.146-4.729-4.84-8.167-6.209
		c-14.1-5.626-29.601-4.961-43.874,0.209c-0.028,1.508-3.534,2.357-3.617,1.5c-0.406-6.101,3.131-11.038,4.379-16.88
		c-12.333-0.109-24.1,2.673-32.952,10.362c-0.74,0.643-1.335,3.131-1.858,2.665l-2.072-1.846
		c-8.207-3.989-17.501-4.653-26.734-3.651c-0.706,4.963,0.002,8.919,1.049,13.298c17.831-3.169,32.388-0.236,45.936,11.123
		c9.207-4.779,14.938,0.289,22.628-1.747c0.965,4.156-1.124,7.271-2.411,10.74c-1.728,4.657-4.601,8.042-9.738,9.74
		c3.411,13.064,0.542,25.757-9.065,35.179c7.029,11.304,20.05,30.875,16.39,39.136c-1.041,2.351-3.798,3.478-6.578,4.095
		c-0.913,0.434-0.919,4.358,0.029,4.761l48.422,14.396C390.93,1035.409,386.612,1037.203,383.093,1035.256z M282.881,899.782
		l-2.956,0.313l6.84,64.654l2.956-0.313L282.881,899.782z M146.622,1023.905l-2.349-70.456l16.436-17.763
		c1.59-1.718,1.485-3.556-0.108-4.801c-1.294-1.011-2.795-0.984-4.284,0.463l-11.802,11.469L142.1,905.85
		c-0.154-2.352-8.313-2.067-8.818,0.264l-1.236,39.498c-2.081,0.131-3.473-0.842-4.648-2.007l-10.066-9.988
		c-1.635-1.622-3.816-1.407-5.017,0.22c-0.817,1.107-0.779,2.995,0.535,4.328l18.757,19.029l-1.391,67.308
		C136.251,1024.495,140.994,1025.283,146.622,1023.905z M531.928,987.896c-17.505-17.708-11.141-45.623,9.308-57.717
		c10.424-6.165,22.602-7.469,34.876-5.917l1.087-12.717c-9.163-0.528-17.811-0.211-25.954,3.684c-0.718,0.343-1.643,1.908-2.7,1.615
		c1.053,0.291-8.872-12.116-28.606-12.442c-0.721,2.637,0.645,5.854-0.182,7.198c-0.949,1.54-3.479-0.155-3.947-1.564
		c-14.18-5.788-29.737-6.403-44.185-1.606c-3.424,1.357-5.929,3.035-8.31,5.987c-5.777-6.811-17.139-8.524-26.326-9.291
		c-0.673,2.975-0.829,5.701,0.027,8.822c19.878,2.63,34.723,18.096,35.778,37.912c0.569,10.691-2.515,19.935-10.303,27.2
		c-0.659,1.562,1.094,5.085,1.94,6.445c5.823,9.36,11.266,18.51,14.918,28.844c2.175,6.155-1.053,11.911-7.358,13.482
		c-0.085,3.152,0.379,5.829-0.536,8.544l-8.424,2.498l-5.126,25.325c21.331-10.243,42.598-18.225,64.774-24.989l0.237-8.932
		C504.54,1027.576,522.643,1003.428,531.928,987.896z M431.037,905.996l-0.155,72.002l3.017,0.006l0.155-72.002L431.037,905.996z
		 M579.776,911.738l-6.179,64.354l2.898,0.278l6.179-64.354L579.776,911.738z M323.012,935.014c0.538-3.495-0.175-5.885,1.853-7.693
		c6.99,3.101,4.938,10.997,13.032,8.328c-9.123-18.303-31.118-24.781-50.995-19.934l2.445,22.283l18.196-1.324l2.369-8.303
		c3.598,0.684,3.574,4.099,5.02,6.869C315.959,937.211,322.689,937.11,323.012,935.014z M413.259,936.858
		c1.275-2.096,1.748-6.593,4.747-5.696c1.644,0.666,1.802,5.474,3.214,6.613c1.953,1.574,5.013,1.101,7.379,0.711l0.468-22.725
		c-16.006-0.059-29.938,6.22-38.413,20.701c6.444,4.451,8.302-8.329,12.862-6.981c2.464,0.728,1.133,5.656,1.801,7.265
		C406.46,938.442,412.001,938.928,413.259,936.858z M468.431,941.538c-5.485-15.014-17.597-23.029-31.727-25.326l-0.629,23.081
		L468.431,941.538z M281.647,938.332l-2.377-20.337c-10.369,4.457-17.617,12.429-20.462,23.091L281.647,938.332z M664.599,921.865
		l-0.755,0.777C664.52,923.612,665.561,922.466,664.599,921.865z M349.166,935.193l4.122-10.099
		c-6.879,0.966-12.536-2.839-18.53,1.148c3.153,4.278,5.92,8.279,7.552,13.618C345.273,939.691,348.027,937.983,349.166,935.193z
		 M558.775,947.846l0.992-7.704c6.165,2.158,6.947,10.039,14.042,7.686l2.276-20.924c-19.173-3.039-36.882,2.408-47.539,19.451
		l11.804,0.049c0.74-2.105,0.795-4.216,2.531-5.966c2.554,1.062,1.698,4.57,2.208,6.303L558.775,947.846z M606.56,950.736
		c-4.077-11.555-12.733-19.122-23.246-22.23l-1.702,20.333L606.56,950.736z M384.403,946.59c0.771-5.966,3.419-10.396,5.987-15.245
		c-6.216-3.728-17.378,2.093-17.438,2.246C373.089,933.244,376.117,945.742,384.403,946.59z M292.898,969.167
		c7.068,6.095-0.339,13.106,3.109,15.368c1.361,0.893,3.446,0.717,4.079-0.171c0.856-1.201,0.468-2.787,0.536-4.162
		c0.145-2.924,3.806-3.695,5.668-2.964c2.441,0.959,3.216,3.677,2.886,7.302c7.14-0.159,14.185-2.114,20.247-6.182
		c12.869-8.636,16.3-25.651,9.668-39.466l-8.295-0.611c-1.389-2.674-2.432-4.849-4.631-6.792l-0.71,7.054l-11.937,0.301
		l-2.154-6.138l-2.181,6.6l-19.167,1.637c-0.393,3.094-0.596,7.364,1.675,9.15c1.779,0.156,3.55,0.33,3.946,1.697
		c0.354,1.221,0.375,3.086-0.702,3.598c-1.026,0.487-2.254,0.534-4.117,0.802C291.992,960.438,293.556,964.254,292.898,969.167z
		 M412.756,958.458c3.774,1.758,4.392,3.829,6.704,4.024c3.642,0.307,9.095-4.65,9.086-5.45l-0.184-15.762l-9.225-0.554
		c-0.7-1.841-0.686-3.607-2.081-5.464c-1.64,1.804-1.598,3.519-2.482,5.279l-12.007-0.931c-0.117-2.402,0.235-4.383-0.632-6.829
		l-5.287,6.629l-7.8,0.539c-4.024,10.614-4.286,23.08,2.617,32.582c7.883,10.85,21.947,13.35,35.452,13.6
		c0.102-7.98,2.741-15.849,1.029-25.522c-2.159,3.535-4.893,4.586-8.436,4.264C416.276,964.57,412.451,963.162,412.756,958.458z
		 M283.926,968.214l-0.398-9.471l-1.492-17.564l-23.975,2.732c-3.068,12.899,0.584,27.358,11.718,33.721
		C274.372,973.891,278.374,970.93,283.926,968.214z M463.76,974.246c6.873-8.485,8.345-19.432,5.448-29.499l-33.297-3.013
		l-0.543,35.188c-0.039,2.534,2.127,5.017,1.092,8.823C446.574,985.162,456.261,981.961,463.76,974.246z M565.46,995.642
		c6.399-0.261-2.569-7.274,4.749-16.346c3.981-10.588-1.029-14.632,2.439-19.879c1.442-2.182,1.092-6.294,0.851-8.998
		c-5.527,0.656-8.518-2.141-11.081-6.232c-1.539,2.351-1.14,3.804-1.528,6.115l-16.303-1.217c-2.393-0.179-3.041-0.245-5.8-0.177
		l-11.69,0.287c-4.462,10.996-4.09,23.818,3.301,33.422c5.231,6.798,14.08,10.86,22.323,11.552c0.586-3.251,1.885-6.137,4.878-6.073
		C564.465,988.243,559.32,995.892,565.46,995.642z M607.576,954.296l-26.326-2.985l-2.11,28.425
		c5.762,2.368,9.927,5.938,14.969,9.367C606.878,983.492,611.491,968.005,607.576,954.296z M718.738,959.303
		c-4.65-0.645-11.616-0.752-15.001,2.591c0.193,3.985,5.864,6.493,9.542,5.252C716.176,966.169,719.278,963.334,718.738,959.303z
		 M713.237,994.285c13.252,3.312,25.347,6.948,36.481,13.858c1.058-3.04,1.374-5.241,1.194-8.651
		c-5.477,0.253-9.795-2.865-11.152-7.716c-1.268-4.533,1.559-8.991,6.103-10.88c0.385-1.52-0.756-3.232-1.429-3.981
		c-0.944-1.049-2.83-0.867-4.471-0.946c-5.725-0.277-8.321-6.078-7.233-11.227c-3.607-2.647-7.112-4.361-11.209-4.594
		c-0.72,5.669-4.653,9.091-9.226,9.703c-4.851,0.649-9.554-2.078-11.513-7.23c-2.984,0.333-5.215,1.809-7.713,3.752
		c2.654,2.311,3.776,5.48,3.334,8.689c-0.444,3.219-2.494,6.047-5.941,7.421c-4.114,1.639-8.357,0.42-12.123-1.75
		c-1.87,2.847-2.875,5.088-3.388,8.348C688.102,988.304,700.171,991.02,713.237,994.285z M740.984,973.157
		c-1.527-3.806-3.279-5.17-5.996-6.405C734.852,970.651,737.622,973.234,740.984,973.157z M687.203,980.685
		c4.11-0.471,5.956-2.779,6.66-5.41c0.585-2.188-0.308-6.487-2.902-6.899c-3.974,1.579-8.255,5.671-10.281,9.538
		C681.172,980.047,685.061,980.931,687.203,980.685z M332.463,979.335c-7.541,5.834-15.788,6.225-23.686,8.553
		c-3.064,2.693-5.697,7.351-10.462,7.011c-4.589-0.327-8.563-1.633-11.253-6.645l-17.466,10.059c-1.218,0.701-2.153,0.097-2.212-1
		c-0.065-1.212,0.134-1.149,1.274-1.622c11.413-4.731,29.674-15.954,24.333-23.054c-1.87-2.486-4.277-2.69-8.544-2.132
		c-6.193,4.522-16.514,8.89-19.92,16.717c-5.642,12.964-6.087,27.471-7.602,41.579c14.622,3.99,28.358,4.63,43.096,4.678
		c14.011,0.046,27.644-0.581,41.392-4.208C341.03,1011.973,338.087,996.392,332.463,979.335z M291.483,990.138
		c3.581,3.226,8.656,3.121,12.112,0.132c2.811-2.431,4.558-7.098,2.23-10.783c-5.169-1.034-0.766,8.52-7.312,8.803
		c-2.507,0.108-4.86-1.052-5.746-4.375c-1.604-0.004-3.045,1.393-3.201,2.621C289.432,987.597,290.211,988.992,291.483,990.138z
		 M395.985,1006.274c10.911,1.602,20.054,6.256,29.823,2.718c3.052-0.967,5.048-3.627,4.774-6.519
		c-0.754-7.938-15.003-3.678-28.81-8.418c-0.638-0.219-0.49-2.291,0.075-2.32l11.803,2.379c0.204-2.556,0.445-4.462,0.034-6.645
		c-6.621-1.068-12.183-3.002-17.99-6.991c-6.227,17.409-10.408,34.966-10.2,53.513c26.988,5.43,53.582,5.593,79.871,1.732
		c1.597-0.234,2.925-0.968,3.564-1.619c3.065-3.123-4.623-39.817-8.877-53.357c-7.479,5.012-15.153,6.733-23.958,8.051
		c0.631,4.439-2.496,7.944-3.64,10.839c1.107,5.214-0.57,11.01-6.895,12.084C416.06,1013.333,404.054,1012.866,395.985,1006.274z
		 M427.535,993.76c-0.45,1.638,0.693,2.943,2.102,3.368c3.524,1.063,4.587-7.725,4.695-16.052c-2.202-0.437-3.552-0.313-5.088,0.133
		c0.193,4.526,0.954,9.12-1.467,12.245L427.535,993.76z M534.331,989.98c-6.297,16.829-8.555,32.171-9.3,49.087
		c14.56,3.808,28.955,4.605,43.963,4.57c13.818-0.032,27.116-0.639,40.75-4.042c-0.367-13.262-2.781-25.575-5.848-38.419
		c-9.511-9.256-29.114-26.263-33.997-16.849c-4.521,8.716,14.775,18.46,25.741,23.668c0.119,1.218-0.075,1.602-0.407,1.804
		c-0.568,0.346-1.331,0.24-2.046-0.162l-17.523-9.859c-3.056,4.315-7.29,6.84-12.935,6.458c-5.505-0.372-6.529-5.711-10.32-8.314
		C547.116,994.352,539.164,994.459,534.331,989.98z M747.651,983.486c-4.953,1.066-6.309,4.726-5.141,8.454
		c0.943,3.01,4.12,5.462,8.132,4.521C750.643,992.121,749.82,987.962,747.651,983.486z M419.775,987.952
		c-2.882-0.904-4.322,1.501-3.791,4.444c0.284,1.571,2.164,2.807,4.965,2.027L419.775,987.952z M426.635,992.319
		c1.045-1.228,0.612-3.176-0.674-3.569c-0.935-0.286-2.816-0.829-3.389,0.177c-0.68,1.193-0.037,2.949,0.678,3.563
		c0.77,0.661,2.253,0.6,3.06,0.163L426.635,992.319z M601.677,995.859c0.163-3.309-0.809-4.682-1.783-7.082
		c-1.317,0.517-2.219,1.029-3.403,2.242L601.677,995.859z M570.155,995.275c-1.161,3.701-3.985,4.416-6.681,4.015
		c-5.273-0.785-1.941-9.272-5.782-8.929c-1.057,0.095-1.772,0.91-2.097,2.265c-1.103,4.6,1.321,8.764,5.007,10.348
		c4.191,1.801,8.809,1.097,11.69-2.689c0.828-1.088,0.806-2.498,0.486-3.426C572.526,996.13,570.998,994.754,570.155,995.275z
		 M349.002,1010.641c-2.99-7.295-5.263-14.068-10.512-20.391l4.757,27.766c0.981,1.18,4.258-0.217,4.927-1.398
		C348.993,1015.171,349.587,1013.317,349.002,1010.641z M704.068,994.419c-8.945-1.434-17.672-4.201-27.641-2.506
		c7.94,4.866,15.829,7.575,24.288,9.967L704.068,994.419z M466.761,993.303c-0.672,1.17-0.81,1.028-0.387,1.854L466.761,993.303z
		 M467.554,994.888l-1.063,0.862l5.068,29.72c5.433-1.277,7.687-6.331,5.6-10.659L467.554,994.888z M713.442,1033.147
		c4.451-3.477,5.65-8.852,6.06-13.679l1.742-20.476l-15.084-3.866l-7.002,15.152c-2.361,5.108-5.395,10.656-4.004,16.697
		C696.835,1034.276,707.352,1037.905,713.442,1033.147z M528.495,997.999l-0.5,0.5l0.5,0.5l0.5-0.5L528.495,997.999z
		 M523.468,1028.129l4.69-28.863c-5.116,6.164-7.983,13.006-10.747,20.24C516.497,1023.767,518.165,1028.221,523.468,1028.129z
		 M747.269,1009.665c-7.118-5.09-14.897-7.45-23.244-10.152c-1.044,2.844-1.077,4.768-0.989,7.77
		C730.866,1009.072,738.607,1009.989,747.269,1009.665z M304.867,1048.187l1.303,9.608l17.512-0.12l8.737-23.788
		c-22.378,2.678-43.504,2.636-65.73-0.283l5.191,23.686c6.738,0.925,13.105,1.027,19.52,0.473l4.793-11.801l13.243-0.687
		C308.577,1047.864,306.698,1047.757,304.867,1048.187z M431.74,1050.593l5.16,12.559l18.75-0.608l4.965-23.588
		c-22.641,2.667-43.649,2.284-66.151-0.655l9.532,24.363l17.438-0.158c1.38-2.852,2.484-7.017,1.241-9.957
		c-1.628-0.238-4.222-0.243-4.112-3.171L431.74,1050.593z M570.57,1056.802l5.591,11.113l19.081-0.539l5.041-23.306
		c-22.279,2.857-43.37,2.591-65.685-0.234c2.104,8.753,5.367,16.453,9.427,24.074l16.897-0.273
		c1.085-2.943,2.425-7.276,0.685-10.091c-1.818,0.401-4.655-0.775-3.581-2.756C561.431,1055.525,567.614,1054.676,570.57,1056.802z
		 M431.986,1058.017c-0.093-2.099-0.994-4.309-2.87-4.995c-1.404-0.513-2.71-0.036-3.202,0.476c-0.33,0.344-0.522,1.961,0.069,2.329
		C427.726,1056.912,428.964,1057.484,431.986,1058.017z M292.818,1068.956l-4.183-7.866l-15.432-1.087
		c-0.165,2.461-0.048,6.347,2.139,7.545C280.465,1070.353,286.596,1070.846,292.818,1068.956z M326.296,1068.867l-5.108-8.378
		l-14.24-0.032c-0.349,2.977,0.121,6.151,2.307,7.214C314.47,1070.206,320.386,1070.436,326.296,1068.867z M418.806,1072.276
		c2.296-1.272,2.365-5.113,1.898-7.164l-15.069,0.389c-0.793,2.43-2.302,4.944-4.536,7.874
		C406.962,1075.188,413.367,1075.289,418.806,1072.276z M451.712,1073.066c2.779-1.258,2.8-5.643,2.333-7.781l-14.874,0.441
		c-0.829,3.093-2.642,4.796-4.494,7.747C439.737,1075.996,446.101,1075.605,451.712,1073.066z M555.738,1078.838
		c3.302-0.585,6.165-6.24,3.867-7.983c-4.059-1.938-9.666-0.303-13.807-0.322c-1.48,3.441-4.342,5.185-4.611,8.827
		C546.282,1080.339,550.925,1079.691,555.738,1078.838z M591.434,1077.873c2.516-1.434,2.449-5.355,2.276-7.727l-15.084,0.345
		l-4.446,9.059C579.877,1080.802,586.096,1080.916,591.434,1077.873z"/>
	<path fill="#32302C" d="M863.983,319.185l0.005,2.514c-5.969-0.365-9.953,3.506-15.443,8.074
		c0.09-14.89-5.412-28.053-17.665-35.811c-12.814-8.114-28.824-7.384-41.984,0.856c-11.408,7.143-18.229,20.242-17.884,35.306
		l-7.756-6.34c-8.892-5.577-19.405-5.251-26.946,1.117c-7.597,6.414-9.592,16.214-5.895,25.895l-9.339-4.008
		c-11.18-4.798-24.333-0.558-29.851,10.423c-4.432,8.819-0.507,19.895,9.257,22.109l13.651,0.492l149.55,2.114l-98.533,0.353
		l-33.171-0.256l-12.987-0.01l-2.002-0.01l-4.044,0.055c-5.949,0.081-13.031,1.022-18.789-2.565
		c-5.512-3.434-7.553-10.604-7.079-16.835c0.447-5.883,3.815-11.522,9.312-15.418c8.675-6.149,19.898-6.082,29.695-1.171
		c-1.469-13.795,5.217-24.766,17.792-27.969c8.627-2.198,15.976,0.028,23.416,5.067l5.458-14.546
		c10.819-20.229,35.654-28.851,56.273-18.653c13.207,6.532,20.573,19.442,21.852,34.334
		C854.919,320.841,859.286,318.428,863.983,319.185z"/>
	<polygon fill="#FAF6E3" points="863.988,1069.999 863.988,1183.998 862.424,1184 863.04,1069.912 	"/>
	<path fill="#32302C" d="M159.75,109.715c0,23.916-19.387,43.303-43.302,43.303s-43.302-19.387-43.302-43.303
		s19.387-43.303,43.302-43.303S159.75,85.799,159.75,109.715z M157.154,109.683c0-22.489-18.23-40.72-40.719-40.72
		s-40.719,18.231-40.719,40.72s18.23,40.72,40.719,40.72S157.154,132.172,157.154,109.683z"/>
	<path fill="#32302C" d="M285.612,779.621c0,9.628-7.805,17.432-17.432,17.432s-17.432-7.805-17.432-17.432
		s7.805-17.432,17.432-17.432S285.612,769.993,285.612,779.621z M283.213,779.576c0-8.262-6.698-14.96-14.959-14.96
		s-14.959,6.698-14.959,14.96s6.698,14.96,14.959,14.96S283.213,787.838,283.213,779.576z"/>
	<path fill="#32302C" d="M564.822,829.18c0,9.545-7.737,17.282-17.282,17.282s-17.282-7.737-17.282-17.282
		s7.737-17.282,17.282-17.282S564.822,819.636,564.822,829.18z M562.47,829.111c0-8.203-6.649-14.852-14.852-14.852
		s-14.852,6.65-14.852,14.852s6.649,14.852,14.852,14.852S562.47,837.313,562.47,829.111z"/>
	<path fill="#32302C" d="M227.905,834.99c-6.545-1.638-11.891-8.332-12.366-14.794c-0.807-10.982,7.701-19.591,17.88-19.343
		c9.862,0.24,18.081,9.027,16.848,18.953C248.954,830.359,239.557,837.906,227.905,834.99z M248.007,818.223
		c0-8.266-6.701-14.967-14.967-14.967c-8.266,0-14.967,6.701-14.967,14.967c0,8.266,6.701,14.967,14.967,14.967
		C241.306,833.189,248.007,826.489,248.007,818.223z"/>
	<path fill="#32302C" d="M610.854,840.56c-4.423-7.32-1.708-16.588,3.981-21.446c6.382-5.451,15.93-5.735,22.368-0.42
		c8.568,7.073,8.459,19.61,0.585,26.563C629.695,852.404,617.056,850.826,610.854,840.56z M641.347,832.166
		c0-8.291-6.721-15.012-15.012-15.012c-8.291,0-15.012,6.721-15.012,15.012s6.721,15.012,15.012,15.012
		C634.626,847.179,641.347,840.457,641.347,832.166z"/>
	<path fill="#32302C" d="M607.799,792.856c0,9.627-7.804,17.431-17.431,17.431c-9.627,0-17.431-7.804-17.431-17.431
		c0-9.627,7.804-17.431,17.431-17.431C599.996,775.425,607.799,783.229,607.799,792.856z M605.501,792.788
		c0-8.313-6.739-15.051-15.051-15.051c-8.312,0-15.051,6.739-15.051,15.051s6.739,15.051,15.051,15.051
		C598.762,807.839,605.501,801.1,605.501,792.788z"/>
	<path fill="#32302C" d="M328.667,816.488c0,9.544-7.737,17.281-17.281,17.281s-17.281-7.737-17.281-17.281
		c0-9.544,7.737-17.281,17.281-17.281S328.667,806.944,328.667,816.488z M326.317,816.347c0-8.222-6.665-14.887-14.887-14.887
		c-8.222,0-14.887,6.665-14.887,14.887s6.665,14.887,14.887,14.887C319.652,831.234,326.317,824.569,326.317,816.347z"/>
	<path fill="#32302C" d="M565.532,758.952c0,9.628-7.805,17.433-17.433,17.433c-9.628,0-17.433-7.805-17.433-17.433
		s7.805-17.433,17.433-17.433C557.727,741.519,565.532,749.324,565.532,758.952z M563.226,758.949
		c0-8.308-6.735-15.043-15.042-15.043s-15.042,6.735-15.042,15.043s6.735,15.043,15.042,15.043S563.226,767.257,563.226,758.949z"/>
	<path fill="#32302C" d="M328.473,746.079c0,9.652-7.824,17.476-17.475,17.476s-17.475-7.824-17.475-17.476
		s7.824-17.476,17.475-17.476S328.473,736.427,328.473,746.079z M326.184,746.015c0-8.341-6.762-15.103-15.103-15.103
		c-8.341,0-15.103,6.762-15.103,15.103c0,8.341,6.762,15.103,15.103,15.103C319.423,761.118,326.184,754.357,326.184,746.015z"/>
	<path fill="#32302C" d="M41.494,119.817c-4.223,0.158-6.48-2.068-6.442-5.265c0.098-8.259,12.365-3.969,25.614-5.872
		c3.057,0.362,4.988,2.226,5.085,4.864c0.087,2.379-1.432,5.419-4.443,5.532L41.494,119.817z M60.794,116.39
		c1.74-0.054,2.565-1.982,2.4-2.871c-0.154-0.829-1.13-2.075-2.614-2.034l-20.479,0.562c-1.574,0.043-2.542,1.427-2.578,2.46
		c-0.034,0.985,1.039,2.571,2.588,2.523L60.794,116.39z"/>
	<path fill="#32302C" d="M68.35,168.897c-1.88,2.096-6.115,2.618-7.451,0.918c-1.502-1.912-2.311-5.369-0.466-7.399l14.254-15.683
		c2.046-2.251,5.654-1.481,7.072,0.048c2.249,2.426,1.651,5.322-0.377,7.584L68.35,168.897z M67.113,166.577l12.563-13.969
		c1.304-1.45,1.17-3.277-0.481-4.188c-1.298-0.716-2.261-0.335-3.618,1.191c-6.729,7.566-17.529,16.696-11.975,18.29
		C64.766,168.236,65.924,167.9,67.113,166.577z"/>
	<path fill="#32302C" d="M76.992,69.506c2.313,2.232,2.193,5.53,0.503,7.468c-1.461,1.676-4.819,2.43-6.934,0.445
		c-5.382-5.053-10.566-9.932-15.478-15.409c-1.689-1.884-0.747-5.355,0.771-6.606c1.622-1.337,4.805-1.664,6.652,0.119
		L76.992,69.506z M71.768,75.238c1.33,1.318,3.11,0.751,3.869-0.093c1.186-1.318,0.645-2.9-0.647-4.143l-13.735-13.22
		c-1.455-1.4-3.087-1.13-3.942-0.025c-0.799,1.033-0.706,2.466,0.388,3.549L71.768,75.238z"/>
	<path fill="#32302C" d="M176.513,157.973c2.22,2.102,2.064,5.402,0.269,7.261c-1.247,1.291-4.77,2.451-6.679,0.622l-15.293-14.648
		c-1.997-1.913-1.607-5.07-0.481-6.541c1.535-2.006,5.161-2.811,7.048-1.024L176.513,157.973z M175.225,160.367l-14.535-14.186
		c-1.401-1.368-3.326-0.798-4.206,0.583c-0.45,0.706-0.451,2.076,0.623,3.129l13.654,13.392c1.196,1.173,2.924,0.844,3.905,0.102
		C175.296,162.91,176.52,161.631,175.225,160.367z"/>
	<path fill="#32302C" d="M119.739,53.508c0.102,3.624-1.699,6.011-4.361,6.408c-2.638,0.394-5.559-1.862-5.763-5.15l-0.687-11.078
		l0.584-11.347c0.149-2.899,3.662-2.927,5.899-2.439c2.528,0.551,3.743,2.918,3.832,6.068L119.739,53.508z M117.35,53.537
		l-0.536-18.377c-0.048-1.653-1.462-2.797-2.458-2.998c-1.336-0.269-2.864,1.106-2.826,2.833L111.945,54
		c0.039,1.803,1.208,3.322,2.57,3.305C115.837,57.288,117.415,55.776,117.35,53.537z"/>
	<path fill="#32302C" d="M161.001,73.441c-2.345,2.504-5.047,3.04-7.456,1.416c-2.11-1.422-3.3-5.078-1.087-7.483l13.852-15.055
		c2.222-2.415,5.955-2.042,7.805,0.074c2.018,2.308,1.399,5.551-0.826,7.927L161.001,73.441z M159.152,71.611l13.155-14.274
		c1.134-1.231,0.524-3.198-0.33-3.823c-0.799-0.584-2.363-0.853-3.299,0.143L155.1,68.092c-1.462,1.554-1.58,3.331-0.154,4.504
		C156.018,73.477,157.758,73.124,159.152,71.611z"/>
	<path fill="#32302C" d="M186.423,113.013c-2.286-0.202-4.167,0.347-6.264,0.374l-7.914,0.1c-3.057,0.039-4.081-2.968-4.039-4.978
		c0.069-3.248,2.428-4.797,5.751-4.891l19.019-0.534c3.005-0.084,5.348,2.035,5.566,4.576c0.207,2.412-1.584,5.148-4.514,5.567
		C191.393,113.605,188.946,113.236,186.423,113.013z M195.983,107.47c-0.322-0.751-1.49-1.902-2.947-1.866l-19.9,0.497
		c-1.501,0.037-2.401,1.531-2.477,2.407c-0.091,1.051,0.872,2.45,2.443,2.437C184.056,110.852,197.958,112.071,195.983,107.47z"/>
	<path fill="#32302C" d="M124.355,182.531c0.107,3.353-0.261,6.388-2.522,7.614c-1.616,0.876-6.569,1.551-6.715-0.977l-1.341-23.206
		c-0.188-3.245,2.001-5.5,4.695-5.612c3.093-0.129,5.247,2.226,5.358,5.708L124.355,182.531z M122.096,184.5l-0.92-19.389
		c-0.07-1.47-1.751-2.264-2.656-2.176c-0.905,0.088-2.201,0.86-2.159,2.413l0.535,19.65c0.049,1.784,1.223,3.221,2.608,3.2
		C120.815,188.179,122.204,186.767,122.096,184.5z"/>
	
		<rect x="574.742" y="729.076" transform="matrix(8.745636e-04 -1 1 8.745636e-04 -148.1133 1312.4418)" fill="#32302C" width="15.993" height="2.533"/>
	<rect x="274.296" y="679.795" fill="#32302C" width="2.486" height="16.449"/>
	<rect x="226.458" y="691.763" fill="#32302C" width="2.488" height="16.173"/>
	
		<rect x="607.622" y="757.7" transform="matrix(0.0033 -1 1 0.0033 -145.2395 1372.1727)" fill="#32302C" width="16.205" height="2.49"/>
	<rect x="315.439" y="699.779" fill="#32302C" width="2.523" height="16.26"/>
	<rect x="211.322" y="735" transform="matrix(1 -0.0017 0.0017 1 -1.2999 0.373)" fill="#32302C" width="2.402" height="16.323"/>
	
		<rect x="293.731" y="782.301" transform="matrix(0.0014 -1 1 0.0014 -482.48 1083.913)" fill="#32302C" width="15.527" height="2.483"/>
	<rect x="275.001" y="709" fill="#32302C" width="2" height="17"/>
	<rect x="581.994" y="692" fill="#32302C" width="2" height="17"/>
	<rect x="644.993" y="748" fill="#32302C" width="2" height="17"/>
	<rect x="629.993" y="705" fill="#32302C" width="2" height="16"/>
	<rect x="540.995" y="713" fill="#32302C" width="2" height="16"/>
	<rect x="242.001" y="738" fill="#32302C" width="2" height="15"/>
	<rect x="555.995" y="788.999" fill="#32302C" width="2" height="15"/>
	<path fill="#B4CC89" d="M731.98,382.022c0.125,0.329,0.168,1.125-0.049,1.437c-0.227,0.326-1.051,0.628-1.851,0.628l-9.178-0.001
		c-0.807,0-1.614-0.294-1.852-0.629c-0.219-0.308-0.174-1.107-0.057-1.445L731.98,382.022z"/>
	<path fill="#B4CC89" d="M186.423,113.013c-0.09,2.096-1.613,2.083-2.933,2.128c-1.658,0.057-3.161,0.171-3.331-1.755
		C182.256,113.36,184.136,112.811,186.423,113.013z"/>
	<path fill="#B4CC89" d="M716.991,382.002c0.339,1.826-0.688,2.322-2.5,2.092c-1.221-0.155-1.859-0.582-1.543-2.037L716.991,382.002
		z"/>
	<path fill="#32302C" d="M285.694,1133.354c2.721-2.282,1.703,3.842-0.855,11.463
		C282.373,1142.792,284.115,1134.678,285.694,1133.354z"/>
	<path fill="#32302C" d="M232.109,1087.013c-0.07,0.484-2.159,0.697-2.451,0.226l1.008-8.671c0.109-0.942,0.663-1.04,0.967-1.284
		c0.545-0.436,1.883-0.055,1.764,0.77L232.109,1087.013z"/>
	
		<rect x="215.87" y="1081.556" transform="matrix(0.0203 -0.9998 0.9998 0.0203 -865.7947 1282.1572)" fill="#32302C" width="10.903" height="2.586"/>
	<path fill="#32302C" d="M367.925,1099.302l-3.155,10.258c-2.676-1.858-0.594-9.826,1.76-11.596
		C366.957,1097.644,368.294,1098.104,367.925,1099.302z"/>
	<path fill="#32302C" d="M377.395,1101.096c0.441,0.424-1.89,9.386-4.471,11.122C371.587,1106.32,375.904,1099.663,377.395,1101.096
		z"/>
	<path fill="#32302C" d="M96.866,1097.564c-1.898-3.817-2.329-7.669-2.181-12.118C98.157,1088.651,98.795,1093.105,96.866,1097.564z
		"/>
	<path fill="#32302C" d="M142.835,1052.174c2.705-1.479,1.073,4.68-1.154,11.68C139.331,1060.006,141.059,1055.465,142.835,1052.174
		z"/>
	<path fill="#32302C" d="M297.901,1137.164l-3.981,9.41c-2.506-2.558,0.715-10.443,2.855-11.021
		C297.66,1135.314,298.52,1135.701,297.901,1137.164z"/>
	<path fill="#32302C" d="M87.889,1098.042c-2.152-3.893-3.577-7.374-4.357-11.607C87.954,1088.592,89.17,1093.435,87.889,1098.042z"
		/>
	<path fill="#32302C" d="M152.002,1064.276c-0.543,0.265-1.553,0.38-2.257-0.052c0.663-4.39,1-8.856,5.328-10.691L152.002,1064.276z
		"/>
	<path fill="#32302C" d="M722.16,1137.637c-15.191,5.16-36.181-0.936-37.072-18.806c9.238-2.59,18.423,1.473,23.841,9.781
		c1.252-4.394,0.862-7.767,0.561-11.659c-5.597-1.911-8.649-6.009-8.378-12.232c-5.529,4.746-12.844,3.811-16.57-1.63
		c-3.71-5.418-1.971-12.76,5.45-16.117c-7.018-3.343-8.997-9.895-5.805-15.398c3.455-5.958,10.957-7.105,17.063-2.214
		c-0.739-7.717,3.434-13.2,10.212-13.392c6.444-0.183,11.503,4.526,11.055,12.791c6.483-4.017,13.097-2.884,16.465,2.622
		c3.321,5.43,1.521,12.464-5.593,15.918c6.506,3.135,8.773,9.621,5.411,15.13c-3.524,5.774-11.096,6.944-16.79,2.369
		c0.372,6.651-3.399,11.518-9.757,12.116l0.157,12.513c5.219-8.402,14.721-12.814,24.504-10.491
		C736.315,1127.683,730.62,1134.764,722.16,1137.637z M716.641,1075.38c2.965-2.942,3.646-8.248,2.656-11.681
		c-1.253-4.346-5.973-5.883-9.188-5.08c-4.56,1.139-6.781,4.593-6.311,9.538c0.182,1.916,0.772,6.724,3.026,6.895
		C710.186,1074.596,714.045,1074.998,716.641,1075.38z M699.142,1084.323l4.358-7.564c0.159-2.937-3.962-5.531-6.309-6.864
		c-3.911-2.221-8.076-1.173-10.439,2.273c-2.051,2.991-2.512,7.061,1.078,10.27C690.082,1084.45,697.327,1087.474,699.142,1084.323z
		 M723.366,1085.599c4.833,0.117,9.228-0.406,12.705-3.524c2.816-2.525,2.63-6.548,0.787-9.408c-1.7-2.637-4.805-4.683-8.876-3.496
		c-3.215,0.937-8.603,4.729-8.016,8.463C720.574,1080.2,723.696,1082.36,723.366,1085.599z M720.972,1086.663
		c0-5.276-4.277-9.552-9.552-9.552c-5.276,0-9.552,4.277-9.552,9.552c0,5.276,4.277,9.552,9.552,9.552
		C716.695,1096.215,720.972,1091.938,720.972,1086.663z M704.545,1095.832c-4.12-1.283-3.815-5.459-5.25-6.905
		c-3.3-1.965-8.432,0.026-11.114,2.101c-3.873,2.996-3.568,7.684-1.417,10.812c2.503,3.64,7.378,4.594,11.066,2.01
		C700.788,1101.778,702.605,1099.392,704.545,1095.832z M729.283,1105.094c4.268,0.391,6.52-2.399,7.684-4.662
		c1.246-2.422,1.316-5.327-0.704-7.863c-2.633-3.306-8.574-5.571-12.607-3.858c-0.777,2.344-2.826,5.736-4.24,7.701
		C719.852,1100.48,724.751,1104.678,729.283,1105.094z M719.389,1108.186c0.732-2.895-0.246-8.902-3.3-9.987l-9.679-0.068
		c-2.76,2.566-3.246,8.144-2.115,11.448c1.259,3.677,4.891,4.995,8.134,4.739C715.6,1114.068,718.384,1112.163,719.389,1108.186z
		 M709.151,1136.814c-2.032-10.077-10.885-17.612-21.571-16.189C689.57,1131.123,698.945,1136.399,709.151,1136.814z
		 M734.08,1120.759c-11.659-0.982-19.729,6.799-21.712,16.129C723.056,1136.802,732.561,1130.968,734.08,1120.759z"/>
	<path fill="#32302C" d="M637.949,1047.83c0.949,3.796,2.611,7.472,0.891,11.891c-2.698-4.096-2.173-8.015-3.435-12.003
		C635.997,1047.48,637.329,1047.57,637.949,1047.83z"/>
	<path fill="#32302C" d="M764.432,1073.039c-0.6-3.04,5.513,0.259,2.308,10.877C764.497,1080.252,765.178,1076.823,764.432,1073.039
		z"/>
	
		<rect x="646.08" y="1047.447" transform="matrix(0.9999 -0.0157 0.0157 0.9999 -16.4913 10.3225)" fill="#32302C" width="2.488" height="10.117"/>
	<path fill="#32302C" d="M824.213,1127.941l0.059,9.621c-0.334-0.156-1.059-0.327-1.572-0.205l-1.077-9.677
		C821.99,1126.526,824.205,1126.648,824.213,1127.941z"/>
	<path fill="#32302C" d="M622.13,1110.778c0.882,3.621,2.352,7.09,0.728,11.344c-2.758-3.569-1.932-7.205-2.945-11.199
		C620.221,1110.637,621.089,1110.427,622.13,1110.778z"/>
	<path fill="#32302C" d="M812.793,1127.858c5.09,11.391,0.599,13.473-0.181,8.669l-1.391-8.567
		C811.598,1127.98,812.435,1127.958,812.793,1127.858z"/>
	
		<rect x="774.298" y="1072.466" transform="matrix(0.9981 -0.0619 0.0619 0.9981 -65.204 50.0624)" fill="#32302C" width="2.392" height="10.147"/>
	
		<rect x="630.47" y="1110.348" transform="matrix(1 -0.0051 0.0051 1 -5.6788 3.2351)" fill="#32302C" width="2.512" height="10.366"/>
	<path fill="#93C5A1" d="M144.591,903.523c-4.165-2.28-9.589-1.797-13.811,0.241l-1.421,37.732l-11.482-10.376
		c-2.493-2.253-6.035-0.988-7.714,1.445c-1.774,2.572-0.876,5.447,1.472,7.837l17.483,17.795l-0.451,19.858
		c-12.58,0.591-25.054-2.718-35.007-10.653c-12.631-10.07-17.484-26.962-11.08-41.723c3.763-8.674,10.631-14.427,18.576-19.764
		c-11.013-20.823-3.637-45.223,17.462-55.557c14.918-7.307,33.024-5.467,46.137,4.719c15.937,12.381,19.857,32.906,10.424,50.901
		c5.659,3.696,10.305,6.976,13.956,11.831c11.526,15.323,9.733,35.922-4.912,48.529c-10.051,8.653-22.77,12.511-36.817,11.72
		c0.351-7.932-1.9-16.293-0.126-23.689l16.777-19.138c1.579-1.801-0.059-4.251-1.221-5.566c-1.175-1.331-4.085-3.435-5.917-1.697
		l-10.801,10.243L144.591,903.523z"/>
	<path fill="#FAF6E3" d="M383.093,1035.256c3.518,1.948,7.836,0.153,9.402,5.112l-48.422-14.396
		c-0.948-0.403-0.942-4.326-0.029-4.761c2.78-0.617,5.536-1.744,6.578-4.095c3.66-8.261-9.361-27.832-16.39-39.136
		c9.607-9.422,12.476-22.116,9.065-35.179c5.137-1.698,8.01-5.083,9.738-9.74c1.287-3.469,3.376-6.584,2.411-10.74
		c-7.689,2.036-13.421-3.032-22.628,1.747c-13.548-11.358-28.105-14.292-45.936-11.123c-1.047-4.379-1.755-8.335-1.049-13.298
		c9.233-1.001,18.527-0.338,26.734,3.651l2.072,1.846c0.523,0.466,1.118-2.022,1.858-2.665c8.852-7.689,20.619-10.472,32.952-10.362
		c-1.248,5.841-4.785,10.779-4.379,16.88c0.083,0.857,3.588,0.008,3.617-1.5c14.273-5.17,29.774-5.836,43.874-0.209
		c3.438,1.368,6.119,3.062,8.167,6.209l3.656-3.113c7.803-3.704,15.877-5.023,24.633-5.383c0.525,2.802,0.521,5.19-0.163,8.202
		c-14.223,0.26-27.478,5.161-36.654,16.271c-3.727-1.725-7.016-2.81-10.574-1.691l-11.296,3.553
		c-0.703,2.762,1.607,4.687,2.286,6.959c1.68,5.625,5.485,9.393,11.558,10.6c-1.526,11.464,1.149,22.092,9.586,30.055
		C387.002,997.208,383.046,1015.384,383.093,1035.256z"/>
	<path fill="#FAF6E3" d="M332.463,979.335c5.624,17.058,8.567,32.638,8.949,49.938c-13.749,3.627-27.381,4.253-41.392,4.208
		c-14.739-0.048-28.475-0.688-43.096-4.678c1.516-14.108,1.961-28.615,7.602-41.579c3.406-7.827,13.727-12.195,19.92-16.717
		c4.268-0.558,6.674-0.354,8.544,2.132c5.341,7.1-12.92,18.323-24.333,23.054c-1.139,0.472-1.339,0.41-1.274,1.622
		c0.059,1.096,0.994,1.701,2.212,1l17.466-10.059c2.69,5.012,6.664,6.318,11.253,6.645c4.765,0.34,7.398-4.318,10.462-7.011
		C316.675,985.559,324.922,985.168,332.463,979.335z"/>
	<path fill="#93C5A1" d="M534.331,989.98c4.833,4.479,12.784,4.372,18.079,7.941c3.791,2.603,4.814,7.942,10.32,8.314
		c5.644,0.382,9.878-2.143,12.935-6.458l17.523,9.859c0.715,0.403,1.478,0.508,2.046,0.162c0.332-0.202,0.526-0.585,0.407-1.804
		c-10.966-5.208-30.262-14.951-25.741-23.668c4.883-9.414,24.485,7.593,33.997,16.849c3.067,12.844,5.481,25.157,5.848,38.419
		c-13.634,3.403-26.932,4.01-40.75,4.042c-15.008,0.035-29.403-0.762-43.963-4.57C525.777,1022.151,528.035,1006.808,534.331,989.98
		z"/>
	<path fill="#EFCE75" d="M395.985,1006.274c8.07,6.592,20.075,7.059,29.574,5.445c6.325-1.075,8.002-6.87,6.895-12.084
		c1.144-2.895,4.271-6.4,3.64-10.839c8.806-1.318,16.479-3.039,23.958-8.051c4.253,13.54,11.941,50.234,8.877,53.357
		c-0.639,0.651-1.968,1.384-3.564,1.619c-26.289,3.861-52.883,3.698-79.871-1.732c-0.208-18.547,3.973-36.104,10.2-53.513
		c5.806,3.99,11.368,5.923,17.99,6.991c0.411,2.183,0.171,4.089-0.034,6.645l-11.803-2.379c-0.566,0.029-0.714,2.101-0.075,2.32
		c13.807,4.741,28.056,0.481,28.81,8.418c0.275,2.892-1.721,5.552-4.774,6.519C416.039,1012.53,406.896,1007.876,395.985,1006.274z"
		/>
	<path fill="#EB7D67" d="M252.886,906.336c-1.736-22.953,3.168-50.671,18.533-67.042c2.518-1.096,5.31-1.368,7.965-0.747
		c18.137,12.125,29.757,39.695,33.447,61.602C292.879,894.24,271.649,896.155,252.886,906.336z"/>
	<path fill="#EB7D67" d="M609.92,918.872c-16.697-10.318-40.093-12.663-59.141-6.56c2.473-20.285,16.555-52.521,32.379-61.229
		c8.437-4.643,15.216,7.139,19.326,17.566C608.463,884.447,611.121,900.786,609.92,918.872z"/>
	<path fill="#EFCE75" d="M461.808,909.017c-18.614-8.487-39.61-8.763-59.189-0.809c1.304-22.516,9.277-49.142,26.064-63.605
		c3.2-1.759,7.185-1.526,10.166,0.517c5.257,4.922,8.775,10.704,12.023,17.132C457.51,876.653,461.443,891.684,461.808,909.017z"/>
	<path fill="#EB7D67" d="M250.215,906.971c-17.253-6.737-35.366-4.629-52.724,3.199c3.796-36.056,34.706-63.174,69.918-70.685
		c-6.123,8.526-10.267,16.603-12.77,26.147C250.626,878.838,249.827,891.895,250.215,906.971z"/>
	<path fill="#EFCE75" d="M517.22,907.853c-16.513-6.54-36.831-7.389-52.612,1.399c-1.767-23.853-7.322-47.221-22.945-65.248
		C477.497,848.588,509.57,872.669,517.22,907.853z"/>
	<path fill="#EB7D67" d="M351.405,889.445c-13.143,0.279-24.905,2.247-35.914,10.085c-5.044-22.928-13.961-45.62-32.122-61.725
		c26.318-0.458,50.196,9.872,67.788,27.924c2.969,3.799,6.173,6.713,8.112,11.137C356.156,880.686,353.711,884.357,351.405,889.445z
		"/>
	<path fill="#EB7D67" d="M548.059,911.463c-9.334-5.95-18.693-9.399-29.605-9.766c-2.569-7.181-5.468-13.399-9.462-19.843
		c17.22-20.856,42.707-32.076,70.545-31.995c-5.579,5.541-10.604,10.573-14.523,17.179
		C556.753,880.415,551.516,894.368,548.059,911.463z"/>
	<path fill="#EB7D67" d="M146.622,1023.905c-5.628,1.378-10.372,0.59-16.406,0.596l1.391-67.308l-18.757-19.029
		c-1.314-1.333-1.352-3.221-0.535-4.328c1.201-1.627,3.382-1.842,5.017-0.22l10.066,9.988c1.175,1.166,2.566,2.138,4.648,2.007
		l1.236-39.498c0.505-2.331,8.664-2.615,8.818-0.264l2.415,36.967l11.802-11.469c1.489-1.447,2.99-1.474,4.284-0.463
		c1.594,1.245,1.698,3.082,0.108,4.801l-16.436,17.763L146.622,1023.905z"/>
	<path fill="#FAF6E3" d="M292.898,969.167c0.658-4.913-0.906-8.73-2.079-12.977c1.862-0.267,3.091-0.315,4.117-0.802
		c1.077-0.512,1.055-2.377,0.702-3.598c-0.396-1.367-2.167-1.541-3.946-1.697c-2.271-1.786-2.068-6.055-1.675-9.15l19.167-1.637
		l2.181-6.6l2.154,6.138l11.937-0.301l0.71-7.054c2.2,1.943,3.242,4.117,4.631,6.792l8.295,0.611
		c6.631,13.815,3.201,30.83-9.668,39.466c-6.063,4.068-13.108,6.023-20.247,6.182c0.329-3.625-0.446-6.343-2.886-7.302
		c-1.862-0.732-5.523,0.04-5.668,2.964c-0.068,1.375,0.32,2.96-0.536,4.162c-0.634,0.889-2.719,1.064-4.079,0.171
		C292.559,982.273,299.967,975.262,292.898,969.167z M328.614,951.352c0-1.781-1.444-3.225-3.225-3.225s-3.225,1.444-3.225,3.225
		c0,1.781,1.444,3.225,3.225,3.225S328.614,953.133,328.614,951.352z M330.965,963.46c2.606,0.619,4.434-0.483,5.307-1.766
		c1.092-1.606,0.708-3.355-0.215-4.302c-1.31-1.345-2.979-1.765-4.941-1.405c-2.058,0.377-3.514,1.857-3.73,3.668
		C327.196,961.255,328.646,962.91,330.965,963.46z M317.496,959.108c0.433-0.879,0.014-1.547-0.255-1.78
		c-1.746-1.516-2.542,4.094-7.744,4.102c-2.501,0.004-3.953-2.082-6.894-4.236c-0.928,4.613,3.187,6.127,6.085,6.432
		C312.4,964.016,315.591,962.969,317.496,959.108z"/>
	<path fill="#FAF6E3" d="M565.46,995.642c-6.14,0.25-0.994-7.399-7.862-7.545c-2.993-0.064-4.292,2.822-4.878,6.073
		c-8.243-0.692-17.092-4.755-22.323-11.552c-7.391-9.604-7.763-22.426-3.301-33.422l11.69-0.287c2.759-0.068,3.407-0.002,5.8,0.177
		l16.303,1.217c0.388-2.311-0.012-3.764,1.528-6.115c2.564,4.091,5.554,6.887,11.081,6.232c0.242,2.704,0.591,6.816-0.851,8.998
		c-3.467,5.248,1.542,9.292-2.439,19.879C562.89,988.368,571.859,995.381,565.46,995.642z M544.883,961.626
		c0-1.744-1.414-3.159-3.159-3.159s-3.158,1.414-3.158,3.159s1.414,3.159,3.158,3.159S544.883,963.37,544.883,961.626z
		 M533.598,973.838c3.579,0.557,5.681-1.7,5.456-4.289c-0.203-2.34-2.289-3.751-5.049-3.551c-2.281,0.165-3.939,1.669-4.211,3.551
		C529.52,971.449,530.915,973.42,533.598,973.838z M562.799,968.038c-1.96,3.183-4.178,4.15-7.059,3.748
		c-2.282-0.318-3.925-2.075-4.733-4.439c-1.359-0.188-2.224,0.648-1.962,1.54c1.073,3.657,4.342,5.319,7.604,5.513
		c3.059,0.182,6.443-1.552,7.952-4.749C565.142,968.506,563.829,967.383,562.799,968.038z"/>
	<path fill="#FAF6E3" d="M412.756,958.458c-0.305,4.704,3.52,6.112,6.754,6.406c3.543,0.321,6.277-0.729,8.436-4.264
		c1.712,9.673-0.926,17.543-1.029,25.522c-13.506-0.25-27.57-2.75-35.452-13.6c-6.903-9.502-6.642-21.968-2.617-32.582l7.8-0.539
		l5.287-6.629c0.867,2.446,0.515,4.428,0.632,6.829l12.007,0.931c0.885-1.76,0.842-3.476,2.482-5.279
		c1.395,1.857,1.381,3.622,2.081,5.464l9.225,0.554l0.184,15.762c0.009,0.8-5.444,5.757-9.086,5.45
		C417.148,962.286,416.53,960.215,412.756,958.458z M407.944,952.579c0-1.782-1.444-3.226-3.226-3.226
		c-1.782,0-3.226,1.444-3.226,3.226c0,1.782,1.444,3.226,3.226,3.226C406.5,955.805,407.944,954.361,407.944,952.579z
		 M399.368,956.969c-2.294-0.478-4.221,0.115-5.345,1.456c-0.76,0.906-1.124,2.832-0.281,4.335c0.674,1.201,2.379,1.921,4.261,1.995
		c2.573,0.1,4.591-1.155,4.815-3.337C403.005,959.583,402.173,957.553,399.368,956.969z"/>
	<path fill="#EFCE75" d="M713.237,994.285c-13.066-3.265-25.135-5.981-38.286-5.205c0.512-3.26,1.518-5.501,3.388-8.348
		c3.767,2.17,8.009,3.39,12.123,1.75c3.447-1.374,5.498-4.202,5.941-7.421c0.442-3.209-0.68-6.378-3.334-8.689
		c2.498-1.943,4.73-3.42,7.713-3.752c1.959,5.152,6.662,7.879,11.513,7.23c4.573-0.612,8.506-4.034,9.226-9.703
		c4.097,0.234,7.602,1.947,11.209,4.594c-1.088,5.15,1.508,10.95,7.233,11.227c1.641,0.08,3.527-0.103,4.471,0.946
		c0.673,0.749,1.814,2.46,1.429,3.981c-4.544,1.889-7.371,6.347-6.103,10.88c1.357,4.851,5.675,7.968,11.152,7.716
		c0.18,3.409-0.136,5.611-1.194,8.651C738.584,1001.233,726.489,997.597,713.237,994.285z M729.365,985.021
		c0-4.848-3.93-8.779-8.779-8.779s-8.779,3.93-8.779,8.779c0,4.848,3.93,8.779,8.779,8.779S729.365,989.87,729.365,985.021z"/>
	<path fill="#FAF6E3" d="M431.74,1050.593l-13.178-1.215c-0.109,2.928,2.484,2.933,4.112,3.171c1.243,2.94,0.139,7.105-1.241,9.957
		l-17.438,0.158l-9.532-24.363c22.502,2.939,43.51,3.323,66.151,0.655l-4.965,23.588l-18.75,0.608L431.74,1050.593z"/>
	<path fill="#FAF6E3" d="M570.57,1056.802c-2.957-2.126-9.139-1.277-12.545-2.012c-1.073,1.982,1.763,3.157,3.581,2.756
		c1.74,2.814,0.4,7.148-0.685,10.091l-16.897,0.273c-4.06-7.622-7.323-15.321-9.427-24.074c22.315,2.825,43.406,3.091,65.685,0.234
		l-5.041,23.306l-19.081,0.539L570.57,1056.802z"/>
	<path fill="#FAF6E3" d="M304.867,1048.187c1.832-0.429,3.71-0.323,4.569-2.911l-13.243,0.687l-4.793,11.801
		c-6.415,0.554-12.782,0.452-19.52-0.473l-5.191-23.686c22.226,2.919,43.352,2.961,65.73,0.283l-8.737,23.788l-17.512,0.12
		L304.867,1048.187z"/>
	<path fill="#FAF6E3" d="M463.76,974.246c-7.499,7.716-17.187,10.916-27.299,11.499c1.034-3.806-1.131-6.29-1.092-8.823
		l0.543-35.188l33.297,3.013C472.105,954.814,470.634,965.761,463.76,974.246z M442.971,954.435c0-1.753-1.421-3.175-3.175-3.175
		c-1.753,0-3.175,1.421-3.175,3.175c0,1.753,1.421,3.175,3.175,3.175C441.55,957.609,442.971,956.188,442.971,954.435z
		 M448.734,961.738c-0.58-2.347-2.866-2.884-4.26-2.937c-1.673-0.063-3.807,0.236-4.501,2.302c-1.158,3.445,1.325,5.814,4.471,5.768
		C446.784,966.836,449.663,965.494,448.734,961.738z"/>
	<path fill="#FAF6E3" d="M607.576,954.296c3.915,13.709-0.698,29.196-13.467,34.807c-5.041-3.43-9.207-7-14.969-9.367l2.11-28.425
		L607.576,954.296z"/>
	<path fill="#EB7D67" d="M323.012,935.014c-0.323,2.096-7.052,2.197-8.081,0.226c-1.446-2.771-1.422-6.185-5.02-6.869l-2.369,8.303
		l-18.196,1.324l-2.445-22.283c19.877-4.847,41.872,1.631,50.995,19.934c-8.094,2.669-6.042-5.227-13.032-8.328
		C322.837,929.129,323.55,931.519,323.012,935.014z"/>
	<path fill="#FAF6E3" d="M713.442,1033.147c-6.09,4.757-16.607,1.128-18.288-6.172c-1.391-6.041,1.643-11.589,4.004-16.697
		l7.002-15.152l15.084,3.866l-1.742,20.476C719.091,1024.296,717.893,1029.671,713.442,1033.147z"/>
	<path fill="#FAF6E3" d="M283.926,968.214c-5.552,2.716-9.555,5.678-14.148,9.418c-11.133-6.363-14.785-20.821-11.718-33.721
		l23.975-2.732l1.492,17.564L283.926,968.214z"/>
	<path fill="#93C5A1" d="M558.775,947.846l-13.686-1.105c-0.51-1.733,0.346-5.24-2.208-6.303c-1.737,1.75-1.791,3.861-2.531,5.966
		l-11.804-0.049c10.658-17.044,28.367-22.49,47.539-19.451l-2.276,20.924c-7.095,2.353-7.877-5.528-14.042-7.686L558.775,947.846z"
		/>
	<path fill="#EFCE75" d="M468.431,941.538l-32.356-2.245l0.629-23.081C450.834,918.509,462.946,926.524,468.431,941.538z"/>
	<path fill="#EFCE75" d="M413.259,936.858c-1.259,2.07-6.8,1.583-7.941-0.113c-0.668-1.61,0.664-6.537-1.801-7.265
		c-4.56-1.347-6.419,11.432-12.862,6.981c8.475-14.481,22.407-20.759,38.413-20.701l-0.468,22.725
		c-2.366,0.39-5.426,0.863-7.379-0.711c-1.413-1.138-1.57-5.946-3.214-6.613C415.007,930.265,414.534,934.762,413.259,936.858z"/>
	<path fill="#93C5A1" d="M606.56,950.736l-24.948-1.898l1.702-20.333C593.827,931.614,602.483,939.181,606.56,950.736z"/>
	<path fill="#EB7D67" d="M281.647,938.332l-22.84,2.754c2.845-10.662,10.093-18.634,20.462-23.091L281.647,938.332z"/>
	
		<rect x="283.336" y="899.758" transform="matrix(0.9945 -0.1052 0.1052 0.9945 -96.4971 35.1378)" fill="#FAF6E3" width="2.973" height="65.015"/>
	
		<rect x="545.81" y="942.599" transform="matrix(0.0956 -0.9954 0.9954 0.0956 -416.8532 1429.3138)" fill="#FAF6E3" width="64.65" height="2.911"/>
	
		<rect x="396.467" y="940.492" transform="matrix(0.0021 -1 1 0.0021 -510.4581 1372.4446)" fill="#FAF6E3" width="72.002" height="3.017"/>
	<path fill="#EFCE75" d="M384.403,946.59c-8.285-0.848-11.313-13.346-11.451-12.999c0.061-0.153,11.222-5.974,17.438-2.246
		C387.821,936.194,385.173,940.624,384.403,946.59z"/>
	<path fill="#EB7D67" d="M349.166,935.193c-1.139,2.79-3.893,4.498-6.856,4.667c-1.632-5.339-4.4-9.341-7.552-13.618
		c5.995-3.987,11.651-0.182,18.53-1.148L349.166,935.193z"/>
	<path fill="#FAF6E3" d="M591.434,1077.873c-5.337,3.043-11.557,2.929-17.253,1.677l4.446-9.059l15.084-0.345
		C593.883,1072.518,593.949,1076.439,591.434,1077.873z"/>
	<path fill="#FAF6E3" d="M292.818,1068.956c-6.223,1.89-12.353,1.396-17.477-1.409c-2.187-1.197-2.304-5.084-2.139-7.545
		l15.432,1.087L292.818,1068.956z"/>
	<path fill="#EFCE75" d="M466.374,995.157c-0.423-0.827-0.285-0.684,0.387-1.854c0.291,1.142,0.733,1.524,0.793,1.586l9.605,19.923
		c2.087,4.329-0.167,9.382-5.6,10.659l-5.068-29.72C466.499,995.521,466.44,995.285,466.374,995.157z"/>
	<path fill="#FAF6E3" d="M555.738,1078.838c-4.814,0.853-9.456,1.501-14.552,0.523c0.269-3.642,3.131-5.386,4.611-8.827
		c4.142,0.019,9.748-1.616,13.807,0.322C561.904,1072.599,559.04,1078.253,555.738,1078.838z"/>
	<path fill="#B4CC89" d="M451.712,1073.066c-5.611,2.539-11.975,2.931-17.035,0.407c1.852-2.951,3.665-4.654,4.494-7.747
		l14.874-0.441C454.512,1067.423,454.491,1071.808,451.712,1073.066z"/>
	<path fill="#B4CC89" d="M418.806,1072.276c-5.439,3.012-11.843,2.912-17.706,1.099c2.234-2.93,3.743-5.443,4.536-7.874
		l15.069-0.389C421.171,1067.164,421.102,1071.005,418.806,1072.276z"/>
	<path fill="#93C5A1" d="M704.068,994.419l-3.353,7.461c-8.459-2.392-16.348-5.101-24.288-9.967
		C686.395,990.218,695.122,992.985,704.068,994.419z"/>
	<path fill="#FAF6E3" d="M326.296,1068.867c-5.909,1.57-11.826,1.34-17.042-1.196c-2.185-1.062-2.655-4.236-2.307-7.214l14.24,0.032
		L326.296,1068.867z"/>
	<path fill="#93C5A1" d="M523.468,1028.129c-5.303,0.092-6.971-4.362-6.057-8.622c2.764-7.234,5.631-14.076,10.747-20.24
		L523.468,1028.129z"/>
	<path fill="#FAF6E3" d="M349.002,1010.641c0.585,2.676-0.009,4.53-0.828,5.977c-0.669,1.181-3.946,2.578-4.927,1.398l-4.757-27.766
		C343.739,996.573,346.011,1003.346,349.002,1010.641z"/>
	<path fill="#93C5A1" d="M747.269,1009.665c-8.661,0.324-16.402-0.592-24.234-2.382c-0.087-3.002-0.055-4.926,0.989-7.77
		C732.372,1002.215,740.151,1004.575,747.269,1009.665z"/>
	<path fill="#EB7D67" d="M570.155,995.275c0.843-0.521,2.371,0.854,2.623,1.585c0.321,0.928,0.342,2.338-0.486,3.426
		c-2.882,3.785-7.499,4.489-11.69,2.689c-3.686-1.584-6.11-5.748-5.007-10.348c0.325-1.355,1.04-2.17,2.097-2.265
		c3.841-0.344,0.509,8.143,5.782,8.929C566.17,999.691,568.994,998.976,570.155,995.275z"/>
	<path fill="#EB7D67" d="M687.203,980.685c-2.141,0.245-6.031-0.638-6.524-2.771c2.026-3.867,6.307-7.959,10.281-9.538
		c2.594,0.411,3.487,4.71,2.902,6.899C693.159,977.907,691.313,980.215,687.203,980.685z"/>
	<path fill="#EB7D67" d="M718.738,959.303c0.54,4.031-2.562,6.866-5.459,7.843c-3.678,1.241-9.349-1.267-9.542-5.252
		C707.122,958.551,714.089,958.657,718.738,959.303z"/>
	<path fill="#EB7D67" d="M291.483,990.138c-1.273-1.146-2.051-2.541-1.916-3.603c0.155-1.227,1.597-2.624,3.201-2.621
		c0.885,3.322,3.239,4.483,5.746,4.375c6.546-0.283,2.143-9.836,7.312-8.803c2.328,3.686,0.581,8.352-2.23,10.783
		C300.139,993.259,295.064,993.364,291.483,990.138z"/>
	<path fill="#EB7D67" d="M747.651,983.486c2.169,4.477,2.992,8.635,2.991,12.975c-4.012,0.941-7.189-1.512-8.132-4.521
		C741.342,988.212,742.698,984.551,747.651,983.486z"/>
	<path fill="#EFCE75" d="M427.777,993.454c2.421-3.125,1.66-7.719,1.467-12.245c1.536-0.446,2.886-0.57,5.088-0.133
		c-0.108,8.327-1.171,17.115-4.695,16.052c-1.409-0.425-2.552-1.73-2.102-3.368l-1.225-1.107c-0.807,0.437-2.29,0.498-3.06-0.163
		c-0.715-0.614-1.358-2.371-0.678-3.563c0.573-1.005,2.454-0.463,3.389-0.177c1.286,0.393,1.719,2.342,0.674,3.569L427.777,993.454z
		"/>
	<path fill="#EFCE75" d="M419.775,987.952l1.174,6.471c-2.802,0.781-4.681-0.456-4.965-2.027
		C415.453,989.453,416.894,987.047,419.775,987.952z"/>
	<path fill="#FAF6E3" d="M431.986,1058.017c-3.022-0.533-4.26-1.105-6.002-2.19c-0.591-0.368-0.399-1.984-0.069-2.329
		c0.492-0.512,1.798-0.989,3.202-0.476C430.992,1053.708,431.893,1055.918,431.986,1058.017z"/>
	<path fill="#EB7D67" d="M740.984,973.157c-3.363,0.077-6.132-2.507-5.996-6.405C737.706,967.988,739.457,969.352,740.984,973.157z"
		/>
	<path fill="#93C5A1" d="M601.677,995.859l-5.185-4.84c1.184-1.214,2.086-1.725,3.403-2.242
		C600.868,991.177,601.84,992.55,601.677,995.859z"/>
	<path fill="#FAF6E3" d="M531.928,987.896c-9.286,15.532-27.388,39.68-9.011,42.381l-0.237,8.932
		c-22.176,6.764-43.443,14.746-64.774,24.989l5.126-25.325l8.424-2.498c0.914-2.714,0.45-5.392,0.536-8.544
		c6.305-1.571,9.533-7.326,7.358-13.482c-3.652-10.334-9.095-19.484-14.918-28.844c-0.846-1.36-2.599-4.883-1.94-6.445
		c7.788-7.265,10.872-16.509,10.303-27.2c-1.055-19.816-15.9-35.282-35.778-37.912c-0.856-3.122-0.7-5.847-0.027-8.822
		c9.187,0.767,20.549,2.48,26.326,9.291c2.381-2.951,4.886-4.629,8.31-5.987c14.449-4.797,30.005-4.182,44.185,1.606
		c0.468,1.409,2.999,3.103,3.947,1.564c0.827-1.343-0.538-4.561,0.182-7.198c19.734,0.326,29.658,12.733,28.606,12.442
		c1.058,0.292,1.982-1.272,2.7-1.615c8.143-3.895,16.791-4.212,25.954-3.684l-1.087,12.717c-12.273-1.553-24.452-0.248-34.876,5.917
		C520.787,942.274,514.423,970.188,531.928,987.896z"/>
	
		<rect x="528.142" y="998.145" transform="matrix(0.7071 -0.7071 0.7071 0.7071 -551.2495 666.1461)" fill="#93C5A1" width="0.707" height="0.707"/>
	<path fill="#EB7D67" d="M663.411,922.144c-15.5-7.683-33.49-9.854-50.85-3.343c0.386-24.024-3.165-48.13-16.759-67.154
		c34.953,7.83,64.462,34.474,68.948,69.439l-0.152,0.779c0.962,0.601-0.079,1.747-0.755,0.777
		C663.767,922.499,663.593,922.301,663.411,922.144z"/>
	<path fill="#EFCE75" d="M399.834,907.993c-15.969-8.781-34.286-8.814-51.946-2.95c9.933-35.023,41.208-57.713,77.345-61.179
		c-5.176,5.39-9.108,10.62-12.344,17.077C405.248,875.214,401.625,890.448,399.834,907.993z"/>
	<path fill="#EFCE75" d="M157.154,109.683c0,22.489-18.23,40.72-40.719,40.72s-40.719-18.231-40.719-40.72s18.23-40.72,40.719-40.72
		S157.154,87.194,157.154,109.683z M139.818,101.283c0-1.899-1.539-3.438-3.438-3.438s-3.438,1.539-3.438,3.438
		c0,1.899,1.539,3.438,3.438,3.438S139.818,103.182,139.818,101.283z M98.592,109.284c0-1.9-1.54-3.44-3.439-3.44
		s-3.439,1.54-3.439,3.44c0,1.9,1.54,3.44,3.439,3.44S98.592,111.184,98.592,109.284z M147.498,111.018
		c0-2.953-2.394-5.347-5.347-5.347s-5.347,2.394-5.347,5.347s2.394,5.347,5.347,5.347S147.498,113.971,147.498,111.018z
		 M120.423,119.837c4.245-1.685,9.059-6.078,6.436-11.947c-2.317,4.648-3.366,8.296-7.138,9.605
		c-8.745,3.034-11.516-7.756-12.925-4.889C105.467,115.309,112.805,122.861,120.423,119.837z M98.486,120.381
		c0-2.919-2.366-5.285-5.285-5.285s-5.285,2.366-5.285,5.285c0,2.919,2.366,5.285,5.285,5.285S98.486,123.299,98.486,120.381z"/>
	<path fill="#EFCE75" d="M283.213,779.576c0,8.262-6.698,14.96-14.959,14.96s-14.959-6.698-14.959-14.96s6.698-14.96,14.959-14.96
		S283.213,771.314,283.213,779.576z M280.814,779.615c0-6.989-5.666-12.655-12.655-12.655c-6.989,0-12.655,5.666-12.655,12.655
		c0,6.989,5.666,12.655,12.655,12.655C275.149,792.27,280.814,786.604,280.814,779.615z"/>
	<path fill="#EFCE75" d="M562.47,829.111c0,8.203-6.649,14.852-14.852,14.852s-14.852-6.65-14.852-14.852
		s6.649-14.852,14.852-14.852S562.47,820.908,562.47,829.111z M560.21,829.192c0-6.947-5.631-12.578-12.578-12.578
		s-12.578,5.632-12.578,12.578s5.631,12.578,12.578,12.578S560.21,836.139,560.21,829.192z"/>
	<path fill="#EFCE75" d="M248.007,818.223c0,8.266-6.701,14.967-14.967,14.967c-8.266,0-14.967-6.701-14.967-14.967
		c0-8.266,6.701-14.967,14.967-14.967C241.306,803.256,248.007,809.957,248.007,818.223z M245.623,818.221
		c0-6.933-5.62-12.553-12.552-12.553c-6.932,0-12.552,5.62-12.552,12.553s5.62,12.552,12.552,12.552
		C240.003,830.773,245.623,825.153,245.623,818.221z"/>
	<path fill="#EFCE75" d="M641.347,832.166c0,8.291-6.721,15.012-15.012,15.012c-8.291,0-15.012-6.721-15.012-15.012
		s6.721-15.012,15.012-15.012C634.626,817.154,641.347,823.875,641.347,832.166z M638.871,832.244
		c0-6.933-5.62-12.554-12.553-12.554s-12.553,5.62-12.553,12.554s5.62,12.554,12.553,12.554S638.871,839.177,638.871,832.244z"/>
	<path fill="#EFCE75" d="M605.501,792.788c0,8.313-6.739,15.051-15.051,15.051c-8.312,0-15.051-6.739-15.051-15.051
		s6.739-15.051,15.051-15.051C598.762,777.736,605.501,784.475,605.501,792.788z M603.125,792.824
		c0-7.032-5.701-12.733-12.733-12.733c-7.032,0-12.733,5.701-12.733,12.733c0,7.032,5.701,12.733,12.733,12.733
		C597.424,805.557,603.125,799.856,603.125,792.824z"/>
	<path fill="#EFCE75" d="M326.317,816.347c0,8.222-6.665,14.887-14.887,14.887c-8.222,0-14.887-6.665-14.887-14.887
		s6.665-14.887,14.887-14.887C319.652,801.459,326.317,808.125,326.317,816.347z M323.941,816.415
		c0-6.95-5.634-12.583-12.583-12.583c-6.95,0-12.583,5.634-12.583,12.583c0,6.95,5.634,12.583,12.583,12.583
		C318.307,828.998,323.941,823.365,323.941,816.415z"/>
	<path fill="#EFCE75" d="M563.226,758.949c0,8.308-6.735,15.043-15.042,15.043s-15.042-6.735-15.042-15.043
		s6.735-15.043,15.042-15.043S563.226,750.641,563.226,758.949z M560.747,758.921c0-6.987-5.664-12.651-12.651-12.651
		s-12.651,5.664-12.651,12.651c0,6.987,5.664,12.651,12.651,12.651S560.747,765.908,560.747,758.921z"/>
	<path fill="#EFCE75" d="M326.184,746.015c0,8.341-6.762,15.103-15.103,15.103c-8.341,0-15.103-6.762-15.103-15.103
		c0-8.341,6.762-15.103,15.103-15.103C319.423,730.912,326.184,737.674,326.184,746.015z M323.733,746.028
		c0-6.988-5.665-12.653-12.653-12.653c-6.988,0-12.653,5.665-12.653,12.653s5.665,12.653,12.653,12.653
		C318.068,758.681,323.733,753.016,323.733,746.028z"/>
	<path fill="#EB7D67" d="M60.794,116.39l-20.683,0.64c-1.548,0.048-2.622-1.538-2.588-2.523c0.036-1.034,1.004-2.417,2.578-2.46
		l20.479-0.562c1.484-0.041,2.46,1.205,2.614,2.034C63.359,114.408,62.534,116.336,60.794,116.39z"/>
	<path fill="#EB7D67" d="M67.113,166.577c-1.19,1.323-2.347,1.659-3.513,1.324c-5.553-1.594,5.246-10.724,11.975-18.29
		c1.357-1.526,2.32-1.906,3.618-1.191c1.651,0.91,1.785,2.738,0.481,4.188L67.113,166.577z"/>
	<path fill="#EB7D67" d="M71.768,75.238L57.701,61.306c-1.094-1.084-1.187-2.516-0.388-3.549c0.855-1.105,2.487-1.375,3.942,0.025
		l13.735,13.22c1.292,1.243,1.833,2.825,0.647,4.143C74.878,75.989,73.099,76.556,71.768,75.238z"/>
	<path fill="#EB7D67" d="M175.225,160.367c1.295,1.264,0.071,2.543-0.56,3.02c-0.981,0.743-2.708,1.072-3.905-0.102l-13.654-13.392
		c-1.074-1.053-1.073-2.422-0.623-3.129c0.881-1.382,2.805-1.951,4.206-0.583L175.225,160.367z"/>
	<path fill="#EB7D67" d="M117.35,53.537c0.065,2.239-1.512,3.752-2.834,3.768c-1.362,0.017-2.531-1.502-2.57-3.305l-0.415-19.005
		c-0.038-1.728,1.49-3.103,2.826-2.833c0.996,0.201,2.41,1.345,2.458,2.998L117.35,53.537z"/>
	<path fill="#EB7D67" d="M159.152,71.611c-1.394,1.513-3.134,1.865-4.206,0.984c-1.426-1.173-1.308-2.949,0.154-4.504l13.578-14.435
		c0.936-0.995,2.501-0.726,3.299-0.143c0.854,0.624,1.464,2.592,0.33,3.823L159.152,71.611z"/>
	<path fill="#EB7D67" d="M195.983,107.47c1.976,4.601-11.927,3.381-22.881,3.475c-1.571,0.013-2.534-1.386-2.443-2.437
		c0.076-0.876,0.976-2.37,2.477-2.407l19.9-0.497C194.492,105.568,195.66,106.72,195.983,107.47z"/>
	<path fill="#EB7D67" d="M122.096,184.5c0.108,2.267-1.282,3.679-2.592,3.698c-1.385,0.021-2.56-1.417-2.608-3.2l-0.535-19.65
		c-0.042-1.553,1.254-2.325,2.159-2.413c0.905-0.088,2.586,0.706,2.656,2.176L122.096,184.5z"/>
	<circle fill="#EFCE75" cx="711.42" cy="1086.663" r="9.552"/>
	<path fill="#EB7D67" d="M704.545,1095.832c-1.941,3.56-3.758,5.946-6.714,8.018c-3.688,2.585-8.563,1.63-11.066-2.01
		c-2.151-3.128-2.456-7.816,1.417-10.812c2.682-2.075,7.815-4.066,11.114-2.101C700.73,1090.373,700.425,1094.548,704.545,1095.832z
		"/>
	<path fill="#EB7D67" d="M729.283,1105.094c-4.532-0.416-9.431-4.615-9.867-8.682c1.414-1.965,3.463-5.357,4.24-7.701
		c4.033-1.712,9.974,0.552,12.607,3.858c2.019,2.536,1.95,5.44,0.704,7.863C735.803,1102.695,733.551,1105.486,729.283,1105.094z"/>
	<path fill="#EB7D67" d="M723.366,1085.599c0.33-3.239-2.791-5.399-3.4-7.965c-0.586-3.734,4.802-7.526,8.016-8.463
		c4.07-1.187,7.176,0.859,8.876,3.496c1.843,2.859,2.03,6.883-0.787,9.408C732.594,1085.192,728.199,1085.715,723.366,1085.599z"/>
	<path fill="#EB7D67" d="M716.641,1075.38c-2.596-0.382-6.455-0.784-9.817-0.327c-2.254-0.172-2.844-4.979-3.026-6.895
		c-0.47-4.945,1.751-8.4,6.311-9.538c3.215-0.803,7.935,0.734,9.188,5.08C720.286,1067.132,719.606,1072.438,716.641,1075.38z"/>
	<path fill="#EB7D67" d="M699.142,1084.323c-1.816,3.151-9.06,0.128-11.312-1.885c-3.59-3.209-3.129-7.279-1.078-10.27
		c2.363-3.446,6.529-4.494,10.439-2.273c2.347,1.333,6.468,3.927,6.309,6.864L699.142,1084.323z"/>
	<path fill="#EB7D67" d="M719.389,1108.186c-1.005,3.977-3.789,5.882-6.959,6.132c-3.243,0.256-6.874-1.062-8.134-4.739
		c-1.131-3.304-0.645-8.882,2.115-11.448l9.679,0.068C719.144,1099.284,720.121,1105.291,719.389,1108.186z"/>
	<path fill="#B4CC89" d="M734.08,1120.759c-1.519,10.209-11.024,16.043-21.712,16.129
		C714.351,1127.558,722.421,1119.776,734.08,1120.759z"/>
	<path fill="#B4CC89" d="M709.151,1136.814c-10.206-0.415-19.581-5.69-21.571-16.189
		C698.267,1119.202,707.119,1126.737,709.151,1136.814z"/>
	<path fill="#EB7D67" d="M330.965,963.46c-2.319-0.551-3.77-2.205-3.579-3.805c0.216-1.811,1.672-3.291,3.73-3.668
		c1.962-0.359,3.631,0.06,4.941,1.405c0.922,0.947,1.307,2.696,0.215,4.302C335.4,962.977,333.572,964.079,330.965,963.46z"/>
	<path fill="#32302C" d="M317.496,959.108c-1.905,3.861-5.096,4.908-8.807,4.518c-2.899-0.305-7.013-1.819-6.085-6.432
		c2.941,2.154,4.393,4.24,6.894,4.236c5.201-0.008,5.997-5.618,7.744-4.102C317.51,957.561,317.929,958.229,317.496,959.108z"/>
	<circle fill="#32302C" cx="325.388" cy="951.352" r="3.225"/>
	<path fill="#EB7D67" d="M533.598,973.838c-2.683-0.418-4.079-2.389-3.804-4.289c0.272-1.883,1.93-3.387,4.211-3.551
		c2.76-0.199,4.846,1.211,5.049,3.551C539.279,972.138,537.177,974.395,533.598,973.838z"/>
	<path fill="#32302C" d="M562.799,968.038c1.03-0.655,2.343,0.467,1.802,1.614c-1.509,3.197-4.893,4.931-7.952,4.749
		c-3.262-0.194-6.531-1.855-7.604-5.513c-0.262-0.892,0.603-1.728,1.962-1.54c0.808,2.364,2.45,4.121,4.733,4.439
		C558.621,972.188,560.838,971.221,562.799,968.038z"/>
	<circle fill="#32302C" cx="541.724" cy="961.626" r="3.158"/>
	<path fill="#EB7D67" d="M399.368,956.969c2.806,0.585,3.638,2.614,3.45,4.449c-0.224,2.182-2.242,3.437-4.815,3.337
		c-1.882-0.073-3.587-0.793-4.261-1.995c-0.843-1.504-0.479-3.429,0.281-4.335C395.146,957.084,397.074,956.491,399.368,956.969z"/>
	<circle fill="#32302C" cx="404.718" cy="952.579" r="3.226"/>
	<path fill="#32302C" d="M729.365,985.021c0,4.848-3.93,8.779-8.779,8.779s-8.779-3.93-8.779-8.779c0-4.848,3.93-8.779,8.779-8.779
		S729.365,980.173,729.365,985.021z M726.784,984.959c0-3.423-2.775-6.198-6.198-6.198c-3.423,0-6.198,2.775-6.198,6.198
		s2.775,6.198,6.198,6.198C724.009,991.158,726.784,988.383,726.784,984.959z"/>
	<path fill="#EB7D67" d="M448.734,961.738c0.929,3.756-1.95,5.098-4.29,5.133c-3.146,0.047-5.629-2.323-4.471-5.768
		c0.694-2.066,2.828-2.365,4.501-2.302C445.869,958.853,448.154,959.391,448.734,961.738z"/>
	<circle fill="#32302C" cx="439.797" cy="954.435" r="3.175"/>
	<circle fill="#EB7D67" cx="142.151" cy="111.018" r="5.347"/>
	<circle fill="#EB7D67" cx="93.201" cy="120.381" r="5.285"/>
	<path fill="#32302C" d="M120.423,119.837c-7.618,3.024-14.956-4.527-13.627-7.232c1.409-2.867,4.18,7.922,12.925,4.889
		c3.771-1.308,4.82-4.957,7.138-9.605C129.482,113.759,124.668,118.152,120.423,119.837z"/>
	<circle fill="#32302C" cx="136.38" cy="101.283" r="3.438"/>
	<circle fill="#32302C" cx="95.152" cy="109.284" r="3.44"/>
	<path fill="#32302C" d="M280.814,779.615c0,6.989-5.666,12.655-12.655,12.655c-6.989,0-12.655-5.666-12.655-12.655
		c0-6.989,5.666-12.655,12.655-12.655C275.149,766.959,280.814,772.625,280.814,779.615z M268.451,770.731
		c0.56,0.058,3.105,1.956,3.653,2.812c1.573,2.455-4.27-0.103-5.23,2.045c-1.24,2.776,5.443,2.371,6.247,6.001
		c0.448,2.022-0.76,3.722-2.404,5.166l-1.326,1.165c-0.424,0.373-0.546,1.682,0.672,1.531c5.936-0.731,9.306-6.486,7.843-12.52
		c-1.072-4.419-6.021-8.628-11.593-7.368c-4.979,1.126-8.972,5.786-8.211,11.729c0.572,4.463,5.069,8.902,10.247,8.308l-4.453-4.843
		c1.329-1.924,3.541,1.177,5.761-0.693c3.542-2.985-5.2-3.016-5.971-6.634C263.037,774.391,267.559,770.639,268.451,770.731z"/>
	<path fill="#32302C" d="M560.21,829.192c0,6.947-5.631,12.578-12.578,12.578s-12.578-5.632-12.578-12.578
		s5.631-12.578,12.578-12.578S560.21,822.245,560.21,829.192z M546.752,837.7c-0.908-0.232-2.953-1.995-3.348-3.168
		c-0.185-0.552,0.435-1.288,1.191-1.105l1.719,0.414c1.294,0.312,2.186,0.049,2.688-0.403c2.769-2.494-5.014-3.279-5.739-6.172
		c-0.989-3.944,4.817-5.14,3.519-8.15c-5.609,0.503-9.99,5.586-9.272,11.36c0.618,4.97,4.801,9.049,10.826,8.783
		c4.801-0.212,9.575-4.45,9.388-10.556c-0.138-4.501-4.125-9.408-9.536-9.747c-0.69,3.203,3.72,2.933,3.335,5.414
		c-0.136,0.881-1.552,0.98-2.432,0.477c-1.687-0.964-2.855,0.537-2.561,1.585c0.38,1.352,5.595,2.258,6.006,5.21
		C552.887,834.162,548.678,838.192,546.752,837.7z"/>
	<path fill="#32302C" d="M245.623,818.221c0,6.933-5.62,12.552-12.552,12.552c-6.932,0-12.552-5.62-12.552-12.552
		s5.62-12.553,12.552-12.553C240.003,805.668,245.623,811.288,245.623,818.221z M232.717,826.759l-2.507-1.961
		c-0.912-0.713-1.669-0.807-1.88-1.484c-0.884-2.832,3.28-0.025,5.891-0.65c5.2-1.244-6.257-4.168-5.769-8.435l4.659-6.193
		c-3.87,0.385-7.427,2.522-9.221,5.901c-2.966,5.587,0.59,11.958,5.92,13.784c5.768,1.976,11.881-1.486,13.158-7.304
		c1.259-5.735-2.621-11.576-8.9-12.5c-0.553,2.845,3.011,2.703,3.498,4.561c0.71,2.706-4.034-0.473-5.669,1.04
		c-2.822,2.612,5.034,3.273,5.91,6.221C238.875,823.328,233.48,827.355,232.717,826.759z"/>
	<path fill="#32302C" d="M638.871,832.244c0,6.933-5.62,12.554-12.553,12.554s-12.553-5.62-12.553-12.554s5.62-12.554,12.553-12.554
		S638.871,825.311,638.871,832.244z M623.848,838.767c-1.091-0.769-1.675-0.96-1.848-1.336c-1.224-2.664,4.253,0.088,5.993-0.865
		c0.682-0.373,1.199-1.722,0.397-2.527c-1.239-1.245-8.566-2.631-6.187-6.634c1.238-2.083,3.231-3.337,5.986-5.121
		c-5.311-1.24-10.636,2.606-11.887,7.708c-1.384,5.647,2.925,10.735,7.586,11.908c6.088,1.532,11.286-2.578,12.303-7.557
		c1.18-5.776-2.198-11.016-8.089-11.871c-0.244,2.253,1.925,2.781,2.536,3.683c0.593,0.876-0.634,1.679-1.284,1.523l-1.703-0.408
		c-1.109-0.266-1.842,0.1-2.304,0.53c-0.776,0.724-0.407,1.641,0.31,2.006l1.688,0.858c1.702,0.865,3.595,1.653,4.102,3.276
		c0.924,2.956-4.154,7.258-4.735,6.848L623.848,838.767z"/>
	<path fill="#32302C" d="M603.125,792.824c0,7.032-5.701,12.733-12.733,12.733c-7.032,0-12.733-5.701-12.733-12.733
		c0-7.032,5.701-12.733,12.733-12.733C597.424,780.091,603.125,785.792,603.125,792.824z M600.68,792.837
		c0-5.696-4.617-10.313-10.312-10.313c-5.695,0-10.312,4.617-10.312,10.313c0,5.695,4.617,10.313,10.312,10.313
		C596.063,803.149,600.68,798.532,600.68,792.837z"/>
	<path fill="#32302C" d="M323.941,816.415c0,6.95-5.634,12.583-12.583,12.583c-6.95,0-12.583-5.634-12.583-12.583
		c0-6.95,5.634-12.583,12.583-12.583C318.307,803.831,323.941,809.465,323.941,816.415z M310.802,824.888l-2.173-1.462
		c-0.87-0.585-1.406-0.706-1.763-1.042c-0.669-0.629-0.417-1.718,0.623-1.774c1.909-0.103,4.513,2.377,5.559-0.183
		c1.388-3.397-7.566-3.315-6.491-8.302l4.722-5.798c-5.787-0.333-10.073,5.121-9.994,10.375c0.086,5.693,4.641,9.808,9.502,9.977
		c6.244,0.218,10.777-4.602,10.692-10.187c-0.082-5.398-4.223-10.281-9.671-10.193c0.876,2.951,6.093,5.21,3.552,5.67
		c-1.577,0.286-3.823-0.802-5.665-0.073c-0.548,0.217-0.484,1.421-0.114,1.975c0.802,1.198,6.062,1.577,6.618,4.677
		C316.871,822.299,311.716,825.503,310.802,824.888z"/>
	<path fill="#32302C" d="M560.747,758.921c0,6.987-5.664,12.651-12.651,12.651s-12.651-5.664-12.651-12.651
		c0-6.987,5.664-12.651,12.651-12.651S560.747,751.934,560.747,758.921z M547.678,767.093l-1.714-1.139
		c-0.913-0.607-2.019-0.955-2.248-1.591c-1.006-2.799,4.694-0.22,6.289-1.838c2.194-2.225-9.072-3.509-5.795-8.231
		c1.159-1.67,3.523-2.729,3.631-5.457c-6.158-0.029-10.316,4.884-10.051,10.649c0.248,5.4,4.412,9.611,9.721,9.722
		c5.78,0.122,10.6-3.98,10.892-9.728c0.269-5.296-3.442-10.41-9.821-10.773l3.991,5.636c-3.094-0.363-4.845-0.479-6.245,1.574
		l4.972,2.715c1.543,0.843,2.158,2.317,1.884,3.794C552.86,764.175,548.329,767.525,547.678,767.093z"/>
	<path fill="#32302C" d="M323.733,746.028c0,6.988-5.665,12.653-12.653,12.653c-6.988,0-12.653-5.665-12.653-12.653
		s5.665-12.653,12.653-12.653C318.068,733.375,323.733,739.04,323.733,746.028z M321.318,746.079
		c0-5.632-4.565-10.197-10.197-10.197c-5.632,0-10.197,4.565-10.197,10.197s4.565,10.197,10.197,10.197
		C316.752,756.276,321.318,751.711,321.318,746.079z"/>
	<circle fill="#EB7D67" cx="720.586" cy="984.959" r="6.198"/>
	<path fill="#EFCE75" d="M268.451,770.731c-0.892-0.093-5.414,3.66-4.766,6.7c0.771,3.618,9.513,3.649,5.971,6.634
		c-2.219,1.87-4.432-1.231-5.761,0.693l4.453,4.843c-5.178,0.594-9.675-3.845-10.247-8.308c-0.761-5.943,3.232-10.603,8.211-11.729
		c5.572-1.26,10.522,2.949,11.593,7.368c1.463,6.033-1.907,11.788-7.843,12.52c-1.218,0.15-1.096-1.159-0.672-1.531l1.326-1.165
		c1.644-1.444,2.852-3.144,2.404-5.166c-0.804-3.63-7.488-3.225-6.247-6.001c0.96-2.149,6.803,0.41,5.23-2.045
		C271.555,772.687,269.011,770.789,268.451,770.731z"/>
	<path fill="#EFCE75" d="M546.752,837.7c1.926,0.492,6.135-3.538,5.784-6.058c-0.411-2.952-5.626-3.858-6.006-5.21
		c-0.295-1.047,0.874-2.548,2.561-1.585c0.88,0.503,2.296,0.404,2.432-0.477c0.384-2.481-4.026-2.211-3.335-5.414
		c5.411,0.338,9.398,5.245,9.536,9.747c0.187,6.106-4.587,10.344-9.388,10.556c-6.025,0.266-10.208-3.812-10.826-8.783
		c-0.718-5.773,3.663-10.857,9.272-11.36c1.298,3.01-4.508,4.206-3.519,8.15c0.726,2.893,8.508,3.678,5.739,6.172
		c-0.502,0.452-1.394,0.715-2.688,0.403l-1.719-0.414c-0.756-0.182-1.377,0.554-1.191,1.105
		C543.799,835.705,545.844,837.468,546.752,837.7z"/>
	<path fill="#EFCE75" d="M232.717,826.759c0.762,0.596,6.158-3.431,5.091-7.019c-0.877-2.949-8.732-3.609-5.91-6.221
		c1.634-1.513,6.379,1.666,5.669-1.04c-0.487-1.858-4.051-1.717-3.498-4.561c6.279,0.925,10.159,6.766,8.9,12.5
		c-1.278,5.818-7.39,9.279-13.158,7.304c-5.33-1.826-8.886-8.196-5.92-13.784c1.794-3.379,5.351-5.516,9.221-5.901l-4.659,6.193
		c-0.488,4.267,10.968,7.191,5.769,8.435c-2.611,0.625-6.775-2.182-5.891,0.65c0.211,0.677,0.968,0.771,1.88,1.484L232.717,826.759z
		"/>
	<path fill="#EFCE75" d="M623.848,838.767l2.865,2.019c0.581,0.409,5.659-3.892,4.735-6.848c-0.507-1.623-2.4-2.411-4.102-3.276
		l-1.688-0.858c-0.717-0.365-1.087-1.282-0.31-2.006c0.461-0.43,1.195-0.796,2.304-0.53l1.703,0.408
		c0.651,0.156,1.878-0.647,1.284-1.523c-0.611-0.902-2.78-1.429-2.536-3.683c5.89,0.855,9.269,6.095,8.089,11.871
		c-1.017,4.979-6.214,9.089-12.303,7.557c-4.661-1.173-8.97-6.26-7.586-11.908c1.251-5.102,6.576-8.948,11.887-7.708
		c-2.755,1.784-4.748,3.038-5.986,5.121c-2.379,4.003,4.948,5.39,6.187,6.634c0.802,0.806,0.285,2.154-0.397,2.527
		c-1.741,0.953-7.217-1.799-5.993,0.865C622.173,837.807,622.757,837.998,623.848,838.767z"/>
	<path fill="#EFCE75" d="M600.68,792.837c0,5.695-4.617,10.313-10.312,10.313c-5.695,0-10.312-4.617-10.312-10.313
		c0-5.696,4.617-10.313,10.312-10.313C596.063,782.524,600.68,787.141,600.68,792.837z M595.724,795.605
		c0.332-3.764-6.09-3.609-6.65-6.23c-0.162-0.76,0.61-1.902,1.426-1.824c1.235,0.117,2.639,1.861,4.153,0.678
		c0.572-0.447,0.576-1.339,0.203-1.614l-1.444-1.064c-0.923-0.68-1.89-1.497-2.739-1.323c-1.432,0.294-5.245,3.695-4.826,6.233
		c0.426,2.577,10.405,4.351,5.208,6.985c-1.564,0.793-4.099-1.378-5.37,0.492c1.23,2.021,3.276,3.038,4.879,3.871
		C592.133,799.845,595.476,798.423,595.724,795.605z"/>
	<path fill="#EFCE75" d="M310.802,824.888c0.914,0.615,6.07-2.59,5.398-6.34c-0.556-3.101-5.816-3.479-6.618-4.677
		c-0.371-0.554-0.435-1.758,0.114-1.975c1.842-0.729,4.088,0.359,5.665,0.073c2.541-0.461-2.676-2.719-3.552-5.67
		c5.448-0.088,9.589,4.795,9.671,10.193c0.085,5.584-4.448,10.404-10.692,10.187c-4.861-0.169-9.417-4.284-9.502-9.977
		c-0.079-5.254,4.208-10.707,9.994-10.375l-4.722,5.798c-1.075,4.987,7.879,4.906,6.491,8.302c-1.046,2.56-3.65,0.08-5.559,0.183
		c-1.041,0.056-1.293,1.145-0.623,1.774c0.357,0.336,0.894,0.457,1.763,1.042L310.802,824.888z"/>
	<path fill="#EFCE75" d="M547.678,767.093c0.651,0.432,5.182-2.918,5.506-4.666c0.274-1.477-0.34-2.951-1.884-3.794l-4.972-2.715
		c1.4-2.053,3.151-1.937,6.245-1.574l-3.991-5.636c6.38,0.363,10.09,5.477,9.821,10.773c-0.292,5.748-5.112,9.85-10.892,9.728
		c-5.309-0.112-9.472-4.322-9.721-9.722c-0.265-5.765,3.893-10.678,10.051-10.649c-0.108,2.728-2.472,3.787-3.631,5.457
		c-3.277,4.722,7.99,6.006,5.795,8.231c-1.596,1.618-7.296-0.961-6.289,1.838c0.229,0.637,1.334,0.984,2.248,1.591L547.678,767.093z
		"/>
	<path fill="#EFCE75" d="M321.318,746.079c0,5.632-4.565,10.197-10.197,10.197c-5.632,0-10.197-4.565-10.197-10.197
		s4.565-10.197,10.197-10.197C316.752,735.882,321.318,740.448,321.318,746.079z M315.801,747.743
		c-0.692-2.315-10.279-4.96-5.302-6.733c1.203-0.429,3.146,1.462,4.373,0.39c0.544-0.475,0.329-1.491-0.064-1.741l-1.511-0.961
		c-0.908-0.578-1.816-1.533-2.634-1.404c-1.192,0.187-5.157,4.396-4.17,6.749c1.397,3.33,9.646,4.037,5.571,6.529
		c-1.438,0.879-6.667-1.652-5.431,0.934c0.551,1.152,3.8,3.375,4.681,3.235C312.167,754.604,316.75,750.919,315.801,747.743z"/>
	<path fill="#32302C" d="M595.724,795.605c-0.248,2.819-3.591,4.241-5.16,6.204c-1.603-0.832-3.649-1.849-4.879-3.871
		c1.271-1.869,3.805,0.301,5.37-0.492c5.197-2.634-4.782-4.408-5.208-6.985c-0.42-2.538,3.394-5.94,4.826-6.233
		c0.849-0.174,1.816,0.643,2.739,1.323l1.444,1.064c0.373,0.275,0.37,1.167-0.203,1.614c-1.514,1.183-2.918-0.561-4.153-0.678
		c-0.816-0.078-1.588,1.064-1.426,1.824C589.634,791.995,596.056,791.841,595.724,795.605z"/>
	<path fill="#32302C" d="M315.801,747.743c0.95,3.176-3.634,6.862-4.486,6.998c-0.881,0.141-4.13-2.082-4.681-3.235
		c-1.236-2.587,3.993-0.055,5.431-0.934c4.075-2.492-4.175-3.2-5.571-6.529c-0.987-2.353,2.978-6.562,4.17-6.749
		c0.818-0.128,1.726,0.827,2.634,1.404l1.511,0.961c0.393,0.25,0.608,1.266,0.064,1.741c-1.227,1.073-3.17-0.818-4.373-0.39
		C305.522,742.782,315.109,745.428,315.801,747.743z"/>
</g>
</svg>
