<svg xmlns="http://www.w3.org/2000/svg" viewBox="0 0 1024 1024"><path fill="#262523" d="M860.85,686.72l-0.2,56.32c-0.03,8.53-6.62,15.11-15.12,16.42l-698.31,0.08
		c-9.96,0-18.98-5.84-18.98-16.8l-0.18-455.53c0-9.48,5.68-19.09,16.17-19.09l578.45-0.14c11.2-5.75,23.78-5.79,34.59-0.04
		l88.75,0.37c8.2,0.03,14.64,8.64,14.64,16.79l0.13,217.53C910.98,555.31,910.09,635.09,860.85,686.72z M770.76,300.12
		c0-16.97-13.75-30.72-30.72-30.72s-30.72,13.75-30.72,30.72s13.75,30.72,30.72,30.72S770.76,317.09,770.76,300.12z M671.93,427.39
		c2.19-0.01,4.31,1.14,4.32,3.65l0.08,53.19c23.04-15.44,48.67-22.39,75.65-21.85c39.51-1.83,71.72,7.68,102.54,34.11l-0.04-157.33
		l-0.23-12.23l0.31-41.02c0.04-5.68-4.49-11.79-10.58-11.78l-77.71,0.1c14.39,16.09,13.22,38.4-0.67,52.03
		c-14.24,13.97-37.13,13.75-50.9,0.28c-14.35-14.04-14.83-36.06-0.96-52.46l-565.49-0.06c-7.37,0-13.77,2.85-13.79,10.53
		l-0.03,12.27l30.58,0.16c1.95,0.1,3.47,1.24,3.47,3.58l0.03,418.95l546.26,0.12c-13.48-5.94-26.24-9.58-37.68-18.3
		c-1.16,1.46-1.41,2.44-2.04,4.25l-58.6-0.1l-0.12-272.28c0-2.05-0.15-5.54,2.14-5.55L671.93,427.39z M782.97,725.61l-620.55-0.07
		l-0.15-421.91l-27.85,0.1l0.07,439.02c0,6,4.87,10.61,10.78,10.61l638.08,0.06C783.64,744.07,784.27,734.72,782.97,725.61z
		 M670.24,488.8l-0.05-55.27l-47.82,0l0.62,125.03C631.39,530.51,646.83,506.56,670.24,488.8z M872.47,592.81
		c0-68.52-55.55-124.07-124.07-124.07s-124.07,55.55-124.07,124.07s55.55,124.07,124.07,124.07S872.47,661.33,872.47,592.81z
		 M827.21,484.54c-5.97-2.75-11.21-6.57-18.5-7.89c2.59,3.41,6.3,4,9.14,6.47C820.38,485.32,823.49,485.98,827.21,484.54z
		 M850.16,500.81l-11.85-9.07c-2.24-1.72-6.09-0.86-8.59-0.19l10.58,9.23C842.5,502.68,847.1,501.57,850.16,500.81z M866.73,519.25
		c-7.77-9.68-8.65-14.39-20.79-12.06l9.49,12.3L866.73,519.25z M878.2,537.49c-2.5-4.4-4.14-9.29-7.51-11.82
		c-3.45-1.11-7.82-0.39-11.3-0.16l6.3,11.99L878.2,537.49z M886.08,556.05l-4.94-12.43l-12.66-0.1l4.48,12.62L886.08,556.05z
		 M890.76,575.1l-2.84-13.01l-13.39-0.11l2.45,13.12L890.76,575.1z M892.24,592.96l-0.98-12.18l-13.72,0.07l0.63,12.14
		L892.24,592.96z M890.99,611.92l1.05-13.21l-14.03,0.1l-1.21,13.32L890.99,611.92z M886.84,630.98l2.87-13.12l-13.73,0.06
		l-3.41,13.43C877.88,631.42,882.1,631.91,886.84,630.98z M670.28,699.62c0.18-4.07-1.47-4.11-2.87-5.19
		c-21.92-16.94-36.39-40.54-44.23-66.53l-0.73,71.75L670.28,699.62z M878.81,650.55l5.77-13.61l-14.33,0.25l-5.43,13.36
		L878.81,650.55z M869.58,666.33c2.84-2.85,4.45-6.96,5.92-9.92l-14.1,0.04l-6.67,11.1C859.35,667.02,865.07,668.44,869.58,666.33z
		 M864.41,673.21l-14.59,0.63l-6.84,8.06C855.33,683.39,857.98,683.44,864.41,673.21z M850.15,688.19
		c-4.53-0.16-8.82-0.92-13.1,0.09c-2.75,0.98-5,4.54-6.76,6.25C841.17,695.06,842.85,695.96,850.15,688.19z M844.51,753.29
		c5.51-1,9.91-4.91,9.92-10.32l0.07-50.78c-19.06,16.75-40.44,26.53-64.67,30.84l-0.05,30.35L844.51,753.29z M824.53,705.45
		l8.68-5.18c-3.39-0.26-7.31-1.95-9.79-0.47l-8.91,5.33C817.86,706,821.76,707.11,824.53,705.45z M809.11,711.76
		c-2.07-1.66-4.49-1.7-6.93-0.53l-11.26,5.37L809.11,711.76z"/><path fill="#FBF8EA" d="M671.93,427.39l-53.46,0.27c-2.29,0.01-2.14,3.5-2.14,5.55l0.12,272.28l58.6,0.1
		c0.64-1.81,0.88-2.79,2.04-4.25c11.44,8.73,24.2,12.36,37.68,18.3l-546.26-0.12l-0.03-418.95c0-2.34-1.53-3.48-3.47-3.58
		l-30.58-0.16l0.03-12.27c0.02-7.68,6.42-10.53,13.79-10.53l565.49,0.06c-13.87,16.4-13.39,38.42,0.96,52.46
		c13.77,13.47,36.66,13.69,50.9-0.28c13.89-13.63,15.06-35.94,0.67-52.03l77.71-0.1c6.09-0.01,10.62,6.1,10.58,11.78l-0.31,41.02
		l0.23,12.23l0.04,157.33c-30.83-26.43-63.03-35.94-102.54-34.11c-26.98-0.54-52.62,6.4-75.65,21.85l-0.08-53.19
		C676.25,428.53,674.12,427.38,671.93,427.39z M852.7,332.75c0-20.29-16.45-36.74-36.74-36.74s-36.74,16.45-36.74,36.74
		c0,20.29,16.45,36.74,36.74,36.74S852.7,353.05,852.7,332.75z M271.45,562.2l20.52-22.76c9.76,6.19,21.56,2.76,26.29-8.06
		l52.46,11.58c-0.41,9.67,6.22,16.95,14.83,18.02c8.83,1.11,17.18-4.14,19.06-13.74l53.53,0.04c2.83,10.91,13.83,15.83,23.07,12.22
		c9.74-3.81,13.91-14.99,8.69-24.74l59.21-60.38c7.89,5.16,17.1,4.25,23.03-1.63c6.4-6.34,5.09-15.36,1.88-22.71l31.41-33.14
		c2.37,0.73,4.09,0.64,4.95-0.12c1.15-1.02,0.48-3.79,0.71-4.84l25.86-27.33l0.51,16.03c0.06,1.8,1.72,2.57,3.04,2.63
		c1.29,0.06,3.03-0.61,3.12-2.48l0.47-10.33c18.68,10.24,40.93,2.75,50.16-15.74c8.95-17.94,1.64-39.83-17.01-49.09
		c-13.89-6.9-30.44-3.75-41.2,6.89c-10.77,10.66-13.9,27.1-7.21,41.58l-13.41,3.37c-2.21,0.56-3.45,2.1-3.13,3.86
		c0.25,1.39,1.86,3.14,3.75,2.76l15.32-3.1l-21.2,22.31c-8.82-49.94-48.8-87.06-98.34-92.39c0.95-4.94-0.5-8.35-3.13-10.1
		c-2.65-1.76-6.32-1.66-8.7,0.58c-2.1,1.98-3.33,4.75-2.29,9.69c-54.56,5.35-96.52,49.1-99.98,103.98c-0.1,1.54,2.8,2.27,3.76,2.01
		c3.34-0.9,2.13-4.84,6.79-8.93c12.81-11.28,32.29-11.88,45.47-1.05c6.33,5.2,4.01,12.05,8.6,11.43c1.24-0.17,2.09-1.18,2.43-2.74
		c2.14-10.03,20.03-17.92,32.3-18.26l-0.5,59.99c-0.02,2.46-3.52,5.21-3.1,8.47c1.3,10.05,0.83,20.61-4.86,19.07
		c-5.43-1.46-0.21-16.54-13.09-17.3c-6.12-0.36-11.16,4.63-11.2,11.29c-0.05,8.09,2.22,15.9,8.53,21.22
		c7.72,6.5,18.33,7.72,27.86,3.3c7.9-3.67,14.48-12.24,14.62-22.2l0.24-17.02l-3.01-6.95l-0.25-59.88
		c12.71,1.1,29.5,7.92,31.68,17.45c0.44,1.94,1.07,3.02,2.56,3.34c4.53,0.96,2.09-5.67,8.13-10.78c13.89-11.79,35-11.23,48.38,2.79
		l-34.09,34.94c-7.5-2.16-16.22-2.84-21.8,3.54c-5.06,5.78-6.49,13.61-2.24,21.32l-58.81,59.69c-5.74-3.49-11.59-4.81-17.8-2.25
		c-4.63,1.91-8.99,6.2-10.31,13.31l-52.87-0.01c-2.45-7.12-7.53-13-14.74-13.92c-8.23-1.05-14.38,3.43-18.63,9.93l-52.03-11.53
		c-1.47-7.4-4.93-14.61-12.3-16.45c-7.5-1.87-14.62,0.22-19.22,5.85c-4.85,5.93-4.36,13.63-0.88,20.58l-43.73,47.1l-17.07,17.99
		c-8.63-4.56-18.22-1.83-23.21,5.36c-4.91,7.07-3.73,16.97,2.79,22.73c6.45,5.7,16.68,5.62,22.92-0.04
		c6.63-6.01,7.99-15.78,2.22-23.6l39.96-42.41C271.33,562.47,271.45,562.36,271.45,562.2z M782.87,411.08
		c0-20.24-16.41-36.64-36.64-36.64c-20.24,0-36.64,16.41-36.64,36.64c0,20.24,16.41,36.64,36.64,36.64
		C766.46,447.72,782.87,431.32,782.87,411.08z M423.46,476.49c0-20.17-16.35-36.52-36.52-36.52s-36.52,16.35-36.52,36.52
		s16.35,36.52,36.52,36.52S423.46,496.66,423.46,476.49z M263.19,535.28c0-20.3-16.46-36.75-36.75-36.75s-36.75,16.46-36.75,36.75
		s16.46,36.75,36.75,36.75S263.19,555.58,263.19,535.28z M530.82,497.54l-0.04,208.38l59.53,0.01l0.04-208.38L530.82,497.54z
		 M271.78,563.63l-0.2,138.27c0.07,2.31,1.48,3.83,3.59,3.82l56.83-0.14l0.16-139.4c0-2.6-2.06-3.96-4.28-3.94l-55.15,0.5
		C272.52,563.41,272.32,563.7,271.78,563.63z M504.94,571.46l-60.64,0.01l0.03,134.47l60.64-0.01L504.94,571.46z M418.47,575.71
		l-60.52,0.03l0.07,130.06l60.52-0.03L418.47,575.71z M247.72,641.43h-60.95v64.46h60.95V641.43z"/><path fill="#9FC39C" d="M782.97,725.61c1.3,9.12,0.67,18.46,0.39,27.81l-638.08-0.06c-5.91,0-10.78-4.61-10.78-10.61
		l-0.07-439.02l27.85-0.1l0.15,421.91L782.97,725.61z"/><path fill="#F2D586" d="M872.47,592.81c0,68.52-55.55,124.07-124.07,124.07s-124.07-55.55-124.07-124.07
		s55.55-124.07,124.07-124.07S872.47,524.29,872.47,592.81z M852.48,592.7c0-57.52-46.63-104.16-104.16-104.16
		c-57.52,0-104.16,46.63-104.16,104.16s46.63,104.16,104.16,104.16C805.85,696.85,852.48,650.22,852.48,592.7z"/><path fill="#F07A64" d="M670.24,488.8c-23.41,17.76-38.84,41.7-47.25,69.76l-0.62-125.03l47.82,0L670.24,488.8z"/><path fill="#FBF8EA" d="M844.51,753.29l-54.74,0.09l0.05-30.35c24.23-4.3,45.61-14.09,64.67-30.84l-0.07,50.78
		C854.42,748.38,850.02,752.29,844.51,753.29z"/><path fill="#F07A64" d="M670.28,699.62l-47.82,0.03l0.73-71.75c7.84,25.99,22.31,49.59,44.23,66.53
		C668.82,695.5,670.46,695.55,670.28,699.62z"/><path fill="#F2D586" d="M770.76,300.12c0,16.97-13.75,30.72-30.72,30.72s-30.72-13.75-30.72-30.72s13.75-30.72,30.72-30.72
		S770.76,283.15,770.76,300.12z M767.21,300.15c0-15.01-12.17-27.17-27.17-27.17s-27.17,12.17-27.17,27.17s12.17,27.17,27.17,27.17
		S767.21,315.16,767.21,300.15z"/><path fill="#F2D586" d="M886.84,630.98c-4.73,0.93-8.96,0.45-14.27,0.36l3.41-13.43l13.73-0.06L886.84,630.98z"/><path fill="#F2D586" d="M869.58,666.33c-4.51,2.11-10.23,0.69-14.85,1.22l6.67-11.1l14.1-0.04
		C874.03,659.37,872.42,663.47,869.58,666.33z"/><path fill="#F2D586" d="M878.2,537.49l-12.51,0.01l-6.3-11.99c3.48-0.23,7.85-0.95,11.3,0.16
		C874.06,528.2,875.7,533.09,878.2,537.49z"/><path fill="#F2D586" d="M866.73,519.25l-11.29,0.23l-9.49-12.3C858.08,504.86,858.95,509.57,866.73,519.25z"/><path fill="#F2D586" d="M864.41,673.21c-6.42,10.23-9.08,10.17-21.43,8.69l6.84-8.06L864.41,673.21z"/><path fill="#F2D586" d="M850.16,500.81c-3.06,0.76-7.66,1.87-9.85-0.04l-10.58-9.23c2.5-0.67,6.35-1.53,8.59,0.19
		L850.16,500.81z"/><path fill="#F2D586" d="M850.15,688.19c-7.31,7.77-8.98,6.87-19.86,6.34c1.76-1.71,4.01-5.28,6.76-6.25
		C841.33,687.27,845.62,688.03,850.15,688.19z"/><path fill="#F2D586" d="M824.53,705.45c-2.77,1.65-6.67,0.55-10.02-0.32l8.91-5.33c2.48-1.48,6.39,0.21,9.79,0.47
		L824.53,705.45z"/><path fill="#F2D586" d="M827.21,484.54c-3.72,1.44-6.83,0.78-9.36-1.42c-2.84-2.47-6.54-3.06-9.14-6.47
		C816,477.97,821.24,481.79,827.21,484.54z"/><path fill="#F2D586" d="M809.11,711.76l-18.19,4.84l11.26-5.37C804.62,710.06,807.03,710.1,809.11,711.76z"/><path fill="#262523" d="M271.17,562.43l-39.96,42.41c5.76,7.82,4.4,17.59-2.22,23.6c-6.23,5.66-16.46,5.74-22.92,0.04
		c-6.52-5.76-7.7-15.65-2.79-22.73c4.99-7.19,14.59-9.93,23.21-5.36l17.07-17.99l43.73-47.1c-3.48-6.96-3.98-14.65,0.88-20.58
		c4.61-5.63,11.73-7.72,19.22-5.85c7.37,1.84,10.83,9.05,12.3,16.45l52.03,11.53c4.25-6.51,10.41-10.98,18.63-9.93
		c7.21,0.92,12.29,6.8,14.74,13.92l52.87,0.01c1.32-7.11,5.68-11.41,10.31-13.31c6.21-2.56,12.06-1.24,17.8,2.25l58.81-59.69
		c-4.25-7.71-2.82-15.53,2.24-21.32c5.59-6.39,14.31-5.7,21.8-3.54l34.09-34.94c-13.38-14.02-34.49-14.58-48.38-2.79
		c-6.03,5.12-3.6,11.75-8.13,10.78c-1.49-0.32-2.12-1.4-2.56-3.34c-2.18-9.53-18.97-16.35-31.68-17.45l0.25,59.88l3.01,6.95
		l-0.24,17.02c-0.14,9.96-6.72,18.54-14.62,22.2c-9.53,4.42-20.14,3.2-27.86-3.3c-6.31-5.32-8.58-13.13-8.53-21.22
		c0.04-6.66,5.09-11.65,11.2-11.29c12.88,0.77,7.67,15.84,13.09,17.3c5.7,1.54,6.17-9.02,4.86-19.07c-0.42-3.26,3.08-6.01,3.1-8.47
		l0.5-59.99c-12.27,0.34-30.16,8.23-32.3,18.26c-0.33,1.57-1.19,2.58-2.43,2.74c-4.58,0.62-2.27-6.23-8.6-11.43
		c-13.18-10.83-32.66-10.23-45.47,1.05c-4.66,4.1-3.45,8.04-6.79,8.93c-0.96,0.26-3.85-0.47-3.76-2.01
		c3.45-54.88,45.41-98.63,99.98-103.98c-1.05-4.94,0.19-7.71,2.29-9.69c2.38-2.24,6.05-2.34,8.7-0.58c2.63,1.75,4.08,5.16,3.13,10.1
		c49.55,5.34,89.52,42.45,98.34,92.39l21.2-22.31l-15.32,3.1c-1.89,0.38-3.5-1.36-3.75-2.76c-0.32-1.76,0.92-3.3,3.13-3.86
		l13.41-3.37c-6.69-14.47-3.56-30.92,7.21-41.58c10.76-10.65,27.32-13.79,41.2-6.89c18.65,9.26,25.96,31.16,17.01,49.09
		c-9.23,18.49-31.48,25.98-50.16,15.74l-0.47,10.33c-0.09,1.87-1.82,2.54-3.12,2.48c-1.32-0.06-2.98-0.83-3.04-2.63l-0.51-16.03
		l-25.86,27.33c-0.23,1.05,0.44,3.82-0.71,4.84c-0.85,0.76-2.58,0.85-4.95,0.12l-31.41,33.14c3.21,7.35,4.52,16.36-1.88,22.71
		c-5.93,5.88-15.13,6.79-23.03,1.63l-59.21,60.38c5.23,9.75,1.05,20.93-8.69,24.74c-9.24,3.62-20.24-1.31-23.07-12.22l-53.53-0.04
		c-1.88,9.6-10.23,14.85-19.06,13.74c-8.61-1.08-15.24-8.35-14.83-18.02l-52.46-11.58c-4.73,10.82-16.53,14.25-26.29,8.06
		l-20.52,22.76c0.17,0.75,0.95,0.88,1.29,0.54l55.15-0.5c2.22-0.02,4.28,1.33,4.28,3.94L332,705.58l-56.83,0.14
		c-2.11,0.01-3.52-1.51-3.59-3.82l0.2-138.27L271.17,562.43z M543.66,403.37c-1.87-30.85-11.83-72.83-39.36-86.77
		c-28.39,15.07-37.08,55.89-38.98,86.79C485.28,386.88,522.19,386.35,543.66,403.37z M459.04,403.16
		c1.61-21.58,5.17-40.51,13.36-58.73c4.11-9.99,10.02-17.4,18.2-26.25c-42.02,7.4-76.85,39.66-84.93,83.57
		C422.94,390.18,443.26,390.39,459.04,403.16z M550.06,403.07c16.02-12.99,36.3-12.79,53.42-1.45
		c-8.57-43.35-42.61-76.53-85.71-83.68c8.3,8.09,14.68,16.74,18.87,27.44C544.87,363.67,548.19,382.88,550.06,403.07z
		 M692.23,358.52c0-16.91-13.71-30.62-30.62-30.62s-30.62,13.71-30.62,30.62s13.71,30.62,30.62,30.62S692.23,375.43,692.23,358.52z
		 M506.47,396.9l-3.72,0.01l0.08,58.57l3.72-0.01L506.47,396.9z M571.01,460.56c0-6.21-5.03-11.24-11.24-11.24
		s-11.24,5.03-11.24,11.24c0,6.21,5.03,11.24,11.24,11.24S571.01,466.77,571.01,460.56z M470.38,477.83
		c-0.51,6.54,1.26,12.8,5.71,17.1c5.75,5.57,14,6.74,21.48,3.48c5.97-2.6,11.59-8.69,11.56-16.47l-0.06-17.86
		c-0.01-2.19-3.14-2.73-4.55-2.72c-1.43,0.01-4.37,0.51-4.41,2.76l-0.3,16.72c-0.12,6.4-5.53,10.62-11.2,10.03
		c-12.81-1.33-5.94-16.77-13.22-17.46C473.53,473.25,470.63,474.59,470.38,477.83z M313.12,525.27c0-6.2-5.03-11.23-11.23-11.23
		s-11.23,5.03-11.23,11.23c0,6.2,5.03,11.23,11.23,11.23S313.12,531.47,313.12,525.27z M486.28,543.35c0-6.2-5.02-11.22-11.22-11.22
		c-6.2,0-11.22,5.02-11.22,11.22c0,6.2,5.02,11.22,11.22,11.22C481.26,554.57,486.28,549.55,486.28,543.35z M398.99,543.97
		c0-6.15-4.98-11.13-11.13-11.13s-11.13,4.98-11.13,11.13s4.98,11.13,11.13,11.13S398.99,550.12,398.99,543.97z M277.73,568.31
		l-0.1,131.36l48.37,0.04l0.1-131.36L277.73,568.31z M228.86,615.36c0-6.23-5.05-11.27-11.27-11.27c-6.23,0-11.27,5.05-11.27,11.27
		s5.05,11.27,11.27,11.27C223.82,626.64,228.86,621.59,228.86,615.36z"/><path fill="#262523" d="M530.82,497.54l59.53,0.01l-0.04,208.38l-59.53-0.01L530.82,497.54z M584.23,503.64l-47.39,0.01
		l0.04,196.29l47.39-0.01L584.23,503.64z"/><path fill="#262523" d="M504.94,571.46l0.03,134.47l-60.64,0.01l-0.03-134.47L504.94,571.46z M498.76,577.44l-48.32,0.02
		l0.06,122.3l48.32-0.02L498.76,577.44z"/><path fill="#262523" d="M418.47,575.71l0.07,130.06l-60.52,0.03l-0.07-130.06L418.47,575.71z M412.4,581.65l-48.39,0.03
		l0.08,118.09l48.39-0.03L412.4,581.65z"/><path fill="#262523" d="M247.72,641.43v64.46h-60.95v-64.46H247.72z M241.59,647.55l-48.76,0.03l0.03,52.31l48.76-0.03
		L241.59,647.55z"/><path fill="#262523" d="M852.7,332.75c0,20.29-16.45,36.74-36.74,36.74s-36.74-16.45-36.74-36.74
		c0-20.29,16.45-36.74,36.74-36.74S852.7,312.46,852.7,332.75z M846.75,332.73c0-17.01-13.79-30.81-30.81-30.81
		c-17.01,0-30.81,13.79-30.81,30.81c0,17.01,13.79,30.81,30.81,30.81C832.95,363.54,846.75,349.75,846.75,332.73z"/><path fill="#262523" d="M782.87,411.08c0,20.24-16.41,36.64-36.64,36.64c-20.24,0-36.64-16.41-36.64-36.64
		c0-20.24,16.41-36.64,36.64-36.64C766.46,374.44,782.87,390.84,782.87,411.08z M777,411.1c0-16.97-13.75-30.72-30.72-30.72
		s-30.72,13.75-30.72,30.72s13.75,30.72,30.72,30.72S777,428.07,777,411.1z"/><path fill="#262523" d="M263.19,535.28c0,20.3-16.46,36.75-36.75,36.75s-36.75-16.46-36.75-36.75s16.46-36.75,36.75-36.75
		S263.19,514.98,263.19,535.28z M257.35,535.29c0-17.06-13.83-30.88-30.88-30.88s-30.88,13.83-30.88,30.88
		c0,17.06,13.83,30.88,30.88,30.88S257.35,552.35,257.35,535.29z"/><path fill="#262523" d="M423.46,476.49c0,20.17-16.35,36.52-36.52,36.52s-36.52-16.35-36.52-36.52s16.35-36.52,36.52-36.52
		S423.46,456.32,423.46,476.49z M417.67,476.46c0-16.95-13.74-30.7-30.7-30.7c-16.95,0-30.7,13.74-30.7,30.7s13.74,30.7,30.7,30.7
		C403.93,507.15,417.67,493.41,417.67,476.46z"/><path fill="#262523" d="M852.48,592.7c0,57.52-46.63,104.16-104.16,104.16c-57.52,0-104.16-46.63-104.16-104.16
		s46.63-104.16,104.16-104.16C805.85,488.54,852.48,535.17,852.48,592.7z M846.4,592.69c0-54.16-43.91-98.07-98.07-98.07
		c-54.16,0-98.07,43.91-98.07,98.07s43.91,98.07,98.07,98.07C802.49,690.77,846.4,646.86,846.4,592.69z"/><path fill="#262523" d="M767.21,300.15c0,15.01-12.17,27.17-27.17,27.17s-27.17-12.17-27.17-27.17s12.17-27.17,27.17-27.17
		S767.21,285.14,767.21,300.15z M761.62,300.15c0-11.89-9.64-21.53-21.53-21.53c-11.89,0-21.53,9.64-21.53,21.53
		c0,11.89,9.64,21.53,21.53,21.53C751.98,321.68,761.62,312.04,761.62,300.15z"/><path fill="#F07A64" d="M550.06,403.07c-1.87-20.19-5.19-39.41-13.42-57.68c-4.19-10.7-10.56-19.35-18.87-27.44
		c43.1,7.14,77.14,40.33,85.71,83.68C586.36,390.29,566.08,390.08,550.06,403.07z"/><path fill="#F07A64" d="M459.04,403.16c-15.77-12.77-36.1-12.97-53.36-1.41c8.07-43.91,42.91-76.17,84.93-83.57
		c-8.19,8.85-14.09,16.26-18.2,26.25C464.21,362.65,460.65,381.57,459.04,403.16z"/><path fill="#F2D586" d="M692.23,358.52c0,16.91-13.71,30.62-30.62,30.62s-30.62-13.71-30.62-30.62s13.71-30.62,30.62-30.62
		S692.23,341.61,692.23,358.52z M688.73,358.44c0-14.96-12.13-27.09-27.09-27.09s-27.09,12.13-27.09,27.09
		c0,14.96,12.13,27.09,27.09,27.09S688.73,373.4,688.73,358.44z"/><path fill="#FBF8EA" d="M470.38,477.83c0.25-3.24,3.15-4.59,5-4.41c7.28,0.69,0.4,16.13,13.22,17.46
		c5.67,0.59,11.09-3.63,11.2-10.03l0.3-16.72c0.04-2.25,2.98-2.75,4.41-2.76c1.41-0.01,4.54,0.53,4.55,2.72l0.06,17.86
		c0.02,7.78-5.59,13.87-11.56,16.47c-7.48,3.26-15.72,2.08-21.48-3.48C471.64,490.63,469.87,484.37,470.38,477.83z"/><path fill="#F07A64" d="M543.66,403.37c-21.48-17.01-58.38-16.48-78.33,0.01c1.89-30.89,10.59-71.71,38.98-86.79
		C531.84,330.54,541.79,372.51,543.66,403.37z"/><path fill="#F2D586" d="M846.75,332.73c0,17.01-13.79,30.81-30.81,30.81c-17.01,0-30.81-13.79-30.81-30.81
		c0-17.01,13.79-30.81,30.81-30.81C832.95,301.93,846.75,315.72,846.75,332.73z M843.15,332.78c0-15.03-12.19-27.22-27.22-27.22
		c-15.03,0-27.22,12.19-27.22,27.22S800.89,360,815.93,360C830.96,360,843.15,347.81,843.15,332.78z"/><path fill="#F2D586" d="M777,411.1c0,16.97-13.75,30.72-30.72,30.72s-30.72-13.75-30.72-30.72s13.75-30.72,30.72-30.72
		S777,394.14,777,411.1z M773.56,411.02c0-15.04-12.19-27.23-27.23-27.23s-27.23,12.19-27.23,27.23c0,15.04,12.19,27.23,27.23,27.23
		S773.56,426.06,773.56,411.02z"/><path fill="#F2D586" d="M257.35,535.29c0,17.06-13.83,30.88-30.88,30.88s-30.88-13.83-30.88-30.88
		c0-17.06,13.83-30.88,30.88-30.88S257.35,518.23,257.35,535.29z M253.79,535.31c0-15.09-12.23-27.31-27.31-27.31
		s-27.31,12.23-27.31,27.31c0,15.09,12.23,27.31,27.31,27.31S253.79,550.39,253.79,535.31z"/><path fill="#F2D586" d="M417.67,476.46c0,16.95-13.74,30.7-30.7,30.7c-16.95,0-30.7-13.74-30.7-30.7s13.74-30.7,30.7-30.7
		C403.93,445.76,417.67,459.5,417.67,476.46z M414.16,476.42c0-15.02-12.18-27.2-27.2-27.2s-27.2,12.18-27.2,27.2
		c0,15.02,12.18,27.2,27.2,27.2S414.16,491.44,414.16,476.42z"/><path fill="#F2D586" d="M846.4,592.69c0,54.16-43.91,98.07-98.07,98.07c-54.16,0-98.07-43.91-98.07-98.07
		s43.91-98.07,98.07-98.07C802.49,494.62,846.4,538.53,846.4,592.69z M752.84,654.55c0.02,2.15,1.61,2.59,2.66,2.72
		c0.89,0.11,2.93-0.29,2.96-1.68l0.3-11.84c12.07-3.82,18.8-14.3,18.97-26.26c0.17-11.88-6.9-22.19-19.05-26.75l-0.01-45.2
		c6.06,2.12,9.98,6.56,11.6,12.29c0.6,2.08,2.55,2.61,4.11,2.05c5.39-1.96-2.11-17.09-15.36-20.85c-1.05-6.32,0.96-11.84-3.41-11.58
		c-3.95,0.23-2.55,4.59-3.29,9.74c-2.97,0.58-5.65,0.62-8.63,0.04l-0.32-6.43c-0.1-2.01-1.2-3.34-2.87-3.46
		c-1.33-0.09-3.12,0.81-3.2,2.85l-0.38,9.47c-11.15,3.7-17.21,13.88-17.26,24.82c-0.05,10.99,6.53,20.28,17.7,24.64l-0.09,47.87
		c-6.97-2.84-11.54-8.08-13.11-15.06c-0.68-1.59-2.04-2.33-3.59-2.03c-5.67,1.09,1.5,19.51,16.75,23.73l0.06,11.22
		c0.01,1.95,1.67,2.79,3.12,2.72c1.41-0.06,2.87-1.08,2.89-2.98l0.11-9.59l9.27-0.07L752.84,654.55z M694.12,566.08
		c-1.35-2.85-3.88-4.3-6.5-3.99c-10.81,1.26-10.19,33.36,0.89,33.11C695.64,595.02,699.75,577.96,694.12,566.08z M807.49,561.89
		c-7.48-0.15-11.82,17.2-5.37,29.93c1.26,2.5,3.96,3.72,6.33,3.45C818.22,594.16,819.25,562.12,807.49,561.89z M699.77,610.47
		c0.04-2.49-1.08-5.13-3.72-6.59c-10.98-6.11-25.92-1.56-25.72,6.55c0.06,2.4,1.59,4.8,4.13,6.23
		C684.49,622.31,699.63,618.39,699.77,610.47z M825.48,609.77c-0.25-2.47-1.63-4.77-4.21-6.14c-10.57-5.59-25.57-1.37-25.35,6.85
		c0.06,2.25,1.22,4.66,3.63,6.05C811.02,623.09,826.3,617.85,825.48,609.77z"/><path fill="#F2D586" d="M761.62,300.15c0,11.89-9.64,21.53-21.53,21.53c-11.89,0-21.53-9.64-21.53-21.53
		c0-11.89,9.64-21.53,21.53-21.53C751.98,278.62,761.62,288.26,761.62,300.15z M747.68,313.43c3.1-3.48,4.78-6.27,3.2-10.61
		c-2.2-6.06-11.89-3.71-9.24-12.7c1.49,0.11,3.73,0.28,4.35-0.58c0.38-0.53,0.28-2.12-0.11-2.73c-1.47-2.34-4.88-0.76-8.3-5.53
		c-0.8-1.12-3.67-0.37-3.98,0.71c-1.96,6.82-5.41,8.63-3.8,13.56c2.12,6.52,10.39,3.28,9.92,14.23c-1.75-0.94-3.16-1.44-4.13-1.35
		c-1.64,0.15-2.5,1.79-1.91,3.1c1.5,3.33,5.95,1.44,9.26,6.59c0.85,1.33,3.31,0.31,4.13-0.46
		C747.81,316.96,746.99,314.2,747.68,313.43z"/><path fill="#262523" d="M688.73,358.44c0,14.96-12.13,27.09-27.09,27.09s-27.09-12.13-27.09-27.09
		c0-14.96,12.13-27.09,27.09-27.09S688.73,343.48,688.73,358.44z M645.19,344.7c-7.58,9.07-6.41,22.56,2.62,30.19
		c9.03,7.63,22.53,6.54,30.21-2.45c7.68-8.99,6.66-22.49-2.28-30.22c-8.94-7.73-22.45-6.79-30.23,2.1c0.42,0.32,0.75,0.47,1.1,0.52
		c7.13,0.98,10.42-2.09,12.69-0.89c0.75,0.4,1.11,2.41,0.59,3.18c-0.48,0.72-1.45,1.42-3.72,1.86c4.24,9.16,11.12,1.05,17.03,6.29
		c2.87,2.54,2.66,5.63,3.1,9.82c0.14,1.34,2.55,3.44,1.18,4.97c-1.67,1.86-3.21,0.81-5.76,0.44c-2.1-0.3-6.31,2.83-8.6,0.12
		c-1.4-1.66,1.36-4.57,4.33-4.54c-1.99-2.37-3.88-3.64-6.32-4.98c-3.49,1.67-7.16,1.89-10.42-0.16c-2.64-1.66-2.96-5.22-3.6-9.02
		l-1.08-6.41L645.19,344.7z"/><path fill="#262523" d="M843.15,332.78c0,15.03-12.19,27.22-27.22,27.22c-15.03,0-27.22-12.19-27.22-27.22
		s12.19-27.22,27.22-27.22C830.96,305.56,843.15,317.74,843.15,332.78z M837.53,332.82c0-11.9-9.65-21.55-21.55-21.55
		s-21.55,9.65-21.55,21.55s9.65,21.55,21.55,21.55S837.53,344.72,837.53,332.82z"/><path fill="#262523" d="M756.88,392.95c0.24,0.41,0.51,1.49,2.02,1.27c-2.97,6.42,4.26,11.92-0.44,13.56
		c-1.61,0.56-3.14-1.09-4.06-2.81c-8.13,4.01,1.75,11.78-4.14,18.59c-2.13,2.47-5.3,1.92-8.97,2.89c-1.25,0.33-2.7,2.77-4.68,1.62
		c-2.08-1.2-1.23-2.7-1.14-5.47c0.08-2.24-4.09-5.65-1.25-8.5c0.82-0.82,3.03-0.75,3.58,0.52l1.56,3.57l4.25-7.29
		c-2.04-3.4-2.88-7.06-1.44-10.16c1.75-3.78,5.43-4.74,9.75-5.26C753.45,395.32,755.38,392.37,756.88,392.95z"/><path fill="#262523" d="M773.56,411.02c0,15.04-12.19,27.23-27.23,27.23s-27.23-12.19-27.23-27.23
		c0-15.04,12.19-27.23,27.23-27.23S773.56,395.98,773.56,411.02z M758.9,394.22c-0.37-0.95-0.99-1.35-2.02-1.27
		c-9.71-6.35-22.65-3.12-28.8,6.82c-6.15,9.94-3.25,22.96,6.52,29.37c9.78,6.4,22.87,3.84,29.52-5.76
		C770.78,413.77,768.57,400.61,758.9,394.22z"/><path fill="#262523" d="M253.79,535.31c0,15.09-12.23,27.31-27.31,27.31s-27.31-12.23-27.31-27.31
		c0-15.09,12.23-27.31,27.31-27.31S253.79,520.22,253.79,535.31z M248.28,535.27c0-12-9.73-21.73-21.73-21.73
		c-12,0-21.73,9.73-21.73,21.73s9.73,21.73,21.73,21.73C238.55,556.99,248.28,547.27,248.28,535.27z"/><path fill="#262523" d="M414.16,476.42c0,15.02-12.18,27.2-27.2,27.2s-27.2-12.18-27.2-27.2c0-15.02,12.18-27.2,27.2-27.2
		S414.16,461.4,414.16,476.42z M408.57,476.37c0-11.93-9.67-21.59-21.59-21.59s-21.59,9.67-21.59,21.59s9.67,21.59,21.59,21.59
		S408.57,488.3,408.57,476.37z"/><path fill="#262523" d="M752.84,654.55l-0.09-9.62l-9.27,0.07l-0.11,9.59c-0.02,1.9-1.48,2.92-2.89,2.98
		c-1.45,0.06-3.11-0.78-3.12-2.72l-0.06-11.22c-15.25-4.23-22.42-22.65-16.75-23.73c1.55-0.3,2.92,0.44,3.59,2.03
		c1.58,6.98,6.15,12.22,13.11,15.06l0.09-47.87c-11.16-4.35-17.75-13.65-17.7-24.64c0.05-10.93,6.1-21.11,17.26-24.82l0.38-9.47
		c0.08-2.05,1.87-2.94,3.2-2.85c1.67,0.11,2.77,1.45,2.87,3.46l0.32,6.43c2.98,0.58,5.65,0.54,8.63-0.04
		c0.75-5.14-0.66-9.51,3.29-9.74c4.37-0.25,2.36,5.26,3.41,11.58c13.25,3.75,20.75,18.89,15.36,20.85
		c-1.56,0.57-3.51,0.04-4.11-2.05c-1.61-5.73-5.54-10.18-11.6-12.29l0.01,45.2c12.15,4.56,19.22,14.87,19.05,26.75
		c-0.17,11.97-6.9,22.45-18.97,26.26l-0.3,11.84c-0.03,1.39-2.08,1.8-2.96,1.68C754.44,657.14,752.86,656.71,752.84,654.55z
		 M752.63,588.1l0.03-44.53l-9.29,0.03l0.01,41.55L752.63,588.1z M737.06,546.46c-8.74,3.54-11.45,11.3-11.36,18.98
		c0.07,6.92,4.34,13.09,11.52,16.57L737.06,546.46z M752.76,638.52l-0.13-43.84l-9.25-2.9l0.03,46.68
		C746.67,639.09,749.61,639.14,752.76,638.52z M758.75,637.2c8.63-3.54,12.96-11.46,12.94-19.81c-0.02-8.39-4.38-16.24-13.08-19.99
		L758.75,637.2z"/><path fill="#262523" d="M807.49,561.89c11.76,0.23,10.72,32.27,0.96,33.39c-2.37,0.27-5.07-0.95-6.33-3.45
		C795.68,579.09,800.02,561.74,807.49,561.89z"/><path fill="#262523" d="M694.12,566.08c5.63,11.89,1.52,28.95-5.62,29.11c-11.08,0.25-11.7-31.85-0.89-33.11
		C690.24,561.78,692.77,563.22,694.12,566.08z"/><path fill="#262523" d="M825.48,609.77c0.81,8.08-14.47,13.32-25.93,6.75c-2.41-1.38-3.57-3.79-3.63-6.05
		c-0.22-8.22,14.78-12.44,25.35-6.85C823.86,604.99,825.23,607.3,825.48,609.77z M819.81,610.15c-5.54-4.12-13.08-4.53-18.14,0.18
		C806.72,614.54,814.87,615.15,819.81,610.15z"/><path fill="#262523" d="M699.77,610.47c-0.14,7.92-15.28,11.84-25.31,6.19c-2.54-1.43-4.07-3.83-4.13-6.23
		c-0.2-8.12,14.74-12.66,25.72-6.55C698.69,605.34,699.82,607.98,699.77,610.47z M693.99,609.83c-6.06-4.1-13.65-3.94-17.61,0.78
		C681.84,614.56,690.01,615.01,693.99,609.83z"/><path fill="#262523" d="M747.68,313.43c-0.69,0.77,0.13,3.53-0.62,4.24c-0.82,0.77-3.27,1.79-4.13,0.46
		c-3.31-5.15-7.76-3.26-9.26-6.59c-0.59-1.32,0.27-2.95,1.91-3.1c0.97-0.09,2.38,0.41,4.13,1.35c0.47-10.95-7.81-7.71-9.92-14.23
		c-1.6-4.94,1.85-6.74,3.8-13.56c0.31-1.08,3.17-1.83,3.98-0.71c3.42,4.77,6.83,3.18,8.3,5.53c0.39,0.62,0.49,2.2,0.11,2.73
		c-0.62,0.85-2.86,0.68-4.35,0.58c-2.64,8.99,7.04,6.64,9.24,12.7C752.46,307.15,750.78,309.95,747.68,313.43z"/><path fill="#F2D586" d="M683.18,358.48c0-11.87-9.62-21.49-21.49-21.49s-21.49,9.62-21.49,21.49s9.62,21.49,21.49,21.49
		S683.18,370.35,683.18,358.48z M646.61,344.85c7.13,0.98,10.42-2.09,12.69-0.89c0.75,0.4,1.11,2.41,0.59,3.18
		c-0.48,0.72-1.45,1.42-3.72,1.86c4.24,9.16,11.12,1.05,17.03,6.29c2.87,2.54,2.66,5.63,3.1,9.82c0.14,1.34,2.55,3.44,1.18,4.97
		c-1.67,1.86-3.21,0.81-5.76,0.44c-2.1-0.3-6.31,2.83-8.6,0.12c-1.4-1.66,1.36-4.57,4.33-4.54c-1.99-2.37-3.88-3.64-6.32-4.98
		c-3.49,1.67-7.16,1.89-10.42-0.16c-2.64-1.66-2.96-5.22-3.6-9.02l-1.08-6.41L646.61,344.85z"/><path fill="#F2D586" d="M837.53,332.82c0,11.9-9.65,21.55-21.55,21.55s-21.55-9.65-21.55-21.55s9.65-21.55,21.55-21.55
		S837.53,320.92,837.53,332.82z M819.35,348.27c3.76-2.63,6.55-4.67,6.34-8.66c-0.19-3.65-2.61-6.25-5.63-8.69
		c-1.42-1.15-1.04-6.35,0.53-6.9c1.74,0.54,3.63,1.08,4.32,0.28c2.97-3.41-4.15-4.83-5.23-9.99c-0.34-1.62-3.39-2.15-3.87-1.27
		l-1.92,3.51c-3.49,2.28-6.22,4.34-6.54,8.18c-0.64,7.55,9.44,6.89,5.23,17.29c-1.47-1.59-2.66-2.61-3.99-2.67
		c-1.11-0.05-2.89,0.98-2.5,2.65c0.69,2.9,5,4.02,6.12,6.4c1.07,2.27,1.57,3.93,4.32,3.87
		C817.71,352.23,818.09,349.15,819.35,348.27z"/><path fill="#F2D586" d="M756.88,392.95c-1.5-0.58-3.44,2.37-4.95,2.55c-4.32,0.51-8.01,1.48-9.75,5.26
		c-1.43,3.09-0.59,6.75,1.44,10.16l-4.25,7.29l-1.56-3.57c-0.55-1.26-2.77-1.34-3.58-0.52c-2.83,2.85,1.33,6.26,1.25,8.5
		c-0.1,2.77-0.94,4.27,1.14,5.47c1.98,1.15,3.43-1.29,4.68-1.62c3.67-0.98,6.83-0.43,8.97-2.89c5.89-6.81-3.99-14.58,4.14-18.59
		c0.92,1.73,2.45,3.38,4.06,2.81c4.7-1.64-2.52-7.14,0.44-13.56c9.66,6.39,11.88,19.55,5.23,29.16
		c-6.65,9.61-19.75,12.16-29.52,5.76c-9.78-6.4-12.67-19.43-6.52-29.37C734.23,389.83,747.18,386.6,756.88,392.95z"/><path fill="#F2D586" d="M758.9,394.22c-1.52,0.22-1.79-0.86-2.02-1.27C757.91,392.87,758.54,393.27,758.9,394.22z"/><path fill="#F2D586" d="M248.28,535.27c0,12-9.73,21.73-21.73,21.73c-12,0-21.73-9.73-21.73-21.73s9.73-21.73,21.73-21.73
		C238.55,513.54,248.28,523.27,248.28,535.27z M218.56,552.84c0.56,1.69,3.56,1.36,4.13,0.51c0.42-0.62,1.05-2.25,1.93-2.54
		c4.19-0.94,7.46-2.56,8.71-6.08c2.63-7.36-6.95-10.76,0.3-17.4c1.09,1.12,3.45,2.82,4.52,1.44c2.54-3.25-2.02-4.08-2.55-11.44
		c-0.1-1.45-3.03-1.82-3.69-1.05l-2.18,2.57c-4.3,0.92-8.09,2.3-9.18,6.24c-0.98,3.57,0.39,7.35,3.23,10.31
		c-0.72,2.97-1.88,5.46-3.55,8c-0.77-2.83-2.58-5.17-4.99-3.91c-1.71,0.9-1.02,4.61,0.28,5.81
		C217.92,547.47,217.6,549.94,218.56,552.84z"/><path fill="#F2D586" d="M752.76,638.52c-3.15,0.62-6.09,0.57-9.35-0.06l-0.03-46.68l9.25,2.9L752.76,638.52z"/><path fill="#F2D586" d="M758.75,637.2l-0.14-39.8c8.7,3.75,13.07,11.6,13.08,19.99
		C771.71,625.75,767.38,633.67,758.75,637.2z"/><path fill="#F2D586" d="M737.06,546.46l0.15,35.55c-7.18-3.48-11.44-9.65-11.52-16.57
		C725.62,557.75,728.32,550,737.06,546.46z"/><path fill="#F2D586" d="M819.81,610.15c-4.94,5-13.09,4.39-18.14,0.18C806.73,605.61,814.27,606.03,819.81,610.15z"/><path fill="#F2D586" d="M693.99,609.83c-3.97,5.17-12.14,4.73-17.61,0.78C680.34,605.89,687.92,605.73,693.99,609.83z"/><path fill="#262523" d="M819.35,348.27c-1.26,0.88-1.64,3.96-2.81,3.99c-2.76,0.06-3.26-1.61-4.32-3.87
		c-1.12-2.38-5.43-3.5-6.12-6.4c-0.4-1.67,1.39-2.69,2.5-2.65c1.33,0.06,2.51,1.08,3.99,2.67c4.22-10.4-5.87-9.74-5.23-17.29
		c0.33-3.84,3.05-5.9,6.54-8.18l1.92-3.51c0.48-0.88,3.53-0.35,3.87,1.27c1.09,5.16,8.21,6.59,5.23,9.99
		c-0.7,0.8-2.58,0.26-4.32-0.28c-1.56,0.55-1.95,5.76-0.53,6.9c3.02,2.45,5.44,5.04,5.63,8.69
		C825.9,343.6,823.11,345.64,819.35,348.27z"/><path fill="#262523" d="M218.56,552.84c-0.96-2.9-0.64-5.38-3.02-7.55c-1.31-1.2-2-4.91-0.28-5.81
		c2.4-1.26,4.21,1.09,4.99,3.91c1.67-2.54,2.83-5.04,3.55-8c-2.84-2.96-4.22-6.74-3.23-10.31c1.09-3.94,4.87-5.32,9.18-6.24
		l2.18-2.57c0.66-0.77,3.58-0.4,3.69,1.05c0.53,7.36,5.1,8.19,2.55,11.44c-1.08,1.38-3.44-0.31-4.52-1.44
		c-7.25,6.64,2.33,10.04-0.3,17.4c-1.26,3.52-4.52,5.14-8.71,6.08c-0.88,0.29-1.51,1.92-1.93,2.54
		C222.12,554.2,219.12,554.53,218.56,552.84z"/><path fill="#262523" d="M387.44,484.26c-0.61-1.95-1.13-4.16-2.73-6.17c-3.72-0.4-7.1-1.9-8.52-4.84
		c-2.85-5.94,2.66-9.14,2.38-14.16c-0.05-0.96,2.26-2.68,3.36-1.82c2.36,1.85,3.56,3.7,7.11,3.76c1.31,0.02,2.97,1.58,2.99,2.57
		c0.04,1.56-1.8,3.42-4.56,2.48c-1.19,1.57-0.03,3.81,0.63,5.33c1.38,3.18,7.66,1.63,9.98,7.12c1.08,2.57,1.03,5.44-0.75,7.8
		c-2.59,3.44-0.14,7.54-3.98,8.31c-1.47,0.3-2.37-1.03-3.36-2.72l-6.31-1.57c-1.91-0.47-2.75-2.33-2.27-3.64
		c0.61-1.66,2.58-1.97,4.44-1.41L387.44,484.26z M388.14,485.27l-1.37,0.37C387.23,486.22,388.04,486.01,388.14,485.27z"/><path fill="#F2D586" d="M408.57,476.37c0,11.93-9.67,21.59-21.59,21.59s-21.59-9.67-21.59-21.59s9.67-21.59,21.59-21.59
		S408.57,464.44,408.57,476.37z M385.85,485.29c-1.86-0.56-3.83-0.24-4.44,1.41c-0.48,1.31,0.36,3.17,2.27,3.64l6.31,1.57
		c0.99,1.69,1.89,3.01,3.36,2.72c3.84-0.77,1.4-4.87,3.98-8.31c1.78-2.36,1.84-5.24,0.75-7.8c-2.32-5.49-8.6-3.94-9.98-7.12
		c-0.66-1.52-1.82-3.76-0.63-5.33c2.76,0.94,4.6-0.92,4.56-2.48c-0.03-0.98-1.69-2.55-2.99-2.57c-3.55-0.06-4.75-1.91-7.11-3.76
		c-1.1-0.86-3.41,0.87-3.36,1.82c0.28,5.03-5.23,8.23-2.38,14.16c1.41,2.94,4.8,4.44,8.52,4.84c1.6,2.01,2.12,4.22,2.73,6.17
		c0.04,0.12,0.12,0.51,0.7,1.01c-0.11,0.74-0.92,0.95-1.37,0.37C386.66,485.5,386.34,485.43,385.85,485.29z"/></svg>