<svg xmlns="http://www.w3.org/2000/svg" viewBox="0 0 1024 1024"><path fill="#96BC97" d="M867.61,767.44l-0.2,39.31l-693.3-0.01l-0.34-23c2.74,0.56,5.04,0.08,7.51-1.77
		c90.08-47.76,191.4-73.51,293-80.67c28.38-2,55.46-2.37,83.94-2.04c104.56,1.22,209.14,22.21,303.37,67.97
		C863.97,768.38,865.87,768.19,867.61,767.44z"/><path fill="#1F1D1B" d="M867.61,767.44c-1.75,0.76-3.64,0.94-6.01-0.21c-94.23-45.75-198.81-66.75-303.37-67.97
		c-28.49-0.33-55.57,0.04-83.94,2.04c-101.6,7.16-202.92,32.91-293,80.67c-2.47,1.85-4.77,2.33-7.51,1.77
		c-0.04-2.73-0.68-4.18,2.36-5.8c89.05-47.14,185.14-73.15,285.95-81.35c-1.85-8.41,2.6-12.08,10.31-15.7l-2.53-16.23
		c-5.82-0.98-12.27-1.87-15.19-7.22c-2.61-4.78-1.25-10.03-1.69-16.12c-3.9,5.02-7.82,9.45-14.02,10.41
		c-4.31,0.67-8.23-0.79-10.85-3.41c-2.63-2.63-3.36-6.27-3.08-10.41c3.15-19.83,20.22-40.65,34.87-54.49
		c-16-16.77-15.46-41.11-1.53-58.26c-4.91-9.91-2.25-21.31,6.65-26.62c8.93-5.33,20.32-2.68,26.77,6.11l13.61-2.58l-0.04-36.9
		c-15.08,1.11-37.45,8.42-36.53,21.75c0.12,1.7-2.15,2.33-3.29,2.09c-4.39-0.93-0.44-7.04-6.66-12.06
		c-14.28-11.5-35.02-11.09-48.83,0.95c-5.49,4.79-1.69,10.51-6.57,10.78c-5.65,0.31,0.96-8.11-8.18-14.3
		c-12.11-8.21-28.75-6.59-40.33,2.49c-5.14,4.02-2.53,10.03-6.52,10.95c-0.91,0.21-3.73-0.23-3.48-2.03
		c11.5-82.16,82.64-137.53,163.82-140.44l0.63-13.14c0.08-1.76,1.8-2.31,3.02-2.17c1.34,0.15,2.58,1.07,2.66,2.83l0.56,12.47
		c80.6,2.25,152.11,58.05,163.98,138.59c0.4,2.71-1.05,3.92-3.09,3.85c-4.61-0.15-1.36-6.32-6.72-10.78
		c-11.52-9.6-28.55-10.77-40.83-2.25c-8.2,5.69-2.11,14.07-7.52,13.96c-4.99-0.1-1.05-6.12-6.55-10.78
		c-13.55-11.47-33.42-12.41-47.78-1.94c-7.92,5.77-3.05,13.65-8.63,13.01c-1.31-0.15-2.7-1.04-2.48-3.06
		c1.26-11.7-22.01-19.73-36.37-20.73l0.02,36.86l12.33,2.48c6.45-8.74,17.91-11.39,26.44-6.35c9.31,5.5,11.86,16.83,6.73,26.88
		c16.57,19.26,13.78,46.78-5.63,62.46c6.08,20.73,11.29,40.56,12.86,61.39c0.39,5.15-0.46,10.12-4.88,12.55
		c-3.91,1.86-8.02,2.1-12.59,2.62l-1.67,14.1c6.06,4.63,12.27,6.15,10.79,15.27c105.1,2.34,207.48,23.04,302.03,69.29
		C867.99,763.69,867.62,765.88,867.61,767.44z M555.83,471.94c-1.02-35.9-11.33-88.23-34.81-115.86c-2.39-2.81-4.59-4.74-7.64-4.99
		c-3.7-0.3-6,0.92-8.55,3.79c-24.45,27.55-34.65,80.71-35.63,117.11C491.89,454.24,532.61,454.96,555.83,471.94z M402.21,471.59
		c4.84-26.45,13.51-49.49,28.17-70.17c13.22-19.42,30.09-34.17,50.28-46.74c-36.76,6.82-69.08,25.71-93.26,52.56
		c-15.6,18.17-27.04,38.35-32.71,62.02C370.27,460.55,388.04,460.92,402.21,471.59z M463.01,472.02
		c1.53-28.86,5.48-55.23,15.01-80.91c4.77-13.22,10.43-24.79,19.14-36.48c-46.83,16.8-80.67,66.98-88.41,115.87
		C426.34,459.78,446.83,460.03,463.01,472.02z M616.49,470.53c-6.57-36.99-24.19-68.03-49.76-92.12
		c-11.83-10.16-23.84-18.81-39.03-23.96c23.51,32.82,32.31,76.8,34.06,117.62C577.9,459.9,598.21,459.97,616.49,470.53z
		 M670.22,469.22c-7.19-29.71-23.03-53.66-43.93-73.59c-22.93-20.61-50.46-35.41-82.08-41.01c18.15,11.44,33.53,24.08,46.21,41.03
		c16.68,22.3,27.32,47.52,32.54,76C636.77,460.41,654.48,460.87,670.22,469.22z M514.13,464.83l-3.25,0.01l0.19,103.68l3.25-0.01
		L514.13,464.83z M485.44,506.81c-4.95-6.3-12.37-6.31-17.77-2.69c-4.97,3.34-7.53,9.87-4.58,16.3
		C469.75,514.38,476.71,510.21,485.44,506.81z M560.53,520.36c3.39-6.86,0.14-14.15-5.33-17.12c-5.82-3.15-12.87-1.41-17.18,3.45
		C546.48,509.69,553.27,514.09,560.53,520.36z M480.41,522.85c8.25,3.96,15.97,5.86,24.87,4.92l0.05-19.71
		c-17.58,2.25-35.83,10.14-45.04,25.22C468.82,532.87,474.44,528.17,480.41,522.85z M535.59,519.02
		c7.21,8.99,17.78,15.35,28.74,14.79c-10.34-15.47-26.75-23.06-44.42-25.69l-0.07,16.22C529.04,521.2,530.85,513.12,535.59,519.02z
		 M523.91,580.13l19.03,11.4c21.17-10.27,33.06-29.8,24.46-51.68c-14.2,1.09-26.49-5.05-35.36-15.76c-4.02,3-7.72,5-12.21,6.85
		l0.3,37.2c4.59-2.32,4.28-8.87,8.27-7.13c3.29,1.43,0.69,8.96-4.85,12.48c-1.66,1.05-2.33,2.32-2.11,4.03
		C521.6,578.75,522.56,579.32,523.91,580.13z M495.2,563.5c-0.04-1.92,2.03-2.72,3.25-2.42c2.82,0.71,2.61,6.62,7.05,7.87
		c-0.2-3.2,0.84-7.49-0.17-10.61c-1.08-3.33-0.14-4.59-0.08-7.79l0.29-16.77c-8.99,0.65-16.46-0.97-24.12-3.81
		c-7.12,6.27-15.37,9.19-24.49,9.69c-5.91,13.69-2.86,28.65,7.08,39.41c10.12,10.97,23.89,17.14,39.52,18.34
		c-5.22-11.24,3.66-19.13,0.09-22C499.87,572.39,495.33,569.62,495.2,563.5z M515.68,573.75l-6.22,0.78l0.44,3.53l6.22-0.78
		L515.68,573.75z M454.73,628.49l3.82-21.06c0.4-2.21,1.63-3.39,3.55-2.93c1.27,0.3,2.66,1.74,2.39,3.47
		c-2.24,14.07-8.79,42.83-3.57,47.56c1.46,1.33,4.25,2.56,7.1,2.88c30.67,3.44,61.49,2.61,92.16-0.8c2.1-0.23,3.97-1.34,4.97-2.13
		c4.61-3.63-3.39-36.5-6.53-50.01c-3.42-0.07-5.94-0.8-8.58-2.57c-10.56-7.06-20.91-14.16-32.42-19.41
		c-3.59-1.64-8.16-0.17-9.71,2.91c-1.18,2.35-0.8,6.63,1.76,9.16c11.36,11.25,24.92,19.83,38.75,27.98c1.77,1.04,1.46,3.18,0.81,4.2
		c-0.68,1.08-2.53,1.89-3.92,0.98l-24.56-16.16c-1.63,11.84-10.57,19.66-21.28,19.17c-11.02-0.5-18.79-9.36-18.69-20.79
		c-1.03-5.1,1.9-9.14,7.59-10.39c-8.88-2.55-16.54-6.88-24.15-12.91c-14.2,11.34-42.77,51.78-29.98,57.73
		c2.08,0.97,5.32,1.16,7.56-0.85C446.47,640.33,452.27,634.99,454.73,628.49z M556.52,599.69l-1.77-7.77
		c-2.24,0.82-3.66,1.85-5.71,3.5C551.62,596.93,553.55,598.83,556.52,599.69z M503.28,611.79c0.73-3.01,0.59-5.58,0.26-8.26
		c-3.02-0.51-5.38-0.82-8.62-0.5c3.1,5.07,0.9,10.72,4.6,11.27C500.87,614.49,502.78,613.84,503.28,611.79z M486.16,610.46
		c0.3,8.23,5.21,14.55,12.47,15.38c7.03,0.81,13.4-3.39,15.64-10.56c0.69-2.23,1.78-5.66,0.04-7.73c-1.03-1.23-2.78-2.92-5.19-3.57
		c0.24,3.77,0.63,7.13-0.78,10.33c-1.95,4.44-6.19,6.68-10.54,5.44c-8.96-2.55-4.39-13.81-9.27-13.19
		C487.18,606.72,486.07,608.07,486.16,610.46z M469.34,694.64l28.71-1.19l2.42-27.08l-24.43-1.39l2.08,19.79l-8.07,4.2
		c-1.26,0.66-1.67,1.88-2.12,2.65C467.47,692.44,468.03,694.69,469.34,694.64z M547.38,683.37l1.35-18.64l-23.82,1.33l3.3,26.45
		l27.64,0.33c1.44,0.02,2.53-1.53,2.49-2.35C558.18,687.2,552.73,685.16,547.38,683.37z M522.25,693.27l-3.29-26.96l-12.94,0.25
		l-2.1,27.42L522.25,693.27z"/><path fill="#F6F2DD" d="M167.61,818.73c3.03,1.37,5.51,1.43,9.73,1.43l688.41-0.03c9.54,0,15.43-7.19,15.46-16.09
		l0.12-38.04c0.01-3.74-1.18-6.5-2.27-10.26c4.46,3.03,5.94,8.09,5.9,13.22l-0.27,41.22c-0.04,6.25-5.53,14.36-13.39,14.36
		l-694.82,0.11c-4.42,0-6.97-3.12-9.51-5.06l-0.56-0.42l-0.58-0.59l-0.42-0.43l-0.54-0.59l-0.94-0.98c0.7,1.23,2.02-0.14,0.67-0.81
		l1.01,1.02l0.64,0.57l0.38,0.37l0.7,0.59C167.46,818.45,167.55,818.61,167.61,818.73z"/><path fill="#1F1D1B" d="M614.17,262.03c-4.09,6.22-11.85,11.18-19.77,11.18l-132.63,0.01c-7.75,0-14.33-4.91-18.33-10.5
		c-4.56-9.27-1.85-19.06,5.4-25.88c9.34-8.78,22.45-11.72,34.28-5.48c2.62-16.38,11.69-30.13,25.98-36.97
		c19.33-9.25,36.51,1.2,44.87,21.26c6.07-5.17,13.26-8.52,20.77-6.22c8.83,2.7,13.27,11.37,13.27,20.99
		c7.38-1.27,14.57-1.3,20.84,2.85C618.18,239.43,620.83,251.9,614.17,262.03z M609.05,258.73c4.93-7.08,3.36-16.04-3.43-20.31
		c-10.83-6.82-20.76,2.03-23.19-1.4c-1.76-2.47,2.61-19.26-10.57-21.99c-10.93-2.27-15.97,10.66-20.12,9.64
		c-3.11-0.76-3.23-11.96-13.08-21.29c-7.25-6.86-17.2-8.21-26.38-3.92c-14.04,6.57-22.32,20.83-23.49,36.32
		c-0.11,1.47-0.86,2.62-1.58,2.96c-0.92,0.43-2.65,0.46-3.63-0.26c-9.91-7.32-22.46-5.56-31.02,3.14
		c-4.96,5.04-7.51,12.74-3.09,19.01c3.08,4.37,8.88,6.86,14.64,6.86l127.89,0.04C598.83,267.54,605.27,264.17,609.05,258.73z"/><path fill="#1F1D1B" d="M792.97,340.38c-6.8,5.31-14.07,5.8-22.24,5.79l-123.63-0.25c-8.22-0.02-15.36-3.91-19.81-10.12
		c-4.62-8.66-2.19-18.22,4.57-24.9c9.5-9.39,22.85-12.58,35.11-6.46c2.86-17.04,12.52-31.01,27.71-37.51
		c18.78-8.04,35.58,2.44,43.19,22.11c6.02-5.52,13.25-8.75,20.82-6.61c9.09,2.56,13.65,11.16,13.29,21.18
		c9.08-1.85,18.45-1.22,24.68,5.73C804.93,318.54,802.83,332.67,792.97,340.38z M789.39,311.19c-11.14-6.57-19.17,2.08-22.7-0.37
		c-3.22-2.24,3.27-16.14-7.59-21.66c-6.69-3.4-15.06,0.53-19.54,7.41c-0.88,1.35-2.54,1.65-3.93,1.35
		c-3.65-0.8-3.36-16.75-18.38-25.19c-6.82-3.83-14.95-2.9-21.98,0.62c-13.5,6.77-21.37,20.47-22.58,35.56
		c-0.12,1.56-0.67,2.87-1.74,3.36c-0.63,0.29-2.09,0.45-2.98-0.22c-10.56-8-24.21-5.74-32.87,4.17c-4.29,4.91-6.27,11.99-1.8,17.53
		c3.34,4.15,8.98,6.43,14.8,6.43l126.79,0.05c8.08,0,15.27-3.55,19.06-10.21C797.67,323.49,796.09,315.14,789.39,311.19z"/><path fill="#1F1D1B" d="M374.64,307.25c0,26.2-21.24,47.43-47.43,47.43s-47.43-21.24-47.43-47.43s21.24-47.43,47.43-47.43
		S374.64,281.06,374.64,307.25z M368.59,307.25c0-22.83-18.51-41.34-41.34-41.34c-22.83,0-41.34,18.51-41.34,41.34
		c0,22.83,18.51,41.34,41.34,41.34C350.08,348.59,368.59,330.08,368.59,307.25z"/><path fill="#F6F2DD" d="M440.53,280.03c8.07,3.65,14.77,6.71,23.7,6.85l122.63-0.24c12.02-0.02,22.95-2.08,31.8-9.93
		c12.99-11.19,15.53-28.14,8.42-44.07c10.87,12.53,10.07,31.66-0.41,43.97c-7.75,9.1-18.79,13.39-30.71,14.38l-128.87-0.04
		C457.25,289.87,447.36,288.4,440.53,280.03z"/><path fill="#F6F2DD" d="M574.84,680.28l-4.44-5.79c11.46-4.59,16.06-15.51,15.11-27.6c-1.51-19.09-6.11-37.02-10.9-55.83
		c17.84-19.8,19.05-45.76,5.6-68.41c2.46-10.57,0.69-21.26-6.3-29.57l1.8-6.65c8.92-5.49,22.14-7.12,30.06,2.3
		c-8.29-1.92-15.57-4.33-23.17-0.04c-1.84,1.04-6.2,4.5-4.55,7.04c6.2,9.51,8.78,19.85,6.05,30.99
		c13.55,21.98,11.44,49.93-5.66,68.86c5.08,19.15,9.37,37.21,10.69,56.31c0.64,9.2-1.66,17.88-8.51,23.63
		C578.52,676.7,577.04,677.58,574.84,680.28z"/><path fill="#F6F2DD" d="M354.09,368.06l2.95,24.9c0.96,8.07-3.86,15.23-11.66,17.32c-6.87,1.83-15.14,0.52-18.78-6.5
		c7.12,3.81,13.85,4.36,19.83,0.31c5.89-3.99,8.03-10.79,7.08-18.36l-2.76-21.94c6.34-2.98,11.52-6.88,17.34-11.16l20.15,13.13
		c3.09,2.01,5.86,3.58,9.86,4.33c-0.6,1.21-1.75,1.96-2.6,2.02c-1.08,0.07-2.16-0.78-3.17-1.44l-21.34-13.88
		C366.05,361.5,361,364.86,354.09,368.06z"/><path fill="#F6F2DD" d="M666.47,498.82c8.26,3.29,16.03,3.46,22.22-2.12c4-4.67,5.58-10.97,3.55-16.99
		c-2.42-21.31-11.23-39.38-20.1-59.35c14.31,20.58,22.05,45.55,24.68,70.38c0.73,6.94-6.95,12.5-11.53,13.94
		C678.36,506.85,670.69,505.22,666.47,498.82z"/><path fill="#F6F2DD" d="M425.33,281.25c-0.81-0.56,0-1.68,0.76-0.86l0.41,0.63c3.51,5.41,6.04,11.46,3.46,18.13
		c-2.12,5.46-7.27,9.38-14,10.83l-23.75,5.11l-1.75,10.7c-0.31,1.05-4.47,0.18-4.28-1.07l2.02-13.36l27.38-6.62
		c10.51-2.54,14.54-14.05,10.14-23.08L425.33,281.25z"/><path fill="#F6F2DD" d="M305.8,367.62l-14.91,18.2c-7.12,8.69-20.82,10.25-27.58,0.16c10.14,4.37,18.42,2.33,24.67-5.05
		l14.84-17.54c5.41,1.55,9.62,3.37,14.92,3.96l0.17,3.87C313.79,370.59,310.71,369.74,305.8,367.62z"/><path fill="#F6F2DD" d="M386.46,487.83c-24.4-5.33-16.19,14.55-31.99,17.41c-6.58,1.19-14.36-0.37-17.86-7.49
		c6.22,3.68,11.17,4.21,17.38,2.27c5.85-1.82,7.4-7.09,10.93-12.62C369.11,480.87,389.43,481.3,386.46,487.83z"/><path fill="#1F1D1B" d="M236.66,324.6c-1.85,0.31-2.31-1.57-2.42-2.28c-0.14-0.9-0.08-3.3,1.32-3.55l30.36-5.38
		c1.89-0.33,3.31,1.13,3.6,2.38c0.29,1.27-0.09,3.32-1.99,3.64L236.66,324.6z"/><path fill="#1F1D1B" d="M364.04,259.48c-1.05,1.58-3.12,1.34-4.16,1.02c-1.06-0.32-2.33-2.49-1.29-4.08l15.44-23.43
		c1-1.51,2.78-1.69,3.92-1.27c1.51,0.56,2.43,3.09,1.33,4.75L364.04,259.48z"/><path fill="#1F1D1B" d="M316.49,247.64c0.46,2.28-0.77,3.86-2.11,4.12c-1.98,0.37-3.67-0.51-4.11-2.79l-4.8-25.08
		c-0.42-2.18,0.58-3.58,2.1-3.93c1.88-0.43,3.46,0.37,3.88,2.48L316.49,247.64z"/><path fill="#1F1D1B" d="M276.61,273.88c1.91,1.22,2.16,3.06,1.8,4.28c-0.57,1.96-3.01,2.39-4.86,1.2l-21.26-13.61
		c-1.62-1.04-1.98-2.79-1.61-3.84c0.66-1.87,3.12-2.62,4.93-1.46L276.61,273.88z"/><path fill="#1F1D1B" d="M413,291.63l-26.03,5.91c-1.83,0.42-3.36-1.09-3.6-2.28c-0.37-1.82,0.62-3.55,2.8-4l23.85-5.01
		c1.54-0.32,2.81,0.21,3.45,0.73C414.26,287.63,414.42,291.31,413,291.63z"/><path fill="#1F1D1B" d="M340.46,389.54c0.29,2.29-0.69,3.74-2.2,4.04c-1.11,0.22-3.37-0.32-3.59-2.04l-3.36-25.47
		c-0.26-1.96,0.92-3.36,2.42-3.63c1.76-0.32,3.39,0.75,3.68,3.01L340.46,389.54z"/><path fill="#1F1D1B" d="M401.25,351.19c1.45,1,0.87,3.74,0.14,4.52c-0.65,0.7-2.33,1.45-3.69,0.48l-21.57-15.26
		c-1.14-0.8-0.71-2.97-0.27-3.78c0.5-0.9,2.66-1.69,3.92-0.82L401.25,351.19z"/><path fill="#1F1D1B" d="M275.83,374.26c-1.18,1.44-3.57,0.84-4.56,0.07c-0.88-0.69-1.3-2.53,0-4.09l16.2-19.52
		c0.83-1.01,3.25-0.26,3.94,0.28s1.74,2.14,0.78,3.32L275.83,374.26z"/><path fill="#F6F2DD" d="M419.35,660.23c-0.97-0.33-0.61-1.52,0.35-1.34l0.97,0.91c5.96,4.58,14.31,5.78,21.95,4.7
		c3.63,3.93,8.1,7.95,13.14,10.95c-6.62,2.8-8.11-7.63-14.77-6.73c-7.91,1.07-15.61-2.04-21.08-7.53
		C419.97,660.59,419.66,660.32,419.35,660.23z"/><path fill="#F6F2DD" d="M327.39,221.47c1.59,8.45,4.89,16.59,3.75,25.66c-5.34-11.07-4.36-22.24-8.23-33.05
		C325.3,215.89,326.86,218.63,327.39,221.47z"/><path fill="#F6F2DD" d="M241.39,275.17c-0.81-0.37-0.54-1.32,0.27-1.33l1.07,1.27c6.2,4.76,13.77,8.94,20.93,13.26
		c2.01,1.22,4.6,1.96,4.35,4.97c-8.45-4.81-23.66-12.84-25.94-17.42C241.82,275.45,241.54,275.24,241.39,275.17z"/><path fill="#F6F2DD" d="M419.77,355.84l-4.78,3.16c1.9-4.15,1.22-7.65,0.08-12.46
		C418.44,348.73,418.76,352.35,419.77,355.84z"/><path fill="#F6F2DD" d="M531.36,333.69c-3.39-2.37-3.06-5.62-4-8.83C530.17,326.57,532.03,330.01,531.36,333.69z"/><path fill="#F6F2DD" d="M777.02,279.61c0.71,1.05,1.88-0.22,0.58-0.85l0.98,1.19l1.48,1.53l0.53,0.54
		c2.06,2.09,2.13,5.28,6.11,7.61c-1.05-0.72-2.1-0.25-3.42-0.01l-3.4-7.05l-0.49-0.56l-1.3-1.41L777.02,279.61z"/><path fill="#F6F2DD" d="M593.43,207.08c-0.74-0.39-0.5-1.33,0.27-1.39l0.9,1.12l0.58,0.6l0.48,0.65
		c1.95,2.66,4.72,5.12,5.25,9.06c-3.7-2.3-3.58-6.45-6.02-8.59l-0.45-0.4c-0.19-0.17-0.39-0.35-0.53-0.58
		C593.8,207.36,593.63,207.19,593.43,207.08z"/><path fill="#F6F2DD" d="M668.28,415.8c-0.19-0.14,1.51,0.28,0.2-1.46c0.46,1.29,0.92,1.54,1.02,1.68
		c0.11,0.15,0.29,0.36,0.5,0.48c0.22,0.12,0.42,0.29,0.49,0.51l0.51,1.48c0.06,0.17,0.24,0.41,0.94,0.91
		c-0.55-0.79-1.34,0-0.55,0.55c-0.54-0.69-0.77-0.86-0.93-0.95c-0.39-0.23-0.75-0.93-0.47-1.5l-0.5-0.5l-0.5-0.5L668.28,415.8z"/><path fill="#F6F2DD" d="M437.06,277.59c0.54,0.8,1.34,0.01,0.54-0.54c0.55,0.69,0.91,0.88,0.99,0.91
		c1.91-0.33,1.26,1.8-0.09,1.04L437.06,277.59z"/><path fill="#F6F2DD" d="M394.58,499.95c4.89,2.42,10.29,3.06,15.94,0.39c4.3-2.1,8-6.84,8.96-12.87
		c7.33-6.26,17.35-6.76,26.15-3.14c2.58,1.06,4.92,3.05,3.75,5.3c-6.58-3.86-20.44-5.55-24.92,1.36c-4.17,6.43-4.9,12.62-12.8,14.7
		c-6.24,1.65-14.06,0.7-17.97-4.9l-0.67-0.73c-0.8-0.33,0.95-0.46,0.75-0.95L394.58,499.95z"/><path fill="#F6F2DD" d="M624.57,351.91c8.01,5.64,17.24,7.6,27.53,7.57l124.85-0.41c8.24-0.03,16.24-3.05,22.61-7.41
		c7.08-4.85,11.56-12.15,14.11-19.95c2.98-9.15,0.61-16.98-2.52-26.35c12.46,15.08,8.83,36.88-5.89,48.92
		c-8.69,7.11-18.93,9.44-30.38,9.42l-126.51-0.25c-9.47-0.02-17.75-4.51-24.4-10.23c-0.05-0.66-0.39-0.89-0.64-0.98
		c-1.02-0.27-0.62-1.48,0.35-1.19L624.57,351.91z"/><path fill="#F6F2DD" d="M272.44,336.96l-25.84,4.59c-7.58,1.35-15.71,0.53-20.19-6.59c4.82,1.81,7.92,3.8,12.5,2.98
		l32.58-5.82c1.1,1.7,1.34,2.93,1.59,4.24c0.26,0.06,0.61,0.26,0.58,0.37l-0.35,1.2C272.93,337.31,272.61,337.14,272.44,336.96z"/><path fill="#F6F2DD" d="M809.06,303.6c0.54,0.8,1.34,0,0.54-0.54l1.34,1.34c-0.54-0.8-1.34,0-0.54,0.54L809.06,303.6z"/><path fill="#F6F2DD" d="M391.4,228.09c-0.95-0.54-0.02-1.95,0.8-0.79c0.05,0.15,0.23,0.45,0.4,0.67
		c4.43,5.7,5.32,14.19,0.95,20.68l-15.02,22.33l2.65,6.41l0.51,0.32c1.02,0.67-0.07,1.92-0.86,0.94l-0.44-0.59l-6.35-10.1
		l16.2-23.78c3.32-4.88,3.57-10.39,1.57-15.6L391.4,228.09z"/><path fill="#F6F2DD" d="M612.53,499.83c5.51,3.21,11.44,2.73,17.34-0.07c5.33-2.53,6.53-8.83,8.78-14.39
		c4.64-4.57,17.05-3.62,22.11,2.27c0.28,0.33,0.11,1.4-0.31,1.38c-2.99-0.14-11.32-5.64-18.38,0.01
		c-1.79,7.09-4.42,13.56-10.99,15.98c-6.96,2.56-15.22,1.4-19.34-4.17c-0.11-0.14-0.29-0.43-0.53-0.49
		c-1.44-1.34,0.8-1.35,0.54-1.16C612.29,499.52,612.44,499.8,612.53,499.83z"/><path fill="#ED6D5A" d="M555.83,471.94c-23.22-16.98-63.94-17.71-86.62,0.05c0.98-36.4,11.18-89.55,35.63-117.11
		c2.55-2.87,4.85-4.09,8.55-3.79c3.05,0.25,5.25,2.18,7.64,4.99C544.49,383.72,554.81,436.05,555.83,471.94z"/><path fill="#ED6D5A" d="M454.73,628.49c-2.46,6.51-8.26,11.84-12.94,16.05c-2.23,2.01-5.47,1.82-7.56,0.85
		c-12.79-5.95,15.78-46.39,29.98-57.73c7.6,6.03,15.27,10.36,24.15,12.91c-5.69,1.24-8.61,5.28-7.59,10.39
		c-0.1,11.43,7.67,20.29,18.69,20.79c10.71,0.49,19.66-7.33,21.28-19.17l24.56,16.16c1.39,0.91,3.24,0.1,3.92-0.98
		c0.64-1.02,0.95-3.16-0.81-4.2c-13.84-8.15-27.39-16.73-38.75-27.98c-2.56-2.54-2.94-6.81-1.76-9.16c1.55-3.08,6.12-4.54,9.71-2.91
		c11.51,5.24,21.86,12.35,32.42,19.41c2.65,1.77,5.17,2.5,8.58,2.57c3.14,13.51,11.14,46.38,6.53,50.01c-1,0.79-2.87,1.9-4.97,2.13
		c-30.67,3.41-61.49,4.23-92.16,0.8c-2.85-0.32-5.64-1.55-7.1-2.88c-5.22-4.73,1.33-33.49,3.57-47.56c0.28-1.73-1.12-3.17-2.39-3.47
		c-1.92-0.46-3.15,0.72-3.55,2.93L454.73,628.49z"/><path fill="#ED6D5A" d="M616.49,470.53c-18.28-10.56-38.59-10.63-54.72,1.54c-1.75-40.83-10.55-84.8-34.06-117.62
		c15.19,5.15,27.19,13.81,39.03,23.96C592.3,402.5,609.92,433.54,616.49,470.53z"/><path fill="#ED6D5A" d="M463.01,472.02c-16.18-11.99-36.68-12.24-54.26-1.52c7.74-48.89,41.59-99.07,88.41-115.87
		c-8.71,11.7-14.37,23.26-19.14,36.48C468.5,416.78,464.54,443.16,463.01,472.02z"/><path fill="#ED6D5A" d="M670.22,469.22c-15.73-8.35-33.44-8.81-47.27,2.44c-5.22-28.48-15.86-53.7-32.54-76
		c-12.68-16.95-28.06-29.6-46.21-41.03c31.63,5.6,59.15,20.4,82.08,41.01C647.19,415.56,663.03,439.52,670.22,469.22z"/><path fill="#ED6D5A" d="M402.21,471.59c-14.17-10.67-31.94-11.04-47.51-2.33c5.67-23.67,17.1-43.85,32.71-62.02
		c24.18-26.85,56.5-45.75,93.26-52.56c-20.18,12.57-37.05,27.32-50.28,46.74C415.72,422.1,407.05,445.14,402.21,471.59z"/><path fill="#F6F2DD" d="M495.2,563.5c0.13,6.13,4.66,8.89,8.41,11.91c3.57,2.88-5.31,10.77-0.09,22
		c-15.63-1.2-29.39-7.38-39.52-18.34c-9.94-10.77-12.98-25.72-7.08-39.41c9.12-0.5,17.37-3.42,24.49-9.69
		c7.66,2.83,15.12,4.46,24.12,3.81l-0.29,16.77c-0.06,3.2-1,4.46,0.08,7.79c1.02,3.12-0.03,7.41,0.17,10.61
		c-4.44-1.25-4.24-7.16-7.05-7.87C497.23,560.78,495.16,561.58,495.2,563.5z M492.94,542.54c-1.45-0.81-3.36-0.45-4.35,0.58
		c-2.52,2.61-2.54,8.33,0.33,10.53c1.43,1.1,4.01,1.1,5.42-0.68C496.43,550.31,495.77,544.12,492.94,542.54z M483.51,565.13
		c1.88-1.3,2.41-3.07,2.29-4.53c-0.41-4.87-9.15-7.26-15.38-4.24c-1.94,0.94-3.12,2.68-3.29,4.25c-0.2,1.78,0.53,3.79,2.39,4.91
		C473.65,567.98,479.23,568.09,483.51,565.13z"/><path fill="#F6F2DD" d="M523.91,580.13c-1.35-0.81-2.31-1.38-2.47-2.62c-0.22-1.71,0.45-2.97,2.11-4.03
		c5.53-3.52,8.14-11.05,4.85-12.48c-4-1.74-3.68,4.8-8.27,7.13l-0.3-37.2c4.5-1.85,8.19-3.85,12.21-6.85
		c8.87,10.71,21.16,16.86,35.36,15.76c8.6,21.87-3.28,41.4-24.46,51.68L523.91,580.13z M537.46,549.15c0.11-2.7-0.89-6.35-3.54-6.72
		c-3.83-0.53-5.17,3.29-5.02,6.52c0.15,3.04,1.64,5.64,4.46,5.57C535.62,554.47,537.33,552.31,537.46,549.15z M554.84,565.36
		c2.11-1.12,2.9-3.16,2.77-4.72c-0.47-5.36-9.9-7.56-15.81-3.99c-1.94,1.17-2.82,3.02-2.7,4.77
		C539.44,566.13,547.93,569.03,554.84,565.36z"/><path fill="#F4D178" d="M469.34,694.64c-1.32,0.05-1.88-2.2-1.41-3.01c0.45-0.77,0.86-2,2.12-2.65l8.07-4.2l-2.08-19.79
		l24.43,1.39l-2.42,27.08L469.34,694.64z"/><path fill="#F4D178" d="M547.38,683.37c5.36,1.79,10.8,3.83,10.96,7.11c0.04,0.82-1.05,2.37-2.49,2.35l-27.64-0.33
		l-3.3-26.45l23.82-1.33L547.38,683.37z"/><path fill="#96BC97" d="M480.41,522.85c-5.96,5.32-11.59,10.03-20.12,10.43c9.21-15.09,27.45-22.97,45.04-25.22l-0.05,19.71
		C496.37,528.7,488.65,526.81,480.41,522.85z"/><path fill="#96BC97" d="M535.59,519.02c-4.74-5.9-6.55,2.17-15.75,5.31l0.07-16.22c17.67,2.63,34.08,10.23,44.42,25.69
		C553.37,534.37,542.8,528.01,535.59,519.02z"/><path fill="#ED6D5A" d="M486.16,610.46c-0.09-2.39,1.03-3.74,2.38-3.91c4.88-0.62,0.31,10.64,9.27,13.19
		c4.35,1.24,8.59-1,10.54-5.44c1.4-3.2,1.02-6.56,0.78-10.33c2.41,0.66,4.15,2.34,5.19,3.57c1.74,2.08,0.66,5.51-0.04,7.73
		c-2.24,7.17-8.61,11.37-15.64,10.56C491.36,625.01,486.46,618.69,486.16,610.46z"/><path fill="#F4D178" d="M560.53,520.36c-7.26-6.26-14.05-10.66-22.52-13.66c4.31-4.86,11.36-6.61,17.18-3.45
		C560.67,506.2,563.93,513.5,560.53,520.36z"/><path fill="#F4D178" d="M485.44,506.81c-8.73,3.41-15.69,7.58-22.36,13.61c-2.94-6.42-0.39-12.96,4.58-16.3
		C473.07,500.49,480.49,500.51,485.44,506.81z"/><path fill="#ED6D5A" d="M503.28,611.79c-0.5,2.06-2.41,2.7-3.76,2.51c-3.7-0.54-1.5-6.2-4.6-11.27
		c3.24-0.32,5.6-0.01,8.62,0.5C503.87,606.21,504.01,608.78,503.28,611.79z"/><path fill="#ED6D5A" d="M556.52,599.69c-2.97-0.86-4.9-2.76-7.49-4.27c2.05-1.65,3.48-2.68,5.71-3.5L556.52,599.69z"/><path fill="#F6F2DD" d="M609.05,258.73c-3.79,5.43-10.22,8.81-17.06,8.8L464.1,267.5c-5.76,0-11.56-2.49-14.64-6.86
		c-4.42-6.27-1.87-13.97,3.09-19.01c8.56-8.7,21.11-10.46,31.02-3.14c0.97,0.72,2.71,0.69,3.63,0.26c0.72-0.34,1.47-1.48,1.58-2.96
		c1.18-15.49,9.45-29.76,23.49-36.32c9.18-4.3,19.14-2.94,26.38,3.92c9.85,9.33,9.97,20.53,13.08,21.29
		c4.15,1.01,9.19-11.91,20.12-9.64c13.18,2.74,8.82,19.53,10.57,21.99c2.43,3.42,12.36-5.42,23.19,1.4
		C612.41,242.69,613.99,251.66,609.05,258.73z"/><path fill="#F6F2DD" d="M789.39,311.19c6.7,3.95,8.29,12.3,4.58,18.81c-3.79,6.66-10.98,10.22-19.06,10.21l-126.79-0.05
		c-5.82,0-11.45-2.28-14.8-6.43c-4.47-5.54-2.49-12.62,1.8-17.53c8.66-9.9,22.3-12.17,32.87-4.17c0.89,0.67,2.35,0.51,2.98,0.22
		c1.07-0.49,1.61-1.8,1.74-3.36c1.2-15.09,9.07-28.8,22.58-35.56c7.03-3.52,15.16-4.45,21.98-0.62
		c15.02,8.44,14.72,24.39,18.38,25.19c1.39,0.3,3.05,0,3.93-1.35c4.48-6.88,12.85-10.81,19.54-7.41
		c10.86,5.52,4.37,19.42,7.59,21.66C770.22,313.27,778.24,304.63,789.39,311.19z"/><path fill="#ED6D5A" d="M483.51,565.13c-4.28,2.96-9.85,2.86-13.99,0.38c-1.87-1.11-2.59-3.12-2.39-4.91
		c0.18-1.57,1.35-3.31,3.29-4.25c6.23-3.02,14.97-0.63,15.38,4.24C485.92,562.06,485.38,563.83,483.51,565.13z"/><path fill="#1F1D1B" d="M492.94,542.54c2.82,1.58,3.49,7.77,1.39,10.43c-1.4,1.78-3.99,1.77-5.42,0.68
		c-2.87-2.19-2.85-7.92-0.33-10.53C489.59,542.08,491.49,541.72,492.94,542.54z"/><path fill="#ED6D5A" d="M554.84,565.36c-6.91,3.66-15.4,0.77-15.74-3.94c-0.13-1.75,0.76-3.6,2.7-4.77
		c5.9-3.56,15.33-1.37,15.81,3.99C557.74,562.21,556.95,564.25,554.84,565.36z"/><path fill="#1F1D1B" d="M537.46,549.15c-0.13,3.16-1.84,5.32-4.09,5.38c-2.82,0.07-4.31-2.53-4.46-5.57
		c-0.16-3.23,1.19-7.06,5.02-6.52C536.57,542.8,537.57,546.44,537.46,549.15z"/></svg>