<svg xmlns="http://www.w3.org/2000/svg" viewBox="0 0 1024 1024"><path fill="#161613" d="M687.33,369.03l4.46,21.08l3.48,15.04l5.72,26.88l2.34,9.92L709.9,473l0.53,2.17l13.58,62.77
		c0.16,0.75,0.13,1.52,0.61,2.18c0.03,1.58,0.62,3.45,1.18,4.96c0.2,0.54,0.18,1.26,0.19,1.8l3.79,17.14l2.6,11.13l1.44,7.91
		l6.58,30.05l4.5,20.89l0.6,2.15l0.47,1.88l3.28,15.02l3.55,16.98l1.65,7.01l6.31,30.08l6.53,30.98l6.99,32.14l4.34,20.77
		l4.42,21.04l2.77,18.04c-20.95,14.81-23.7,18.42-47.36,7.9l-2.98-9.49l-14.04-64.8l-13.38-1.03l-114.94-9.04l-12.17-0.96
		l-14.69-0.99l6.16,31.23l2.96,16.72c0.29,1.66,0.17,4.26-1.42,5.34c-7.42,5.03-14.81,9.44-23.28,12.56
		c-2.22,0.21-5.05-1.42-7.48-0.48l-19.48,94.87c-10.87,6.95-21.66,13.95-33.55,18.48c-7.9-0.73-16.2-3.44-23.39-6.1
		c-1.46-0.94-0.84-4.72-0.53-6.25l15.33-76.86l4.29-21.27c0.43-2.11,1.39-4.21,1.15-6.6l-7.03-0.57l-150.94-12.56l-6.06-0.41
		l-14.87-1l-2.66,10.06l-2.72,9.09l-10,34.21c-2.86,9.79-1.4,12.25-10.91,16.39l-7.26,3.17c-7.42,3.24-14.77,8.33-22.98,9.22
		c-6.71,0.72-13.77-3.15-20.34-4.18c-2.42-0.38-2.98-3.09-2.46-5l2.57-9.6l4.02-13.02l6.94-23.07l11.34-37.82l5.56-18.31
		l85.85-286.83l42.64-141.81c-5.14-2.16-10.28,0.2-11.92-6.01c-2.27-8.57-1.32-21.46,4.92-22.55l71.3-12.44l11.29-1.21
		c-9.26-9.37-16.24-20.63-17.62-33.29c-1.52-13.87,6.07-24.66,17.86-30.21c10.89-5.13,21.71-6.26,33.2-0.99
		c17.96,8.23,31.8,25.09,35.55,44.7c1.51,7.92-0.17,15.27-5.07,22.13l14.16,0.75c-0.99-5.52,0.3-9.44,1.62-14.22
		c2.33-8.44-3.13-25.23,0.71-34.37c1.64-3.91,7.63-5.96,11.78-6.99c22.48-5.58,45.71-5.46,68.28-0.42c4.06,0.91,9.5,3.07,11.05,6.86
		c2.41,5.88-0.59,12.86,0.3,18.91c1.09,7.42,1.47,13.75-0.04,21.19l0.06,11.97l53.72,2.26c2.78,0.12,6.08,1.02,6.85,4.01
		c1.85,7.15,1.95,15.02-0.05,22.04c-5.07,2.53-10.09,2.73-15.48,4.2L687.33,369.03z M487.11,236.86
		c-5.96-1.44-12.61-1.13-17.26,3.03c-5.05,4.52-6.99,11.93-5.43,18.88c7.24,32.14,42.16,51.88,56.73,41.01
		C538.4,286.92,519.05,244.55,487.11,236.86z M459.78,244.72c-3.39,1.71-4.67,3.47-5.96,6.37
		C457.75,251.18,460.56,248.86,459.78,244.72z M617.1,260.73c5.16-0.99,9.78-2.14,13.35-5.85c-8.44-5.08-17.37-5.73-26.49-6.61
		c-16.25-1.57-32.23-0.84-47.84,3.73c-2.85,0.83-5.43,1.62-7.75,4.17c3.55,2.77,7.41,4.02,11.77,4.85
		C578.85,264.58,597.89,264.41,617.1,260.73z M458.94,259.88c0.53-1.68-0.1-3.52-0.57-4c-0.69-0.73-6.56,1.6-7.14,3.1
		c-0.66,1.72-0.81,4.16,0.05,5.9C453.67,263.32,457.64,262.8,458.94,259.88z M623.65,275.42c4.39-0.85,5.24-2.27,6.54-4.36
		l0.05-8.92l-6.84,2.2L623.65,275.42z M608.22,279.18c0.53-4.84,0.46-7.65-0.18-11.62c-19.97,1.98-41.31,2.15-59.86-4.69
		c-0.03,3.2-1.09,7.73,0.95,10.06C555.83,280.6,592.18,281.57,608.22,279.18z M454.5,276.95l7.34-5.43c1.5-1.11-0.26-4.67-1.57-5.6
		c-3.32,1.37-5.91,2.79-8.27,4.95C452.54,273.25,453.18,274.87,454.5,276.95z M618.4,276.62c0.78-4.43,0.32-7.56,0.11-10.87
		l-5.39,1.04l0.29,11.13C614.47,278.37,618.18,277.9,618.4,276.62z M461.18,288.24l7.99-5.96l-3.98-6.51l-8.39,6
		C458.11,284.34,459.18,286.22,461.18,288.24z M630.48,288.71c0.99-3.3,0.75-6.3,0.37-9.95l-10.61,3.54
		c-11.61,2.5-22.99,3.39-35.25,3.15c-0.44,4.01-0.28,7.88,0.33,12.31C598.16,297.59,628.66,294.77,630.48,288.71z M555.05,294.05
		l-0.1-11.93l-6.35-2.42l0.28,9.5C548.95,291.83,552.22,293.5,555.05,294.05z M566.19,295.99l-0.49-11.64
		c-1.95-0.68-3.39-0.92-5.73-0.95c0.11,3.6-0.56,7.41,0.64,11.3C561.03,296.03,564.41,296.57,566.19,295.99z M580.25,297.51
		l-0.63-11.91c-3.29-0.55-6.18-1.04-9.23-0.3l0.98,11.64L580.25,297.51z M485.68,298.68c-5.06-3.74-9.31-7.53-13.45-12.46
		l-8.07,6.02c4.27,5.01,8.72,9.56,14.59,12.55L485.68,298.68z M630.19,304.58l-0.1-8.44c-1.49-0.13-3.93,0.79-4.19,1.95
		c-0.82,3.71-0.28,7.1-0.05,10.82C628.23,308.61,630.22,307.26,630.19,304.58z M551.12,309.05c0.3-7.76,1.56-11.27-4.42-12.65
		l-0.16,8.05C546.48,307.13,548.29,309.11,551.12,309.05z M620.37,309.58l0.17-10.26c-1.75-0.03-3.36,0.26-5.28,1.02l0.05,11.02
		C616.43,311.88,620.34,311.32,620.37,309.58z M610.48,312.47l-0.46-11.43c-18.27,2.32-35.75,2.44-53.5-1.07l0.03,11.5
		C574.55,314.76,592.5,315.18,610.48,312.47z M491.07,309.94c2.73-1.12,4.3-3.22,5.83-4.59c-1.9-1.26-4.64-3.55-6.73-3.17
		c-2.69,0.79-4.63,3.48-6.98,5.24C485.05,308.63,488.23,311.1,491.07,309.94z M553.65,316.09c-5.78-1.24-9.86-3.83-12.65-8.46
		l-20.83-0.25c-3.36,0.97-6.78,4.16-9.76,5.93c-14.24,8.45-27.64,0.87-40.87-7.62c-4.67-2.13-11.16,0.02-16.14-0.47l-46.65,9.17
		l81.51,4.1l121.61,5.31l60.79-11.56l-36.36-2.09c-4.17,3.03-8.48,4.71-13.58,5.78C598.77,320.51,576.08,320.9,553.65,316.09z
		 M507.64,308.04c-4.38-2.46-8.02-0.22-9.7,3.78C501.67,311.01,504.34,310.18,507.64,308.04z M691.11,329.73
		c0.96-5.84,0.83-10.55-0.24-15.82l-78.4,14.6l1.05,15.88L691.11,329.73z M380.71,318.6l-0.74,16.58l228.25,10.15l0.74-16.58
		L380.71,318.6z M763.37,837.81c6.71-3.44,12.02-6.39,17.31-10.88l-77.31-359.12l-28.33-128.96l-22.21,3.95l44.94,200.41
		l40.02,180.83L763.37,837.81z M392.7,336.91l-158.46,534.9l16.23,4.81l158.46-534.9L392.7,336.91z M404.25,410.13
		c1.7-3.62,3.21-4.02,2.72-8.44c-0.36-3.26-1.26-9.73,1.03-12.62c4.12-5.18,11.16-5.89,17.15-7.85l11.04-38.53l-22.23-0.88
		l-36.42,121.76l25.77-10.14c4.88-6.78,3.83-17.78,0.7-26.51C402.56,422.84,402.37,414.13,404.25,410.13z M460.38,378.07l-6.7-34.49
		l-10.55-0.42l6.82,35.48C453.84,378.62,457.27,379.37,460.38,378.07z M488.01,382.4l-7.01-37.6l-22.04-1.05l6.84,35.34
		C473.71,379.47,480.51,380.8,488.01,382.4z M649.26,342.77l-12.3,2.66l62.19,287.21l12.3-2.66L649.26,342.77z M506.24,453.7
		l52.75,1.7l20.84-106.29l-93.46-4.24l7.46,40c4.5,1.8,6.46,5.55,5.63,10.12c0.31,5.8,0.89,11.4-0.91,17.09L506.24,453.7z
		 M587.36,563.32c-3.01,0.67-3.44,2.9-4.79,4.18c-1.52,1.44-3.33,1.06-4.22-0.18c-0.62-0.88-0.45-2.38,0.49-3.47l7.02-8.11
		c-4.16-19.62-6.57-50.53,13.7-53.18l30.47-155.75l-23.62,3.7L574.9,511.96l-25.39,128.63l-32.85,167.09l-22.26,114.84l24.42-13.86
		l21.77-106.14l12.58-63.61L587.36,563.32z M585.61,347.02l-114.69,574.3l17.76,3.55l114.69-574.3L585.61,347.02z M444.43,378.72
		l-5.16-26.99l-8,28.47L444.43,378.72z M593.54,559.35l-3.15,17.96l92.35,3.31l-21.42-99.91l-27.59-124.58L607.3,489.84
		c4.28-4.73,5.06-10.81,9.79-14.79c7-7.43,15.53-12.85,24.75-17.19c2.52-1.19,4.97-0.16,5.95,2.41
		C665.22,505.86,637.32,544.59,593.54,559.35z M481.32,396.91c5.05-1.02,9.43-2.4,12.67-5.67c-4.56-3.09-8.62-4.25-13.28-5.09
		c-19.33-3.48-38.94-3.12-58.04,1.35c-3.78,0.88-7.12,1.77-10.47,4.68c2.7,2.86,6.21,3.99,10.07,4.76
		C441.64,400.77,461.45,400.91,481.32,396.91z M494.25,408.18l0.3-10.26c-14.84,6.63-31.7,7.21-48.75,7.05l0.18,11.38
		C461.68,416.31,481.29,415.68,494.25,408.18z M417.87,411.86c0.28-4.07,0.7-6.76-0.13-9.84c-0.44-1.65-3.66-2.56-5.54-2.63
		c0.19,3.16-0.56,6.75,0.62,10C413.38,410.93,416.43,411.91,417.87,411.86z M428.33,414.11l-0.34-10.19
		c-0.62-1.03-3.49-1.33-4.81-0.9l0.33,10.35C424.92,414.26,426.53,414.82,428.33,414.11z M441.05,415.9l-0.3-10.83
		c-2.58-0.72-4.82-0.83-7.59-0.8l0.22,11.1L441.05,415.9z M455.57,432.67l-0.06-11.25c-16.23,0.19-32.66-0.74-47.31-7.28
		c0.11,3.44-0.9,8.01,0.75,11.04c2.85,2.93,8,3.88,12.02,4.79C432.52,432.58,443.81,433.14,455.57,432.67z M484.55,428.17
		c3.65-0.74,4.28-1.81,5.49-3.28l0.44-8.47c-2.27-0.2-4.4,0.31-6.05,1.7L484.55,428.17z M479.37,429.38l0.35-10.23l-5.14,0.57
		l0,11.14C476.32,431.13,479.34,430.47,479.37,429.38z M469.53,431.44l0-10.99l-9,1.05l-0.05,10.98
		C463.7,432.42,466.53,432.45,469.53,431.44z M493.52,440.37l-0.11-9.71c-2.49,0.27-6.14,1.47-6.11,3.38l0.14,10.64
		C489.86,444.97,493.55,443.44,493.52,440.37z M417.6,444.85c-0.08-3.43,0.86-7.08-0.48-10.02c-0.84-1.5-4.39-2-5.9-1.94
		c-0.32,3.01-0.56,5.93,0.53,8.49C412.69,443.58,415.61,444.55,417.6,444.85z M482.29,446.35l-0.36-11.55
		c-15.94,3.43-31.51,3.76-47.7,2.46l0.39,11.06C450.92,449.83,466.55,449.41,482.29,446.35z M429.33,447.39
		c0.13-4,0.63-7.06-0.5-10.16c-0.96-1.21-3.98-1.51-6.21-1.33c-0.1,2.8-1.11,6.63,0.16,9.55
		C423.62,447.39,427.64,447.96,429.33,447.39z M493.1,460.28c6.26-0.41,5.74-5.44,4.77-13.35c-1.71-0.03-4.97,1.25-4.94,2.97
		L493.1,460.28z M421.62,462.01l-0.09-10.36c-2.6-1-4.84-1.76-7.22-1.84c-0.1,3.13-0.66,6.03,0.5,8.53
		C415.95,460.76,419.48,461.73,421.62,462.01z M487.61,461.39c0.62-3.51,0.52-7.31,0.02-10.19c-0.5-1.04-4.41-0.41-4.4,0.72
		l0.09,10.98C484.34,463.43,487.32,463.04,487.61,461.39z M431.54,464.03l-0.46-10.21c-0.06-1.31-4.34-1.53-4.33-0.22l0.06,9.57
		C428.26,463.78,429.26,464.18,431.54,464.03z M478.18,464.02l-0.29-11.55c-13.78,1.76-26.94,2.27-41.14,1.22
		c-0.51,4.12-0.27,7.49,0.29,11.5C450.72,466.3,464.07,465.95,478.18,464.02z M425.28,468.85c-5.15-2.04-10.49-2.59-14.5-6.67
		l-2.01-4.7l-25.21,10.13L425.28,468.85z M555.1,475.16l2.97-14.56l-54.1-2.11c-6.44,10.91-26.07,10.34-39.06,12.13L555.1,475.16z
		 M591.09,550.77c13.33-12.97,23.19-26.24,31.61-41.03c5.84-10.26,9.83-20.58,13.25-31.76c0.48-1.56,3.88-1.08,4.27,0.26
		c0.31,1.05,0.55,2.37,0.02,4.08c-8.12,25.99-22.84,48.49-41.51,68.92c36.84-14.44,59.06-49.31,44.38-87.95
		c-16.44,8.21-30.61,19.18-30.88,37.75l-0.62,14.59c-0.06,1.46-2.86,1.49-3.65,0.94c-2.78-1.94-3.26-7.27-7.77-8.2
		c-6.29-1.29-10.54,7.6-11.6,16.58C588.22,533.66,587.79,542.42,591.09,550.77z M551.51,493.95l2.55-13.68l-178.01-7.7
		c-1.76,4.48-1.92,8.88-0.95,13.48L551.51,493.95z M368.85,538.48c1.29-4.6,7.75-6.16,11.94-7.73l5.17-17.84l-16.9-21.42
		l-35.09,121.07l27.39-11.46l10.61-37.81C366.7,559.89,367.14,544.53,368.85,538.48z M466.81,579.69c-0.6,4.38,2.3,10.65-1.25,14.25
		c-1.82,1.85-5.59,6.93-2.04,9.29l23.48,1.67l-19.67-109.46l-70.13-3.27l-10.23,36.9c21.12-3.72,41.94-3.49,62.59,1.28
		c3.97,1.61,10.28,2.91,10.57,7.32l1,15.02C470.03,556.22,468.46,567.57,466.81,579.69z M504.67,605.47l-20.16-108.91
		c-3.89-0.82-7.52-1.06-11.63-0.68l19.69,109.19C497.19,605.55,500.82,606.19,504.67,605.47z M525.49,575.73l-14.91-78.14
		l-20.81-0.99l16.25,86.93L525.49,575.73z M535.35,574l15-74.77l-34.41-1.5l14.54,76.6C531.44,575.17,535.08,575.36,535.35,574z
		 M446.31,544.04c3.9-0.88,6.89-2.33,8.85-4.62c-2.77-2.68-5.76-3.69-9.22-4.48c-19.82-4.54-40.17-4.33-60.09-0.11
		c-4.43,0.94-8.5,2.23-12.44,5.3c3.42,3.64,8.06,4.9,12.92,5.71C406.1,549.13,426.33,548.56,446.31,544.04z M451.43,559.07
		c3.88-0.86,4.56-2.81,4.53-5.01l-0.1-7.71c-1.83-0.12-4.67,0.91-4.92,2.61C450.41,552.59,450.9,556.15,451.43,559.07z
		 M379.99,560.88l0.34-10.98l-7.08-2.66c0.26,2.99-0.56,6.22,0.57,9.11C374.69,558.61,377.91,559.71,379.99,560.88z M446.05,560.9
		l-0.36-11.29c-16.06,3.46-31.95,4.43-48.85,3.01c-0.73,3.9-0.58,7.49,0.23,11.5C413.62,565.44,429.57,564.26,446.05,560.9z
		 M391.77,563.08l-0.22-10.93c-2.08-0.72-4.08-0.99-6.34-1.08l0.25,11.17C387.79,562.92,389.83,563.28,391.77,563.08z
		 M462.67,572.58l-0.3-10.71c-1.86,0.19-4.57,1.23-4.93,2.41l-0.15,12.25C459.64,576.68,462.75,575.21,462.67,572.58z
		 M384.85,578.05l0.11-10.8l-7.28-1.66c-0.22,3.36-0.5,6.39,0.88,8.94C379.69,576.59,382.8,577.48,384.85,578.05z M451.84,566.08
		c-0.67-0.88-4.34-0.07-4.33,1l0.11,11.21c0.01,0.93,2.61,0.9,3.42,0.27C453.26,576.82,452.76,571.55,451.84,566.08z M394.61,579.61
		c0.62-3.88,0.4-7.19-0.19-10.3c-0.36-0.9-3.01-1.26-4.33-0.92c-0.19,3.31-0.45,6.74,0.34,10.35
		C390.7,580.01,394.45,580.65,394.61,579.61z M442.59,580.04l-0.41-12.32c-14.62,2.52-28.46,2.59-42.49,1.58l0.48,11.89
		C414.53,582.3,428.54,582.07,442.59,580.04z M370.47,588.82l-2.42,7.27c-0.31,0.94,0,1.55,0.45,1.92c2.16,1.77,0.36-4.08,3.42-9.21
		c0.95-0.34,1.98-0.94,2.64-2.15c-0.05-2.99,0.22-5.62-1-8.83L370.47,588.82z M532.97,587.15l1.05-6.77
		c-2.35-0.24-4.45-0.44-6.3,0.38l-12.35,5.51L532.97,587.15z M461.72,589.93c0.49-3.09,0.22-5.69-0.11-8.96
		c-16.08,5.08-32.43,6.3-49.31,6.05l0.04,11.3C425.57,599.25,460.81,595.59,461.72,589.93z M384.15,593.93
		c0.52-3.13,0.92-7.42-0.05-10.02c-0.57-1.54-3.65-2.13-4.73-2.01l0.39,9.51C379.82,592.86,382.71,594.69,384.15,593.93z
		 M685.06,594.16c0.24-3.94-0.54-5.51-1.46-8.22l-93.59-3.44c-1.83,2.26-2,5.49-1.45,7.45L685.06,594.16z M395.17,596.77
		c0.31-3.37,0.9-7.09-0.34-10.6c-0.38-1.08-3.54-1.52-4.97-1.13c-0.16,3.39-0.58,6.54,0.21,10.03
		C390.37,596.39,393.35,597.09,395.17,596.77z M407.34,597.83l-0.32-10.74l-6.61-0.62l0.04,10.91
		C402.74,598.2,404.67,598.54,407.34,597.83z M528.71,606.67l2.96-14.24l-24.13-1.07l3.02,14.82L528.71,606.67z M689.83,614.86
		l-3.18-15.49l-99.54-4.31l-2.95,14.95L689.83,614.86z M381.26,610.62l-0.08-11.34l-6.41-3.45c-0.2,3.97-0.99,7.65,0.23,11.25
		C375.8,609.48,379.39,610.68,381.26,610.62z M451.51,610.07c2.78-0.19,5.24-1.55,5.75-3.59c0.68-2.71,0.23-5.25,0.17-7.79
		c-2.7,0.26-4.22,0.68-6.13,1.55L451.51,610.07z M392.31,612.96c-0.02-4.49,0.46-7.52-0.66-10.72c-0.49-1.43-4.18-1.91-5.25-1.27
		c-0.15,3.83-0.69,7.28,0.11,10.85C387.01,613.05,390.55,613.77,392.31,612.96z M446.72,611.41l-0.2-9.96
		c-2.24-0.34-4.2-0.16-6.54,0.69l0.17,10.62C442.58,612.72,444.44,612.46,446.72,611.41z M435.05,613.78l-0.53-10.98
		c-12.81,1-24.25,1.13-36.99-0.27l0.01,11.41C409.96,615.54,422.16,615.08,435.05,613.78z M452.74,615.31
		c-22.21,6.5-55.81,7.1-76.38-0.5c-5.06-1.87-6.93-5.17-7.91-11.17l-29.2,14l184.84,11.57l3.37-17.02l-65-3.21
		C460.01,612.33,456.86,614.1,452.74,615.31z M694.03,634.2l-3.13-14.01l-107.82-5.08l-11.34,58.02L694.03,634.2z M520.11,648.68
		l3.14-14.34l-192.59-12.2c-0.96,5.07-0.99,9.87,1,13.91L520.11,648.68z M709.85,645.82c0.72-4.56,0.39-7.82-1.68-10.66
		l-137.26,43.6l-2.59,12.17C616,677.47,662.83,662.8,709.85,645.82z M325.19,695.4c1.05-4.36-0.8-9.76,0.99-13.18
		c2.58-4.92,8.96-5.5,13.57-7.23l3.65-12.88l-18.17-21.44l-36.78,125.82l27.87-12.55l9.88-33.96
		C326.36,719.42,321.15,712.17,325.19,695.4z M428.26,647.64l-73.85-4.97l-7.67,27.78L428.26,647.64z M390.15,673.37l81.18-22.82
		l-24.93-2.27l-83.56,23.38L390.15,673.37z M742.25,833.79c5.84,2.2,10.36,3.92,15.7,4.49l-27.79-124.31l-14.57-65.95
		c-3.75,3.32-7.72,4.03-11.96,5.67l22.45,105.09L742.25,833.79z M419.49,747.05c1.31,3.7,0.29,7.13,0.69,10.99l77.31,5.77
		l10.29-51.71l-11.18-59.57c-4.21-1.37-7.97-1.24-12.14-0.07l-81.87,22.99c3.31,2.47,8.95,3.01,9.27,6.66l1.97,22.44
		c1.81,2.2,7.17,3.19,7.54,6.88l1.44,14.41C423.62,733.81,413.37,729.74,419.49,747.05z M516.53,667.41l-2.05-13.81
		c-4.4-0.73-8.08-1.23-12.54-0.85l8.54,43.73L516.53,667.41z M713.04,723.76l-14.44-68.41c-44.36,15.71-87.42,28.69-131.42,41.5
		l-3.12,16.78L713.04,723.76z M398.44,688.07c3.4-0.74,6.03-1.95,8.42-4.17c-4.64-2.95-9.16-3.83-14.17-4.66
		c-16.29-2.7-32.67-2.48-48.91,0.41c-4.55,0.81-8.74,2.17-12.13,4.98c4.07,3.15,8.34,4.08,12.97,4.85
		C362.43,692.41,380.4,691.98,398.44,688.07z M336.99,703.04c0.52-4.04,0.95-7.16-0.4-9.47c-1.31-1.57-4.4-1.87-6.2-2.22
		c-0.1,2.52-0.64,5.49,0.49,7.91C331.89,701.38,334.88,702.61,336.99,703.04z M401.64,702.39c2.52-0.43,5.18-1.79,5.69-3.73
		c0.73-2.77,0.14-5.44,0.1-8.07l-5.93,2.07L401.64,702.39z M396.49,702.91l-0.47-8.85c-1.64,0.01-2.78,0.3-3.88,0.71l0.36,9.65
		C393.91,705.14,396.57,704.39,396.49,702.91z M347.64,704.86c0.13-3.9,0.69-6.63-0.42-9.07c-0.73-1.05-3.8-1.25-5.07-0.73
		c-0.18,3.07-0.65,6.48,0.69,9.1C343.46,705.38,346.97,705.55,347.64,704.86z M387.03,705.64l-0.13-10.36
		c-11.79,1.7-22.81,1.35-34.38,0.9l0.48,9.9C364.53,706.99,375.37,706.72,387.03,705.64z M384.53,719.46l-0.15-8.57
		c-18.41,1.46-39.08,1.88-55.32-5.12c-0.72,2.29-1.05,6.23,0.37,7.73c4.47,3.29,10.17,4.23,15.66,5.06
		C358.31,720.56,371.19,720.74,384.53,719.46z M407.67,713.3c1.54-2.41,0.82-5.53,0.7-7.63l-8.87,2.87l-0.07,8.35
		C401.88,716.3,405.96,715.97,407.67,713.3z M394.25,717.37l0.17-7.8c-2.14,0.22-3.37,0.55-4.61,1.21l0.17,7.69
		C391.52,718.75,394.23,718.26,394.25,717.37z M416.62,727.67c1.76-3.06,0.6-7.19,0.22-11.05l-10.75,4.47
		c-11.54,3.16-23.05,4.14-35.11,4.47l0.21,11.43C383.74,737.28,413.59,732.95,416.62,727.67z M561.88,718.37l-0.52,7.37
		l154.25,10.93l0.52-7.37L561.88,718.37z M341.99,723.76l-6.39-1.31c-0.97,6.16,0.54,10.79,6.97,11.68L341.99,723.76z
		 M353.76,735.97l-0.8-10.75c-2.04-0.64-3.66-0.81-5.86-0.77l0.51,10.86C349.73,736.15,351.9,736.47,353.76,735.97z M365.97,725.19
		l-7.82,0.21l0.31,11.88l7.82-0.21L365.97,725.19z M720.02,758.19l-3.17-16.14l-156.59-11.53l-2.74,14.97L720.02,758.19z
		 M391.04,751.79l-0.3-11.1c-18.87,1.73-42.02,3.48-58.51-5.04c-0.3,3.55-1.04,7.76,0.91,10.24
		C339.06,753.41,375.3,753.86,391.04,751.79z M406.94,748.2c2.21-0.34,4.82-1.71,5.31-3.74c0.64-2.68,0.3-5.22,0.11-8.03
		c-1.31-0.22-4.83,0.38-5.31,1.6C406.03,741.37,406.6,744.56,406.94,748.2z M326.45,737.89l-3.63,13.17
		c-0.15,0.55,2.09,0.91,2.54,0.58C325.67,751.41,328.01,742.49,326.45,737.89z M401.73,748.91l-0.13-9.66
		c-1.36-0.29-5.16,0.09-5.53,1.51l0.13,9.95C397.92,751.11,401.75,750.49,401.73,748.91z M414.95,750.88
		c-2.23,0.52-3.7,1.41-5.7,2.6l0.27,10.88C416.24,763.89,415.51,759.28,414.95,750.88z M570.38,800.69l-9.51-49.32
		c-0.8-0.84-3.98-1-4.63-0.13l-7.73,38.71l4.6,20.62L570.38,800.69z M338.03,765.35l-0.32-11l-6.51-2.38l0.13,9.73
		C333,763.86,335.3,765.14,338.03,765.35z M404.48,766.24l-0.47-11.56c-16.4,3.76-32.35,3.96-49.18,2.71
		c-0.63,4.3-0.37,7.71,0.29,11.44C371.82,769.99,387.86,769.7,404.48,766.24z M349.82,767.89l-0.46-11.12l-6.59-0.97
		c-0.29,4.03-0.14,7.19,0.58,10.83C345.57,767.65,347.63,768.01,349.82,767.89z M408.84,770.48c-19.54,5.13-39.26,5.21-58.93,2.82
		c-7.07-0.86-13.58-2.24-19.77-5.44c-5.99-3.09-3.07-9.76-4.62-10.94c-0.38-0.29-2.11-0.62-2.67-0.34l-29.61,14.8l199.44,16.22
		l3.71-18.66l-75.92-5.68C417.78,767.32,413.89,769.16,408.84,770.48z M488.16,808.1l3.21-15.41l-206.08-16.71l0.2,14.4l17.74,2.32
		L488.16,808.1z M284.69,860.46l12.38-42.55l-17.53-21.75l-22.56,77.23L284.69,860.46z M547.81,811.33l-1.33-7.4
		c-1.65,2.22-1.68,4.74-1.76,7.18C545.2,811.71,546.86,811.95,547.81,811.33z"/><path fill="#FBFBFB" d="M470.92,132.68c-1.18,19.95,10.32,38.16,27.77,47.41c12.11,6.42,24.28,3.95,35.53-2.94
		c8.57-5.25,16.21-10.87,19.31-21.06c4.59,0.61,1.78,5.43,8.93,8.07c-20.52,20.32,4.2,60.65,37.67,71.43
		c6.43,2.07,13.85,2.14,19.36-1.09c6.3-3.68,11.82-8.05,17.1-12.91c5.47-5.04,7.14-12.95,6.51-20.11c3.11,0.55,7.54-1.18,10.44-1.25
		c3.51,2.66,3.63,8.5,3.44,12.72c3.14,2.05,6.68,1.08,10.01,0.64c-1.28,9.05-6.49,17.59-11.45,24.53c4.19,9.35,6.14,19.29,3.72,30.1
		l1.25,13.47l31.39,1.29c15.22,0.62,26.95,12.04,29.12,27.22c2.32,16.23,1.93,29.32-8.52,40.59l-1.76-5.28
		c-0.68-2.51-1.35-4.95-3.2-5.36c-1.4-0.31-4.48,0.76-4.8,2.63c-0.92,5.43-4.46,8.23-7.41,12.73c-0.62,6.3-3.04,13.23-8,13.51
		l-7.12-31.43c5.39-1.47,10.41-1.67,15.48-4.2c2-7.02,1.9-14.9,0.05-22.04c-0.78-2.99-4.07-3.9-6.85-4.01l-53.72-2.26l-0.06-11.97
		c1.52-7.44,1.13-13.77,0.04-21.19c-0.89-6.05,2.11-13.03-0.3-18.91c-1.55-3.79-6.99-5.95-11.05-6.86
		c-22.56-5.03-45.8-5.15-68.28,0.42c-4.16,1.03-10.14,3.09-11.78,6.99c-3.84,9.14,1.62,25.94-0.71,34.37
		c-1.32,4.78-2.61,8.7-1.62,14.22l-14.16-0.75c4.9-6.87,6.58-14.22,5.07-22.13c-3.75-19.61-17.59-36.46-35.55-44.7
		c-11.5-5.27-22.32-4.14-33.2,0.99c-11.79,5.55-19.38,16.35-17.86,30.21c1.39,12.66,8.36,23.92,17.62,33.29l-11.29,1.21l-71.3,12.44
		c-6.24,1.09-7.19,13.98-4.92,22.55c1.65,6.21,6.78,3.85,11.92,6.01L345.1,483.08l-85.85,286.83c-2.73-0.37-4.63-2.96-4.19-6.02
		l0.99-6.94c-3.21-0.65-5.4-1.97-6.9-3.72c-5.02-5.86,1.14-10.18-0.18-13.66c-0.73-1.9-3.44-1.91-5.74-1.94l111.64-373.76l2.52-9.11
		c0.61-2.19-1.74-4.82-3.36-5.69c-0.6-2.29-1.52-4.47-2.19-7.12c-2.5-9.84-2.76-20.31-0.28-30.23
		c2.82-11.28,11.21-20.71,22.52-22.76l34.05-6.17c0.81-0.15,2.15,0.16,2.55-0.52c0.2-0.33,0.27-0.91,0.35-1.27
		c0.31-0.26,1.12-0.38,1.55-0.22c3.28,1.23,7.46,0.22,10.88-1.36c-3.51-10.58-3.15-20.07-1-30.68c-13.4,1.63-24.33-5.68-28.7-17.6
		c-1.62-4.42-4.47-7.37-8.9-8.87c-11.38-3.83-18.74-12.86-19.6-23.93c-0.88-11.34,4.84-21.52,15.07-27.09
		c4.75-2.58,7.45-5.83,8.75-11.17c3.02-12.42,13.55-21.1,25.51-21.84c12.65-0.78,24.19,6.35,28.65,18.55
		c1.6,4.39,4.3,7.43,9.14,7.68c-2.97-7.03-4.09-12.99-5.08-19.2c2.16-0.67,7.46-1,8.44-3.19c2.02-4.59,4.42-5.87,8.87-6.69
		C466.3,135.1,468.27,131.3,470.92,132.68z M429.38,205.39c6.24-8.79,17.47-9.53,16.29-14.65c-0.92-3.98-11.98-3.3-19.03-11.37
		c-6.47-7.41-6.06-17.36-11.07-16.33c-3.57,0.74-3.03,12.3-9.98,20.56c-6.66,7.92-16.66,8.17-15.72,12.85
		c0.69,3.44,11.61,3.58,18.31,10.36c6.99,7.08,7.25,18.01,11.17,17.74C424.61,224.19,423.13,214.2,429.38,205.39z"/><path fill="#FBFBFB" d="M783.06,812.05c2.82,0.16,4.85-1.26,7.54-2.66c2.27-1.17,5.63,1.87,5.47,4.47
		c-0.46,7.46,0.66,14.4,4.52,20.72l8.6-0.59c-0.98,7.28-5.44,13.89-11.78,18.48c-7.29,5.28-15.13,9.87-23.24,13.65
		c-11.66,5.43-23.33,2.68-34.96-1.04c-13.56-4.34-24.05-12.85-27.18-27.36l-11.05-51.22l-8.03-0.92c0.75-2.07,2.71-3.96,5.08-3.72
		l9.49,0.97c0.61-2.63-1.1-5.6-0.18-7.33c1.52-2.86,4.68-3.38,7.57-5.46c-1.72-2.35-3.76-2.84-6.19-3.91
		c-0.85-0.42-0.79-2.76-0.64-3.47l13.38,1.03l14.04,64.8l2.98,9.49c23.66,10.53,26.4,6.92,47.36-7.9L783.06,812.05z"/><path fill="#161613" d="M586.38,152.1l3.64-0.06c4.24-0.07,8.82,0.88,13.03,2.58c5.29,2.13,10.44,4.57,15,7.98
		c3.7,2.76,7.98,5.36,10.61,9.04l9.19,12.86l4.7,11.6c0.49,1.21,0.39,3.5,0.55,5.36c0.63,7.17-1.03,15.07-6.51,20.11
		c-5.28,4.87-10.81,9.23-17.1,12.91c-5.51,3.23-12.93,3.16-19.36,1.09c-33.47-10.78-58.19-51.11-37.67-71.43
		c4.8-4.76,10.74-7.61,16.82-10.32C581.49,152.86,583.93,152.14,586.38,152.1z M637.67,208.14c0.94-6.24-0.45-12.31-3.03-17.87
		c-12.68-27.29-47.46-41.25-58.07-27.7c-12.81,16.37,9.76,52.46,41.11,58.69C627.62,223.24,636.13,218.42,637.67,208.14z
		 M562.26,174.2c5.17-0.67,6.54-3.93,6.32-8.22C565.65,168.25,562.88,170.81,562.26,174.2z M568.31,182.8c1.12-1.42,0-4.31-1.02-4.9
		c-2.41,1.21-5.2,1.83-6.59,3.67c-1.18,1.56-0.67,4.67,0.47,6.5C563.5,186.57,566.3,185.35,568.31,182.8z M565.65,199.34
		c2.65-1.96,5.21-3.4,7.04-5.77c0.44-1.4-1.12-3.87-2.17-5.5c-2.28,1.49-5.46,2.65-7.39,5.41
		C562.25,194.75,563.84,197.89,565.65,199.34z M575.56,197.68l-8.15,6.64l5.05,6.2l8.15-6.64L575.56,197.68z M598.15,219.22
		c-5.96-3.3-10.14-7.29-14.79-11.84l-7.52,7.03c4.73,4.53,9.75,8.71,15.64,11.65L598.15,219.22z M604.43,230.26
		c2.35-1.6,3.54-3.46,5.16-5.3c-1.9-1.18-4.54-3.01-6.59-2.68c-2.43,0.84-4.01,3.85-6.39,6.01
		C598.25,229.84,602.17,231.8,604.43,230.26z M621.07,227c-4.62-1.83-7.66-0.48-9.45,4.28C615.7,230.47,617.85,229.19,621.07,227z"/><path fill="#161613" d="M512.98,93.69c4.57-0.62,9.72,0.59,14.15,2.76c3.79,1.87,7.76,3.92,10.75,6.92l5.07,5.07l6.87,10
		c2.8,4.08,4.63,9.03,5,13.95l0.96,12.95l-2.25,10.74c-3.1,10.19-10.74,15.82-19.31,21.06c-11.25,6.89-23.41,9.36-35.53,2.94
		c-17.45-9.25-28.96-27.46-27.77-47.41l0.29-4.97c0.25-4.21,1.85-8.16,3.68-11.67c1.74-3.33,3.77-7.02,6.58-9.89
		c2.09-2.13,4.65-4.43,7.13-5.82c4.37-2.45,8.92-4.54,13.8-5.2L512.98,93.69z M541.14,165.61c7.79-7.53,10.43-18.25,8.97-28.63
		c-2.19-15.67-11.7-29.7-26.05-35.93c-7.11-3.08-14.41-3.27-21.6,0.47c-4.88,2.54-9.38,8.02-11.31,14.93
		c-5.63,20.18,3.64,42.33,22.24,52.03C522.59,173.27,533.4,173.09,541.14,165.61z M484.47,125.8c-0.28-7.42,2.38-12.62,4.64-19.02
		c-7.39,5.45-11.2,13.33-12.55,22.25C479.89,128.75,482.27,127.9,484.47,125.8z M487,143.68l-2.6-11.38l-8.14,2.97
		c-0.14,4.48,0.88,8.2,2.03,12.79C481.41,147.06,484.05,145.74,487,143.68z M488.6,148.45l-8.64,4.52l3.35,6.39l8.64-4.52
		L488.6,148.45z M492.04,168.58l6.8-3.93c-0.61-1.97-2.85-4.94-4.69-5.19c-2.89,0.66-5.36,2.68-7.55,4.2
		C487.99,165.65,490.22,168.62,492.04,168.58z M521.15,176.8c-6.65-1.74-12.66-4.3-18.04-8.82l-7.08,4.56
		C503.19,176.81,511.8,180.94,521.15,176.8z"/><path fill="#73A182" d="M354.86,363.88L243.23,737.64l-11.79,39.13l-0.93,3.11l-15.1,49.98l-5.05,16.89l-5.95,22.13
		c-1.44,14.45,6.43,27.45,20.04,31.79l22.71,5.33c6.23,1.46,12.72-0.6,18.56-3.19l30.49-13.47l3.99-2.89
		c5.43-3.92,10.48-8.68,12.47-15.05l4.19-13.48l2.03-0.29l-3.4,11.13c-2.85,9.33-9.03,17.42-18.14,21.53l-30.93,13.97
		c-8.28,3.74-17.31,4.33-26.11,2.21c-7.41-1.79-14.64-2.91-21.5-6.54c-13.17-6.99-19.4-22.7-14.93-37.56l46.46-154.3l103.11-345.11
		L354.86,363.88z"/><path fill="#73A182" d="M612.53,779.66c0.52,0.35,1.83,0.63,1.74,1.6l-15.12-0.84l2.41,14.59
		c2.51,15.16-5.01,29.07-18.45,36.03l-17.37,8.98l-15.2,72.65c-2.22,10.6-7.83,19.26-17.3,24.55l-26.17,14.63
		c-8.55,4.78-18.32,6.11-27.71,3.54l-18.14-4.96c-14.57-3.99-24.15-19.14-21.13-34.75l15.25-78.65l-42.28-3.16
		c-3.45-0.26-6.69,0.55-9.97-1.28c-3.64,1.49-6.79-0.27-10.19-0.56l-64.94-5.52l-8.93,29.58c0-0.37-0.19-1.15-0.52-1.54l4.8-18.43
		l2.62-9.27c0.5-0.76,1.09-2.09,3.07-1.92l77.38,6.65l45.65,3.57l5.13,0.74l-15.53,79.96c-2.6,13.37,4.91,26.59,16.74,31.72
		c7.78,3.37,15.44,5.08,23.62,6.71c8.44,1.68,17.01,0.28,24.42-3.88l26.88-15.07c8.35-4.68,13.39-12.48,15.37-21.91l15.77-74.89
		c15.77-7.44,30.21-12.7,34.68-29.52c0.92-3.44,1.92-7.03,1.18-11.06l-3.55-19.33L612.53,779.66z"/><path fill="#73A182" d="M520.78,67.18l0.25,1.89C520.48,68.95,519.57,69,519,69l-11.97-0.02
		c-6.27-0.01-12.21,1.92-18.02,4.08c-3.32,1.24-6.4,2.67-9.41,4.34c-3.9,2.16-7.65,4.33-10.95,7.43l-5.05,4.74
		c-14.83,13.91-19.5,35.76-16.31,55.73c0.99,6.21,2.11,12.17,5.08,19.2c-4.85-0.25-7.54-3.29-9.14-7.68
		c-4.46-12.21-16-19.33-28.65-18.55c-11.96,0.74-22.5,9.42-25.51,21.84c-1.3,5.34-4,8.59-8.75,11.17
		c-10.23,5.56-15.95,15.74-15.07,27.09c0.86,11.08,8.22,20.11,19.6,23.93c4.44,1.49,7.28,4.45,8.9,8.87
		c4.37,11.91,15.31,19.22,28.7,17.6c-2.15,10.62-2.52,20.11,1,30.68c-3.42,1.59-7.6,2.6-10.88,1.36l8.74-2.49
		c-2.47-9.4-2.77-18.05-0.79-27.72c-13.29,0.43-23.96-7.06-28.06-18.88c-1.44-4.15-4.13-6.68-8.25-8.04
		c-11.56-3.8-19.36-13.36-20.5-24.68c-1.2-11.9,4.74-22.84,15.42-28.83c4.29-2.41,7.16-4.97,8.31-10.09
		c3.39-15.1,17.52-24.99,32.59-23.4c4.74,0.5,9.93,2.6,13.79,5.35c6.14,4.38,10.19,10.98,12.62,18.24c0.54,1.6,3.32,1.65,3.07,0.94
		c-2.54-7.32-3.77-14.19-4.74-21.07c1.62-0.01,1.64-1.26,1.51-2.61c-0.11-1.11-0.44-1.67-1.94-1.84c0.7-1.52,0.45-3.75,0.06-5.39
		c0.43,0,1.75-0.38,1.88-0.87c0.13-0.53-0.91-1.56-1.4-1.53c0.09-0.57,0.29-1.33,0.2-1.88c-0.43-2.46,0.78-4.69,1.25-6.96
		C453.45,84.69,485.54,64.86,520.78,67.18z"/><path fill="#73A182" d="M692.95,785.58l8.03,0.92l11.05,51.22c3.13,14.51,13.61,23.02,27.18,27.36
		c11.63,3.72,23.29,6.46,34.96,1.04c8.12-3.78,15.96-8.37,23.24-13.65c6.34-4.59,10.8-11.2,11.78-18.48
		c0.42-0.2,0.88-0.42,1.22-0.74c-0.12,0.9-0.01,1.81,0.47,2.55c-2.01,7.52-6.84,14.8-14,19.06l-19.41,11.56
		c-14.69,8.74-33.99,2.96-49.56-4.39c-8.17-4.98-14.64-12.36-16.82-22.09l-11.68-52L619.17,782l-0.68-1.35L692.95,785.58z"/><path fill="#73A182" d="M668.68,193.3c3.23,16.58-1.83,32.4-11.37,45.4c4.45,9.25,5.82,19.5,3.64,29.57l0.89,11.63
		c3.13,1.2,5.4-0.06,8.14,0.13l21.98,1.47c16.68,1.12,29.22,13.84,30.92,30.48l0.2,20.51c-0.94,8.93-5.25,16.48-12.16,22.08
		l3.2,14.87l0.86,1.06c0.9,1.43-1.35,2.4-1.04,0.14c0-0.18-0.26-0.72-0.99-0.77l-3.69-15.58l3.23-3.48
		c10.45-11.27,10.84-24.37,8.52-40.59c-2.17-15.18-13.9-26.6-29.12-27.22l-31.39-1.29l-1.25-13.47c2.43-10.81,0.47-20.74-3.72-30.1
		c4.96-6.94,10.17-15.48,11.45-24.53c1.01-7.13,1.63-14.22-0.38-20.94L668.68,193.3z"/><path fill="#FBFBFB" d="M740.41,613.11l-6.58-30.05c4.78,0.93,2.47-6.25,7.32-8.54c1.66-0.78,5.73-0.91,6.24,0.6
		c1.02,3.01,2.08,6.15,1.25,8.82l-1.46,4.68l6.97,3.33l-0.63,10.38c-1.21,4.72-4.95,6.78-8.88,7.43
		C743.66,610.99,742.75,613.85,740.41,613.11z"/><path fill="#73A182" d="M661.26,175.9c-2.16-3.87-4.32-7.53-6.79-11.25l-3.6-5.42c-1.25-1.88-2.24-2.26-4.05-2.24
		c1.09-3.24-6.38-8.32-11.39-12.47c-4.95-4.1-10.49-7.33-16.23-10.11c-3.32-1.61-6.5-2.66-10.09-3.95
		c-8.76-3.14-19.94-4.45-28.86-2.49c-0.92-0.33-1.69-1.12-1.75-2.16c-0.27-4.21-1.95-7.6-3.01-10.93
		c-1.63-5.12-4.15-9.77-7.01-14.27c-5.12-8.06-14.18-17.3-22.26-21.98c-5.5-3.19-11.42-6.31-17.88-7.83l0.73-1.62
		c25.96,7.52,45.95,29.37,51.32,56.9c37.37-4.86,75.99,24.81,86.41,60.29C663.06,183.68,663.06,179.12,661.26,175.9z"/><path fill="#FBFBFB" d="M800.08,771.97c-3.28-0.73-9.84,1.53-11.13,4.58c0.66,5.46-0.65,8.56-5.2,11.58
		c-1.34,0.89-2.31,3.92-5.1,2.88l-4.34-20.77c4.13,0.46,6.73-0.64,9.29-3.74l6.73-3.89c2.34-3.7,1.12-9.54,5.35-10.7L800.08,771.97z
		"/><path fill="#FBFBFB" d="M767.31,738.09l-6.53-30.98c2.21-0.02,4.59,0.28,7.07-0.46c3.85-1.15-3.36-8.11,3.67-10.87
		c1,0.69,3.6,3.18,3.24,5.03c-3.76,8.67-11.72,11.8-5.98,16.98c1.85-1.88,4.44-4.15,6.52-3.49c1.43,0.45,5.15,1.12,4.81,3.64
		C778.91,726.78,775.26,735.22,767.31,738.09z"/><path fill="#73A182" d="M768.61,619.09l2.38,11.46l16.37,75.34c-0.63,0.27-1.52,0.17-1.86-0.56
		c-0.15-0.32-0.08-0.84-0.16-1.21l-1.49-7.08l-1.49-6.94l-7.21-33.12l-1.01-3.98l-4.13-18.97l-0.71-5.08
		c-0.3-2.13-1.85-3.99-1.89-6.05c-0.06-3.46-1.46-6.67-2.1-10.03l-0.77-4.04L761.13,593l-1.65-7.1l-2.42-11.87l-1.59-6.19
		l-5.04-24.3c0.52,0.12,0.99,0.09,1.48-0.09L768.61,619.09z"/><path fill="#FBFBFB" d="M580.25,127.96c-2.24,5.91-11.02-0.14-16.68,5.71c3.26,1.28,5.67,8.09,3.1,9.75l-10.89,1.92
		l-0.96-12.95c6.31-0.63,8.23-6.39,9.81-6.08l2.91,0.57l-0.43-4.51l8.37-7.5c1.06,3.33,2.75,6.72,3.01,10.93
		C578.57,126.85,579.33,127.64,580.25,127.96z"/><path fill="#FBFBFB" d="M713.32,374.97c0.29-0.02,0.66,0.06,0.93,0.23c0.55,0.34,0.12,1.29,0.19,1.7l1.89,10.12l-3.94-1.01
		c-0.85-0.23-1.51,2.24-2.64,2.74c-1.3,0.58-3.25,0.69-3.61,1.98c-0.21,0.76,0.02,2.79-0.9,3.67c-1.89,1.82-5.41,2.74-6.3,5.68
		c-0.67,2.2-1.32,4.16-3.68,5.07l-3.48-15.04c9.21,1.82,6.2-15.63,17.89-9.78l0.92-4.08C710.8,375.34,712.31,374.95,713.32,374.97z"/><path fill="#73A182" d="M411.02,281.02c-0.08,0.36-0.15,0.94-0.35,1.27c-0.41,0.67-1.75,0.37-2.55,0.52l-34.05,6.17
		c-11.31,2.05-19.7,11.48-22.52,22.76c-2.48,9.91-2.22,20.39,0.28,30.23c0.67,2.64,1.59,4.83,2.19,7.12
		c-5.54-2.99-7.26-24.48-4.13-37.49c3.05-12.68,12.87-22.4,25.66-24.68l32.4-5.77c0.14,0.66,1.01,1.11,1.31,0.8
		c0.47-0.46,0.71-1.32,0.71-1.95C410.58,279.84,411.15,280.31,411.02,281.02z"/><path fill="#FBFBFB" d="M628.66,171.64c-2.63-3.68-6.91-6.28-10.61-9.04c5.35-2.71,7.61-3.29,8.16-9.27
		c4.29-2.94,8.21-1.23,11.13,2.4C644.23,164.33,635.49,160.79,628.66,171.64z"/><path fill="#FBFBFB" d="M703.32,441.95l-2.34-9.92c1.94,0.37,5.11,0.29,5.91-1.65c1.35-3.29-4.41-6.47-3.77-14.1
		c0.11-1.36,1.82-1.18,2.09-0.78l1.33,2.01c3.18,1.37,10.07,7.69,10.22,9.17c0.12,1.15-1.37,2.12-1.73,3.35l-2.3,7.75
		C706.94,437.51,706.67,441.12,703.32,441.95z"/><path fill="#73A182" d="M807.94,800.27c-1.02-0.81-2.3-1.97-2.58-3.27l-5.28-25.03l-4.41-20.06l-7.59-34.93l-1.87-9.02
		c-0.16-0.76,0.65-1.32,1.37-1L807.94,800.27z"/><path fill="#FBFBFB" d="M642.55,196.11l-4.7-11.6c4-1.22,6.06-3.9,6.79-8.18c0.38-2.25,5.78-4.18,7.05-2.33
		c2.31,3.35,1.4,8,1.15,11.59C646.02,188.9,646.27,194.7,642.55,196.11z"/><path fill="#FBFBFB" d="M749.28,653.04l-3.28-15.02l6.94,1.29c1.31-4.88,4.38-5.78,9.75-5.3c0.24,3.24-0.97,6.97-4.53,9.25
		l0.75,5.29L749.28,653.04z"/><path fill="#FBFBFB" d="M754.48,677.03l-1.65-7.01c3.35,0.45,5.56-1.67,6.69-4.62l3.29-8.6c0.6-1.56,3.78,0.78,4.11,2.01
		c0.43,1.64-1.97,3.06-2.39,4.99c-0.45,2.09,1.71,6.85-1.33,8.58C760.6,673.86,757.03,674.65,754.48,677.03z"/><path fill="#FBFBFB" d="M732.39,575.15l-2.6-11.13c4.28,0.02,2.85-5.4,7.28-6.55c1.9-0.5,4.01-0.92,5.56,1.2
		c1.31,1.79,0.07,6.49-2.56,6.82c-1.71,0.21-4.13-2.2-6.34-0.66C735.77,568.57,735.47,572.75,732.39,575.15z"/><path fill="#73A182" d="M720.12,405.04c-0.02-1.21-0.24-2.39-0.67-3.62l-3.12-14.4l-1.89-10.12
		c-0.08-0.41,0.36-1.36-0.19-1.7c-0.27-0.17-0.64-0.24-0.93-0.23l0.02-1.58c0.01-0.61,1.39-1.56,1.63-0.5l7.01,31.75
		C721.36,405.19,720.43,404.93,720.12,405.04z"/><path fill="#FBFBFB" d="M603.04,154.62c-4.21-1.69-8.79-2.64-13.03-2.58c-0.43-0.93-0.56-2.78,0.42-3.06l3.45-0.97
		c3.74-1.05,6.13-1.43,8.26,2.04c0.4,0.66,1.71,1.3,1.59,2.47C603.67,153.13,603.65,153.79,603.04,154.62z"/><path fill="#73A182" d="M808.36,810.87l-1.07-5.88c-0.12-0.68,0.16-1.35,0.45-1.63c0.21-0.2,0.58-0.29,0.99-0.25l2.02,10.88
		c1.08,5.82,3.05,11.55,0.33,17.07C810.64,823.42,809.54,817.34,808.36,810.87z"/><path fill="#FBFBFB" d="M646.83,156.98c-6.96,0.05-11.97-5.29-11.39-12.47C640.45,148.67,647.92,153.75,646.83,156.98z"/><path fill="#FBFBFB" d="M433.83,142.02c-3.86-2.75-9.06-4.85-13.79-5.35c2.52-3.78,11.43-2.97,13.37-0.47
		C434.58,137.72,434.08,140.17,433.83,142.02z"/><path fill="#FBFBFB" d="M755.07,623.4c2.82,2.86-3.38,10.44-6.14,8.37c-2.4-1.8-0.07-6.94,1.85-8.95
		C752.42,621.11,753.95,622.27,755.07,623.4z"/><path fill="#FBFBFB" d="M619.21,134.41c0.02,1.39-0.59,2.38-2.03,2.76l-7.35,1.96c-1.35-2.89-0.99-5.62-0.71-8.68
		C612.71,131.75,615.89,132.8,619.21,134.41z"/><path fill="#FBFBFB" d="M805.36,797c0.27,1.3,1.56,2.46,2.58,3.27l0.81,2.85c-0.41-0.04-0.78,0.05-0.99,0.25
		c-0.29,0.28-0.58,0.94-0.45,1.63l1.07,5.88c-1.32,0.22-3.66-0.31-3.99-2.18l-1.51-8.72c-0.19-1.12,0.36-2.27,0.9-2.62
		C804.16,797.09,804.87,797,805.36,797z M806.5,802l-0.5,0.5l0.5,0.5l0.5-0.5L806.5,802z"/><path fill="#FBFBFB" d="M723.98,492.29c-3.01-1.57-4.75-5.26-7.2-7.94c2.79-2.99,8.44,0.93,8.91,2.49
		C726.13,488.32,726.67,491.21,723.98,492.29z"/><path fill="#FBFBFB" d="M785.33,704.1c0.08,0.38,0.01,0.9,0.16,1.21c0.35,0.73,1.24,0.83,1.86,0.56l0.23,1.08
		c-0.72-0.33-1.53,0.23-1.37,1l1.87,9.02c-3.63,0.94-4.85-3.08-5.93-9.06C781.72,705.57,783.56,704.13,785.33,704.1z"/><path fill="#FBFBFB" d="M770.01,634.01c-1.16,0.29-5.02,0.36-5.48-1.23c-0.62-3.63,1.14-7.33,2.88-9.9
		c0.04,2.06,1.59,3.92,1.89,6.05L770.01,634.01z"/><path fill="#FBFBFB" d="M770.99,630.54l-2.38-11.46c2.29,0.62,3.75-0.46,5.45-1.91c0.95-0.82,2.19,0.47,1.87,1.24
		c-0.77,1.86-3.17,1.07-3.85,2.18c-1.2,1.97,2.65,4.21,1.54,7.4C773.2,629.15,772.58,630.29,770.99,630.54z"/><path fill="#FBFBFB" d="M764.26,687.04c1.76-4-2.23-5.08-0.81-8.01c0.4-0.83,2.06-2.15,3.03-1.25l3.35,3.14
		C768.25,683.41,767.37,686.05,764.26,687.04z"/><path fill="#FBFBFB" d="M661.26,175.9c-5.42-0.17-8.65-6.38-6.79-11.25C656.94,168.37,659.1,172.02,661.26,175.9z"/><path fill="#161613" d="M354.86,363.88l-1.39-0.94l2.09-8.04l-1.54-5.82c1.62,0.88,3.97,3.5,3.36,5.69L354.86,363.88z"/><path fill="#FBFBFB" d="M722.14,414.82l1.96,9.09c-1.11,0.19-2.93-0.01-3.58-0.96
		C719.33,421.17,719.38,414.92,722.14,414.82z"/><path fill="#FBFBFB" d="M618.49,780.65l0.68,1.35c-0.86,0.96-1.99,1.4-2.81,1.5c-1.72,0.21-2.61-0.56-2.1-2.24
		c0.09-0.96-1.21-1.25-1.74-1.6C614.68,779.8,616.94,779.38,618.49,780.65z"/><path fill="#FBFBFB" d="M782.35,690.08l1.49,6.94c-0.92-0.09-3.08,0.21-4.14-0.98
		C778.17,694.31,780.01,690.04,782.35,690.08z"/><path fill="#FBFBFB" d="M759.47,585.9l1.65,7.1c-2.36,0.52-3.77-0.58-4.16-2.6C756.55,588.25,756.61,585.91,759.47,585.9z"/><path fill="#FBFBFB" d="M605.69,145.52c-1.12,0.19-2.04,0.48-2.94,0.17c-0.52-0.18-0.69-1.16-0.4-2
		c0.43-1.24,2.48-2.41,4.11-2.41c1.48,0,1.57,1.38,1.76,2.21C608.59,145.14,607,145.29,605.69,145.52z"/><path fill="#FBFBFB" d="M668.68,193.3l-2.07-0.65c-0.48-1.6-2.17-2.65-0.83-6.29C668.41,187.11,668.16,190.65,668.68,193.3z
		"/><path fill="#FBFBFB" d="M729.08,446.96c-0.75,0.11-1.64,0.24-2.96-0.1c-0.46-3.04-0.06-5.7,1.21-8L729.08,446.96z"/><path fill="#FBFBFB" d="M755.47,567.84l1.59,6.19c-2.38,0.63-3.61-0.69-4.16-2.62C752.29,569.3,752.7,567.46,755.47,567.84z
		"/><path fill="#FBFBFB" d="M586.38,152.1c-2.45,0.04-4.89,0.76-7.09,1.73c-0.39-0.91-0.2-2.11,0.33-2.72
		c1.05-1.21,5.85-0.95,6.32-0.6C586.24,150.74,586.1,151.8,586.38,152.1z"/><path fill="#FBFBFB" d="M736.14,533.67c-0.84,1.85-2.36,2.74-4.07,3.4c-0.54-2.54-0.93-5.68,0.83-7.48
		c1.78,0.85,0.39,2.28,0.58,2.88C733.69,533.1,735.87,533.49,736.14,533.67z"/><path fill="#FBFBFB" d="M728.05,495.61c0.22,1.94-1.38,2.31-2.59,1.71c-1.12-0.54-2.31-0.89-1.36-3.9
		C724.44,492.34,727.75,492.97,728.05,495.61z"/><path fill="#FBFBFB" d="M446.33,119.05c-0.47,2.27-1.68,4.5-1.25,6.96c-0.79,0.31-1.88-0.01-2.05-0.61
		C442.44,123.36,443.91,118.31,446.33,119.05z"/><path fill="#FBFBFB" d="M774.13,652.98l1.01,3.98c-1.75,0-3.86-1.62-3.02-3.83C772.39,652.65,773.94,652.85,774.13,652.98z"/><path fill="#FBFBFB" d="M725.13,505.68c0.28-0.65,2.23-0.33,2.43,0.14c0.21,0.49,0.04,1.4-0.61,1.74
		C725.69,508.22,724.26,507.72,725.13,505.68z"/><path fill="#FBFBFB" d="M765.31,612.85c-1.65,0.61-2.32-0.08-2.42-1.36c-0.13-1.59,0.16-2.42,1.65-2.68L765.31,612.85z"/><path fill="#FBFBFB" d="M444.78,140.14c-0.2-1.4-1.3-2.58-0.43-4.45c1.5,0.18,1.83,0.74,1.94,1.84
		C446.42,138.88,446.4,140.13,444.78,140.14z"/><path fill="#FBFBFB" d="M318.5,854.53c0.32,0.39,0.52,1.17,0.52,1.54c0,0.48,0.02,1.08-0.12,1.55l-2.03,0.29
		C317.26,856.65,316.83,854.92,318.5,854.53z"/><path fill="#FBFBFB" d="M720.12,405.04c-0.89,0.33-2.8-0.39-2.11-1.42l1.45-2.19C719.89,402.65,720.11,403.83,720.12,405.04
		z"/><path fill="#FBFBFB" d="M726,546.88c-0.01-0.54,0.01-1.26-0.19-1.8c0.71-0.24,1.55-0.35,2.18,0.39
		c0.34,0.4,0.21,1.23-0.55,1.29L726,546.88z"/><path fill="#FBFBFB" d="M745.52,636.14l-0.6-2.15l1.56,0.02c0.53,0,0.82,0.82,0.36,1.29
		C746.47,635.68,745.98,635.98,745.52,636.14z"/><path fill="#FBFBFB" d="M444.41,130.29c-0.21-0.86-0.37-1.9,0.47-2.4c0.49-0.02,1.53,1,1.4,1.53
		C446.16,129.91,444.84,130.29,444.41,130.29z"/><path fill="#FBFBFB" d="M409.98,279.99c0,0.63-0.24,1.49-0.71,1.95c-0.31,0.3-1.18-0.14-1.31-0.8
		C408.2,280.29,409.09,279.82,409.98,279.99z"/><path fill="#FBFBFB" d="M724.63,540.12c-0.48-0.66-0.45-1.43-0.61-2.18c0.42,0,0.97-0.04,1.47,0.07
		c0.55,0.12,0.83,0.86,0.32,1.24L724.63,540.12z"/><path fill="#FBFBFB" d="M710.43,475.17L709.9,473l1.58,0.02c0.54,0,0.81,0.82,0.35,1.28
		C711.48,474.65,710.91,475,710.43,475.17z"/><path fill="#FBFBFB" d="M810.89,835.8c-0.48-0.74-0.59-1.65-0.47-2.55c0.91-0.84,1.99,0.19,1.57,1.16
		C811.81,834.83,811.31,835.29,810.89,835.8z"/><path fill="#8EC4A2" d="M587.36,563.32l-34.19,175.59l-12.58,63.61l-21.77,106.14l-24.42,13.86l22.26-114.84l32.85-167.09
		l25.39-128.63l31.52-161.46l23.62-3.7l-30.47,155.75c-20.27,2.65-17.85,33.56-13.7,53.18l-7.02,8.11
		c-0.94,1.09-1.12,2.59-0.49,3.47c0.88,1.24,2.7,1.62,4.22,0.18C583.93,566.22,584.35,563.99,587.36,563.32z M618.79,378.57
		c-0.06-3.2-2.06-4.89-4.29-4.83c-2.35,0.06-4.19,1.57-4.76,4.3c-0.5,2.4-0.1,4.71,1.91,5.89c1.15,0.68,3.73,0.64,5.05-0.39
		C617.75,382.72,618.84,381.08,618.79,378.57z M606.77,426.21l6.07-25.24c0.66-2.74-1.47-4.75-3.4-5.03
		c-2.31-0.34-4.48,0.73-5.14,3.42l-6.32,25.6c-0.66,2.67,1.62,4.86,3.56,5.19C603.72,430.53,606.04,429.24,606.77,426.21z
		 M598.77,476.32c-1.03-2.78-3.17-4.41-5.71-4.78c-1.93-0.28-4.5,0.52-6.13,2.46c-4.01,4.81-4.39,11.44-2.18,17.25
		c1.06,2.78,3.38,4.37,5.88,4.59C597.53,496.43,602.18,485.52,598.77,476.32z M565.07,649.49c5.2-4.47,5.83-12.17,3.41-17.88
		c-1.04-2.44-3.25-3.84-5.27-4.13c-2.06-0.29-4.66,0.61-6.28,2.58c-3.81,4.65-4.21,11.31-1.82,16.9
		C556.64,650.51,561.66,652.41,565.07,649.49z M537.73,792.34c-1.03-2.67-3.23-4.25-5.3-4.52c-2.64-0.34-5.16,0.53-6.9,2.78
		c-3.48,4.51-4.23,10.73-2.26,16.05c1.13,3.05,3.64,4.43,6.24,4.52C536.47,811.42,541,800.83,537.73,792.34z"/><path fill="#8EC4A2" d="M763.37,837.81L737.8,724.04l-40.02-180.83L652.84,342.8l22.21-3.95l28.33,128.96l77.31,359.12
		C775.4,831.41,770.08,834.37,763.37,837.81z M766.95,783.58l-7.45-34.92c-0.54-2.55-2.96-3.9-4.94-3.65
		c-1.96,0.25-3.85,2.42-3.33,5l7.32,36.3c0.56,2.79,3.82,3.76,5.55,3.25C766.42,788.89,767.61,786.67,766.95,783.58z M772.01,808.55
		c0-2.43-1.97-4.39-4.39-4.39c-2.43,0-4.39,1.97-4.39,4.39s1.97,4.39,4.39,4.39C770.04,812.94,772.01,810.98,772.01,808.55z"/><path fill="#FBFBFB" d="M419.49,747.05c-6.12-17.31,4.13-13.24,3.34-21.2l-1.44-14.41c-0.37-3.69-5.73-4.68-7.54-6.88
		l-1.97-22.44c-0.32-3.66-5.96-4.19-9.27-6.66l81.87-22.99c4.16-1.17,7.93-1.3,12.14,0.07l11.18,59.57l-10.29,51.71l-77.31-5.77
		C419.77,754.19,420.79,750.76,419.49,747.05z"/><path fill="#8EC4A2" d="M392.7,336.91l16.23,4.81l-158.46,534.9l-16.23-4.81L392.7,336.91z M378.28,430.65l9.31-29.99
		c0.88-2.83-1.14-5.33-3.21-5.82c-2.24-0.53-4.64,0.74-5.43,3.26l-9.6,30.97c-0.76,2.45,1.71,4.96,3.56,5.41
		C374.94,434.97,377.37,433.59,378.28,430.65z"/><path fill="#FBFBFB" d="M599.1,809c-4.47,16.82-18.91,22.08-34.68,29.52l-15.77,74.89c-1.99,9.43-7.03,17.23-15.37,21.91
		l-26.88,15.07c-7.42,4.16-15.98,5.56-24.42,3.88c-8.18-1.63-15.84-3.34-23.62-6.71c-11.83-5.13-19.34-18.35-16.74-31.72
		l15.53-79.96l-5.13-0.74c0.96-6.85,6.22-1.2,14.78-2.92c-0.09,3.94,1.27,10.05,5.17,10.11c2.89,0.05,6.31-2.15,9.64-1.12
		l-15.33,76.86c-0.3,1.53-0.92,5.31,0.53,6.25c7.18,2.66,15.49,5.37,23.39,6.1c11.89-4.53,22.69-11.53,33.55-18.48l19.48-94.87
		c2.43-0.94,5.25,0.69,7.48,0.48c8.47-3.12,15.86-7.53,23.28-12.56c1.59-1.08,1.71-3.68,1.42-5.34l-2.96-16.72
		c3.78,1.58,6.94,1.84,11.18-1.77l1.25,13.43c4.6,3.08,5.03,8.25,5.2,13.3C593.06,809.5,596.23,809.35,599.1,809z"/><path fill="#FBFBFB" d="M506.24,453.7l-7.7-41.62c1.8-5.7,1.23-11.29,0.91-17.09c0.84-4.57-1.12-8.31-5.63-10.12l-7.46-40
		l93.46,4.24L558.99,455.4L506.24,453.7z"/><path fill="#FBFBFB" d="M593.54,559.35c43.78-14.76,71.68-53.48,54.24-99.08c-0.98-2.57-3.43-3.59-5.95-2.41
		c-9.22,4.35-17.74,9.77-24.75,17.19c-4.72,3.99-5.51,10.06-9.79,14.79l26.44-133.72l27.59,124.58l21.42,99.91l-92.35-3.31
		L593.54,559.35z"/><path fill="#FBFBFB" d="M713.04,723.76l-148.97-10.13l3.12-16.78c44-12.82,87.06-25.79,131.42-41.5L713.04,723.76z"/><path fill="#FDFEFE" d="M323.02,799.78c0.08,1.31,0.42,2.79,1.13,3.61c0.95,1.09,2.69,1.14,3.92,0.2
		c0.85-0.65,1.25-2.16,1.02-3.39l150.94,12.56c-0.46,3.75,2.06,7.4,5.87,7.17l-4.29,21.27c-3.33-1.03-6.75,1.17-9.64,1.12
		c-3.9-0.06-5.26-6.17-5.17-10.11c-8.56,1.72-13.82-3.92-14.78,2.92l-45.65-3.57l-77.38-6.65c-1.97-0.17-2.56,1.17-3.07,1.92
		c-1.5-0.19-3.64-0.9-4.83-0.19c-2.23,1.33-2.35,3.49-1.58,5.87c0.69,2.11,1.62,3.6,3.79,3.59l-4.8,18.43
		c-1.67,0.39-1.24,2.12-1.63,3.38l-4.19,13.48c-11.37,1.91-3.01-10.42-15.04-16.3c-1.38-0.67-2.57-3.73-4.87-2.97l10-34.21
		c5.46-0.6,5.59,5.91,8.41,5.84c3.21-0.07,5.24-3.6,4.97-6.58c-0.64-7.13,9.3-6.63,6.65-9.47c-2.33-2.5-12.2,4.92-17.32,1.13
		l2.66-10.06L323.02,799.78z"/><path fill="#FDFEFE" d="M259.25,769.92l-5.56,18.31c-1.58,0.06-4.82,0.13-5.84,1.46c-1.4,6.72-2.95,13.39-7.62,18.65
		l-2.99,1.53c-0.58,0.3-0.12,2.54,0.54,3.33c2.66,3.22-3.21,11.1,4.56,12.85l-6.94,23.07c-2.61,0.45-7.13,1.31-6.97,4.28l0.3,5.61
		c0.07,1.23,0.12,2.46,0.71,2.92c0.34,0.26,1.22,0.21,1.94,0.22l-2.57,9.6c-0.51,1.91,0.04,4.62,2.46,5
		c6.57,1.03,13.63,4.9,20.34,4.18c8.21-0.88,15.56-5.98,22.98-9.22l7.26-3.17c0.88,0.65,1.72,1.25,2.4,2.18
		c4.94,6.77,11.34,5.21,13.76,6.84c1.97,1.33,0.02,5.3,2.19,8.9l-3.99,2.89l-30.49,13.47c-5.85,2.58-12.33,4.65-18.56,3.19
		l-22.71-5.33c-13.62-4.33-21.49-17.33-20.04-31.79l5.95-22.13l5.63,0.7c0.07,2.29,0.58,4.22,1.87,5.27
		c1.5,1.22,4.27,1.97,5.81,1.13c3.13-1.71,0.08-4.73,0.14-6.33c0.46-11.67-5.21-10.89-8.39-17.66l15.1-49.98
		c0.84,0.38,2.2,0.26,2.46-0.39c0.21-0.52,0.13-1.58,0-1.98c-0.15-0.42-0.93-0.86-1.53-0.73l11.79-39.13
		c2.31,0.03,5.02,0.04,5.74,1.94c1.33,3.48-4.84,7.8,0.18,13.66c1.5,1.75,3.69,3.07,6.9,3.72l-0.99,6.94
		C254.63,766.96,256.53,769.55,259.25,769.92z M237.83,787.64c-0.18-1.14-1.98-1.65-2.63-1.57c-0.81,1.26,0.18,2.1,0.87,2.39
		C236.59,788.68,238.13,789.56,237.83,787.64z M234.7,793.84c-0.88,1.68-0.94,5.63,0.09,7.2c1.57,0.82,2.73-0.76,2.5-1.56
		C236.49,796.75,237.86,793.5,234.7,793.84z"/><path fill="#FBFBFB" d="M466.81,579.69c1.65-12.11,3.22-23.47-5.69-27l-1-15.02c-0.29-4.41-6.6-5.71-10.57-7.32
		c-20.65-4.77-41.47-5-62.59-1.28l10.23-36.9l70.13,3.27l19.67,109.46l-23.48-1.67c-3.54-2.36,0.22-7.44,2.04-9.29
		C469.1,590.33,466.21,584.07,466.81,579.69z"/><path fill="#FDFEFE" d="M580.97,752.66c-0.41,3.86-2.3,7.16-5.77,9.42c0.38,2.15,0.53,3.78,1.58,5.93
		c3.46-2.14,5.88-3.85,9.48-4.72l0.66-4.17c3.65-0.05,5.66-2.37,6.22-5.5l114.94,9.04c-0.15,0.71-0.21,3.06,0.64,3.47
		c2.43,1.07,4.47,1.56,6.19,3.91c-2.88,2.08-6.05,2.6-7.57,5.46c-0.92,1.73,0.79,4.7,0.18,7.33l-9.49-0.97
		c-2.38-0.24-4.34,1.65-5.08,3.72l-74.46-4.93c-1.56-1.27-3.81-0.85-5.96-0.99l-15.8-1.05l3.55,19.33
		c0.74,4.04-0.26,7.62-1.18,11.06c-2.87,0.35-6.04,0.51-9.03-1.12c-0.17-5.05-0.6-10.21-5.2-13.3l-1.25-13.43
		c-4.24,3.6-7.4,3.34-11.18,1.77l-6.16-31.23L580.97,752.66z"/><path fill="#8EC4A2" d="M520.11,648.68l-188.46-12.63c-1.99-4.03-1.96-8.84-1-13.91l192.59,12.2L520.11,648.68z"/><path fill="#EBCB78" d="M487.11,236.86c31.94,7.69,51.29,50.06,34.04,62.92c-14.58,10.87-49.49-8.87-56.73-41.01
		c-1.56-6.95,0.38-14.36,5.43-18.88C474.49,235.73,481.14,235.43,487.11,236.86z M494.99,246.51c-1.7,0.61-2.95,2.43-2.61,4.73
		c0.67,4.54,13.66,6.33,18.78,22.61c0.83,2.65,3.23,3.48,5.21,2.99C528.03,273.95,503.54,243.47,494.99,246.51z"/><path fill="#73A182" d="M742.25,833.79l-16.17-75.01L703.63,653.7c4.24-1.63,8.21-2.35,11.96-5.67l14.57,65.95l27.79,124.31
		C752.61,837.72,748.09,835.99,742.25,833.79z"/><path fill="#8EC4A2" d="M551.51,493.95l-176.41-7.91c-0.97-4.6-0.81-8.99,0.95-13.48l178.01,7.7L551.51,493.95z"/><path fill="#73A182" d="M325.19,695.4c-4.04,16.77,1.17,24.02,1.01,24.58l-9.88,33.96l-27.87,12.55l36.78-125.82
		l18.17,21.44l-3.65,12.88c-4.6,1.73-10.98,2.32-13.57,7.23C324.38,685.64,326.24,691.04,325.19,695.4z"/><path fill="#8EC4A2" d="M408.84,770.48c5.05-1.33,8.94-3.16,11.64-7.24l75.92,5.68l-3.71,18.66l-199.44-16.22l29.61-14.8
		c0.56-0.28,2.29,0.06,2.67,0.34c1.55,1.18-1.37,7.85,4.62,10.94c6.19,3.2,12.7,4.58,19.77,5.44
		C369.58,775.69,389.3,775.61,408.84,770.48z"/><path fill="#73A182" d="M368.85,538.48c-1.7,6.06-2.15,21.41,3.12,24.81l-10.61,37.81l-27.39,11.46l35.09-121.07l16.9,21.42
		l-5.17,17.84C376.6,532.32,370.14,533.88,368.85,538.48z"/><path fill="#8EC4A2" d="M591.09,550.77c-3.3-8.35-2.87-17.11-2.49-25.82c1.06-8.98,5.31-17.87,11.6-16.58
		c4.51,0.93,4.99,6.25,7.77,8.2c0.79,0.55,3.59,0.52,3.65-0.94l0.62-14.59c0.26-18.58,14.44-29.54,30.88-37.75
		c14.68,38.64-7.54,73.52-44.38,87.95c18.67-20.44,33.39-42.93,41.51-68.92c0.53-1.71,0.29-3.03-0.02-4.08
		c-0.39-1.34-3.8-1.82-4.27-0.26c-3.43,11.18-7.42,21.5-13.25,31.76C614.28,524.53,604.42,537.81,591.09,550.77z M635.97,512.49
		c3.01,0.82,5.01-1.56,5.56-3.49c0.64-2.25,0.25-5.15-2.25-6.28c-2.95-1.33-5.61,1.02-6.57,3.53
		C631.88,508.46,632.73,511.61,635.97,512.49z"/><path fill="#73A182" d="M404.25,410.13c-1.88,4-1.69,12.71-0.23,16.79c3.13,8.73,4.18,19.73-0.7,26.51l-25.77,10.14
		l36.42-121.76l22.23,0.88l-11.04,38.53c-5.99,1.97-13.03,2.67-17.15,7.85c-2.29,2.89-1.39,9.37-1.03,12.62
		C407.46,406.11,405.96,406.51,404.25,410.13z"/><path fill="#8EC4A2" d="M452.74,615.31c4.12-1.21,7.27-2.98,9.72-6.33l65,3.21l-3.37,17.02l-184.84-11.57l29.2-14
		c0.98,6,2.85,9.3,7.91,11.17C396.93,622.41,430.53,621.81,452.74,615.31z"/><path fill="#8EC4A2" d="M553.65,316.09c22.43,4.81,45.12,4.42,67.08-0.17c5.1-1.06,9.41-2.75,13.58-5.78l36.36,2.09
		l-60.79,11.56l-121.61-5.31l-81.51-4.1l46.65-9.17c4.97,0.49,11.46-1.66,16.14,0.47c13.23,8.49,26.62,16.07,40.87,7.62
		c2.98-1.77,6.4-4.96,9.76-5.93l20.83,0.25C543.79,312.26,547.87,314.85,553.65,316.09z"/><path fill="#8EC4A2" d="M709.85,645.82c-47.02,16.97-93.84,31.65-141.53,45.11l2.59-12.17l137.26-43.6
		C710.24,638,710.57,641.26,709.85,645.82z"/><path fill="#FBFBFB" d="M535.35,574c-0.27,1.36-3.91,1.17-4.87,0.32l-14.54-76.6l34.41,1.5L535.35,574z"/><path fill="#8EC4A2" d="M691.11,329.73l-77.58,14.66l-1.05-15.88l78.4-14.6C691.94,319.18,692.08,323.89,691.11,329.73z"/><path fill="#73A182" d="M504.67,605.47c-3.86,0.72-7.48,0.08-12.1-0.4l-19.69-109.19c4.11-0.37,7.74-0.13,11.63,0.68
		L504.67,605.47z"/><path fill="#EBCB78" d="M481.32,396.91c-19.86,4-39.68,3.86-59.06,0.02c-3.86-0.76-7.37-1.89-10.07-4.76
		c3.36-2.9,6.7-3.79,10.47-4.68c19.1-4.47,38.71-4.84,58.04-1.35c4.66,0.84,8.72,2,13.28,5.09
		C490.75,394.51,486.37,395.89,481.32,396.91z"/><path fill="#8EC4A2" d="M555.1,475.16l-90.18-4.54c12.99-1.79,32.61-1.22,39.06-12.13l54.1,2.11L555.1,475.16z"/><path fill="#EBCB78" d="M617.1,260.73c-19.21,3.68-38.25,3.85-56.96,0.29c-4.35-0.83-8.22-2.08-11.77-4.85
		c2.32-2.56,4.91-3.34,7.75-4.17c15.61-4.57,31.58-5.3,47.84-3.73c9.12,0.88,18.05,1.53,26.49,6.61
		C626.88,258.6,622.26,259.75,617.1,260.73z M582.51,259.17c3.13,0.14,5.25-1.46,5.56-3.7c0.28-2.05-1.36-4.09-3.68-4.89
		c-2.97-1.04-5.87,0.84-6.49,3.09C577.07,256.69,578.8,259,582.51,259.17z M600.82,255.1c0-2.52-2.04-4.56-4.56-4.56
		s-4.56,2.04-4.56,4.56c0,2.52,2.04,4.56,4.56,4.56S600.82,257.62,600.82,255.1z"/><path fill="#EBCB78" d="M398.44,688.07c-18.04,3.91-36.01,4.34-53.82,1.4c-4.64-0.76-8.9-1.7-12.97-4.85
		c3.39-2.81,7.57-4.16,12.13-4.98c16.24-2.89,32.62-3.11,48.91-0.41c5.01,0.83,9.52,1.71,14.17,4.66
		C404.47,686.12,401.84,687.34,398.44,688.07z"/><path fill="#73A182" d="M488.01,382.4c-7.5-1.59-14.29-2.92-22.2-3.32l-6.84-35.34l22.04,1.05L488.01,382.4z"/><path fill="#73A182" d="M570.38,800.69l-17.26,9.88l-4.6-20.62l7.73-38.71c0.64-0.87,3.83-0.71,4.63,0.13L570.38,800.69z"/><path fill="#EBCB78" d="M446.31,544.04c-19.98,4.51-40.21,5.08-59.98,1.79c-4.87-0.81-9.51-2.06-12.92-5.71
		c3.94-3.07,8.01-4.36,12.44-5.3c19.92-4.21,40.27-4.43,60.09,0.11c3.46,0.79,6.45,1.8,9.22,4.48
		C453.2,541.71,450.22,543.16,446.31,544.04z M420.76,543.83c2.74,0.73,4.88,0.56,6.28-1.27c1.02-1.33,1.28-3.7,0.38-5.48
		c-0.79-1.56-3.05-2.32-5.38-2.29l-17.93,0.25c-3.64,0.05-5.91,2.35-5.2,5.41C400.74,548.38,411.32,541.31,420.76,543.83z"/><path fill="#73A182" d="M685.06,594.16l-96.5-4.21c-0.55-1.96-0.39-5.18,1.45-7.45l93.59,3.44
		C684.53,588.65,685.31,590.22,685.06,594.16z"/><path fill="#EBCB78" d="M608.22,279.18c-16.04,2.4-52.39,1.43-59.1-6.25c-2.03-2.33-0.98-6.87-0.95-10.06
		c18.56,6.84,39.9,6.68,59.86,4.69C608.68,271.53,608.75,274.34,608.22,279.18z"/><path fill="#EBCB78" d="M391.04,751.79c-15.74,2.07-51.98,1.62-57.9-5.9c-1.95-2.48-1.21-6.69-0.91-10.24
		c16.49,8.52,39.64,6.77,58.51,5.04L391.04,751.79z"/><path fill="#EBCB78" d="M610.48,312.47c-17.98,2.71-35.93,2.29-53.94-0.99l-0.03-11.5c17.76,3.51,35.24,3.38,53.5,1.07
		L610.48,312.47z"/><path fill="#EBCB78" d="M446.05,560.9c-16.48,3.36-32.43,4.55-48.98,3.21c-0.8-4.01-0.96-7.59-0.23-11.5
		c16.9,1.42,32.79,0.45,48.85-3.01L446.05,560.9z"/><path fill="#EBCB78" d="M455.57,432.67c-11.77,0.48-23.06-0.09-34.6-2.7c-4.03-0.91-9.17-1.86-12.02-4.79
		c-1.65-3.03-0.63-7.6-0.75-11.04c14.65,6.54,31.08,7.47,47.31,7.28L455.57,432.67z"/><path fill="#EBCB78" d="M461.72,589.93c-0.91,5.66-36.15,9.32-49.38,8.39l-0.04-11.3c16.89,0.25,33.23-0.97,49.31-6.05
		C461.94,584.24,462.21,586.84,461.72,589.93z"/><path fill="#EBCB78" d="M404.48,766.24c-16.62,3.46-32.66,3.76-49.37,2.59c-0.66-3.72-0.92-7.14-0.29-11.44
		c16.84,1.25,32.79,1.05,49.18-2.71L404.48,766.24z"/><path fill="#EBCB78" d="M630.48,288.71c-1.81,6.05-32.31,8.88-45.17,9.06c-0.61-4.44-0.77-8.3-0.33-12.31
		c12.26,0.24,23.63-0.65,35.25-3.15l10.61-3.54C631.23,282.42,631.47,285.41,630.48,288.71z"/><path fill="#EBCB78" d="M482.29,446.35c-15.75,3.06-31.37,3.47-47.68,1.97l-0.39-11.06c16.19,1.3,31.76,0.98,47.7-2.46
		L482.29,446.35z"/><path fill="#EBCB78" d="M494.25,408.18c-12.96,7.5-32.57,8.14-48.27,8.17l-0.18-11.38c17.06,0.16,33.91-0.42,48.75-7.05
		L494.25,408.18z"/><path fill="#EBCB78" d="M416.62,727.67c-3.03,5.28-32.88,9.61-45.43,9.32l-0.21-11.43c12.06-0.34,23.57-1.31,35.11-4.47
		l10.75-4.47C417.22,720.48,418.38,724.61,416.62,727.67z"/><path fill="#EBCB78" d="M442.59,580.04c-14.06,2.04-28.07,2.26-42.42,1.16l-0.48-11.89c14.03,1.01,27.87,0.94,42.49-1.58
		L442.59,580.04z"/><path fill="#EBCB78" d="M478.18,464.02c-14.11,1.93-27.46,2.28-41.13,1.17c-0.56-4.01-0.8-7.38-0.29-11.5
		c14.2,1.05,27.35,0.54,41.14-1.22L478.18,464.02z"/><path fill="#EBCB78" d="M384.53,719.46c-13.34,1.27-26.22,1.1-39.44-0.9c-5.49-0.83-11.2-1.76-15.66-5.06
		c-1.42-1.5-1.09-5.44-0.37-7.73c16.25,6.99,36.91,6.58,55.32,5.12L384.53,719.46z"/><path fill="#FBFBFB" d="M312.68,871.4c-1.98,6.37-7.04,11.13-12.47,15.05c-2.17-3.61-0.22-7.57-2.19-8.9
		c-2.42-1.64-8.82-0.07-13.76-6.84c-0.68-0.93-1.52-1.53-2.4-2.18c9.5-4.15,8.04-6.6,10.91-16.39c2.3-0.76,3.49,2.29,4.87,2.97
		C309.67,860.98,301.31,873.31,312.68,871.4z"/><path fill="#EBCB78" d="M435.05,613.78c-12.9,1.3-25.09,1.76-37.51,0.16l-0.01-11.41c12.74,1.4,24.18,1.26,36.99,0.27
		L435.05,613.78z"/><path fill="#73A182" d="M460.38,378.07c-3.11,1.3-6.54,0.56-10.43,0.58l-6.82-35.48l10.55,0.42L460.38,378.07z"/><path fill="#73A182" d="M516.53,667.41l-6.05,29.07l-8.54-43.73c4.45-0.38,8.13,0.11,12.54,0.85L516.53,667.41z"/><path fill="#EBCB78" d="M387.03,705.64c-11.66,1.07-22.5,1.35-34.02,0.44l-0.48-9.9c11.57,0.45,22.58,0.8,34.38-0.9
		L387.03,705.64z"/><path fill="#FBFBFB" d="M253.69,788.23l-11.34,37.82c-7.77-1.75-1.9-9.63-4.56-12.85c-0.66-0.8-1.12-3.03-0.54-3.33
		l2.99-1.53c4.66-5.26,6.21-11.94,7.62-18.65C248.87,788.35,252.11,788.29,253.69,788.23z"/><path fill="#8EC4A2" d="M425.28,468.85l-41.72-1.24l25.21-10.13l2.01,4.7C414.79,466.26,420.13,466.81,425.28,468.85z"/><path fill="#EBCB78" d="M485.68,298.68l-6.93,6.11c-5.87-2.99-10.32-7.55-14.59-12.55l8.07-6.02
		C476.37,291.15,480.62,294.95,485.68,298.68z"/><path fill="#FBFBFB" d="M302.77,817.92l2.72-9.09c5.12,3.79,14.99-3.62,17.32-1.13c2.65,2.84-7.29,2.34-6.65,9.47
		c0.27,2.98-1.76,6.51-4.97,6.58C308.37,823.83,308.23,817.33,302.77,817.92z"/><path fill="#FBFBFB" d="M593.14,753.62c-0.55,3.13-2.57,5.45-6.22,5.5l-0.66,4.17c-3.6,0.87-6.02,2.58-9.48,4.72
		c-1.05-2.15-1.2-3.78-1.58-5.93c3.47-2.27,5.36-5.56,5.77-9.42L593.14,753.62z"/><path fill="#EBCB78" d="M469.53,431.44c-3,1.01-5.83,0.98-9.06,1.04l0.05-10.98l9-1.05L469.53,431.44z"/><path fill="#EBCB78" d="M580.25,297.51l-8.89-0.58l-0.98-11.64c3.05-0.74,5.94-0.24,9.23,0.3L580.25,297.51z"/><path fill="#EBCB78" d="M441.05,415.9l-7.67-0.53l-0.22-11.1c2.77-0.02,5.01,0.08,7.59,0.8L441.05,415.9z"/><path fill="#EBCB78" d="M493.52,440.37c0.03,3.07-3.66,4.6-6.08,4.31l-0.14-10.64c-0.03-1.91,3.62-3.11,6.11-3.38
		L493.52,440.37z"/><path fill="#73A182" d="M532.97,587.15l-17.59-0.87l12.35-5.51c1.84-0.82,3.95-0.62,6.3-0.38L532.97,587.15z"/><path fill="#EBCB78" d="M461.18,288.24c-2-2.01-3.07-3.89-4.38-6.47l8.39-6l3.98,6.51L461.18,288.24z"/><path fill="#EBCB78" d="M429.33,447.39c-1.69,0.57-5.7,0-6.55-1.94c-1.27-2.92-0.26-6.75-0.16-9.55
		c2.22-0.19,5.24,0.12,6.21,1.33C429.96,440.33,429.46,443.39,429.33,447.39z"/><path fill="#EBCB78" d="M407.67,713.3c-1.72,2.68-5.79,3-8.23,3.59l0.07-8.35l8.87-2.87
		C408.5,707.77,409.22,710.89,407.67,713.3z"/><path fill="#EBCB78" d="M421.62,462.01c-2.14-0.28-5.67-1.25-6.81-3.67c-1.17-2.49-0.6-5.4-0.5-8.53
		c2.38,0.08,4.61,0.84,7.22,1.84L421.62,462.01z"/><path fill="#EBCB78" d="M381.26,610.62c-1.87,0.07-5.46-1.14-6.27-3.54c-1.22-3.6-0.42-7.28-0.23-11.25l6.41,3.45
		L381.26,610.62z"/><path fill="#EBCB78" d="M555.05,294.05c-2.82-0.55-6.1-2.22-6.18-4.85l-0.28-9.5l6.35,2.42L555.05,294.05z"/><path fill="#EBCB78" d="M391.77,563.08c-1.94,0.2-3.98-0.16-6.31-0.84l-0.25-11.17c2.26,0.09,4.26,0.36,6.34,1.08
		L391.77,563.08z"/><path fill="#EBCB78" d="M349.82,767.89c-2.19,0.12-4.25-0.24-6.47-1.26c-0.72-3.64-0.87-6.8-0.58-10.83l6.59,0.97
		L349.82,767.89z"/><path fill="#EBCB78" d="M623.65,275.42l-0.25-11.08l6.84-2.2l-0.05,8.92C628.89,273.15,628.03,274.57,623.65,275.42z"/><path fill="#EBCB78" d="M462.67,572.58c0.07,2.63-3.03,4.1-5.38,3.94l0.15-12.25c0.36-1.18,3.08-2.22,4.93-2.41
		L462.67,572.58z"/><path fill="#EBCB78" d="M446.72,611.41c-2.28,1.05-4.14,1.31-6.58,1.34l-0.17-10.62c2.34-0.85,4.31-1.03,6.54-0.69
		L446.72,611.41z"/><path fill="#EBCB78" d="M407.34,597.83c-2.67,0.72-4.6,0.37-6.89-0.45l-0.04-10.91l6.61,0.62L407.34,597.83z"/><path fill="#EBCB78" d="M338.03,765.35c-2.73-0.21-5.02-1.48-6.7-3.64l-0.13-9.73l6.51,2.38L338.03,765.35z"/><path fill="#EBCB78" d="M379.99,560.88c-2.08-1.18-5.3-2.28-6.18-4.53c-1.13-2.88-0.3-6.12-0.57-9.11l7.08,2.66
		L379.99,560.88z"/><path fill="#EBCB78" d="M353.76,735.97c-1.86,0.5-4.03,0.19-6.14-0.65l-0.51-10.86c2.2-0.04,3.82,0.12,5.86,0.77
		L353.76,735.97z"/><path fill="#EBCB78" d="M566.19,295.99c-1.78,0.58-5.16,0.04-5.57-1.29c-1.21-3.89-0.53-7.7-0.64-11.3
		c2.33,0.03,3.78,0.27,5.73,0.95L566.19,295.99z"/><path fill="#EBCB78" d="M384.85,578.05c-2.05-0.57-5.16-1.46-6.28-3.52c-1.38-2.55-1.1-5.58-0.88-8.94l7.28,1.66
		L384.85,578.05z"/><path fill="#EBCB78" d="M618.4,276.62c-0.22,1.28-3.94,1.74-4.99,1.31l-0.29-11.13l5.39-1.04
		C618.73,269.07,619.18,272.2,618.4,276.62z"/><path fill="#EBCB78" d="M392.31,612.96c-1.76,0.81-5.3,0.08-5.79-1.15c-0.8-3.56-0.26-7.02-0.11-10.85
		c1.07-0.63,4.75-0.15,5.25,1.27C392.76,605.44,392.29,608.48,392.31,612.96z"/><path fill="#EBCB78" d="M620.37,309.58c-0.03,1.74-3.95,2.3-5.07,1.79l-0.05-11.02c1.92-0.76,3.53-1.05,5.28-1.02
		L620.37,309.58z"/><path fill="#EBCB78" d="M417.6,444.85c-1.99-0.29-4.91-1.27-5.85-3.47c-1.09-2.57-0.85-5.48-0.53-8.49
		c1.51-0.06,5.06,0.45,5.9,1.94C418.46,437.76,417.52,441.41,417.6,444.85z"/><path fill="#EBCB78" d="M414.95,750.88c0.55,8.39,1.29,13.01-5.42,13.48l-0.27-10.88
		C411.26,752.3,412.73,751.4,414.95,750.88z"/><path fill="#EBCB78" d="M479.37,429.38c-0.04,1.09-3.05,1.75-4.79,1.48l0-11.14l5.14-0.57L479.37,429.38z"/><path fill="#EBCB78" d="M341.99,723.76l0.58,10.38c-6.43-0.9-7.94-5.53-6.97-11.68L341.99,723.76z"/><path fill="#EBCB78" d="M451.51,610.07l-0.21-9.82c1.91-0.87,3.44-1.29,6.13-1.55c0.06,2.53,0.51,5.08-0.17,7.79
		C456.75,608.52,454.29,609.88,451.51,610.07z"/><path fill="#EBCB78" d="M484.55,428.17l-0.12-10.04c1.66-1.39,3.79-1.9,6.05-1.7l-0.44,8.47
		C488.83,426.36,488.2,427.43,484.55,428.17z"/><path fill="#EBCB78" d="M491.07,309.94c-2.83,1.16-6.01-1.31-7.89-2.52c2.36-1.76,4.29-4.45,6.98-5.24
		c2.09-0.38,4.83,1.9,6.73,3.17C495.37,306.71,493.79,308.82,491.07,309.94z"/><path fill="#EBCB78" d="M336.99,703.04c-2.12-0.43-5.1-1.66-6.1-3.79c-1.14-2.42-0.6-5.39-0.49-7.91
		c1.8,0.35,4.9,0.66,6.2,2.22C337.94,695.88,337.51,699,336.99,703.04z"/><path fill="#EBCB78" d="M401.64,702.39l-0.15-9.73l5.93-2.07c0.05,2.63,0.63,5.3-0.1,8.07
		C406.82,700.6,404.16,701.96,401.64,702.39z"/><path fill="#EBCB78" d="M401.73,748.91c0.02,1.58-3.81,2.2-5.53,1.8l-0.13-9.95c0.38-1.42,4.18-1.8,5.53-1.51L401.73,748.91
		z"/><path fill="#EBCB78" d="M454.5,276.95c-1.33-2.07-1.96-3.7-2.5-6.09c2.36-2.16,4.95-3.57,8.27-4.95
		c1.32,0.93,3.07,4.49,1.57,5.6L454.5,276.95z"/><path fill="#EBCB78" d="M417.87,411.86c-1.43,0.04-4.48-0.93-5.04-2.47c-1.18-3.25-0.43-6.84-0.62-10
		c1.88,0.07,5.1,0.97,5.54,2.63C418.56,405.11,418.15,407.79,417.87,411.86z"/><path fill="#EBCB78" d="M384.15,593.93c-1.44,0.76-4.33-1.07-4.39-2.51l-0.39-9.51c1.09-0.12,4.16,0.47,4.73,2.01
		C385.07,586.51,384.67,590.8,384.15,593.93z"/><path fill="#EBCB78" d="M431.54,464.03c-2.28,0.14-3.29-0.26-4.73-0.85l-0.06-9.57c-0.01-1.31,4.27-1.1,4.33,0.22
		L431.54,464.03z"/><path fill="#EBCB78" d="M487.61,461.39c-0.29,1.64-3.27,2.04-4.29,1.51l-0.09-10.98c-0.01-1.13,3.91-1.75,4.4-0.72
		C488.13,454.08,488.23,457.88,487.61,461.39z"/><path fill="#EBCB78" d="M406.94,748.2c-0.34-3.64-0.91-6.83,0.11-10.17c0.48-1.22,4-1.82,5.31-1.6
		c0.19,2.81,0.53,5.35-0.11,8.03C411.76,746.49,409.16,747.86,406.94,748.2z"/><path fill="#EBCB78" d="M347.64,704.86c-0.66,0.69-4.18,0.51-4.79-0.69c-1.35-2.62-0.88-6.04-0.69-9.1
		c1.27-0.53,4.34-0.32,5.07,0.73C348.33,698.24,347.76,700.96,347.64,704.86z"/><path fill="#EBCB78" d="M493.1,460.28l-0.17-10.38c-0.03-1.72,3.23-2.99,4.94-2.97
		C498.84,454.85,499.36,459.87,493.1,460.28z"/><path fill="#EBCB78" d="M451.43,559.07c-0.53-2.92-1.02-6.48-0.49-10.1c0.25-1.7,3.09-2.73,4.92-2.61l0.1,7.71
		C455.98,556.26,455.31,558.21,451.43,559.07z"/><path fill="#EBCB78" d="M394.61,579.61c-0.17,1.04-3.91,0.4-4.19-0.87c-0.78-3.6-0.52-7.04-0.34-10.35
		c1.32-0.35,3.97,0.01,4.33,0.92C395.02,572.41,395.23,575.73,394.61,579.61z"/><path fill="#EBCB78" d="M395.17,596.77c-1.82,0.32-4.8-0.38-5.1-1.7c-0.79-3.49-0.37-6.64-0.21-10.03
		c1.42-0.39,4.59,0.05,4.97,1.13C396.06,589.68,395.48,593.41,395.17,596.77z"/><path fill="#FBFBFB" d="M235.41,849.12l-4.02,13.02c-0.72-0.01-1.6,0.04-1.94-0.22c-0.59-0.46-0.64-1.69-0.71-2.92
		l-0.3-5.61C228.29,850.43,232.8,849.57,235.41,849.12z"/><path fill="#EBCB78" d="M451.84,566.08c0.92,5.46,1.42,10.74-0.81,12.47c-0.81,0.63-3.41,0.66-3.42-0.27l-0.11-11.21
		C447.5,566.02,451.17,565.2,451.84,566.08z"/><path fill="#EBCB78" d="M428.33,414.11c-1.8,0.71-3.41,0.16-4.82-0.74l-0.33-10.35c1.32-0.42,4.19-0.13,4.81,0.9
		L428.33,414.11z"/><path fill="#EBCB78" d="M551.12,309.05c-2.83,0.06-4.64-1.92-4.58-4.59l0.16-8.05
		C552.68,297.78,551.42,301.29,551.12,309.05z"/><path fill="#EBCB78" d="M458.94,259.88c-1.3,2.92-5.27,3.44-7.66,4.99c-0.86-1.74-0.71-4.18-0.05-5.9
		c0.58-1.49,6.44-3.82,7.14-3.1C458.83,256.36,459.47,258.2,458.94,259.88z"/><path fill="#EBCB78" d="M396.49,702.91c0.08,1.49-2.58,2.24-3.98,1.51l-0.36-9.65c1.1-0.41,2.24-0.7,3.88-0.71
		L396.49,702.91z"/><path fill="#EBCB78" d="M630.19,304.58c0.03,2.68-1.95,4.03-4.34,4.32c-0.23-3.72-0.77-7.11,0.05-10.82
		c0.26-1.16,2.7-2.08,4.19-1.95L630.19,304.58z"/><path fill="#EBCB78" d="M394.25,717.37c-0.02,0.89-2.74,1.38-4.27,1.1l-0.17-7.69c1.24-0.67,2.47-0.99,4.61-1.21
		L394.25,717.37z"/><path fill="#FBFBFB" d="M485.89,819.92c-3.81,0.22-6.33-3.43-5.87-7.17l7.03,0.57
		C487.29,815.71,486.32,817.81,485.89,819.92z"/><path fill="#FBFBFB" d="M326.45,737.89c1.56,4.61-0.79,13.53-1.09,13.75c-0.45,0.33-2.69-0.03-2.54-0.58L326.45,737.89z"/><path fill="#FBFBFB" d="M371.91,588.81c-0.37,0.13-1.01,0.06-1.45,0.01l3.09-10.99c1.21,3.21,0.95,5.84,1,8.83
		C373.89,587.87,372.86,588.47,371.91,588.81z"/><path fill="#EBCB78" d="M507.64,308.04c-3.3,2.15-5.97,2.98-9.7,3.78C499.62,307.81,503.27,305.57,507.64,308.04z"/><path fill="#FBFBFB" d="M329.08,800.19c0.23,1.23-0.17,2.74-1.02,3.39c-1.22,0.95-2.97,0.9-3.92-0.2
		c-0.71-0.82-1.05-2.29-1.13-3.61L329.08,800.19z"/><path fill="#EBCB78" d="M459.78,244.72c0.78,4.14-2.03,6.46-5.96,6.37C455.11,248.18,456.39,246.42,459.78,244.72z"/><path fill="#73A182" d="M547.81,811.33c-0.95,0.62-2.61,0.38-3.09-0.22c0.09-2.44,0.11-4.96,1.76-7.18L547.81,811.33z"/><path fill="#73A182" d="M371.91,588.81c-3.06,5.12-1.26,10.98-3.42,9.21c-0.45-0.37-0.76-0.98-0.45-1.92l2.42-7.27
		C370.91,588.87,371.54,588.94,371.91,588.81z"/><path fill="#FDFEFE" d="M507.03,68.98c-0.28,0.95,0.38,3.03,1.98,3.04l9.75,0.06c0.39-1.47,0.29-2.27,0.25-3.08
		c0.57,0,1.48-0.05,2.03,0.08l7.3,1.71c6.46,1.52,12.38,4.64,17.88,7.83c0,3.16-0.46,7.94,2.72,9.61c1.36,0.18,4.29-1.08,6.11-0.05
		c2.98,1.69,3.52,11.25,13.44,12.42c2.87,4.51,5.38,9.16,7.01,14.27l-8.37,7.5l0.43,4.51l-2.91-0.57c-1.59-0.31-3.5,5.45-9.81,6.08
		c-0.36-4.91-2.2-9.87-5-13.95c0.62-0.24,1.99-0.54,2.18-1.33c1.08-4.38,4.61-6.71,7.13-9.81c2.12-2.6-0.17-5.06-2.04-5.74
		c-6.31-2.31-6.28,6.28-14.16,6.87l-5.07-5.07c1.19-2.74,0.94-5.41-0.08-8.09c1.71-1.67,3.81-1.24,5.54-1.96
		c1.09-0.46-0.09-4.16-1.4-4.08c-3.03,0.17-6.76-0.04-8.89,1.78l-5.93,5.44c-4.42-2.18-9.57-3.38-14.15-2.76
		c-0.09-1.27-0.46-2.55-1.06-3.27c-1.64-2-6.64-1.85-8.97,0.12c-1.31,1.12-1.37,2.96-0.55,4.58c-4.88,0.66-9.43,2.75-13.8,5.2
		c-0.37-1.63-1.21-2.95-2.3-3.23c-3.3-0.85-6.81,1.72-7.26,4.49c-0.3,1.82,0.22,3.71,2.43,4.57c-2.81,2.87-4.84,6.56-6.58,9.89
		c-1.84-0.17-4.25-0.16-5.46,0.95c-2.53,2.31-1.42,11.45,1.78,10.72l-0.29,4.97c-2.65-1.38-4.62,2.42-6.32,2.73
		c-4.45,0.83-6.85,2.11-8.87,6.69c-0.99,2.19-6.28,2.52-8.44,3.19c-3.19-19.97,1.48-41.82,16.31-55.73
		c1.57,0.16,3.92,0.39,4.77-0.66c0.77-0.95,0.57-2.83,0.29-4.08c3.3-3.09,7.05-5.27,10.95-7.43c1.86,2.18,4.53,2.04,7.05,0.82
		c1.78-0.85,3-2.65,2.35-5.16C494.82,70.89,500.76,68.97,507.03,68.98z M478.28,90.84c-0.84-1.22-4.62-0.97-5.99-0.7
		c-1.1,3.1-0.03,5.25,3.13,4.87C476.95,94.83,480.55,94.12,478.28,90.84z M463.82,111.58c0.14-1.89-1.09-2.83-2.28-2.54
		c-0.59,0.15-1.45,0.6-2.29,1.3c-1.39,1.16-1.51,3.36-0.71,4.74c0.5,0.87,2.67,1.38,3.84,0.78
		C463.3,115.38,463.69,113.38,463.82,111.58z"/><path fill="#161613" d="M429.38,205.39c-6.25,8.81-4.77,18.81-10.03,19.17c-3.93,0.27-4.19-10.66-11.17-17.74
		c-6.69-6.78-17.61-6.92-18.31-10.36c-0.94-4.68,9.06-4.93,15.72-12.85c6.95-8.26,6.4-19.82,9.98-20.56
		c5.01-1.04,4.6,8.92,11.07,16.33c7.05,8.07,18.11,7.39,19.03,11.37C446.85,195.86,435.62,196.59,429.38,205.39z M419.24,213.79
		c3.43-10.39,8.62-16.61,17.78-21.86c-9.97-2.99-15.61-8.7-20.05-18.09c-3.69,9.69-8.56,16.33-17.51,21.56
		C408.69,198.67,414.56,204.6,419.24,213.79z"/><path fill="#EBCB78" d="M637.67,208.14c-1.55,10.28-10.06,15.1-20,13.12c-31.34-6.23-53.91-42.33-41.11-58.69
		c10.61-13.55,45.39,0.41,58.07,27.7C637.22,195.83,638.61,201.9,637.67,208.14z M625.94,194.4c11.21-6.1-26.17-37.6-29.05-24.81
		c-0.82,3.62,1.05,5.22,4.1,6.42C621.55,184.1,617.74,198.86,625.94,194.4z"/><path fill="#EBCB78" d="M598.15,219.22l-6.67,6.84c-5.89-2.94-10.91-7.12-15.64-11.65l7.52-7.03
		C588.01,211.93,592.18,215.92,598.15,219.22z"/><path fill="#EBCB78" d="M604.43,230.26c-2.26,1.54-6.18-0.42-7.82-1.97c2.38-2.16,3.96-5.17,6.39-6.01
		c2.05-0.33,4.69,1.51,6.59,2.68C607.97,226.8,606.78,228.66,604.43,230.26z"/><path fill="#EBCB78" d="M565.65,199.34c-1.82-1.45-3.4-4.59-2.51-5.86c1.93-2.76,5.11-3.92,7.39-5.41
		c1.05,1.62,2.61,4.1,2.17,5.5C570.86,195.95,568.31,197.39,565.65,199.34z"/><path fill="#EBCB78" d="M568.31,182.8c-2.01,2.55-4.81,3.77-7.14,5.27c-1.14-1.84-1.65-4.94-0.47-6.5
		c1.39-1.83,4.18-2.46,6.59-3.67C568.32,178.49,569.43,181.38,568.31,182.8z"/><path fill="#EBCB78" d="M621.07,227c-3.22,2.19-5.38,3.47-9.45,4.28C613.41,226.52,616.45,225.16,621.07,227z"/><path fill="#EBCB78" d="M562.26,174.2c0.62-3.39,3.4-5.95,6.32-8.22C568.8,170.28,567.43,173.54,562.26,174.2z"/><path fill="#EBCB78" d="M541.14,165.61c-7.74,7.48-18.55,7.66-27.75,2.86c-18.61-9.7-27.87-31.85-22.24-52.03
		c1.93-6.91,6.43-12.39,11.31-14.93c7.18-3.73,14.49-3.55,21.6-0.47c14.36,6.23,23.86,20.26,26.05,35.93
		C551.57,147.36,548.93,158.08,541.14,165.61z M542.83,134.31c-0.96-2.05-3.51-2.69-5.1-2.17c-4.16,1.36-1.35,6.81-2.66,12.87
		c-0.68,3.12,0.66,5.27,3.63,5.74C544.34,151.66,545.64,140.33,542.83,134.31z M538.73,159.45c0-2.94-2.38-5.32-5.32-5.32
		s-5.32,2.38-5.32,5.32s2.38,5.32,5.32,5.32S538.73,162.39,538.73,159.45z"/><path fill="#FBFBFB" d="M549.82,118.45l-6.87-10c7.88-0.59,7.84-9.18,14.16-6.87c1.87,0.68,4.15,3.14,2.04,5.74
		c-2.53,3.1-6.06,5.43-7.13,9.81C551.82,117.92,550.45,118.22,549.82,118.45z"/><path fill="#EBCB78" d="M521.15,176.8c-9.35,4.14-17.96,0.01-25.12-4.26l7.08-4.56C508.49,172.5,514.5,175.06,521.15,176.8z
		"/><path fill="#EBCB78" d="M487,143.68c-2.96,2.05-5.59,3.38-8.71,4.38c-1.15-4.58-2.17-8.3-2.03-12.79l8.14-2.97L487,143.68z"/><path fill="#FBFBFB" d="M537.88,103.38c-3-3-6.96-5.06-10.75-6.92l5.93-5.44c2.13-1.82,5.86-1.61,8.89-1.78
		c1.3-0.07,2.49,3.63,1.4,4.08c-1.73,0.72-3.83,0.29-5.54,1.96C538.82,97.97,539.07,100.64,537.88,103.38z"/><path fill="#EBCB78" d="M484.47,125.8c-2.21,2.1-4.59,2.96-7.92,3.24c1.35-8.92,5.17-16.8,12.55-22.25
		C486.86,113.18,484.19,118.38,484.47,125.8z"/><path fill="#EBCB78" d="M492.04,168.58c-1.82,0.04-4.05-2.94-5.44-4.92c2.19-1.52,4.66-3.53,7.55-4.2
		c1.83,0.25,4.07,3.22,4.69,5.19L492.04,168.58z"/><path fill="#FBFBFB" d="M488.61,100.33c-2.48,1.39-5.04,3.69-7.13,5.82c-2.21-0.86-2.72-2.74-2.43-4.57
		c0.45-2.77,3.96-5.34,7.26-4.49C487.4,97.37,488.24,98.7,488.61,100.33z"/><path fill="#FBFBFB" d="M512.98,93.69l-10.58,1.43c-0.82-1.62-0.76-3.47,0.55-4.58c2.33-1.97,7.33-2.12,8.97-0.12
		C512.52,91.15,512.9,92.42,512.98,93.69z"/><path fill="#FBFBFB" d="M474.89,116.04c-1.83,3.51-3.43,7.46-3.68,11.67c-3.2,0.72-4.31-8.41-1.78-10.72
		C470.64,115.88,473.05,115.87,474.89,116.04z"/><path fill="#FBFBFB" d="M210.35,846.75l5.05-16.89c3.18,6.77,8.85,6,8.39,17.66c-0.06,1.61,2.99,4.63-0.14,6.33
		c-1.54,0.84-4.31,0.09-5.81-1.13c-1.28-1.05-1.79-2.98-1.87-5.27L210.35,846.75z"/><path fill="#FBFBFB" d="M230.51,779.88l0.93-3.11c0.6-0.13,1.38,0.31,1.53,0.73c0.14,0.4,0.21,1.46,0,1.98
		C232.71,780.14,231.35,780.26,230.51,779.88z"/><path fill="#FBFBFB" d="M325.92,826.84l-2.62,9.27c-2.17,0.01-3.1-1.48-3.79-3.59c-0.77-2.37-0.65-4.54,1.58-5.87
		C322.28,825.93,324.42,826.65,325.92,826.84z"/><path fill="#FBFBFB" d="M519,69c0.04,0.8,0.14,1.61-0.25,3.08L509,72.02c-1.6-0.01-2.26-2.09-1.98-3.04L519,69z"/><path fill="#FBFBFB" d="M479.6,77.4c3.01-1.66,6.09-3.1,9.41-4.34c0.64,2.51-0.58,4.31-2.35,5.16
		C484.13,79.43,481.46,79.58,479.6,77.4z"/><path fill="#FBFBFB" d="M463.6,89.57l5.05-4.74c0.28,1.25,0.48,3.13-0.29,4.08C467.52,89.96,465.16,89.73,463.6,89.57z"/><path fill="#FBFBFB" d="M568.47,100.6c-9.91-1.17-10.46-10.74-13.44-12.42c-1.81-1.03-4.74,0.23-6.11,0.05
		c-3.18-1.67-2.72-6.45-2.72-9.61C554.3,83.3,563.35,92.54,568.47,100.6z"/><path fill="#FBFBFB" d="M606.77,426.21c-0.73,3.04-3.05,4.32-5.23,3.95c-1.94-0.33-4.22-2.51-3.56-5.19l6.32-25.6
		c0.66-2.69,2.83-3.76,5.14-3.42c1.93,0.29,4.06,2.29,3.4,5.03L606.77,426.21z"/><path fill="#161613" d="M537.73,792.34c3.27,8.48-1.25,19.08-8.22,18.83c-2.6-0.09-5.11-1.47-6.24-4.52
		c-1.97-5.32-1.22-11.54,2.26-16.05c1.74-2.26,4.26-3.12,6.9-2.78C534.5,788.09,536.7,789.67,537.73,792.34z M531.66,792.8
		c-4.7,3.61-5.32,9.77-2.06,13.46C533.45,802.54,534.88,797.4,531.66,792.8z"/><path fill="#161613" d="M598.77,476.32c3.41,9.2-1.24,20.11-8.14,19.52c-2.5-0.21-4.82-1.8-5.88-4.59
		c-2.21-5.82-1.83-12.44,2.18-17.25c1.62-1.95,4.19-2.75,6.13-2.46C595.6,471.91,597.74,473.55,598.77,476.32z M592.48,476.85
		c-2.48-0.33-5.81,8.58-1.47,14.2C596.23,487.23,595.08,477.19,592.48,476.85z"/><path fill="#161613" d="M565.07,649.49c-3.41,2.92-8.43,1.02-9.96-2.54c-2.39-5.59-2-12.25,1.82-16.9
		c1.62-1.97,4.22-2.87,6.28-2.58c2.02,0.28,4.23,1.68,5.27,4.13C570.9,637.32,570.28,645.02,565.07,649.49z M562.97,632.45
		c-4.47,2.82-5.18,9.15-2.21,13.56C564.68,642.45,565.79,637.62,562.97,632.45z"/><path fill="#FBFBFB" d="M618.79,378.57c0.05,2.51-1.04,4.15-2.09,4.97c-1.32,1.03-3.9,1.07-5.05,0.39
		c-2.01-1.18-2.41-3.5-1.91-5.89c0.57-2.73,2.41-4.24,4.76-4.3C616.73,373.68,618.73,375.38,618.79,378.57z"/><path fill="#FBFBFB" d="M766.95,783.58c0.66,3.09-0.53,5.31-2.83,5.98c-1.74,0.51-4.99-0.46-5.55-3.25l-7.32-36.3
		c-0.52-2.58,1.37-4.75,3.33-5c1.98-0.25,4.39,1.11,4.94,3.65L766.95,783.58z"/><path fill="#FBFBFB" d="M378.28,430.65c-0.91,2.94-3.34,4.32-5.37,3.83c-1.85-0.45-4.32-2.96-3.56-5.41l9.6-30.97
		c0.78-2.52,3.18-3.8,5.43-3.26c2.06,0.49,4.09,2.99,3.21,5.82L378.28,430.65z"/><path fill="#FBFBFB" d="M234.7,793.84c3.16-0.34,1.79,2.9,2.58,5.64c0.23,0.79-0.93,2.38-2.5,1.56
		C233.76,799.48,233.81,795.52,234.7,793.84z"/><path fill="#FBFBFB" d="M237.83,787.64c0.3,1.92-1.25,1.04-1.77,0.82c-0.68-0.3-1.68-1.13-0.87-2.39
		C235.85,785.99,237.66,786.5,237.83,787.64z"/><path fill="#FBFBFB" d="M494.99,246.51c8.54-3.05,33.04,27.44,21.38,30.33c-1.98,0.49-4.37-0.34-5.21-2.99
		c-5.12-16.28-18.1-18.07-18.78-22.61C492.04,248.95,493.29,247.12,494.99,246.51z"/><path fill="#FBFBFB" d="M635.97,512.49c-3.24-0.88-4.1-4.03-3.25-6.24c0.96-2.51,3.62-4.86,6.57-3.53
		c2.5,1.13,2.89,4.03,2.25,6.28C640.98,510.93,638.98,513.31,635.97,512.49z"/><path fill="#FBFBFB" d="M582.51,259.17c-3.71-0.17-5.44-2.48-4.61-5.5c0.62-2.25,3.52-4.13,6.49-3.09
		c2.31,0.81,3.96,2.84,3.68,4.89C587.76,257.71,585.64,259.31,582.51,259.17z"/><path fill="#FBFBFB" d="M420.76,543.83c-9.45-2.52-20.03,4.55-21.86-3.38c-0.71-3.06,1.57-5.36,5.2-5.41l17.93-0.25
		c2.33-0.03,4.59,0.73,5.38,2.29c0.91,1.78,0.65,4.15-0.38,5.48C425.65,544.39,423.51,544.56,420.76,543.83z"/><path fill="#FBFBFB" d="M463.82,111.58c-0.13,1.81-0.52,3.8-1.44,4.28c-1.17,0.6-3.34,0.09-3.84-0.78
		c-0.8-1.38-0.69-3.58,0.71-4.74c0.84-0.7,1.69-1.15,2.29-1.3C462.73,108.75,463.96,109.69,463.82,111.58z"/><path fill="#FBFBFB" d="M478.28,90.84c2.27,3.27-1.33,3.99-2.86,4.18c-3.16,0.38-4.23-1.77-3.13-4.87
		C473.67,89.87,477.44,89.63,478.28,90.84z"/><path fill="#EBCB78" d="M419.24,213.79c-4.68-9.19-10.55-15.12-19.78-18.38c8.95-5.23,13.82-11.87,17.51-21.56
		c4.44,9.38,10.08,15.1,20.05,18.09C427.87,197.18,422.68,203.4,419.24,213.79z"/><path fill="#FBFBFB" d="M625.94,194.4c-8.2,4.46-4.4-10.3-24.95-18.38c-3.05-1.2-4.92-2.81-4.1-6.42
		C599.78,156.8,637.15,188.3,625.94,194.4z"/><path fill="#FBFBFB" d="M542.83,134.31c2.82,6.02,1.51,17.35-4.13,16.44c-2.97-0.48-4.31-2.62-3.63-5.74
		c1.31-6.06-1.5-11.51,2.66-12.87C539.31,131.62,541.87,132.26,542.83,134.31z"/><path fill="#8EC4A2" d="M531.66,792.8c3.21,4.6,1.79,9.74-2.06,13.46C526.34,802.58,526.97,796.41,531.66,792.8z"/><path fill="#8EC4A2" d="M592.48,476.85c2.6,0.34,3.75,10.38-1.47,14.2C586.67,485.43,590,476.52,592.48,476.85z"/><path fill="#8EC4A2" d="M562.97,632.45c2.82,5.17,1.71,10-2.21,13.56C557.79,641.6,558.49,635.27,562.97,632.45z"/></svg>