<svg xmlns="http://www.w3.org/2000/svg" viewBox="0 0 1024 1024"><path fill="#302F2E" d="M698.08,771.33l-28.43-44.92l-0.35-6.55l-77.77-122.25l-22.41-35.14
		c-27.11,18.09-47.7,42.51-62.93,70.69c-1.4,2.6-3.1,3.87-6.2,3.46c-63.13-8.45-130.23,11.16-158.57,71.71
		c-1.04,2.22-2.37,3.81-4.31,4.18c-1.55,0.3-4.84,0.24-5.78-1.94c-12.37-28.73-20.66-58.39-24.93-89.61
		c-5.74-42.03-2.45-83.35,9.79-123.77c6.85-22.63,15.55-43.69,27.72-63.86c-6.73-3.11-11.95-6.71-14.17-12.97
		c-2.91-8.21,2.14-16.24,10.04-19.73c7.16-3.16,14.86-1.46,22.46,2.14c18.56-25.47,40.38-46.95,65.57-65.09
		c-7.8-12.57-14.87-29.64-5.16-36.64c10.93-7.88,23.85,7.34,32.5,19.52c36.8-19.66,74.09-32.01,115.66-35.38
		c2.58-2.18,5.22-2.25,8.29-0.87c80.39-5.25,153.93,21.21,212.81,75.8c15.65,14.51,28.54,30.63,41.48,47.45
		c1.52,1.98,2.04,4.16,1.01,6.34c-0.74,1.56-3.03,2.95-5.46,2.77c-34.64-2.58-70.19,16.33-93.72,41.61
		c-19.5,20.94-33.17,45.76-42.08,72.89c-0.79,2.3-2.66,3.73-5.29,3.55c-30.77-2.1-61.28,2.26-90.75,13.03l98.36,154.9
		c4.78,0.93,7.87,2.65,10.37,6.59l22.46,35.44c2.59,4.09,5.87,7.54,9.62,10.39c5.63,4.27,12.3,3.8,17.56-0.05
		c10.01-7.32,4.81-19.87-2.36-31.08c-4.23-6.61-4.35-14.98,0.7-21.14c4.36-5.32,10.81-7.72,17.53-7.34c6.07,0.34,12.08,3.68,16,9.24
		c6.43,9.11,10.42,19.43,12.31,30.34c3.94,22.79-6.84,42.88-26.36,54.33c-18.94,11.11-41.5,11.15-59.39-2.37
		C708.07,782.58,702.35,778.07,698.08,771.33z M525.57,350.75c24.87,13.05,46.1,28.88,66.48,47.25
		c38.47,35.85,68.17,75.63,94.33,122.54c7.86-19.62,16.98-37.72,29.62-54.55c25.22-33.51,61.26-56.83,104.2-59.14
		c-56.87-76.57-142.24-118.49-238.49-113.09c6.12,18.67,14.05,39.92,8.59,57.53c-2.22,7.7-8.34,13.17-15.25,14.24
		c-8.11,1.26-15.62-1.73-19.73-8.86c-8.3-18.15,2.94-41.49,11.27-61.28c-22.66,2.34-43.75,7.26-63.88,14.62
		C512.54,323.36,519.88,335.9,525.57,350.75z M582.88,350.24c5.61-14.78-2.48-37.93-8.31-54.51c-7.15,15.67-16.28,35.05-14.41,52.04
		c0.78,6.02,5,10.25,10.35,10.63C575.88,358.78,580.68,356.04,582.88,350.24z M447.67,324.74c-4.89-6.46-8.81-11.68-14.64-15.74
		c-1.61-1.16-3.92-1.55-5.13-0.6c-4.18,3.25,2.34,15.9,6.9,24.53L447.67,324.74z M487.01,334.04l3.47-19.51L464,327.05
		L487.01,334.04z M519.1,373.55c7.13-15.48-10.45-42.58-21.22-58.45c-4.14,18.26-8.34,40.26-2.76,56.75
		c2.05,5.22,6.26,9.13,11.45,9.1C511.3,380.92,516.69,378.79,519.1,373.55z M679.65,524.72c-20.6-36.9-43.86-69.69-71.67-99.63
		c-23.65-25.08-49.49-47.14-79.69-63.9c1.13,11.4-3.42,21.08-12.74,25.12c-11.6,5.03-22.87-0.07-27.35-11.77
		c-3.91-10.21-3.63-21.25-2.29-32.4c-10.54-3.83-20.93-6.44-31.9-8.87L440,341.44c-8.92,61.22-2.23,118.74,16.88,177.65
		c11.63,35.84,26.24,69.71,44.06,103.75C541.28,553.92,599.64,523.45,679.65,524.72z M327.15,495.6
		c-13.86,42.98-17.04,86.99-9.77,130.81c3.9,24.06,9.64,46.64,18.88,70.28c13.67-24.65,33.71-43.43,59.13-55.31
		c30.75-14.41,63.38-17.87,98.21-15.38c-18.38-35.26-33.72-70.44-45.41-108.01c-17.67-55.94-24.61-111.16-16.79-170.72
		c-23.81,17.49-43.66,37.43-60.63,60.45c12.22,9.25,21.52,20.33,29.93,32.53c1.28,1.86,1.4,3.95,0.35,5.33
		c-1.42,1.86-3.45,1.5-5.66,1.03c-14.3-2.99-28.16-5.41-42.2-9.64c-9.5,16.16-17.21,32.33-23.33,49.92
		c14.81-0.91,28.91-0.92,43.36,0.81c9.01,1.21,17.58,3.86,24.4,9.52c7.32,5.92,9,14.92,4.51,22.95c-4.66,8.34-13.12,12.9-22.8,11.25
		C360,527.72,341.45,510.02,327.15,495.6z M390,438.09c-8.29-11.88-17.49-21.25-29.13-27.93c-5.97-3.01-12.33-5.45-18.53-3
		c-3.42,1.35-5.9,4.5-6.33,7.47c-0.46,3.25,1.6,6.01,4.21,8.25c5.03,3.76,10.73,6.47,17.01,7.87L390,438.09z M396.06,516.48
		c2.96-5.62,1.18-11.37-3.91-14.77c-15.74-9.82-38.5-8.2-57.29-8.33C350.61,508.87,384.49,538.43,396.06,516.48z M588.32,550.13
		l-11.89,7.58L676.6,714.88l11.89-7.58L588.32,550.13z M678.22,723.81l20.71,33.21c16.78,26.91,42.09,41.84,70.56,24.5
		c27-16.44,27.64-46.67,10.64-71.65c-4-5.87-11.74-7.59-17.5-3.27c-4.18,3.13-4.76,8.49-1.99,12.75
		c10.02,15.44,14.31,33.12-0.58,43.32c-14.7,10.07-30.33,1.04-40.22-14.56L697.1,712.2L678.22,723.81z"/><path fill="#F5DF99" d="M574.93,722.89c2.36,0.09,5.87,0.8,8.1,0.22c-0.1,1.35-0.08,2.75,0.54,3.81
		c0.66,1.12,2.05,1.54,3.63,1.82c16.05,2.89,51.07,12,39.13,21.61c-7.18,5.78-16.13,4.77-15.3,10.05
		c0.73,4.66,17.82,5.08,30.84,15.59c1.89,1.52,3.41,3.6,3.4,5.5c-0.01,5.35-10.61,10.71-18.42,13.38
		c-15.65,5.35-31.15,8.38-47.87,10.42c-52.3,6.38-122.28,5.56-172.31-9.97c-10.18-3.16-26.01-10.27-24.17-17.33
		c2.17-8.3,23.73-14.79,35.36-18.19c2.03-0.59,3.31-1.54,3.42-3.32c0.32-5.52-12.81-4.73-17.48-12.68
		c-0.34-3.18,4.98-6.08,7.79-7.26c12.66-5.32,25.27-8.05,39.1-10c39.3-5.54,78.73-5.26,118.2-0.61
		C572.1,726.31,573.97,725.59,574.93,722.89z M471.92,745.09c30.42-5.32,60.89-4.98,90.59,1.09c6.11,1.25,11.47,2.9,16.55,6.57
		c-3.54,5.37-11.27,3.63-10.95,8.68c0.1,1.6,1.14,2.81,3.08,3.33c8.32,2.19,20.91,6.19,19.78,9.61c-1.08,3.27-17.01,7.2-26,8.58
		c-2.62,0.4-4.08,2.35-3.66,4.38c0.42,2,2.36,3.21,4.67,2.77c12.3-2.33,31.77-6.07,32.6-15.85c0.59-6.93-8.22-10.68-16.67-14.16
		c3.06-2.24,4.55-4.33,4.28-7.53c-0.59-7.07-13.75-11.66-23.33-13.58c-30.29-6.04-61.35-6.27-91.83-1.07
		c-9.57,1.63-23.15,5.84-24.26,12.66c-0.46,2.8,0.55,5.2,2.51,7.24c-8.95,2.92-17.78,7.3-16.97,14.55
		c0.93,8.44,14.83,12.68,25.4,14.97c26.07,5.63,52.44,6.8,79.15,5.75c2.28-0.09,2.82-3.13,2.35-4.46c-0.6-1.71-1.75-2.7-4.24-2.6
		c-24.86,1.02-49.35-0.24-73.68-5.11c-8.59-1.72-21.94-5.71-21.77-9.4c0.16-3.42,11.98-7.36,19.88-9.12
		c1.82-0.41,3.05-1.49,3.19-3.03c0.38-4.18-5.24-3.91-8.44-7.77C459.42,748.25,464.96,746.31,471.92,745.09z M526.19,757.21
		c1.7,4.59,9.77,2.24,15.31,6.49c-16.1,4.72-33.37,3.85-50.07-1.57c6.6-4.59,14.98-1.87,14.91-7.64c-0.01-1.08-0.7-3.17-2.61-3.14
		c-9.12,0.14-21,4.69-19.56,11.96c2.61,13.21,64.97,14.86,65.58,0.11c0.11-2.58-1.35-4.89-4.09-6.18
		C534.43,751.96,523.88,750.98,526.19,757.21z"/><path fill="#302F2E" d="M574.93,722.89c-0.97,2.69-2.84,3.41-6.06,3.03c-39.47-4.65-78.9-4.93-118.2,0.61
		c-13.83,1.95-26.44,4.68-39.1,10c-2.8,1.18-8.13,4.09-7.79,7.26c4.67,7.95,17.8,7.16,17.48,12.68c-0.1,1.78-1.38,2.72-3.42,3.32
		c-11.63,3.4-33.18,9.89-35.36,18.19c-1.85,7.06,13.99,14.17,24.17,17.33c50.03,15.54,120.01,16.36,172.31,9.97
		c16.72-2.04,32.22-5.06,47.87-10.42c7.82-2.67,18.41-8.03,18.42-13.38c0-1.89-1.52-3.97-3.4-5.5
		c-13.02-10.51-30.11-10.92-30.84-15.59c-0.83-5.29,8.12-4.27,15.3-10.05c11.94-9.61-23.08-18.73-39.13-21.61
		c-1.58-0.28-2.97-0.7-3.63-1.82c-0.62-1.06-0.64-2.46-0.54-3.81c0.85-0.62,1.91-2.53,4.02-2.11c14.76,2.95,35.32,7.53,45.2,16.74
		c4.12,3.84,5.13,9.75,1.93,14.46c-1.99,2.92-4.78,4.41-8.12,7.09c8.28,3.6,15.95,6.44,22.05,12.47c5.7,5.63,5.93,13.9-0.06,19.46
		c-6.33,5.86-14.34,9.35-22.8,11.95c-52.31,16.12-126.23,15.92-180.69,8.09c-21.35-3.07-70.1-12.56-69.74-32.74
		c0.22-12.08,19.25-18.68,31.66-23.12c-6.33-2.98-11.32-7.58-9.89-13.99c3.08-13.79,38.34-20.2,55.3-22.49
		c39.79-5.38,79.58-4.71,119.38-0.2C573.92,719.02,574.96,721,574.93,722.89z"/><path fill="#302F2E" d="M309.28,365.76c-7.49,9.55-19.29,11.33-29.5,5.3c-17.55-10.36-31.11-35.97-40.69-55.08
		c-0.73-1.46-0.68-2.64-0.19-3.66c0.58-1.21,2.22-2.49,4.06-2.04c21.36,5.22,52.15,13.57,65.55,29.05
		C315.28,347.15,315.78,357.48,309.28,365.76z M305.63,347.91c-10.14-15.8-36.83-23.43-56.26-28.43
		c9.7,20.65,33.54,59.46,51.68,44.3C305.23,360.28,308.35,354.53,305.63,347.91z"/><path fill="#302F2E" d="M381.04,357.29c-25.07-3.76-30.7-51.9-33.51-75.47c-0.19-1.57,0.36-2.86,1.16-3.67
		c0.64-0.65,2.7-1.48,3.94-0.66c22,14.48,65.64,46.36,48.94,70.48C397.38,353.99,389.6,358.58,381.04,357.29z M396.51,328.87
		c-4.64-9.34-11.4-16.77-19.03-23.33c-7.03-6.04-13.34-12.03-21.86-17.04c2.57,19.62,8.04,52.91,23.25,60.62
		c5.74,2.91,11.96,0.18,15.77-3.99C398.55,340.85,399.01,334.99,396.51,328.87z"/><path fill="#302F2E" d="M295.43,439.88l-46.43-0.34c-6.75-0.05-12.94-1.04-18.97-3.54c-8.8-3.65-12.36-13.19-7.53-21.71
		c7.23-12.77,24.73-12.81,39.05-6.63c14.23,6.14,26.58,15.32,37.4,26.28c1.09,1.1,0.84,3.1,0.44,3.97
		C298.86,439.06,297.69,439.9,295.43,439.88z M249.46,432.24l37.07-0.09c-13.4-11.23-30.91-22.85-47.32-21.15
		c-4.8,0.85-8.69,3.23-10.75,7.54c-2.08,4.35-0.11,8.95,4.46,10.68C237.84,431.39,243.37,432.25,249.46,432.24z"/><path fill="#302F2E" d="M288.03,239.98c6.18,9.71,18.86,35.49,14.87,38.52c-0.69,0.53-2.6,1.17-3.88,0.56
		c-17.4-8.36-44.14-19.83-53.16-33.84c-4.04-6.28-4.33-14.81,1.28-20.11c6.44-6.09,16.38-6.38,23.99-2.18
		C278.46,226.98,283.57,232.96,288.03,239.98z M293.21,267.86c-4.1-12.03-9.2-21.71-16.29-30.69c-4.81-5.24-10.55-9.87-17.84-9.73
		c-3.72,0.07-7.06,2.22-8.35,4.83c-1.4,2.83-0.61,6.03,1.19,8.86C260.15,253.19,278.88,260.93,293.21,267.86z"/><path fill="#302F2E" d="M405.7,267.48c0.28,2.54-0.36,4.29-1.69,5.01c-1.97,1.06-3.62,0.28-5.29-1.23
		c-13.72-12.46-31.97-30.13-33.76-48.1c-1.05-10.6,5.18-19.14,15.82-20.41c13.94-1.67,19.59,15.48,21.18,30.17L405.7,267.48z
		 M396.73,259.11l-2.04-24.75c-0.88-6.61-1.98-13.1-4.98-18.98c-2.11-3.62-5.17-5.96-9.1-5.35c-3.29,0.51-6.76,3.01-7.79,6.99
		C369.42,230.17,385.74,249.24,396.73,259.11z"/><path fill="#302F2E" d="M487.77,268.39c-0.54,2.34-0.77,3.79-2.2,4.67c-1.13,0.7-3.75,1.05-4.87-0.79
		c-9.54-15.57-18.41-38.75-11.58-55.16c3.27-7.85,11.57-12.29,19.69-9.81c4.62,1.41,7.43,5.78,8.31,10.38
		c1.23,6.39-0.48,12.39-1.93,18.68L487.77,268.39z M489.09,230.48c1.27-4.95,2.64-11.21-0.46-15.09c-3.16-3.95-9.48-1.36-11.77,2.51
		c-6.36,10.77-1.1,28.23,5.01,40.68L489.09,230.48z"/><path fill="#302F2E" d="M224.27,353.77c-1.86,2.24-22.94-2.23-35.21-4.08c-5.73-0.86-11.45-1.68-16.46-4.26
		c-5.64-2.9-8.88-8.72-8.05-14.57c0.85-6.03,5.76-10.88,12.35-11.95c16.9-2.72,38.26,15.88,48.08,31.04
		C225.67,351.04,224.78,353.15,224.27,353.77z M212.36,345.71c-6.64-8.07-14-13.4-22.42-17.64c-4.2-1.54-8.35-3-12.74-2.02
		c-3.15,0.79-5.19,3.06-5.54,5.5c-0.4,2.76,0.73,5.07,3.15,6.7c3.22,2.4,7.19,3.11,11.22,3.77L212.36,345.71z"/><path fill="#302F2E" d="M296.54,477.43c-21,5.93-37.82,23.55-48.09,11.52c-2.93-3.44-3.42-8.62-1.35-13.02
		c9.19-19.54,52.07-9.69,52.45-2.39C299.63,475.28,298.57,476.85,296.54,477.43z M261.15,485.59l24.18-11.92
		c-10.64-3.32-24.67-3.57-31.33,4.27c-1.37,2.19-1.47,4.94-0.03,6.66C255.19,486.05,258.58,486.85,261.15,485.59z"/><path fill="#302F2E" d="M559.69,268.24c-0.98,1.76-3.54,1.55-4.56,1.1c-5.17-2.31-7.7-43.66,11.01-47.74
		c4.33-0.94,8.34,0.05,11.21,2.59c6.84,6.07,2.97,14.91-3.25,22.94C568.86,253.9,564.07,260.38,559.69,268.24z M559.27,254.72
		l13.14-18.28c1.79-2.49,1.33-6.52-1.39-7.77C563.23,225.08,557.68,242.76,559.27,254.72z"/><path fill="#9ED0AB" d="M366.72,737.58c-2.19-0.54-1.07-5.13-2.18-5.7c-0.29-0.15-5.53,6.21-7.75,2.3
		c-1.16-2.05,1.4-3.77,2.51-4.82c2.71-2.57,10.11-0.33,10.38,0.49c0.47,1.43,0.41,2.61,0.12,4.19l-0.51,2.83
		C369.16,737.56,367.77,737.84,366.72,737.58z"/><path fill="#9ED0AB" d="M732.04,682.47c2.41,1.93-1.99,7.45-3.42,7.82c-3.28,0.85-8.88-6.38-8.94-6.67
		c-0.12-0.53,0.54-1.65,1.09-2.02c1.47-0.96,3.51,2.17,4.87,2.6C727.95,684.94,730.14,680.95,732.04,682.47z"/><path fill="#9ED0AB" d="M216.48,298.44c-1.03,1.17-0.66,4.3-2.81,4.01c-1.69-0.23-3.87-1.46-4.07-3.04
		c-0.37-2.91,2.6-2.49,4.44-3.68c2.35-1.51,2.85-6.91,6.94-6.77c1.56,0.06,2.12,1.96,1.08,3.14L216.48,298.44z"/><path fill="#9ED0AB" d="M222.31,462.61c1.52,2.19-0.45,9.99-3.59,9.86c-3.14-0.13,0.69-5.84-1.56-7.54
		c-0.87-0.66-1.53-1.11-1.85-1.68c-0.44-0.78-0.23-2.6,1.06-2.82C218.18,460.11,221.22,461.04,222.31,462.61z"/><path fill="#9ED0AB" d="M524.46,259.86c0.24,2.28,0.09,4.4-0.95,5.19c-1.42,1.08-3.55,1.28-4.9,0.79
		c-2.16-0.78-1.85-3.51-1.35-5.57c0.56-2.3,1.6-3.31,3.67-3.78C522.58,256.11,524.16,257.02,524.46,259.86z"/><path fill="#9ED0AB" d="M334.05,252.46c2.16,2.66-3.78,7.21-5.86,6.11c-2.34-1.24-3.53-5.5-3.66-7.7
		c2.57-1.42,4.45,1.21,5.87,1.02C332.35,251.62,333.22,251.44,334.05,252.46z"/><path fill="#9ED0AB" d="M280.57,527.41c-0.42,0.48-2.48,0.3-3.04-0.01c-0.92-3.09,0.61-6,1.09-9.25l-1.15-2.6
		c-0.28-0.63,1.13-1.61,2.61-1.47c0.81,0.08,2.2,0.25,2.68,0.65c0.56,0.47-1.2,2.21-1.19,2.97
		C281.64,520.89,282.61,524.57,280.57,527.41z"/><path fill="#9ED0AB" d="M218.39,380.54c0.91,3.05-3.18,5.54-5.81,4.68c-5.72-1.85-9.08-2.19-8.77-3.83
		C204.42,378.15,210.27,381.62,218.39,380.54z"/><path fill="#9ED0AB" d="M647.62,563.32c-0.66,6.34,3.73,9.07,0.61,10.31c-3,1.19-6.87-6.04-5.68-9.33
		C643.08,562.8,646.34,562.44,647.62,563.32z"/><path fill="#9ED0AB" d="M438.98,272.02c-0.99,1.2-4.44,0.74-5.66-0.03c-1.91-1.22-2.27-8.64,0.17-9.08
		c3.41-0.63,1.62,4.66,4.35,5.45C439.08,268.72,440.51,270.16,438.98,272.02z"/><path fill="#9ED0AB" d="M340.42,252.39l-2.53,0.16c-0.71,0.04-1.94-1.63-1.18-2.51c1.14-1.32,2.21-3.6,3.61-4.75
		c1.95-1.6,4.07,1.13,3.98,3.17C344.21,250.47,343.27,252.21,340.42,252.39z"/><path fill="#9ED0AB" d="M685.25,798.82c-0.71,1.67-7.61,0.24-7.98-1.57c-0.28-1.36-0.02-3.15,0.78-3.72
		C681.08,791.35,686.33,796.28,685.25,798.82z"/><path fill="#9ED0AB" d="M529.62,220.26c0.85,1.94-0.82,7.2-2.75,8.08c-2.88,1.31-3.09-5.98-1.38-8.39
		C526.11,219.07,528.81,218.42,529.62,220.26z"/><path fill="#9ED0AB" d="M343.43,199.36c-0.76,2.14-3.16,5.96-5.5,3.5c-1.44-1.51,0.85-6.01,2.41-7.26
		c0.96-0.76,2.27-0.87,2.93-0.23C344.06,196.12,344.23,197.12,343.43,199.36z"/><path fill="#9ED0AB" d="M215.76,233.89c1.18,1.43,1.22,7.38,0.23,8.55c-0.5,0.59-2.65,0.7-3.08-0.27
		c-1.07-2.44-1.19-6-0.1-8.28C213.46,233.42,215.31,233.34,215.76,233.89z"/><path fill="#9ED0AB" d="M218.55,221.91c0.18,2.41-0.92,7.88-3.61,7.92c-3-1.04-1.54-7.38,0.71-8.91
		C216.81,220.14,218.41,220.04,218.55,221.91z"/><path fill="#9ED0AB" d="M235.21,200.69c-1.15,1.92-5.11,5.28-7.32,4.62c-2.98-2.74,3.43-8.16,6.41-7.35
		C235.05,198.17,236.08,199.25,235.21,200.69z"/><path fill="#9ED0AB" d="M493,177.03c1.39,1.49,0.14,2.76-0.52,3.03c-0.8,0.32-2.05,0.61-3.25,0.39l-3.44-0.65
		c-0.86-0.16-2.05-1.62-0.81-3.12C486.5,174.84,491.42,175.33,493,177.03z"/><path fill="#9ED0AB" d="M243.6,281c0.89,2.85-4,2.9-5.51,2.18c-1.93-0.93-3.17-5.9-0.9-6.46
		C239.19,276.23,242.87,278.69,243.6,281z"/><path fill="#9ED0AB" d="M827.06,720.96c-3.26,2.15-5.39-4.94-4.12-7.5c0.4-0.8,2.04-1.56,3.19-0.43
		C827.6,714.45,828.77,719.83,827.06,720.96z"/><path fill="#9ED0AB" d="M536.56,210.19c-0.35,1.98-2.57,6.14-5.33,6.2c-2.45-2.7,1.11-8.9,3.98-8.75
		C536.18,207.69,536.85,208.56,536.56,210.19z"/><path fill="#9ED0AB" d="M442.57,212.16l-1.27,3.61c-0.28,0.81-2.87,1.25-3.34,0.25c-1.2-2.53,0.39-6.02,1.73-8.17
		c1.39-0.59,2.59-0.39,2.85,0.27C442.94,209.15,443.09,210.7,442.57,212.16z"/><path fill="#9ED0AB" d="M703.04,659.07c-3.16,3.2-7.76-5.65-4.84-7.21C701.09,650.32,704.89,657.2,703.04,659.07z"/><path fill="#9ED0AB" d="M260.04,192.92c-2.39,1.11-5.58,0.7-8.19,0.45c-0.42-1.43-0.36-2.55,0.18-2.97
		c1.57-1.22,5.44-1.6,7.87-0.95C260.84,189.69,261.26,192.35,260.04,192.92z"/><path fill="#9ED0AB" d="M305.01,213.9c-2.12,2.75-8.26-3.21-5.9-5.92C301.35,205.39,307.42,210.78,305.01,213.9z"/><path fill="#9ED0AB" d="M523.95,252.85c-0.57,1.51-1.94,2.24-2.96,1.66c-2.61-1.49-1.15-10.25,2.15-9.21
		C525.1,245.92,524.63,251.04,523.95,252.85z"/><path fill="#9ED0AB" d="M824.54,771.16c-2.26-0.83-0.64-8.06,1.71-8.49c2.92-0.49,2.52,3.1,2.16,4.5
		C828.04,768.57,827.53,772.27,824.54,771.16z"/><path fill="#9ED0AB" d="M752.13,671.78c-1.78,0.81-4.63,2.49-6.03,1.26c-1.27-1.11-0.59-2.96,0.09-3.45
		c2.78-1.99,6.47-2.72,7.3-1.54C754.39,669.33,754.38,670.75,752.13,671.78z"/><path fill="#9ED0AB" d="M788.75,456.55c-1.3,1.47-5.54,3.1-6.7,1.69c-2.03-2.46,0.96-4.35,2.9-5.06
		c1.58-0.58,2.53-1.09,3.62-0.23C789.39,453.58,790.22,454.89,788.75,456.55z"/><path fill="#9ED0AB" d="M448.4,197.35c0.68,2.32-2.07,7.48-4.87,6.93c-2.33-0.46-1.04-4.17,0.03-5.63l1.54-2.1
		C445.6,195.86,447.78,195.26,448.4,197.35z"/><path fill="#9ED0AB" d="M147.89,304.5c-0.2,2.68-2.57,5.38-4.8,5.49c-1.72,0.08-2.31-1.59-2.06-2.43
		c0.62-2.06,2.04-4.2,3.77-5.11C146.13,301.75,148.09,301.83,147.89,304.5z"/><path fill="#9ED0AB" d="M276.61,573.55l-0.44,4.08c-0.08,0.73-1.8,1.78-2.95,0.82c-1.9-2.17-1.45-6.59-0.16-8.77
		c1.44-0.22,2.19-0.12,2.53,0.28C276.3,570.8,276.79,571.81,276.61,573.55z"/><path fill="#9ED0AB" d="M137.41,325.11c0.7,1.64,0.28,4.66-0.39,7.34c-0.22,0.87-2.41,1.85-3.11,0.73
		c-1.69-2.68-0.77-6.81,0.7-8.78C136.23,324.4,137.19,324.59,137.41,325.11z"/><path fill="#9ED0AB" d="M283.93,649.39c0.65,1.94,0.57,3.01,0.12,4.12c-0.35,0.86-2.15,1.59-3.01,0.44
		c-1.55-2.08-2.28-5.78-1.21-8.07c0.36-0.77,2.71-0.66,2.92-0.01L283.93,649.39z"/><path fill="#9ED0AB" d="M557.53,195.29c-1.46,2.06-4.9,2.55-7.22,3.26c-1.01-0.96-1.27-2.45-0.7-3.46
		c1.01-1.79,3.88-3.04,6.65-2.92C557.03,192.19,558.6,193.77,557.53,195.29z"/><path fill="#9ED0AB" d="M348.16,787.15l0.46,3.99c0.08,0.73-1.16,2.08-2.76,1.49c-2.98-4.07-3.04-8.96-0.07-9.1
		C347.48,783.46,347.9,784.87,348.16,787.15z"/><path fill="#9ED0AB" d="M583.47,193.03c0.77,1.24-0.59,2.67-1.32,2.67c-0.98,0-2.31-0.15-3.54-0.49l-3.33-0.93
		c-0.68-0.19-1.2-1.96-0.47-2.69C576.97,189.44,582.04,190.7,583.47,193.03z"/><path fill="#9ED0AB" d="M678.48,801.74c0.02,1.97-2.03,5.45-3.58,6.51c-0.92,0.63-3.27,0.2-3.28-1.75
		c0-2.2,2.35-5.28,4.37-6.2C677.38,799.68,678.48,801.01,678.48,801.74z"/><path fill="#9ED0AB" d="M610.75,243.94c0.36,2.55-0.52,4.9-2.17,7.06c-0.51,0.66-2.8,1.07-3.33-0.5
		c-0.75-2.21,1.04-6.69,2.93-7.7C609.86,241.91,610.65,243.22,610.75,243.94z"/><path fill="#9ED0AB" d="M801.44,807.01c-0.23,2.25-4.6,5.27-6.49,4.17c-2.61-1.5-0.16-4.6,1.53-5.48
		c1.33-0.69,1.88-1.15,3.02-1.22C800.3,804.43,801.68,804.73,801.44,807.01z"/><path fill="#9ED0AB" d="M715.59,818.27c1.2,0.91,1.25,2.54,0.73,3.56c-0.55,1.08-2.81,0.49-4.03-0.1l-3.08-1.48
		c-0.79-0.38-1.53-2.63-0.25-3.55C710.55,815.56,714.02,817.08,715.59,818.27z"/><path fill="#9ED0AB" d="M206.77,294.89c0.59,1.33-0.65,2.86-1.52,2.66l-3.29-0.77c-1.88-0.44-5.22-2.87-2.82-4.88
		C200.85,290.46,205.9,292.93,206.77,294.89z"/><path fill="#9ED0AB" d="M648.63,826.37c-0.16,2.24-8.24,5.5-8.31,1.44c-0.05-2.96,5.46-4.21,7.39-4.13
		C648.47,824.94,648.68,825.67,648.63,826.37z"/><path fill="#9ED0AB" d="M219.62,480.52l-0.29,3.42c-0.08,0.98-2.3,1.87-3.44,0.47c-1.3-1.6-1.07-6.11,0.06-7.84
		c0.65-1,2.67-0.7,3.07-0.13C219.57,477.22,219.8,478.47,219.62,480.52z"/><path fill="#9ED0AB" d="M741.04,825.15c1.07,1.21,0.27,2.77-0.38,3.14c-1.75,1-6.09,0.16-7.24-1.15
		c-0.75-0.86-0.81-2.65,0.49-3.28C735.8,822.94,739.47,823.36,741.04,825.15z"/><path fill="#9ED0AB" d="M200.24,396.34c2.13,1.78-2.68,9.86-5.2,7.62c-1.9-1.69,0.47-6.36,2.16-7.46
		C198.25,395.81,199.64,395.84,200.24,396.34z"/><path fill="#9ED0AB" d="M505.42,181.61c0.91,1.7-0.52,2.97-1.2,2.92c-0.91-0.06-1.93-0.31-3.09-0.83l-2.99-1.35
		c-0.79-0.36-1.48-2.59-0.05-3.46C500.03,177.74,504.29,179.48,505.42,181.61z"/><path fill="#9ED0AB" d="M186.64,377.56c1.68,2.98-3.26,3.95-7.56,1.88c-0.82-0.4-1.3-2.71-0.11-3.59
		C180.88,374.43,185.3,375.18,186.64,377.56z"/><path fill="#9ED0AB" d="M791.25,669.14c1,0.89,0.4,3.06-0.26,3.29c-0.98,0.33-6.23-0.88-7.55-2.3
		c-0.8-0.86-0.19-3.34,0.91-3.39C786.66,666.62,789.4,667.49,791.25,669.14z"/><path fill="#9ED0AB" d="M569.44,845.61l-3.58-0.14c-0.61-0.02-1.49-1.39-0.98-2.51c1.08-2.39,6.57-3.12,8.15-1.48
		c0.64,0.66,0.67,1.9,0.35,2.51C572.77,845.15,571.54,845.69,569.44,845.61z"/><path fill="#9ED0AB" d="M849.22,378.69c-1.59,2.65-4.18-0.1-5.09-1.28c-0.87-1.14-3.03-3.72-0.66-5.15
		C845.95,370.76,850.83,376.01,849.22,378.69z"/><path fill="#9ED0AB" d="M865.96,409.43c0.23,1.71-0.15,3.05-0.31,3.74c-0.2,0.84-2.65,1.13-3.09,0.28
		c-1.39-2.66-1.56-6.26-0.1-8.77c1.4-0.4,2.83-0.19,2.93,0.51L865.96,409.43z"/><path fill="#9ED0AB" d="M709.7,670.21c-2.56,2.02-7.33-5.46-4.78-7.3C707.56,661.01,712.32,668.15,709.7,670.21z"/><path fill="#9ED0AB" d="M142.97,356.82c-1.65,2.21-3.71-0.04-4.31-1.14c-0.8-1.47-2.82-4.63-0.49-5.94
		C140.71,348.31,144.46,354.82,142.97,356.82z"/><path fill="#9ED0AB" d="M778.22,462.25c-1.5,1.61-3.65,3.33-5.98,3.27c-1.06-0.2-1.41-2.73-0.85-3.6
		c1.63-2.51,5.63-3.73,6.46-3.21C778.68,459.24,779.07,461.33,778.22,462.25z"/><path fill="#9ED0AB" d="M863.98,422.55l-1.59,3.37c-0.57,1.2-2.18,1.57-3.88,0.32c0.32-2.53,0.91-5.68,2.97-7.62
		c0.83-0.78,2.59-0.25,2.87,0.53C864.62,419.87,864.59,421.24,863.98,422.55z"/><path fill="#9ED0AB" d="M738.03,505.61c0.12,3.79-3.93,9.09-6.09,6.1c-1.36-1.88,1.67-6.92,3.85-7.48
		C737.4,503.82,738.01,505.01,738.03,505.61z"/><path fill="#9ED0AB" d="M240.83,517.81c1.32-1.48,7.19,0.12,7.75,1.95c0.25,0.83-0.03,2.39-0.68,2.73
		c-0.9,0.47-4.61-0.1-6.59-1.31C240.57,520.73,239.97,518.78,240.83,517.81z"/><path fill="#9ED0AB" d="M279.81,535.33l-0.88,4.03c-0.19,0.89-1.91,1.96-3.13,0.75c-1.27-1.27-0.69-7.11,0.6-8.2
		c0.71-0.6,2.08-0.75,2.6-0.29C279.82,532.34,280.13,533.85,279.81,535.33z"/><path fill="#9ED0AB" d="M724.23,538.87l-1.17,3.59c-0.28,0.84-2.29,1.96-3.35,0.55c-1.47-1.96-0.02-6.67,1.6-8.23
		c0.79-0.76,2.5,0.01,2.74,0.71C724.33,536.31,724.78,537.17,724.23,538.87z"/><path fill="#9ED0AB" d="M697.84,561.13c2.78,2.8-4.3,5.16-7.74,3.48c-0.69-0.34-1.18-1.78-0.2-2.98
		C691.4,559.76,696.2,559.48,697.84,561.13z"/><path fill="#9ED0AB" d="M655.59,583.75c-2.38,2.73-6.53-3.68-6.12-5.99c0.17-0.95,1.72-1.95,3.28-1.19
		C654.52,577.44,657.14,581.97,655.59,583.75z"/><path fill="#9ED0AB" d="M676.25,616c-2.37,1.78-4.12-0.59-4.99-1.81c-1.16-1.62-2.27-5.09,0.09-5.54
		C674.6,608.02,677.2,613.92,676.25,616z"/><path fill="#9ED0AB" d="M683.04,626.84c-2.09,2.14-4.06-0.53-4.8-1.75c-1-1.65-2.74-4.86,0.29-5.56
		C681.03,618.96,684.71,625.13,683.04,626.84z"/><path fill="#9ED0AB" d="M779.23,665.83c1.81,3.26-4.32,4.16-7.84,2.52c-0.81-0.38-1.56-2.4-0.3-3.4
		C773.12,663.35,777.21,664.28,779.23,665.83z"/><path fill="#9ED0AB" d="M338.93,233.51c1.27,1.98,1.95,6.02,1.46,7.34c-0.25,0.68-2.28,1.27-2.94,0.52
		c-1.61-1.83-2.58-5.29-1.71-7.54C336.25,232.49,338.38,232.64,338.93,233.51z"/><path fill="#9ED0AB" d="M740.92,678.28l-3,2.08c-0.76,0.53-2.91,0.48-3.08-1.64c-0.21-2.57,3.89-5.81,6.5-5.02
		C743.28,674.29,742.62,677.1,740.92,678.28z"/><path fill="#9ED0AB" d="M301.72,710.71c0.79,1.44,0.82,2.53,0.81,3.51c0,0.95-1.95,2.24-3.23,1.13
		c-1.65-1.43-3.12-5.4-2.54-7.36c0.45-1.49,2.68-1.46,3.2-0.51L301.72,710.71z"/><path fill="#9ED0AB" d="M224.79,208.55c2.05,1.53-3.51,9.69-5.86,7.48C216.84,214.07,221.81,206.32,224.79,208.55z"/><path fill="#9ED0AB" d="M830.63,738.05c1.21,2.7,1.2,6.58,0.12,8.13c-0.39,0.57-2.2,0.68-2.69-0.15
		c-1.36-2.3-1.58-5.89-0.19-8.21C828.31,737.1,830.34,737.4,830.63,738.05z"/><path fill="#9ED0AB" d="M853.42,381.97c2.78,0.97,5.42,5.8,3.34,7.23c-2.69,1.85-6.63-3.61-6.23-5.91
		C850.74,382.08,852.32,381.59,853.42,381.97z"/><path fill="#9ED0AB" d="M359.29,749.91c1.08,1.64-4.57,8.76-6.69,6.24c-1.33-1.57,1.22-5.38,2.67-6.63
		C356.8,748.2,358.52,748.75,359.29,749.91z"/><path fill="#9ED0AB" d="M595.38,198.25c0.69,1.25,0.65,3.07-0.05,3.45c-1.84,1.01-9.58-3.09-7.36-6.06
		C589.41,194.18,594.38,196.43,595.38,198.25z"/><path fill="#9ED0AB" d="M412.37,184.28c-0.42,3.14-3.97,1.36-5.41,0.27c-1.18-0.89-3.99-2.96-2.08-5
		C406.54,177.8,412.77,181.35,412.37,184.28z"/><path fill="#9ED0AB" d="M431.73,836.76c1.53,1.25,0.63,2.92-0.24,3.28c-2.27,0.92-6.88-0.42-7.24-0.8
		c-0.6-0.63-0.7-3.04,0.51-3.46C426.72,835.07,429.82,835.2,431.73,836.76z"/><path fill="#9ED0AB" d="M480.21,176.91c0.72,0.37,0.62,2.52,0.09,3.06c-0.84,0.86-7.12,1.98-7.73,0.84
		c-0.56-1.07-0.64-2.75,0.75-3.62C475.15,176.04,478.14,175.83,480.21,176.91z"/><path fill="#9ED0AB" d="M134.36,337.4c3.21-1.91,4.89,5.32,4.1,7.58c-0.23,0.66-1.22,1.08-1.96,1.02
		C133.7,345.77,132.48,338.52,134.36,337.4z"/><path fill="#9ED0AB" d="M520.8,843.85c1.5,0.45,1.55,2.8,0.79,3.39c-1.01,0.79-4.93,1.03-7.41,0.23
		c-0.89-0.29-1.29-2.47-0.09-3.41C515.65,843.17,518.64,843.21,520.8,843.85z"/><path fill="#9ED0AB" d="M374.38,176.44c-1.95,1.3-5.54,2.15-7.56,0.81c-0.8-0.53-0.35-2.42,0.23-2.83
		c2.21-1.56,6.57-2.01,6.97-1.75C375.12,173.36,375.73,175.54,374.38,176.44z"/><path fill="#9ED0AB" d="M694.2,267.97c0.9,1.33,0.21,2.39-0.3,2.6c-1.56,0.66-4.74,0.13-6.87-1.11
		c-0.81-0.47-1.5-2.66,0.02-3.65C688.83,264.65,692.85,265.96,694.2,267.97z"/><path fill="#9ED0AB" d="M195.27,436.08l0.64,3.35c0.16,0.82-1.52,2.43-2.95,1.3c-1.83-1.44-3.15-5.61-2.2-7.82
		c0.41-0.95,2.74-0.87,3.03-0.22L195.27,436.08z"/><path fill="#9ED0AB" d="M841.05,368.44c-1.73,2.84-4.13,0.05-5.1-0.94c-1.18-1.21-3.1-3.81-0.43-5.19
		C837.67,361.21,842.28,366.42,841.05,368.44z"/><path fill="#9ED0AB" d="M533.61,843.63c1.28,0.21,1.4,2,1.09,2.71c-0.79,1.81-5.3,2.13-7.6,1.19
		c-0.89-0.36-1.45-2.67-0.08-3.49C528.7,843.03,531.55,843.29,533.61,843.63z"/><path fill="#9ED0AB" d="M689.18,637.88c-2.65,2.36-6.88-4.95-5.08-6.8C686.93,628.19,692.08,635.29,689.18,637.88z"/><path fill="#9ED0AB" d="M279.83,624.58l-0.31,3.62c-0.07,0.83-2.34,1.42-3.03,0.38c-1.52-2.3-2.02-5.68-0.88-7.87
		c0.4-0.78,2.72-0.59,3.13,0.06C279.2,621.5,279.99,622.76,279.83,624.58z"/><path fill="#9ED0AB" d="M612.03,230.46c1.25,2.03,1.19,5.89-0.01,8.07c-0.41,0.74-2.72,0.74-3.13-0.46
		c-0.67-2-0.65-5.14-0.01-7.17C609.27,229.69,611.58,229.73,612.03,230.46z"/><path fill="#9ED0AB" d="M669.19,604.94c-1.71,2.27-3.68-0.15-4.38-1.27c-0.87-1.39-3.05-4.27-0.5-5.83
		C666.68,596.38,670.72,602.91,669.19,604.94z"/><path fill="#9ED0AB" d="M805.61,332.02c-0.94,3.1-3.88,0.57-4.96-0.18c-1.29-0.91-3.63-2.99-1.43-5.01
		C800.97,325.23,806.41,329.36,805.61,332.02z"/><path fill="#9ED0AB" d="M442.54,837.91c2.24,0.56,2.81,1.91,2.23,3.42c-0.68,1.77-5.64,1.16-7.43,0.02
		c-0.75-0.48-1.5-2.21-0.27-3.34C438.14,837.01,440.83,837.48,442.54,837.91z"/><path fill="#9ED0AB" d="M610.82,835.69c1.25,0.79,0.91,2.73,0.33,3.16c-1.91,1.4-6.68,1.54-7.63,0.4
		c-0.62-0.74-0.4-2.95,1.03-3.44C606.28,835.2,608.95,834.5,610.82,835.69z"/><path fill="#9ED0AB" d="M362.1,181.01c-1.25,1.36-5.63,3.72-7.04,1.95c-2.24-2.81,5.14-6.69,6.99-5.45
		C362.85,178.04,363.62,179.35,362.1,181.01z"/><path fill="#9ED0AB" d="M337.04,220.55c1.31,1.4,1.38,7.13,0.27,8.08c-0.72,0.62-2.85,0.61-3.28-0.62
		c-0.76-2.22-0.97-5-0.04-7.12C334.37,220.04,336.53,220,337.04,220.55z"/><path fill="#9ED0AB" d="M276.63,585.88c0,2.01,0.29,5.79-2.71,5.21c-2.28-0.44-2.94-8.98,0.56-8.79
		C276.03,582.38,276.63,582.91,276.63,585.88z"/><path fill="#9ED0AB" d="M619.04,253.51c0.81,0.88,0.35,2.84-0.34,2.89l-3.7,0.31c-1.43,0.12-3.04,0.08-3.67-0.5
		c-0.7-0.65-0.59-3.26,0.25-3.49C613.78,252.12,616.78,251.78,619.04,253.51z"/><path fill="#9ED0AB" d="M419.62,835.3c0.37,3.38-3.09,2.75-4.74,2.24c-1.25-0.39-4.32-0.78-3.3-3.64
		C412.43,831.5,419.31,832.53,419.62,835.3z"/><path fill="#9ED0AB" d="M636.5,831.23c-0.35,1.52-6.2,3.48-7.81,2.16c-0.83-0.68-0.61-2.56,0.12-3.05
		c2.19-1.46,5.69-2.32,6.96-1.61C636.49,829.13,636.7,830.37,636.5,831.23z"/><path fill="#9ED0AB" d="M630.45,253.56c1.33,0.5,1.54,2.12,1.3,2.84c-0.47,1.37-1.96,1.72-3.8,1.42l-3.64-0.59
		c-0.89-0.14-1.6-2.49-0.43-3.43C625.43,252.55,628.62,252.87,630.45,253.56z"/><path fill="#9ED0AB" d="M745.72,291.32c1.06-2.65,7.8,0.06,7.98,3.16c0.04,0.72-0.39,1.97-1.4,2
		C749.87,296.54,744.75,293.75,745.72,291.32z"/><path fill="#9ED0AB" d="M857.56,434.39c-1.23,1.53-3.85,4.44-5.67,2.73c-1.99-1.87,0.93-4.51,2.25-5.76
		c1.36-1.29,2.43-1.81,3.66-0.8C858.69,431.29,859.09,432.49,857.56,434.39z"/><path fill="#9ED0AB" d="M684.68,561.8c1.36,0.77,0.84,2.45,0.32,2.89c-0.88,0.75-2.44,1.19-3.9,0.89l-3.42-0.7
		c-0.85-0.17-1.94-1.88-0.64-3.03C678.53,560.55,682.58,560.61,684.68,561.8z"/><path fill="#9ED0AB" d="M727.85,822.21c1.27,1.19,0.83,2.96,0.52,3.61c-0.47,1.01-2.21,0.56-3.47,0.18l-3.34-1.01
		c-0.85-0.26-1.94-2.2-0.65-3.28C722.27,820.56,726.55,820.99,727.85,822.21z"/><path fill="#9ED0AB" d="M848.09,441.21c-0.79,2.21-6.19,4.61-7.75,2.73c-1.77-2.13,2.18-4.18,3.64-4.63l2.54-0.79
		C847.38,438.26,848.72,439.47,848.09,441.21z"/><path fill="#9ED0AB" d="M307.47,726.75c-2.12,2.45-4.47-1.31-5.01-2.96l-1.01-3.12c-0.27-0.83,1.27-2.08,2.65-1.53
		C306.06,719.93,309.17,724.78,307.47,726.75z"/><path fill="#9ED0AB" d="M834.96,443.79c1.47,0.51,1.01,2.52,0.24,2.9c-2.84,1.42-7.17,1.44-7.76,0.63
		c-0.73-0.99-0.58-3.26,1.04-3.56C830.37,443.42,832.83,443.04,834.96,443.79z"/><path fill="#9ED0AB" d="M200.85,451.95c-2.3,0.9-6.54-5.06-5.12-6.95c1.81-2.4,4.24,0.22,5.11,1.54
		C201.6,447.68,204.22,450.62,200.85,451.95z"/><path fill="#9ED0AB" d="M812.43,444.88c1.14,0.76,0.63,2.68,0.08,3.06c-1.45,0.99-5.62,1.87-7.04,1.11
		c-0.8-0.43-1.55-2.08-0.43-3.12C806.68,444.4,810.49,443.6,812.43,444.88z"/><path fill="#9ED0AB" d="M778.78,821.33c-1.89,1.38-5.15,2.49-6.85,1.89c-1.21-0.48-1.05-2.62-0.48-3.22
		c1.91-1.97,5.35-3.15,7.13-2.08C779.34,818.37,780.29,820.22,778.78,821.33z"/><path fill="#9ED0AB" d="M657.18,258.67c0.81,1.38,0.12,2.66-0.39,2.69l-2.85,0.13c-1.87,0.08-5.83-0.73-4.64-3.54
		C650.37,255.39,655.98,256.61,657.18,258.67z"/><path fill="#9ED0AB" d="M427.4,212.32c3.15-1.29,4.42,7.08,4.04,7.77c-0.45,0.83-2.13,1.27-2.95,0.92
		C426.65,220.21,425.03,213.3,427.4,212.32z"/><path fill="#9ED0AB" d="M225.22,265.54c-1.96,2.61-4.33-0.96-4.99-2.43l-1.18-2.64c-0.33-0.74,0.61-2.46,2.22-2.18
		C223.36,258.66,226.69,263.58,225.22,265.54z"/><path fill="#9ED0AB" d="M425.78,200.62c0.84,2.21,2.55,4.67,1.67,7.24c-0.23,0.67-2.01,1.15-2.83,0.31
		c-1.74-1.78-3.21-5.38-2.24-7.66C422.89,199.33,425.34,199.44,425.78,200.62z"/><path fill="#9ED0AB" d="M730.65,282.27c0.27,4.66-7.26,1.11-8.08-0.98c-0.41-1.05,0.29-2.58,1.84-2.71
		C726.16,278.44,730.53,280.26,730.65,282.27z"/><path fill="#9ED0AB" d="M340.97,739.67c1.1,0.57,0.89,2.76,0.36,3.29c-1.11,1.11-6.63,0.95-7.77-0.04
		c-0.94-0.81-0.86-2.92,0.84-3.46C336.26,738.87,338.81,738.55,340.97,739.67z"/><path fill="#9ED0AB" d="M352.84,799.69c0.66,1.13,0.89,2.81,0.55,3.48c-0.34,0.66-2.16,1.14-3.08,0.47
		c-2.09-1.51-3.64-4.73-2.74-7c0.45-1.13,2.77-1.22,3.36-0.21L352.84,799.69z"/><path fill="#9ED0AB" d="M569.88,190.65c1.34,0.74,0.73,2.58,0.09,2.92c-1.98,1.03-5.59,1.32-7.48,0.55
		c-0.8-0.33-1.74-1.97-0.39-3.17C563.67,189.57,567.61,189.4,569.88,190.65z"/><path fill="#9ED0AB" d="M824.08,778.69l-1.58,3.43c-0.5,1.09-3.15,1.61-3.73-0.05c-0.71-2.05,1.34-5.61,2.72-7.13
		c0.88-0.97,2.25-0.23,2.63,0.5C824.5,776.18,824.79,777.17,824.08,778.69z"/><path fill="#9ED0AB" d="M367.54,743.61c-1.21,1.72-3.01,3.91-5.33,3.88c-1.29-0.02-2.07-1.97-1.77-2.81
		c0.8-2.22,4.31-4.95,6.06-4.63C367.8,740.28,368.61,742.08,367.54,743.61z"/><path fill="#9ED0AB" d="M286.89,665.54c-0.19,1.62-2.42,1.54-3.05,0.93c-0.79-0.76-1.25-2.2-1.58-3.64l-0.74-3.26
		c-0.21-0.93,2.43-2.35,3.33-1.44C286.37,659.66,287.23,662.65,286.89,665.54z"/><path fill="#9ED0AB" d="M545.47,199.06c1.82,3.34-5.02,8.11-6.62,6.14c-1.94-2.4,1.12-4.96,3.14-6.06
		C543.48,198.32,544.96,198.13,545.47,199.06z"/><path fill="#9ED0AB" d="M324.74,247.19c-3.09,1.82-7.15-7.06-3.89-8.1C323.97,238.08,327.18,245.76,324.74,247.19z"/><path fill="#9ED0AB" d="M351.44,762.44c-0.48,2.06-1.61,6.34-4.41,5.06c-2.34-1.08,0.28-8.77,3.27-8.12
		C351.4,759.63,351.97,760.21,351.44,762.44z"/><path fill="#9ED0AB" d="M522.36,204.08c-3.3-2.17-5.76-7.6-4.33-8.67c1.33-0.99,2.72-0.43,3.74,0.82
		C523.71,198.59,525.07,201.56,522.36,204.08z"/><path fill="#9ED0AB" d="M236.64,515.19c0.2,2.27-1.34,2.34-2.01,2.24c-3.21-0.48-7.29-4.61-4.49-6.58
		C231.9,509.61,236.44,512.83,236.64,515.19z"/><path fill="#9ED0AB" d="M285.89,196.75c0.35,1.69-0.93,2.33-1.45,2.17l-2.82-0.86c-1.97-0.6-5.4-2.29-3.67-4.24
		C279.92,191.59,285.38,194.23,285.89,196.75z"/><path fill="#9ED0AB" d="M830.1,750.61c1.34,1.11,1.09,6.22-0.13,7.85c-0.51,0.67-2.64,0.9-3.14-0.3
		c-0.84-2.01-0.59-5.01,0.42-7.03C827.76,750.11,829.52,750.13,830.1,750.61z"/><path fill="#9ED0AB" d="M347.76,771.75c0.55,2.41,0.24,6.01-0.77,7.76c-0.4,0.69-2.73,0.72-3.1-0.4
		c-0.75-2.23-0.53-6.17,1.03-7.84C345.79,770.34,347.62,771.12,347.76,771.75z"/><path fill="#9ED0AB" d="M751.67,485.79c0.14,2.38-3.17,6.45-5.41,5.68c-2.25-0.77-0.79-4.38,0.47-5.57l1.97-1.86
		C749.37,483.4,751.53,483.53,751.67,485.79z"/><path fill="#9ED0AB" d="M810.84,797.61c0.52,2.57-4.11,6.52-6.03,5.69c-1.22-0.53-1.49-1.92-1.25-2.59
		c0.63-1.78,3.24-4.38,4.95-4.66C809.55,795.88,810.66,796.67,810.84,797.61z"/><path fill="#9ED0AB" d="M361,812.75c-2.1,2.5-8.17-3.37-6.04-5.88C357.12,804.32,363.32,809.98,361,812.75z"/><path fill="#9ED0AB" d="M669.5,260.94c1.21,1.05,0.38,2.61-0.24,2.83c-1.76,0.64-5.3,0.09-7.42-1.09
		c-0.63-0.35-1.06-2.3,0.05-2.97C663.74,258.59,667.57,259.27,669.5,260.94z"/><path fill="#9ED0AB" d="M445.9,266.23c-2.18,2.13-4.1-0.81-4.61-2.13c-0.68-1.79-1.34-6.2,1.61-5.8
		C445.03,258.59,447.39,264.71,445.9,266.23z"/><path fill="#9ED0AB" d="M316.81,735.08c-0.7,3.35-5.76,0.17-7.14-2.19c-0.48-0.81-0.35-2.82,1.06-3.15
		C312.82,729.26,317.34,732.55,316.81,735.08z"/><path fill="#9ED0AB" d="M338.27,207.39c1.54,2.32-0.15,10.15-3.31,8.29c-1.96-1.15-1.08-7.1,0.82-8.36
		C336.23,207.02,338.03,207.02,338.27,207.39z"/><path fill="#9ED0AB" d="M788.94,816.58c-1.86,1.36-5.69,2.5-6.24,0.21c-0.78-3.26,6.41-6.16,7.75-3.85
		C791.16,814.17,790.89,815.16,788.94,816.58z"/><path fill="#9ED0AB" d="M456.88,189.54c-1.07,2.4-3.62,3.75-5.97,4.53c-2.06-2.99,0.13-5.78,2.83-7.22
		c0.91-0.48,1.91-0.54,2.47-0.29C456.71,186.79,457.56,188.02,456.88,189.54z"/><path fill="#9ED0AB" d="M275.51,556.99c2.81,1.08,1.98,10.26-1.65,8.85c-2.03-0.78-1.45-5.88-0.81-7.76
		C273.44,556.93,274.68,556.67,275.51,556.99z"/><path fill="#9ED0AB" d="M193.6,289.38c1.32,0.59,1.15,2.23,0.75,2.87c-0.7,1.13-3.88,0.9-7.22,0.08
		c-0.79-0.19-1.84-2.36-0.76-3.33C187.98,287.55,191.61,288.48,193.6,289.38z"/><path fill="#9ED0AB" d="M659.83,564.22c-0.24,2.17-6.37,2.55-8.05,1.19c-0.86-0.7-0.39-2.51,0.22-2.91
		C654.22,561.03,660.25,560.39,659.83,564.22z"/><path fill="#9ED0AB" d="M659.47,821.63c-1.6,1.52-4.66,3.24-6.59,2.61c-1.15-0.37-1.16-2.66-0.5-3.31
		c2.08-2.04,5.74-3.45,7-2.75C660.12,818.58,660.54,820.62,659.47,821.63z"/><path fill="#9ED0AB" d="M766.99,824.47c-0.66,1.85-4.05,2.62-7.05,2.21c-0.72-0.1-1.61-0.55-1.56-2.67
		c2.05-1.49,5.15-2.63,7.69-2.29C766.76,822.26,767.18,823.94,766.99,824.47z"/><path fill="#9ED0AB" d="M644.34,256.52c0.81,1.49,0.06,2.93-0.42,2.92l-2.81-0.06c-1.93-0.04-5.83-0.62-4.71-3.4
		C637.43,253.42,643.18,254.39,644.34,256.52z"/><path fill="#9ED0AB" d="M515.7,189.08c0.55,1.48,0.53,2.59-0.6,3.35c-1.49,0.99-8.08-4.51-6.05-6.67
		C510.85,183.85,514.93,187,515.7,189.08z"/><path fill="#9ED0AB" d="M775.34,308.42c-0.53,2.42-3.87,0.89-5.24,0.09c-1.2-0.7-3.82-2.77-1.97-4.57
		C770.05,302.06,775.58,305.35,775.34,308.42z"/><path fill="#9ED0AB" d="M785.63,314.7c0.78,1.57-0.6,2.76-1.37,2.74c-1.11-0.03-2.24-0.38-3.33-1.37l-2.37-2.14
		c-0.79-0.72-0.36-3.17,0.75-3.27C781.69,310.42,784.52,312.46,785.63,314.7z"/><path fill="#9ED0AB" d="M610.94,220.46l0.8,3.97c0.21,1.04-1.46,2.59-2.66,1.66c-2.04-1.57-2.97-5.14-2.49-7.59
		c0.26-1.3,1.91-1.25,2.59-0.93C610.01,217.95,610.64,218.96,610.94,220.46z"/><path fill="#9ED0AB" d="M140.8,313.45c0.68,3-0.77,6.55-2.65,7.42c-1.55,0.72-2.78-0.81-2.7-1.62
		c0.26-2.76,1.24-4.16,2.25-6.05C138.09,312.47,140.43,311.81,140.8,313.45z"/><path fill="#9ED0AB" d="M199.05,378.81c1.15,0.82,0.83,2.18,0.35,2.96c-0.62,1-5.04,0.6-7.29-0.34
		c-0.73-0.31-1.59-2.09-0.5-3.14C193.24,376.71,197.19,377.49,199.05,378.81z"/><path fill="#9ED0AB" d="M818.33,697.29c-2.72,2.43-6.2-3.11-5.89-5.54c0.11-0.85,1.06-2.01,2.66-1.53
		C817.12,690.84,819.88,695.9,818.33,697.29z"/><path fill="#9ED0AB" d="M293.4,687.06c0.6,1.47,0.5,2.98,0.14,3.91c-0.27,0.7-2.11,1.12-2.84,0.23
		c-1.54-1.85-2.79-5.18-1.97-7.33c0.57-1.48,2.8-1.39,3.21-0.37L293.4,687.06z"/><path fill="#9ED0AB" d="M598.79,840.36c-0.76,1.79-5.17,2.73-7.32,1.7c-1.06-0.51-1.34-2.05-0.74-2.91
		c1.01-1.44,5.8-2.1,7.15-1.47C598.63,838.04,599.18,839.42,598.79,840.36z"/><path fill="#9ED0AB" d="M400.49,175.8c1.1,1.21,0.29,2.58-0.27,2.85c-0.98,0.47-2.51,0.34-3.81-0.15l-3.14-1.19
		c-0.81-0.31-1.44-2.67-0.22-3.36C394.86,172.93,398.87,174.03,400.49,175.8z"/><path fill="#9ED0AB" d="M560.1,842.96c1.56,1.56,0.15,2.98-0.57,3.08l-3.53,0.5c-1.4,0.2-2.71,0.14-3.47-0.57
		c-0.64-0.6-0.9-2.48,0.37-3.13C554.6,841.97,558.71,841.58,560.1,842.96z"/><path fill="#9ED0AB" d="M281.61,636.75c0.44,1.64,0.28,3.11-0.06,4.17c-0.24,0.75-2.19,1.21-2.98,0.28
		c-1.6-1.88-2.22-6.2-0.71-8.11c0.69-0.88,2.75-0.1,2.93,0.56L281.61,636.75z"/><path fill="#9ED0AB" d="M832.58,358.35c-0.73,3.22-4.19,1.1-5.28-0.57c-0.82-1.27-1.92-1.78-1.79-3.17
		c0.08-0.85,1.13-2.46,2.45-2.06C829.7,353.09,833.1,356.07,832.58,358.35z"/><path fill="#9ED0AB" d="M219.05,254.49c-3.16,1.93-4.61-2-4.76-4.51c-0.12-1.88-0.31-3.09,1.46-3.4
		C218.44,246.1,220.42,253.65,219.05,254.49z"/><path fill="#9ED0AB" d="M220.88,497.06c-2.36,1.86-3.54-1.32-4.03-2.49c-0.7-1.66-1.49-5.38,1.43-5.59
		C220.56,488.82,222.67,495.65,220.88,497.06z"/><path fill="#9ED0AB" d="M433.61,238.01c1.42,2.58,1.81,5.11,0.53,7.71c-0.38,0.77-2.44,1.33-3.19-0.07
		c-0.96-1.79-1.27-5.77-0.14-7.81C431.36,236.85,433.26,237.37,433.61,238.01z"/><path fill="#9ED0AB" d="M274.08,518.11c1.68,2.28-2.26,3.42-3.79,3.77l-2.67,0.61c-0.78,0.18-2.25-1.15-1.6-2.67
		C266.93,517.66,272.49,515.95,274.08,518.11z"/><path fill="#9ED0AB" d="M823.75,349.1c-0.84,3.72-3.56,0.92-4.56,0.2c-1.47-1.05-3.36-3.62-0.99-5.47
		C819.8,342.58,824.26,346.87,823.75,349.1z"/><path fill="#9ED0AB" d="M449.99,839.95c1.33-1.11,8-0.83,7.69,2.59c-0.2,2.14-5.77,1.8-7.53,0.92
		C449.31,843.05,448.76,840.98,449.99,839.95z"/><path fill="#9ED0AB" d="M814.51,341.14c-1.93,2.8-8.23-2.95-6.56-5.08C810.27,333.08,816.51,338.25,814.51,341.14z"/><path fill="#9ED0AB" d="M795.56,323.49c-0.6,2.81-3.44,1.22-4.65,0.13c-1.02-0.92-4.03-2.43-1.72-4.89
		C790.69,317.13,796.25,320.25,795.56,323.49z"/><path fill="#9ED0AB" d="M863.12,396.3l0.58,3.14c0.15,0.8-1.23,2.24-2.77,1.42c-1.9-1.01-3.29-4.5-2.78-6.68
		c0.41-1.75,2.09-1.78,3.17-0.99C861.94,393.65,862.78,394.46,863.12,396.3z"/><path fill="#9ED0AB" d="M802.77,676.6c0.49,1.76-1.48,2.67-2.21,2.28l-2.93-1.55c-1.15-0.61-1.9-1.38-2.4-2.08
		c-0.57-0.8-0.3-2.63,1.2-2.98C798.56,671.78,802,673.86,802.77,676.6z"/><path fill="#9ED0AB" d="M623.05,832.45c1.58,0.63,1.51,2.72,0.44,3.44c-1.62,1.08-6.28,2.03-7.06,1.09
		c-1.08-1.3-0.78-3.08,0.67-3.9C618.65,832.2,621.05,831.65,623.05,832.45z"/><path fill="#9ED0AB" d="M318.9,235.57c-2.79,1.81-6.92-5.83-4.86-7.28C317.31,226,321.83,233.67,318.9,235.57z"/><path fill="#9ED0AB" d="M811.16,686.93c-2.06,2.79-7.94-3.1-5.68-5.91C807.26,678.81,813.35,683.97,811.16,686.93z"/><path fill="#9ED0AB" d="M430.05,224.84c2.79-0.72,4.09,5.87,3.11,7.88c-0.49,1-1.74,1.05-2.45,0.84
		C428.51,232.9,427.34,225.54,430.05,224.84z"/><path fill="#9ED0AB" d="M435.7,254.56l-0.25,3.43c-0.07,0.94-2.3,1.8-3.15,0.57c-1.32-1.9-1.55-5.62-0.44-7.66
		c0.63-1.15,2.47-0.73,2.87-0.12C435.29,251.64,435.83,252.77,435.7,254.56z"/><path fill="#9ED0AB" d="M194.72,407.82c0.85,2-0.3,4.63-1.14,7.36c-0.27,0.89-2.49,1.16-3.06,0.12
		c-1.16-2.12-0.16-6.01,1.51-7.68C192.64,407.01,194.48,407.25,194.72,407.82z"/><path fill="#9ED0AB" d="M297.29,698.81l0.38,3.39c0.09,0.83-0.82,1.44-1.94,1.32c-2.57-0.27-4.99-7.51-1.7-8.58
		C295.73,694.39,297.13,697.43,297.29,698.81z"/><path fill="#9ED0AB" d="M394.11,827.08c1.29,1.23,1.02,2.45,0.55,3.25c-0.47,0.81-2.09,0.75-3.37,0.29l-3.28-1.18
		c-0.93-0.34-1.77-2.34-0.57-3.43C388.85,824.73,392.6,825.65,394.11,827.08z"/><path fill="#9ED0AB" d="M822.7,709.12c-3.27,1.21-5.98-7.27-2.9-7.92C823.18,700.47,825.74,707.99,822.7,709.12z"/><path fill="#9ED0AB" d="M351.9,187.71c-0.53,1.78-3.49,5.35-5.36,4.52c-2.71-1.2-0.92-5.03,1.27-6.27
		c1.04-0.59,1.92-1.09,2.63-1.03C351.06,184.99,352.56,185.5,351.9,187.71z"/><path fill="#9ED0AB" d="M662.27,594.41c-2.63,2.46-5.97-3.54-5.81-5.74c0.06-0.77,1.18-1.76,2.53-1.41
		C661.28,587.85,664.05,592.75,662.27,594.41z"/><path fill="#9ED0AB" d="M166.82,293.94c-1.56,0.63-5.62,1.98-6.2-0.14c-0.89-3.21,7.25-5.89,8.15-3.16
		C169.33,292.33,168.76,293.16,166.82,293.94z"/><path fill="#9ED0AB" d="M742.22,288.63c-0.53,3.21-9.26,0.37-7.71-3.48C735.45,282.83,742.76,285.33,742.22,288.63z"/><path fill="#9ED0AB" d="M708.88,559.62c-1.5,1.33-5.39,3.16-6.5,1.4c-2.25-3.57,5.79-6.21,6.67-5.48
		C710.27,556.54,710.69,558.02,708.88,559.62z"/><path fill="#9ED0AB" d="M669.23,810.58c2.09,2.16-0.43,4.08-1.25,4.91c-1.04,1.05-3.91,2.99-5.19,0.5
		C661.58,813.62,667.37,808.66,669.23,810.58z"/><path fill="#9ED0AB" d="M605.95,213.7c-2.58,1.7-6.93-5.56-4.98-7.56C604.12,205.09,609.05,211.65,605.95,213.7z"/><path fill="#9ED0AB" d="M421.17,195.26c-2.06,2.36-4.11-1.22-4.84-2.32l-1.73-2.62c-0.46-0.7-0.18-2.24,1.74-2.3
		C418.82,187.95,422.8,193.39,421.17,195.26z"/><path fill="#9ED0AB" d="M273.58,191.58c2.3,3.63-5.53,3.46-8.09,1.45c-1.01-0.79-0.83-3.11,0.9-3.37
		C268.51,189.32,272.37,189.66,273.58,191.58z"/><path fill="#9ED0AB" d="M727.33,527.87l-1.57,3.36c-0.35,0.74-2.44,1.22-3.12-0.14c-0.98-1.95,0.51-5.61,1.98-7.21
		c0.79-0.86,2.67-0.48,2.89,0.21C727.77,524.91,727.94,526.57,727.33,527.87z"/><path fill="#9ED0AB" d="M758.47,479.09c-1.46,1.43-3.03,3.56-4.86,2.17c-1.25-0.95-0.4-3.36,0.54-4.52
		c0.83-1.04,2.18-3.03,4.65-2.15C760.1,475.05,760.04,477.55,758.47,479.09z"/><path fill="#9ED0AB" d="M695.9,648.57c-2.9,2.08-6.92-5.55-4.66-7.04C694.35,639.49,698.71,646.56,695.9,648.57z"/><path fill="#9ED0AB" d="M295.89,205.02c-2.25,2.09-7.93-1.85-6.63-4.84c0.96-2.2,3.68-0.69,4.78,0.14
		C295.14,201.14,297.51,203.52,295.89,205.02z"/><path fill="#9ED0AB" d="M247.47,194.4c-0.77,1.98-6.8,3.95-8.21,2.85c-1.48-2.73,1.43-4.01,2.74-4.75
		C243.83,191.45,247.79,191.17,247.47,194.4z"/><path fill="#9ED0AB" d="M225.58,502.87l1.9,2.99c0.47,0.75,0.2,2.94-1.74,2.95c-2.38,0.01-4.45-3.39-4.77-5.71
		c-0.19-1.39,0.89-2.16,1.53-2.27C223.66,500.62,224.64,501.39,225.58,502.87z"/><path fill="#9ED0AB" d="M547.13,843.97c2.21,3.9-6.34,4.37-7.53,2.93c-0.48-0.58-0.62-2.43,0.28-3.17
		C541.26,842.58,546.2,842.33,547.13,843.97z"/><path fill="#9ED0AB" d="M382.94,823.71c1.04,1.61-0.44,2.98-1.42,2.84c-0.95-0.13-2-0.28-3.16-0.97l-2.81-1.68
		c-0.9-0.54-0.35-3.17,0.66-3.28C378.55,820.37,381.47,821.44,382.94,823.71z"/><path fill="#9ED0AB" d="M233.19,274.75c-1.33,2.34-3.72,0.04-4.66-0.86c-1.18-1.13-2.75-3.81-0.55-5.16
		C230.05,267.46,234.79,271.93,233.19,274.75z"/><path fill="#9ED0AB" d="M191.32,419.48c1.94,0.22,2.4,5.45,1.29,8.39c-0.27,0.71-2.21,1.03-2.78,0.41
		c-1.24-1.95-1.37-4.49-1.13-6.58C188.91,419.83,190.19,419.35,191.32,419.48z"/><path fill="#9ED0AB" d="M743.36,498.88l-2.2,2.79c-0.58,0.73-2.6,0.6-2.93-0.95c-0.49-2.24,1.63-5.66,3.74-6.63
		c1.14-0.52,2.61,0.91,2.56,1.6C744.48,496.47,744.33,497.65,743.36,498.88z"/><path fill="#9ED0AB" d="M162.19,372.46c-0.74,3.14-8.81,0.14-7.68-3.21C155.49,366.36,163,369.02,162.19,372.46z"/><path fill="#9ED0AB" d="M150.86,366.22c-1.56,2.42-7.74-2.08-6.54-4.85c0.98-2.24,3.61-1.18,4.72,0
		C149.87,362.26,152.38,363.87,150.86,366.22z"/><path fill="#9ED0AB" d="M261.43,522.64c-0.53,2.18-7.97,2.05-8.28-0.26c-0.38-2.83,2.84-3.06,4.25-3.04
		C258.73,519.35,262.14,519.71,261.43,522.64z"/><path fill="#9ED0AB" d="M327.7,738.52c1.51,1.17,1.06,2.43,0.64,3.2c-0.96,1.79-9.54-0.66-7.44-4.01
		C321.93,736.08,326.27,737.42,327.7,738.52z"/><path fill="#9ED0AB" d="M765.94,667.99c-1.79,1.37-5.46,1.32-7.66,0.73c-0.8-0.21-0.88-2.48-0.12-2.99
		c1.67-1.12,5.15-1.8,7.34-0.89C766.33,665.18,767.3,666.95,765.94,667.99z"/><path fill="#9ED0AB" d="M526.03,232.55c0.85,0.07,1.31,8.6-3.11,9.41c-1.56-3.18-0.19-6.69,1.1-9.57L526.03,232.55z"/><path fill="#9ED0AB" d="M207.78,390.7c-1.3,1.35-3.88,4.49-5.84,2.26c-1.88-2.13,5.32-8.48,6.69-6.07
		C209.22,387.91,209.31,389.11,207.78,390.7z"/><path fill="#9ED0AB" d="M718.28,678.69c-1.05,2.64-4.11,0.86-5-0.32c-0.86-1.14-3.33-3.66-0.95-5.19
		C714.35,671.88,719.08,676.68,718.28,678.69z"/><path fill="#9ED0AB" d="M406.97,832.04c0.79,3.17-2.35,2.82-4.11,2.39c-1.43-0.35-4.64-0.77-3.73-3.76
		C399.8,828.43,406.38,829.66,406.97,832.04z"/><path fill="#9ED0AB" d="M440.26,224.97l-0.63,3.28c-0.18,0.93-2.67,1.38-3.24,0.27c-1.1-2.14-0.83-5.5,0.43-7.76
		c0.44-0.78,2.44-0.55,2.88,0C440.43,221.64,440.61,223.15,440.26,224.97z"/><path fill="#9ED0AB" d="M276.04,595.45c1.33,2.06,1.49,5.63,0.69,7.74c-0.29,0.77-2.69,0.93-3.09,0.11
		c-1.02-2.05-1.47-5.26-0.79-7.43C273.3,594.39,275.49,594.6,276.04,595.45z"/><path fill="#9ED0AB" d="M718.23,550.93c-1.18,2.12-3.9,4.34-5.62,2.61c-1.92-1.94,4.23-9.33,6-6.47
		C719.24,548.1,719.11,549.34,718.23,550.93z"/><path fill="#9ED0AB" d="M702.87,811.44c1.9,1.34,2.76,3.36,0.94,4.67c-1.65,1.19-6.57-1.92-6.55-3.98
		C697.28,808.97,700.94,810.08,702.87,811.44z"/><path fill="#9ED0AB" d="M155.22,299.89c-1.8,1.03-5.15,2.2-5.56-0.43c-0.38-2.43,4.49-5.76,6.38-4.74
		C158.1,295.84,157.49,298.58,155.22,299.89z"/><path fill="#9ED0AB" d="M371.58,818.4c0.67,1.93-0.65,2.69-1.16,2.53l-2.63-0.8c-1.57-0.48-2.47-1.48-3.26-2.21
		c-0.91-0.85-0.79-3.25,0.85-3.48C367.32,814.17,370.9,816.44,371.58,818.4z"/><path fill="#9ED0AB" d="M312.46,224.03c-2.57,2.7-7.73-4.53-5.02-6.6C309.87,215.56,314.8,221.57,312.46,224.03z"/><path fill="#9ED0AB" d="M799.22,452.15c-1.64,0.66-4.29,1.43-5.66,0.46c-1.12-0.8-0.73-2.82,0.25-3.24l3.13-1.33
		c1.48-0.63,2.89-0.72,3.49,0.14C801.51,449.74,801.15,451.37,799.22,452.15z"/><path fill="#9ED0AB" d="M387.89,173.23c1.21,4.29-7.38,3.13-8.31,1.8c-0.52-0.75-0.28-2.6,1.31-3.19
		C382.5,171.25,387.33,171.24,387.89,173.23z"/><path fill="#9ED0AB" d="M817.89,786.68c2.09,1.73-2.38,8.06-4.71,6.79C810.16,791.83,814.79,784.12,817.89,786.68z"/><path fill="#9ED0AB" d="M768.67,467.51c0.64,2.77-3.63,5.26-5.17,5.48c-1.05,0.15-2.27-0.97-2.03-2.32
		c0.24-1.37,3.15-4.27,5.05-4.65C767.85,465.76,768.44,466.51,768.67,467.51z"/><path fill="#9ED0AB" d="M211.46,459.42c-1.48,3.04-8.54-1.83-6.66-4.61C206.48,452.33,213.15,455.97,211.46,459.42z"/><path fill="#9ED0AB" d="M681.74,264.06c0.84,0.9,0.2,2.94-0.64,3.37c-0.84,0.43-9.06-1.01-6.66-4.49
		C675.54,261.34,680.43,262.65,681.74,264.06z"/><path fill="#9ED0AB" d="M439.27,241.57c-4.39,1.31-4.79-7.59-1.23-8.55C440.4,233.55,441.75,240.83,439.27,241.57z"/><path fill="#9ED0AB" d="M467.75,181.09c1.67,2.74-6.04,6.08-7.36,3.82C458.49,181.63,465.86,177.99,467.75,181.09z"/><path fill="#9ED0AB" d="M278.36,547.67c0.15,2.4-0.85,6.05-3.35,5.43c-2.72-0.68-1.41-8.54,0.69-8.71
		C277.22,544.25,278.19,544.92,278.36,547.67z"/><path fill="#9ED0AB" d="M277.33,608.05c0.57,0.66,1.63,5.06,0.75,7.49c-0.31,0.85-2.21,1.65-3.04,0.52
		c-1.53-2.07-1.7-5.46-0.72-7.74C274.69,607.44,276.83,607.47,277.33,608.05z"/><path fill="#9ED0AB" d="M706.85,273.24c-0.29,3.45-8.83,1.29-7.91-2.33C699.69,267.95,707.11,270.01,706.85,273.24z"/><path fill="#9ED0AB" d="M764.5,301.38c-0.1,2.43-3.74,1.33-5.08,0.29l-2.08-1.62c-0.71-0.55-0.7-2.27,0.55-3.55
		C759.92,296.37,764.63,298.16,764.5,301.38z"/><path fill="#9ED0AB" d="M174.34,376.51c-0.39,2.69-8.25,1.47-8.26-1.75C166.08,371.45,174.88,372.74,174.34,376.51z"/><path fill="#9ED0AB" d="M289.83,674.76c0.58,1.59,0.7,3.48-0.34,4.16c-0.89,0.57-2.66,0.31-3.23-1.13
		c-0.86-2.18-2-4.94-0.49-7.05c0.45-0.63,2.49-0.28,2.73,0.36L289.83,674.76z"/><path fill="#9ED0AB" d="M731.5,515.27c1.1,2.75-0.41,6.22-2.03,6.68c-1.06,0.3-2.05-0.09-2.81-1.15
		c-0.96-1.33,1.88-5.88,2.41-6.19C729.9,514.13,731.22,514.59,731.5,515.27z"/><path fill="#9ED0AB" d="M718.61,276.23c0.92,1.12,0.33,2.54-0.58,3.18c-0.79,0.55-8.83-1.2-6.89-4.55
		C712.34,272.8,717.28,274.6,718.61,276.23z"/><path fill="#9ED0AB" d="M353.93,738.38c-1.14,2.03-7.68,4.85-8.01,1.25c-0.21-2.32,5.09-4.64,7.14-3.97
		C353.95,736.15,354.23,737.85,353.93,738.38z"/><path fill="#9ED0AB" d="M527.47,210.8c0.44,1.56,0.33,2.63,0.16,3.53c-0.17,0.89-2.63,1.21-3.01,0.31
		c-1.07-2.53-2.27-5.57-0.91-7.88c0.55-0.73,2.54-0.29,2.73,0.39L527.47,210.8z"/><path fill="#9ED0AB" d="M482.94,844.13c0.9,3.46-7.93,3.71-7.93-0.22C475.01,841.39,482.01,840.54,482.94,844.13z"/><path fill="#9ED0AB" d="M585.84,840.56c1.57,3.99-6.62,4.32-7.71,2.84c-0.8-1.09-0.57-2.74,1.05-3.29
		C580.66,839.62,585.05,838.55,585.84,840.56z"/><path fill="#9ED0AB" d="M469,841.38c1.82,0.72,1.65,2.74,0.62,3.62c-0.63,0.53-1.65,0.68-3.26,0.44l-2.86-0.42
		c-0.82-0.12-2.17-1.66-1.13-3.09C463.37,840.53,467.11,840.63,469,841.38z"/><path fill="#9ED0AB" d="M693.35,808.43c-1.66,1.36-7.11-2.86-6.29-5.13c0.87-2.41,3.51-1.27,4.48-0.32
		C692.5,803.93,695.37,806.02,693.35,808.43z"/><path fill="#9ED0AB" d="M233.24,284.32c-1.04,1.63-4.86,3.19-6.82,3.19c-1.39,0-1.86-1.96-1.07-2.67
		c2.07-1.84,3.44-2.56,6.05-3.06C232.22,281.63,234.33,282.62,233.24,284.32z"/><path fill="#9ED0AB" d="M672.13,561.67c0.81,0.68,0.62,1.97,0.31,2.43c-0.99,1.45-8.9,2.03-8.28-1.33
		C664.64,560.22,670.35,560.17,672.13,561.67z"/><path fill="#9ED0AB" d="M441.09,246.41c1.09,2.15,1.77,5.94,1.37,7.48c-0.17,0.64-2.14,1.03-2.66,0.32
		c-1.59-2.15-2.5-5.49-1.54-7.92C438.59,245.41,440.67,245.58,441.09,246.41z"/><path fill="#9ED0AB" d="M448.15,274.76c-1.78,0.75-3.74,0.14-4.49-0.83c-0.68-0.88-0.97-3.08,0.21-3.98
		c1.65-1.26,3.39-0.27,4.19,0.53C449.24,271.67,449.47,274.2,448.15,274.76z"/><path fill="#EC7463" d="M679.65,524.72c-80-1.26-138.37,29.2-178.71,98.12c-17.81-34.04-32.43-67.9-44.06-103.75
		c-19.12-58.91-25.8-116.43-16.88-177.65l14.02-8.16c10.97,2.43,21.36,5.04,31.9,8.87c-1.34,11.15-1.62,22.19,2.29,32.4
		c4.48,11.7,15.76,16.8,27.35,11.77c9.32-4.04,13.87-13.72,12.74-25.12c30.2,16.76,56.04,38.82,79.69,63.9
		C635.79,455.03,659.05,487.82,679.65,524.72z"/><path fill="#EC7463" d="M525.57,350.75c-5.69-14.85-13.03-27.39-22.85-40.73c20.13-7.36,41.22-12.28,63.88-14.62
		c-8.33,19.79-19.57,43.14-11.27,61.28c4.11,7.13,11.62,10.12,19.73,8.86c6.92-1.07,13.03-6.54,15.25-14.24
		c5.46-17.61-2.47-38.86-8.59-57.53c96.25-5.41,181.62,36.52,238.49,113.09c-42.94,2.31-78.98,25.63-104.2,59.14
		c-12.64,16.83-21.76,34.93-29.62,54.55c-26.16-46.91-55.86-86.7-94.33-122.54C571.67,379.63,550.43,363.8,525.57,350.75z"/><path fill="#EC7463" d="M327.15,495.6c14.3,14.42,32.86,32.12,52.19,35.81c9.68,1.65,18.14-2.91,22.8-11.25
		c4.49-8.03,2.81-17.03-4.51-22.95c-6.82-5.66-15.39-8.31-24.4-9.52c-14.45-1.74-28.55-1.73-43.36-0.81
		c6.12-17.58,13.83-33.76,23.33-49.92c14.04,4.23,27.9,6.65,42.2,9.64c2.22,0.46,4.24,0.83,5.66-1.03c1.05-1.37,0.94-3.46-0.35-5.33
		c-8.41-12.2-17.71-23.28-29.93-32.53c16.97-23.02,36.82-42.96,60.63-60.45c-7.83,59.56-0.89,114.77,16.79,170.72
		c11.69,37.56,27.02,72.74,45.41,108.01c-34.83-2.49-67.46,0.98-98.21,15.38c-25.42,11.88-45.47,30.66-59.13,55.31
		c-9.24-23.64-14.98-46.23-18.88-70.28C310.11,582.59,313.28,538.58,327.15,495.6z"/><path fill="#F4EED8" d="M678.22,723.81l18.87-11.62l22.76,35.92c9.89,15.6,25.52,24.63,40.22,14.56
		c14.89-10.2,10.6-27.88,0.58-43.32c-2.77-4.26-2.19-9.62,1.99-12.75c5.76-4.32,13.51-2.6,17.5,3.27
		c17,24.98,16.35,55.22-10.64,71.65c-28.47,17.34-53.78,2.41-70.56-24.5L678.22,723.81z"/><path fill="#9ED0AB" d="M519.1,373.55c-2.42,5.24-7.8,7.37-12.53,7.4c-5.18,0.03-9.39-3.88-11.45-9.1
		c-5.58-16.48-1.38-38.49,2.76-56.75C508.65,330.96,526.23,358.07,519.1,373.55z"/><path fill="#9ED0AB" d="M396.06,516.48c-11.57,21.95-45.45-7.61-61.2-23.1c18.79,0.13,41.55-1.49,57.29,8.33
		C397.24,505.11,399.02,510.86,396.06,516.48z"/><path fill="#9ED0AB" d="M582.88,350.24c-2.2,5.81-7,8.55-12.37,8.16c-5.34-0.38-9.57-4.62-10.35-10.63
		c-1.87-16.99,7.26-36.37,14.41-52.04C580.4,312.31,588.49,335.46,582.88,350.24z"/><path fill="#9ED0AB" d="M390,438.09l-32.77-7.35c-6.27-1.41-11.98-4.12-17.01-7.87c-2.61-2.24-4.67-4.99-4.21-8.25
		c0.42-2.97,2.91-6.11,6.33-7.47c6.2-2.45,12.56-0.01,18.53,3C372.5,416.84,381.71,426.22,390,438.09z"/><path fill="#F4EED8" d="M447.67,324.74l-12.87,8.19c-4.55-8.63-11.07-21.28-6.9-24.53c1.21-0.94,3.52-0.55,5.13,0.6
		C438.86,313.05,442.79,318.28,447.67,324.74z"/><path fill="#302F2E" d="M471.92,745.09c-6.96,1.22-12.5,3.16-17.78,6.49c3.2,3.87,8.82,3.59,8.44,7.77
		c-0.14,1.55-1.36,2.63-3.19,3.03c-7.89,1.76-19.72,5.7-19.88,9.12c-0.17,3.69,13.18,7.69,21.77,9.4
		c24.33,4.87,48.82,6.13,73.68,5.11c2.49-0.1,3.64,0.88,4.24,2.6c0.47,1.33-0.07,4.37-2.35,4.46c-26.71,1.05-53.08-0.12-79.15-5.75
		c-10.57-2.28-24.47-6.52-25.4-14.97c-0.8-7.25,8.02-11.63,16.97-14.55c-1.96-2.04-2.97-4.44-2.51-7.24
		c1.12-6.81,14.7-11.02,24.26-12.66c30.48-5.2,61.54-4.98,91.83,1.07c9.59,1.91,22.74,6.5,23.33,13.58c0.27,3.2-1.22,5.29-4.28,7.53
		c8.46,3.48,17.26,7.23,16.67,14.16c-0.83,9.78-20.3,13.52-32.6,15.85c-2.31,0.44-4.26-0.77-4.67-2.77
		c-0.42-2.03,1.03-3.98,3.66-4.38c8.99-1.38,24.92-5.31,26-8.58c1.13-3.42-11.46-7.42-19.78-9.61c-1.94-0.51-2.98-1.73-3.08-3.33
		c-0.32-5.05,7.41-3.31,10.95-8.68c-5.08-3.67-10.44-5.32-16.55-6.57C532.81,740.11,502.34,739.77,471.92,745.09z"/><path fill="#302F2E" d="M526.19,757.21c-2.3-6.23,8.24-5.26,19.48,0.02c2.74,1.29,4.2,3.6,4.09,6.18
		c-0.61,14.75-62.97,13.1-65.58-0.11c-1.44-7.27,10.44-11.81,19.56-11.96c1.9-0.03,2.59,2.05,2.61,3.14
		c0.07,5.77-8.32,3.05-14.91,7.64c16.71,5.42,33.98,6.29,50.07,1.57C535.96,759.45,527.88,761.8,526.19,757.21z"/><path fill="#9ED0AB" d="M305.63,347.91c2.72,6.62-0.4,12.37-4.58,15.87c-18.14,15.16-41.98-23.65-51.68-44.3
		C268.8,324.48,295.49,332.1,305.63,347.91z"/><path fill="#9ED0AB" d="M396.51,328.87c2.49,6.12,2.04,11.98-1.87,16.26c-3.81,4.17-10.03,6.9-15.77,3.99
		c-15.22-7.71-20.69-41-23.25-60.62c8.52,5.02,14.83,11,21.86,17.04C385.11,312.1,391.88,319.53,396.51,328.87z"/><path fill="#9ED0AB" d="M249.46,432.24c-6.09,0.01-11.62-0.85-16.54-3.03c-4.57-1.73-6.55-6.33-4.46-10.68
		c2.07-4.31,5.95-6.69,10.75-7.54c16.42-1.7,33.92,9.92,47.32,21.15L249.46,432.24z"/><path fill="#9ED0AB" d="M293.21,267.86c-14.33-6.92-33.06-14.67-41.29-26.74c-1.8-2.83-2.59-6.03-1.19-8.86
		c1.29-2.61,4.63-4.75,8.35-4.83c7.29-0.14,13.03,4.5,17.84,9.73C284.01,246.14,289.11,255.83,293.21,267.86z"/><path fill="#9ED0AB" d="M396.73,259.11c-10.99-9.88-27.31-28.94-23.91-42.09c1.03-3.98,4.5-6.48,7.79-6.99
		c3.92-0.61,6.99,1.73,9.1,5.35c3,5.88,4.1,12.37,4.98,18.98L396.73,259.11z"/><path fill="#9ED0AB" d="M489.09,230.48l-7.22,28.1c-6.11-12.44-11.36-29.91-5.01-40.68c2.29-3.88,8.6-6.47,11.77-2.51
		C491.74,219.27,490.36,225.53,489.09,230.48z"/><path fill="#9ED0AB" d="M212.36,345.71l-26.33-3.7c-4.03-0.66-8-1.37-11.22-3.77c-2.42-1.63-3.55-3.94-3.15-6.7
		c0.35-2.44,2.39-4.71,5.54-5.5c4.39-0.98,8.54,0.48,12.74,2.02C198.36,332.31,205.72,337.64,212.36,345.71z"/><path fill="#9ED0AB" d="M261.15,485.59c-2.57,1.26-5.96,0.46-7.17-0.99c-1.44-1.72-1.35-4.47,0.03-6.66
		c6.65-7.83,20.68-7.58,31.33-4.27L261.15,485.59z"/><path fill="#9ED0AB" d="M559.27,254.72c-1.58-11.95,3.96-29.64,11.75-26.05c2.72,1.25,3.18,5.28,1.39,7.77L559.27,254.72z"/></svg>