<svg xmlns="http://www.w3.org/2000/svg" viewBox="0 0 1024 1024"><path fill="#F5F1E2" d="M424.93,637.9c-1.42,17.47-9.61,30.66-25.98,36.12l-0.4,54.92c-0.08,10.41-10.54,18.64-20.56,18.63
		l-51.22-0.07c-11.25-0.91-20.23-9.28-20.28-20.81l-0.2-52.34c-16.35-4.74-26.4-18.65-27.21-35.46
		c-43.27-14.32-68.29-57.9-68.59-102.13L210.24,500c-13.11-5.81-21.78-17.27-23.33-31.79c-1.13-10.66-1.23-21.75-0.12-32.58
		c2.15-21,20.5-34.86,41.08-35.43l11.13-0.31l0.07-58.89c0.01-13.06,5.22-25.55,14.26-34.56c17.15-17.09,44.48-16.17,60.95,1.33
		c8.99,9.55,12.86,22.08,12.86,35.22l-0.02,57.22l42.13-0.15l0-59.04c0.51-11.57,3.85-22.09,10.89-30.76
		c16.54-20.39,46.23-21.73,64.19-2.48c8.68,9.31,12.99,21.25,12.98,34.25l-0.03,57.85l19.73,0.42
		c19.88,0.42,35.51,16.01,37.44,36.02l-0.16,32.01c-0.07,14.45-10.32,25.92-23.07,31.52l0.34,36.67c0.14,15.22-2.8,29.6-8.35,43.7
		C472.64,607.13,452.05,627.79,424.93,637.9z M339.4,726.88l26.16-0.02l12.65-0.11l-0.22-71.72l8.03-0.13
		c9.34-0.15,17.3-5.79,17.46-15.18l0.29-16.79c43.13-8.19,67.34-45.59,67.11-87.95l-0.29-53.5c12.78,2.28,23.75-5.95,23.73-18.49
		l-0.03-23.1c-0.4-9.97-7.94-19.07-18.24-19.11l-39.28-0.12l0.08-77.62c0.01-14.47-9.01-27.4-22.41-28.14
		c-7.21-0.4-13.62,2.5-18.27,8.3c-4.3,5.29-6.38,11.74-6.46,18.85l0.02,78.63l-83.39-0.04l0.12-79.97c-0.55-6.6-2.44-12.59-6.6-17.5
		c-4.67-5.71-11.14-8.53-18.31-8.28c-13.77,0.48-22.26,13.42-22.23,29.14l0.13,76.48l-33.49,0.23c-10.1,0.07-17.83,8.48-18.68,18.28
		l-0.01,24c0,12.52,11.29,20.84,23.9,18.75l0.21,55.23c0.16,42.02,25.77,78.96,68.3,86.33l0.12,15.69c0.07,9,7.19,15.6,16.14,15.73
		l11.32,0.17l-0.23,71.82L339.4,726.88z"/><path fill="#F5F1E2" d="M637.48,735.91c-13.27,13.2-33.22,17.98-48.11,5.53c-8.72-7.29-10.94-21.36-6.48-31.61l33.5-76.92
		l-18.36-0.31c-8.27-0.14-15.99-5.09-20.45-12.1c-6.12-9.63-5.74-21.41-0.22-31.15l18.99-33.46l-36.93-0.47
		c-10.77-0.14-20-6.63-24.57-16.24c-3.1-7.63-3.96-15.7-1.12-23.58l19.32-53.64l35.6-100.27l17.75-51.34
		c3.77-10.9,13.73-18.25,25.71-18.29l174.76-0.65c7.64-0.03,14.38,0.88,20.28,5.48c12.33,9.6,14.89,27.1,5.55,39.99l-61.5,84.89
		l32.1,2.13c6.34,0.42,13.17,4.49,17.22,9.38c10.16,12.3,10.11,29.22,0.28,41.59l-54.29,68.3c4.7,1.9,9.45,2.89,13.16,6.17
		c11.33,10.05,13.39,26.59,4.72,39.25l-12.46,13.38l-18.92,19.1l-24.89,25l-10.76,10.41L637.48,735.91z M622.07,721.61l14.24-13.53
		l130.3-130.19c2.76-2.76,3.09-6.71,1.8-9.7c-1.09-2.51-4.05-4.09-7.39-4.36l-35.33-2.91l79.38-99.65c3.04-3.82,3.02-8.39,1.19-12
		c-2.01-3.97-5.61-5.37-10.27-5.61l-63.85-3.21l83.8-115.32c2.28-3.14,2.18-6.42,0.66-9.2c-1.44-2.64-3.91-3.98-7.74-3.97
		l-174.9,0.62c-5.45,0.02-7.25,3.22-8.84,7.72l-72.09,203.53c-1.22,3.43,0.27,6.43,1.99,8.56c1.47,1.82,4,2.77,7.03,2.78l70.46,0.46
		l-38.09,65.66c-1.41,2.43-1.28,4.72-0.19,6.95c0.75,1.53,2.56,3.42,5,3.39l50.02-0.54l-47.68,107.3c-1.33,2.99,0.35,7.04,2.78,8.05
		C611,729.22,617.05,726.38,622.07,721.61z"/><path fill="#343332" d="M365.56,726.87l0.14-72.06l-26.05,0.09l-0.25,71.99l-12.37-0.14l0.23-71.82l-11.32-0.17
		c-8.95-0.13-16.07-6.73-16.14-15.73l-0.12-15.69c-42.53-7.38-68.14-44.31-68.3-86.33l-0.21-55.23c-12.61,2.1-23.91-6.22-23.9-18.75
		l0.01-24c0.85-9.79,8.58-18.21,18.68-18.28l33.49-0.23l-0.13-76.48c-0.03-15.72,8.46-28.66,22.23-29.14
		c7.17-0.25,13.64,2.57,18.31,8.28c4.16,4.91,6.05,10.9,6.6,17.5l-0.12,79.97l83.39,0.04l-0.02-78.63
		c0.08-7.11,2.16-13.56,6.46-18.85c4.65-5.81,11.06-8.7,18.27-8.3c13.4,0.74,22.43,13.68,22.41,28.14l-0.08,77.62l39.28,0.12
		c10.29,0.03,17.84,9.14,18.24,19.11l0.03,23.1c0.02,12.54-10.95,20.77-23.73,18.49l0.29,53.5c0.23,42.36-23.97,79.76-67.11,87.95
		l-0.29,16.79c-0.16,9.38-8.12,15.03-17.46,15.18l-8.03,0.13l0.22,71.72L365.56,726.87z M294.01,420.65l0.04-77.61
		c0.19-4.64-0.99-8.83-3.77-12.33c-3.79-4.78-10.78-4.86-14.71-0.1c-2.56,3.1-4,7.1-3.99,11.43l0.17,78.66L294.01,420.65z
		 M424.46,420.26l0-78.2c-0.07-4.66-1.41-8.8-4.51-12.03c-3.98-4.15-10.66-3.8-14.18,0.72c-2.77,3.56-3.84,7.65-3.84,12.29
		l0.05,77.66L424.46,420.26z M481.99,432.83l-262.42,0.14l0.02,36.94l262.42-0.14L481.99,432.83z M386.95,642.59
		c2.95,0,4.39-2.3,4.39-4.51l0.06-20.95c0.01-2.78,2.92-4.81,5.56-5.21c15.68-2.42,29.68-8.85,40.8-20.2
		c12.83-13.96,20.35-31.46,20.4-50.8l0.13-58.87l-214.54-0.06l0.39,59.94c1.05,21.5,9.48,40.56,25.28,54.7
		c10.79,8.83,23.57,13.72,37.37,15.62c3.59,0.49,5.63,3.09,5.6,6.72l-0.15,19.04c-0.02,2.43,1.52,4.62,4.14,4.62L386.95,642.59z"/><path fill="#343332" d="M622.07,721.61c-5.02,4.77-11.07,7.62-17.74,4.85c-2.43-1.01-4.11-5.06-2.78-8.05l47.68-107.3
		l-50.02,0.54c-2.44,0.03-4.26-1.87-5-3.39c-1.09-2.23-1.22-4.53,0.19-6.95l38.09-65.66l-70.46-0.46c-3.03-0.02-5.56-0.97-7.03-2.78
		c-1.72-2.12-3.21-5.12-1.99-8.56L625.1,320.3c1.59-4.5,3.39-7.7,8.84-7.72l174.9-0.62c3.83-0.01,6.3,1.33,7.74,3.97
		c1.52,2.78,1.62,6.07-0.66,9.2l-83.8,115.32l63.85,3.21c4.66,0.23,8.26,1.64,10.27,5.61c1.83,3.61,1.85,8.17-1.19,12l-79.38,99.65
		l35.33,2.91c3.34,0.28,6.3,1.85,7.39,4.36c1.3,2.99,0.97,6.94-1.8,9.7L636.3,708.08L622.07,721.61z M718.26,608.9l33.13-33.29
		l-38.8-3.25c-2.73-0.23-4.39-2.42-4.98-4.41c-0.63-2.16-0.19-4.07,1.37-6.02l39.84-50.11l44.8-56.02l-73.4-3.31
		c-3.04-0.14-5.28-2.22-5.89-4.36c-0.76-2.69-0.28-5.04,1.88-7.13l85.18-116.81l-164.66,0.46l-69.91,198.2l77.71,0.53
		c2.5,0.86,3.81,2.81,4.29,4.42c0.76,2.51-0.2,4.39-1.49,6.64l-37.19,64.83l47.86-0.61c2.75-0.04,4.89,1.12,6.04,2.83
		c1.2,1.78,1.37,3.83,0.35,6.15l-42.58,96.77L718.26,608.9z"/><path fill="#EF6E5F" d="M386.95,642.59l-70.58,0.02c-2.62,0-4.16-2.18-4.14-4.62l0.15-19.04c0.03-3.62-2.01-6.22-5.6-6.72
		c-13.8-1.9-26.58-6.79-37.37-15.62c-15.8-14.14-24.23-33.2-25.28-54.7l-0.39-59.94l214.54,0.06l-0.13,58.87
		c-0.04,19.35-7.56,36.84-20.4,50.8c-11.12,11.35-25.12,17.78-40.8,20.2c-2.64,0.41-5.55,2.43-5.56,5.21l-0.06,20.95
		C391.33,640.28,389.9,642.59,386.95,642.59z M312.47,523.39c0-9.47-7.68-17.15-17.15-17.15c-9.47,0-17.15,7.68-17.15,17.15
		c0,9.47,7.68,17.15,17.15,17.15C304.8,540.53,312.47,532.86,312.47,523.39z M418.94,523.36c0-9.45-7.66-17.12-17.12-17.12
		c-9.45,0-17.12,7.66-17.12,17.12c0,9.46,7.66,17.12,17.12,17.12C411.28,540.48,418.94,532.81,418.94,523.36z M300.42,563.18
		c3.11-2.34,4.42-5.63,4.2-8.56c-0.18-2.4-1.68-5.4-4.33-7.07c-14.87-9.36-36.4-2.81-36.28,7.95
		C264.13,566.61,286.43,573.72,300.42,563.18z M435.1,555.5c0.03-3.03-1.47-6.24-4.5-8.3c-14.49-9.88-36.43-2.39-36.08,8.3
		c0.09,2.71,1.67,5.85,4.38,7.76C413.29,573.39,434.99,566.59,435.1,555.5z M328.1,552.51c1.73,11.88,11.42,19.66,22.33,19.05
		c10.94-0.61,20.31-9,20.79-20.53c0.14-3.31-2.82-5.04-5.35-4.52c-2.64,0.54-3.34,2.7-3.64,5.53c-0.74,7.01-7.3,10.9-13.72,10.59
		c-5.98-0.29-11.25-4.86-11.78-11.55c-0.25-3.13-2.5-4.74-5.26-4.34C329.2,547.07,327.61,549.14,328.1,552.51z"/><path fill="#F2DE8B" d="M294.01,420.65l-22.26,0.05l-0.17-78.66c-0.01-4.33,1.43-8.33,3.99-11.43
		c3.93-4.76,10.92-4.68,14.71,0.1c2.78,3.5,3.96,7.69,3.77,12.33L294.01,420.65z"/><path fill="#F2DE8B" d="M424.46,420.26l-22.46,0.44l-0.05-77.66c0-4.63,1.07-8.73,3.84-12.29
		c3.51-4.52,10.19-4.87,14.18-0.72c3.1,3.23,4.44,7.37,4.51,12.03L424.46,420.26z"/><path fill="#93C7A2" d="M718.26,608.9l-96.44,95.5l42.58-96.77c1.02-2.32,0.86-4.37-0.35-6.15
		c-1.16-1.71-3.3-2.86-6.04-2.83l-47.86,0.61l37.19-64.83c1.29-2.25,2.26-4.13,1.49-6.64c-0.49-1.61-1.8-3.56-4.29-4.42l-77.71-0.53
		l69.91-198.2l164.66-0.46l-85.18,116.81c-2.16,2.09-2.64,4.43-1.88,7.13c0.6,2.14,2.85,4.23,5.89,4.36l73.4,3.31l-44.8,56.02
		l-39.84,50.11c-1.56,1.96-2,3.87-1.37,6.02c0.58,1.99,2.25,4.18,4.98,4.41l38.8,3.25L718.26,608.9z M639.82,478.35
		c0-8.36-6.78-15.13-15.13-15.13s-15.13,6.78-15.13,15.13s6.78,15.13,15.13,15.13S639.82,486.71,639.82,478.35z M734.05,478.3
		c0-8.38-6.79-15.17-15.17-15.17c-8.38,0-15.17,6.79-15.17,15.17s6.79,15.17,15.17,15.17C727.25,493.47,734.05,486.68,734.05,478.3z
		 M629.35,513.12c2.49-2.06,3.4-5.13,3.07-7.15c-1.5-9.22-20.03-14.51-32.52-6.2c-2.75,1.83-4.05,4.84-3.86,7.69
		C596.67,517.21,617.18,523.18,629.35,513.12z M748.8,506.57c-0.5-10.16-19.61-15.57-32.53-6.44c-2.61,1.84-3.87,4.59-3.6,7.34
		c0.2,2.1,1.41,4.69,3.72,6.28C729.3,522.66,749.28,516.3,748.8,506.57z M671.6,513.18c-12.88-0.94-8.19-16.22-15.82-13.86
		c-2.32,0.71-2.9,2.97-2.49,5.58c1.64,10.41,10.18,16.66,20.22,16.2c9.25-0.42,17.42-7.07,18.43-17.08
		c0.28-2.74-1.21-4.65-3.49-4.81C681.93,498.75,685.84,514.21,671.6,513.18z"/><path fill="#F5F1E2" d="M435.1,555.5c-0.11,11.1-21.81,17.89-36.19,7.76c-2.71-1.91-4.29-5.05-4.38-7.76
		c-0.35-10.69,21.59-18.18,36.08-8.3C433.63,549.26,435.13,552.46,435.1,555.5z"/><path fill="#F5F1E2" d="M300.42,563.18c-13.99,10.54-36.28,3.43-36.41-7.67c-0.12-10.76,21.41-17.31,36.28-7.95
		c2.65,1.67,4.15,4.67,4.33,7.07C304.84,557.55,303.53,560.83,300.42,563.18z"/><path fill="#343332" d="M418.94,523.36c0,9.46-7.66,17.12-17.12,17.12c-9.45,0-17.12-7.66-17.12-17.12
		c0-9.45,7.66-17.12,17.12-17.12C411.28,506.24,418.94,513.9,418.94,523.36z M405.65,519.03c0-3.7-3-6.71-6.71-6.71
		s-6.71,3-6.71,6.71c0,3.7,3,6.71,6.71,6.71S405.65,522.73,405.65,519.03z"/><path fill="#343332" d="M312.47,523.39c0,9.47-7.68,17.15-17.15,17.15c-9.47,0-17.15-7.68-17.15-17.15
		c0-9.47,7.68-17.15,17.15-17.15C304.8,506.24,312.47,513.92,312.47,523.39z M305.23,519.14c0-3.78-3.06-6.84-6.84-6.84
		c-3.78,0-6.84,3.06-6.84,6.84s3.06,6.84,6.84,6.84C302.16,525.98,305.23,522.92,305.23,519.14z"/><path fill="#343332" d="M328.1,552.51c-0.49-3.37,1.09-5.44,3.38-5.77c2.75-0.4,5.01,1.21,5.26,4.34
		c0.53,6.7,5.8,11.27,11.78,11.55c6.42,0.31,12.98-3.57,13.72-10.59c0.3-2.83,1-4.99,3.64-5.53c2.53-0.52,5.49,1.21,5.35,4.52
		c-0.48,11.53-9.85,19.91-20.79,20.53C339.52,572.17,329.83,564.39,328.1,552.51z"/><path fill="#F5F1E2" d="M629.35,513.12c-12.17,10.06-32.68,4.09-33.32-5.66c-0.18-2.85,1.11-5.86,3.86-7.69
		c12.49-8.31,31.02-3.02,32.52,6.2C632.75,507.98,631.84,511.06,629.35,513.12z"/><path fill="#F5F1E2" d="M748.8,506.57c0.48,9.74-19.5,16.09-32.41,7.18c-2.31-1.59-3.51-4.18-3.72-6.28
		c-0.27-2.75,0.99-5.5,3.6-7.34C729.19,490.99,748.29,496.4,748.8,506.57z"/><path fill="#343332" d="M639.82,478.35c0,8.36-6.78,15.13-15.13,15.13s-15.13-6.78-15.13-15.13s6.78-15.13,15.13-15.13
		S639.82,470,639.82,478.35z M633.62,474.76c0-3.33-2.7-6.02-6.02-6.02s-6.02,2.7-6.02,6.02s2.7,6.02,6.02,6.02
		S633.62,478.09,633.62,474.76z"/><path fill="#343332" d="M734.05,478.3c0,8.38-6.79,15.17-15.17,15.17c-8.38,0-15.17-6.79-15.17-15.17
		s6.79-15.17,15.17-15.17C727.25,463.14,734.05,469.93,734.05,478.3z M722.3,474.43c0-3.35-2.71-6.06-6.06-6.06
		s-6.06,2.71-6.06,6.06c0,3.35,2.71,6.06,6.06,6.06S722.3,477.78,722.3,474.43z"/><path fill="#343332" d="M671.6,513.18c14.24,1.03,10.33-14.42,16.86-13.97c2.28,0.16,3.76,2.06,3.49,4.81
		c-1.01,10.01-9.18,16.65-18.43,17.08c-10.04,0.46-18.58-5.78-20.22-16.2c-0.41-2.61,0.17-4.86,2.49-5.58
		C663.41,496.96,658.72,512.24,671.6,513.18z"/></svg>