<svg xmlns="http://www.w3.org/2000/svg" viewBox="0 0 1024 1024"><path fill="#CAE5DF" d="M762.12,197.2c-17.19,22.18-15.88,53.53,3.1,74.2c18.98,20.67,50.09,24.66,73.66,9.43
		c0.2,1.98,1.22,3.06,2.49,5.04c23.26,36.07,40.21,75.79,48.55,118.1c26.07,132.32-32.34,269.05-146.65,339.12l2.04-10.49
		c1.2-6.2-1.96-13.09-7.77-15.98c-7.28-3.62-15.5-1.63-21.84,4.14c-14.29-21-28.95-37.61-54.48-43.76l-4.7-13.54l32.79-1.12
		c4.92-0.17,7.99-4.48,7.34-9.27c-0.45-3.3,1.12-4.08,3.56-5.03c9.36-3.62,14-13.22,14.57-22.98c0.65-11.05-4.57-19.83-14.75-24.57
		c10.82-2.14,18.16-7.09,21.97-14.42c4.81-9.25,4.02-19.29-1.44-27.67c-6.45-9.89-18.25-13.96-29.58-11.01
		c-10.84,2.82-19.07,12.37-20.11,24.56l-15.04,0.03l-6.81-23.05c-0.8-2.7-2.9-4.29-5.8-3.56l-25.49,6.41
		c-1.64,0.41-2.44,1.59-2.71,2.74c-0.21,0.9,0.54,3.29,1.89,2.94l26.97-6.84l6.32,21.31l-11.2,0.17c-2.35,0.04-4.08,1.53-3.77,3.95
		l4.08,31.3c-16.8,7.1-36.73,4.43-54.51-1.22c7.57-14.16,7.2-29.86,1.25-44.34l-10.98-18.91c-7.03-12.11-16.27-22.18-28.16-30.07
		c-1.69-15.98-4.72-29.77-19.47-36.4c21.39-5.41,36.27-20.29,43.01-40.3c27.96,7.5,52.72-4.13,61.48-31.78
		c16.93,2.95,33.58-4.35,39.39-21.01c2.84-8.16,3.52-20.16-1.97-27.84c-14.38-20.13-31.54-37.45-50.88-52.99
		c-67.1-53.92-158.65-76.39-243.6-59.36c-5.45-9.78-15.84-13.5-26.94-11.69c-1.92-4.03-3.5-7.81-6.26-10.84
		c0.45-2.58,1.93-3.59,3.85-5.21c24.4-20.54,50.84-38.35,79.66-51.83c108.28-50.65,235.94-38.12,332.75,31.74
		C759.35,196.31,760.47,196.95,762.12,197.2z M732.31,236.75c1.91-0.04,1.99-3.18,1.55-4.1c-0.56-1.19-1.84-2.01-3.82-1.99
		L707,230.88c-2.31,0.02-3.7,1.82-3.58,3.49c0.12,1.62,1.47,2.95,3.54,2.91L732.31,236.75z M740.19,307.61l16.29-17.11
		c1.29-1.35,0.43-3.99-0.64-4.68c-0.82-0.53-3.01-1.02-4.05,0.04l-16.76,17.12c-1.45,1.49-1.17,4.16,0.23,5.17
		C736.26,308.88,738.72,309.16,740.19,307.61z M812.27,332.52l-0.29-22.51c-0.03-2.23-1.53-3.67-3.31-3.56
		c-1.26,0.07-3.06,1.13-3.05,2.94l0.04,23.67c0,2.65,1.42,4.23,3.79,3.92C811,336.77,812.3,335.24,812.27,332.52z M670.74,489.59
		l157.4-0.14c5.01-2.49,6.52-9.49,6.53-14.37c0.01-10.2-5.78-18.7-13.58-22.9c-9.1-4.9-19.04-4.39-27.86,0.5
		c-4.81-14.29-13.96-25.01-26.96-30.78c-23.91-10.61-51.08,0.27-61.14,24.79c-10.76-5.17-22.25-5.41-32.38,0.03
		c-12.44,6.69-18.5,21.13-12.66,34.2C661.8,484.75,665.44,489.6,670.74,489.59z"/><path fill="#23211F" d="M341.7,220.61c2.75,3.03,4.34,6.81,6.26,10.84c11.1-1.81,21.49,1.91,26.94,11.69
		c84.95-17.03,176.5,5.43,243.6,59.36c19.33,15.53,36.49,32.86,50.88,52.99c5.49,7.68,4.81,19.68,1.97,27.84
		c-5.8,16.67-22.46,23.96-39.39,21.01c-8.76,27.64-33.52,39.28-61.48,31.78c-6.74,20.01-21.62,34.89-43.01,40.3
		c14.75,6.63,17.78,20.42,19.47,36.4c11.9,7.89,21.13,17.97,28.16,30.07l10.98,18.91c5.94,14.48,6.32,30.18-1.25,44.34
		c17.77,5.65,37.7,8.32,54.51,1.22l-4.08-31.3c-0.31-2.41,1.42-3.91,3.77-3.95l11.2-0.17l-6.32-21.31l-26.97,6.84
		c-1.35,0.34-2.1-2.05-1.89-2.94c0.27-1.15,1.07-2.33,2.71-2.74l25.49-6.41c2.9-0.73,5,0.86,5.8,3.56l6.81,23.05l15.04-0.03
		c1.03-12.19,9.26-21.74,20.11-24.56c11.32-2.95,23.12,1.12,29.58,11.01c5.46,8.38,6.25,18.42,1.44,27.67
		c-3.81,7.33-11.15,12.27-21.97,14.42c10.18,4.74,15.4,13.52,14.75,24.57c-0.57,9.76-5.2,19.36-14.57,22.98
		c-2.44,0.94-4.01,1.72-3.56,5.03c0.65,4.79-2.41,9.1-7.34,9.27l-32.79,1.12l4.7,13.54c25.52,6.16,40.19,22.77,54.48,43.76
		c6.34-5.77,14.56-7.77,21.84-4.14c5.8,2.89,8.97,9.78,7.77,15.98l-2.04,10.49l-4.6,11.98l54.03,15.28
		c12.36,3.49,20.35,13.93,21.6,25.67c1.33,12.47-4.38,23.9-15.62,29.71l9.02,40.32c1.61,7.2-2.42,12.36-9.25,14.48
		c-5.63,1.75-13.8,1.66-16.26-4.59l-15.76-40.07l-88.52,26.83l-22.88,5.19l2.48,40.97c0.55,9.03-6.05,14.13-14.4,14.37
		c-9.12,0.26-15.59-3.77-17.61-12.72l-10.79-47.7l-188.35-58.73l-23.02,43.34c-3.02,5.69-11.01,5.31-16.35,3.67
		c-7.27-2.25-11.35-8.82-8.84-16.06l15.53-44.9c-6.27-5.57-10.13-11.93-13.66-19.14l-24.75-50.62l-54.1-111.12
		c-8.71-17.89-2.02-38.5,13.04-49.85c8.27-6.23,17.07-9.25,27.1-11.01l33.95-5.98c-1.37-7.55,0.4-13.49,2.13-21.23
		c-19.31,13.35-43.04,14.49-62.75,2c-16.88,22.19-44.79,32.08-71.99,26.51c-9.53-1.95-17.89-6.08-25.91-12.68
		c-12.22,12.53-28.62,18.11-45.69,14.94c-15.32-3.42-26.9-14.75-29.46-30.41c6.1-106.51,62.99-197.52,156.62-250.32l-113.11-0.28
		c-6.03-0.01-10.69-2.31-13.54-7.54c-4.8-8.82-3.3-19.66,3.7-27.25c8.55-9.28,22.21-11.4,34.1-5.64
		c3.35-17.19,13.97-30.77,30.07-37.02c22.56-8.75,47.25,1.58,57.94,22.5C311.77,206.2,330.34,208.1,341.7,220.61z M309.79,265.29
		l18.25-8.28c-2.04-10.48-4.9-24.91,1.04-29.55c2.73-2.14,5.56-1.51,9.37-1.57c-9.29-12.31-26.09-13.72-38.45-4.79
		c-0.67,1.33-5.34,2.73-6.1,0.92c-6.16-14.76-19.61-25.11-36.18-25.81c-22.43-0.95-41.07,16.35-42.9,38.58
		c-0.13,1.55-0.93,2.53-1.68,2.84c-0.94,0.38-2.56,0.6-3.65-0.19c-9.99-7.19-24.21-5.59-31.48,4.47c-3.9,5.39-4.58,12.13-1.86,17.85
		c1.72,3.61,4.66,5.74,8.95,5.73L309.79,265.29z M348.31,249.67c-3.42-6.65-6.6-11.97-11.6-16.39c-7.39-4.63-4.81,8.47-2.22,21.24
		L348.31,249.67z M355.02,248.4l13.96-4.17c-5.04-6.57-12.32-8.84-20.39-7.17L355.02,248.4z M525.56,391.16
		c14.96,8.47,32.49,9.35,48.46,3.66c23.1-8.24,29.01-25.77,32.67-26.34c3.62-0.56,19,17.62,41.96,11.29
		c7.64-2.11,17.08-9.03,15.84-17.53c-1.46-6.64-8.09-12-12.18-17.11c-9.56-11.98-20.44-22.09-31.94-32.11
		c-9.84-8.57-20.01-15.83-30.95-22.9c-12.41-8.02-25.16-14.48-38.69-20.54c-19.4-8.68-39.19-14.78-60.14-19.07
		c-15.52-3.18-30.48-5.32-46.48-5.86c-24.78-0.83-48.67,0.65-73.82,6.76c69.91,18.58,116.85,67.12,145.57,132.69
		C517.49,387.79,522.4,389.37,525.56,391.16z M351.11,256.55c-3.8,1.23-7.91,1.67-11.58,3.99c-12.33,21.84-19.98,45.32-23.99,70.09
		c-2.23,13.76-3.51,26.85-3.61,40.26c-0.19,25.62,3.07,51.17,9.39,76.88c11.28,5.25,23.36,6.79,35.51,5.89
		c16.27-1.2,31.96-7.12,44.11-18.02c6.28-5.63,11.42-11.84,15.18-19.58c1.08-2.24,3.76-3.74,6.22-2.31
		c13.63,7.9,29.05,10.58,44.49,7.74c16.38-3.01,30.71-12.55,39.37-27c1.81-2.49,4.17-4.88,4.22-8.46
		c-23.89-54.89-62.49-99.64-118.67-121.62C380.31,259.94,359.86,253.72,351.11,256.55z M272.86,295.64
		c-11.65,8.17-22.68,17.32-33.09,27.11c-19.06,17.93-35.55,38.74-49.13,61.09c-7.73,12.72-14.57,26-20.12,39.84
		c-8.3,20.72-14.87,42.34-18.41,64.43c-1.72,10.71-2.91,21.56-3.2,32.9c-0.22,8.31,17.69,10.86,30.04,8.42
		c18.58-3.67,33.77-17.57,40.73-35.73c1.23-3.2,3.31-4.76,6.55-4.14c14.56,5.3,30.9,4.89,45.64-0.43
		c19.3-6.97,34.93-21.21,44.03-39.89c-15.45-61.36-13.78-128.14,15.46-185.66C309.85,271.84,290.81,283.05,272.86,295.64z
		 M614.63,420.65c12.22-11.58,8.71-25.21,16.95-23.27c15.93,3.75,31.63-4.03,34.32-20.54c-16.09,16.17-39.75,13.46-58.15-0.34
		c-20.88,31.46-61.85,37.21-92.47,16.54c-10.11,18.42-27.22,32.74-48.54,35.15c7.27,12.73,12.77,25.33,18.13,39.11
		c12.48,5.31,25.96,6.05,39.23,2.91c35.14-8.14,38.96-39.17,41.93-40.85C569.96,427.14,593.99,440.21,614.63,420.65z M479.27,468.06
		c-6.06-14.16-11.19-26.41-18.51-38.99c-13.6,1.1-27.11-1.64-38.89-8.01c-2,0.65-3.21,3.48-2.43,5.58l24.25,72.96
		C460.65,495.92,473.08,483.72,479.27,468.06z M428.96,514.64l10.57-6.36l-25.32-76.27c-4.79,5.05-8.73,9.38-14.33,13.24
		l22.76,68.04C423.47,515.78,426.61,516.06,428.96,514.64z M391.66,496.79c1.4-2.08,3.82-2.5,5.95-1.49
		c4.19,1.89,7.6,4.47,13.13,4.89l-16.61-50.75c-23.05,13.01-49.45,14.41-73.64,5.85c-3.08,5.98-6.36,9.96-9.87,14.65
		c0.71,15.93,2.61,30.83,6.17,46.4C343.06,534.48,374.38,522.51,391.66,496.79z M496.54,496.45c3.83-7.72,8.45-12.74,14.9-17.39
		c-9.93-0.3-18.28-1.49-27.35-4.53c-4.72,10.41-11.65,17.49-20.72,24.67C475.07,497.89,484.85,495.54,496.54,496.45z M219.01,530
		c26.32,24.6,72.24,16.35,91.81-13.66c-2.83-13.4-4.6-25.76-5.69-40.06c-21.52,20.49-50.57,28.86-79.17,20.64
		c-12.37,28.2-37.88,45.41-69.38,38.9c4.71,6.28,12.08,9.16,19.65,9.91C204.15,548.49,213.52,524.87,219.01,530z M532.23,504.73
		c2.44,1.69,4.7,3.11,7.64,3.58c-1.11-7.82-3.42-14.58-7.9-20.19c-4.49-5.63-11.75-6.84-17.59-2.71c-4.3,3.05-7.68,6.87-10.5,11.62
		c7.5,1.29,14.04,2.29,21.31,5.29c0.12-4.72-2.92-8.76,0.52-10.05C529.52,490.85,531.51,497.37,532.23,504.73z M404.97,507.37
		c1.03,0.18,2.22,1.42,4.15,0.15l-3.79-1.45c-2.83-1.08-5.45-2.14-8.54-3.79c-2.64,1.79-3.95,4.21-5.82,6.62
		C395.86,507.32,400.34,506.58,404.97,507.37z M473.04,707.63c17.96-17.62,14.74-41.82-3.47-57.18c-0.95-0.8-4.29-0.53-3.68-2.95
		c0.25-0.99,0.53-2.91,2.47-3.14l26.37-3.03l14.28,17.51c24.48-11.92,48.55-22.17,75.48-29.17c-3.08-4.13-7.39-6.69-11.78-10.16
		c-8.4,6.11-19.43,14.29-19.9,6.9c-0.12-1.82,0.86-3.06,2.66-3.97c9.62-4.87,18.71-11.25,23.88-21.14
		c6.02-11.5,5.48-25.62-0.23-37.5c-5.69-11.84-12.69-22.6-21.48-32.51c-33.05-37.25-91.29-35.06-131.28-7.22
		c-12.32-8.25-27.57-14.93-37.8-5.62c-13.27,12.07-4.31,32.89,0.4,48.96c-1.07,11.8-4.78,23.17-4.08,35.68
		c1.38,24.74,10.38,47.47,28.06,65.3l-3.3,23.67c-0.14,26,9.69,50.2,26.83,69.4c7.81,8.75,16.02,16.34,26.41,21.6
		c10.29,5.21,22.47,3.47,29.66-5.37c5.41-6.64,4.04-14.59-1.87-20.49c-5.52-5.52-11.46-10.5-15.22-17.66
		c-8.47-16.09-11.04-34.24-9.39-52.3c0.21-2.34,2.62-3.43,4.17-2.97C475.31,685.75,469.82,697.01,473.04,707.63z M414.57,509.4
		c-1.33-2.34-3.51-1.61-4.49-0.94C411.46,509.38,412.48,510.51,414.57,509.4z M406.07,670.9c-26.39-28.06-33.45-65.71-23.35-102.72
		c-2.8-6.45-4.62-12.27-6.28-18.96l-35.68,6.42c-11.06,1.99-14.2,19.69-8.53,31.35l83.55,172.02c4.37,1.73,7.73,3.55,12.84,3.94
		C407.58,736.68,397.84,703.73,406.07,670.9z M701.85,593.16c-1.08,0.18-1,2.28-0.54,2.37c8.47-0.83,15.2-6.64,17.93-13.18
		c3.48-8.33,2.03-16.55-3.42-23.27c-6.1-7.52-16.05-10.58-25.77-6.89c-7.31,2.78-15.66,10.65-14.27,20.46
		c3.38-7.22,5.42-13.4,11.85-16.88c11.5-6.22,25.11-1.64,29.46,9.93C721.59,577.67,715.15,590.9,701.85,593.16z M696.49,569l1.46-12
		c-4.12,0.28-7.4,1.08-10.66,3.88L696.49,569z M713.15,566.18c-2.76-5.42-6.06-7.83-11.15-9.01l-1.13,13.96L713.15,566.18z
		 M393.29,778.86l17.08-18.83l-82.26-168.87c-5-10.25-5.08-20.92-0.76-31.19c-19.68,7.97-28.46,29.14-19.56,47.27l23.71,48.31
		l53.95,110.78C388.08,770.8,389.3,775.19,393.29,778.86z M693.23,571.91l-8.35-8.41c-2.36,2.5-3.48,5.09-3.95,8.38L693.23,571.91z
		 M711.4,583.52c3.21-4.94,3.74-9.05,3-14.03l-12.05,5.24L711.4,583.52z M659.79,653.16c-2.32-0.53-6.52-2.44-6.84-5.3l-5.81-51.59
		c1.04-3.1,5.84-4.35,8.65-5.45l-4.08-13.41l-10.58,0.17l8.26,71.29c0.56,4.86,3.15,8.54,8.44,8.51l28.2-0.19
		c1.68-0.01,3.62-0.5,4.34-1.3c1.17-1.32,2.88-10.88-2.53-11.32C689.71,655.36,671.71,655.85,659.79,653.16z M694.45,602.17
		l2.32-24.72l-39.34-0.04l3.77,12.37c10.5-1.01,28.19-0.42,30.67,4.24C693.9,597.86,689.49,605.57,694.45,602.17z M707.8,585.88
		c-1.24-2.79-3.8-4.23-5.53-5.83l-0.46,8.77C704.11,588.92,707.37,587.52,707.8,585.88z M687.73,595.84
		c-8.8-3.64-16.98-2.61-25.18-2.46l1.21,5.18C671.52,599.62,680.14,600.54,687.73,595.84z M687.08,600.62
		c-8.06,3.45-14.57,2.84-22.03,2.2l1.74,6.25c0.5,1.81-0.88,3.14-2.3,3.18c-3.93,0.12-3.02-7.1-5.37-9.44
		c-1.59-1.59-4.75-1.73-7.48-2.04l5.37,47.01c8.25,2.73,17.39,2.99,25.51,0.61c1.87-1.92,2.16-7.34,0.91-9.72
		c-5.81-11.03-4.23-23.09,3.91-32.31C688.43,605.14,687.96,601.46,687.08,600.62z M698.26,642.25c9.57-6.58,12.64-18.42,7.6-28.11
		c-1.38-2.67-4.54-6.17-7.68-5.69c-6.5,0.98-10.31,7.24-11.46,13.26C685.01,630.63,689.05,639.56,698.26,642.25z M473.75,715.98
		c3.32,12.5,7.31,23.08,16.55,31.93c5.08-10.12,12.01-18,21.44-24.32c36.66-24.54,87.53-23.14,119.86,8.23l10.75-25.5
		c3.93-9.32,7.16-18.38,12.5-27.22c-5.26-19.59-17.7-34.69-34.1-45.93c-11.82-8.1-24.55-13.43-37.71-19.22
		c-1.03-0.45-2.5-1.35-3.41-1.1c-0.57,0.16-1.48,1.18-1.39,1.98l14.06,12.8c1.27,1.16,1.42,3.25,1.06,4.35
		c-0.48,1.49-1.87,2.12-3.71,2.63c-27.34,7.46-53.12,17.97-78.56,30.4c-1.85,0.9-4.45,1.4-5.82-0.26L492,648.57
		c-4.47-0.01-8.6,0.36-13.46,1.59C497.5,671.52,495.54,697.88,473.75,715.98z M642.86,643.18l-2.76-28.94
		c-10.41,4.01-20.18,4.44-31.54,3.81C621.32,625.14,632.68,632.89,642.86,643.18z M724.03,765.4c8.92-11.88,20.02-35.55,11.25-42.19
		c-2.71-2.05-6.51-2.12-9.8-0.71c-11.8,5.07-12.05,17.95-16.97,18.25c-1.15,0.07-3.22-0.95-2.98-2.73c0.6-4.43,3.21-7.97,5.49-11.76
		L696.9,707.1c-9.77-11.46-21.99-19.85-37.18-23.62l-10.84,24.48l-12.57,28.71l8.52,8.05c3.64-5.16,8.13-8.63,13.74-10.01
		c8.31-2.04,15.68,2.98,17.43,11.33c1.23,5.91,0.61,11.64-0.24,17.94l27.9,8.47C711.15,774.72,718.94,772.18,724.03,765.4z
		 M662.78,784.23c7.02-14.12,11.23-38.57,2.94-42.53c-7.27-3.48-16.44,4.78-19.69,16.41c-0.52,1.88-1.37,3.21-2.79,3.68
		c-1.05,0.35-3.26,0.15-3.65-1.25c-0.96-3.43,0.74-6.5,2.59-9.71l-12.45-11.55c-14.23-13.21-30.44-22.7-50-25.11
		c-24.32-3-48.92,3.21-68.37,18.11c-6.86,5.26-13.25,12.47-15.66,20.63c3.7,5.09,7.69,10.97,7.08,17.75
		c22.51,10.81,45.78,14.73,70.07,16.92l45.12,6.64c9.76,1.44,19.21,2.08,28.93,0.72C653.62,793.99,659.53,790.76,662.78,784.23z
		 M784.51,795.16l-115.95,35.11c-14.71,4.45-30.4,4.63-45.14,0.02l-133.18-41.7c-19.45,10.5-38.23-1.13-52.46-16.41l-23.8-7.98
		l-17.52,19.01c4.03,4.01,8.26,6.85,13.98,8.64l207.75,64.89c17.59,5.49,34.66,6.16,52.4,0.81l122.76-37.06
		c10.43-3.15,15.16-13.79,14.33-23.52c-0.84-9.87-7.34-17.56-17.38-20.41l-55.12-15.6c-6.54,13.02-19.47,22.35-32.45,18.29
		l-27.88-8.72c-4.14,18.13-11.89,30.52-30.87,31.58c-12.69,0.71-24.97-0.77-37.54-2.67l-36.47-5.5
		c-23.99-1.81-47.08-6.1-68.88-16.62l-5.62,7.28l126.81,40.03c16.8,5.3,32.87,4.41,49.57-0.7l112.41-34.4
		c1.89-0.58,3.27,1.04,3.36,2.13C787.75,793.42,787.04,794.4,784.51,795.16z M398.17,843.56l21.6-41.88
		c-7.51-1.9-13.99-4.07-20.5-7.36l-15,44.66c0.56,3.6,3.33,5.18,5.56,5.9C392.82,845.83,395.49,845.72,398.17,843.56z
		 M801.15,868.54l-8.72-40.35l-19.17,5.66l14.86,38.95c2.33,2.37,4.87,2.23,7.63,1.46C797.67,873.73,801.94,872.21,801.15,868.54z
		 M650.97,909.5l-2.7-41.51c-9.04,0.32-16.73-0.57-25.92-3.12l9.95,44.7c1.14,4.81,4.87,6.84,9.73,6.83
		C646.31,916.39,650.61,914.65,650.97,909.5z"/><path fill="#CAE5DF" d="M355.26,720.33c-1.96,0.84-2.52-0.65-3.92-1.78c-22.27-17.98-41.15-38.56-58.15-61.81
		c-23.62-32.3-40.27-68.57-50.54-107.08c27.2,5.57,55.1-4.32,71.99-26.51c19.71,12.49,43.44,11.36,62.75-2
		c-1.73,7.74-3.5,13.67-2.13,21.23l-33.95,5.98c-10.04,1.77-18.83,4.78-27.1,11.01c-15.06,11.35-21.75,31.96-13.04,49.85
		L355.26,720.33z"/><path fill="#23211F" d="M865.21,232.46c0-31.8-25.78-57.58-57.58-57.58s-57.58,25.78-57.58,57.58s25.78,57.58,57.58,57.58
		S865.21,264.26,865.21,232.46z M807.62,283.01c-27.9,0-50.51-22.61-50.51-50.51s22.61-50.51,50.51-50.51s50.51,22.61,50.51,50.51
		S835.51,283.01,807.62,283.01z"/><path fill="#23211F" d="M864.4,178.85c-1.51,1.66-3.09,1.89-4.38,1.45c-1.47-0.49-2.77-3.35-1.4-4.82l17.23-18.54
		c1.05-1.13,3.1-0.53,3.96-0.1c0.85,0.43,2,2.95,1.01,4.04L864.4,178.85z"/><path fill="#23211F" d="M910.75,234.44l-25.72,0.31c-2.34,0.03-3.52-1.45-3.57-3.26c-0.05-1.91,1.08-3.33,3.52-3.33
		l24.98-0.02c1.7,0,2.36,1.62,2.53,2.61C912.65,231.76,912.31,234.42,910.75,234.44z"/><path fill="#23211F" d="M882.98,299.5c1.81,1.76,1.51,3.61,0.72,4.82c-0.94,1.44-3.31,2.06-4.73,0.66l-17.56-17.39
		c-1.26-1.25-0.87-3.18-0.24-4c1-1.32,3.45-1.93,4.87-0.55L882.98,299.5z"/><path fill="#23211F" d="M809.42,157.31c-0.02,2.11-5.6,2.01-5.65,0.14l-0.73-25.42c-0.07-2.26,1.67-3.62,3.41-3.54
		c1.66,0.07,3.19,1.31,3.17,3.59L809.42,157.31z"/><path fill="#23211F" d="M749.42,181.59L732.5,165.5c-1.41-1.34-1.54-3.47-0.36-4.8c1.22-1.36,3.37-1.58,5.06,0.06
		l16.71,16.25c1.18,1.15,1.17,3.43,0.24,4.56C753.2,182.72,750.92,183.02,749.42,181.59z"/><path fill="#23211F" d="M670.74,489.59c-5.31,0-8.94-4.85-10.64-8.66c-5.84-13.07,0.21-27.52,12.66-34.2
		c10.13-5.44,21.62-5.21,32.38-0.03c10.06-24.52,37.22-35.41,61.14-24.79c13,5.77,22.15,16.48,26.96,30.78
		c8.82-4.89,18.76-5.4,27.86-0.5c7.8,4.2,13.59,12.7,13.58,22.9c-0.01,4.88-1.51,11.88-6.53,14.37L670.74,489.59z M674.64,484.23
		l151.1-0.3c7.27-8.11,2.13-22.57-9.15-27.5c-15.35-6.7-22.7,5.75-26.47,3.9c-0.83-0.41-1.52-1.25-1.81-2.68
		c-3.64-17.72-17.9-31.51-36.36-33.82c-18.46-2.31-35.86,9.09-41.76,26.37c-0.61,1.78-0.8,3.04-2.06,3.49
		c-1.02,0.37-2.51,0.44-3.6-0.29c-10.45-6.95-24-6.74-33.5,1.56c-6.68,5.84-9.5,15-6.29,23.08
		C666.43,482.3,669.33,484.24,674.64,484.23z"/><path fill="#23211F" d="M740.19,307.61c-1.47,1.55-3.93,1.27-4.93,0.55c-1.41-1.01-1.69-3.69-0.23-5.17l16.76-17.12
		c1.04-1.06,3.23-0.57,4.05-0.04c1.07,0.69,1.93,3.33,0.64,4.68L740.19,307.61z"/><path fill="#23211F" d="M812.27,332.52c0.04,2.72-1.27,4.25-2.83,4.45c-2.37,0.31-3.79-1.27-3.79-3.92l-0.04-23.67
		c0-1.81,1.79-2.86,3.05-2.94c1.79-0.11,3.28,1.33,3.31,3.56L812.27,332.52z"/><path fill="#23211F" d="M732.31,236.75l-25.34,0.53c-2.07,0.04-3.42-1.29-3.54-2.91c-0.12-1.66,1.27-3.46,3.58-3.49
		l23.04-0.22c1.98-0.02,3.26,0.8,3.82,1.99C734.29,233.57,734.22,236.71,732.31,236.75z"/><path fill="#F3DB95" d="M473.04,707.63c-3.22-10.62,2.27-21.88-2.8-23.37c-1.55-0.46-3.95,0.63-4.17,2.97
		c-1.64,18.06,0.93,36.21,9.39,52.3c3.77,7.16,9.7,12.14,15.22,17.66c5.91,5.91,7.28,13.85,1.87,20.49
		c-7.2,8.84-19.38,10.58-29.66,5.37c-10.39-5.26-18.6-12.85-26.41-21.6c-17.14-19.2-26.97-43.4-26.83-69.4l3.3-23.67
		c-17.68-17.83-26.68-40.56-28.06-65.3c-0.7-12.51,3.01-23.88,4.08-35.68c-4.72-16.07-13.67-36.89-0.4-48.96
		c10.23-9.31,25.48-2.62,37.8,5.62c39.99-27.84,98.23-30.03,131.28,7.22c8.79,9.91,15.79,20.68,21.48,32.51
		c5.71,11.88,6.24,25.99,0.23,37.5c-5.18,9.89-14.27,16.28-23.88,21.14c-1.8,0.91-2.78,2.15-2.66,3.97c0.47,7.39,11.5-0.79,19.9-6.9
		c4.39,3.48,8.69,6.04,11.78,10.16c-26.92,7-50.99,17.25-75.48,29.17l-14.28-17.51l-26.37,3.03c-1.95,0.22-2.22,2.14-2.47,3.14
		c-0.62,2.42,2.73,2.15,3.68,2.95C487.77,665.81,491,690.02,473.04,707.63z M401.82,550.3l13.92-14.57
		c1.94-2.03,1.44-5.18-0.76-6.68c-7.42-5.01-15.51-8.56-15.72-3.56c-0.15,3.6,6.02,3.19,10.34,7.34l-12.66,14.07
		c-1.11,1.24-0.52,3.28,0.55,4.1C398.39,551.7,400.38,551.81,401.82,550.3z M543.6,560.31c3.39,3.07,7.88,3.81,12.01,1.9
		c8.19-3.77,5.61-16.84,0.32-27.13c-0.82-1.6-2.87-1.89-3.88-1.39c-5.64,2.77,7.13,19.3,0.29,22.37
		c-4.85,2.18-8.95-6.09-11.55-13.88c-0.69-2.08-2.1-3.27-4.07-2.87C531.68,540.34,536.95,554.3,543.6,560.31z M465.91,583.97
		c4.33,3.9,10.12,4.75,15.01,2.43c10.29-4.89,7.73-19.94,1.24-31.51c-0.98-1.75-3.9-1.53-5-0.37c-3.06,3.27,3.03,9.85,3.69,18.63
		c0.24,3.21-1.23,6.18-3.52,7.01c-2.8,1.01-5.45-0.04-7.48-2.08c-6.85-6.87-5.81-17.49-11.32-16.32
		C452.95,562.94,458.89,577.65,465.91,583.97z M531.95,586.2c4.47,1.4,9.13,3.47,13.19,0.52c2.61-1.89,5.03-5.26,4.83-9.74
		c-0.1-2.19-1.58-3.52-3.48-3.3c-3.8,0.44-1.63,6.98-5.23,8.19c-4.11,1.38-8.8-2.88-8.62-5.37c0.14-1.79,8.8-13.1,2.35-16.41
		c-8.55-4.38-25.26,3.01-24.45,9c0.8,5.96,8.77,6.92,14.76,9.36c2.69,4.03-1.32,10.12-5.47,11.23c-7.14,1.9-8.84-6.61-12.39-3.73
		c-1.12,0.91-1.45,2.78-0.57,4.14c3.28,5.07,8.47,6,14.04,5.44C525.92,595.02,528.91,589.49,531.95,586.2z"/><path fill="#E97D65" d="M351.11,256.55c-10.06,10.15-9.2,26.31,2.09,35.36c8.05,6.45,18.97,6.91,27.65,1.54
		c8.25-5.1,12.85-14.97,10.78-25.21l0.11-3.83c56.18,21.99,94.78,66.73,118.67,121.62c-0.05,3.58-2.41,5.98-4.22,8.46
		c-8.61-9.33-22.04-10.57-32.27-3.23c-9.1,6.53-12.29,19.66-7.09,30.23c-15.43,2.83-30.86,0.16-44.49-7.74
		c-2.46-1.43-5.13,0.07-6.22,2.31c-3.76,7.74-8.9,13.95-15.18,19.58c-1.27-10.53-9.09-18.36-17.86-20.6
		c-11.01-2.81-20.74,2.14-26.19,9.82c-6.5,9.15-5.18,19.68-0.06,28.8c-12.16,0.9-24.24-0.64-35.51-5.89
		c-6.33-25.7-9.58-51.26-9.39-76.88c10.88,8.99,26.43,7.99,35.4-3.73c5.22-6.82,6.53-15.71,2.84-24.43
		c-5.8-13.7-20.55-18.34-34.62-12.1c4.01-24.77,11.66-48.25,23.99-70.09C343.2,258.21,347.3,257.77,351.11,256.55z M453.86,350.26
		c0-13.34-10.81-24.15-24.15-24.15c-13.34,0-24.15,10.81-24.15,24.15s10.81,24.15,24.15,24.15
		C443.04,374.41,453.86,363.59,453.86,350.26z"/><path fill="#F9F6E4" d="M784.51,795.16c2.54-0.77,3.24-1.75,3.1-3.5c-0.09-1.09-1.48-2.71-3.36-2.13l-112.41,34.4
		c-16.7,5.11-32.77,6-49.57,0.7L495.45,784.6l5.62-7.28c21.8,10.52,44.89,14.81,68.88,16.62l36.47,5.5
		c12.57,1.9,24.85,3.37,37.54,2.67c18.98-1.05,26.73-13.45,30.87-31.58l27.88,8.72c12.98,4.06,25.91-5.27,32.45-18.29l55.12,15.6
		c10.04,2.84,16.55,10.54,17.38,20.41c0.82,9.73-3.9,20.37-14.33,23.52l-122.76,37.06c-17.74,5.36-34.81,4.69-52.4-0.81
		l-207.75-64.89c-5.72-1.79-9.95-4.63-13.98-8.64l17.52-19.01l23.8,7.98c14.23,15.27,33.01,26.9,52.46,16.41l133.18,41.7
		c14.74,4.61,30.44,4.44,45.14-0.02L784.51,795.16z"/><path fill="#E97D65" d="M271.87,489.11c3.39-10.22,0.42-21.96-8.16-28.36c-8.8-6.56-20.85-6.39-29.48,0.08
		c-8.76,6.57-11.96,18.35-8,28.71c-3.24-0.61-5.32,0.94-6.55,4.14c-6.96,18.16-22.15,32.06-40.73,35.73
		c9.97-8.13,12.25-22.72,4.9-33.62c-6.85-10.14-20.71-13.56-31.73-7.7c3.54-22.09,10.11-43.7,18.41-64.43
		c7.54,8.69,20.21,10.64,29.72,5.01c9.64-5.7,14.17-16.85,10.82-27.78c-2.92-9.54-10.61-15.78-20.43-17.07
		c13.58-22.35,30.07-43.16,49.13-61.09c1.13,8.48,7.29,15.69,13.89,18.56c8.7,3.78,17.81,2.47,24.54-3.04
		c7.29-5.97,10.47-14.47,8.72-24.3c-1.24-6.96-6.54-14.02-14.07-18.33c17.95-12.58,37-23.8,58.5-32.07
		c-29.24,57.52-30.91,124.3-15.46,185.66C306.8,467.91,291.17,482.14,271.87,489.11z M298.65,402.77c0-13.32-10.8-24.12-24.12-24.12
		c-13.32,0-24.12,10.8-24.12,24.12c0,13.32,10.8,24.12,24.12,24.12C287.86,426.89,298.65,416.09,298.65,402.77z"/><path fill="#E97D65" d="M444.11,244.65c-4.72,14.46,4.68,28.92,19.47,30.63c14.5,1.67,27.54-9.97,27.01-24.77
		c20.95,4.29,40.74,10.39,60.14,19.07c-1.57,9.47,2.1,18.03,9.39,22.96c7.75,5.24,17.16,5.62,25.59,1.14
		c1.78-0.95,3.37-1.76,3.71-3.56c10.94,7.07,21.11,14.33,30.95,22.9c-13.09,6.8-16.61,23.7-8.19,35.32
		c8.26,11.4,25.02,13.44,35.52,3.5c2.24-2.12,3.99-4.18,4.61-6.7c4.08,5.12,10.71,10.48,12.18,17.11c1.23,8.5-8.2,15.43-15.84,17.53
		c-22.96,6.32-38.34-11.85-41.96-11.29c-3.66,0.56-9.56,18.1-32.67,26.34c0.93-13.86-9.01-25.12-22.46-25.99
		c-13.17-0.85-24.74,8.93-26,22.34c-3.16-1.79-8.08-3.37-9.69-7.06c-28.72-65.58-75.66-114.12-145.57-132.69
		C395.44,245.31,419.33,243.82,444.11,244.65z M546.49,318.36c0-13.31-10.79-24.11-24.11-24.11c-13.31,0-24.11,10.79-24.11,24.11
		s10.79,24.11,24.11,24.11C535.69,342.47,546.49,331.68,546.49,318.36z"/><path fill="#F3DB95" d="M473.75,715.98c21.79-18.1,23.75-44.46,4.8-65.82c4.86-1.23,8.99-1.6,13.46-1.59l13.27,16.17
		c1.37,1.66,3.98,1.16,5.82,0.26c25.44-12.44,51.22-22.94,78.56-30.4c1.84-0.5,3.23-1.13,3.71-2.63c0.36-1.1,0.21-3.19-1.06-4.35
		l-14.06-12.8c-0.09-0.8,0.82-1.83,1.39-1.98c0.91-0.25,2.38,0.65,3.41,1.1c13.16,5.79,25.89,11.12,37.71,19.22
		c16.4,11.24,28.84,26.35,34.1,45.93c-5.33,8.84-8.56,17.9-12.5,27.22l-10.75,25.5c-32.33-31.37-83.21-32.77-119.86-8.23
		c-9.43,6.31-16.36,14.2-21.44,24.32C481.06,739.06,477.07,728.48,473.75,715.98z"/><path fill="#F3DB95" d="M662.78,784.23c-3.25,6.53-9.16,9.76-15.88,10.71c-9.72,1.36-19.17,0.72-28.93-0.72l-45.12-6.64
		c-24.29-2.19-47.56-6.11-70.07-16.92c0.61-6.78-3.38-12.66-7.08-17.75c2.41-8.16,8.8-15.37,15.66-20.63
		c19.45-14.9,44.05-21.11,68.37-18.11c19.57,2.41,35.77,11.9,50,25.11l12.45,11.55c-1.85,3.22-3.55,6.28-2.59,9.71
		c0.39,1.4,2.6,1.6,3.65,1.25c1.42-0.48,2.27-1.8,2.79-3.68c3.24-11.62,12.41-19.88,19.69-16.41
		C674.01,745.66,669.8,770.11,662.78,784.23z"/><path fill="#E97D65" d="M614.63,420.65c-20.64,19.56-44.68,6.49-48.6,8.72c-2.96,1.68-6.78,32.7-41.93,40.85
		c-13.27,3.14-26.76,2.39-39.23-2.91c-5.35-13.78-10.86-26.38-18.13-39.11c21.32-2.41,38.43-16.73,48.54-35.15
		c30.61,20.67,71.58,14.93,92.47-16.54c18.4,13.8,42.06,16.51,58.15,0.34c-2.69,16.5-18.39,24.29-34.32,20.54
		C623.34,395.44,626.85,409.08,614.63,420.65z"/><path fill="#F9F6E4" d="M309.79,265.29l-124.7,0.18c-4.29,0.01-7.23-2.12-8.95-5.73c-2.72-5.72-2.04-12.45,1.86-17.85
		c7.27-10.06,21.49-11.66,31.48-4.47c1.09,0.79,2.72,0.57,3.65,0.19c0.74-0.3,1.55-1.29,1.68-2.84
		c1.83-22.23,20.47-39.52,42.9-38.58c16.57,0.7,30.02,11.05,36.18,25.81c0.76,1.82,5.43,0.41,6.1-0.92
		c12.36-8.92,29.16-7.52,38.45,4.79c-3.8,0.06-6.64-0.56-9.37,1.57c-5.94,4.65-3.08,19.08-1.04,29.55L309.79,265.29z"/><path fill="#F9F6E4" d="M406.07,670.9c-8.23,32.83,1.52,65.78,22.54,92.06c-5.11-0.39-8.47-2.22-12.84-3.94l-83.55-172.02
		c-5.67-11.67-2.52-29.36,8.53-31.35l35.68-6.42c1.66,6.69,3.48,12.51,6.28,18.96C372.61,605.18,379.68,642.83,406.07,670.9z"/><path fill="#F9F6E4" d="M393.29,778.86c-3.98-3.67-5.2-8.06-7.84-12.54L331.5,655.54l-23.71-48.31
		c-8.9-18.13-0.12-39.29,19.56-47.27c-4.31,10.27-4.23,20.94,0.76,31.19l82.26,168.87L393.29,778.86z"/><path fill="#E97D65" d="M391.66,496.79c-17.27,25.72-48.6,37.69-74.87,19.54c-3.56-15.57-5.46-30.47-6.17-46.4
		c3.51-4.69,6.79-8.67,9.87-14.65c24.19,8.56,50.59,7.16,73.64-5.85l16.61,50.75c-5.53-0.42-8.94-3.01-13.13-4.89
		C395.47,494.29,393.06,494.71,391.66,496.79z"/><path fill="#F3DB95" d="M724.03,765.4c-5.09,6.78-12.88,9.33-20.36,7.06l-27.9-8.47c0.85-6.3,1.47-12.03,0.24-17.94
		c-1.75-8.35-9.11-13.37-17.43-11.33c-5.61,1.38-10.1,4.85-13.74,10.01l-8.52-8.05l12.57-28.71l10.84-24.48
		c15.19,3.77,27.41,12.16,37.18,23.62l14.12,19.16c-2.28,3.79-4.89,7.33-5.49,11.76c-0.24,1.78,1.83,2.8,2.98,2.73
		c4.93-0.3,5.18-13.18,16.97-18.25c3.29-1.41,7.09-1.34,9.8,0.71C744.05,729.84,732.94,753.52,724.03,765.4z"/><path fill="#E97D65" d="M219.01,530c-5.49-5.13-14.86,18.49-42.79,15.74c-7.58-0.75-14.94-3.63-19.65-9.91
		c31.51,6.51,57.02-10.71,69.38-38.9c28.6,8.22,57.66-0.16,79.17-20.64c1.09,14.3,2.86,26.65,5.69,40.06
		C291.25,546.35,245.33,554.6,219.01,530z"/><path fill="#E97D65" d="M479.27,468.06c-6.18,15.66-18.62,27.86-35.59,31.54l-24.25-72.96c-0.78-2.1,0.43-4.93,2.43-5.58
		c11.79,6.37,25.3,9.11,38.89,8.01C468.08,441.65,473.21,453.9,479.27,468.06z"/><path fill="#F3DB95" d="M311.92,370.89c0.1-13.41,1.39-26.5,3.61-40.26c14.07-6.24,28.82-1.59,34.62,12.1
		c3.69,8.72,2.38,17.61-2.84,24.43C338.36,378.88,322.8,379.87,311.92,370.89z"/><path fill="#F3DB95" d="M391.74,264.41l-0.11,3.83c2.06,10.24-2.53,20.11-10.78,25.21c-8.69,5.37-19.6,4.91-27.65-1.54
		c-11.29-9.04-12.15-25.21-2.09-35.36C359.86,253.72,380.31,259.94,391.74,264.41z"/><path fill="#F3DB95" d="M272.86,295.64c7.52,4.31,12.83,11.37,14.07,18.33c1.75,9.83-1.44,18.33-8.72,24.3
		c-6.73,5.51-15.84,6.82-24.54,3.04c-6.6-2.87-12.76-10.08-13.89-18.56C250.17,312.96,261.21,303.8,272.86,295.64z"/><path fill="#F3DB95" d="M271.87,489.11c-14.73,5.32-31.08,5.73-45.64,0.43c-3.96-10.36-0.76-22.14,8-28.71
		c8.63-6.47,20.67-6.64,29.48-0.08C272.29,467.15,275.26,478.89,271.87,489.11z"/><path fill="#F3DB95" d="M178.95,529.42c-12.35,2.44-30.26-0.11-30.04-8.42c0.3-11.34,1.49-22.19,3.2-32.9
		c11.02-5.85,24.89-2.44,31.73,7.7C191.2,506.7,188.92,521.29,178.95,529.42z"/><path fill="#F9F6E4" d="M428.96,514.64c-2.34,1.41-5.49,1.14-6.32-1.35l-22.76-68.04c5.6-3.86,9.54-8.19,14.33-13.24
		l25.32,76.27L428.96,514.64z"/><path fill="#F3DB95" d="M400.93,435.64c-12.15,10.89-27.84,16.81-44.11,18.02c-5.12-9.12-6.43-19.65,0.06-28.8
		c5.45-7.68,15.18-12.63,26.19-9.82C391.84,417.27,399.66,425.11,400.93,435.64z"/><path fill="#F3DB95" d="M170.53,423.68c5.54-13.84,12.39-27.12,20.12-39.84c9.81,1.29,17.5,7.53,20.43,17.07
		c3.35,10.93-1.18,22.08-10.82,27.78C190.73,434.31,178.07,432.36,170.53,423.68z"/><path fill="#F3DB95" d="M687.08,600.62c0.88,0.83,1.35,4.52,0.26,5.75c-8.14,9.23-9.72,21.28-3.91,32.31
		c1.25,2.38,0.96,7.8-0.91,9.72c-8.12,2.38-17.25,2.12-25.51-0.61l-5.37-47.01c2.73,0.31,5.88,0.45,7.48,2.04
		c2.35,2.34,1.44,9.56,5.37,9.44c1.42-0.04,2.8-1.37,2.3-3.18l-1.74-6.25C672.51,603.47,679.02,604.07,687.08,600.62z"/><path fill="#F3DB95" d="M652.32,345.13c-0.62,2.52-2.36,4.58-4.61,6.7c-10.5,9.94-27.26,7.9-35.52-3.5
		c-8.42-11.62-4.91-28.52,8.19-35.32C631.88,323.03,642.75,333.14,652.32,345.13z"/><path fill="#F3DB95" d="M490.59,250.51c0.53,14.81-12.51,26.45-27.01,24.77c-14.79-1.71-24.19-16.17-19.47-30.63
		C460.11,245.19,475.08,247.33,490.59,250.51z"/><path fill="#F3DB95" d="M574.02,394.82c-15.97,5.7-33.5,4.81-48.46-3.66c1.26-13.41,12.83-23.19,26-22.34
		C565.02,369.7,574.96,380.96,574.02,394.82z"/><path fill="#F9F6E4" d="M650.97,909.5c-0.36,5.14-4.66,6.89-8.94,6.9c-4.86,0.01-8.59-2.02-9.73-6.83l-9.95-44.7
		c9.19,2.55,16.88,3.44,25.92,3.12L650.97,909.5z"/><path fill="#F3DB95" d="M506.18,394.49c-8.65,14.46-22.98,24-39.37,27c-5.2-10.57-2.01-23.7,7.09-30.23
		C484.14,383.92,497.57,385.17,506.18,394.49z"/><path fill="#F9F6E4" d="M398.17,843.56c-2.67,2.16-5.34,2.27-8.34,1.31c-2.23-0.71-5-2.3-5.56-5.9l15-44.66
		c6.52,3.29,12.99,5.46,20.5,7.36L398.17,843.56z"/><path fill="#F9F6E4" d="M801.15,868.54c0.79,3.67-3.47,5.19-5.4,5.73c-2.75,0.76-5.3,0.91-7.63-1.46l-14.86-38.95
		l19.17-5.66L801.15,868.54z"/><path fill="#CAE5DF" d="M659.79,653.16c11.92,2.69,29.92,2.2,28.05-8.58c5.41,0.44,3.7,10,2.53,11.32
		c-0.71,0.81-2.66,1.29-4.34,1.3l-28.2,0.19c-5.29,0.04-7.88-3.65-8.44-8.51l-8.26-71.29l10.58-0.17l4.08,13.41
		c-2.81,1.09-7.61,2.34-8.65,5.45l5.81,51.59C653.27,650.72,657.47,652.63,659.79,653.16z"/><path fill="#F3DB95" d="M589.43,290.12c-0.34,1.79-1.93,2.61-3.71,3.56c-8.43,4.48-17.84,4.1-25.59-1.14
		c-7.29-4.93-10.96-13.49-9.39-22.96C564.27,275.63,577.02,282.09,589.43,290.12z"/><path fill="#F3DB95" d="M698.26,642.25c-9.2-2.69-13.25-11.62-11.54-20.54c1.15-6.01,4.96-12.28,11.46-13.26
		c3.14-0.47,6.3,3.03,7.68,5.69C710.89,623.83,707.83,635.68,698.26,642.25z"/><path fill="#CAE5DF" d="M496.54,496.45c-11.69-0.92-21.47,1.44-33.17,2.74c9.07-7.18,16-14.26,20.72-24.67
		c9.07,3.04,17.41,4.23,27.35,4.53C504.98,483.71,500.37,488.73,496.54,496.45z"/><path fill="#CAE5DF" d="M694.45,602.17c-4.96,3.4-0.55-4.32-2.59-8.15c-2.48-4.66-20.17-5.25-30.67-4.24l-3.77-12.37
		l39.34,0.04L694.45,602.17z"/><path fill="#F3DB95" d="M532.23,504.73c-0.73-7.36-2.71-13.88-6.51-12.46c-3.45,1.29-0.41,5.33-0.52,10.05
		c-7.27-3-13.81-4-21.31-5.29c2.82-4.74,6.2-8.57,10.5-11.62c5.84-4.14,13.1-2.93,17.59,2.71c4.47,5.61,6.78,12.37,7.9,20.19
		C536.94,507.85,534.68,506.42,532.23,504.73z"/><path fill="#F3DB95" d="M642.86,643.18c-10.18-10.29-21.54-18.04-34.3-25.13c11.36,0.63,21.13,0.2,31.54-3.81L642.86,643.18
		z"/><path fill="#F3DB95" d="M701.85,593.16c13.3-2.26,19.74-15.48,15.23-27.47c-4.35-11.56-17.96-16.14-29.46-9.93
		c-6.43,3.48-8.47,9.65-11.85,16.88c-1.39-9.81,6.96-17.68,14.27-20.46c9.72-3.69,19.68-0.63,25.77,6.89
		c5.45,6.73,6.9,14.94,3.42,23.27c-2.73,6.54-9.46,12.36-17.93,13.18C700.85,595.43,700.77,593.34,701.85,593.16z"/><path fill="#F9F6E4" d="M348.31,249.67l-13.81,4.85c-2.59-12.76-5.18-25.86,2.22-21.24
		C341.71,237.7,344.89,243.02,348.31,249.67z"/><path fill="#F9F6E4" d="M355.02,248.4l-6.43-11.34c8.08-1.67,15.36,0.6,20.39,7.17L355.02,248.4z"/><path fill="#F3DB95" d="M687.73,595.84c-7.59,4.7-16.21,3.78-23.97,2.71l-1.21-5.18
		C670.75,593.23,678.93,592.21,687.73,595.84z"/><path fill="#F3DB95" d="M713.15,566.18l-12.28,4.96l1.13-13.96C707.09,558.35,710.39,560.76,713.15,566.18z"/><path fill="#F3DB95" d="M711.4,583.52l-9.05-8.8l12.05-5.24C715.13,574.47,714.61,578.58,711.4,583.52z"/><path fill="#F3DB95" d="M696.49,569l-9.21-8.12c3.27-2.8,6.54-3.6,10.66-3.88L696.49,569z"/><path fill="#F3DB95" d="M693.23,571.91l-12.3-0.03c0.47-3.29,1.59-5.88,3.95-8.38L693.23,571.91z"/><path fill="#CAE5DF" d="M405.33,506.07l-0.36,1.3c-4.63-0.8-9.11-0.06-14.01,1.53c1.87-2.41,3.18-4.83,5.82-6.62
		C399.88,503.93,402.49,504.99,405.33,506.07z"/><path fill="#F3DB95" d="M707.8,585.88c-0.43,1.64-3.69,3.04-6,2.93l0.46-8.77C704,581.65,706.57,583.09,707.8,585.88z"/><path fill="#E97D65" d="M414.57,509.4c-2.09,1.12-3.11-0.01-4.49-0.94C411.06,507.79,413.24,507.06,414.57,509.4z"/><path fill="#E97D65" d="M404.97,507.37l0.36-1.3l3.79,1.45C407.19,508.79,406,507.55,404.97,507.37z"/><path fill="#F9F6E4" d="M674.64,484.23c-5.31,0.01-8.21-1.93-9.9-6.18c-3.21-8.08-0.39-17.24,6.29-23.08
		c9.5-8.31,23.05-8.51,33.5-1.56c1.09,0.72,2.58,0.65,3.6,0.29c1.25-0.45,1.45-1.71,2.06-3.49c5.9-17.28,23.3-28.69,41.76-26.37
		c18.46,2.31,32.72,16.1,36.36,33.82c0.29,1.43,0.98,2.27,1.81,2.68c3.78,1.85,11.12-10.6,26.47-3.9
		c11.29,4.93,16.43,19.39,9.15,27.5L674.64,484.23z"/><path fill="#23211F" d="M531.95,586.2c-3.05,3.28-6.03,8.82-11.05,9.33c-5.57,0.57-10.76-0.37-14.04-5.44
		c-0.88-1.36-0.54-3.24,0.57-4.14c3.55-2.88,5.25,5.64,12.39,3.73c4.15-1.11,8.16-7.2,5.47-11.23c-5.99-2.44-13.96-3.4-14.76-9.36
		c-0.81-5.99,15.91-13.38,24.45-9c6.46,3.31-2.21,14.62-2.35,16.41c-0.19,2.49,4.51,6.75,8.62,5.37c3.6-1.21,1.43-7.74,5.23-8.19
		c1.9-0.22,3.39,1.11,3.48,3.3c0.2,4.48-2.22,7.84-4.83,9.74C541.08,589.67,536.42,587.6,531.95,586.2z"/><path fill="#23211F" d="M465.91,583.97c-7.02-6.32-12.96-21.03-7.39-22.21c5.52-1.17,4.48,9.45,11.32,16.32
		c2.04,2.05,4.69,3.1,7.48,2.08c2.29-0.83,3.77-3.8,3.52-7.01c-0.66-8.78-6.75-15.36-3.69-18.63c1.09-1.17,4.02-1.38,5,0.37
		c6.49,11.57,9.05,26.62-1.24,31.51C476.03,588.72,470.24,587.87,465.91,583.97z"/><path fill="#23211F" d="M543.6,560.31c-6.65-6.01-11.92-19.97-6.88-21c1.97-0.4,3.37,0.79,4.07,2.87
		c2.6,7.79,6.71,16.06,11.55,13.88c6.84-3.07-5.93-19.6-0.29-22.37c1.01-0.5,3.06-0.2,3.88,1.39c5.3,10.29,7.87,23.36-0.32,27.13
		C551.49,564.11,547,563.37,543.6,560.31z"/><path fill="#23211F" d="M401.82,550.3c-1.44,1.5-3.43,1.39-4.34,0.69c-1.07-0.82-1.66-2.86-0.55-4.1l12.66-14.07
		c-4.32-4.14-10.49-3.73-10.34-7.34c0.21-4.99,8.31-1.45,15.72,3.56c2.21,1.49,2.7,4.65,0.76,6.68L401.82,550.3z"/></svg>