<svg xmlns="http://www.w3.org/2000/svg" viewBox="0 0 1024 1024"><path fill="#0D0D0C" d="M758.52,478.39c4.04,47.26-34.24,84.28-80.77,80.76l-322.54,0.49
		c-27.2,0.04-50.67-13.27-65.74-35.25c-15.7-24.45-18.5-55.61-6.29-82.21c13.93-30.36,43.72-47.89,77.28-48.47
		c-4.91-41.58,8.93-82.53,38.4-110.69c19.86-18.98,44.8-30.68,71.88-32.47c56.53-4.33,105.94,33.04,117.58,88.56
		c37.27-22.99,82.75-10.67,98.84,28.53c5.44,14.48,5.88,29.33,1.5,44.34C725.71,412,755.58,441.8,758.52,478.39z M686.51,549.05
		c25.31-0.09,46.47-15.05,56.48-37.09c9.7-21.35,7.51-44.98-5.73-64.32c-12.12-17.7-32.79-27.14-54.22-25.93
		c-2.54,0.14-4.21-0.93-5.16-2.19c-1.42-1.89-1.22-3.94-0.31-6.17c6.61-16.33,5.9-34.19-3.65-50.04
		c-17.93-29.75-57.83-33.97-86.03-11.53c-1.62,1.29-4.03,1.15-5.5,0.31c-1.31-0.75-2.47-2.63-2.75-4.61
		c-6.99-49.09-47-85.46-96.81-87.32c-30.52-1.14-59.21,11.27-80.36,33.35c-26.47,27.63-37.74,66.06-31.06,103.74
		c0.62,3.51-1.87,6.46-5.52,6.32c-20.01-0.74-39.85,5.08-55.04,18.14c-29.46,25.35-33.35,69.01-11.12,99.71
		c12.57,17.36,32.57,28.25,54.6,28.24l169.67-0.06L686.51,549.05z"/><path fill="#0D0D0C" d="M263.51,352.51c-3.62,13.26,14.29,26.06,1.73,34.25c-3.92,2.56-10.03,2.84-13.99-1.21
		c-17.91-18.39-18.48-50.99,3.01-67.82c12.66-9.91,29.11-12.46,43.95-6.02c18.09,7.85,26.59,28.51,17.57,46.04
		c-4.07,7.92-11.94,13.15-19.1,14.6c-9.58,1.94-18.47-0.68-25.11-6.79C267.8,362.09,267.17,357.59,263.51,352.51z M285.06,353.42
		c-7.37-4.95-0.6-14.42-4.72-16.46c-1.67-0.82-4.01-0.54-5.15,1.42c-3.33,5.78-2.69,13.39,1.79,18.78
		c4.61,5.54,12.35,7.54,19.56,5.18c5.63-1.84,11.14-7.28,12.59-14.35c2.77-13.56-5.98-25.43-19.44-29.03
		c-19.43-5.19-39.82,8.5-41.76,28.89c-1.15,12.02,2.62,24.37,11.74,31.93c0.59-5.42-3.22-8.61-4.56-12.82
		c-3.16-9.91-2.81-19.96,3.46-28.57c5.07-6.96,13.57-12.65,23.32-12.36c9.81,0.29,18.05,6.26,19.11,15.89
		c0.51,4.69-1.29,8.71-4.56,11.1C293.43,355.23,288.83,355.95,285.06,353.42z"/><path fill="#0D0D0C" d="M252.53,615.15c9.8,13.1,30.45,3.26,31.73,17.83c0.41,4.69-2.46,11.01-8.19,12.01
		c-25.92,4.55-52.34-11.12-55.5-37.19c-1.71-14.11,2.44-27.33,12.1-37.02c10-10.04,24.7-14.13,37.82-9.36
		c17.85,6.49,25.59,26.33,16.54,42.59C280.06,616.53,266.57,620.34,252.53,615.15z M261.48,577.81c6.88,1.15,11.72,6.75,11.4,12.98
		c-0.24,4.65-3.23,7.91-6.81,8.86c-8.34,2.23-11.12-7.88-15.16-6.08c-1.28,0.57-2.7,2.69-1.99,4.55
		c3.01,7.89,12.32,11.94,20.39,9.14c6.05-2.1,10.2-7.67,11.4-12.31c1.78-6.86,0.23-12.94-3.9-17.71
		c-6.79-7.84-17.35-10.41-26.99-6.4c-11.53,4.79-19.44,15.56-20.08,28.05c-0.61,12,3.68,22.89,13.73,29.78
		c8.89,6.1,21.3,9.65,31.93,5.79c-8.51-2.72-15.61-2.47-22.39-6.38c-14.41-8.3-20.11-26.02-11.32-40.31
		C245.85,581.03,252.87,576.37,261.48,577.81z"/><path fill="#0D0D0C" d="M754.4,593.65c6.73,2.72,10.53,8.84,14.06,15.44c0.36-7.99-3.84-15.12-9.85-20.53
		c-5.65-5.08-5.8-13.58-0.43-17.63c9.04-6.82,20.36,4.06,27.57,14.4c9.76,13.98,11.11,32.03,2.43,46.95
		c-8.18,14.07-23.79,23.04-41.07,21.3c-13.41-1.34-25.07-9.09-29.76-21.74c-4.13-11.14-1.82-23.13,6.43-31.45
		C731.41,592.7,743.52,589.26,754.4,593.65z M760.15,621.36c1.83-8.26-3-17-10.95-19.43c-7.82-2.39-15.77,1.16-20.15,6.81
		c-4.75,6.11-5.53,14.26-1.97,21.28c3.57,7.06,10.2,12.24,18.14,13.77c11.21,2.17,22.78-1.93,30.14-9.96
		c7.56-8.25,10.92-19.9,7.88-31.05c-2.86-10.47-9.38-20.84-19.81-24.71c4.95,7.78,10.2,12.21,12.71,19.99
		c5.1,15.81-3,33.23-19.44,37.49c-7.89,2.05-16.42-0.85-20.7-7.37c-3.21-4.88-3.21-10.56,0.2-14.95c2.77-3.57,7.5-4.87,11.24-3.16
		c7.39,3.37,3.49,13.76,8.21,14.56C756.95,624.85,759.55,624.03,760.15,621.36z"/><path fill="#0D0D0C" d="M759.71,328.21c2.68,1.43,4.79,3.83,6.77,5.74l0.57-0.51c-0.33-2.75-2.36-4.76-4.31-6.87
		c-8.5-9.2-22.53-10.27-18.11-22.53c1.67-4.63,6.55-7.95,12.38-6.67c18.36,4.03,33.52,18.25,37.26,36.75
		c3.5,17.33-3.55,33.47-17.55,43.67c-11.94,8.7-28,9.73-40.84,2.38c-8.92-5.1-14.45-13.92-15.31-23.04
		c-1.01-10.67,3-20.64,11.57-26.84C740.48,324.26,750.61,323.37,759.71,328.21z M764.12,349.34c-1.42-9.88-10.63-16.57-20.02-14.45
		c-6.54,1.48-11.41,6.92-13.13,11.88c-2.39,6.89-1.05,13.81,3.03,19.26c6.43,8.59,17.49,11.57,27.78,8.72
		c11.09-3.08,19.05-12,22.25-21.62c3.9-11.72,1.06-23.46-6.62-32.61c-5.84-6.96-14.29-13.09-24.26-13.51
		c7.26,6.14,14.96,9.31,19.86,16.92c7.36,11.45,7.04,25.8-2.2,35.87c-5.78,6.3-14.14,9.27-22.39,6.75
		c-7.08-2.16-11.42-9.23-9.47-16.32c1.28-4.66,5.06-7.52,9.48-7.23c8.32,0.55,7.62,11.02,12.1,11
		C762.1,353.97,764.54,352.22,764.12,349.34z M767.98,334.26l-1.05,0.3C767.21,335.35,768.13,335.05,767.98,334.26z"/><path fill="#0D0D0C" d="M517.56,679.04c-7.68,7.47-18.08,9.26-28.43,6.63c-8.16-2.07-16.74-8.12-20.15-17.56
		c-8.64-23.95,15.01-59.47,32.67-78.4c1.76-1.88,3.36-2.53,5.7-2.3c1.87,0.18,3.39,1.48,4.59,3.77
		C524.4,615.01,537.1,660.03,517.56,679.04z M489.96,675.66c11.6,4.26,23.24-1.83,26.35-13.48c4.78-17.96-2.51-43.88-11.11-61.97
		l-16.33,22.73c-5.81,9.97-10.25,20.53-11.78,31.95C476.27,664.39,480.85,672.31,489.96,675.66z"/><path fill="#0D0D0C" d="M601.91,773.6c-5.81,14.66-21.72,20.98-36.14,16.47c-13.34-4.16-21.46-16.05-20.36-30.18
		c1.78-23.02,19.84-47.71,35.97-64.47c1.47-1.53,3.97-1.73,5.77-1.19c1.31,0.39,3.15,1.65,4.08,3.64
		C600.97,718.83,610.45,752.05,601.91,773.6z M568.16,780.47c10.94,3.78,21.82-1.48,25.07-12.33c5.08-18.46-0.75-42.54-9.1-61.28
		c-13.94,15.9-27.79,35.86-29.04,55.92C555.29,771.27,559.94,777.63,568.16,780.47z"/><path fill="#0D0D0C" d="M421.69,776.24c-7.74,7.86-18.66,9.87-29.09,6.79c-8.94-2.64-17.62-10.03-19.88-20.54
		c-5.41-25.19,22.02-56.67,41.82-72.86c2.82-2.31,8.09-2.66,9.54,1.27C433.11,715.28,439.95,757.7,421.69,776.24z M416.43,767.24
		c10.75-14.13,7.07-47.11,0.44-66.53c-17.48,15.28-45.32,48.54-30.93,66.63C392.56,775.67,408.28,777.95,416.43,767.24z"/><path fill="#0D0D0C" d="M658.51,640.32c1.41,16.99-9.45,30.35-25.39,31.38c-17.67,1.14-30.72-12.01-30.19-29.94
		c0.63-21.5,8.84-41.92,21.4-59.35c1.52-2.11,2.93-3.16,5.17-3.13c2.23,0.03,3.57,1.08,5.17,3.18
		C647.38,599.16,656.71,618.57,658.51,640.32z M648.54,643.51c-0.27-18.47-8.4-35.98-18.58-51.42
		c-10.43,15.27-19.14,37.79-16.71,54.71c1.4,9.78,10.07,15.94,19.21,15.13C641.58,661.12,648.39,653.75,648.54,643.51z"/><path fill="#0D0D0C" d="M360.48,674.96c-16.74-0.39-28.23-13.97-26.33-30.06c2.47-20.93,21.85-44.8,38.78-57.86
		c1.83-1.41,7.15-1.82,8.25,0.82c8.33,20.05,11.8,42.05,8.01,63.26C386.6,665.62,375.53,675.32,360.48,674.96z M375.33,658.91
		c3.65-5.8,4.63-11.84,5.4-18.16c0.84-14.24-1.05-27.94-6.09-42.44c-17.82,14.64-43.95,51.81-22.74,64.34
		C359.37,667.05,369.5,666.24,375.33,658.91z"/><path fill="#F8F5E8" d="M754.4,593.65c1.44-2.13,2.57-3.64,4.21-5.09c6.01,5.41,10.21,12.54,9.85,20.53
		C764.93,602.49,761.13,596.37,754.4,593.65z"/><path fill="#F8F5E8" d="M759.71,328.21l3.02-1.63c1.95,2.11,3.98,4.12,4.31,6.87c0.13,0.08,0.49,0.27,0.94,0.82
		c0.14,0.78-0.77,1.08-1.05,0.3c-0.12-0.23-0.29-0.45-0.46-0.61C764.5,332.04,762.4,329.64,759.71,328.21z"/><path fill="#F8F5E8" d="M686.51,549.05l-162.52,0.55l-169.67,0.06c-22.03,0.01-42.03-10.88-54.6-28.24
		c-22.23-30.7-18.34-74.36,11.12-99.71c15.19-13.07,35.03-18.89,55.04-18.14c3.65,0.14,6.14-2.81,5.52-6.32
		c-6.68-37.68,4.59-76.11,31.06-103.74c21.15-22.08,49.84-34.49,80.36-33.35c49.82,1.86,89.82,38.24,96.81,87.32
		c0.28,1.99,1.44,3.87,2.75,4.61c1.47,0.84,3.88,0.98,5.5-0.31c28.2-22.44,68.09-18.22,86.03,11.53
		c9.56,15.85,10.26,33.71,3.65,50.04c-0.91,2.24-1.11,4.28,0.31,6.17c0.95,1.27,2.62,2.34,5.16,2.19
		c21.43-1.21,42.1,8.23,54.22,25.93c13.24,19.34,15.43,42.97,5.73,64.32C732.98,534,711.82,548.97,686.51,549.05z M490.1,278.37
		c-2.06-1.05-4.64-1.2-6.58-0.66c-2.5,0.7-3.38,3.61-2.95,5.33c0.67,2.67,2.66,3.75,5.43,4.02c2.94,0.29,5.07-0.7,6.18-3.26
		C492.78,282.4,492.67,279.68,490.1,278.37z M404.75,335.12c10.92-25.96,34.1-44.18,61.72-47.61c3.17-0.39,4.52-3.55,4.08-5.79
		c-0.45-2.29-2.79-4.08-5.58-3.72c-10.34,1.34-20.02,3.94-29.15,8.91c-18.5,10.06-32.58,25.76-40.49,45.22
		c-1.19,2.92,1.13,6.01,3.39,6.44C400.99,339.02,403.43,338.28,404.75,335.12z M588.92,443.01c0-9.6-7.79-17.39-17.39-17.39
		c-9.6,0-17.39,7.79-17.39,17.39c0,9.6,7.79,17.39,17.39,17.39C581.14,460.4,588.92,452.61,588.92,443.01z M460.39,443.12
		c0-9.54-7.73-17.28-17.28-17.28s-17.28,7.73-17.28,17.28s7.73,17.28,17.28,17.28S460.39,452.66,460.39,443.12z M483.68,466.99
		c3.21,11.85,13.23,18.6,24.81,17.93c10.64-0.61,20.41-8.69,22.04-20.08c0.46-3.19-2.52-5.42-4.98-5.38
		c-3.26,0.06-4.67,2.42-5.35,5.64c-1.41,6.74-8.08,10.48-14.48,9.86c-6-0.57-11.13-4.83-12.54-11.23c-0.7-3.21-3.59-4.54-6.53-3.73
		C484.2,460.69,482.72,463.45,483.68,466.99z"/><path fill="#A4C69C" d="M285.06,353.42c3.77,2.53,8.37,1.81,11.38-0.39c3.28-2.4,5.07-6.41,4.56-11.1
		c-1.05-9.63-9.3-15.6-19.11-15.89c-9.75-0.28-18.26,5.4-23.32,12.36c-6.27,8.61-6.62,18.65-3.46,28.57
		c1.34,4.21,5.15,7.4,4.56,12.82c-9.12-7.56-12.89-19.91-11.74-31.93c1.94-20.4,22.34-34.08,41.76-28.89
		c13.46,3.6,22.21,15.47,19.44,29.03c-1.45,7.07-6.96,12.51-12.59,14.35c-7.21,2.36-14.95,0.36-19.56-5.18
		c-4.47-5.38-5.12-13-1.79-18.78c1.13-1.96,3.48-2.25,5.15-1.42C284.46,339,277.69,348.47,285.06,353.42z"/><path fill="#EBDE8F" d="M261.48,577.81c-8.61-1.44-15.63,3.22-19.78,9.96c-8.79,14.29-3.09,32.01,11.32,40.31
		c6.78,3.91,13.88,3.66,22.39,6.38c-10.63,3.86-23.04,0.31-31.93-5.79c-10.05-6.9-14.35-17.79-13.73-29.78
		c0.64-12.49,8.55-23.26,20.08-28.05c9.64-4.01,20.2-1.44,26.99,6.4c4.13,4.77,5.68,10.85,3.9,17.71
		c-1.2,4.64-5.35,10.21-11.4,12.31c-8.06,2.8-17.37-1.25-20.39-9.14c-0.71-1.86,0.71-3.98,1.99-4.55c4.05-1.8,6.83,8.31,15.16,6.08
		c3.58-0.96,6.57-4.21,6.81-8.86C273.21,584.56,268.37,578.96,261.48,577.81z"/><path fill="#A4C69C" d="M760.15,621.36c-0.59,2.67-3.2,3.49-4.51,3.27c-4.72-0.8-0.81-11.19-8.21-14.56
		c-3.75-1.71-8.47-0.41-11.24,3.16c-3.4,4.39-3.41,10.06-0.2,14.95c4.28,6.51,12.81,9.42,20.7,7.37
		c16.43-4.26,24.53-21.68,19.44-37.49c-2.51-7.78-7.76-12.21-12.71-19.99c10.43,3.88,16.95,14.25,19.81,24.71
		c3.05,11.15-0.32,22.8-7.88,31.05c-7.36,8.03-18.93,12.13-30.14,9.96c-7.94-1.54-14.57-6.71-18.14-13.77
		c-3.55-7.02-2.77-15.17,1.97-21.28c4.39-5.64,12.34-9.2,20.15-6.81C757.15,604.36,761.98,613.1,760.15,621.36z"/><path fill="#EBDE8F" d="M764.12,349.34c0.41,2.88-2.03,4.63-3.58,4.64c-4.49,0.02-3.78-10.46-12.1-11
		c-4.42-0.29-8.2,2.57-9.48,7.23c-1.95,7.1,2.39,14.16,9.47,16.32c8.25,2.52,16.61-0.45,22.39-6.75c9.24-10.07,9.56-24.42,2.2-35.87
		c-4.89-7.61-12.59-10.77-19.86-16.92c9.97,0.42,18.42,6.55,24.26,13.51c7.68,9.15,10.52,20.89,6.62,32.61
		c-3.2,9.62-11.16,18.54-22.25,21.62c-10.29,2.86-21.35-0.12-27.78-8.72c-4.08-5.45-5.41-12.37-3.03-19.26
		c1.71-4.95,6.58-10.4,13.13-11.88C753.49,332.76,762.7,339.46,764.12,349.34z"/><path fill="#EBDE8F" d="M489.96,675.66c-9.11-3.35-13.7-11.26-12.87-20.77c1.53-11.42,5.97-21.98,11.78-31.95l16.33-22.73
		c8.6,18.09,15.9,44.01,11.11,61.97C513.21,673.83,501.57,679.92,489.96,675.66z"/><path fill="#A4C69C" d="M568.16,780.47c-8.21-2.84-12.87-9.2-13.06-17.68c1.24-20.07,15.1-40.03,29.04-55.92
		c8.35,18.74,14.18,42.82,9.1,61.28C589.98,778.99,579.09,784.25,568.16,780.47z"/><path fill="#EB7060" d="M416.43,767.24c-8.14,10.71-23.87,8.42-30.49,0.1c-14.39-18.1,13.45-51.35,30.93-66.63
		C423.5,720.13,427.18,753.11,416.43,767.24z"/><path fill="#EB7060" d="M648.54,643.51c-0.15,10.24-6.96,17.62-16.07,18.42c-9.14,0.81-17.81-5.35-19.21-15.13
		c-2.43-16.92,6.28-39.45,16.71-54.71C640.14,607.52,648.27,625.03,648.54,643.51z"/><path fill="#EBDE8F" d="M375.33,658.91c-5.83,7.34-15.96,8.14-23.42,3.73c-21.22-12.53,4.92-49.69,22.74-64.34
		c5.04,14.5,6.93,28.2,6.09,42.44C379.96,647.07,378.98,653.11,375.33,658.91z"/><path fill="#0D0D0C" d="M404.75,335.12c-1.33,3.15-3.76,3.89-6.04,3.46c-2.26-0.43-4.58-3.53-3.39-6.44
		c7.92-19.46,21.99-35.15,40.49-45.22c9.14-4.97,18.82-7.57,29.15-8.91c2.79-0.36,5.13,1.43,5.58,3.72
		c0.44,2.24-0.91,5.39-4.08,5.79C438.85,290.94,415.67,309.16,404.75,335.12z"/><path fill="#0D0D0C" d="M588.92,443.01c0,9.6-7.79,17.39-17.39,17.39c-9.6,0-17.39-7.79-17.39-17.39
		c0-9.6,7.79-17.39,17.39-17.39C581.14,425.62,588.92,433.4,588.92,443.01z M571.4,437.98c0-3.26-2.64-5.91-5.91-5.91
		c-3.26,0-5.91,2.64-5.91,5.91s2.64,5.91,5.91,5.91C568.76,443.88,571.4,441.24,571.4,437.98z"/><path fill="#0D0D0C" d="M460.39,443.12c0,9.54-7.73,17.28-17.28,17.28s-17.28-7.73-17.28-17.28s7.73-17.28,17.28-17.28
		S460.39,433.58,460.39,443.12z M443.29,437.96c0-3.3-2.68-5.98-5.98-5.98s-5.98,2.68-5.98,5.98s2.68,5.98,5.98,5.98
		S443.29,441.27,443.29,437.96z"/><path fill="#0D0D0C" d="M483.68,466.99c-0.96-3.54,0.52-6.3,2.97-6.98c2.94-0.81,5.82,0.52,6.53,3.73
		c1.4,6.39,6.53,10.65,12.54,11.23c6.4,0.61,13.08-3.13,14.48-9.86c0.67-3.22,2.09-5.58,5.35-5.64c2.46-0.04,5.44,2.19,4.98,5.38
		c-1.63,11.39-11.4,19.47-22.04,20.08C496.91,485.59,486.89,478.84,483.68,466.99z"/><path fill="#0D0D0C" d="M490.1,278.37c2.58,1.32,2.69,4.04,2.08,5.43c-1.11,2.55-3.24,3.55-6.18,3.26
		c-2.77-0.27-4.76-1.35-5.43-4.02c-0.43-1.71,0.45-4.63,2.95-5.33C485.46,277.17,488.04,277.31,490.1,278.37z"/></svg>