<svg xmlns="http://www.w3.org/2000/svg" viewBox="0 0 1024 1024"><path fill="#171615" d="M484.46,702.91c-12.53-8.16-18.11-23.8-15.22-37.64c1.47-7.02,8.99-10.38,14.69-9.57
		c6.92,0.99,11.82,7.03,11.53,14.34c-0.26,6.29,2.91,11.41,9.1,11.92c5.5,0.45,10.76-3.6,10.83-9.98l0.28-25.54l2.19-5.78
		l-0.22-118.69c-19.81,3.2-37.03,14-47.7,29.91c-1.49,2.22-2,3.93-4.51,4.06c-2.58,0.13-3.72-0.98-5.11-3.29
		c-7.34-12.25-18.56-20.83-31.77-26.37c-29.79-12.49-64.24-2.96-82.87,23.37c-1.47,2.08-2.87,3.33-4.93,2.87
		c-2.92-0.66-3.57-2.46-3.66-5.44c-3.15-104.08,74.6-194.08,178.89-201.6l3.22-22.27c0.72-4.99,4.85-8.02,9.33-8.2
		c4.51-0.18,9.24,2.46,10.07,7.45l3.86,23.16c35.34,2.52,68.31,14.66,96.57,35.27c52.73,38.45,82.98,99.82,81.88,165.1
		c-0.06,3.34-0.47,5.45-3.84,6.35c-2.5,0.66-4.17-1.15-5.9-3.53c-20.3-27.83-57.8-35.94-88.26-19.92
		c-11.83,6.22-21.04,14.76-27.57,26.34c-1.01,1.11-4.05,0.71-5.16,0.22c-1.54-0.68-2.01-2.62-3.24-4.4
		c-10.7-15.49-27.31-25.26-46.31-29.05l-0.04,118.86l2.72,6.69l-0.2,25.64c-0.11,13.92-8.38,26.69-21.37,32.42
		C509.99,710.82,495.79,710.29,484.46,702.91z M534.87,344.95l-2.69-20.05c-0.67-1.68-2.09-2.8-3.53-2.6
		c-1.05,0.15-2.53,1.29-2.7,2.74l-2.35,20.18L534.87,344.95z M592.41,545.82c12.22-16.55,28.66-26.71,47.68-30.65
		c27.17-5.62,54.15,3.23,73.42,24.72c-0.49-54.11-23.75-105.09-63.2-140.64c-66.29-59.76-164.95-62.66-234.62-7.09
		c-44.55,35.53-70.64,89.09-71.38,147.09c6.58-7.02,13.65-12.99,22.49-17.43c34.54-17.38,76.24-6.41,98.4,24.21
		c15.25-21.03,39.26-32.35,64.21-32.2C554.21,513.99,577.6,526.04,592.41,545.82z M525.02,520.99l-0.12,117.99l8.22,0.01
		l0.12-117.99L525.02,520.99z M475.48,671.51c0.13,17.51,12.57,30.18,29.53,30.42c17.24,0.25,31.03-12.52,31.03-29.97l-0.01-24.98
		c-3.98-2.09-9.15-2.21-13.17,0.02l-0.33,25.74c-0.14,10.43-9.36,17.23-18.96,16.14c-9.81-1.12-15.97-9.23-15.08-19.33
		c0.37-4.2-3.7-7.21-6.93-6.87C477.22,663.14,475.44,666.62,475.48,671.51z"/><path fill="#171615" d="M405.3,560.3l0.12-15.24c0.03-3.74,2.95-5.97,6.1-5.83c3.39,0.15,5.46,3,5.5,6.71l0.15,14.25
		c1.88-0.18,6.14,0.13,6.2,2.26l0.55,20.55c0.25,9.29-4.88,17.32-13.8,20.34l-0.13,55.77c-0.03,14.73-12.23,26.7-26.82,26.87
		l-51.36,0.59c-1.26,8.68-7.39,16.51-16.79,16.52l-258.76,0.23c-7.39,0.01-13.32-1.87-17.29-7.16c-3.84-5.13-6.02-13.61-2.16-19.33
		l23.66-35.04l0.26-136.66c0.02-9.63,8.85-18.36,18.65-18.37l204.56-0.33c11.49-0.02,22.17,6.99,22.19,19.36l0.29,136.13l15.81,23.4
		l57.81,0.12c4.62,0.01,9.53-3.54,9.53-8.39l0-53.92c-8.16-2.69-13.77-9.32-13.82-17.37l-0.12-20.52c-0.01-1.66,0.54-3.08,1.22-3.95
		c0.88-1.11,3.82-0.92,5.18-1.48c1.47-9.54-2.24-19.81,5.61-20.42c3.68-0.28,6.36,2.6,6.34,6.6l-0.05,14.19L405.3,560.3z
		 M299.25,642.24l-0.03-135.13c-0.07-7.78-5.35-12.77-12.97-13.61l-204.89-0.03c-7,0.29-13.64,5.11-13.65,12.61l-0.16,136.21
		L299.25,642.24z M389.95,543.45h-3.46v16.81h3.46V543.45z M412.83,543.31h-3.35v17.22h3.35V543.31z M419.17,583.56l0.07-19.16
		l-39.1,0.16l0.44,22.03c1.33,9.42,10.76,13.16,19.35,12.5c5.38-0.41,9.94,0.26,14.03-3.54
		C416.75,592.97,419.15,588.98,419.17,583.56z M331.54,679.83l51.2-0.29c11.76-0.07,20.97-9.82,20.97-21.57l0.02-54.69l-7.79,0.02
		l0.07,52.69c0.01,8.36-6.41,15.38-14.78,15.41l-54.59,0.17L331.54,679.83z M314.22,696.13c5.49,0,8.34-3.93,9.59-6.88
		c1.73-4.08,1.03-8.01-1.46-11.6l-21.96-31.67L66.18,646l-23.45,34.77c-2.38,3.53,0.19,9.25,2.25,11.62
		c2.91,3.34,6.39,3.9,11.25,3.9L314.22,696.13z"/><path fill="#171615" d="M861.02,532.47c0.1-23.12,14.64-19.34,14.6-27.08l-0.09-16.17c-4.76-2.77-5.2-8.1-2.6-11.85
		c2.71-3.92,8.77-4.59,12.24-1.17c3.52,3.47,3.25,8.81-0.55,12.56c-1.03,1.73-0.2,5.04,0.58,7.23c21.8-13.44,58.98-14.29,80.87-0.15
		c1.58-1.98,2.28-5.6,0.75-7.38c-3.43-3.98-3.85-9.1,0.19-12.83c3.13-2.89,8.62-2.57,11.71,1.13c3.21,3.84,2.32,9.72-2.34,12.56
		l-0.64,8.93c-0.22,3.13,0,9.67,3.26,11.49c8.72,4.87,12.16,12.43,12.14,22.32c-0.02,9.9-3.3,19.13-13.28,22.79
		c-2.36,7.49-9.11,11.95-16.85,11.94l-71.01-0.11c-7.33-0.01-13.47-5.03-16-11.78C865.05,550.84,860.98,542.8,861.02,532.47z
		 M883.64,482.2c0-2.26-1.83-4.08-4.08-4.08s-4.08,1.83-4.08,4.08c0,2.26,1.83,4.08,4.08,4.08S883.64,484.46,883.64,482.2z
		 M976.52,482.15c0-2.29-1.86-4.14-4.14-4.14c-2.29,0-4.14,1.86-4.14,4.14s1.86,4.14,4.14,4.14
		C974.66,486.29,976.52,484.43,976.52,482.15z M881,492h-2v9h2V492z M966.14,505.1c-4.95-5.47-10.71-7.36-16.79-9.56
		c-20.86-5.43-46.89-4.63-63.72,9.33L966.14,505.1z M960.53,560.14c7.33,0.01,12.54-5.44,12.57-12.12l0.11-29.17
		c0.01-2.93-1.22-8.7-4.1-9.89l-86.04-0.28c-2.75,2.49-4.09,5.69-4.07,9.31l0.13,29.95c0.03,6.74,4.89,12.14,11.93,12.15
		L960.53,560.14z M875.1,547.47l0.06-30.85C865.2,520.74,865.44,542.64,875.1,547.47z M976.82,516.87l0.19,30.71
		C986.85,542.54,986.9,521.53,976.82,516.87z"/><path fill="#171615" d="M926.61,361.81c10.01,4.03,12.96,13.18,12.77,22.78c-0.2,9.79-4.17,18.37-13.7,22.05
		c-2.46,6.11-8.05,11.74-14.94,11.73l-71.59-0.02c-7.69,0-13.89-4.83-16.66-11.69c-9.56-3.86-13.3-12.82-13.16-22.69
		c0.3-22.36,14.74-19.31,14.56-28.15l-0.29-14.38c-4.35-2.88-5.59-8.26-2.93-12.26c2.61-3.9,8.18-4.73,11.71-2.01
		c4.45,3.44,4.31,8.94,0.6,13.2c-1.5,1.73-0.55,5.53,0.89,7.28c22.15-13.66,59.47-13.52,80.83,0.21c1.16-3.31,1.31-5.18,1.31-7.61
		c-3.78-3.02-4.21-8.17-1.26-11.84c2.66-3.31,8.03-3.92,11.46-1c3.51,3,4.09,8.83,0.38,12.1c-1.64,1.44-2.71,3.02-2.13,5.45
		C922.06,350.47,923.24,356.51,926.61,361.81z M831.64,333.77c0-2.31-1.87-4.19-4.19-4.19c-2.31,0-4.19,1.87-4.19,4.19
		c0,2.31,1.87,4.19,4.19,4.19C829.77,337.96,831.64,336.08,831.64,333.77z M924.95,333.75c0-2.23-1.8-4.03-4.03-4.03
		c-2.23,0-4.03,1.8-4.03,4.03s1.8,4.03,4.03,4.03C923.15,337.78,924.95,335.97,924.95,333.75z M914.23,356.87
		c-15.83-14.85-45.24-14.55-65.08-8.87c-5.21,2.27-10.25,3.59-14.64,8.82L914.23,356.87z M907.5,411.95
		c8.51,0.04,13.71-6.15,13.71-13.92l0.01-27.16c0-3.11-1.03-8.71-4.12-10.09l-87.17-0.1c-1.42,2.74-2.54,5.52-2.55,8.51l-0.03,29.66
		c-0.01,6.1,4.21,12.73,10.82,12.76L907.5,411.95z M823.53,399.3l-0.05-30.62c-6.65,2.79-7.21,9.22-7.22,15.31
		C816.24,390.07,817,396.4,823.53,399.3z M924.97,368.94l0.05,30.21C935.09,394.19,935.17,372.71,924.97,368.94z"/><path fill="#171615" d="M901.07,672.44c0.24,10.69-4.12,19.16-13.59,22.93c-2.9,8.08-10.13,12.15-18.5,12.1l-68.96-0.39
		c-7.59-0.04-13.73-4.95-16.18-11.82c-9.02-3.39-12.92-11.52-13.19-20.78c-0.24-8.35,1.29-17.25,8.92-21.9
		c3.22-1.96,6.36-4.15,6.23-8.72l-0.39-13.76c-4.44-2.96-5.77-8.33-2.48-12.46c2.63-3.3,8.07-4.32,11.65-0.89
		c3.64,3.49,3.81,8.71-0.44,12.61c-0.46,1.69,0.13,4.63,1.12,6.94c22.22-13.24,58.26-13.78,80.88,0.24
		c2.65-3.86,1.2-7.15-1.02-10.49c-2.48-3.73-0.14-8.89,3.49-10.72c3.78-1.91,8.62-0.44,10.85,3.66c2.03,3.75,0.98,8.72-3.54,11.23
		l-0.1,13.64c-0.04,4.75,2.94,6.96,6.36,8.95C899.03,656.78,900.89,664.45,901.07,672.44z M793.32,622.82c0-2.22-1.8-4.02-4.02-4.02
		s-4.02,1.8-4.02,4.02s1.8,4.02,4.02,4.02S793.32,625.04,793.32,622.82z M886.28,622.84c0-2.25-1.82-4.07-4.07-4.07
		s-4.07,1.82-4.07,4.07s1.82,4.07,4.07,4.07S886.28,625.09,886.28,622.84z M875.96,645.59c-6.15-6.38-13.16-8.08-20.38-10.36
		c-19.32-4.02-46.02-3-59.98,10.42L875.96,645.59z M871.19,700.49c7.04,0.01,11.7-6.27,11.69-12.41l-0.09-29.19
		c-0.01-2.64-1.04-7.98-3.76-9.2l-86.75-0.33c-2.31,2.67-3.57,5.93-3.57,9.6l-0.05,29.14c-0.01,6.19,4.69,12.28,11.38,12.29
		L871.19,700.49z M784.84,687.9l-0.1-30.41C774.67,661.97,775.5,684.13,784.84,687.9z M886.59,657.51l0.64,30.25
		C897.09,682.16,896.57,661.08,886.59,657.51z"/><path fill="#171615" d="M766.41,630.84l-37.36,2.23c-2.03,0.12-3.3-1.86-3.55-2.98c-0.35-1.53-0.29-3.37,0.84-4.78
		l7.71-9.69l-37.8-31.84c-2.93-2.47-3.85-6.74-1.22-9.82l9.6-11.26c2.5-2.94,7.23-1.42,9.88,0.8L752,594.81l7.44-8.35
		c1.36-1.53,3.08-2.13,4.75-1.85c1.75,0.29,3.76,1.74,3.97,4.06l3.32,36.21C771.75,627.81,770,630.62,766.41,630.84z M767.71,626.51
		l-3.86-37.89l-11.27,11.81l-43.53-35.77l-11.02,12.53c-0.93,1.06,0.32,2.89,1.2,3.64l40.36,34.15l-10.3,14.28L767.71,626.51z"/><path fill="#171615" d="M728.55,449.95c-3.69,2.21-8.05,2.28-10.17-1.34l-6.63-11.31c-2.38-4.06-1.04-8.34,2.89-10.69
		l42.21-25.2c-1.11-6.37-7.1-10.52-5.22-15.09c0.52-1.28,2.32-3.32,4.41-2.79l35.54,8.92c3.42,0.86,5.01,3.87,4.01,7.33l-9.79,33.99
		c-0.57,1.98-2.18,3.28-3.67,3.61c-2.04,0.45-3.95-0.27-5.16-2.32l-6.16-10.48L728.55,449.95z M770.61,420.09
		c1.39-0.82,2.83,0.42,3.1,1.13l7.7,12.56l10.8-36.8l-36.85-9.45l7.2,15.38l-48.25,28.94l6.57,13.22c0.66,1.32,1.63,2.13,2.65,2.19
		c0.97,0.06,1.76-0.34,2.81-0.96L770.61,420.09z"/><path fill="#171615" d="M803.5,524.42l-49.52-0.61c-3.71-0.05-7.2-2.3-7.17-6.28l0.11-13.65c0.03-4.06,3.11-6.73,7.06-6.71
		l50,0.24l0.17-11.44c0.04-2.52,1.04-4.15,3.17-5.06c1.61-0.68,3.62-0.23,5.3,1.47l25.3,25.63c2.26,2.29,2.04,5.47-0.3,7.66
		l-26.26,24.6c-1.11,1.04-3.38,0.89-4.63,0.63c-1.17-0.24-3.02-1.33-3.05-3.32L803.5,524.42z M807.54,520.36l0.62,17.1l27.47-25.44
		l-26.74-27.62l-1.29,17.05l-55.84,0c-1.31,6.03-0.99,11.49-0.51,18L807.54,520.36z"/><path fill="#EF7660" d="M592.41,545.82c-14.82-19.77-38.2-31.82-62.99-31.98c-24.95-0.16-48.97,11.17-64.21,32.2
		c-22.16-30.62-63.86-41.59-98.4-24.21c-8.83,4.45-15.9,10.41-22.49,17.43c0.74-58.01,26.83-111.56,71.38-147.09
		c69.67-55.58,168.33-52.67,234.62,7.09c39.44,35.56,62.71,86.54,63.2,140.64c-19.27-21.49-46.26-30.34-73.42-24.72
		C621.07,519.11,604.64,529.26,592.41,545.82z M478.76,463.81l20.92,0.2l0.19-57.47l-20.57-0.11l-0.56,18.69l-11.32,0.2l-0.53-18.42
		l-16.92-0.74c-1.47-0.06-2.8,0.22-3.39,0.95c-0.51,0.62-0.87,1.7-0.86,2.9l0.33,53.69l17.98,0.54c1.96,0.06,3.07-1.37,3.09-3.19
		l0.23-16.63l11.12,0.06L478.76,463.81z M539.53,406.82l-0.09,33.23c-0.01,3.56-2.76,5.9-5.82,5.67c-2.6-0.19-5-2.5-5.01-5.7
		l-0.05-30.85c0-1.48-1.17-2.88-2.71-2.86l-18.68,0.19l0.04,36.44c0.01,10.97,7.54,19.37,18.11,21.54
		c8.99,1.84,18.49,1.17,26.2-4.04c5.95-4.02,9.06-11.22,9.05-18.42l-0.05-35.43L539.53,406.82z M611.71,433.06
		c4.97-5.57,5.9-11.88,3.3-17.61c-2.07-4.57-7.6-8.87-13.49-8.89l-33.15-0.11l0.17,57.66l33.32-0.14
		c7.67-0.03,14.13-5.35,15.99-11.64C620.08,444.78,618.52,437.64,611.71,433.06z M528.54,490.35c-6.42-0.27-12.73-4.38-14.72-11.17
		c-0.72-2.43-2.73-3.38-4.74-2.53c-5.23,2.2,3.04,20.11,20.43,20.15c9.76,0.02,18.61-5.46,21.95-15.24c0.79-2.3,0.05-4.56-2.24-5.04
		C544.04,475.44,544.97,491.04,528.54,490.35z"/><path fill="#EF7660" d="M475.48,671.51c-0.04-4.89,1.73-8.37,6.07-8.82c3.23-0.33,7.3,2.68,6.93,6.87
		c-0.9,10.1,5.26,18.21,15.08,19.33c9.6,1.09,18.83-5.71,18.96-16.14l0.33-25.74c4.02-2.23,9.2-2.11,13.17-0.02l0.01,24.98
		c0.01,17.44-13.78,30.22-31.03,29.97C488.05,701.69,475.61,689.02,475.48,671.51z"/><path fill="#FAF4DA" d="M534.87,344.95l-11.28,0.27l2.35-20.18c0.17-1.45,1.65-2.59,2.7-2.74c1.44-0.21,2.86,0.92,3.53,2.6
		L534.87,344.95z"/><path fill="#FAF4DA" d="M314.22,696.13l-258,0.16c-4.86,0-8.34-0.56-11.25-3.9c-2.06-2.37-4.64-8.09-2.25-11.62L66.18,646
		l234.21-0.02l21.96,31.67c2.49,3.6,3.2,7.52,1.46,11.6C322.56,692.2,319.71,696.13,314.22,696.13z M218.76,688.46
		c1.86,0,3.35-1.45,2.67-3.29l-4.25-11.39c-1.17-3.13-4.09-4.96-7.43-5.26l-50.71-0.12c-4.7-0.01-8.09,2.52-9.75,6.84l-3.6,9.38
		c-0.45,1.16-0.27,2.27,0.27,2.91c0.47,0.55,1.19,0.86,2.29,0.87L218.76,688.46z"/><path fill="#FAF4DA" d="M299.25,642.24l-231.7,0.06l0.16-136.21c0.01-7.5,6.65-12.32,13.65-12.61l204.89,0.03
		c7.63,0.84,12.9,5.83,12.97,13.61L299.25,642.24z M280.3,634.33c6.64-1.14,9.72-5.46,9.71-11.42l-0.27-110.87
		c-0.01-5.19-4.83-8.8-9.94-8.8l-193.58,0.03c-4.38,0-9.11,3.36-9.12,7.82l-0.25,112.86c-0.01,5.77,4.31,10.31,10.3,10.31
		L280.3,634.33z"/><path fill="#EF7660" d="M419.17,583.56c-0.02,5.42-2.43,9.41-5.21,11.99c-4.1,3.8-8.65,3.12-14.03,3.54
		c-8.59,0.66-18.02-3.08-19.35-12.5l-0.44-22.03l39.1-0.16L419.17,583.56z"/><path fill="#EF7660" d="M331.54,679.83l-4.9-8.26l54.59-0.17c8.37-0.03,14.8-7.04,14.78-15.41l-0.07-52.69l7.79-0.02
		l-0.02,54.69c0,11.74-9.22,21.5-20.97,21.57L331.54,679.83z"/><path fill="#FAF4DA" d="M960.53,560.14l-69.48-0.05c-7.04-0.01-11.9-5.4-11.93-12.15l-0.13-29.95
		c-0.02-3.61,1.32-6.82,4.07-9.31l86.04,0.28c2.88,1.19,4.11,6.96,4.1,9.89l-0.11,29.17C973.08,554.7,967.86,560.15,960.53,560.14z
		 M899.71,539.55c5.69,0.62,8.88-4.58,8.94-9.03c0.06-4.71-3.18-9.28-8.52-8.98c-4.88,0.28-7.55,4.68-7.58,8.98
		C892.52,534.31,894.71,539,899.71,539.55z M952.49,539.67c5.5-0.27,8.11-5.7,7.65-10.1c-0.4-3.86-3.39-8.25-8.14-8.19
		c-5.19,0.07-8,4.72-7.98,9.14C944.06,534.77,946.85,539.96,952.49,539.67z M925.51,544.53c-5.79-0.39-5.56-8.39-8.78-6.14
		c-1.94,1.36,1.29,10.11,9.76,10.03c4.35-0.04,8.25-2.8,9.6-7.41c0.48-1.66-0.25-2.74-1.54-2.9
		C931.99,537.78,932.65,545.01,925.51,544.53z"/><path fill="#9AC29A" d="M966.14,505.1l-80.51-0.22c16.83-13.96,42.86-14.76,63.72-9.33
		C955.43,497.74,961.19,499.64,966.14,505.1z"/><path fill="#9AC29A" d="M875.1,547.47c-9.66-4.83-9.9-26.73,0.06-30.85L875.1,547.47z"/><path fill="#9AC29A" d="M976.82,516.87c10.08,4.65,10.03,25.67,0.19,30.71L976.82,516.87z"/><path fill="#F2D887" d="M907.5,411.95l-69.33-0.34c-6.61-0.03-10.82-6.66-10.82-12.76l0.03-29.66
		c0-2.99,1.12-5.77,2.55-8.51l87.17,0.1c3.09,1.38,4.12,6.98,4.12,10.09l-0.01,27.16C921.22,405.8,916.02,411.99,907.5,411.95z
		 M849.23,391.46c5.5-0.36,7.81-5.31,7.43-9.78c-0.35-4.1-3.52-8.65-8.41-8.27c-5.41,0.43-7.91,5.08-7.47,10.06
		C841.1,387.1,844.1,391.8,849.23,391.46z M900.52,391.44c5.44-0.28,8.27-5.39,7.7-9.91c-0.49-3.89-3.27-8.42-8.12-8.27
		c-5.18,0.16-8.13,4.78-8.06,9.23C892.11,386.79,894.94,391.73,900.52,391.44z M873.53,396.34c-5.27-0.41-4.93-7.13-7.95-6.3
		c-0.91,0.25-1.39,1.24-0.99,2.62c1.36,4.76,5.44,7.35,9.92,7.31c4.32-0.04,8.15-2.37,9.6-6.97c0.52-1.66-0.1-2.88-1.55-2.94
		C880.26,389.96,880.47,396.88,873.53,396.34z"/><path fill="#F2D887" d="M914.23,356.87l-79.72-0.04c4.39-5.23,9.44-6.56,14.64-8.82
		C868.98,342.32,898.39,342.02,914.23,356.87z"/><path fill="#F2D887" d="M823.53,399.3c-6.53-2.9-7.28-9.23-7.27-15.31c0.01-6.09,0.57-12.52,7.22-15.31L823.53,399.3z"/><path fill="#F2D887" d="M924.97,368.94c10.2,3.77,10.12,25.25,0.05,30.21L924.97,368.94z"/><path fill="#F2D887" d="M871.19,700.49l-71.15-0.09c-6.69-0.01-11.39-6.1-11.38-12.29l0.05-29.14
		c0.01-3.67,1.26-6.93,3.57-9.6l86.75,0.33c2.73,1.22,3.76,6.56,3.76,9.2l0.09,29.19C882.9,694.22,878.23,700.5,871.19,700.49z
		 M809.54,680.19c5.89,0.31,9.01-4.88,8.65-9.6c-0.34-4.38-3.81-8.97-9.15-8.38c-4.83,0.54-7.12,5.25-7.08,9.32
		C802.01,675.44,804.29,679.91,809.54,680.19z M869.43,669.08c-1.28-4.68-4.7-7.27-8.78-6.81c-3.68,0.41-6.7,3.79-7.19,7.94
		c-0.45,3.81,1.35,7.45,3.97,8.96c3.24,1.88,6.83,1.51,9.42-0.79C869.09,676.4,870.45,672.81,869.43,669.08z M835.53,685.41
		c-5.61-0.23-5.32-6.33-8.04-6.77c-0.56-0.09-1.61,0.42-1.53,1.32c0.5,5.53,4.73,8.74,9.56,8.93c4.47,0.18,8.82-2.2,10.18-7.05
		c0.31-1.09,0.12-2.26-0.32-2.7C842.23,675.97,842.5,685.7,835.53,685.41z"/><path fill="#9AC29A" d="M875.96,645.59l-80.36,0.06c13.96-13.42,40.66-14.44,59.98-10.42
		C862.8,637.51,869.81,639.21,875.96,645.59z"/><path fill="#F2D887" d="M784.84,687.9c-9.33-3.77-10.17-25.93-0.1-30.41L784.84,687.9z"/><path fill="#F2D887" d="M886.59,657.51c9.98,3.57,10.5,24.65,0.64,30.25L886.59,657.51z"/><path fill="#9AC29A" d="M767.71,626.51l-38.43,2.76l10.3-14.28l-40.36-34.15c-0.88-0.75-2.13-2.58-1.2-3.64l11.02-12.53
		l43.53,35.77l11.27-11.81L767.71,626.51z"/><path fill="#9AC29A" d="M770.61,420.09l-44.27,26.2c-1.05,0.62-1.84,1.02-2.81,0.96c-1.02-0.06-1.99-0.86-2.65-2.19
		l-6.57-13.22l48.25-28.94l-7.2-15.38l36.85,9.45l-10.8,36.8l-7.7-12.56C773.44,420.51,772,419.27,770.61,420.09z"/><path fill="#9AC29A" d="M807.54,520.36l-56.29-0.9c-0.48-6.52-0.8-11.97,0.51-18l55.84,0l1.29-17.05l26.74,27.62
		l-27.47,25.44L807.54,520.36z"/><path fill="#171615" d="M539.53,406.82l20.99-0.23l0.05,35.43c0.01,7.2-3.1,14.41-9.05,18.42
		c-7.71,5.21-17.21,5.88-26.2,4.04c-10.57-2.17-18.09-10.57-18.11-21.54l-0.04-36.44l18.68-0.19c1.54-0.02,2.71,1.38,2.71,2.86
		l0.05,30.85c0.01,3.2,2.41,5.51,5.01,5.7c3.06,0.23,5.81-2.11,5.82-5.67L539.53,406.82z M557.39,409.73l-14.48,0.18l-0.42,32.74
		c-0.07,5.4-6.25,7.24-10.75,6.23c-4.35-0.98-6.6-4.82-6.59-9.86l0.07-29.24l-14.83-0.13l0.33,33.34
		c0.08,8.49,5.89,15.25,13.81,17.61c6.3,1.88,12.64,1.83,18.93-0.05c7.89-2.36,13.67-9.06,13.72-17.58L557.39,409.73z"/><path fill="#171615" d="M478.76,463.81l-0.28-19.34l-11.12-0.06l-0.23,16.63c-0.02,1.82-1.14,3.24-3.09,3.19l-17.98-0.54
		L445.72,410c-0.01-1.2,0.36-2.28,0.86-2.9c0.59-0.72,1.92-1.01,3.39-0.95l16.92,0.74l0.53,18.42l11.32-0.2l0.56-18.69l20.57,0.11
		l-0.19,57.47L478.76,463.81z M496.69,460.52l-0.04-50.81l-14.61,0.09l-0.16,18.87l-17.86-0.01l-0.23-18.86l-14.52,0l-0.02,50.91
		l14.55,0.06l0.15-19.68l17.81-0.05l0.13,19.74L496.69,460.52z"/><path fill="#171615" d="M611.71,433.06c6.82,4.58,8.37,11.72,6.14,19.27c-1.86,6.29-8.31,11.6-15.99,11.64l-33.32,0.14
		l-0.17-57.66l33.15,0.11c5.89,0.02,11.41,4.31,13.49,8.89C617.61,421.18,616.68,427.48,611.71,433.06z M614.33,452
		c1.72-4.49,1.38-8.6-0.99-12.5c-1.49-2.45-4.53-3.6-9.15-5.57c6.63-3.27,9.4-8.3,8.44-14.09c-0.97-5.82-6.4-10.01-12.72-10.03
		l-28.25-0.08l-0.01,50.97l27.24,0.11C605.18,460.84,611.94,458.24,614.33,452z"/><path fill="#171615" d="M528.54,490.35c16.43,0.7,15.5-14.91,20.68-13.82c2.28,0.48,3.02,2.74,2.24,5.04
		c-3.34,9.78-12.19,15.26-21.95,15.24c-17.39-0.04-25.66-17.94-20.43-20.15c2.01-0.85,4.03,0.09,4.74,2.53
		C515.81,485.96,522.11,490.07,528.54,490.35z"/><path fill="#171615" d="M218.76,688.46l-70.5-0.06c-1.1,0-1.82-0.31-2.29-0.87c-0.54-0.64-0.72-1.74-0.27-2.91l3.6-9.38
		c1.65-4.32,5.05-6.85,9.75-6.84l50.71,0.12c3.34,0.3,6.26,2.14,7.43,5.26l4.25,11.39C222.11,687.01,220.62,688.46,218.76,688.46z
		 M216.91,684.52c-1.51-4.68-2.52-8.72-5.7-12l-52-0.16c-1.72-0.01-4.07,0.52-4.72,2.09l-4.17,10.02L216.91,684.52z"/><path fill="#171615" d="M280.3,634.33l-193.16-0.08c-5.99,0-10.32-4.54-10.3-10.31l0.25-112.86
		c0.01-4.45,4.75-7.82,9.12-7.82l193.58-0.03c5.11,0,9.93,3.61,9.94,8.8l0.27,110.87C290.03,628.88,286.94,633.19,280.3,634.33z
		 M286.06,506.87H80.62v123.69h205.43V506.87z"/><path fill="#171615" d="M899.71,539.55c-5-0.55-7.19-5.24-7.17-9.03c0.03-4.29,2.7-8.7,7.58-8.98
		c5.34-0.3,8.58,4.27,8.52,8.98C908.59,534.97,905.4,540.17,899.71,539.55z M902.38,527.43c-0.9-1.83-1.78-2-2.87-1.82
		c-0.84,0.14-1.33,0.72-2.01,2.12c-1.02,2.11-0.69,7.27,2.52,7.29C903.12,535.03,903.53,529.77,902.38,527.43z"/><path fill="#171615" d="M952.49,539.67c-5.64,0.28-8.44-4.9-8.46-9.15c-0.03-4.42,2.79-9.07,7.98-9.14
		c4.75-0.06,7.74,4.33,8.14,8.19C960.61,533.97,957.99,539.4,952.49,539.67z M955.19,529.66c-0.25-3.01-1.71-4.32-3.68-3.95
		c-1.36,0.25-2.05,1.55-2.29,3.56c-0.24,2.05,0.15,5.54,2.82,5.87C954.58,535.45,955.39,532.11,955.19,529.66z"/><path fill="#171615" d="M925.51,544.53c7.14,0.48,6.47-6.75,9.04-6.42c1.29,0.16,2.02,1.24,1.54,2.9
		c-1.35,4.61-5.25,7.37-9.6,7.41c-8.47,0.08-11.71-8.68-9.76-10.03C919.95,536.14,919.72,544.15,925.51,544.53z"/><path fill="#171615" d="M900.52,391.44c-5.58,0.29-8.41-4.66-8.48-8.95c-0.07-4.45,2.88-9.07,8.06-9.23
		c4.84-0.15,7.63,4.38,8.12,8.27C908.79,386.05,905.95,391.16,900.52,391.44z M900.48,386.46c3.53-0.53,3.98-7.56,0.5-8.57
		c-2.54-0.74-3.71,2.79-3.67,4.51C897.34,383.72,897.85,386.85,900.48,386.46z"/><path fill="#171615" d="M849.23,391.46c-5.14,0.34-8.13-4.37-8.45-7.99c-0.44-4.98,2.06-9.63,7.47-10.06
		c4.89-0.39,8.06,4.17,8.41,8.27C857.05,386.15,854.73,391.1,849.23,391.46z M850.93,380.74c-0.36-2.55-2.02-3.95-3.9-2.75
		c-2.77,1.77-2.38,7.99,0.89,8.55C850.69,387.02,851.27,383.14,850.93,380.74z"/><path fill="#171615" d="M873.53,396.34c6.94,0.54,6.73-6.38,9.03-6.28c1.45,0.06,2.07,1.28,1.55,2.94
		c-1.45,4.6-5.28,6.93-9.6,6.97c-4.48,0.04-8.56-2.56-9.92-7.31c-0.39-1.38,0.08-2.37,0.99-2.62
		C868.59,389.21,868.26,395.93,873.53,396.34z"/><path fill="#171615" d="M869.43,669.08c1.02,3.73-0.34,7.33-2.58,9.31c-2.59,2.3-6.18,2.66-9.42,0.79
		c-2.62-1.52-4.42-5.16-3.97-8.96c0.49-4.16,3.5-7.53,7.19-7.94C864.73,661.81,868.15,664.4,869.43,669.08z M862.38,675.07
		c3.21-1.37,2.72-7.84-0.27-8.37c-3.03-0.54-3.74,2.86-3.55,4.81C858.7,672.93,859.57,676.26,862.38,675.07z"/><path fill="#171615" d="M809.54,680.19c-5.26-0.28-7.53-4.75-7.58-8.66c-0.05-4.07,2.25-8.78,7.08-9.32
		c5.34-0.59,8.81,3.99,9.15,8.38C818.56,675.31,815.43,680.5,809.54,680.19z M809.83,675.21c3.69-0.5,3.55-8.25,0.27-8.86
		c-2.93-0.54-3.72,2.65-3.73,4.29C806.35,672.13,806.44,675.68,809.83,675.21z"/><path fill="#171615" d="M835.53,685.41c6.97,0.28,6.69-9.44,9.85-6.27c0.44,0.44,0.63,1.61,0.32,2.7
		c-1.36,4.85-5.71,7.23-10.18,7.05c-4.83-0.19-9.07-3.4-9.56-8.93c-0.08-0.9,0.98-1.41,1.53-1.32
		C830.21,679.09,829.92,685.18,835.53,685.41z"/><path fill="#FAF4DA" d="M557.39,409.73l-0.21,33.23c-0.05,8.52-5.83,15.21-13.72,17.58c-6.29,1.88-12.62,1.93-18.93,0.05
		c-7.92-2.36-13.73-9.11-13.81-17.61l-0.33-33.34l14.83,0.13l-0.07,29.24c-0.01,5.05,2.24,8.89,6.59,9.86
		c4.49,1.01,10.68-0.83,10.75-6.23l0.42-32.74L557.39,409.73z"/><path fill="#FAF4DA" d="M614.33,452c-2.39,6.23-9.15,8.84-15.43,8.81l-27.24-0.11l0.01-50.97l28.25,0.08
		c6.32,0.02,11.75,4.21,12.72,10.03c0.96,5.78-1.81,10.82-8.44,14.09c4.61,1.97,7.66,3.12,9.15,5.57
		C615.71,443.4,616.05,447.52,614.33,452z M595.86,429.2c3.52-2.07,2.88-7.91-0.5-9.39c-2.96-1.29-6.07-0.93-9.11-0.63l0.05,10.79
		C589.16,430.51,592.75,431.03,595.86,429.2z M597,450.51c2.95-1.02,3.8-3.72,3.63-5.9c-0.42-5.34-6.86-5.68-14.28-4.67l-0.02,11.04
		C589.64,451.54,593.31,451.78,597,450.51z"/><path fill="#FAF4DA" d="M216.91,684.52l-66.59-0.05l4.17-10.02c0.65-1.57,3-2.1,4.72-2.09l52,0.16
		C214.38,675.81,215.4,679.84,216.91,684.52z"/><path fill="#9AC29A" d="M902.38,527.43c1.15,2.35,0.73,7.6-2.35,7.58c-3.21-0.02-3.54-5.18-2.52-7.29
		c0.67-1.4,1.17-1.98,2.01-2.12C900.6,525.43,901.48,525.59,902.38,527.43z"/><path fill="#9AC29A" d="M955.19,529.66c0.2,2.45-0.61,5.79-3.15,5.48c-2.67-0.32-3.06-3.82-2.82-5.87
		c0.24-2.01,0.92-3.31,2.29-3.56C953.48,525.34,954.94,526.65,955.19,529.66z"/><path fill="#9AC29A" d="M900.48,386.46c-2.63,0.4-3.14-2.74-3.17-4.06c-0.04-1.72,1.13-5.25,3.67-4.51
		C904.46,378.9,904.02,385.92,900.48,386.46z"/><path fill="#9AC29A" d="M850.93,380.74c0.34,2.4-0.23,6.28-3.01,5.8c-3.28-0.56-3.66-6.79-0.89-8.55
		C848.91,376.79,850.57,378.19,850.93,380.74z"/><path fill="#F2D887" d="M862.38,675.07c-2.81,1.19-3.68-2.14-3.82-3.56c-0.19-1.95,0.52-5.35,3.55-4.81
		C865.09,667.23,865.58,673.7,862.38,675.07z"/><path fill="#9AC29A" d="M809.83,675.21c-3.39,0.46-3.48-3.08-3.46-4.57c0.01-1.63,0.81-4.83,3.73-4.29
		C813.38,666.96,813.52,674.71,809.83,675.21z"/><path fill="#171615" d="M597,450.51c-3.68,1.28-7.35,1.03-10.67,0.46l0.02-11.04c7.42-1,13.86-0.66,14.28,4.67
		C600.8,446.78,599.95,449.49,597,450.51z M589.71,443.52c-0.5,0.82-0.42,3.1,0.04,3.94c0.67,1.22,7.2,1.09,7.36-1.97
		C597.27,442.55,590.58,442.09,589.71,443.52z"/><path fill="#171615" d="M595.86,429.2c-3.12,1.83-6.7,1.31-9.56,0.77l-0.05-10.79c3.04-0.29,6.15-0.65,9.11,0.63
		C598.75,421.28,599.39,427.13,595.86,429.2z M594.77,422.22l-5.44,0.05l0.04,4.64l5.44-0.05L594.77,422.22z"/><path fill="#EF7660" d="M589.71,443.52c0.87-1.42,7.56-0.97,7.4,1.97c-0.16,3.06-6.69,3.19-7.36,1.97
		C589.28,446.62,589.2,444.34,589.71,443.52z"/></svg>