<svg xmlns="http://www.w3.org/2000/svg" viewBox="0 0 1024 1024"><path fill="#1E1D1A" d="M845.56,745.73c4.16,1.39,5.96,4.75,9.07,6.62l19.78-12.72c0.71-0.46,2.03-0.23,2.46,0.09
		c0.59,0.44,1.1,2.08,0.84,3.23c-3.14,13.77-8.99,26.13-17.15,37.6c-14.27,20.05-34.35,33.79-58.47,39.28l-79.72,14.32
		c-17.79,3.2-35.04,5.36-53.09,4.03c-33-2.43-70.33-26.57-86.83-55.57c-5.72-10.05-9.57-20.43-13.71-31.18l-10.04-26.08
		c-5,17.83-15.12,33.4-33.44,37.89c-29.27,7.18-58.33,12.83-88.14,17.67c-18.24,2.96-34.25-0.07-49.09-11.2
		c-17.81-13.35-29.71-32.3-35.59-54.14l-12.63,0.05c-4.33,11.81-11.17,22.81-22.75,28.19c-8.35,3.88-17.03,6.17-26.22,7.83
		l-76.91,13.89c-9.86,1.78-19.14,0.62-28.75-1.95c-30.3-8.11-63.16-25.18-83.97-48.69c-0.96-1.09-1.22-2.91-0.73-3.98
		c0.47-1.02,2.06-1.47,3.62-1.38l15.95,0.85l5.36-7.93c5-0.47,9.65,1.11,14.89,2.17l7.34-7.78c2.99-3.16,13.21,6.14,17.3-1.98
		c1.23-2.44,2.98-4.33,6.06-3.81l11.75,1.99c2.23-3.11,3.69-6.31,7.69-8.08c16.7,18.4,38.28,30.67,62.52,37.01
		c1.12,0.29,2.51-3.46,1.07-3.88c-8.81-2.64-19.58-5.32-25.09-12.84l-0.33-39.04c-0.09-11.31,33.85-17.49,49.47-17.12l-0.69-16
		c-1.51-6.63-0.98-12.41-1.21-19.17l-0.71-20.92c-0.48-14.1,13.23-17.31,28.19-21.2c-13.55-17.27-21.58-36.89-24.63-58.71
		c-8.46-60.71,13.26-130.27,47.4-180.6c36.15-53.29,95.79-80.28,159.48-69.22c36.45,6.33,67.79,27.08,88.09,57.54
		c11.27,16.91,19.7,34.43,23.72,54.27l6.88,33.98c1.33,6.57,4.37,10.86,9.62,14.75c11.35,8.42,20.11,19.69,23.04,33.52
		c2.9,13.69-0.7,27.7-11.38,36.46c-2.33,1.91-3.66,4.07-4.02,7.25l-2.81,24.57c22.31,5.07,29.14,26.1,24.26,47.1l-4.48,19.28
		c8.36,0,16.81,2.85,18.38,9.19c0.9,3.64-0.02,6.92-2.16,9.98c-4.73,5.46-10.78,8.85-18.54,11.37
		c18.86,11.18,38.16,20.51,58.99,29.97c7.52-17.9,22.1-30.62,40.99-35.93l84.24-23.67c30.78-4.06,60.08,9.08,79.29,33.08
		c14.63,18.27,25.7,38.34,30.13,61.39c0.2,1.06,0.25,1.75-0.08,2.34c-0.52,0.92-1.66,1.43-3.02,1.09l-11.9-2.97l-6.56,9.02
		c-4.25-0.16-7.67-2.9-11.79-4.1l-7.84,10.3c-1.86,2.45-12.33-5.65-14.71-3.03l-9.62,10.58l-12.93-4.75l-9.63,10.27
		c-1.4,1.49-3.52-0.36-4.01-2.2c-7.87-29.7-25.09-63.27-50.77-80.75c-4.89,6.46-6.87,13.04-9.53,19.68
		c-6.04,15.08-17.57,25.77-33.37,29.49l-53.39,12.55l-35.67,6.32l12.45,29.85c6.62,15.89,18.17,27.17,33.55,34.79
		c16.21,8.03,32.72,14.35,50.93,18.58c6.53-9.45,7.6-26.01,12.59-23.33l12.05,6.47L792,756.6c4.03,1.35,6.58,4.51,9.94,6.99
		l19.2-12.55c3.43-0.41,6.85,4.06,9.9,5.91L845.56,745.73z M594.37,392.71c-7.18-39.46-23.66-75.45-56.46-99.61
		c-32.4-23.32-72.52-31.27-111.36-21.64c-57.01,11.81-93.59,53.83-116.74,105.21c32.92,25.72,70,40.99,109.96,47.82
		C481.2,435,542.89,430.85,594.37,392.71z M301.4,397.84c-4.29,10.38-7.43,21.2-10.12,32.08c-2.35,9.51-4.13,19.2-5.43,28.97
		c-1.47,11.03-1.62,22.13-1.54,33.17c0.1,13.2,2.54,26.11,6.02,38.73c8.67,31.4,33.12,57.03,63.92,67.78
		c5.79,2.02,11.42,4.79,17.64,6.15c7.02,1.53,14.06,3.58,21.34,4.33l14.46,1.48l10.33,0.51l2.65,0.06c4.26,0.1,8.9,2.7,11.12,6.61
		l2.79,10.54c12.09-6.71,24.25-10.65,37.38-11.96l2.1-11.19c1.25-6.66,1.61-13.46,1.05-20.17c-0.42-5.01-1.75-9.57-3.74-13.96
		c-2.85-6.29-7.36-11.3-13.13-15.15c-6.66-4.45-14.13-6.93-22.1-7.98c-13.22-1.74-26.81-0.34-39.81,4.37
		c-1.26,0.46-2.47,0.18-3.15,0.05c-0.81-2.9-0.07-4.51,2.7-5.36c17.93-5.54,37.3-6.7,54.49-0.68l0.97-0.93l-2.04-14.34
		c-0.38-2.64,0.57-5.71-1.06-8.6c-43.11,5.53-88.96-1.28-116.38-36.1c-1.83-2.32-3.23-4.39-2.43-7.16c1.73,0.63,3.74-0.5,5.36,2.24
		c3.33,5.67,8.27,10.01,12.94,14.02c6.85,5.88,14.71,10.42,23.01,13.95c6.3,2.68,12.8,4.78,19.47,6.22
		c7.5,1.62,15.05,3.12,22.72,3.03l21.4-0.27c-6.06-14.64-5.05-30.4,1.64-44.17l-13.88-4.32l-16.05-6.75l-11.8-7.37
		c-5.57-3.48-9.79-8.88-13.89-13.91c-0.27-1.26,0-2.67,0.65-3.31c1.11-1.1,2.79-0.42,3.7-0.54c14.95,22.07,42.79,29.55,69.09,34.39
		c2.78-8.66,8.62-16.72,17.85-17.52l90.23-7.79c6.48-0.56,12.68,0.05,18.05,2.24l7.44,5.45c5.71-3.95,11.12-9.08,12.58-15.74
		l0.43-5.6c0.1-1.31,2.03-1.45,2.97-1.1c1.04,0.38,1.71,1.8,1.55,3.14c-0.06,1.43,0.37,3.49-0.23,4.92l-3.1,7.39l-5.28,6.36
		c14.9,6.75,22.88,20.99,21.39,37.13c4.89-3,7.69-6.48,10.1-10.83c5.09-9.19,5.18-23.42-1.86-31.65c-1.37-6.33-5.96-11-10.44-14.91
		l-8.14-7.08c-4.54-3.95-8.05-8.23-9.23-13.74l-3.17-14.77c-55.67,41.15-130.6,42.31-195.97,26.75
		c-33.25-7.91-63.82-22.57-90.96-43.67C304.9,386.97,303.53,392.69,301.4,397.84z M652,668.56l-15.31,6.91
		c6.57,5.58,11.53,12.5,15.97,20.59c20.17-4.44,32.48-20.85,40.48-39.17c-23.98-11.39-60.59-27.46-78.9-44.08
		c-22.64-20.55-23.65-48.44-19.26-77.85c1.79-12.02,3.21-23.64,2.21-35.66c-5.02-0.75-8.62-2.3-12.51-5.75
		c-0.75,3.42-3.17,3.88-6.8,3.88l-2.69,0.01c-0.49,0-0.97-0.87-0.63-2.34l10.16-1.32c-10.12-9.54-9.52-23.88,0.02-34.08
		c-4.35-6.33-12.09-8.52-19.83-7.9l-79.32,6.39c26.72,18.67,22.74,63.83,19.94,95.56c-2.99,33.78-3.24,61.74,26.53,83.32
		c13.67,9.91,28.28,17.53,43.03,25.82c3.21,1.8,5.24,2.85,9.25,1.53c10.41-3.43,21.29-3.81,31.69-0.18c1.6,0.56,3.16-1.48,4.21-1.86
		l38.84-14.17c1.33-0.48,2.36,0.5,2.34,1.29c-0.01,0.61-0.42,1.35-1.32,1.67l-39.24,14.31l12.71,7.57l17.83-7.49
		c1.32-0.55,1.87,0.3,1.87,0.96C653.27,667.2,653.07,668.08,652,668.56z M593.05,492.52c6.43,2.65,13.31,2.53,19.5,0.17
		c2.48-15.01-5.38-29.58-19.55-35.01c-3.72,4.13-7.31,8.07-9.22,13.04C580.4,479.51,583.91,488.75,593.05,492.52z M453.41,521.91
		l2.05,19.42l46.26-4.33c1.41-22.35,2.22-47.59-9.91-65.77c-4.59-6.89-12.1-12.24-20.62-11.05c-6.49,0.91-10.49,6.94-12.48,13.05
		c13.76,0.88,29.86,1.5,34.29,13.62c2.41,6.61,1,12.91-3.02,18.15C481.98,515.42,467.06,519.26,453.41,521.91z M488.38,489.33
		c-4.3-13.15-30.3-9.16-47.56-14.17c-6.79,13.69-7.75,28.94-1.68,42.83c10.48-0.89,20.47-2.1,30.18-5.59
		C481.22,508.13,491.76,499.65,488.38,489.33z M602.43,508.21c0.66,12.68-2.26,25.24-3.63,37.86c-0.76,7.01-1.19,14.02-0.41,21.01
		l0.99,8.89c0.57,5.08,2.33,11.07,5.15,15.32c1.25,1.87,1.73,6.55,4.89,7.27c7.43,1.67,15.07-1.97,21.53-5.61l3.11-10.16
		c2.18-7.13,3.53-14.66,3.86-22.08c0.25-5.74-0.8-10.89-3.47-16.02c-2.85-5.48-9.28-12.53-16.35-11.58c-3-3.03-6.42-4.03-5.77-8.89
		l2.55-19.29l0.32-6.91l-13.2,2.02L602.43,508.21z M466.8,556.14c6.48,6.03,10.95,14.07,12.67,22.75
		c1.17,5.89,1.36,11.99,0.67,17.88l-2,17.06c9.18,0.4,17.81-0.13,26.76-1.99l-4.48-15.99l-1.28-17.96l1.19-24.32l0.94-11.62
		l-49.51,4.15l-0.88,0.52C456.66,548.73,462.22,551.88,466.8,556.14z M300.01,600.61c16.44,3.89,32.34,5.8,49.76,4.32
		c-15.94-7.11-30.54-15.47-42.05-28.97c-13.61,1.8-33.21,8.25-25.08,16.45C287.55,596.63,293.39,598.48,300.01,600.61z
		 M288.39,614.92l-0.28-14.53c-3.27-1.26-5.51-2.6-8.04-4.52C279.47,606.97,278.72,610.26,288.39,614.92z M649.82,608.4
		c1.88-1.98,2.51-4.4,1.6-6.31c-0.67-1.41-2.48-2.89-4.49-3.14l-13.78-1.74c-6.24,3.78-12.63,5.82-20.55,6.76
		c5.28,5.94,10.71,10.52,17.26,14.56C637.41,616.55,644.3,614,649.82,608.4z M887.31,698.22c2.78-3.46,4.25-8.62,7.89-10.11
		c3.3-1.34,7.69,2.35,10.97,3.52l7.27-8.23c3.25-1.67,7.06,0.77,11.13,1.66c-4.15-20.56-18.28-45.09-32.39-60.48
		c-17.64-19.24-44.49-31.42-70.97-26.34l-65.73,18.15c21.04,2.89,37.58,11.82,51.37,27c17,18.78,27.81,41.74,35.44,65.8
		c2.88-2.68,4.54-7.27,7.91-7.77c4.63-0.62,9.09,3.03,13.47,3.79l9.66-11.98L887.31,698.22z M301.43,619.69l0.25-14.42l-9.45-2.6
		l0.08,14.04C295.53,617.91,298.21,619.56,301.43,619.69z M316.97,622.98l0.01-14.98l-11.92-1.91l0,14.71L316.97,622.98z
		 M331.56,624.41l-0.02-14.92l-10.91-0.9l-0.14,14.72L331.56,624.41z M335.1,609.36l-0.12,15.34l12.55,0.1l0.12-15.34L335.1,609.36z
		 M363.3,623.91l-0.25-14.72c-4.16-0.95-7.83-0.37-11.88,0.14l-0.27,15.42L363.3,623.91z M378.18,621.63
		c0.64-3.43,0.63-5.73-0.2-8.24l-10.96-2.56l-0.11,12.61L378.18,621.63z M392.98,616.54l-10.96-2.32l0.02,6.53
		C386.43,619.63,390.13,618.9,392.98,616.54z M290.32,634.99l0.26-14.73c-3.72-1.13-6.31-2.88-10.09-5.44l0.4,12.6
		C282.04,631.14,286.59,633.23,290.32,634.99z M430.46,638.04l-3.57-14.87c-0.78-2.83-2.81-4.42-5.83-4.61l-19.24-1.22
		c-3.24-0.21-8.47,3.71-7.19,7.23C397.52,632.53,418.11,637.14,430.46,638.04z M513.58,625.87l-5.68-7.34l-11.91,2.28
		c3.58,4.42,3.76,8.46,1.41,13.53C504.1,632.94,509.18,630.61,513.58,625.87z M493,625.96c-2.4-4.92-15.95-5.49-23.95-4.6
		c-11.27,1.25-22.74,6-32.92,11.18c-1.06,6.25,5.25,11.74,11.52,12.03C469.54,645.58,497.98,636.16,493,625.96z M745.21,676.76
		c14.19-3.28,23.39-14.32,28.39-27.15c2.62-6.72,4.78-12.84,9.67-19.02c-15.27-8.69-33.43-12.12-50.63-6.96
		c-14.4,4.32-24.57,15.59-31.46,28.55l-11.79,22.19c-4.2,7.91-10.78,12.97-17.77,19.44L745.21,676.76z M304.35,639.85l0.25-14.72
		l-10.61-3.07l0.25,14.67C297.5,638.14,300.31,639.19,304.35,639.85z M389.61,637.42l0.51-14.8l-10.56,3.07l0.41,10.01
		C381.55,637.59,386.7,638.37,389.61,637.42z M321.15,643.1l-0.1-15.16l-13.03-1.99l-0.08,14.95L321.15,643.1z M375.96,634.63
		c0.67-4.48,0.34-6.06,0.07-8.35l-14.86,1.99c-0.37,1.95-0.35,3.55,0.09,5.75C366.27,633.24,370.93,633.1,375.96,634.63z
		 M338.97,640.01l-0.48-11.23l-13.74-0.67l0.04,15.42C329.95,643.3,334.54,641.92,338.97,640.01z M357.09,634.49
		c0.91-1.18,0.5-4.49-0.14-5.82l-14.72,0.25l0.29,10.47L357.09,634.49z M400.64,648.09c0.47-5.22,1.07-8.99-0.01-12.69l-6.51-4.53
		C392.67,640.11,392.98,643.9,400.64,648.09z M512.37,645.86c2.39-4.34,0.94-9.88,1.21-14.03l-12.72,6.07l0.05,14.51
		C504.68,650.66,510.14,649.91,512.37,645.86z M537.33,646.84c-7.53-5.15-13.4-9.46-19.21-15.58l-0.96,13.94
		C523.79,646.29,530.05,648.56,537.33,646.84z M291.61,655.91l0.05-15.34l-9.69-4.87C280.49,647,281.45,651.56,291.61,655.91z
		 M413.98,653.9l-0.18-14.41l-8.98-2.74l0.19,14.88L413.98,653.9z M467.13,746.78c-28.08-10.29-43.07-30.84-51.83-58.06
		c-3.32-10.31-6.33-19.69-12.18-29.04c-8.47-13.54-24.75-24.02-41.3-20.72l-54.28,16.47c13.77,2.09,24.31,8.34,32.19,18.95
		c7.72,10.11,12.33,21.7,15.78,34.03c7.45,27.52,21.13,51.21,47.02,63.99C428.09,785.02,453.97,771.92,467.13,746.78z
		 M496.98,653.59l-0.15-14.89l-12.77,5.39l-0.04,12.42L496.98,653.59z M430.31,657.21l-0.09-15.05l-12.56-1.78l0.08,14.6
		L430.31,657.21z M305.18,650.73c1.01-1.48,0.6-4.57,0.22-6.04l-9.89-2.88l0.08,12.66L305.18,650.73z M446.13,658.51
		c0.45-4.18,0.29-5.92-0.2-8.62c-4.42-0.86-8.12-2.33-11.61-5.95l-0.34,13.77L446.13,658.51z M316.66,646.89
		c-2.52-1.11-4.11-1.04-7.01-1.32c-0.27,1.31-0.32,2.57,0.03,4C312.54,648.73,314.21,648.69,316.66,646.89z M480.48,657.06
		l-0.25-11.65l-14.18,3.68l-0.02,9.38L480.48,657.06z M462.44,658.5l-0.26-8.89l-12.21,0.57c-0.4,3-0.4,5.61,0.06,8.58L462.44,658.5
		z M514.35,662.02l0.49-11.89l-7.2,4.3c3.24,4.14,0.94,7.07,3.86,8.62C512.52,663.58,514.28,663.68,514.35,662.02z M528.6,665.3
		l0.15-14.34l-10.49-0.99l-0.08,14.43L528.6,665.3z M532.24,651.21l-0.4,14.53l10.19,0.28l0.4-14.53L532.24,651.21z M556.77,665.02
		c0.66-1.73,1.28-5.53-0.15-6.44l-10.44-6.65l-0.74,13.68L556.77,665.02z M267.09,681.02c3.1-6.88,6.82-11.63,11.57-16.18
		l-0.2-11.43c-14.09,0-42.15,4.12-45.41,12.78C230.45,673.08,254.62,680.13,267.09,681.02z M414.51,671.39
		c25.49,5.02,51.03,4.32,75.85-1.85c9.77-2.43,18.71-8.19,14.39-12.73c-1.84-1.94-3.44,0.15-5.49,0.67
		c-29.93,7.7-61.09,7.31-91.53-0.54L414.51,671.39z M288.45,747.07c9.02-1.7,17.36-3.75,25.26-7.42
		c10.65-4.95,17.87-14.82,21.18-25.85l7.62-25.44c-3.98-7.25-7.6-13.17-13.65-18.35c-10.85-9.28-27.08-13.25-40.17-6.36
		c-10.97,5.77-16.95,17.2-20.51,28.61l-9.97,31.98c-4.17,13.38-12.56,23.83-23.65,33.02L288.45,747.07z M499.22,683.93
		c8.1-2.65,6.68-8,6.6-16.92l-6.25,3.72L499.22,683.93z M515.95,682.65l0.17-14.42c-2.16-0.86-3.92-1.27-6.44-1.26l-0.41,14.82
		C511.56,682.45,513.45,682.81,515.95,682.65z M696.65,830.21c22.54-7.14,40.73-21.14,52.99-41.36c-18.98-4.65-36.1-11-52.7-19.71
		c-13.14-6.9-23.4-16.61-30.41-29.63l-10.8-24.14l-10.59-22.47c-10.47-17.25-28.76-27.72-49.14-26.31L569.96,673l-49.37,13.72
		c27.85,6.67,41.37,28.44,49.83,53.88l13.64,34.35c7.08,14.21,17.1,25.74,29.84,35.16C638.1,828.01,666.49,839.76,696.65,830.21z
		 M530.69,678.39v-8.47l-10.58-1.18l-0.28,12.94L530.69,678.39z M560.67,669.99c-4.57-1.56-7.81-0.3-11.55-0.06
		c-0.23,1.27-0.37,1.87,0.04,3.61C553.12,672.32,556.73,672.41,560.67,669.99z M545.7,674.72l-0.35-4.96l-11.12,0.18l-0.04,7.76
		L545.7,674.72z M488.41,688.39c3.24-0.61,5.09-1.43,7.39-2.64l0.04-13.5l-7.44,2.31L488.41,688.39z M237.95,689.9l0.45-12.13
		l-5.89-3.19l0.34,10.88C232.91,687.48,236.21,689.08,237.95,689.9z M423.7,691.56l0.27-14.22c-2.82-0.83-5.02-1.17-7.5-0.81
		l4.5,13.5C421.37,691.24,422.68,692.18,423.7,691.56z M484.72,689.39l-0.19-14.07l-11.15,1.86l0.13,14.52L484.72,689.39z
		 M438.48,693.31l0.19-14.36l-11.18-1.2l-0.01,14.68L438.48,693.31z M469.87,692.02l0.02-14.23l-12.34,0.86l0.09,14.55
		L469.87,692.02z M454.05,678.82l-11.91,0.02l0.02,14.73l11.91-0.02L454.05,678.82z M249.72,694.82l-0.19-13.06l-7.5-2.1
		l-0.13,12.25C244.59,693.33,246.92,694.2,249.72,694.82z M261.36,697.32l3.83-12l-12.02-2.41l0.1,12.92L261.36,697.32z
		 M489.02,699.65c2.35-2.96,4.23-4.64,7.09-6.82c0.6-0.46-0.02-2.79-0.53-2.57l-2.42,1.04c-1.67,0.72-4.35,1.26-4.63,2.64
		C488.21,695.5,488.1,697.65,489.02,699.65z M121.6,715.59l-12.95-0.43c20.18,21.47,54.07,38.25,82.51,44.74
		c26.8,6.11,49.37-7.57,60.28-33.33c-23.39-5.9-44.43-17.35-61.47-35.06c-2.19,2.49-3.76,7.14-6.89,6.64l-12.84-2.02l-6.32,7.77
		l-14.08-2.39c-2.27,2.34-4.07,6.9-7.31,7.89l-14.87-1.9C126.01,709.94,124.77,715.69,121.6,715.59z M238.56,707.44l0.15-12.24
		l-6.21-3.5l0.06,11.6C234.39,704.98,235.57,706.46,238.56,707.44z M519.02,759.67c22.57-4.55,30.64-19.8,36.28-40.65
		c-9.84-18.55-34.33-34.07-52.26-25c-7.98,4.03-13.08,11.19-17.11,18.94l-9.25,23.88c-4.25,14.75-13.04,26.28-25.36,36.48
		L519.02,759.67z M483.87,706.95c1.72-4.66,0.54-9.22,0.66-13.15l-9.99,1.97l-0.14,14.34C476.91,710.03,482.75,709.97,483.87,706.95
		z M250.26,712.32l-0.05-12.55l-7.92-2.82l0.15,12.36C245.11,710.68,247.23,712.03,250.26,712.32z M350.88,710.07l-5.15-13.81
		l-4.24,14.16C344.85,710.78,347.76,710.96,350.88,710.07z M440.09,711.99l0.06-14.09l-11.87-1.04l-0.23,9.21
		C427.95,710.39,433.12,713.35,440.09,711.99z M470.76,710.75l-0.19-14.26l-11.7,1.28l-0.06,14.17L470.76,710.75z M455.21,697.74
		l-11.79,0.09l0.12,14.63l11.79-0.09L455.21,697.74z M256.68,713.48l3.44-11.78c-2.02-0.8-3.77-1.15-6.37-1.24l0.16,12.64
		C253.92,714.14,256.38,714.5,256.68,713.48z M469.47,741.95l10.31-28.24c-15.76,3.11-29.64,3.11-45.33,2.98
		C443.43,728.79,454.91,737.67,469.47,741.95z M776.77,772.63l-11.69-6.14c-8.34,29.35-28.76,51.28-55.54,64.53
		c30.93-3.94,59.96-9.03,89.65-15.6c35.26-7.81,61.08-32.94,72.25-67.84l-17.4,10.05l-8.08-6.25l-13.93,11.42l-10.84-6.6
		l-18.97,12.96l-10.04-6.72L776.77,772.63z"/><path fill="#1E1D1A" d="M647.77,285.11c-7.69,6.16-21.63,16.89-26.5,14.18c-2.69-1.5,4.38-11.22,2.1-21.61
		c-12.74-5.48-24.58-13.35-30.95-25.98c-11.66-23.1-4.49-50.79,15.54-66.73c30.4-24.18,77.35-22.89,106.98,0.97
		c20.75,16.71,27.66,45.08,15.91,68.95C716.57,283.91,679.11,292.34,647.77,285.11z M627.52,292.6c7.8-2.72,13.15-8.25,19.36-12.81
		c36.78,10.04,81.31-5.78,84.46-44.8c1.51-18.72-6.87-36.37-22.24-47.21c-25.8-18.21-60.17-20.71-87.89-5.79
		c-15.01,8.08-25.51,21.21-28.73,37.59c-3.63,18.45,3.86,35.41,18.82,46.21l15.89,9C630.69,279.1,627.82,286.72,627.52,292.6z"/><path fill="#1E1D1A" d="M612.94,291.64c0,6.17-5,11.17-11.17,11.17s-11.17-5-11.17-11.17s5-11.17,11.17-11.17
		S612.94,285.47,612.94,291.64z M608.45,291.56c0-3.68-2.99-6.67-6.67-6.67s-6.67,2.99-6.67,6.67s2.99,6.67,6.67,6.67
		S608.45,295.25,608.45,291.56z"/><path fill="#1E1D1A" d="M593.43,308.03c0,4.34-3.52,7.86-7.86,7.86c-4.34,0-7.86-3.52-7.86-7.86s3.52-7.86,7.86-7.86
		C589.91,300.17,593.43,303.69,593.43,308.03z M588.82,308.1c0-1.8-1.46-3.26-3.26-3.26c-1.8,0-3.26,1.46-3.26,3.26
		c0,1.8,1.46,3.26,3.26,3.26C587.35,311.37,588.82,309.9,588.82,308.1z"/><path fill="#F5F1DC" d="M652,668.56c1.07-0.48,1.27-1.36,1.27-2.04c0-0.66-0.56-1.51-1.87-0.96l-17.83,7.49l-12.71-7.57
		l39.24-14.31c0.9-0.33,1.31-1.06,1.32-1.67c0.01-0.79-1.02-1.78-2.34-1.29l-38.84,14.17c-1.05,0.38-2.61,2.42-4.21,1.86
		c-10.4-3.64-21.28-3.25-31.69,0.18c-4,1.32-6.03,0.27-9.25-1.53c-14.76-8.28-29.37-15.91-43.03-25.82
		c-29.77-21.58-29.52-49.53-26.53-83.32c2.81-31.73,6.79-76.89-19.94-95.56l79.32-6.39c7.74-0.62,15.48,1.56,19.83,7.9
		c-9.54,10.2-10.14,24.54-0.02,34.08l-10.16,1.32c-0.34,1.47,0.14,2.34,0.63,2.34l2.69-0.01c3.63-0.01,6.05-0.47,6.8-3.88
		c3.89,3.44,7.49,4.99,12.51,5.75c1,12.02-0.42,23.64-2.21,35.66c-4.39,29.41-3.38,57.3,19.26,77.85
		c18.31,16.62,54.93,32.69,78.9,44.08c-8,18.32-20.31,34.74-40.48,39.17c-4.44-8.09-9.4-15.01-15.97-20.59L652,668.56z
		 M575.5,463.15l-17.17,1.5l0.29,3.29l17.17-1.5L575.5,463.15z M551.44,465.58l-18.3,1.24l0.21,3.14l18.3-1.24L551.44,465.58z
		 M509.5,471.98l14.89-1.67c1.23-0.14,1.2-2.52-0.01-2.75l-15.37,1.43c-1.18,0.11-2.11,0.73-2.13,1.52
		C506.88,471.29,507.75,472.17,509.5,471.98z M574.55,483.15c1.87-0.08,1.8-1.98,1.31-2.51c-0.29-0.31-0.91-0.64-1.88-0.52
		l-16.47,1.94l0.21,1.84L574.55,483.15z M548.85,482.9l-34.45,3.98l0.37,3.19l34.45-3.98L548.85,482.9z M565.15,498.05
		c0.93-0.09,0.74-2.76-0.39-2.67l-17.1,1.32c-1.07,0.08-1.75,1.07-1.65,1.8c0.09,0.67,0.77,1.35,2.05,1.23L565.15,498.05z
		 M518.45,502.18l18.77-2.01c0.8-0.09,0.54-2.91-0.53-2.78l-20.33,2.35C516.16,501.47,516.98,502.34,518.45,502.18z M586.59,511.25
		c1.87-0.16,1.8-2.09,1.28-2.59c-0.3-0.29-0.98-0.46-1.93-0.38l-38.89,3.12c-1.34,0.11-1.96,0.16-2.26,1.13
		c-0.21,0.68,0.09,1.24,0.61,1.61c0.34,0.24,0.82,0.52,1.78,0.44L586.59,511.25z M519.46,516.98l15.22-1.41
		c0.83-0.08,1.1-0.77,1.31-1.08c0.21-0.32-0.31-1.9-0.75-1.94l-16.24,1.4c-1.24,0.11-1.89,0.69-1.91,1.55
		C517.09,516.24,517.69,517.14,519.46,516.98z M578.77,532.59c0.43-3.57,1.25-4.28,4.06-4.93c0.98-0.23,1.3-3.34,0.53-3.61
		l-3.81-1.34l-1.69-3.24c-0.45-0.87-2.88-1.06-3.44,0.03c-0.66,1.29-0.41,3.6-1.35,3.96l-3.18,1.21c-1.47,0.56-0.59,3.35,0.26,3.65
		l3.79,1.32l1.64,3.41C575.94,533.77,578.64,533.62,578.77,532.59z M555.3,530.32c1.38-0.29,2.08-0.96,2.26-1.99
		c0.57-3.27-4.67-1.19-5.11-6.98c-0.1-1.34-1.89-1.57-2.79-1.08c-2.28,1.26-0.55,5.24-4.47,5.94c-1.44,0.26-2.11,1.27-2.09,2.28
		c0.02,1.01,0.73,2.02,2.16,2.14c3.69,0.3,1.92,5.53,5.22,5.38C553.58,535.87,551.81,531.05,555.3,530.32z M529.5,530.95
		c1.16-0.99,4.84-3.33,2.45-4.98c-1.6-1.12-3.99-2.09-4.26-4.71c-0.09-0.66-2.54-0.58-2.96-0.03c-0.39,0.51-0.62,1.56-0.89,2.57
		c-0.57,2.1-3.31,1.76-4.21,2.46c-1.35,1.04-0.79,3.64,0.4,4.03c5.37,1.74,2.96,4.8,6.57,4.59
		C527.97,534.79,527.75,532.43,529.5,530.95z M546.47,545.16l35.81-2.6c0.79-0.76,0.88-1.62,0.71-2.04c-0.18-0.44-1-0.95-1.99-0.87
		l-35.33,2.86C544.85,543.09,545.09,545.26,546.47,545.16z M533.63,546.12c1.36-0.1,1.79-1.18,1.83-1.63
		c0.04-0.47-0.47-1.43-1.5-1.34l-15.25,1.39c-0.7,0.68-0.7,1.43-0.51,1.86c0.19,0.44,0.84,0.85,1.77,0.78L533.63,546.12z
		 M581.69,554.12l-14.42,1.6l0.39,3.48l14.42-1.6L581.69,554.12z M557.15,557.05l-40.89,4.54l0.36,3.28l40.89-4.54L557.15,557.05z
		 M581.3,569.56l-26.6,3.56l0.43,3.21l26.6-3.56L581.3,569.56z M516.87,581.46l26.17-3.39c1.23-0.16,2.13-0.88,2.18-1.59
		c0.07-0.98-0.86-1.82-2.23-1.62l-26.41,3.8C515.2,578.86,515.46,581.52,516.87,581.46z M560.53,588.69l20.58-2.56
		c1.23-0.15,1.24-2,0.72-2.42c-0.32-0.26-0.95-0.58-1.87-0.46l-20.14,2.51c-1.25,0.16-1.6,0.82-1.54,1.6
		C558.34,588.18,558.94,588.89,560.53,588.69z M548.6,587.68l-31.45,4.8l0.48,3.17l31.45-4.8L548.6,587.68z M588.26,595.95
		l-18.92,3.06l0.51,3.13l18.92-3.06L588.26,595.95z M560.32,603.44c0.51-1.61,0.26-2.12-0.05-2.36c-0.5-0.39-1.57-0.32-2.29-0.21
		l-33,5.2c-1.26,0.2-2.05,0.66-2.13,1.45c-0.1,1.06,0.79,1.86,2.18,1.64L560.32,603.44z M595.26,607.59
		c-3.48-0.04-7.65,0.04-10.32,3.5C594.19,613.77,598,607.63,595.26,607.59z M577.79,613.18c0.14-1.52-0.77-2.18-1.7-2.03l-11.2,1.85
		c-1.18,0.2-1.77,0.88-2.05,1.5C561.65,617.17,570.23,615.68,577.79,613.18z M553.91,614.65l-23.43,3.66l0.51,3.27l23.43-3.66
		L553.91,614.65z M607.4,615.85l-65.87,12.57l0.63,3.29l65.87-12.57L607.4,615.85z M592.43,632.66l22.49-4.86
		c1.36-0.29,1.64-1.71,1.27-2.32c-0.4-0.66-1.16-1.01-2.2-0.78l-21.56,4.76c-1.19,0.26-1.62,1.13-1.55,2.04
		C590.91,631.96,591.05,632.96,592.43,632.66z M559.53,640.14l21.65-4.95c1.22-0.28,1.88-0.81,1.96-1.7
		c0.07-0.81-0.85-1.83-2.14-1.52l-22.64,5.3c-1.25,0.29-1.61,1.54-1.22,2.16C557.42,639.87,558.07,640.48,559.53,640.14z
		 M629.74,632.04l-16.58,4.78l0.95,3.3l16.58-4.78L629.74,632.04z M605.29,638.81l-32.94,9.85l1,3.33l32.94-9.85L605.29,638.81z
		 M626.24,649.62l17.07-5.33c1.1-0.34,1.77-1.21,1.78-1.83c0.01-0.54-0.39-1.13-0.77-1.31c-0.44-0.21-1.38-0.21-2.13,0.04
		l-17.32,5.64c-1.21,0.39-1.37,2.03-0.89,2.56C624.25,649.7,625.13,649.97,626.24,649.62z M614.2,650.22l-20.26,6.6l1.05,3.23
		l20.26-6.6L614.2,650.22z M672,656.54l-12.45,5.07l1.27,3.12l12.45-5.07L672,656.54z M670.94,675.37l11.66-5.52
		c0.59-0.28-0.01-2.4-0.52-2.4c-0.35,0-1.11-0.08-1.69,0.19l-10.72,5.04c-1,0.47-1.29,1.65-0.67,2.65
		C669.2,675.66,669.83,675.62,670.94,675.37z M652.27,683.85l10.35-4.82c-0.04-1.38-0.07-1.73-0.33-2.02
		c-0.33-0.38-1.57-0.43-2.24-0.12l-11.04,5.14c-0.68,0.32,0.03,2.05,0.53,2.13C650.21,684.27,650.92,684.48,652.27,683.85z"/><path fill="#F5F1DC" d="M594.37,392.71C542.89,430.85,481.2,435,419.77,424.5c-39.96-6.83-77.04-22.1-109.96-47.82
		c23.15-51.38,59.74-93.39,116.74-105.21c38.83-9.63,78.96-1.68,111.36,21.64C570.71,317.26,587.19,353.25,594.37,392.71z
		 M563.4,384.49c10.69-28.69,0.16-61.07-26.6-77.14c-26.93-16.16-63.94-16.78-92.58-3.17c-27.37,13-43.89,41.95-38.27,71.96
		c2.96,15.82,13.14,28.37,26.85,36.02c24.51,13.67,58.98,13.18,86.36,6.97C536.99,415.09,556.85,402.08,563.4,384.49z"/><path fill="#F5F1DC" d="M696.65,830.21c-30.15,9.55-58.55-2.2-82.74-20.09c-12.74-9.42-22.76-20.95-29.84-35.16
		l-13.64-34.35c-8.47-25.44-21.99-47.21-49.83-53.88L569.96,673l26.03-6.41c20.37-1.41,38.67,9.06,49.14,26.31l10.59,22.47
		l10.8,24.14c7.02,13.02,17.27,22.73,30.41,29.63c16.6,8.72,33.72,15.06,52.7,19.71C737.38,809.07,719.19,823.07,696.65,830.21z
		 M591.49,680.98l17.66-4.84c1.3-0.36,1.45-1.91,0.85-2.53c-0.3-0.31-1.08-0.62-1.96-0.38l-17.88,4.88
		c-1.21,0.33-1.73,0.8-1.82,1.58c-0.08,0.67,0.01,1.08,0.35,1.27C589.21,681.25,590.34,681.29,591.49,680.98z M581.04,680.48
		l-15.57,4.15l0.83,3.12l15.57-4.15L581.04,680.48z M626.45,685.95l-16.7,4.17l0.8,3.19l16.7-4.17L626.45,685.95z M548.31,692.42
		l10.4-2.75c1.17-0.31,0.54-2.82-0.7-2.52l-10.4,2.49C547.37,690.42,547.28,691.68,548.31,692.42z M568.08,704.34l31.22-8.09
		c1.16-0.3,1.64-0.99,1.71-1.76c0.06-0.65-0.37-1.05-0.74-1.14c-0.4-0.11-1.4-0.22-2.08-0.04l-32.65,8.65
		c-0.15,1.4,0.01,2.3,0.42,2.54C566.23,704.66,567.18,704.57,568.08,704.34z M637.38,700.76l-10.28,2.57l0.77,3.08l10.28-2.57
		L637.38,700.76z M596.51,715.07l22.5-6.15c1.15-0.31,1.3-1.8,0.88-2.33c-0.25-0.32-1.01-0.8-1.85-0.57l-23.65,6.36
		c-1.16,0.31-1.47,1.56-1.17,2.11C593.64,715.26,594.87,715.52,596.51,715.07z M576.31,720.69l8.79-2.58
		c1.11-0.33,1.26-1.92,0.79-2.47c-0.27-0.31-1.02-0.62-1.83-0.38l-9.15,2.69c-1.24,0.37-1.25,1.85-0.8,2.39
		C574.37,720.65,575.15,721.03,576.31,720.69z M636.15,723.39l9.07-2.21c1.13-0.27,1.12-1.99,0.67-2.51
		c-0.27-0.32-0.98-0.61-1.82-0.39l-9.31,2.47c-0.97,0.26-0.99,1.98-0.56,2.49C634.44,723.54,635.14,723.64,636.15,723.39z
		 M626.3,722.62l-22.78,6.11l0.86,3.21l22.78-6.11L626.3,722.62z M650.33,735.46c1.89-0.64,2.44-2.4,1.73-3.81
		c-1.31-2.59-5.46-0.09-6.01-1.27l-1.07-2.3c-0.67-1.43-3.06-0.54-3.24,0.26l-0.82,3.69c-0.35,1.58-3.94,4.68-1.16,6.36
		c1.23,0.75,4.35-0.06,5.59,2.5c0.36,0.74,2.18,0.95,2.77,0.55C649.87,740.26,648.28,736.15,650.33,735.46z M582.47,737.6l12.74-3.5
		c1.08-0.3,0.52-2.91-0.33-2.67l-13.06,3.55C580.77,735.26,581.22,737.94,582.47,737.6z M625.58,743.9c0.65-1.09,3.74-3.79,1.43-5.2
		c-1.2-0.73-4.52,0.02-5.48-2.25c-0.44-1.04-1.41-1.63-2.03-1.87c-3.38-1.32-0.78,3.77-5.03,6.97c-1.12,0.84-0.72,3.39,0.42,3.98
		c0.71,0.37,2.12,0.38,3.61-0.41l3.22,4.16C625.38,749.12,624.21,746.17,625.58,743.9z M597.56,751.3c1.04-1.63,2.76-2.05,3.08-3.02
		c0.24-0.74,0.38-2.62-1.21-2.96c-1.26-0.27-4.34,0.24-4.88-1.83c-0.54-2.04-1.39-2.71-3.1-2.54c-3.34,0.34,0.67,5.12-3.9,7.68
		c-1.33,0.75-1.18,2.75-0.41,3.76c1.05,1.38,4.89-0.52,5.68,1.18c0.26,0.56,0.3,1.91,1.02,2.6c1.2,1.16,3.66,0.08,3.67-1.08
		L597.56,751.3z M657.09,745.24l-23.95,7.93l1.06,3.2l23.95-7.93L657.09,745.24z M596.26,767.7l28.54-8.81
		c0.64-0.2,0.66-2.08,0.27-2.34c-0.38-0.24-1.05-0.54-1.97-0.27l-28.37,8.55c-1.4,0.42-1.89,1.58-1.36,2.5
		C593.72,767.95,594.84,768.14,596.26,767.7z M631.52,770.75l30.95-10.72c0.13-1.42-0.01-2.27-0.41-2.54
		c-0.27-0.19-1.18-0.22-1.75-0.02l-29.5,10.3c-0.86,0.3-1.14,1.29-1.21,1.73C629.53,769.92,630.13,771.23,631.52,770.75z
		 M665.38,772.91l12.37-4.8c0.06-1.34-0.09-1.84-0.42-2.1c-0.44-0.35-1.57-0.3-2.26-0.04l-12.73,4.92c0.02,1.4,0.1,1.78,0.38,2.05
		C663.03,773.24,664.37,773.3,665.38,772.91z M602.56,780.69l14.8-4.83c0.34-1.38,0.12-2.15-0.37-2.36
		c-0.38-0.16-1.28-0.28-1.83-0.1l-11.81,3.97c-1.01,0.34-1.57,0.73-1.95,1.31C601.07,779.22,601.36,781.08,602.56,780.69z
		 M658.34,787.81l28.44-11.1c0.97-0.38,1.53-0.94,1.89-1.33c0.34-0.37-0.21-2.44-0.77-2.23l-31.47,12.21
		c-0.8,0.31-0.73,1.67-0.38,2.01C656.38,787.67,657.02,788.32,658.34,787.81z M612.54,791.94l41.99-15.07
		c0.36-0.95,0.01-2.26-0.47-2.45c-0.34-0.13-1.26-0.32-1.92-0.08l-39.45,14.33c-1.18,0.43-1.5,1.13-1.74,1.82
		C610.82,790.84,611.22,792.42,612.54,791.94z M692.57,788.11l9.67-3.87c1.07-0.43,1.16-2.02,0.67-2.55
		c-0.41-0.45-1.5-0.53-2.47-0.14l-9.88,3.99c-0.89,0.36-1.05,2.16-0.6,2.73C690.3,788.72,691.34,788.61,692.57,788.11z
		 M640.81,809.16l38.48-15.79c1.06-0.44,1.28-1.99,0.75-2.66c-0.36-0.45-1.47-0.44-2.46-0.03l-38.8,15.97
		c-1.1,0.45-1.42,2.12-0.9,2.69C638.29,809.81,639.39,809.74,640.81,809.16z M626.38,800.66l16.68-6.58
		c1.13-0.45,1.44-0.92,1.61-1.76c0.13-0.64-0.44-1.97-1.63-1.49l-17.3,6.92C624.6,798.2,625.35,801.07,626.38,800.66z
		 M696.37,803.53l27.8-9.45c1.43-0.49,2.95-1.27,1.67-3.64l-31.36,10.65c-0.03,1.01-0.1,1.7-0.01,2
		C694.58,803.4,695.45,803.85,696.37,803.53z M721.48,809.22l13.23-4.53c1.16-0.4,0.32-3.41-0.71-3.04l-14.61,5.29
		C719.12,808.59,719.95,809.75,721.48,809.22z M685.5,804.17l-28.85,10.35l1.12,3.13l28.85-10.35L685.5,804.17z M712.01,809.47
		l-33.35,12.47l1.17,3.13l33.35-12.47L712.01,809.47z"/><path fill="#F5F1DC" d="M467.13,746.78c-13.16,25.14-39.04,38.24-64.61,25.62c-25.89-12.78-39.58-36.47-47.02-63.99
		c-3.45-12.33-8.06-23.92-15.78-34.03c-7.88-10.6-18.41-16.86-32.19-18.95l54.28-16.47c16.55-3.3,32.83,7.18,41.3,20.72
		c5.85,9.36,8.86,18.74,12.18,29.04C424.06,715.94,439.05,736.5,467.13,746.78z M362.02,650.45l11.65-3.76
		c1.2-0.39,1.59-1.65,1.26-2.23c-0.48-0.85-1.71-1.13-2.91-0.7l-12.4,4.42c-0.36,0.92-0.11,2.22,0.36,2.34
		C360.31,650.61,361.13,650.74,362.02,650.45z M351.74,650.19l-16.97,5.58l1.04,3.16l16.97-5.58L351.74,650.19z M388.52,654.67
		c-2.42-3.41-5.06-1.07-7.4-0.48c-2.59,0.65-5.32,0.64-5.63,4.41C380.2,658.19,383.97,657,388.52,654.67z M368.41,657.77
		l-23.54,7.82l1.06,3.2l23.54-7.82L368.41,657.77z M379.23,673.55l15.93-5.36c1.17-0.4,1.31-2.01,0.86-2.57
		c-0.27-0.34-1.12-0.59-1.89-0.34l-16.35,5.44c-1.11,0.37-1.3,2.08-0.82,2.66C377.22,673.72,378.15,673.91,379.23,673.55z
		 M404,677.45c1.1-2.35-4.3-2.41-8.09-6.12c-3.01,2.93-3.78,6.6-4.04,10.68c5.64-1.08,6.12,3.76,8.61,2.94
		C401.53,684.61,401.65,682.46,404,677.45z M356.03,681.43l12.98-4.44c1.39-0.48,1.92-1.37,1.57-2.35c-0.32-0.9-1.48-1.02-2.51-0.65
		l-14.64,5.3c-0.61,0.22-0.05,2.25,0.47,2.27C354.26,681.58,355.05,681.77,356.03,681.43z M384.23,689.89l2.62-7.74
		c0.81-2.38-3.54-1.93-4.68-2.32c-1.11-0.38-2.77-3.87-4.64-1.9c-0.52,2.07-0.85,6.08-3.38,7.91c1.65,2.78,4.41,1.93,6.03,3.13
		C381.04,689.59,383.41,692.32,384.23,689.89z M367.79,692.5c1.38-1.67,2.32-2.43,1.89-3.83c-0.45-1.48-8.59-4.48-9.17-4.33
		c-2.04,0.52-0.62,3.33-0.96,4.25c-0.34,0.95-2.4,2.03-2.43,2.85c-0.03,0.85,0.65,2.61,1.44,3.05c0.71,0.4,2.86-0.47,3.56,0.22
		c1.51,1.48,2.56,2.58,4.8,1.63C368.13,695.83,366.96,693.5,367.79,692.5z M389.33,695.79l14.84-4.65c1.43-0.45,1.88-0.71,2.23-1.66
		c0.26-0.71-0.52-1.99-1.35-1.74l-17.12,5.19c-1.41,0.43-1.81,1.32-1.44,2.41C386.74,696.06,387.99,696.21,389.33,695.79z
		 M365.48,703.8l13.72-4.61c1.16-0.39,1.32-1.95,0.8-2.61c-0.27-0.34-1.08-0.85-1.95-0.53l-13.22,4.78
		c-0.88,0.32-1.09,1.17-1.14,1.63C363.66,702.88,364.26,704.21,365.48,703.8z M413.34,703.06c-4.73-2.15-10.45,0.18-13.84,3.86
		C404.46,708.23,408.98,706.09,413.34,703.06z M394.92,709.52c-3.15-3.16-6.48-0.8-8.98,0.35l-2.37,1.09
		c-0.47,0.21-0.18,2.36,0.34,2.3C387.67,712.87,391.23,712.18,394.92,709.52z M377.61,713.48c-3.56,0.15-7.77,0.8-9.52,4.73
		C376.46,719.23,380.31,713.37,377.61,713.48z M403.54,725.03l-4.75-8.85c-0.81-1.51-2.62-1.23-3.82-0.77
		c-3.89,1.49-0.48,6.24,3.86,12.73c1.14,1.71,2.91,1.78,3.95,1.11C404.2,728.36,404.53,726.87,403.54,725.03z M421.06,718.98
		l-8.66,3.36l1.29,3.33l8.66-3.36L421.06,718.98z M390.18,730.53l-12.07,4.81l1.31,3.29l12.07-4.81L390.18,730.53z M408.74,734.49
		c0-1.83-1.48-3.32-3.32-3.32s-3.32,1.48-3.32,3.32s1.48,3.32,3.32,3.32S408.74,736.32,408.74,734.49z M421.44,741.11l12.32-4.4
		c0.88-0.31,0.93-1.72,0.53-2.2c-0.46-0.55-1.11-0.84-2.24-0.43l-11.1,4.07C420.02,738.48,419.83,740.55,421.44,741.11z
		 M393.27,751.68l18.7-6.74c1.29-0.46,1.81-1.18,1.73-2.27c-0.08-1-1-1.64-2.39-1.13l-19.51,7.22c-1.17,0.43-1.21,2.03-0.72,2.58
		C391.35,751.65,392.11,752.1,393.27,751.68z M448.26,745.21c-3.09-2.72-7.79-0.84-8.64,3.05
		C442.69,748.66,445.61,747.82,448.26,745.21z M433.36,747.83L403,759.24l1.25,3.33l30.36-11.41L433.36,747.83z M455.21,751.88
		l-14.9,5.98l1.25,3.12l14.9-5.98L455.21,751.88z M422.28,768.66l10.95-4.44c1.06-0.43,1.18-1.99,0.7-2.58
		c-0.4-0.48-1.5-0.5-2.5-0.12l-9.4,3.55c-1.34,0.51-1.83,1.2-1.76,2.29C420.3,768.02,420.94,769.2,422.28,768.66z"/><path fill="#F5F1DC" d="M887.31,698.22l-13.98-4.99l-9.66,11.98c-4.38-0.76-8.84-4.41-13.47-3.79
		c-3.37,0.51-5.03,5.1-7.91,7.77c-7.63-24.06-18.45-47.02-35.44-65.8c-13.78-15.18-30.33-24.11-51.37-27l65.73-18.15
		c26.49-5.07,53.33,7.11,70.97,26.34c14.11,15.39,28.24,39.92,32.39,60.48c-4.06-0.9-7.88-3.33-11.13-1.66l-7.27,8.23
		c-3.29-1.17-7.68-4.86-10.97-3.52C891.55,689.59,890.08,694.75,887.31,698.22z M782.65,617.58l50.37-13.61
		c1.47-0.4,0.9-3.24-0.1-2.98l-50.49,13.4c-1.11,0.3-1.43,1.44-1.39,2.01C781.07,616.77,781.49,617.9,782.65,617.58z M840.01,613.53
		l11.32-3.26c1.15-0.33,1.73-0.93,1.81-1.78c0.07-0.8-0.88-1.79-2.07-1.44l-12.4,3.65c-1.09,0.32-1.74,1.09-1.84,1.81
		c-0.09,0.62,0.41,1.13,0.82,1.26C838.26,613.95,838.82,613.87,840.01,613.53z M819.35,619.82l10.1-3.24
		c0.64-0.21,0.31-2.13-0.23-2.29c-0.48-0.14-1.37-0.35-2.12-0.1l-10.83,3.62c0.13,1.49,0.26,1.75,0.55,1.97
		C817.17,620.05,818.34,620.15,819.35,619.82z M834.32,628.21l33.02-9.88c1.42-0.42,1.87-1.58,1.29-2.64
		c-0.29-0.52-1.41-0.66-2.43-0.35l-33.51,10.18c-1.03,0.31-1.33,2.13-0.76,2.8C832.29,628.75,833.32,628.51,834.32,628.21z
		 M801,625.37l7.3-2.19c1.37-0.41,1.76-1.59,1.27-2.47c-0.39-0.7-1.34-0.85-2.36-0.51l-8.66,2.85c-0.15,1.35,0.06,2.17,0.51,2.41
		C799.33,625.59,800.16,625.62,801,625.37z M878.03,634.05c-1.31-4.47,1.46-4.81,2.4-6.33c1.61-2.61-2.64-3.26-4.41-3.59
		c-1.38-0.25-3.3-4.46-5.32-2.16c-1.48,1.7-3.25,6.29-2.82,9.22c6.11,0.45,5.84,3.11,7.62,4.07
		C876.38,635.75,878.23,634.74,878.03,634.05z M813.36,634.93l11.01-3.59c0.4-0.55,0.3-2.29-0.25-2.67l-12.2,3.3
		c-1.35,0.37-1.57,1.74-1,2.49C811.19,634.83,812.07,635.35,813.36,634.93z M857.02,631.81l-12.5,4.2l1.09,3.24l12.5-4.2
		L857.02,631.81z M888.66,636.21l-59.82,19.14l1.08,3.39l59.82-19.14L888.66,636.21z M823.43,645.7l8.87-2.5
		c1.43-0.4,1.64-1.74,1.27-2.52c-0.44-0.93-1.39-1.01-2.48-0.63l-8.24,2.86c-0.82,0.28-1.07,1.12-1.06,1.56
		C821.8,644.88,822.2,646.05,823.43,645.7z M892.06,658.77c0.82,0.92,3.14-0.82,3.39-1.7c0.24-0.84-0.11-2.42-0.17-3.68
		c2.32-1.08,3-2.52,2.41-4.45c-0.67-2.18-3.29-1.19-4.47-2.04c-1.83-1.31-3.63-4.11-6.09-2.38c1.23,6.57-3.63,5.79-3.16,8.93
		C884.51,657.1,887.51,653.7,892.06,658.77z M872.93,658.99c1.49-0.43,1.78-1.46,1.7-2.33c-0.28-2.85-5.48,0.11-7.02-4.3
		c-0.46-1.31-2.12-1.5-2.76-0.94c-1.61,1.41,0.5,4.27-3.3,7.19c-0.93,0.71-0.22,3.48,0.82,3.51c5.34,0.16,6.24,4.85,8.67,2.53
		C872.52,663.22,869.76,659.91,872.93,658.99z M849.19,671.48c0.19-2.47-0.77-4.18,2.03-5.53c0.96-0.46,0.57-2.06,0.03-2.7
		c-0.96-1.14-2.49-0.12-8.09-3.57c-1.08-0.66-2.34,1.26-2.08,1.82c0.24,0.52,0.64,1.67,0.68,2.8l-3.21,4.33
		c0.92,3.05,3.81,1.63,5.25,2.46C845.34,671.96,848.97,674.33,849.19,671.48z M902.64,659.2l-18.1,5.65l1.01,3.22l18.1-5.65
		L902.64,659.2z M845.08,680.49l30.96-9.5c1.26-0.39,1.47-1.94,1.02-2.48c-0.83-0.99-1.63-0.74-2.94-0.34l-30.66,9.36
		c-1.43,0.44-1.85,1.73-1.19,2.73C842.59,680.74,843.71,680.91,845.08,680.49z M888.41,680.91l18.81-5.64
		c1.16-0.35,1.15-2.06,0.63-2.54c-0.3-0.27-0.85-0.38-1.76-0.4l-18.29,5.44c-0.87,0.26-1.23,1.26-1.29,1.72
		C886.45,679.97,886.97,681.34,888.41,680.91z M879.51,680.1l-13.24,4.34l1.04,3.18l13.24-4.34L879.51,680.1z M849.32,693.08
		l9.93-2.9c1-0.29,0.44-3.02-0.49-2.75l-10.42,3C846.9,690.85,847.61,693.58,849.32,693.08z"/><path fill="#9DD8C0" d="M598.12,412.94l-14.85,8.41c-25.65,12.44-52.57,20.02-81.28,22.58c-27.99,2.49-55.08,1.89-82.9-1.02
		l-30.87-5.36c-1.47-0.26-2.56,0.21-3.5,0.34c-0.91,0.12-2.59-0.55-3.7,0.54c-0.64,0.64-0.92,2.05-0.65,3.31
		c-17.75,12.3-29.5,32.01-32.63,53.59c-4.67-4.01-9.61-8.35-12.94-14.02c-1.61-2.75-3.63-1.62-5.36-2.24
		c-15.11-5.49-29.46-12.6-43.6-20.19c1.3-9.77,3.08-19.47,5.43-28.97c15.56,10.15,31.58,18.79,49.24,24.56
		c6.7-12.66,17.37-17.75,30.8-22.31c-25.96-8.89-48.79-19.22-69.92-34.33c2.13-5.15,3.49-10.87,6.62-16.58
		c27.14,21.1,57.71,35.76,90.96,43.67c65.37,15.56,140.3,14.39,195.97-26.75L598.12,412.94z"/><path fill="#F5F1DC" d="M288.45,747.07l-53.9,10.19c11.09-9.19,19.48-19.64,23.65-33.02l9.97-31.98
		c3.56-11.41,9.54-22.84,20.51-28.61c13.09-6.89,29.32-2.92,40.17,6.36c6.05,5.18,9.67,11.1,13.65,18.35l-7.62,25.44
		c-3.3,11.03-10.53,20.91-21.18,25.85C305.8,743.32,297.46,745.37,288.45,747.07z"/><path fill="#F5F1DC" d="M776.77,772.63l15.41-10.19l10.04,6.72l18.97-12.96l10.84,6.6l13.93-11.42l8.08,6.25l17.4-10.05
		c-11.17,34.9-36.99,60.03-72.25,67.84c-29.69,6.57-58.72,11.66-89.65,15.6c26.77-13.24,47.2-35.17,55.54-64.53L776.77,772.63z"/><path fill="#9DD8C0" d="M449.32,530.93l2.04,14.34c0.15,0.08,0.4,0.32,0.38,0.83l49.51-4.15l-0.94,11.62l-33.52,2.58
		c-4.57-4.26-10.13-7.41-15.93-9.53c-0.2-0.07-0.36-0.21-0.48-0.42c-17.2-6.02-36.56-4.86-54.49,0.68c-2.77,0.86-3.51,2.46-2.7,5.36
		c-14.7,13.01-23.03,32.27-21.29,52.49c-6.22-1.36-11.85-4.13-17.64-6.15c-2.66-16.66,1.96-32.67,13.31-45.77
		c-27.08-4.75-52.46-11.4-77.22-22.01c-3.49-12.62-5.92-25.53-6.02-38.73c12.59,7.17,25.42,12.73,39.29,17.39
		C366.56,523.86,404.52,529.82,449.32,530.93z"/><path fill="#F5F1DC" d="M121.6,715.59c3.17,0.1,4.41-5.65,6.06-8.08l14.87,1.9c3.24-0.99,5.04-5.55,7.31-7.89l14.08,2.39
		l6.32-7.77l12.84,2.02c3.13,0.49,4.7-4.15,6.89-6.64c17.05,17.71,38.08,29.16,61.47,35.06c-10.92,25.76-33.48,39.45-60.28,33.33
		c-28.44-6.49-62.34-23.26-82.51-44.74L121.6,715.59z M187.36,714l9.67-3.08c1.12-0.36,1.24-1.76,0.86-2.3
		c-0.23-0.33-1.04-0.81-1.85-0.56l-10.63,3.28c-0.83,0.26-0.89,1.76-0.53,2.14C185.22,713.84,185.92,714.46,187.36,714z
		 M177.33,716.76c0.59-1.86-0.51-2.48-1.4-2.64l-9.07,2.79c-0.9,0.28-1.17,1.05-1.27,1.6c-0.1,0.54,0.47,1.61,1.43,1.33
		L177.33,716.76z M213.56,718.01c-3.56-2.04-9.15-0.06-9.98,3.77C207.21,721.96,210.64,721.39,213.56,718.01z M140.4,728.07
		l17.24-5.47c1.2-0.38,1.46-1.3,1.2-2.02c-0.21-0.6-0.89-1.12-1.83-0.84l-18.71,5.55c-1.1,0.33-1.35,1.66-1.04,2.2
		C137.69,728.25,138.81,728.58,140.4,728.07z M197.21,721.12l-43.78,14.29l1.1,3.37l43.78-14.29L197.21,721.12z M216.18,731.49
		l11.46-4.43c0-1.34-0.06-1.78-0.35-2.04c-0.36-0.33-1.55-0.3-2.2-0.07l-10.37,3.66c-1.23,0.43-1.45,1.98-0.77,2.74
		C214.25,731.7,215.1,731.91,216.18,731.49z M205.45,731.76l-14.63,4.82l1.05,3.2l14.63-4.82L205.45,731.76z M240.8,733.52
		l-9.13,3.21l1.11,3.16l9.13-3.21L240.8,733.52z M172.47,746.24l10.25-3.51c1.16-0.4,1.36-1.41,1.09-2.13
		c-0.2-0.55-0.87-1.13-1.78-0.82l-10.01,3.37c-0.78,0.26-1.09,0.97-1.11,1.36C170.9,744.89,171.1,746.01,172.47,746.24z
		 M195.25,753.67l28.07-10.37c1.35-0.5,2.15-0.8,2.25-2.05c0.05-0.61-0.21-2.05-1.55-1.56L192.99,751
		c-1.19,0.43-1.47,1.92-0.99,2.48C192.67,754.25,193.63,754.27,195.25,753.67z"/><path fill="#F5F1DC" d="M519.02,759.67l-67.69,13.64c12.33-10.19,21.11-21.73,25.36-36.48l9.25-23.88
		c4.03-7.75,9.14-14.91,17.11-18.94c17.93-9.06,42.42,6.45,52.26,25C549.65,739.87,541.58,755.12,519.02,759.67z"/><path fill="#F5F1DC" d="M745.21,676.76l-73.6,17.04c6.99-6.47,13.56-11.53,17.77-19.44l11.79-22.19
		c6.89-12.96,17.06-24.23,31.46-28.55c17.19-5.16,35.35-1.73,50.63,6.96c-4.89,6.17-7.05,12.29-9.67,19.02
		C768.6,662.45,759.4,673.48,745.21,676.76z"/><path fill="#EB8C71" d="M598.12,412.94c1.18,5.51,4.69,9.78,9.23,13.74l8.14,7.08c-3.57,0.72-6.98,1.85-10.57,1.6
		c0.16-1.33-0.51-2.75-1.55-3.14c-0.94-0.35-2.87-0.21-2.97,1.1l-0.43,5.6l-4.34,2.65l-15.67,7.64c-5.37-2.19-11.57-2.8-18.05-2.24
		l-90.23,7.79c-9.23,0.8-15.07,8.86-17.85,17.52c-26.3-4.84-54.15-12.33-69.09-34.39c0.94-0.12,2.03-0.59,3.5-0.34l30.87,5.36
		c27.82,2.91,54.91,3.51,82.9,1.02c28.71-2.55,55.62-10.14,81.28-22.58L598.12,412.94z"/><path fill="#EB8C71" d="M329.46,479.07c-0.8,2.77,0.6,4.83,2.43,7.16c27.41,34.82,73.26,41.63,116.38,36.1
		c1.63,2.89,0.68,5.96,1.06,8.6c-44.79-1.11-82.76-7.07-125.71-21.48c-13.87-4.65-26.7-10.21-39.29-17.39
		c-0.08-11.04,0.07-22.15,1.54-33.17C300,466.47,314.35,473.59,329.46,479.07z"/><path fill="#EB8C71" d="M354.26,598.57c-30.79-10.75-55.25-36.38-63.92-67.78c24.76,10.6,50.14,17.25,77.22,22.01
		C356.22,565.9,351.6,581.91,354.26,598.57z"/><path fill="#EB8C71" d="M291.28,429.91c2.69-10.88,5.83-21.69,10.12-32.08c21.13,15.11,43.96,25.44,69.92,34.33
		c-13.44,4.56-24.11,9.64-30.8,22.31C322.86,448.71,306.84,440.06,291.28,429.91z"/><path fill="#F5F1DC" d="M453.41,521.91c13.66-2.64,28.57-6.49,36.57-16.91c4.02-5.24,5.44-11.54,3.02-18.15
		c-4.43-12.13-20.53-12.74-34.29-13.62c1.99-6.11,5.99-12.14,12.48-13.05c8.51-1.19,16.02,4.16,20.62,11.05
		c12.13,18.18,11.32,43.42,9.91,65.77l-46.26,4.33L453.41,521.91z"/><path fill="#F2D78C" d="M488.38,489.33c3.37,10.32-7.17,18.8-19.06,23.07c-9.71,3.49-19.7,4.7-30.18,5.59
		c-6.07-13.89-5.11-29.14,1.68-42.83C458.09,480.16,484.09,476.18,488.38,489.33z"/><path fill="#EB8C71" d="M436.16,547.82c-0.61,1.55-1.95,2.06-3.59,2.71c-23.72,9.42-40.67,33.35-39.33,58.51
		c-7.28-0.75-14.33-2.8-21.34-4.33c-1.73-20.22,6.59-39.48,21.29-52.49c0.68,0.13,1.9,0.41,3.15-0.05
		C409.35,547.48,422.94,546.08,436.16,547.82z"/><path fill="#EB8C71" d="M394.27,455.65c-14.85,13.91-23.76,33.39-23.51,53.63c-8.3-3.53-16.17-8.07-23.01-13.95
		c3.13-21.57,14.88-41.29,32.63-53.59C384.48,446.77,388.69,452.17,394.27,455.65z"/><path fill="#9DD8C0" d="M458.26,555.8c-25.96,5.27-50.42,27.45-50.56,54.73l-14.46-1.48c-1.35-25.16,15.61-49.1,39.33-58.51
		c1.64-0.65,2.98-1.17,3.59-2.71C444.13,548.87,451.59,551.35,458.26,555.8z"/><path fill="#EB8C71" d="M458.26,555.8c5.77,3.86,10.28,8.87,13.13,15.15c-22.59,1.95-48.55,18.31-53.36,40.08l-10.33-0.51
		C407.84,583.25,432.29,561.08,458.26,555.8z"/><path fill="#EB8C71" d="M422.11,469.77c-7.99,15.07-10.92,31.68-9.16,48.76c-7.67,0.1-15.23-1.41-22.72-3.03
		c-0.39-18.83,4.33-37.62,15.84-52.48L422.11,469.77z"/><path fill="#F2D78C" d="M414.51,671.39l-6.78-14.45c30.44,7.86,61.59,8.24,91.53,0.54c2.06-0.53,3.65-2.61,5.49-0.67
		c4.31,4.54-4.62,10.29-14.39,12.73C465.54,675.71,440,676.41,414.51,671.39z"/><path fill="#9DD8C0" d="M406.07,463.02c-11.51,14.86-16.23,33.64-15.84,52.48c-6.67-1.44-13.17-3.54-19.47-6.22
		c-0.25-20.25,8.65-39.72,23.51-53.63L406.07,463.02z"/><path fill="#F2D78C" d="M300.01,600.61c-6.62-2.13-12.46-3.98-17.37-8.2c-8.13-8.21,11.47-14.65,25.08-16.45
		c11.5,13.51,26.11,21.86,42.05,28.97C332.35,606.41,316.45,604.49,300.01,600.61z"/><path fill="#F2D78C" d="M493,625.96c4.98,10.21-23.46,19.62-45.35,18.61c-6.27-0.29-12.58-5.79-11.52-12.03
		c10.18-5.18,21.65-9.93,32.92-11.18C477.05,620.47,490.6,621.04,493,625.96z"/><path fill="#EB8C71" d="M475.13,584.92c0.56,6.71,0.19,13.52-1.05,20.17c-14.89,0.23-29.09,4.98-42.27,12.62
		c-2.22-3.91-6.87-6.51-11.12-6.61c1.72-3.69,4.97-6.31,8.42-9.06C442.35,591.41,458.39,584.53,475.13,584.92z"/><path fill="#F2D78C" d="M267.09,681.02c-12.47-0.89-36.64-7.94-34.04-14.83c3.26-8.65,31.31-12.78,45.41-12.78l0.2,11.43
		C273.91,669.39,270.19,674.14,267.09,681.02z"/><path fill="#9DD8C0" d="M412.95,518.53c-1.76-17.08,1.17-33.68,9.16-48.76l13.88,4.32c-6.69,13.77-7.7,29.53-1.64,44.17
		L412.95,518.53z"/><path fill="#F2D78C" d="M593.05,492.52c-9.14-3.77-12.66-13.01-9.27-21.81c1.91-4.97,5.5-8.91,9.22-13.04
		c14.17,5.43,22.03,20,19.55,35.01C606.36,495.05,599.49,495.17,593.05,492.52z"/><path fill="#EB8C71" d="M637.92,560.71c-0.33,7.42-1.67,14.95-3.86,22.08l-29.53,8.51c-2.83-4.25-4.59-10.24-5.15-15.32
		C611.75,569.36,624.39,563.4,637.92,560.71z"/><path fill="#FDFEFE" d="M469.47,741.95c-14.57-4.28-26.04-13.16-35.01-25.26c15.68,0.14,29.57,0.14,45.33-2.98
		L469.47,741.95z"/><path fill="#9DD8C0" d="M471.38,570.96c1.99,4.39,3.32,8.96,3.74,13.96c-16.74-0.39-32.77,6.49-46.04,17.12
		c-3.44,2.76-6.7,5.37-8.42,9.06l-2.65-0.06C422.83,589.27,448.79,572.91,471.38,570.96z"/><path fill="#EB8C71" d="M618.1,533.11c7.07-0.96,13.51,6.1,16.35,11.58c-13.76,4.57-25.29,12.99-36.06,22.4
		c-0.78-6.99-0.36-14,0.41-21.01C604.88,541.75,610.45,534.15,618.1,533.11z"/><path fill="#EB8C71" d="M500.32,553.57l-1.19,24.32l-19.66,1.01c-1.72-8.68-6.2-16.72-12.67-22.75L500.32,553.57z"/><path fill="#9DD8C0" d="M634.45,544.69c2.67,5.13,3.72,10.28,3.47,16.02c-13.54,2.7-26.17,8.65-38.54,15.27l-0.99-8.89
		C609.16,557.67,620.7,549.26,634.45,544.69z"/><path fill="#F2D78C" d="M430.46,638.04c-12.35-0.9-32.94-5.51-35.84-13.47c-1.28-3.52,3.95-7.43,7.19-7.23l19.24,1.22
		c3.03,0.19,5.05,1.79,5.83,4.61L430.46,638.04z"/><path fill="#F2D78C" d="M649.82,608.4c-5.52,5.6-12.41,8.14-19.96,10.12c-6.55-4.03-11.98-8.62-17.26-14.56
		c7.92-0.94,14.31-2.98,20.55-6.76l13.78,1.74c2.01,0.25,3.82,1.73,4.49,3.14C652.33,604,651.7,606.42,649.82,608.4z"/><path fill="#9DD8C0" d="M474.07,605.09l-2.1,11.19c-13.13,1.31-25.3,5.25-37.38,11.96l-2.79-10.54
		C444.98,610.07,459.19,605.32,474.07,605.09z"/><path fill="#9DD8C0" d="M627.79,480.32c-2.41,4.35-5.2,7.83-10.1,10.83c1.49-16.14-6.49-30.37-21.39-37.13l5.28-6.36
		C616.27,452.05,626.28,465.28,627.79,480.32z"/><path fill="#EB8C71" d="M625.93,448.67c7.05,8.23,6.95,22.46,1.86,31.65c-1.51-15.04-11.52-28.27-26.21-32.65l3.1-7.39
		C612.21,440.05,620.62,442.47,625.93,448.67z"/><path fill="#9DD8C0" d="M614.88,504.93l-2.55,19.29c-0.64,4.87,2.78,5.86,5.77,8.89c-7.65,1.04-13.23,8.64-19.31,12.96
		c1.37-12.62,4.29-25.18,3.63-37.86C606.9,508.16,610.7,505.8,614.88,504.93z"/><path fill="#EB8C71" d="M500.41,595.85l4.48,15.99c-8.95,1.86-17.58,2.39-26.76,1.99l2-17.06L500.41,595.85z"/><path fill="#9DD8C0" d="M499.12,577.89l1.28,17.96l-20.27,0.92c0.69-5.88,0.5-11.99-0.67-17.88L499.12,577.89z"/><path fill="#9DD8C0" d="M634.07,582.79l-3.11,10.16c-6.46,3.65-14.1,7.28-21.53,5.61c-3.17-0.71-3.64-5.39-4.89-7.27
		L634.07,582.79z"/><path fill="#F2D78C" d="M338.97,640.01c-4.43,1.91-9.02,3.29-14.18,3.52l-0.04-15.42l13.74,0.67L338.97,640.01z"/><path fill="#F2D78C" d="M363.3,623.91l-12.4,0.83l0.27-15.42c4.05-0.51,7.72-1.09,11.88-0.14L363.3,623.91z"/><path fill="#F2D78C" d="M512.37,645.86c-2.23,4.05-7.68,4.81-11.46,6.55l-0.05-14.51l12.72-6.07
		C513.31,635.97,514.76,641.51,512.37,645.86z"/><path fill="#F2D78C" d="M440.09,711.99c-6.97,1.35-12.15-1.61-12.04-5.92l0.23-9.21l11.87,1.04L440.09,711.99z"/><path fill="#F2D78C" d="M513.58,625.87c-4.4,4.74-9.48,7.07-16.18,8.47c2.35-5.07,2.16-9.1-1.41-13.53l11.91-2.28
		L513.58,625.87z"/><path fill="#F2D78C" d="M483.87,706.95c-1.11,3.02-6.96,3.08-9.46,3.15l0.14-14.34l9.99-1.97
		C484.41,697.73,485.58,702.29,483.87,706.95z"/><path fill="#F2D78C" d="M290.32,634.99c-3.73-1.76-8.27-3.85-9.43-7.57l-0.4-12.6c3.78,2.56,6.37,4.31,10.09,5.44
		L290.32,634.99z"/><path fill="#F2D78C" d="M304.35,639.85c-4.04-0.66-6.85-1.71-10.11-3.12l-0.25-14.67l10.61,3.07L304.35,639.85z"/><path fill="#F2D78C" d="M537.33,646.84c-7.28,1.72-13.54-0.55-20.17-1.64l0.96-13.94
		C523.93,637.37,529.81,641.68,537.33,646.84z"/><path fill="#F2D78C" d="M301.43,619.69c-3.22-0.13-5.9-1.78-9.12-2.97l-0.08-14.04l9.45,2.6L301.43,619.69z"/><path fill="#F2D78C" d="M291.61,655.91c-10.16-4.35-11.12-8.91-9.65-20.2l9.69,4.87L291.61,655.91z"/><path fill="#F2D78C" d="M389.61,637.42c-2.91,0.95-8.06,0.16-9.64-1.73l-0.41-10.01l10.56-3.07L389.61,637.42z"/><path fill="#F2D78C" d="M446.13,658.51l-12.15-0.8l0.34-13.77c3.49,3.62,7.19,5.09,11.61,5.95
		C446.42,652.59,446.58,654.33,446.13,658.51z"/><path fill="#F2D78C" d="M556.77,665.02l-11.34,0.58l0.74-13.68l10.44,6.65C558.04,659.49,557.43,663.28,556.77,665.02z"/><path fill="#F2D78C" d="M357.09,634.49l-14.57,4.89l-0.29-10.47l14.72-0.25C357.59,630,358,633.31,357.09,634.49z"/><path fill="#9DD8C0" d="M579.95,449.21l15.67-7.64l4.34-2.65c-1.46,6.66-6.87,11.79-12.58,15.74L579.95,449.21z"/><path fill="#F2D78C" d="M378.18,621.63l-11.27,1.82l0.11-12.61l10.96,2.56C378.81,615.9,378.81,618.2,378.18,621.63z"/><path fill="#9DD8C0" d="M615.49,433.76c4.48,3.9,9.07,8.58,10.44,14.91c-5.31-6.2-13.71-8.62-21.24-8.39
		c0.6-1.43,0.17-3.49,0.23-4.92C608.51,435.61,611.92,434.48,615.49,433.76z"/><path fill="#F2D78C" d="M288.39,614.92c-9.67-4.66-8.92-7.95-8.32-19.05c2.53,1.92,4.77,3.26,8.04,4.52L288.39,614.92z"/><path fill="#F2D78C" d="M488.41,688.39l0-13.84l7.44-2.31l-0.04,13.5C493.5,686.96,491.65,687.78,488.41,688.39z"/><path fill="#F2D78C" d="M462.44,658.5l-12.42,0.27c-0.45-2.97-0.46-5.59-0.06-8.58l12.21-0.57L462.44,658.5z"/><path fill="#F2D78C" d="M305.18,650.73l-9.59,3.74l-0.08-12.66l9.89,2.88C305.78,646.15,306.18,649.24,305.18,650.73z"/><path fill="#F2D78C" d="M249.72,694.82c-2.8-0.63-5.14-1.49-7.82-2.91l0.13-12.25l7.5,2.1L249.72,694.82z"/><path fill="#F2D78C" d="M250.26,712.32c-3.03-0.29-5.15-1.64-7.81-3.02l-0.15-12.36l7.92,2.82L250.26,712.32z"/><path fill="#F2D78C" d="M375.96,634.63c-5.02-1.53-9.68-1.39-14.7-0.6c-0.44-2.19-0.47-3.8-0.09-5.75l14.86-1.99
		C376.3,628.58,376.62,630.15,375.96,634.63z"/><path fill="#EB8C71" d="M614.88,504.93c-4.18,0.87-7.98,3.23-12.45,3.28l-0.43-8.18l13.2-2.02L614.88,504.93z"/><path fill="#F2D78C" d="M515.95,682.65c-2.5,0.17-4.4-0.2-6.67-0.87l0.41-14.82c2.51,0,4.28,0.41,6.44,1.26L515.95,682.65z"/><path fill="#F2D78C" d="M499.22,683.93l0.34-13.2l6.25-3.72C505.9,675.94,507.32,681.28,499.22,683.93z"/><path fill="#F2D78C" d="M400.64,648.09c-7.66-4.19-7.97-7.98-6.51-17.21l6.51,4.53
		C401.71,639.1,401.11,642.87,400.64,648.09z"/><path fill="#F2D78C" d="M238.56,707.44c-2.98-0.99-4.17-2.46-6-4.13l-0.06-11.6l6.21,3.5L238.56,707.44z"/><path fill="#F2D78C" d="M237.95,689.9c-1.74-0.82-5.04-2.42-5.1-4.44l-0.34-10.88l5.89,3.19L237.95,689.9z"/><path fill="#F2D78C" d="M350.88,710.07c-3.12,0.89-6.03,0.71-9.39,0.35l4.24-14.16L350.88,710.07z"/><path fill="#F2D78C" d="M423.7,691.56c-1.03,0.62-2.33-0.32-2.73-1.52l-4.5-13.5c2.48-0.36,4.68-0.03,7.5,0.81L423.7,691.56
		z"/><path fill="#F2D78C" d="M514.35,662.02c-0.07,1.67-1.83,1.57-2.84,1.03c-2.93-1.55-0.62-4.48-3.86-8.62l7.2-4.3
		L514.35,662.02z"/><path fill="#F2D78C" d="M256.68,713.48c-0.3,1.02-2.75,0.66-2.77-0.38l-0.16-12.64c2.6,0.09,4.35,0.45,6.37,1.24
		L256.68,713.48z"/><path fill="#F2D78C" d="M392.98,616.54c-2.85,2.36-6.55,3.09-10.94,4.21l-0.02-6.53L392.98,616.54z"/><path fill="#F2D78C" d="M489.02,699.65c-0.92-2-0.8-4.15-0.49-5.7c0.28-1.39,2.95-1.92,4.63-2.64l2.42-1.04
		c0.51-0.22,1.13,2.11,0.53,2.57C493.25,695,491.37,696.68,489.02,699.65z"/><path fill="#F2D78C" d="M560.67,669.99c-3.94,2.42-7.55,2.34-11.51,3.55c-0.41-1.74-0.27-2.34-0.04-3.61
		C552.87,669.68,556.1,668.42,560.67,669.99z"/><path fill="#F2D78C" d="M316.66,646.89c-2.45,1.8-4.12,1.84-6.98,2.68c-0.35-1.43-0.31-2.69-0.03-4
		C312.55,645.85,314.15,645.77,316.66,646.89z"/><path fill="#F5F1DC" d="M627.52,292.6c0.29-5.88,3.16-13.5-0.32-17.82l-15.89-9c-14.96-10.8-22.46-27.76-18.82-46.21
		c3.22-16.38,13.73-29.52,28.73-37.59c27.72-14.92,62.09-12.41,87.89,5.79c15.37,10.85,23.75,28.5,22.24,47.21
		c-3.15,39.02-47.68,54.84-84.46,44.8C640.68,284.35,635.32,289.88,627.52,292.6z M629.81,239.56c0.25,4.16,2.35,6.15,5.78,5.84
		c7.25-0.65-0.8-10.4,8.05-16.69c5.29-3.75,8.44-9.34,8.39-15.23c-0.05-6.11-2.46-12.23-8.12-15.34
		c-5.06-2.78-11.06-3.38-16.31-0.37c-3.79,2.17-7.04,6.8-7.25,12.21c-0.12,3.24,1.59,5.11,4.17,5.37
		c7.37,0.74,2.87-10.36,11.94-9.56c2.95,0.26,5.28,2.67,5.45,6.35C642.39,222.38,628.73,221.27,629.81,239.56z M688.9,263.42
		l0.81-6.69c9.38-1.78,14.01-11.29,10.35-19.96c-1.88-4.45-5.99-7.39-10.5-9.59l-0.15-14c3.27-0.73,1.81,5.23,6.18,5.66
		c1.69,0.16,4.15-0.7,4.35-2.88c0.56-6.08-3.66-10.1-8.99-12c-1.82-0.65-0.16-8.27-4.42-7.93c-3.38,0.27-2.59,3.82-3.93,7.49
		c-4.87,1.79-9.03,5.06-10.48,9.32c-2.97,8.72,1.6,15.82,10.67,20.41l-0.38,15.26c-4.58-1.71-5.47-8.68-10.41-6.04
		c-1.24,0.66-2.37,2.38-1.86,4.37c1.14,4.44,4.49,7.77,8.87,9.1c6.13,1.87,1.26,8.41,5.9,9.63
		C686.07,265.88,688.61,265.86,688.9,263.42z M640.34,255.39c0-3.01-2.44-5.46-5.46-5.46s-5.46,2.44-5.46,5.46
		c0,3.01,2.44,5.46,5.46,5.46S640.34,258.4,640.34,255.39z"/><path fill="#1E1D1A" d="M586.59,511.25l-39.41,3.33c-0.96,0.08-1.44-0.2-1.78-0.44c-0.52-0.37-0.83-0.93-0.61-1.61
		c0.3-0.97,0.92-1.02,2.26-1.13l38.89-3.12c0.95-0.08,1.63,0.09,1.93,0.38C588.39,509.16,588.46,511.09,586.59,511.25z"/><path fill="#1E1D1A" d="M560.32,603.44l-35.29,5.72c-1.39,0.23-2.28-0.57-2.18-1.64c0.08-0.79,0.87-1.25,2.13-1.45l33-5.2
		c0.72-0.11,1.79-0.18,2.29,0.21C560.58,601.32,560.83,601.83,560.32,603.44z"/><path fill="#EB8C71" d="M555.3,530.32c-3.49,0.73-1.72,5.55-4.81,5.69c-3.3,0.15-1.53-5.09-5.22-5.38
		c-1.43-0.11-2.14-1.13-2.16-2.14c-0.02-1.01,0.64-2.02,2.09-2.28c3.92-0.7,2.19-4.68,4.47-5.94c0.9-0.49,2.68-0.26,2.79,1.08
		c0.44,5.79,5.68,3.71,5.11,6.98C557.38,529.36,556.68,530.03,555.3,530.32z"/><path fill="#1E1D1A" d="M546.47,545.16c-1.38,0.1-1.62-2.06-0.8-2.65l35.33-2.86c0.99-0.08,1.81,0.43,1.99,0.87
		c0.17,0.41,0.08,1.28-0.71,2.04L546.47,545.16z"/><path fill="#9DD8C0" d="M578.77,532.59c-0.12,1.03-2.83,1.18-3.17,0.47l-1.64-3.41l-3.79-1.32
		c-0.85-0.3-1.74-3.09-0.26-3.65l3.18-1.21c0.94-0.36,0.7-2.67,1.35-3.96c0.56-1.1,2.98-0.9,3.44-0.03l1.69,3.24l3.81,1.34
		c0.76,0.27,0.45,3.38-0.53,3.61C580.02,528.31,579.2,529.02,578.77,532.59z"/><path fill="#EB8C71" d="M529.5,530.95c-1.74,1.48-1.53,3.84-2.89,3.92c-3.61,0.21-1.2-2.85-6.57-4.59
		c-1.19-0.39-1.75-2.99-0.4-4.03c0.9-0.7,3.64-0.36,4.21-2.46c0.27-1.01,0.5-2.06,0.89-2.57c0.42-0.55,2.86-0.63,2.96,0.03
		c0.27,2.62,2.66,3.6,4.26,4.71C534.34,527.62,530.66,529.96,529.5,530.95z"/><path fill="#1E1D1A" d="M516.87,581.46c-1.41,0.06-1.67-2.61-0.29-2.8l26.41-3.8c1.37-0.2,2.29,0.64,2.23,1.62
		c-0.05,0.71-0.94,1.44-2.18,1.59L516.87,581.46z"/><path fill="#1E1D1A" d="M559.53,640.14c-1.47,0.34-2.12-0.28-2.4-0.72c-0.4-0.62-0.03-1.87,1.22-2.16l22.64-5.3
		c1.29-0.3,2.21,0.71,2.14,1.52c-0.08,0.9-0.74,1.42-1.96,1.7L559.53,640.14z"/><path fill="#1E1D1A" d="M592.43,632.66c-1.38,0.3-1.52-0.7-1.55-1.16c-0.07-0.91,0.37-1.78,1.55-2.04l21.56-4.76
		c1.04-0.23,1.8,0.12,2.2,0.78c0.36,0.61,0.09,2.02-1.27,2.32L592.43,632.66z"/><path fill="#1E1D1A" d="M560.53,588.69c-1.59,0.2-2.19-0.51-2.25-1.33c-0.06-0.78,0.29-1.44,1.54-1.6l20.14-2.51
		c0.93-0.12,1.55,0.2,1.87,0.46c0.52,0.43,0.51,2.27-0.72,2.42L560.53,588.69z"/><path fill="#1E1D1A" d="M626.24,649.62c-1.12,0.35-1.99,0.08-2.27-0.24c-0.48-0.53-0.31-2.17,0.89-2.56l17.32-5.64
		c0.76-0.25,1.69-0.25,2.13-0.04c0.38,0.18,0.78,0.77,0.77,1.31c-0.01,0.62-0.68,1.49-1.78,1.83L626.24,649.62z"/><path fill="#1E1D1A" d="M518.45,502.18c-1.47,0.16-2.29-0.72-2.1-2.44l20.33-2.35c1.08-0.12,1.33,2.7,0.53,2.78
		L518.45,502.18z"/><path fill="#1E1D1A" d="M565.15,498.05l-17.1,1.68c-1.29,0.13-1.97-0.56-2.05-1.23c-0.09-0.73,0.58-1.72,1.65-1.8l17.1-1.32
		C565.89,495.29,566.08,497.95,565.15,498.05z"/><path fill="#1E1D1A" d="M519.46,516.98c-1.77,0.16-2.37-0.74-2.36-1.48c0.01-0.86,0.67-1.44,1.91-1.55l16.24-1.4
		c0.44,0.04,0.96,1.62,0.75,1.94c-0.21,0.32-0.48,1.01-1.31,1.08L519.46,516.98z"/><path fill="#1E1D1A" d="M574.55,483.15l-16.83,0.75l-0.21-1.84l16.47-1.94c0.97-0.11,1.6,0.21,1.88,0.52
		C576.35,481.17,576.42,483.07,574.55,483.15z"/><path fill="#1E1D1A" d="M509.5,471.98c-1.75,0.2-2.62-0.69-2.61-1.47c0.01-0.8,0.95-1.41,2.13-1.52l15.37-1.43
		c1.2,0.24,1.24,2.61,0.01,2.75L509.5,471.98z"/><path fill="#1E1D1A" d="M533.63,546.12l-13.67,1.06c-0.93,0.07-1.57-0.34-1.77-0.78c-0.19-0.43-0.19-1.18,0.51-1.86
		l15.25-1.39c1.03-0.09,1.54,0.86,1.5,1.34C535.42,544.95,534.99,546.02,533.63,546.12z"/><path fill="#1E1D1A" d="M670.94,675.37c-1.11,0.26-1.74,0.29-1.94-0.04c-0.62-1-0.32-2.18,0.67-2.65l10.72-5.04
		c0.58-0.27,1.34-0.19,1.69-0.19c0.51,0,1.11,2.12,0.52,2.4L670.94,675.37z"/><path fill="#1E1D1A" d="M577.79,613.18c-7.56,2.5-16.14,3.99-14.95,1.32c0.28-0.62,0.87-1.3,2.05-1.5l11.2-1.85
		C577.01,611,577.92,611.66,577.79,613.18z"/><path fill="#1E1D1A" d="M652.27,683.85c-1.35,0.63-2.06,0.42-2.73,0.31c-0.49-0.08-1.21-1.81-0.53-2.13l11.04-5.14
		c0.67-0.31,1.91-0.26,2.24,0.12c0.26,0.29,0.28,0.65,0.33,2.02L652.27,683.85z"/><path fill="#1E1D1A" d="M595.26,607.59c2.73,0.03-1.07,6.18-10.32,3.5C587.62,607.63,591.79,607.55,595.26,607.59z"/><path fill="#F2D78C" d="M563.4,384.49c-6.55,17.59-26.42,30.6-44.24,34.64c-27.38,6.2-61.84,6.7-86.36-6.97
		c-13.71-7.64-23.89-20.2-26.85-36.02c-5.62-30.01,10.9-58.96,38.27-71.96c28.63-13.61,65.65-12.99,92.58,3.17
		C563.57,323.42,574.09,355.8,563.4,384.49z M519.15,307.82c-0.95-1.1-2.65-1.26-3.55-0.61c-4.48,3.24,7.99,17.02,24.46,15
		c1.75-0.21,2.46-1.79,2.69-2.79C544.19,313.09,530.8,321.23,519.15,307.82z M460.29,310.29c-4.7-1.68-6.18,12.57-25.88,14.23
		c-1.23,0.1-1.33,2.79-0.77,3.48C440.98,337.09,469.36,313.52,460.29,310.29z M547.42,373.73c9.03-20.87-1.25-50.07-19.85-48.66
		c-5.75,0.43-11.66,3.84-14.84,9.86c-6.86,12.99-6.14,29.86,2.08,42.02c4.12,6.09,10.58,9.09,17.31,8.49
		C538.41,384.88,544.34,380.84,547.42,373.73z M470.47,380.73c6.58-13.39,5.34-30.18-2.76-42.19c-3.98-5.9-10.52-8.65-16.95-8.13
		c-18.37,1.47-25.63,32.26-13.97,51.56c3.99,6.61,10.48,10.24,17.68,9.91C460.7,391.59,467.03,387.75,470.47,380.73z M496.51,386.77
		c9.64-1.47,9.54,10.32,13.03,11.36c0.84,0.25,2.98-0.16,2.96-1.54c-0.15-9.18-8.53-16.79-17.82-14.74
		c-12.3,2.72-16.58,19.84-10.18,18.18C487.81,399.15,486.85,388.24,496.51,386.77z"/><path fill="#1E1D1A" d="M612.54,791.94c-1.32,0.47-1.72-1.1-1.59-1.46c0.24-0.68,0.56-1.39,1.74-1.82l39.45-14.33
		c0.65-0.24,1.58-0.05,1.92,0.08c0.49,0.19,0.83,1.5,0.47,2.45L612.54,791.94z"/><path fill="#1E1D1A" d="M640.81,809.16c-1.41,0.58-2.52,0.65-2.94,0.18c-0.52-0.57-0.2-2.24,0.9-2.69l38.8-15.97
		c0.99-0.41,2.1-0.42,2.46,0.03c0.54,0.67,0.32,2.23-0.75,2.66L640.81,809.16z"/><path fill="#9DD8C0" d="M597.56,751.3l-0.06,3.8c-0.02,1.16-2.47,2.24-3.67,1.08c-0.72-0.69-0.76-2.04-1.02-2.6
		c-0.78-1.7-4.63,0.2-5.68-1.18c-0.76-1.01-0.92-3.01,0.41-3.76c4.57-2.55,0.56-7.34,3.9-7.68c1.71-0.17,2.56,0.49,3.1,2.54
		c0.55,2.07,3.62,1.56,4.88,1.83c1.59,0.34,1.44,2.22,1.21,2.96C600.33,749.25,598.61,749.67,597.56,751.3z"/><path fill="#1E1D1A" d="M568.08,704.34c-0.89,0.23-1.85,0.32-2.12,0.16c-0.41-0.24-0.57-1.14-0.42-2.54l32.65-8.65
		c0.68-0.18,1.68-0.07,2.08,0.04c0.37,0.1,0.79,0.49,0.74,1.14c-0.07,0.77-0.55,1.46-1.71,1.76L568.08,704.34z"/><path fill="#1E1D1A" d="M658.34,787.81c-1.31,0.51-1.96-0.14-2.27-0.43c-0.35-0.33-0.43-1.69,0.38-2.01l31.47-12.21
		c0.55-0.22,1.11,1.86,0.77,2.23c-0.37,0.39-0.93,0.95-1.89,1.33L658.34,787.81z"/><path fill="#EB8C71" d="M650.33,735.46c-2.05,0.69-0.46,4.8-2.21,5.99c-0.59,0.4-2.41,0.19-2.77-0.55
		c-1.25-2.56-4.36-1.75-5.59-2.5c-2.78-1.69,0.81-4.78,1.16-6.36l0.82-3.69c0.18-0.8,2.57-1.7,3.24-0.26l1.07,2.3
		c0.55,1.19,4.7-1.32,6.01,1.27C652.78,733.06,652.22,734.82,650.33,735.46z"/><path fill="#9DD8C0" d="M625.58,743.9c-1.36,2.28-0.2,5.22-3.86,5.38l-3.22-4.16c-1.49,0.79-2.9,0.78-3.61,0.41
		c-1.13-0.59-1.53-3.14-0.42-3.98c4.25-3.2,1.65-8.29,5.03-6.97c0.62,0.24,1.59,0.83,2.03,1.87c0.95,2.27,4.28,1.52,5.48,2.25
		C629.32,740.11,626.23,742.81,625.58,743.9z"/><path fill="#1E1D1A" d="M631.52,770.75c-1.39,0.48-1.99-0.83-1.92-1.26c0.07-0.44,0.35-1.43,1.21-1.73l29.5-10.3
		c0.56-0.2,1.47-0.16,1.75,0.02c0.4,0.27,0.55,1.12,0.41,2.54L631.52,770.75z"/><path fill="#1E1D1A" d="M596.26,767.7c-1.42,0.44-2.54,0.25-2.89-0.37c-0.53-0.92-0.04-2.08,1.36-2.5l28.37-8.55
		c0.92-0.28,1.59,0.02,1.97,0.27c0.39,0.25,0.37,2.14-0.27,2.34L596.26,767.7z"/><path fill="#1E1D1A" d="M696.37,803.53c-0.93,0.32-1.8-0.13-1.89-0.44c-0.09-0.31-0.02-1,0.01-2l31.36-10.65
		c1.28,2.37-0.24,3.16-1.67,3.64L696.37,803.53z"/><path fill="#1E1D1A" d="M596.51,715.07c-1.64,0.45-2.87,0.19-3.29-0.58c-0.3-0.54,0.01-1.8,1.17-2.11l23.65-6.36
		c0.84-0.23,1.6,0.25,1.85,0.57c0.42,0.53,0.27,2.02-0.88,2.33L596.51,715.07z"/><path fill="#1E1D1A" d="M591.49,680.98c-1.15,0.31-2.27,0.28-2.81-0.02c-0.35-0.19-0.44-0.59-0.35-1.27
		c0.1-0.78,0.61-1.25,1.82-1.58l17.88-4.88c0.88-0.24,1.66,0.06,1.96,0.38c0.6,0.61,0.45,2.17-0.85,2.53L591.49,680.98z"/><path fill="#1E1D1A" d="M626.38,800.66c-1.03,0.41-1.78-2.46-0.64-2.92l17.3-6.92c1.19-0.48,1.76,0.85,1.63,1.49
		c-0.17,0.85-0.48,1.32-1.61,1.76L626.38,800.66z"/><path fill="#1E1D1A" d="M721.48,809.22c-1.53,0.52-2.36-0.63-2.08-2.27l14.61-5.29c1.03-0.37,1.87,2.64,0.71,3.04
		L721.48,809.22z"/><path fill="#1E1D1A" d="M602.56,780.69c-1.2,0.39-1.5-1.47-1.15-2c0.38-0.59,0.94-0.97,1.95-1.31l11.81-3.97
		c0.55-0.19,1.45-0.07,1.83,0.1c0.49,0.21,0.71,0.97,0.37,2.36L602.56,780.69z"/><path fill="#1E1D1A" d="M665.38,772.91c-1.01,0.39-2.34,0.33-2.65,0.04c-0.28-0.27-0.36-0.65-0.38-2.05l12.73-4.92
		c0.69-0.27,1.81-0.31,2.26,0.04c0.33,0.26,0.48,0.76,0.42,2.1L665.38,772.91z"/><path fill="#1E1D1A" d="M582.47,737.6c-1.25,0.34-1.7-2.34-0.64-2.63l13.06-3.55c0.85-0.23,1.41,2.38,0.33,2.67
		L582.47,737.6z"/><path fill="#1E1D1A" d="M692.57,788.11c-1.24,0.49-2.27,0.6-2.61,0.16c-0.44-0.57-0.28-2.38,0.6-2.73l9.88-3.99
		c0.96-0.39,2.05-0.31,2.47,0.14c0.49,0.53,0.4,2.12-0.67,2.55L692.57,788.11z"/><path fill="#1E1D1A" d="M636.15,723.39c-1,0.24-1.71,0.14-1.95-0.15c-0.43-0.51-0.41-2.23,0.56-2.49l9.31-2.47
		c0.84-0.22,1.55,0.07,1.82,0.39c0.46,0.53,0.46,2.24-0.67,2.51L636.15,723.39z"/><path fill="#1E1D1A" d="M576.31,720.69c-1.16,0.34-1.94-0.03-2.2-0.35c-0.45-0.54-0.44-2.02,0.8-2.39l9.15-2.69
		c0.81-0.24,1.56,0.07,1.83,0.38c0.47,0.54,0.33,2.14-0.79,2.47L576.31,720.69z"/><path fill="#1E1D1A" d="M548.31,692.42c-1.04-0.74-0.95-2-0.7-2.78l10.4-2.49c1.24-0.3,1.86,2.21,0.7,2.52L548.31,692.42z"/><path fill="#9DD8C0" d="M404,677.45c-2.35,5.01-2.48,7.16-3.52,7.51c-2.48,0.82-2.97-4.02-8.61-2.94
		c0.26-4.09,1.03-7.75,4.04-10.68C399.71,675.04,405.11,675.1,404,677.45z"/><path fill="#9DD8C0" d="M367.79,692.5c-0.83,1,0.34,3.33-0.87,3.84c-2.24,0.95-3.29-0.15-4.8-1.63
		c-0.7-0.69-2.85,0.18-3.56-0.22c-0.79-0.44-1.47-2.2-1.44-3.05c0.03-0.82,2.08-1.89,2.43-2.85c0.33-0.93-1.08-3.73,0.96-4.25
		c0.58-0.15,8.72,2.86,9.17,4.33C370.11,690.07,369.17,690.83,367.79,692.5z"/><path fill="#EB8C71" d="M384.23,689.89c-0.82,2.43-3.19-0.3-4.05-0.93c-1.63-1.2-4.38-0.35-6.03-3.13
		c2.54-1.83,2.87-5.84,3.38-7.91c1.87-1.98,3.53,1.52,4.64,1.9c1.14,0.39,5.49-0.06,4.68,2.32L384.23,689.89z"/><path fill="#EB8C71" d="M403.54,725.03c0.99,1.84,0.66,3.33-0.76,4.23c-1.05,0.67-2.81,0.6-3.95-1.11
		c-4.34-6.49-7.74-11.24-3.86-12.73c1.2-0.46,3-0.74,3.82,0.77L403.54,725.03z"/><path fill="#1E1D1A" d="M393.27,751.68c-1.17,0.42-1.92-0.03-2.2-0.34c-0.49-0.55-0.44-2.15,0.72-2.58l19.51-7.22
		c1.39-0.52,2.31,0.13,2.39,1.13c0.09,1.1-0.44,1.81-1.73,2.27L393.27,751.68z"/><path fill="#1E1D1A" d="M379.23,673.55c-1.08,0.36-2.01,0.17-2.28-0.16c-0.48-0.58-0.29-2.29,0.82-2.66l16.35-5.44
		c0.77-0.26,1.62,0,1.89,0.34c0.45,0.55,0.32,2.17-0.86,2.57L379.23,673.55z"/><path fill="#1E1D1A" d="M389.33,695.79c-1.34,0.42-2.59,0.27-2.83-0.45c-0.37-1.1,0.02-1.99,1.44-2.41l17.12-5.19
		c0.83-0.25,1.61,1.04,1.35,1.74c-0.35,0.95-0.79,1.22-2.23,1.66L389.33,695.79z"/><path fill="#1E1D1A" d="M356.03,681.43c-0.98,0.33-1.76,0.15-2.12,0.13c-0.52-0.02-1.09-2.05-0.47-2.27l14.64-5.3
		c1.03-0.37,2.19-0.25,2.51,0.65c0.34,0.98-0.18,1.87-1.57,2.35L356.03,681.43z"/><path fill="#1E1D1A" d="M365.48,703.8c-1.21,0.41-1.82-0.92-1.78-1.34c0.04-0.46,0.26-1.31,1.14-1.63l13.22-4.78
		c0.87-0.31,1.68,0.19,1.95,0.53c0.53,0.66,0.37,2.22-0.8,2.61L365.48,703.8z"/><path fill="#1E1D1A" d="M422.28,768.66c-1.33,0.54-1.97-0.64-2.01-1.3c-0.06-1.09,0.42-1.78,1.76-2.29l9.4-3.55
		c1-0.38,2.1-0.36,2.5,0.12c0.49,0.59,0.37,2.15-0.7,2.58L422.28,768.66z"/><path fill="#1E1D1A" d="M362.02,650.45c-0.89,0.29-1.71,0.16-2.04,0.07c-0.46-0.13-0.72-1.42-0.36-2.34l12.4-4.42
		c1.2-0.43,2.43-0.15,2.91,0.7c0.33,0.59-0.06,1.84-1.26,2.23L362.02,650.45z"/><path fill="#1E1D1A" d="M421.44,741.11c-1.61-0.55-1.41-2.63-0.49-2.97l11.1-4.07c1.13-0.41,1.78-0.12,2.24,0.43
		c0.4,0.48,0.35,1.89-0.53,2.2L421.44,741.11z"/><path fill="#1E1D1A" d="M413.34,703.06c-4.37,3.02-8.88,5.17-13.84,3.86C402.89,703.25,408.61,700.92,413.34,703.06z"/><path fill="#1E1D1A" d="M388.52,654.67c-4.55,2.34-8.32,3.52-13.04,3.93c0.32-3.77,3.04-3.76,5.63-4.41
		C383.46,653.6,386.1,651.25,388.52,654.67z"/><path fill="#1E1D1A" d="M394.92,709.52c-3.69,2.66-7.25,3.34-11.02,3.75c-0.52,0.06-0.8-2.09-0.34-2.3l2.37-1.09
		C388.45,708.72,391.77,706.37,394.92,709.52z"/><path fill="#1E1D1A" d="M377.61,713.48c2.7-0.11-1.15,5.75-9.52,4.73C369.84,714.28,374.05,713.63,377.61,713.48z"/><path fill="#1E1D1A" d="M448.26,745.21c-2.65,2.61-5.57,3.45-8.64,3.05C440.47,744.37,445.16,742.49,448.26,745.21z"/><path fill="#1E1D1A" d="M782.65,617.58c-1.16,0.31-1.59-0.82-1.61-1.18c-0.04-0.58,0.28-1.72,1.39-2.01l50.49-13.4
		c0.99-0.26,1.56,2.58,0.1,2.98L782.65,617.58z"/><path fill="#9DD8C0" d="M892.06,658.77c-4.55-5.07-7.56-1.67-8.1-5.31c-0.47-3.15,4.39-2.36,3.16-8.93
		c2.46-1.73,4.27,1.07,6.09,2.38c1.18,0.84,3.8-0.14,4.47,2.04c0.59,1.92-0.09,3.36-2.41,4.45c0.06,1.26,0.42,2.84,0.17,3.68
		C895.2,657.95,892.89,659.69,892.06,658.77z"/><path fill="#1E1D1A" d="M834.32,628.21c-1,0.3-2.03,0.54-2.39,0.11c-0.57-0.68-0.26-2.49,0.76-2.8l33.51-10.18
		c1.02-0.31,2.14-0.17,2.43,0.35c0.58,1.05,0.13,2.21-1.29,2.64L834.32,628.21z"/><path fill="#1E1D1A" d="M845.08,680.49c-1.37,0.42-2.49,0.25-2.81-0.23c-0.66-1-0.24-2.29,1.19-2.73l30.66-9.36
		c1.31-0.4,2.11-0.66,2.94,0.34c0.45,0.55,0.24,2.09-1.02,2.48L845.08,680.49z"/><path fill="#EB8C71" d="M878.03,634.05c0.21,0.7-1.64,1.7-2.54,1.22c-1.78-0.96-1.51-3.61-7.62-4.07
		c-0.42-2.93,1.35-7.53,2.82-9.22c2.02-2.3,3.94,1.91,5.32,2.16c1.78,0.32,6.02,0.97,4.41,3.59
		C879.49,629.23,876.72,629.58,878.03,634.05z"/><path fill="#EB8C71" d="M872.93,658.99c-3.17,0.91-0.4,4.23-1.9,5.66c-2.43,2.33-3.34-2.36-8.67-2.53
		c-1.03-0.03-1.75-2.8-0.82-3.51c3.8-2.92,1.68-5.78,3.3-7.19c0.64-0.56,2.3-0.37,2.76,0.94c1.54,4.41,6.74,1.45,7.02,4.3
		C874.71,657.53,874.42,658.56,872.93,658.99z"/><path fill="#EB8C71" d="M849.19,671.48c-0.22,2.85-3.85,0.48-5.38-0.4c-1.45-0.83-4.33,0.59-5.25-2.46l3.21-4.33
		c-0.04-1.13-0.43-2.27-0.68-2.8c-0.26-0.56,1-2.48,2.08-1.82c5.6,3.45,7.13,2.43,8.09,3.57c0.54,0.64,0.93,2.24-0.03,2.7
		C848.42,667.3,849.38,669.01,849.19,671.48z"/><path fill="#1E1D1A" d="M888.41,680.91c-1.44,0.43-1.96-0.94-1.89-1.41c0.06-0.47,0.42-1.46,1.29-1.72l18.29-5.44
		c0.91,0.02,1.46,0.13,1.76,0.4c0.52,0.47,0.53,2.19-0.63,2.54L888.41,680.91z"/><path fill="#1E1D1A" d="M840.01,613.53c-1.18,0.34-1.75,0.42-2.36,0.24c-0.42-0.12-0.91-0.63-0.82-1.26
		c0.1-0.72,0.74-1.49,1.84-1.81l12.4-3.65c1.19-0.35,2.14,0.63,2.07,1.44c-0.07,0.85-0.66,1.45-1.81,1.78L840.01,613.53z"/><path fill="#1E1D1A" d="M819.35,619.82c-1,0.32-2.17,0.23-2.53-0.04c-0.29-0.22-0.42-0.48-0.55-1.97l10.83-3.62
		c0.74-0.25,1.64-0.04,2.12,0.1c0.54,0.16,0.87,2.08,0.23,2.29L819.35,619.82z"/><path fill="#1E1D1A" d="M813.36,634.93c-1.29,0.42-2.16-0.1-2.44-0.47c-0.56-0.75-0.35-2.12,1-2.49l12.2-3.3
		c0.55,0.37,0.65,2.12,0.25,2.67L813.36,634.93z"/><path fill="#1E1D1A" d="M823.43,645.7c-1.23,0.35-1.64-0.82-1.64-1.23c0-0.43,0.24-1.27,1.06-1.56l8.24-2.86
		c1.1-0.38,2.05-0.3,2.48,0.63c0.37,0.78,0.15,2.12-1.27,2.52L823.43,645.7z"/><path fill="#1E1D1A" d="M801,625.37c-0.84,0.25-1.67,0.23-1.95,0.08c-0.45-0.24-0.65-1.05-0.51-2.41l8.66-2.85
		c1.02-0.34,1.97-0.19,2.36,0.51c0.49,0.88,0.1,2.06-1.27,2.47L801,625.37z"/><path fill="#1E1D1A" d="M849.32,693.08c-1.72,0.5-2.42-2.23-0.98-2.64l10.42-3c0.93-0.27,1.49,2.46,0.49,2.75L849.32,693.08
		z"/><path fill="#1E1D1A" d="M195.25,753.67c-1.62,0.6-2.58,0.58-3.25-0.19c-0.48-0.56-0.2-2.05,0.99-2.48l31.04-11.31
		c1.34-0.49,1.6,0.95,1.55,1.56c-0.1,1.25-0.91,1.56-2.25,2.05L195.25,753.67z"/><path fill="#1E1D1A" d="M140.4,728.07c-1.6,0.51-2.72,0.18-3.15-0.59c-0.3-0.54-0.06-1.88,1.04-2.2l18.71-5.55
		c0.94-0.28,1.62,0.25,1.83,0.84c0.25,0.73,0,1.64-1.2,2.02L140.4,728.07z"/><path fill="#1E1D1A" d="M216.18,731.49c-1.08,0.42-1.93,0.21-2.23-0.12c-0.69-0.76-0.46-2.31,0.77-2.74l10.37-3.66
		c0.65-0.23,1.84-0.27,2.2,0.07c0.28,0.26,0.35,0.7,0.35,2.04L216.18,731.49z"/><path fill="#1E1D1A" d="M187.36,714c-1.44,0.46-2.14-0.16-2.48-0.52c-0.36-0.38-0.31-1.88,0.53-2.14l10.63-3.28
		c0.81-0.25,1.61,0.23,1.85,0.56c0.39,0.54,0.26,1.95-0.86,2.3L187.36,714z"/><path fill="#1E1D1A" d="M172.47,746.24c-1.37-0.23-1.57-1.35-1.56-1.74c0.01-0.4,0.33-1.1,1.11-1.36l10.01-3.37
		c0.91-0.31,1.58,0.28,1.78,0.82c0.27,0.73,0.08,1.73-1.09,2.13L172.47,746.24z"/><path fill="#1E1D1A" d="M177.33,716.76l-10.31,3.07c-0.96,0.29-1.53-0.79-1.43-1.33c0.1-0.54,0.37-1.32,1.27-1.6l9.07-2.79
		C176.82,714.28,177.92,714.9,177.33,716.76z"/><path fill="#1E1D1A" d="M213.56,718.01c-2.92,3.38-6.35,3.95-9.98,3.77C204.41,717.96,210,715.97,213.56,718.01z"/><path fill="#EB8C71" d="M688.9,263.42c-0.3,2.44-2.83,2.47-3.99,2.16c-4.64-1.22,0.24-7.76-5.9-9.63
		c-4.38-1.34-7.73-4.67-8.87-9.1c-0.51-1.99,0.61-3.71,1.86-4.37c4.94-2.64,5.83,4.33,10.41,6.04l0.38-15.26
		c-9.08-4.59-13.64-11.7-10.67-20.41c1.45-4.27,5.62-7.53,10.48-9.32c1.34-3.67,0.56-7.22,3.93-7.49c4.26-0.34,2.6,7.28,4.42,7.93
		c5.32,1.89,9.55,5.91,8.99,12c-0.2,2.18-2.67,3.05-4.35,2.88c-4.37-0.43-2.91-6.39-6.18-5.66l0.15,14c4.52,2.2,8.63,5.14,10.5,9.59
		c3.66,8.67-0.97,18.19-10.35,19.96L688.9,263.42z M682.62,213.17c-2.36,0.72-3.21,3.51-3.23,5.38c-0.03,2.19,1.05,4.23,3.51,4.73
		L682.62,213.17z M688.97,247.89c3.46-1.32,4.22-3.7,3.76-6.12c-0.36-1.84-1.52-3.64-3.59-4.84
		C688.65,241,688.52,244.1,688.97,247.89z"/><path fill="#9DD8C0" d="M629.81,239.56c-1.08-18.29,12.58-17.18,12.1-27.43c-0.17-3.68-2.5-6.09-5.45-6.35
		c-9.07-0.8-4.57,10.31-11.94,9.56c-2.58-0.26-4.29-2.13-4.17-5.37c0.21-5.41,3.46-10.04,7.25-12.21
		c5.25-3.01,11.25-2.42,16.31,0.37c5.66,3.12,8.07,9.24,8.12,15.34c0.05,5.9-3.1,11.48-8.39,15.23c-8.85,6.29-0.8,16.04-8.05,16.69
		C632.17,245.71,630.06,243.72,629.81,239.56z"/><path fill="#1E1D1A" d="M470.47,380.73c-3.45,7.02-9.77,10.86-16,11.15c-7.2,0.33-13.69-3.3-17.68-9.91
		c-11.66-19.3-4.4-50.09,13.97-51.56c6.43-0.51,12.97,2.23,16.95,8.13C475.81,350.55,477.06,367.34,470.47,380.73z M455.81,386.92
		c-6.86-10.18-7.14-22.7-1.73-32.77c2.64-4.91,7.38-6.83,13.06-6.88c-2.35-5.9-6.23-10.77-12.42-12.1
		c-5.31-1.14-10.92,1.96-13.94,6.79c-6.7,10.71-6.82,24.85-0.91,35.98C443.14,384.07,449.18,388.09,455.81,386.92z"/><path fill="#1E1D1A" d="M547.42,373.73c-3.08,7.11-9.01,11.15-15.31,11.71c-6.73,0.6-13.19-2.41-17.31-8.49
		c-8.22-12.16-8.94-29.03-2.08-42.02c3.18-6.03,9.1-9.43,14.84-9.86C546.16,323.65,556.45,352.86,547.42,373.73z M532.9,380.03
		c-7.25-10.72-7.5-24.04-1.15-34.11c2.31-3.67,5.99-5.11,10.62-5.03c-1.74-4.67-5.03-8.61-9.79-10.47
		c-5.44-2.12-11.64,0.3-14.86,5.51c-7.14,11.53-6.55,26.92,0.97,38.18C521.96,379.01,527.64,381.87,532.9,380.03z"/><path fill="#1E1D1A" d="M496.51,386.77c-9.66,1.47-8.69,12.39-12.02,13.26c-6.39,1.67-2.11-15.46,10.18-18.18
		c9.29-2.05,17.67,5.56,17.82,14.74c0.02,1.38-2.11,1.79-2.96,1.54C506.05,397.08,506.15,385.3,496.51,386.77z"/><path fill="#1E1D1A" d="M460.29,310.29c9.07,3.24-19.31,26.81-26.65,17.72c-0.56-0.69-0.46-3.38,0.77-3.48
		C454.11,322.86,455.59,308.61,460.29,310.29z"/><path fill="#1E1D1A" d="M519.15,307.82c11.65,13.41,25.04,5.27,23.6,11.59c-0.23,1-0.94,2.58-2.69,2.79
		c-16.48,2.01-28.95-11.77-24.46-15C516.5,306.56,518.2,306.72,519.15,307.82z"/><path fill="#F5F1DC" d="M688.97,247.89c-0.45-3.8-0.32-6.9,0.17-10.96c2.07,1.2,3.24,3.01,3.59,4.84
		C693.2,244.19,692.43,246.58,688.97,247.89z"/><path fill="#F5F1DC" d="M682.62,213.17l0.28,10.1c-2.46-0.5-3.54-2.54-3.51-4.73C679.41,216.68,680.26,213.88,682.62,213.17
		z"/><path fill="#FDFEFE" d="M455.81,386.92c-6.63,1.17-12.67-2.85-15.93-8.98c-5.91-11.12-5.79-25.26,0.91-35.98
		c3.02-4.83,8.63-7.93,13.94-6.79c6.18,1.33,10.06,6.2,12.42,12.1c-5.69,0.05-10.43,1.97-13.06,6.88
		C448.67,364.22,448.95,376.74,455.81,386.92z"/><path fill="#FDFEFE" d="M532.9,380.03c-5.27,1.84-10.94-1.02-14.21-5.92c-7.52-11.26-8.11-26.65-0.97-38.18
		c3.22-5.2,9.42-7.63,14.86-5.51c4.77,1.86,8.05,5.8,9.79,10.47c-4.64-0.08-8.31,1.36-10.62,5.03
		C525.41,355.99,525.66,369.31,532.9,380.03z"/></svg>