<svg xmlns="http://www.w3.org/2000/svg" viewBox="0 0 1024 1024"><path fill="#0C0B0A" d="M615.22,794.73c-16.49,2.71-33,3.02-49.16,1.31c-4.01-0.42-7.62-2.7-9.5-5.12
		c-4.92-6.34-0.75-15.65,7.3-22.16c-4.33-9.54-8.07-18.63-10.86-28.54c-13.3-8.4-23.96-19.33-28.92-34.06
		c-4.59-4.76-5.31-10.63-6.1-17.79c-5.69,7.52-10.86,14.18-19.11,18.93l3.72,15.99c3.42,14.7,1.83,29.95-6.7,42.7
		c-12.57,18.78-36.59,25.9-57.71,17.61c-15.95-6.26-25.14-21.03-28.2-37.53c-1.85-9.98,3.42-18.92,13.04-20.46
		c9.65-1.54,17.17,5.52,18.73,15.47c0.94,6.04,5.23,11.15,10.27,12.6c6.31,1.81,12.8-0.98,16.06-6.61c2.63-4.53,3.04-9.7,1.78-14.8
		l-10.55-42.5c-1.06-4.27-0.95-7.72,1.28-11.97l-38.83-158.72c-10.37,4.67-20.25,10.21-28.58,18c-6.66,6.23-2.33,12.69-9.11,11.31
		c-1.56-0.32-1.75-3.64-3.08-4.44c-9.44-5.7-20.76-7.51-32.18-7.78c-26.67-0.63-52.84,5.88-76.57,17.86
		c-5.52,2.79-10.98,6.03-14.4,10.98c-0.61,1.26,0.35,4.85-1.88,5.47c-7.34,2.06-3.23-5.3-10.05-8.61
		c-24.73-11.97-56.12-10.62-82.99-4.11c-8.75,2.12-17.88,5.07-25.01,10.07c-0.45,1.8-0.82,5.16-2.84,5.49
		c-1.42,0.23-4.76,0.04-4.9-2.63c-3.1-62.21,13.82-123.53,47.66-175.91c42.42-65.66,108.84-114.16,183.63-137.54
		c-2.32-13.66-3.65-28.39,7.72-30.47c9.83-1.8,15.26,12.13,19.65,22.96c91.28-20.13,188.32-4.01,263.16,52.28
		c35.5,26.7,63.9,61.17,84.65,100.14c1.3,2.43-0.52,4.35-1.55,5.22c-2.53,2.15-4.21-1-5.62-1.93c-7.04-1.41-14.37,0.5-21.36,2.58
		c-17.45,5.21-33.28,13.5-47.81,24.86c47.81,5.27,84.98,31.7,98.46,77.07c2.79,9.19,3.17,17.27,3.14,27.69
		c1.44-3.22,4.28-3.67,6.19-5.59c5.29-5.33,9.11-12.93,10.57-20.33l0.26-13.73c0.11-5.83,3.05-10.63,8.03-12.55
		c5.09-1.97,10.79-0.22,15.17,4.46c12.77-15.42,33.47-19.21,47.84-7.49c16.82,13.71,12.25,38.47,2.31,58.06
		c-8.14,16.03-19.47,29.4-30.66,43.54c0.02,3.95-1.41,7.25-4.19,10.45l-37.46,43.16c3.76,17.15,6.47,33.65,4.27,50.65
		c-0.87,6.72-2.52,13.04-7.12,18c-5.11,14.43-15.36,25.38-28.35,33.59l-10.61,28.39c7.24,7.11,11.83,16.38,6.56,22.77
		c-1.65,2-5.1,4.45-8.88,4.89c-16.05,1.87-32.54,1.47-48.45-1.17c-7.29-1.21-11.85-6.2-13.01-13.04l-3.81-22.48l-39.44-0.24
		l-3.47,22.78C626.71,788.02,622.52,793.53,615.22,794.73z M381.38,251.58c-1.9-6.23-4.1-10.94-7.21-15.71
		c-1.24-1.33-2.89-2.17-4.45-1.71c-4.06,1.2-3.09,12.52-1.13,20.97L381.38,251.58z M641.01,383.03l6.36,14.25
		c18.85-17.75,48.27-19.61,71.02-9.05l1.23-1.04l-9.32-14.29c-19.81-27.78-43.91-52.96-72.79-72.47
		C590.46,268.62,535.1,250.64,477.71,249C551.83,266.49,608.2,315.38,641.01,383.03z M501.9,405.36l5.12,15.11
		c7.97-7.68,16.55-13.43,26.74-17.77c30.88-13.16,72.14-18.05,103.39-7.01l1.08-1.31l-6.79-14.29
		c-26.03-54.8-80.01-102.23-139.65-119.91c-29.01-8.6-58.64-9.87-89.6-5.29c15.15,6.96,27.52,16.19,38.53,28.48
		C470.27,316.35,487.83,363.84,501.9,405.36z M334.93,447.98l3.25,16.64c11.8-11.46,25.04-19.59,40.06-26.43
		c35.45-16.15,82.45-26.08,121.09-16.11l-4.92-15.62c-7.21-22.88-15.65-44.91-26.07-66.75c-15.31-32.08-42.53-74.51-78.92-80.14
		c-10.25-1.58-21.26,1.98-28.54,9.22C320.29,309.15,325.91,393.82,334.93,447.98z M203.79,495.66l2.33,17.89
		c20.54-25.66,57.29-41.64,89.04-47.05c12.22-2.08,23.78-1.61,35.84,1.07l-2.64-15.16c-4.34-24.97-6.97-49.68-7.21-75.38
		c-0.15-23.94,2.18-46.93,9.39-69.52c4.32-14.49,11.33-26.65,20.76-39.04c-47.57,17.54-87.85,50.15-113.95,92.81
		C212.62,401.73,200.95,448.67,203.79,495.66z M138.61,528.48c-0.63,6.54-1.33,12.02-0.46,19.11
		c13.77-19.76,36.84-32.75,60.81-27.72L197.3,505c-7.12-63.91,13.57-127.54,55.05-176.54c3.8-4.49,8.45-7.21,10.81-13.15
		c-16.55,11.26-30.31,24.08-43.73,38.18C173.81,401.41,145,462.57,138.61,528.48z M719.78,387.53l-0.91,1.08
		C719.75,389.69,721.12,388.29,719.78,387.53z M632.26,433.28l17.24-0.71c16.02-14.3,34.63-24.49,55-30.99l16.97-3.56
		c-6.56-4.04-12.74-6.82-20-8.13c-17.67-3.19-42.74,1.12-50.66,15.06c-0.72,1.27,0.45,4.36-0.64,5.44c-0.95,0.94-2.4,1.24-4.09,1.11
		c-2.12-0.17-2.07-2.91-3.25-4.17c-8.76-9.4-39.71-11.99-55.11-9.88c11.52,12.42,20.87,24.66,30.07,38.2L632.26,433.28z
		 M638.63,394.85l-1.01,0.87C638.32,396.89,639.62,395.68,638.63,394.85z M506.48,485.85l5.5,13.2
		c13.71-16.56,32.49-26.02,52.26-32.82c7-7.66,14.68-13.95,23.75-18.94c6.99-3.94,14.05-6.83,22.35-9.5
		c-9.53-14.5-20.01-27.63-32.35-39.7c-24.47,3.56-50.91,11.25-67.83,29.33c-0.38,2.24,0.26,4.9-0.82,6.75
		c-1.1,1.88-3.02,1.56-4.26,1.34c-1.8-0.32-2.08-3.63-3.02-4.58c-6.57-3.34-14.48-4.64-22.76-5.24
		C490,445.85,498.07,465.59,506.48,485.85z M441.69,489.92l3.31,12.62l26-4.19c11.13-1.79,21.94-0.02,33.25,3.06l-4.89-13.16
		c-8.4-21.56-17.4-42.46-28.63-63.29c-14.79-0.03-28.9,1.59-43.69,4.61L441.69,489.92z M420.22,430.92l-11.85,2.86l58.46,241.92
		l11.85-2.86L420.22,430.92z M384.55,518.71l2.7,14.45c9.15-9.61,20.36-15.89,32.56-21.43l-2.67-11.92l-15.13-63.31
		c-8.89,2.93-16.95,6.14-25.13,10.45C378.27,471.51,380.65,495.03,384.55,518.71z M726.26,581.32
		c21.88-13.33,31.6-33.67,27.49-59.17c-10.73-66.43-83.19-96.27-144.54-76.1c-21.48,7.06-38.68,20.63-50.68,39.47
		c-21.59,33.9-23.9,76.03,12.79,97.34c12.38,7.19,25.74,11.53,40.29,13.67C648.13,601.92,694.48,600.69,726.26,581.32z
		 M257.11,539.78l0.04,15.47c6.38-4.62,12.33-8.38,19.62-11.61c30.26-13.39,72-20.87,103.1-8.56l-2.33-13.84
		c-3.92-23.25-6.17-46.22-7.72-70.76c-11.27,5.75-22.18,13.6-29.85,23.32c0.13,1.53,1.08,4.14,0.47,5.12
		c-1.15,1.85-2.58,2.17-4.81,2.04c-1.57-0.09-1.81-3.89-3.11-4.59c-16.9-9.08-48.55-1.7-68.09,6.13
		C259.99,501.57,257.05,520.3,257.11,539.78z M476.08,632.62l11.7-16.8c0.78-2.1,0.11-4.89,2.21-6.95
		c16.48-16.13,33.74-31.01,53.93-42.52c-16.51-28.48-6.87-60.46,9.57-87.71c-13.51,5.64-34.26,18.49-37.99,29.52
		c-0.87,2.57,0.32,5.21-2.89,6.13c-3.1,0.89-3.48-2.29-5.48-3.52c-14.06-8.7-42.35-5.64-60.69-0.93L476.08,632.62z M774.84,536.92
		c15.57,13.08,28.59,26.28,41.32,41.55c16.73-19.96,36.76-44.62,37.58-70.4c0.2-8.02-3.04-15.49-8.6-19.89
		c-6.29-4.98-14.28-6.42-21.93-4.04c-8.29,2.57-13.78,8.62-19.03,15.1c-3.99,4.93-7.75-8.14-13.53-7.14
		c-2.49,0.43-4.13,3.42-4.31,6.28l-1.08,18C783.31,524.04,778.75,530.04,774.84,536.92z M154.94,539.57
		c-5.49,4.93-10.14,10.47-13.14,17.57c31.76-12.88,76.49-17.26,107.65-1.42l0.33-13.06c0.61-18.82,2.36-36.83,6.64-56.51
		c-17.77,7.33-33.94,17.83-45.67,33.5c-5.2,6.95,0.94,12.83-7.19,12.5c-1.76-0.07-2.1-3.1-3.71-3.96
		C187.21,521.44,166.55,529.14,154.94,539.57z M760.8,550.8c-2.71,3.12-3.51,7.31-5.34,10.83c-13.54,25.95-45.69,38.92-74.79,42.83
		c-23.05,3.09-45.69,2.49-68.76-0.33c-24.8-3.98-47.72-12.01-63.59-31.79c-13.68,7.54-25.39,16.15-36.26,26.21l-8.24,7.62
		l-8.38,8.16c7.51,11.37,16.5,21.33,27.1,29.47l3.03-11.12l3.77-12.19l1.69-4.48c0.87-2.31,2.24-3.81,4.23-3.55
		c2.1,0.28,3.94,2.64,3.16,5.19l-6.6,21.73l-2.9,10.84l-3.39,24.46l0.13,12.27c0.04,3.87,0.19,11.37,4.48,13.83
		c10.5,6.02,22.09,8.98,34.4,10.97c56.25,9.06,113.53,9.23,169.7-0.25c13.64-2.3,26.45-5.6,38.18-12.07
		c4.03-2.23,4.39-9.53,4.57-13.14l0.58-11.91c0.39-7.93-0.67-15.65-2.35-23.47l-2.53-11.79l-4.18-17.5
		c-0.53-2.23,0.75-4.14,2.17-4.66c2.09-0.76,4.23,0.34,4.88,2.48l2.67,8.78l17.09-19.64l7.91-8.96l10.16-11.99
		c-12.75-17.17-27.66-32.2-44.73-45.88L760.8,550.8z M497.13,699.39c9.66-6.65,15.51-15.34,21.33-24.14
		c-0.23-8.23,1.31-15.3,2.65-23.18c-11.11-8.46-20.31-18.02-28.8-29.12l-13.54,20.21l7.58,28.72c0.65,2.46,4.44,3.75,5.22,6.67
		L497.13,699.39z M430.48,770.56c11.43,9.98,26.71,12.04,41.37,6.37c19.14-7.4,29.26-29.54,24.44-49.24l-11.64-47.56
		c-6.71-0.76-13.74,0.54-19.26,4.57l11.25,45.52c1.99,8.07,0.75,16.64-4.33,22.97c-4.5,5.61-10.82,8.44-17.75,8
		c-5.99-0.38-11.78-3.63-15.68-9.14c-5.69-8.04-3.37-20.83-14.48-19.58C410.8,734.01,417.37,759.11,430.48,770.56z M610.9,748.68
		c23.9,5.24,58.47,5.57,81.46-0.27c2.34-0.59,4.25,0.55,4.73,2.2c0.59,2-0.3,4.49-2.56,4.89l-16.37,2.93l3.55,21.81
		c0.62,3.82,3.8,6.78,7.92,7.38c13.33,1.93,45.66,4.06,49.33-1.53c2.01-3.07-1.47-8.04-6.11-12.02c-2.41-2.06-2.96-5.43-1.63-8.86
		l11.42-29.33c8.62-7.76,19.7-13.41,23.95-25.2c-16.08,5.51-30.97,8.7-47.16,10.78c-47.75,6.12-95.64,5.66-143.42-0.34
		c-14.36-1.8-27.48-4.77-41.13-9.57c4.87,11.56,15.58,17.01,24.02,24.69c4.71,8.92,6.35,20.11,11.74,29.08
		c4.62,7.7-8.79,11.3-8.36,19.6c0.37,7.24,36.05,4.72,50.09,2.6c4.57-0.69,7.49-3.72,8.11-8.1l2.98-21.13l-17.08-2.86
		c-2.11-0.35-2.3-3.74-1.11-5.41C606.35,748.53,607.98,748.04,610.9,748.68z"/><path fill="#F1D483" d="M726.26,581.32c-31.78,19.36-78.13,20.59-114.64,15.21c-14.55-2.14-27.91-6.48-40.29-13.67
		c-36.69-21.31-34.38-63.44-12.79-97.34c11.99-18.84,29.2-32.41,50.68-39.47c61.35-20.17,133.81,9.67,144.54,76.1
		C757.86,547.65,748.13,568,726.26,581.32z M616.26,516.64c4.17-6.79,4.27-15.49,0.03-21.78c-1.94-2.88-4.86-4.43-7.79-4.44
		c-2.94-0.01-5.85,1.57-7.73,4.46c-4.16,6.4-4.38,15.11-0.4,21.6c1.95,3.19,4.92,4.96,8.14,4.87
		C611.3,521.28,614.3,519.82,616.26,516.64z M695.42,495.67c-1.88-3.57-5.25-5.53-8.83-5.37c-3.24,0.14-6.31,2-8.05,5.36
		c-3.38,6.51-3.38,14.87,0.68,20.95c2.03,3.04,5.09,4.59,8.24,4.45C696.3,520.67,701.18,506.62,695.42,495.67z M651.94,517.54
		c1.02,2.7,3.58,3.06,5.37,2.3c1.56-0.66,2.41-2.66,1.68-4.71c-1.83-5.14-6.48-8.2-11.46-8.13c-4.65,0.06-9.2,2.6-11.17,7.35
		c-1.01,2.43,0.16,4.81,2.35,5.42c4.97,1.36,4.87-6.55,9.73-5.84C649.93,514.15,651.14,515.42,651.94,517.54z M598.86,535.56
		c0-11.8-9.57-21.37-21.37-21.37c-11.8,0-21.37,9.57-21.37,21.37c0,11.8,9.57,21.37,21.37,21.37
		C589.3,556.93,598.86,547.36,598.86,535.56z M739.64,535.01c0-11.89-9.64-21.53-21.53-21.53s-21.53,9.64-21.53,21.53
		s9.64,21.53,21.53,21.53S739.64,546.9,739.64,535.01z M670.4,562.53c13.63-8.15,17.7-25.17,8.8-33.26
		c-3.2-2.91-8.89-4.83-13.81-3.69c-11.71,2.7-22.45,2.93-34.34,0.58c-5.46-1.08-11.52,0.91-14.84,4.48
		c-3.39,3.65-4.89,8.81-3.82,14.28C616.7,566.88,648.4,575.7,670.4,562.53z"/><path fill="#E8765E" d="M494.4,406.45c-35.01-6.91-72.53,0.41-106.3,12.6c-19.56,7.06-37.12,16.77-53.18,28.92
		c-9.02-54.16-14.64-138.83,25.94-179.19c7.28-7.24,18.3-10.8,28.54-9.22c36.39,5.62,63.61,48.06,78.92,80.14
		C478.75,361.54,487.2,383.58,494.4,406.45z"/><path fill="#E8765E" d="M328.37,452.41c-19.17-3.34-38.07-0.92-56.82,5.11c-20.48,6.59-39.58,15.16-56.23,28.76
		c-4.13,3.37-6.93,7.73-11.53,9.38c-2.84-47,8.83-93.94,33.57-134.39c26.1-42.66,66.38-75.27,113.95-92.81
		c-9.43,12.39-16.44,24.55-20.76,39.04c-7.22,22.6-9.54,45.59-9.39,69.52C321.4,402.73,324.03,427.44,328.37,452.41z"/><path fill="#E8765E" d="M631.45,380.09c-28.85-8.22-61.68-4.39-90.57,4.73c-14.52,4.58-27.22,11.53-38.97,20.54
		c-14.08-41.52-31.64-89.01-61.17-121.98c-11.01-12.29-23.38-21.52-38.53-28.48c30.96-4.58,60.59-3.31,89.6,5.29
		C551.44,277.86,605.42,325.29,631.45,380.09z"/><path fill="#93BE99" d="M795.33,608.58l-17.09,19.64l-2.67-8.78c-0.65-2.13-2.79-3.24-4.88-2.48
		c-1.41,0.52-2.7,2.43-2.17,4.66l4.18,17.5l-41.99,6.63c-66.99,7.78-133.21,7.12-198.9-6.37l6.6-21.73
		c0.78-2.55-1.06-4.91-3.16-5.19c-1.99-0.26-3.36,1.24-4.23,3.55l-1.69,4.48c-6.42-6.89-12.58-13.69-17.29-21.94
		c10.87-10.06,22.58-18.67,36.26-26.21c15.87,19.78,38.79,27.82,63.59,31.79c23.07,2.82,45.71,3.42,68.76,0.33
		c29.1-3.9,61.25-16.88,74.79-42.83C770.78,575.42,784.39,590.9,795.33,608.58z"/><path fill="#F1D483" d="M610.9,748.68c-2.92-0.64-4.55-0.15-5.62,1.35c-1.2,1.67-1.01,5.06,1.11,5.41l17.08,2.86
		l-2.98,21.13c-0.62,4.38-3.54,7.41-8.11,8.1c-14.04,2.12-49.72,4.65-50.09-2.6c-0.43-8.3,12.98-11.91,8.36-19.6
		c-5.39-8.97-7.03-20.17-11.74-29.08c-8.44-7.68-19.15-13.13-24.02-24.69c13.65,4.8,26.78,7.77,41.13,9.57
		c47.78,6,95.67,6.46,143.42,0.34c16.19-2.07,31.08-5.27,47.16-10.78c-4.25,11.79-15.33,17.44-23.95,25.2l-11.42,29.33
		c-1.33,3.43-0.78,6.8,1.63,8.86c4.64,3.98,8.12,8.95,6.11,12.02c-3.66,5.59-36,3.47-49.33,1.53c-4.12-0.6-7.3-3.56-7.92-7.38
		l-3.55-21.81l16.37-2.93c2.26-0.41,3.15-2.89,2.56-4.89c-0.49-1.65-2.39-2.8-4.73-2.2C669.37,754.24,634.8,753.92,610.9,748.68z"/><path fill="#FDFEFE" d="M476.08,632.62l-29.65-122.79c18.33-4.71,46.62-7.77,60.69,0.93c2,1.24,2.38,4.41,5.48,3.52
		c3.21-0.92,2.03-3.57,2.89-6.13c3.73-11.03,24.49-23.88,37.99-29.52c-16.44,27.25-26.07,59.24-9.57,87.71
		c-20.19,11.51-37.45,26.39-53.93,42.52c-2.11,2.06-1.44,4.85-2.21,6.95L476.08,632.62z"/><path fill="#E8765E" d="M710.31,372.9c-18.79-5.89-39.39-5.76-57.28,2.97l-12.01,7.16
		C608.2,315.38,551.83,266.49,477.71,249c57.39,1.64,112.74,19.63,159.81,51.43C666.4,319.95,690.5,345.13,710.31,372.9z"/><path fill="#93BE99" d="M775.23,650.9c1.67,7.82,2.73,15.55,2.35,23.47c-62.76,13.57-127.11,17.91-191.45,11.63
		c-21.17-2.07-40.79-5.42-60.6-11.33l3.39-24.46c28.23,6.06,56.46,10.01,85.67,11.22C668.25,663.63,723,661.1,775.23,650.9z"/><path fill="#E8765E" d="M197.3,505c-22.23-2.26-44.06,7.37-58.69,23.48c6.39-65.91,35.2-127.07,80.83-175
		c13.42-14.1,27.18-26.92,43.73-38.18c-2.36,5.94-7.01,8.65-10.81,13.15C210.87,377.46,190.18,441.09,197.3,505z"/><path fill="#E8765E" d="M377.54,521.24c-35.54-10.51-80.36-2.48-113.03,15.12c-2.78,1.5-4.62,3.58-7.4,3.43
		c-0.05-19.48,2.88-38.21,7.32-57.28c19.54-7.83,51.19-15.21,68.09-6.13c1.3,0.7,1.55,4.5,3.11,4.59c2.23,0.13,3.66-0.19,4.81-2.04
		c0.61-0.98-0.34-3.6-0.47-5.12c7.67-9.73,18.58-17.57,29.85-23.32C371.37,475.01,373.62,497.99,377.54,521.24z"/><path fill="#E8765E" d="M587.99,447.28c-29.04,5.06-60.39,17.15-81.51,38.57c-8.41-20.26-16.47-40-27.17-60.17
		c8.29,0.6,16.19,1.91,22.76,5.24c0.94,0.95,1.22,4.26,3.02,4.58c1.24,0.22,3.16,0.54,4.26-1.34c1.08-1.85,0.44-4.51,0.82-6.75
		c16.91-18.08,43.35-25.77,67.83-29.33c12.34,12.07,22.82,25.21,32.35,39.7C602.04,440.45,594.98,443.34,587.99,447.28z"/><path fill="#F1D483" d="M774.84,536.92c3.91-6.87,8.47-12.87,10.43-20.54l1.08-18c0.17-2.86,1.81-5.85,4.31-6.28
		c5.78-1,9.54,12.07,13.53,7.14c5.25-6.48,10.74-12.53,19.03-15.1c7.65-2.38,15.64-0.94,21.93,4.04c5.57,4.4,8.8,11.87,8.6,19.89
		c-0.83,25.79-20.85,50.44-37.58,70.4C803.43,563.2,790.41,550,774.84,536.92z"/><path fill="#93BE99" d="M777,686.27c-0.18,3.61-0.53,10.92-4.57,13.14c-11.73,6.47-24.54,9.76-38.18,12.07
		c-56.18,9.49-113.45,9.31-169.7,0.25c-12.31-1.98-23.9-4.95-34.4-10.97c-4.29-2.46-4.44-9.96-4.48-13.83
		c50.06,13.27,106.04,15.2,158.36,11.96C715.97,696.92,746.53,692.81,777,686.27z"/><path fill="#E8765E" d="M499.37,488.24c-19.18-4.13-38.7-2.23-57.67,1.67l-14.64-60.35c14.79-3.03,28.9-4.64,43.69-4.61
		C481.97,445.79,490.97,466.68,499.37,488.24z"/><path fill="#F6EDCD" d="M430.48,770.56c-13.11-11.45-19.68-36.55-6.07-38.08c11.11-1.25,8.78,11.54,14.48,19.58
		c3.9,5.51,9.69,8.76,15.68,9.14c6.93,0.44,13.24-2.39,17.75-8c5.08-6.33,6.32-14.91,4.33-22.97l-11.25-45.52
		c5.51-4.03,12.55-5.33,19.26-4.57l11.64,47.56c4.82,19.69-5.3,41.84-24.44,49.24C457.19,782.59,441.91,780.54,430.48,770.56z"/><path fill="#F6EDCD" d="M777.58,674.37L777,686.27c-30.48,6.54-61.03,10.65-92.98,12.62
		c-52.32,3.24-108.3,1.31-158.36-11.96l-0.13-12.27c19.8,5.92,39.42,9.26,60.6,11.33C650.47,692.28,714.83,687.94,777.58,674.37z"/><path fill="#F6EDCD" d="M772.71,639.11l2.53,11.79c-52.23,10.2-106.98,12.74-160.64,10.53
		c-29.21-1.2-57.44-5.15-85.67-11.22l2.9-10.84c65.69,13.49,131.91,14.15,198.9,6.37L772.71,639.11z"/><path fill="#93BE99" d="M494.4,406.45l4.92,15.62c-38.63-9.96-85.64-0.04-121.09,16.11c-15.02,6.84-28.26,14.97-40.06,26.43
		l-3.25-16.64c16.06-12.16,33.62-21.86,53.18-28.92C421.87,406.87,459.4,399.54,494.4,406.45z"/><path fill="#E8765E" d="M417.14,499.81c-12.04,4.09-22.52,11.16-32.59,18.9c-3.9-23.68-6.28-47.2-7.66-71.76
		c8.18-4.3,16.24-7.51,25.13-10.45L417.14,499.81z"/><path fill="#93BE99" d="M328.37,452.41l2.64,15.16c-12.06-2.68-23.62-3.15-35.84-1.07c-31.75,5.41-68.5,21.38-89.04,47.05
		l-2.33-17.89c4.6-1.65,7.4-6.01,11.53-9.38c16.65-13.6,35.75-22.17,56.23-28.76C290.3,451.48,309.2,449.07,328.37,452.41z"/><path fill="#F1D483" d="M497.13,699.39l-5.57-20.85c-0.78-2.92-4.57-4.21-5.22-6.67l-7.58-28.72l13.54-20.21
		c8.49,11.11,17.7,20.67,28.8,29.12c-1.34,7.88-2.88,14.95-2.65,23.18C512.64,684.06,506.79,692.74,497.13,699.39z"/><path fill="#E8765E" d="M249.78,542.66c-30.07-12.91-63.78-11.22-94.84-3.09c11.61-10.44,32.27-18.13,44.9-11.38
		c1.61,0.86,1.95,3.89,3.71,3.96c8.12,0.33,1.99-5.55,7.19-12.5c11.73-15.67,27.9-26.17,45.67-33.5
		C252.14,505.84,250.39,523.84,249.78,542.66z"/><path fill="#E8765E" d="M701.47,389.89c-26.76,8.72-51.4,21.41-69.21,43.39l-14.47,2.37c-9.19-13.54-18.54-25.78-30.07-38.2
		c15.4-2.1,46.35,0.49,55.11,9.88c1.18,1.26,1.13,4,3.25,4.17c1.69,0.14,3.13-0.16,4.09-1.11c1.1-1.09-0.08-4.17,0.64-5.44
		C658.73,391.01,683.81,386.7,701.47,389.89z"/><path fill="#93BE99" d="M377.54,521.24l2.33,13.84c-31.1-12.32-72.84-4.83-103.1,8.56c-7.29,3.23-13.24,6.99-19.62,11.61
		l-0.04-15.47c2.78,0.15,4.62-1.93,7.4-3.43C297.17,518.76,341.99,510.73,377.54,521.24z"/><path fill="#93BE99" d="M249.78,542.66l-0.33,13.06c-31.16-15.83-75.89-11.46-107.65,1.42c3-7.1,7.65-12.63,13.14-17.57
		C185.99,531.44,219.7,529.75,249.78,542.66z"/><path fill="#93BE99" d="M632.26,433.28c17.81-21.98,42.45-34.66,69.21-43.39c7.25,1.31,13.44,4.09,20,8.13l-16.97,3.56
		c-20.37,6.5-38.98,16.69-55,30.99L632.26,433.28z"/><path fill="#93BE99" d="M587.99,447.28c-9.07,4.99-16.75,11.28-23.75,18.94c-19.77,6.81-38.55,16.26-52.26,32.82l-5.5-13.2
		C527.6,464.43,558.95,452.33,587.99,447.28z"/><path fill="#93BE99" d="M803.24,599.61l-15.03-19.85c-8.13-10.85-17.3-20.28-27.4-28.97l7.86-9.06
		c17.07,13.68,31.98,28.71,44.73,45.88L803.24,599.61z"/><path fill="#93BE99" d="M197.3,505l1.66,14.87c-23.97-5.02-47.04,7.96-60.81,27.72c-0.88-7.09-0.18-12.57,0.46-19.11
		C153.25,512.37,175.07,502.74,197.3,505z"/><path fill="#93BE99" d="M499.37,488.24l4.89,13.16c-11.31-3.08-22.12-4.85-33.25-3.06l-26,4.19l-3.31-12.62
		C460.67,486.01,480.19,484.11,499.37,488.24z"/><path fill="#F6EDCD" d="M803.24,599.61l-7.91,8.96c-10.94-17.67-24.55-33.16-39.87-46.95c1.83-3.52,2.63-7.71,5.34-10.83
		c10.1,8.68,19.27,18.12,27.4,28.97L803.24,599.61z"/><path fill="#93BE99" d="M417.14,499.81l2.67,11.92c-12.2,5.54-23.42,11.82-32.56,21.43l-2.7-14.45
		C394.62,510.96,405.1,503.9,417.14,499.81z"/><path fill="#93BE99" d="M525.58,632.67l-3.03,11.12c-10.6-8.14-19.59-18.1-27.1-29.47l8.38-8.16
		C509.41,616.07,517.43,624.26,525.58,632.67z"/><path fill="#F6EDCD" d="M529.35,620.48l-3.77,12.19c-8.16-8.4-16.17-16.6-21.75-26.51l8.24-7.62
		C516.78,606.79,522.94,613.59,529.35,620.48z"/><path fill="#F6EDCD" d="M381.38,251.58l-12.8,3.55c-1.96-8.45-2.93-19.76,1.13-20.97c1.56-0.46,3.21,0.38,4.45,1.71
		C377.27,240.63,379.47,245.35,381.38,251.58z"/><path fill="#93BE99" d="M631.45,380.09l6.79,14.29c0.1,0.21,0.27,0.4,0.39,0.47c0.98,0.83-0.31,2.04-1.01,0.87
		c-0.08-0.05-0.27-0.09-0.46-0.03c-31.25-11.04-72.51-6.15-103.39,7.01c-10.19,4.35-18.78,10.09-26.74,17.77l-5.12-15.11
		c11.75-9,24.45-15.96,38.97-20.54C569.77,375.7,602.6,371.87,631.45,380.09z"/><path fill="#93BE99" d="M710.31,372.9l9.32,14.29c0.05,0.14,0.09,0.29,0.15,0.34c1.33,0.76-0.03,2.16-0.91,1.08l-0.47-0.38
		c-22.75-10.57-52.18-8.71-71.02,9.05l-6.36-14.25l12.01-7.16C670.93,367.14,691.52,367.01,710.31,372.9z"/><path fill="#0C0B0A" d="M670.4,562.53c-22.01,13.16-53.71,4.34-58.01-17.61c-1.07-5.48,0.43-10.63,3.82-14.28
		c3.32-3.57,9.38-5.56,14.84-4.48c11.89,2.35,22.63,2.11,34.34-0.58c4.92-1.13,10.61,0.78,13.81,3.69
		C688.1,537.36,684.03,554.38,670.4,562.53z M671.13,552.73c-13.68-12.28-32.77-10.96-45.21,1.46
		C639.54,563.86,658.31,564.12,671.13,552.73z"/><path fill="#0C0B0A" d="M695.42,495.67c5.76,10.95,0.88,25-7.96,25.39c-3.15,0.14-6.21-1.41-8.24-4.45
		c-4.07-6.08-4.06-14.45-0.68-20.95c1.74-3.35,4.81-5.21,8.05-5.36C690.17,490.14,693.54,492.1,695.42,495.67z"/><path fill="#0C0B0A" d="M616.26,516.64c-1.96,3.19-4.95,4.65-7.75,4.72c-3.23,0.08-6.19-1.69-8.14-4.87
		c-3.97-6.48-3.75-15.2,0.4-21.6c1.88-2.89,4.8-4.47,7.73-4.46c2.93,0.01,5.85,1.56,7.79,4.44
		C620.53,501.15,620.43,509.85,616.26,516.64z"/><path fill="#0C0B0A" d="M651.94,517.54c-0.8-2.12-2-3.39-3.51-3.61c-4.86-0.7-4.76,7.21-9.73,5.84
		c-2.2-0.6-3.36-2.99-2.35-5.42c1.97-4.75,6.52-7.29,11.17-7.35c4.98-0.07,9.64,2.99,11.46,8.13c0.73,2.05-0.12,4.05-1.68,4.71
		C655.52,520.61,652.96,520.25,651.94,517.54z"/><path fill="#E8765E" d="M671.13,552.73c-12.82,11.39-31.58,11.13-45.21,1.46C638.36,541.77,657.45,540.46,671.13,552.73z"/></svg>