<svg xmlns="http://www.w3.org/2000/svg" viewBox="0 0 1024 1024"><path fill="#282621" d="M572.68,872.79c-10.34-17.09-17.33-43.6-8.37-61.03c-3.03-3.51-4.55-7.29-6.51-11.53
		c-6.7-14.44-18.7-25.28-33.46-31.68c-29.1-12.61-62.04-16.69-92.01-5.48c-8.82,3.71-16.16,8.86-23.32,15.02
		c-6.55,10.93-19.43,32.92-28.52,35.02c-7.38,1.7-15.11-0.38-22.01-3.84c-18.32-9.19-34.43-22.79-45.94-39.44
		c-6.06-8.77-5.96-18.04,0.2-26.03c9.57-12.42,25.56-16.25,39.51-7.08l7.05-7.39c13.94-21.65,27.03-44.92,56.75-40.92
		c-10.67-29.82-5.76-60.04,8.74-87.68c-18.1-28.3-32.29-60.1-41.17-92.55c-11.57,8.5-24.72,8.83-36.15,2.2
		c-17.99-10.44-20.32-32.88-8.82-50.74c3.38-5.26,9.37-6.62,14.38-4.04c5.43,2.8,7.48,9.25,4.48,15.03
		c-1.84,3.54-3.88,7.12-4.01,11.32c-0.16,5.33,3.04,9.37,7.82,10.62c3.25,0.85,10.83-0.98,10.73-5.15c-0.9-3.3-4.05-6.23-3.45-9.68
		c0.54-3.18,2-6.03,5.2-8.54c-1.75-6.23,0.97-11.42,6.38-14.18c0.76-7.8,7.22-12.61,14.86-11.28c5.83,0.81,4.39-5.83,11.74-8.84
		c3.32-3.68,4.71-8.72,7.09-13.18l30.97-57.92l20.57-37.7c-11.92-4.16-23.32-5.93-35.41-5.42c-2.5,0.1-2.32,5.37-6.2,4.8
		c-1.4-0.21-1.94-2.65-1.1-3.7c2.72-3.43,1-4.85-0.72-7.7c-15.38-25.42-41-41.8-71-42.83c-4.98-0.17-5.87,6-8.76,4.01
		c-3.1-2.13,2.88-6.23,2.06-8.14c-6.78-15.64-18.14-27.86-32.1-37.29c-7.69-5.19-15.43-9.42-24.47-11.86
		c-4.7-1.27-5.64,6.17-9.56,3.47c-0.92-0.64-1.02-2.73,0.28-4.09c13.31-13.98,28.5-24.89,45.35-34.6
		c28.47-16.4,59.39-25.42,92.25-28.76c46.06-4.69,91.48,3.71,132.57,24.79c4.75-8.14,9.68-14.26,15.94-10.87
		c5.45,2.95,2.14,10.83-2.4,18.7c62.18,38.59,106.55,109.47,108.53,183.38c0.58,21.74-1.42,42.54-7.39,63.26
		c-0.33,1.15-1.29,1.54-1.83,1.76c-0.87,0.35-3.04-0.11-2.82-1.4l1-5.68c-14.1-15.46-41.13-25.85-61.68-22.31
		c-2.45,0.42-1.58,7.1-5.26,6.02c-3.43-1,1-6.49-0.62-8.54c-18.14-22.93-46.69-35.81-75.94-35.85c-0.61,3.08-2.97,6.53-5.13,4.75
		c-1.78-1.47,0.11-5.19,1.51-7.05c-8.46-13.07-19.08-23.71-32.65-31.89L420.75,442.8c1.38,4.47-0.61,7.61-3.28,11.49
		c5.77,3.44,8.68,9.28,8.09,15.72l-0.99,10.78c7.68,13.69,13.5,27.49,23.57,40.11c-0.73-26.85,11.51-48.88,31.59-64.25
		c34.62-25.81,82.69-27.44,118.39-2.76c27.49,19,40.82,50.79,38.48,84.65c13.51-11.71,25.63-23.16,36.84-36.07
		c1.48-1.89,0.84-5.84,1.17-7.92c1.46-9.1,8.17-14.59,17.61-13.93c2.67-5.61,5.99-10.6,11.57-12.56c6.62-2.28,12.56,0.47,15.09,7.03
		c7.55-0.63,13.06,4.52,13,12.01c6.26,1.3,9.59,5.79,9.01,11.97c-0.48,5.17-3.24,9.34-7.12,12.83c-2.65,9.29-9.05,16.13-18.04,19.61
		l-24.37,34.94l-46.19,55.8c5.41,39.25,4.6,83-16.43,117.63c8.51,24.62,13.01,49.1-1.65,71.17c-1.06,4.58-0.64,10.53-3.47,14.97
		c11.11,17.15,13.77,44.2-2.19,56.45C605.66,894.6,583.29,890.33,572.68,872.79z M349.63,229.37
		c15.22-17.45,31.59-29.92,50.64-40.11c33.6-17.87,70.55-24.52,109.06-21.51c-56.82-19.32-126-11.71-178.93,16.51
		c-12.87,7.43-24.78,14.53-35.91,24.69C318.28,207.75,334.82,211.42,349.63,229.37z M428.72,263.04c14-21.81,29.06-40.5,48.37-55.83
		c17.88-14.53,37.66-23.78,61.2-28.16c-14.24-5.81-28.26-7.33-42.96-7.68c-38.12-0.91-75.41,9.8-107.39,30.38l-15.68,11.41
		c-6.62,4.82-11.82,10.69-17.58,17.03C383.74,229.76,410.63,241.35,428.72,263.04z M558.87,184.07l3.87-9.3
		c0.49-1.17,0.13-2.6-0.68-3.3c-2.02-1.77-6.67,3.84-9.93,9.11C554.6,182.05,556.24,183.63,558.87,184.07z M535.64,321.48
		c6.29-11.95,10.91-22.77,15.49-34.52c6.58-17.93,10.99-35.78,12.52-54.93c0.37-14.18,0.21-28.72-6.33-41.57
		c-3.5-6.87-13.18-7.63-20.14-6.44c-44.36,7.24-79.89,42.36-103.86,80.33C474.41,265.28,514.61,287.76,535.64,321.48z M590.6,344.88
		c9.78,6.86,16.36,14.88,22.67,25.5c4.74-15.87,8.36-30.45,8.96-46.48c1.75-47.53-18.51-101.97-58.33-130.69
		c2.05,9.36,3.96,17,4.05,25.83c1.34,38.19-11.8,72.15-28.76,105.89C558.86,326.66,575.41,333.62,590.6,344.88z M350.64,234.8
		c-1.45,2.27-2.63,4.51-4.6,5.26c-1.2,0.46-2.28-0.97-2.27-1.6c0.05-2.68,2.52-4.11,2.32-5.9c-0.11-0.95-0.8-1.97-1.79-3.02
		c-12.87-13.55-32.69-19.83-50.92-14.97c24.25,10.15,43.5,26.37,54.83,49.86c9.32-10.27,19.05-18.98,30.07-27.01
		C368.9,234.85,360.36,234.23,350.64,234.8z M596.06,219.6c0.54,0.8,1.34,0,0.54-0.54L596.06,219.6z M597.4,220.94l0.54-0.54
		C597.4,219.6,596.6,220.4,597.4,220.94z M662.68,416.48c14.3-72.26-12.42-145.19-64.71-195.61c7.34,15.43,15.98,27.47,19.84,43.16
		c12.63,36.22,11.61,74.42-1.52,111.05C639.59,379.77,653.58,396.54,662.68,416.48z M430.93,269.09l-4.2,5.65
		c-0.8,1.08-2.73,0.26-3.12-0.64c-0.96-2.21,2.36-4.6,2.19-6.49c-0.08-0.89-0.85-1.83-1.67-2.8
		c-10.48-12.49-24.39-21.02-40.36-25.98c-11.27,8.54-22.26,17.01-31.57,27.94c33,1.68,59.68,20.28,75.28,47.61
		c9.87-15.2,20.02-28.58,30.89-42.13C449.08,269.51,440.34,268.69,430.93,269.09z M467.55,322.02l20.6-38.03
		c-8.25-5-16.3-8.1-24.91-10.49c-11.81,13.78-21.7,27.49-31.55,42.59C444.54,316.27,456.02,318.05,467.55,322.02z M491.98,285.74
		l-81.94,151.43l6.95,3.76l81.94-151.43L491.98,285.74z M527.43,324.9c1.79-3.74,0.82-7.06-1.58-9.77
		c-6.96-8.42-14.51-16.15-23.73-22.63l-20.42,36.76c13.91,7.7,23.83,17.9,33.14,30.81C520.46,348.19,523.51,336.88,527.43,324.9z
		 M594.17,398.39c3.5-13.65,4.77-25.99,5.34-39.73c-16.69-16.94-39.14-27.98-62.85-29.59c-1.31,3.91-4.38,5.2-7.48,5.9l-10.43,27.91
		C548.2,363.69,574.68,375.73,594.17,398.39z M613.23,382.26c-0.32,1.66-1.56,2.35-2.75,2.12c-1.32-0.25-2.04-1.62-1.37-3.22
		l1.78-4.24c-1.37-4.32-3.13-8.31-6.92-11.32c-1.06,12.55-2.7,23.62-5.8,35.53c22.6-2.6,41.08,4.92,60.22,18.47
		c-3.58-11.36-10.33-20.11-18.25-27.71C631.64,384.21,614.49,375.69,613.23,382.26z M412.39,453.94c2.7-2.84,3.49-4.98,4.14-7.93
		c-3.23-2.27-6.41-5.47-10.44-5.17c-1.8,0.14-3.28,3.44-3.45,4.83C406.77,447.79,408.76,450.3,412.39,453.94z M569.23,577.33
		c23.52-5.86,43.91-18.41,61.98-34.39c7.15-44.86-20.24-86.56-63.93-98.65c-35.23-9.75-73.97,1.03-98.31,28.46
		c-19.73,25.53-22.85,55.1-0.98,79.37C491.51,578.2,535.54,585.72,569.23,577.33z M400.13,459.54l6.27-5.53
		c-3.55-4.95-9.42-6.77-15.25-5.86c-3.54,0.55-6.16,3.18-6.27,6.63C390.77,454.53,395.39,456.2,400.13,459.54z M447.55,571.02
		c0.15,0.62,0.46,1.52,0.03,2.68c-11.5,13.33-19.93,28.34-25.89,45.76c9.24-3.7,17.14-8.24,24.24-14.69
		c4.71-16.76,11.08-32.06,21.18-46.95c-7.66-7.57-12.4-15.97-16.36-25.52l-5.31-6.79c-10.02-14.38-18.22-29.44-25.57-45.34
		c2.71-9.64,1.68-20.37-5.1-22.56c-2.23-0.72-4.78-0.31-6.91,1.23c-11.37,8.2-12.33,20.45-7.16,19.8
		c9.01-1.12,10.03-14.77,13.71-7.59c-2.09,5.64-5.99,9.85-11.88,11.55c-4.08,8.28-8.7,15.52-15.06,22.23
		c5.29,21.1,13.18,40.06,22.21,59.34l17.33,31.63C432.5,585.8,446.06,564.97,447.55,571.02z M379.37,488.71
		c-4.3,1.98-6.67,6.43-10.99,7.62c-4.99,1.38-9.73,1.25-13.84-2.17c-7.33-6.1-6.29-15.76-1.22-24.82c1.74-3.11,1.57-6.12-0.13-8.22
		c-2.02-2.5-5.97-3.73-8.51-1.49c-11.01,9.69-13.79,35.69,4.75,46.72c16.39,9.75,34.96,1.75,43.68-16.64
		C388.66,490.89,382.96,487.26,379.37,488.71z M393.53,471.86l4.42-8.29c-4.38-3.73-10.63-5.69-16.25-3.92
		c-3.74,1.18-5.2,5.31-4,8.57C383.89,467.74,388.96,468.89,393.53,471.86z M394.81,483.2c0.31-1.15,0.23-3.06-0.72-4.39
		c-4.07-5.71-11.84-8.13-18.52-5.23c-2.73,1.19-3.6,7.22-0.7,8.41C382.34,485.06,393.56,487.75,394.81,483.2z M710.07,488.38
		c2.3-3.66,3.19-6.16,4.18-9.45c0.39-2.39-0.25-4.75-1.71-6.01c-4.27-3.67-12.64-0.03-15.71,8
		C702.14,482.54,706.02,484.59,710.07,488.38z M716.57,503.12c9.17-5.63,13.99-16.46,8.25-22.34c-1.09-1.12-4.78-2.4-5.68-0.96
		l-5.64,11.69l-3.46,9.83C709.29,503.51,714.23,504.56,716.57,503.12z M713.93,527.86c5.15-4,11.09-4.96,13.31-12.38
		c-6.92,2.19-9.11-3.65-12.45-6.99c-2.54-1.57-7.98-1.03-10.26-5.66c1.08,6.2,2.69,10.42-0.55,14.77c-5.33,0.52-0.57-5.3-4.17-12.67
		c-1.66-3.41-10.27-4.06-8.24-7.04c1.97-2.89,8.19,2.73,14.63-0.76c1.76-0.95,2.11-4.21,0.51-5.89c-5.22-5.48-13.56-7.93-20.92-5.54
		c-4.01,1.3-6.3,5.5-6.72,9.4l-0.97,8.96c-14.59,16.73-30.5,31.28-47.52,45.44c-10.63,8.85-21.3,16.06-33.74,22.35
		c-6.25,16.53-9.89,33.28-10.13,50.93c11.67,21.41,32.28,36.14,56.51,40.14c1.1-12.88-0.28-23.98-1.6-35.38
		c-2.16,0.56-2.42,1.88-3.02,3c-0.93,1.74-2.85,2.18-4.47,0.93c-0.92-0.71-1.12-2.45,0.39-4.11c24.07-26.35,46.03-53.79,67.28-82.51
		C705.94,539.27,708.52,532.07,713.93,527.86z M725.67,511.09c5.99-1.27,10.22-6.63,10.95-12.22c0.46-3.48-1.2-6.52-4.89-7.58
		c-3.26,10.18-12.98,14.61-11.14,17.72C721.35,510.3,723.16,511.62,725.67,511.09z M469.52,614.86
		c3.08-15.91,7.55-30.22,13.74-44.67l-13.09-9.43c-9.71,16.05-16.97,32.42-21.25,50.33c-1.34,5.98,1.42,13.02,7.6,14.25
		C463.05,626.65,468.25,621.42,469.52,614.86z M564.38,582.19c-19.17,19.4-45.74,21.78-66.59,8.14c-5.52-4.75-9.61-9.72-11.29-16.59
		c-4.87,10.48-7.68,20.37-10.05,31.61l80.24,10.59C557.64,603.86,562.29,593.71,564.38,582.19z M554.43,584.78
		c-18.84,1.3-35.87-1.04-53.42-6.08l-9.73-3.51C501.78,597.08,534.82,600.12,554.43,584.78z M569.53,643.06
		c7.05,0.57,10.77-6.27,11.46-11.98l4.32-35.81l5.83-20.45l-21.07,7.11c-5.59,15.01-9.45,29.7-10.78,45.48
		C558.72,634.05,561.55,642.41,569.53,643.06z M507.89,757.71c27.78,8.08,47,20.67,57.36,47.94c6.97,9.5,18.11,14.4,29.26,14.78
		c11.66,0.07,22.49-4.57,29.83-14.17c6.07-9.29,8.21-20.08,7.72-31.34c-0.67-12.26-3.82-23.39-8.29-35.26
		c12.89-22,19.53-46.83,19.25-72.19c-24.3-3.75-43.94-17.22-56.95-37.11c-1.47,10-7.7,16.97-16.98,17.38
		c-8.77-1.36-14.47-8.89-14.19-17.75l0.31-9.71l-79.98-10.57c-1.84,13.03-7.65,21.65-20.03,19.98c-7.06-2.57-11.44-8.87-11.22-17.19
		c-7.89,5.68-15.56,9.43-24.45,12.85c-6.64,22.2-6.51,44.95,2.64,66.27c-2.64,1.69-5.42,1.23-8.07,0.92
		c-24.97-2.83-38.69,18.65-50.46,39.56c19.81,7.25,35.25,20.95,44.75,40.46C434.65,749.1,474,747.86,507.89,757.71z M402.97,779.96
		c1.58-2.36,1.77-4.71,0.38-7.42c-8.74-17.01-23.55-29.92-41.61-36.26c-1.81-0.63-3.36,0.25-3.88,1.26
		c-1.21,2.33,3.95,4.23,3.16,5.9c-2.34,4.95-6.26-2.48-15.59-5.88c-7.56-2.76-15.66-2.58-22.28,2.14
		c8.36,1.06,15.46,4.04,22.32,8.85c12.13,8.5,23.29,17.72,32.98,28.97c5.48,5.93,9.88,12.08,13.15,19.46L402.97,779.96z
		 M384.8,804.79c4.43-2.47,3.53-5.28,2.37-7.93c-9.82-17.48-27.7-33.22-44.14-44.81c-9.53-6.72-26.03-12.6-28.07-2.99
		c7.65-1.15,14.31,1.31,20.84,5.35c14.49,8.96,26.44,21.13,38.19,33.56C378.71,792.96,382.09,798.15,384.8,804.79z M341.23,792.92
		l21.99-10.31l-21.13-18.68c-11.22-9.92-29.11-14.08-29.75-7.92c-0.68,6.5,4.42,11.91,7.6,16.94
		C326.33,780.37,332.83,786.91,341.23,792.92z M379.96,803.62c-3.33-7.11-8.39-12.01-13.93-17.23l-20.56,9.97
		c9.37,8.02,31.61,17.31,35.01,11.72C380.99,807.24,380.64,805.31,379.96,803.62z M621.4,830.77c-2.2,1.58-3.53,0.86-3.98,0.26
		c-1.67-2.19,4.1-7.75,4.3-15.58c-15.56,12.84-37.41,12.35-53.78,0.01c1.46,17.01,5.8,32.47,14.05,46.38
		c6.83,11.93,20.23,16.16,32.65,10.81c9.52-4.1,15.03-13.1,13.23-23.51C626.73,842.6,624.72,836.39,621.4,830.77z M622.07,874.23
		c-17.77,9.52-35.38,5.12-44.37-11.04c-6.28-11.28-9.64-23.12-13.4-35.45c-0.02,14.04,3.64,27.09,9.79,39.14
		c4.59,8.99,12.2,15.33,21.58,18.1C605.93,885.31,617.28,884.19,622.07,874.23z"/><path fill="#282621" d="M342.3,395.92c-6.65-4.06-16.25-12.14-15.78-15.23c0.56-3.72,16.09-9.65,12.51-32.33l17.91,2.9
		c2.58,0.42,3.71,2.21,3.91,4.77C362.02,371.6,355.21,386.2,342.3,395.92z M342.28,390.21c9.94-9.16,15.1-21.25,14.13-34.3
		l-12.63-2.42c1.32,11.32-4.23,19.87-11.78,27.5C334.78,384.78,338.14,387.72,342.28,390.21z"/><path fill="#282621" d="M747.03,670.14c-3.79,4.67-8.28,9.13-13.33,12.57c-2.13,1.45-4.58-1.15-5.9-2.45
		c-10.68-10.61-17.13-24.77-14.54-39.99l17.76-4.2c0.96-0.23,2.24,0.31,2.65,0.73c1.77,1.82-2.98,17.31,12.26,28.34
		C747.51,666.28,748.53,668.29,747.03,670.14z M742.65,668.47c-8.72-7.33-13.81-16.41-12.89-27.46l-12.45,2.57
		c-1.01,13.56,5.1,25.94,15.27,34.48L742.65,668.47z"/><path fill="#282621" d="M309.03,299.54c-4.14,4.2-8.91,7.01-14.26,9.82c-15.52-9.59-22.8-39.03-14.78-41.27l16.2-4.53
		c0.91-0.26,1.94,0.1,2.37,0.42c3.03,2.28-5.44,15.59,8.93,29.67C308.8,294.94,311.05,297.49,309.03,299.54z M303.96,296.5
		c-8.2-7.79-11.16-17.1-9.58-27.67l-12.73,4.12c-0.94,12.15,5.23,23.06,13.69,30.73C299.09,301.51,302.24,300.45,303.96,296.5z"/><path fill="#282621" d="M710.53,295.03c-8.97-5.63-18.07-10.81-12.88-15.29c15.53-13.42,10.29-29.49,12.58-30.98
		c2.54-1.66,14.1,4.18,20.98,8.32C730.5,272.26,722.95,286.83,710.53,295.03z M711.29,289.43c8.54-8.71,14.06-18.78,14.96-30.01
		l-12.43-5.81c0.6,11.97-4.39,21.34-12.76,28.95C704.54,285.74,707.17,288.28,711.29,289.43z"/><path fill="#282621" d="M500.27,841.19l-17.03-7.47c-1.15-0.51-1.84-1.64-1.98-2.37c-0.26-1.34,0.37-2.58,1.42-3.74
		c12.92-14.3,8.53-25.48,9.03-27.65c1-4.35,12.91,0.25,21.11,4.64C514.48,817.68,509.6,830.75,500.27,841.19z M498.7,836.13
		c6.83-8.42,10.52-18.02,9.92-28.63c-3.97-1.83-7.3-3.3-12.22-4.15c1.03,10.8-3.34,18.71-9.61,26.53L498.7,836.13z"/><path fill="#282621" d="M265.02,508.9c-2.1,1.4-4.28,0.61-5.74-1.15l-9.09-10.89c-0.77-0.92-0.93-2.17-0.81-3.22
		c0.12-1,1.23-1.99,2.55-2.64c15.44-7.64,14.04-20.57,15.51-22.17c2.4-2.62,12.67,3.32,18.41,8.43
		C283.19,490.41,275.95,501.6,265.02,508.9z M263.16,505.19c9.18-7.25,15.63-16.12,17.33-26.74l-9.51-4.98
		c-2.18,9.95-7.89,16.86-16.64,21.45L263.16,505.19z"/><path fill="#282621" d="M774.32,429.59l-7.15,17.83c-11.54,2.16-22.72-2.5-31.5-10.09c-2.64-2.29-3.42-5.05-1.45-8.22
		l7.25-11.64c0.78-1.25,1.85-1.96,3.01-1.95c1.23,0.01,1.99,0.93,2.88,2.11c9.22,12.15,24.15,7.73,26.29,9.2
		C774.23,427.22,774.76,428.47,774.32,429.59z M764.16,443.36l4.56-12.66c-10.1,0.66-18.03-2.66-24.31-9.17l-6.78,11.34
		C744.84,439.84,754.01,443.95,764.16,443.36z"/><path fill="#282621" d="M710.29,759.79l-15.16,10.36c-10.5-8.75-14.55-22.16-13.47-35.43l14.58-4.13
		c6.2-1.76,0.22,14.66,13.87,24.32C711.57,755.96,712.27,758.44,710.29,759.79z M705.48,757.01c-6.8-6.21-9.22-13.09-10.15-21.42
		l-9.75,2.61c0.23,9.71,3.35,19.28,10.04,26.44C699.59,762.2,703.01,760.26,705.48,757.01z"/><path fill="#282621" d="M721.72,388.63l-12.43-6.93c-1.18-0.66-1.86-1.66-2.06-2.38c-1.25-4.44,12.26-9.22,10.59-27.67
		c6.36-1.17,12.66,0.25,18.22,3.32C738.66,368.55,727.67,391.95,721.72,388.63z M723.3,384.17c5.96-8.27,8.89-17.12,8.42-26.5
		l-9.09-1.95c-0.57,8.88-3.91,15.96-10.23,22.32L723.3,384.17z"/><path fill="#282621" d="M365.95,610.6l-14.32,12.53c-11.34-7.68-16.94-21.4-15.77-34.93l14.3-4.58
		c5.9-1.89,0.22,13.23,15.12,23.16C366.22,607.4,367.26,609.44,365.95,610.6z M360.67,608.87c-7.23-5.45-9.92-12.19-11.52-20.2
		l-9.14,2.7c0.37,10.07,4.16,19.46,11.64,26.14C355.32,614.79,358.95,612.91,360.67,608.87z"/><path fill="#282621" d="M488.48,430.28l-11.74-13.02c-0.6-0.67-1.06-3.28-0.51-4.12c8.82-3.91,14.08-11.03,16.02-21.08
		c6.18,2.08,11.43,4.72,16.41,8.51C507.07,413.07,499.58,423.32,488.48,430.28z M489.51,424.59c7.56-6.01,12.75-13.46,14.13-22.24
		l-8.36-4.37c-2.16,7.43-6.97,13.49-13.99,17.65C483.99,419.18,485.82,421.99,489.51,424.59z"/><path fill="#9CC0A0" d="M507.89,757.71c-33.89-9.85-73.24-8.61-99.54,14.87c-9.5-19.51-24.93-33.21-44.75-40.46
		c11.77-20.91,25.49-42.39,50.46-39.56c2.65,0.3,5.43,0.77,8.07-0.92c-9.15-21.32-9.28-44.07-2.64-66.27
		c8.89-3.43,16.56-7.17,24.45-12.85c-0.22,8.32,4.16,14.63,11.22,17.19c12.38,1.67,18.19-6.94,20.03-19.98l79.98,10.57l-0.31,9.71
		c-0.28,8.87,5.42,16.39,14.19,17.75c9.28-0.41,15.51-7.38,16.98-17.38c13.01,19.89,32.66,33.36,56.95,37.11
		c0.29,25.36-6.36,50.19-19.25,72.19c4.47,11.87,7.63,23.01,8.29,35.26c0.49,11.26-1.65,22.05-7.72,31.34
		c-7.34,9.6-18.17,14.24-29.83,14.17c-11.15-0.39-22.29-5.28-29.26-14.78C554.89,778.39,535.67,765.79,507.89,757.71z
		 M543.87,661.93c2.62-6.96,3.79-14.23,3.22-21.9l-72.38-9.3c-2.92,9.17-3.45,18.95-0.3,28.08c5.12,14.84,18.93,24.4,34.52,25.4
		C524.5,685.21,538.39,676.49,543.87,661.93z"/><path fill="#F6D787" d="M569.23,577.33c-33.69,8.39-77.72,0.87-101.23-25.22c-21.88-24.27-18.75-53.84,0.98-79.37
		c24.33-27.43,63.08-38.21,98.31-28.46c43.7,12.09,71.09,53.79,63.93,98.65C613.14,558.92,592.75,571.47,569.23,577.33z
		 M507.24,475.68c-0.48-3.06-2.6-5.12-4.9-5.4c-2.45-0.29-4.85,0.36-6.73,2.52c-8.02,9.25-6.35,25.4,0.98,25.83
		C503.78,499.06,508.89,486.27,507.24,475.68z M576.24,486.77c-0.85-2.93-3.54-4.76-5.77-4.91c-2.49-0.16-4.86,0.95-6.42,3.25
		c-6.85,10.17-4.68,24.74,1.73,25.55C573.64,511.65,579.44,497.78,576.24,486.77z M521.39,500.49c-0.44-1.66,0.13-3.29,1.53-4.12
		c2.8-1.67,7.8,2.55,9.25-0.13c1.59-2.94,2.5-6.53,2.38-9.83c-0.05-1.21-2.23-1.73-2.96-1.36c-2.5,1.27-1.5,7.28-3.37,7.1
		c-3.57-0.34-6.36-0.71-8.91,1.63c-1.54,1.41-2.58,4.14-1.98,7.33c0.89,4.71,6.63,8.03,11.27,6.6c1.31-0.4,1.3-2.4,0.88-3.03
		C528.52,503.29,522.53,504.82,521.39,500.49z M485.1,511.84c2.86-0.93,4.25-3.01,4.61-4.65c1.58-7.02-9.94-15.18-20.29-12.83
		c-4.55,1.03-7.35,6.04-4.85,10.27C468.57,511.37,477.45,514.34,485.1,511.84z M557.91,529.59c0.95-5.65-0.97-9.88-4.42-12.69
		c-9.85-8.05-22.89,7.04-44.58-6.76c-3.37-2.15-8.29-2.1-11.72-0.57c-7.79,3.48-8.96,15.63-2.56,24.89
		c10.63,15.36,31.02,21.16,47.89,13.23C550.16,544.09,556.44,538.32,557.91,529.59z M594.82,523.4c0.18-2.26-0.82-4.69-3.12-6.22
		c-9.84-6.53-25.09-3.49-25.46,4.39c-0.1,2.18,1.22,4.4,3.38,5.94C578.67,533.98,594.16,531.51,594.82,523.4z"/><path fill="#E87863" d="M535.64,321.48c-21.03-33.72-61.23-56.21-102.32-57.14c23.97-37.97,59.5-73.1,103.86-80.33
		c6.96-1.19,16.65-0.43,20.14,6.44c6.54,12.84,6.7,27.39,6.33,41.57c-1.53,19.16-5.93,37.01-12.52,54.93
		C546.55,298.71,541.93,309.53,535.64,321.48z"/><path fill="#F6D787" d="M713.93,527.86c-5.41,4.2-7.98,11.4-12.13,17c-21.25,28.72-43.21,56.17-67.28,82.51
		c-1.52,1.66-1.32,3.4-0.39,4.11c1.62,1.24,3.54,0.8,4.47-0.93c0.6-1.11,0.86-2.43,3.02-3c1.32,11.4,2.7,22.5,1.6,35.38
		c-24.24-4-44.85-18.73-56.51-40.14c0.25-17.65,3.88-34.4,10.13-50.93c12.44-6.3,23.11-13.5,33.74-22.35
		c17.01-14.16,32.92-28.71,47.52-45.44l0.97-8.96c0.42-3.9,2.72-8.1,6.72-9.4c7.36-2.39,15.69,0.06,20.92,5.54
		c1.6,1.68,1.25,4.94-0.51,5.89c-6.44,3.48-12.67-2.13-14.63,0.76c-2.03,2.98,6.57,3.63,8.24,7.04c3.59,7.36-1.16,13.19,4.17,12.67
		c3.24-4.35,1.63-8.57,0.55-14.77c2.28,4.63,7.71,4.09,10.26,5.66c3.34,3.34,5.54,9.18,12.45,6.99
		C725.02,522.9,719.08,523.86,713.93,527.86z"/><path fill="#F5EBC7" d="M590.6,344.88c-15.2-11.27-31.74-18.22-51.41-19.96c16.96-33.73,30.1-67.7,28.76-105.89
		c-0.09-8.82-2-16.46-4.05-25.83c39.82,28.72,60.08,83.16,58.33,130.69c-0.59,16.03-4.21,30.61-8.96,46.48
		C606.96,359.76,600.39,351.74,590.6,344.88z"/><path fill="#F5EBC7" d="M428.72,263.04c-18.09-21.7-44.98-33.28-74.04-32.86c5.76-6.33,10.96-12.21,17.58-17.03l15.68-11.41
		c31.98-20.58,69.27-31.29,107.39-30.38c14.7,0.35,28.72,1.87,42.96,7.68c-23.55,4.38-43.32,13.63-61.2,28.16
		C457.78,222.54,442.72,241.23,428.72,263.04z"/><path fill="#F6D787" d="M447.55,571.02c-1.5-6.05-15.06,14.78-20.54,24.79l-17.33-31.63
		c-9.03-19.28-16.92-38.24-22.21-59.34c6.36-6.71,10.98-13.95,15.06-22.23c5.89-1.7,9.79-5.91,11.88-11.55
		c-3.69-7.18-4.7,6.47-13.71,7.59c-5.17,0.64-4.2-11.6,7.16-19.8c2.14-1.54,4.68-1.95,6.91-1.23c6.79,2.19,7.82,12.92,5.1,22.56
		c7.36,15.9,15.55,30.96,25.57,45.34l5.31,6.79c3.96,9.55,8.69,17.94,16.36,25.52c-10.1,14.89-16.47,30.19-21.18,46.95
		c-7.09,6.45-14.99,10.99-24.24,14.69c5.96-17.42,14.39-32.43,25.89-45.76C448.01,572.54,447.71,571.64,447.55,571.02z"/><path fill="#E87863" d="M349.63,229.37c-14.81-17.96-31.35-21.62-55.13-20.42c11.13-10.16,23.04-17.26,35.91-24.69
		c52.93-28.22,122.11-35.83,178.93-16.51c-38.52-3.01-75.46,3.64-109.06,21.51C381.22,199.46,364.85,211.92,349.63,229.37z"/><path fill="#E87863" d="M662.68,416.48c-9.09-19.94-23.09-36.71-46.4-41.4c13.13-36.63,14.15-74.84,1.52-111.05
		c-3.85-15.69-12.5-27.73-19.84-43.16C650.26,271.29,676.97,344.22,662.68,416.48z"/><path fill="#E87863" d="M430.93,269.09c9.41-0.4,18.15,0.42,27.45,3.15c-10.87,13.55-21.02,26.93-30.89,42.13
		c-15.6-27.33-42.29-45.93-75.28-47.61c9.3-10.92,20.3-19.39,31.57-27.94c15.97,4.97,29.88,13.49,40.36,25.98
		c0.82,0.97,1.59,1.91,1.67,2.8c0.16,1.9-3.15,4.28-2.19,6.49c0.39,0.9,2.32,1.71,3.12,0.64L430.93,269.09z"/><path fill="#E87863" d="M594.17,398.39c-19.49-22.66-45.97-34.69-75.42-35.5l10.43-27.91c3.1-0.71,6.17-2,7.48-5.9
		c23.71,1.61,46.16,12.64,62.85,29.59C598.94,372.4,597.66,384.74,594.17,398.39z"/><path fill="#F6D787" d="M621.4,830.77c3.32,5.62,5.32,11.82,6.46,18.38c1.8,10.41-3.71,19.41-13.23,23.51
		c-12.42,5.35-25.82,1.12-32.65-10.81c-8.25-13.91-12.59-29.38-14.05-46.38c16.37,12.34,38.23,12.83,53.78-0.01
		c-0.2,7.83-5.97,13.38-4.3,15.58C617.87,831.63,619.2,832.35,621.4,830.77z"/><path fill="#E87863" d="M527.43,324.9c-3.92,11.98-6.97,23.3-12.59,35.17c-9.31-12.92-19.23-23.11-33.14-30.81l20.42-36.76
		c9.22,6.49,16.77,14.22,23.73,22.63C528.25,317.84,529.22,321.15,527.43,324.9z"/><path fill="#F6D787" d="M402.97,779.96l-11.38,17.01c-3.27-7.38-7.67-13.52-13.15-19.46
		c-9.68-11.25-20.84-20.47-32.98-28.97c-6.86-4.81-13.96-7.79-22.32-8.85c6.62-4.72,14.72-4.89,22.28-2.14
		c9.33,3.4,13.26,10.83,15.59,5.88c0.78-1.66-4.37-3.56-3.16-5.9c0.52-1.01,2.08-1.9,3.88-1.26c18.06,6.34,32.87,19.25,41.61,36.26
		C404.75,775.25,404.55,777.6,402.97,779.96z"/><path fill="#F6D787" d="M564.38,582.19c-2.09,11.52-6.74,21.67-7.69,33.74l-80.24-10.59c2.38-11.24,5.18-21.13,10.05-31.61
		c1.68,6.86,5.77,11.84,11.29,16.59C518.64,603.97,545.21,601.59,564.38,582.19z"/><path fill="#E87863" d="M467.55,322.02c-11.54-3.98-23.01-5.76-35.87-5.93c9.86-15.1,19.74-28.82,31.55-42.59
		c8.61,2.39,16.66,5.48,24.91,10.49L467.55,322.02z"/><path fill="#E87863" d="M350.64,234.8c9.72-0.57,18.26,0.06,27.64,2.62c-11.02,8.03-20.75,16.75-30.07,27.01
		c-11.32-23.49-30.57-39.7-54.83-49.86c18.23-4.86,38.05,1.42,50.92,14.97c1,1.05,1.69,2.07,1.79,3.02c0.2,1.79-2.26,3.22-2.32,5.9
		c-0.01,0.63,1.07,2.06,2.27,1.6C348.01,239.3,349.19,237.07,350.64,234.8z"/><path fill="#F6D787" d="M379.37,488.71c3.59-1.46,9.29,2.18,13.74,1c-8.72,18.39-27.3,26.39-43.68,16.64
		c-18.54-11.03-15.75-37.03-4.75-46.72c2.54-2.24,6.49-1.01,8.51,1.49c1.7,2.1,1.87,5.1,0.13,8.22c-5.06,9.07-6.11,18.72,1.22,24.82
		c4.11,3.42,8.85,3.55,13.84,2.17C372.7,495.14,375.06,490.69,379.37,488.71z"/><path fill="#9CC0A0" d="M569.53,643.06c-7.98-0.65-10.81-9.01-10.25-15.65c1.33-15.79,5.18-30.47,10.78-45.48l21.07-7.11
		l-5.83,20.45l-4.32,35.81C580.3,636.79,576.58,643.63,569.53,643.06z M577.59,630.6c0-4.15-3.36-7.51-7.51-7.51
		s-7.51,3.36-7.51,7.51s3.36,7.51,7.51,7.51S577.59,634.74,577.59,630.6z"/><path fill="#E87863" d="M613.23,382.26c1.26-6.57,18.41,1.95,26.9,9.63c7.92,7.6,14.66,16.35,18.25,27.71
		c-19.13-13.55-37.61-21.07-60.22-18.47c3.1-11.91,4.74-22.98,5.8-35.53c3.79,3.01,5.55,7,6.92,11.32l-1.78,4.24
		c-0.67,1.6,0.06,2.96,1.37,3.22C611.67,384.61,612.91,383.92,613.23,382.26z"/><path fill="#E87863" d="M341.23,792.92c-8.4-6.01-14.9-12.56-21.28-19.96c-3.19-5.04-8.28-10.44-7.6-16.94
		c0.64-6.17,18.52-2.01,29.75,7.92l21.13,18.68L341.23,792.92z"/><path fill="#9CC0A0" d="M469.52,614.86c-1.27,6.55-6.47,11.79-13,10.49c-6.18-1.23-8.94-8.28-7.6-14.25
		c4.28-17.91,11.54-34.27,21.25-50.33l13.09,9.43C477.07,584.65,472.59,598.95,469.52,614.86z M466.38,613.15
		c0-4.09-3.31-7.4-7.4-7.4s-7.4,3.31-7.4,7.4c0,4.09,3.31,7.4,7.4,7.4S466.38,617.24,466.38,613.15z"/><path fill="#E87863" d="M384.8,804.79c-2.7-6.64-6.09-11.82-10.82-16.83c-11.75-12.43-23.69-24.6-38.19-33.56
		c-6.53-4.04-13.18-6.5-20.84-5.35c2.04-9.62,18.54-3.74,28.07,2.99c16.44,11.6,34.32,27.34,44.14,44.81
		C388.33,799.51,389.22,802.32,384.8,804.79z"/><path fill="#F6D787" d="M554.43,584.78c-19.61,15.33-52.65,12.3-63.15-9.59l9.73,3.51
		C518.57,583.74,535.59,586.08,554.43,584.78z"/><path fill="#E87863" d="M379.96,803.62c0.68,1.7,1.02,3.62,0.52,4.45c-3.4,5.6-25.64-3.7-35.01-11.72l20.56-9.97
		C371.58,791.61,376.63,796.51,379.96,803.62z"/><path fill="#E87863" d="M622.07,874.23c-4.79,9.96-16.13,11.08-26.41,10.74c-9.38-2.77-16.99-9.11-21.58-18.1
		c-6.15-12.04-9.81-25.1-9.79-39.14c3.77,12.33,7.13,24.17,13.4,35.45C586.69,879.35,604.3,883.76,622.07,874.23z"/><path fill="#F6D787" d="M716.57,503.12c-2.35,1.44-7.28,0.39-6.52-1.77l3.46-9.83l5.64-11.69c0.9-1.44,4.58-0.16,5.68,0.96
		C730.56,486.66,725.74,497.5,716.57,503.12z"/><path fill="#F6D787" d="M394.81,483.2c-1.25,4.56-12.47,1.86-19.94-1.2c-2.9-1.19-2.03-7.22,0.7-8.41
		c6.68-2.91,14.46-0.48,18.52,5.23C395.04,480.14,395.12,482.05,394.81,483.2z"/><path fill="#F6D787" d="M710.07,488.38c-4.05-3.79-7.93-5.84-13.25-7.46c3.07-8.02,11.44-11.67,15.71-8
		c1.47,1.26,2.1,3.62,1.71,6.01C713.26,482.22,712.37,484.71,710.07,488.38z"/><path fill="#F6D787" d="M393.53,471.86c-4.56-2.98-9.64-4.12-15.84-3.63c-1.2-3.27,0.27-7.39,4-8.57
		c5.62-1.77,11.88,0.19,16.25,3.92L393.53,471.86z"/><path fill="#F6D787" d="M725.67,511.09c-2.51,0.53-4.32-0.79-5.08-2.08c-1.85-3.12,7.88-7.54,11.14-17.72
		c3.7,1.07,5.35,4.1,4.89,7.58C735.89,504.46,731.66,509.82,725.67,511.09z"/><path fill="#F6D787" d="M400.13,459.54c-4.74-3.33-9.36-5.01-15.26-4.76c0.11-3.45,2.73-6.08,6.27-6.63
		c5.84-0.91,11.7,0.91,15.25,5.86L400.13,459.54z"/><path fill="#F6D787" d="M412.39,453.94c-3.62-3.64-5.62-6.14-9.74-8.26c0.17-1.39,1.65-4.7,3.45-4.83
		c4.02-0.3,7.21,2.9,10.44,5.17C415.88,448.96,415.08,451.1,412.39,453.94z"/><path fill="#F6D787" d="M558.87,184.07c-2.63-0.44-4.26-2.01-6.73-3.49c3.26-5.27,7.91-10.87,9.93-9.11
		c0.81,0.71,1.16,2.14,0.68,3.3L558.87,184.07z"/><path fill="#E87863" d="M596.06,219.6c0.54,0.8,1.34,0,0.54-0.54l1.34,1.34c-0.54-0.8-1.34,0-0.54,0.54L596.06,219.6z"/><path fill="#9CC0A0" d="M342.28,390.21c-4.14-2.49-7.5-5.43-10.28-9.22c7.55-7.63,13.09-16.18,11.78-27.5l12.63,2.42
		C357.37,368.96,352.22,381.05,342.28,390.21z"/><path fill="#9CC0A0" d="M742.65,668.47l-10.07,9.59c-10.17-8.54-16.28-20.92-15.27-34.48l12.45-2.57
		C728.84,652.05,733.93,661.13,742.65,668.47z"/><path fill="#9CC0A0" d="M303.96,296.5c-1.72,3.94-4.87,5.01-8.62,7.18c-8.46-7.67-14.63-18.59-13.69-30.73l12.73-4.12
		C292.8,279.4,295.75,288.71,303.96,296.5z"/><path fill="#9CC0A0" d="M711.29,289.43c-4.12-1.15-6.75-3.69-10.23-6.86c8.38-7.61,13.36-16.99,12.76-28.95l12.43,5.81
		C725.35,270.65,719.83,280.72,711.29,289.43z"/><path fill="#9CC0A0" d="M498.7,836.13l-11.9-6.24c6.26-7.82,10.64-15.73,9.61-26.53c4.92,0.85,8.25,2.32,12.22,4.15
		C509.22,818.11,505.53,827.72,498.7,836.13z"/><path fill="#9CC0A0" d="M263.16,505.19l-8.81-10.27c8.75-4.59,14.46-11.5,16.64-21.45l9.51,4.98
		C278.79,489.07,272.33,497.94,263.16,505.19z"/><path fill="#9CC0A0" d="M764.16,443.36c-10.15,0.6-19.31-3.51-26.54-10.49l6.78-11.34c6.28,6.5,14.21,9.83,24.31,9.17
		L764.16,443.36z"/><path fill="#9CC0A0" d="M705.48,757.01c-2.47,3.25-5.89,5.19-9.86,7.64c-6.7-7.16-9.81-16.73-10.04-26.44l9.75-2.61
		C696.26,743.93,698.68,750.8,705.48,757.01z"/><path fill="#9CC0A0" d="M723.3,384.17l-10.91-6.14c6.32-6.36,9.66-13.44,10.23-22.32l9.09,1.95
		C732.19,367.06,729.26,375.91,723.3,384.17z"/><path fill="#9CC0A0" d="M360.67,608.87c-1.73,4.04-5.35,5.93-9.03,8.64c-7.48-6.68-11.27-16.08-11.64-26.14l9.14-2.7
		C350.75,596.68,353.45,603.41,360.67,608.87z"/><path fill="#9CC0A0" d="M489.51,424.59c-3.7-2.6-5.53-5.41-8.23-8.96c7.02-4.16,11.83-10.23,13.99-17.65l8.36,4.37
		C502.27,411.13,497.07,418.58,489.51,424.59z"/><path fill="#282621" d="M543.87,661.93c-5.48,14.56-19.37,23.28-34.94,22.28c-15.59-1.01-29.4-10.57-34.52-25.4
		c-3.15-9.12-2.62-18.91,0.3-28.08l72.38,9.3C547.66,647.69,546.49,654.97,543.87,661.93z M540.7,657.6
		c1.43-4.38,2.14-8.73,2.22-13.8l-64.57-8.56c-6.06,19.7,5.49,39.53,25.84,43.83C520.49,682.52,536.06,673.7,540.7,657.6z"/><path fill="#282621" d="M557.91,529.59c-1.47,8.73-7.75,14.5-15.38,18.09c-16.87,7.93-37.26,2.13-47.89-13.23
		c-6.41-9.26-5.24-21.41,2.56-24.89c3.44-1.53,8.35-1.58,11.72,0.57c21.69,13.81,34.73-1.28,44.58,6.76
		C556.94,519.71,558.86,523.94,557.91,529.59z M552.37,532.21c2.55-5.07,1.75-8.35-0.38-10.8c-6.74-7.7-22.54,6.97-44.65-6.78
		c-2.71-1.69-6.29-1.98-8.65-0.5c-2.4,1.51-4.07,4.45-3.87,7.94c0.34,6.02,3.82,11.64,8.81,14.72
		C518.05,525.11,537.05,524.32,552.37,532.21z M549.76,536.62c-13.89-8.65-30.86-6.02-43.16,3.64
		C519.79,549.39,538.54,549.45,549.76,536.62z"/><path fill="#282621" d="M576.24,486.77c3.2,11.02-2.59,24.88-10.46,23.89c-6.41-0.81-8.58-15.38-1.73-25.55
		c1.55-2.3,3.93-3.41,6.42-3.25C572.7,482,575.39,483.83,576.24,486.77z"/><path fill="#E87863" d="M594.82,523.4c-0.66,8.11-16.15,10.58-25.19,4.12c-2.16-1.54-3.48-3.76-3.38-5.94
		c0.36-7.88,15.61-10.93,25.46-4.39C594,518.71,595,521.14,594.82,523.4z"/><path fill="#282621" d="M507.24,475.68c1.65,10.59-3.46,23.38-10.66,22.95c-7.33-0.43-9-16.58-0.98-25.83
		c1.88-2.16,4.28-2.81,6.73-2.52C504.64,470.55,506.76,472.62,507.24,475.68z"/><path fill="#E87863" d="M485.1,511.84c-7.66,2.5-16.53-0.48-20.53-7.21c-2.51-4.23,0.3-9.23,4.85-10.27
		c10.36-2.35,21.88,5.82,20.29,12.83C489.35,508.83,487.96,510.91,485.1,511.84z"/><path fill="#282621" d="M521.39,500.49c1.14,4.33,7.13,2.8,8.08,4.19c0.43,0.62,0.44,2.62-0.88,3.03
		c-4.64,1.43-10.38-1.88-11.27-6.6c-0.6-3.19,0.44-5.92,1.98-7.33c2.55-2.34,5.34-1.97,8.91-1.63c1.87,0.18,0.87-5.83,3.37-7.1
		c0.73-0.37,2.92,0.15,2.96,1.36c0.13,3.3-0.79,6.88-2.38,9.83c-1.45,2.68-6.46-1.54-9.25,0.13
		C521.52,497.2,520.95,498.83,521.39,500.49z"/><path fill="#282621" d="M577.59,630.6c0,4.15-3.36,7.51-7.51,7.51s-7.51-3.36-7.51-7.51s3.36-7.51,7.51-7.51
		S577.59,626.45,577.59,630.6z M572.99,630.59c0-1.69-1.37-3.05-3.05-3.05s-3.05,1.37-3.05,3.05s1.37,3.05,3.05,3.05
		S572.99,632.28,572.99,630.59z"/><path fill="#282621" d="M466.38,613.15c0,4.09-3.31,7.4-7.4,7.4s-7.4-3.31-7.4-7.4c0-4.09,3.31-7.4,7.4-7.4
		S466.38,609.06,466.38,613.15z M461.98,613.2c0-1.66-1.34-3-3-3c-1.66,0-3,1.34-3,3s1.34,3,3,3
		C460.64,616.2,461.98,614.86,461.98,613.2z"/><path fill="#9CC0A0" d="M540.7,657.6c-4.64,16.1-20.21,24.92-36.5,21.48c-20.35-4.3-31.91-24.13-25.84-43.83l64.57,8.56
		C542.84,648.87,542.13,653.22,540.7,657.6z"/><path fill="#9CC0A0" d="M552.37,532.21c-15.32-7.89-34.32-7.1-48.76,4.6c-4.98-3.08-8.47-8.7-8.81-14.72
		c-0.2-3.49,1.48-6.44,3.87-7.94c2.36-1.48,5.94-1.19,8.65,0.5c22.12,13.74,37.92-0.92,44.65,6.78
		C554.13,523.85,554.92,527.13,552.37,532.21z"/><path fill="#E87863" d="M549.76,536.62c-11.22,12.83-29.97,12.77-43.16,3.64C518.89,530.6,535.87,527.97,549.76,536.62z"/></svg>