<svg xmlns="http://www.w3.org/2000/svg" viewBox="0 0 1024 1024"><path fill="#131310" d="M821.12,771.96l0.34-56.08l-30.5,0.03l-0.33,56.13c-0.73,0.95-5.09,1.03-5.1-0.45l-0.45-55.62
		l-155.78-0.06l0.1,52.98c0,2.01-0.66,3.08-2.45,3.72c-0.95,0.34-2.44-0.69-3.83-0.68l0.2-56.09l-29.97,0.42l-0.54,55.79
		c-0.67,0.79-5.07,1.08-5.35-0.35l-0.24-55.78L241.95,716l-0.31,55.73c-0.01,1.68-4.94,1.02-5.62,0.12l0.02-55.9l-30.33,0.02
		l-0.25,56.07c-1.19,1.17-5.3,1.15-5.31-1.07l-0.38-54.78l-36.13-0.61l0.2-39.75l53.81-0.46c-16.5-19.52-9.7-38.57-1.92-60.29
		c-4.42-0.06-7.57,0.47-11.05-0.91c-0.71-7.49-1.07-14.88-0.05-22.84l43.51-0.6c0.15-1.82,0.14-2.7-0.23-4.05
		c-13.44-0.1-26.7-4.69-35-15.53c-7.81-10.19-10.49-22.93-9.68-36.08c18.03,0.29,35.63,7.4,44.41,22.3c0.79-3.43,0.56-6.08,0.1-9.14
		c-15.71-12.04-21.21-32.16-13.98-50.72c3.38-8.66,8.52-16.11,14.57-23.2c1.27-1.48,3.98-1.24,5.23,0.13
		c21.52,23.58,25.98,52.56,0.87,74.09c-1.3,2.06-0.83,6.07,0.24,7.87c8.81-13.67,27.9-21.28,42.6-21.5c2.63-0.04,2.06,4.55,1.94,6.3
		c-3.52,50.1-43.35,43.2-45.15,46.22c-0.45,0.75-0.15,3.37,1.07,3.38l39.89,0.23c1.29,0.01,3.44,0.93,3.39,2.52
		c-0.19,6.46,1.17,13.81-0.94,20.09c-1.08,2.81-6.65,1.41-10.35,1.81c8.01,22.21,13.96,40.55-2.02,60.03l62.3,0.07
		c-2.92-5.97-3.68-10.88-5.03-16.83l-30.96-136.87c-1.12-4.96-0.78-8.99,2.18-12.85c2.34-3.06,6.02-5.39,10.83-5.4l190.41-0.09
		c7.39,0,12.84,3.99,14.72,10.95l5.02,20.05c11.13-15.52,21.94-29.4,36.27-41.67c-15.34-12.88-25.89-29.27-30.93-48.6
		c-7.25-27.78-4.17-61.67,11.72-86.09c-24.02-14.51-34.03-39.4-21.41-63.92c14.35-27.87,49.28-36.34,74.85-18.1
		c7.92,5.65,16.07,8.12,26,6.12l37.37-7.53c32.54-6.56,64.87-0.26,73.62,34.55c18.37-1.19,33.64,9.46,40.34,26.36
		c5.98,15.09,6.31,31.05,3.3,47.58c17.09,8.13,22.83,29.84,15.34,46.93c-5.77,13.16-18.52,20.63-33.09,19.22
		c-2.65,7.91-5.88,14.16-10.93,21.09c37.37,21.47,59.7,63.93,63.41,106.43c0.38,10.48,0.26,19.93-1.86,30.24
		c4.63,22.78,7.22,45.31,6.62,68.47l31.74-0.04c2.13,0,3.67,1.29,3.66,3.56l-0.22,35.92c-2.91,1.72-5.69,1.18-8.66,1.16l-24.27-0.22
		l-0.01,56.26C825.17,773.76,822.94,771.95,821.12,771.96z M779.83,381.56c2.8-15.17,2.13-29.69-2.97-43.23
		c-5.88-15.61-20.36-24.77-36.88-23.02c-1.83,0.19-3.2-1.22-3.44-2.7c-4.67-29.04-34.44-38.29-62.56-32.7l-41.63,8.28
		c-11.73,2.33-21.66-0.62-31.06-7.28c-22.43-15.87-52.25-8.54-65.19,15.3c-9.03,16.63-5.92,35.78,8.21,48.62
		c23.38,21.25,60.4,24.56,91.79,21.55c30.7-2.95,59.7-11.37,88.06-23.08c1.36-0.56,2.86-0.16,3.62,0.4
		c2.93,2.17-0.72,33.24,22.24,49.77C756.9,383.88,767.32,379.44,779.83,381.56z M763.96,442.7c12.98,2.98,23.78-1.85,29.91-11.96
		c6.95-11.47,5.78-26.25-3.14-36.43c-4.99-5.7-12.31-8.03-19.78-7.13c-15.56,1.87-16.1,16.16-22.41,12.24
		c-16.79-10.44-23.43-28.48-25.44-49.02c-28.91,11.82-58.12,19.48-89,22.33c-21.66,2-42.34,0.3-62.9-5.96l-14.4-5.88
		c-17.12,29.05-19.43,65.07-5.75,96.07c9.97,22.6,28.94,38.91,52.49,46.62c29.82,9.76,61.8,10.28,92.06,2.17
		C727.12,497.3,753.9,474.44,763.96,442.7z M662.78,596.35c7.15-6.8,15.48-10.8,24.9-12.63l38.53-7.48
		c0.88-10.94-6.14-22.33,0.33-22.18c1.35,0.03,2.66,0.6,3.05,2.33c2.77,12.18,5.72,24.38-3.23,25.99l-31.2,5.59
		c-9.45,1.69-18.44,4.67-25.83,10.66c17.36,16.99,18.5,42.99,4.98,62.53c9.11,6.27,19.66,9.4,30.41,10.26
		c16.89,1.35,32.99,1.03,49.21-3.26c26.03-6.89,46.28-24.58,55.31-50.1c17.42-49.26-9.46-117.1-55.89-142.58
		c-18.25,23.02-44.68,35.69-72.97,39.76c-6.51,14.3-19.66,23.71-35.33,24.31c-17.23,0.65-31.44-10.67-35.04-27.54
		c-12.3-3.47-23.44-7.97-33.95-15.28l-8.79,7.56c-11.89,12.18-22.16,25.14-31.33,39.4l17.75,77.73
		c2.23-28.35,5.95-54.73,13.45-81.37c0.82-1.77,2.67-2.04,3.86-1.45c1.44,0.72,2.15,2.27,1.64,4.25
		c-9.8,37.06-14.64,74.64-12.14,113.8l25.01,0.14c-6.67-4.62-9.82-11.47-7.81-19.55C585.93,604.1,629.4,587.91,662.78,596.35z
		 M251.23,543.03c20.54-17.77,17.27-41.9-0.23-62.54C233.68,500.93,230.2,525.78,251.23,543.03z M554.54,656.64l-30.72-141.08
		c-1.7-3.78-4.02-5.94-8.15-6.26l-191.23,0.09c-4.63,0.44-8.6,4.7-7.45,9.74l31.18,137.73L554.54,656.64z M672.19,516.68
		c-19.77,1.33-37.11,0.86-55.48-2.95c3.41,11.41,13.15,18.88,24.74,19.78C653.96,534.5,666.12,528.08,672.19,516.68z M247.31,580.22
		c-0.61-10.56-3.38-18.55-8.98-25.57c-7.86-7.8-18.16-12.22-29.29-13.17C210.13,565.06,224.03,580.6,247.31,580.22z M293.12,541.35
		c-23.26,3.39-37.5,14.64-38.47,39.08C279.33,579.59,291.53,566.24,293.12,541.35z M209.86,596.7l0,12.65l82.87,0.02l0-12.65
		L209.86,596.7z M627.8,626.76c0.63,0.69,1.08,3.26,0,4.03c-9.04,6.45-16.95,14.32-20.47,25.26c17.44,0.73,20.57-18.11,34.45-9.82
		l11.41,6.82c4.43,2.65,13.09,4.27,17.79,0.97c9.35-13.84,8.33-32.38-1.16-45.68c-1.67-2.34-3.8-4.96-6.65-5.68
		c-20.13-5.08-41.79-2.16-59.12,9.22c-12.56,8.25-26.89,26.18-18.09,37.44c3.72-13.81,22.75-34.81,26.67-30.24
		c0.95,1.11,1.1,3.36-0.22,4.31c-10.1,7.32-17.91,17.24-21.13,29.48c3.31,2.43,6.74,3.23,10.39,2.86
		C604.3,641.82,623.68,622.28,627.8,626.76z M273.44,674.77c5.76-0.07,9.39-6.42,11.96-10.29c4.15-8.43,5.49-17.49,2.57-26.3
		l-7.61-23.02l-58.01,0.06l-8.1,25.08c-2.14,10.15-0.22,20.25,5.93,28.49c2.85,2.78,6.35,6.56,10.78,6.5L273.44,674.77z
		 M749.16,675.5l69.84,0.18c0.52-18.06-0.82-35.5-4.07-54.32c-6.1,14.21-14.27,26.67-26.31,36.24
		C776.74,666.95,763.15,672.17,749.16,675.5z M647.14,656.79l-9.06-5.88c-2.25-1.46-4.72-1.37-6.78,0.41l-6.28,5.42L647.14,656.79z
		 M558.4,675.44c-1.2-4.48-1.93-8.06-2.41-12.75l-206.14,0.12c-0.41,5.29,3.14,12.37,9.29,12.38L558.4,675.44z M663.31,675.03
		c3.18,0.01,3.89-5.49,3.42-7.36c-0.43-1.72-1.7-4.93-4.81-4.93l-99.41,0.14c-0.67,3.72,0.19,11.9,4.65,11.91L663.31,675.03z
		 M692.77,675.63c-7.88-2.51-13.59-4.18-20.07-8.44l-1.04,8.64L692.77,675.63z M613.13,681.42l-443.67,0.14l0.01,28.63l443.67-0.14
		L613.13,681.42z M854.64,681.55L619,681.57l0,28.52l235.65-0.02L854.64,681.55z"/><path fill="#A2C69C" d="M662.78,596.35c-33.39-8.44-76.86,7.75-85.11,40.91c-2.01,8.08,1.14,14.93,7.81,19.55l-25.01-0.14
		c-2.5-39.17,2.34-76.74,12.14-113.8c0.51-1.98-0.2-3.53-1.64-4.25c-1.19-0.6-3.04-0.32-3.86,1.45
		c-7.49,26.64-11.21,53.02-13.45,81.37l-17.75-77.73c9.17-14.26,19.45-27.22,31.33-39.4l8.79-7.56
		c10.51,7.31,21.66,11.81,33.95,15.28c3.6,16.86,17.82,28.19,35.04,27.54c15.67-0.59,28.82-10.01,35.33-24.31
		c28.29-4.07,54.72-16.74,72.97-39.76c46.43,25.48,73.31,93.31,55.89,142.58c-9.02,25.52-29.27,43.2-55.31,50.1
		c-16.22,4.3-32.32,4.61-49.21,3.26c-10.74-0.86-21.3-3.99-30.41-10.26c13.52-19.54,12.38-45.54-4.98-62.53
		c7.39-5.99,16.37-8.97,25.83-10.66l31.2-5.59c8.96-1.6,6-13.81,3.23-25.99c-0.39-1.72-1.7-2.29-3.05-2.33
		c-6.47-0.15,0.55,11.23-0.33,22.18l-38.53,7.48C678.27,585.55,669.94,589.55,662.78,596.35z"/><path fill="#FBEDD3" d="M763.96,442.7c-10.07,31.74-36.84,54.6-68.37,63.05c-30.25,8.11-62.24,7.59-92.06-2.17
		c-23.55-7.71-42.52-24.02-52.49-46.62c-13.68-31.01-11.37-67.02,5.75-96.07l14.4,5.88c20.56,6.26,41.24,7.96,62.9,5.96
		c30.89-2.85,60.09-10.51,89-22.33c2.01,20.53,8.65,38.57,25.44,49.02c6.31,3.92,6.85-10.37,22.41-12.24
		c7.47-0.9,14.79,1.43,19.78,7.13c8.92,10.18,10.09,24.95,3.14,36.43C787.74,440.86,776.94,445.68,763.96,442.7z M588.47,396.55
		c-1.3-2.14-3.71-3.2-5.79-3c-6.18,0.59-9.76,12.61-4.47,21.15c1.31,2.11,3.29,3.17,5.27,3.13
		C590.08,417.7,593.81,405.37,588.47,396.55z M619.01,411.05l0.44-15.63c0.05-1.85-1.81-2.83-2.94-2.75
		c-1.59,0.12-2.66,1.14-2.76,3.12l-0.61,11.24c-7.6,0.19-11.82,6.11-10.94,12.49c0.93,6.69,6.95,9.48,13.9,8.4
		c2.07-0.32,2.86-1.42,2.68-3.37c-0.44-4.69-10.01,0.77-10.73-6.06C607.23,410.91,618.93,413.84,619.01,411.05z M663.07,397.96
		c-1.29-2.1-3.48-2.94-5.55-2.9c-1.95,0.04-3.93,1.17-5.14,3.39c-4.83,8.88-1.06,20.52,5.15,20.56
		C664.51,419.05,668.29,406.48,663.07,397.96z M776.6,423.94c1.14,1.44,3.88,0.92,4.63-0.14c0.61-0.86,0.67-2.72-0.21-3.81
		l-6.64-8.21c2.4-5.1,9.37-4.68,10.18-7.57c2.33-8.37-18.58-2.44-22.85,18.74c-0.48,2.39,0.71,4.08,2.76,4.12
		c4.2,0.08,2.81-5.84,6.21-10.61L776.6,423.94z M610.85,452.06c19.97,3.61,37.01-11.5,31.37-14.62c-0.77-0.43-2.76-0.89-3.73,0.12
		c-10.39,10.84-27.05,13.13-38.39,2.37c-1.3-1.23-3.38-0.68-4.21,0.46C593.28,443.97,602.2,450.49,610.85,452.06z"/><path fill="#F07B66" d="M554.54,656.64l-206.36,0.22l-31.18-137.73c-1.14-5.04,2.82-9.3,7.45-9.74l191.23-0.09
		c4.13,0.33,6.44,2.48,8.15,6.26L554.54,656.64z M429.77,563.02c4.02-2.32,7.59-5.74,7.36-10.53c-0.22-4.51-3.09-7.76-8-9.51
		l0.03-9.1c2.78,2.43,4.03,6.49,6.85,4.61c1-0.67,1.12-2.01,0.88-3.27c-0.77-4.15-4.4-5.6-7.42-7.6l-1.68-3.82
		c-0.24-0.55-2.11-0.77-2.83,0.1c-0.97,1.17-1.14,3-1.71,4.35c-4.85,1.71-7.62,5.5-7.28,10.21c0.29,4.03,3.26,7.35,7.78,8.61
		l-0.16,10.26c-3.24-1.95-3.06-6.93-6.82-5.89c-1.35,0.37-1.78,1.74-1.48,3.36c0.79,4.39,4.93,6.51,8.06,8.7
		c0.84,0.59,0.7,3.6,1.58,4.07c1.09,0.59,3.34,0.38,3.61-0.51L429.77,563.02z M409.01,575.68l20.41,15.93l51.41-49.9
		c1.07,5.89-1.8,11.49,2.67,11.65c0.87,0.03,2.72-0.55,2.82-2.03l1.24-19.12l-19.18-0.67c-2.01-0.07-3.16,1.38-3.08,2.93
		c0.07,1.34,0.82,2.45,2.69,2.53l9.19,0.38l-48.09,46.89l-20.39-15.99l-34.49,32.88c-1.42,1.36-1.18,3.7-0.18,4.43
		c1.38,1,3.5,0.6,4.86-0.72L409.01,575.68z M405.84,632.16l-6.62-0.23l0.05-13.98c0.01-2.69-1.6-4.06-4.26-3.98l-19.55,0.61
		l-0.61,17.29c-1.63,0.46-3.15,0.38-4.83,0.29c-2.34-0.13-3.37,1.54-3.14,3.32c0.18,1.35,1.1,2.49,3.24,2.49l128.67-0.01
		c2.05,0,2.84-2.15,2.55-3.45c-0.71-3.23-4.04-1.63-8.33-2.67l0.16-60.84c0.01-2.12-1.11-3.82-3.22-3.79l-21.03,0.22l-0.26,64.45
		c-2.15,0.5-4.19,0.54-6.86-0.06l0.06-35.85c0-2.65-1.24-4.6-4.08-4.52L437.83,592l-0.49,39.82c-2.4,0.61-4.19,0.58-6.58-0.02
		l-0.13-26.65c-0.01-2.22-1.61-3.7-3.81-3.7l-17.66,0c-1.52,0-2.92,1.08-2.94,2.7L405.84,632.16z"/><path fill="#F8DE91" d="M779.83,381.56c-12.51-2.12-22.93,2.32-29.81,11.92c-22.95-16.53-19.31-47.61-22.24-49.77
		c-0.76-0.56-2.26-0.96-3.62-0.4c-28.36,11.71-57.35,20.13-88.06,23.08c-31.39,3.01-68.41-0.31-91.79-21.55
		c-14.13-12.84-17.24-31.99-8.21-48.62c12.94-23.84,42.76-31.17,65.19-15.3c9.4,6.66,19.33,9.61,31.06,7.28l41.63-8.28
		c28.13-5.59,57.9,3.66,62.56,32.7c0.24,1.49,1.6,2.9,3.44,2.7c16.52-1.75,31,7.41,36.88,23.02
		C781.96,351.88,782.63,366.4,779.83,381.56z"/><path fill="#A2C69C" d="M273.44,674.77l-42.47,0.53c-4.43,0.06-7.93-3.72-10.78-6.5c-6.15-8.24-8.07-18.34-5.93-28.49
		l8.1-25.08l58.01-0.06l7.61,23.02c2.91,8.81,1.57,17.87-2.57,26.3C282.83,668.35,279.2,674.69,273.44,674.77z"/><path fill="#FBEDD3" d="M627.8,626.76c-4.11-4.48-23.5,15.06-26.14,28.98c-3.65,0.36-7.08-0.43-10.39-2.86
		c3.22-12.24,11.03-22.16,21.13-29.48c1.32-0.96,1.17-3.2,0.22-4.31c-3.92-4.57-22.95,16.42-26.67,30.24
		c-8.8-11.26,5.53-29.19,18.09-37.44c17.32-11.38,38.98-14.3,59.12-9.22c2.85,0.72,4.98,3.34,6.65,5.68
		c9.49,13.3,10.51,31.84,1.16,45.68c-4.7,3.3-13.36,1.67-17.79-0.97l-11.41-6.82c-13.88-8.29-17.01,10.54-34.45,9.82
		c3.53-10.94,11.44-18.81,20.47-25.26C628.88,630.01,628.43,627.44,627.8,626.76z"/><path fill="#F07B66" d="M558.4,675.44l-199.25-0.25c-6.15-0.01-9.7-7.09-9.29-12.38l206.14-0.12
		C556.47,667.38,557.2,670.96,558.4,675.44z"/><path fill="#A2C69C" d="M749.16,675.5c13.99-3.33,27.58-8.55,39.46-17.91c12.04-9.57,20.21-22.03,26.31-36.24
		c3.26,18.83,4.59,36.26,4.07,54.32L749.16,675.5z"/><path fill="#F07B66" d="M663.31,675.03l-96.15-0.24c-4.46-0.01-5.32-8.19-4.65-11.91l99.41-0.14c3.11,0,4.38,3.21,4.81,4.93
		C667.2,669.54,666.5,675.04,663.31,675.03z"/><path fill="#A2C69C" d="M251.23,543.03c-21.04-17.25-17.55-42.1-0.23-62.54C268.51,501.13,271.77,525.26,251.23,543.03z"/><path fill="#A2C69C" d="M293.12,541.35c-1.59,24.88-13.79,38.24-38.47,39.08C255.62,555.99,269.86,544.74,293.12,541.35z"/><path fill="#A2C69C" d="M247.31,580.22c-23.27,0.38-37.18-15.15-38.26-38.75c11.13,0.96,21.43,5.38,29.29,13.17
		C243.92,561.67,246.7,569.65,247.31,580.22z"/><path fill="#FBEDD3" d="M672.19,516.68c-6.06,11.4-18.23,17.81-30.74,16.84c-11.59-0.9-21.32-8.38-24.74-19.78
		C635.08,517.54,652.42,518.01,672.19,516.68z"/><path fill="#A2C69C" d="M647.14,656.79l-22.12-0.05l6.28-5.42c2.07-1.78,4.54-1.87,6.78-0.41L647.14,656.79z"/><path fill="#A2C69C" d="M692.77,675.63l-21.11,0.2l1.04-8.64C679.19,671.45,684.9,673.12,692.77,675.63z"/><path fill="#131310" d="M610.85,452.06c-8.65-1.56-17.58-8.08-14.96-11.67c0.83-1.14,2.91-1.69,4.21-0.46
		c11.34,10.75,27.99,8.46,38.39-2.37c0.97-1.01,2.96-0.54,3.73-0.12C647.87,440.55,630.83,455.67,610.85,452.06z"/><path fill="#131310" d="M619.01,411.05c-0.08,2.79-11.78-0.14-10.98,7.44c0.72,6.83,10.29,1.37,10.73,6.06
		c0.18,1.95-0.61,3.05-2.68,3.37c-6.95,1.08-12.97-1.71-13.9-8.4c-0.88-6.37,3.34-12.3,10.94-12.49l0.61-11.24
		c0.11-1.98,1.18-3,2.76-3.12c1.14-0.08,3,0.9,2.94,2.75L619.01,411.05z"/><path fill="#131310" d="M663.07,397.96c5.22,8.52,1.44,21.09-5.55,21.04c-6.21-0.04-9.98-11.67-5.15-20.56
		c1.21-2.22,3.19-3.35,5.14-3.39C659.58,395.02,661.78,395.86,663.07,397.96z"/><path fill="#131310" d="M588.47,396.55c5.34,8.82,1.61,21.15-4.99,21.27c-1.98,0.04-3.96-1.02-5.27-3.13
		c-5.29-8.53-1.71-20.56,4.47-21.15C584.77,393.35,587.18,394.41,588.47,396.55z"/><path fill="#131310" d="M776.6,423.94l-5.93-7.48c-3.39,4.78-2.01,10.69-6.21,10.61c-2.05-0.04-3.24-1.73-2.76-4.12
		c4.26-21.18,25.17-27.11,22.85-18.74c-0.8,2.88-7.77,2.46-10.18,7.57l6.64,8.21c0.88,1.09,0.82,2.95,0.21,3.81
		C780.48,424.86,777.74,425.38,776.6,423.94z"/><path fill="#131310" d="M405.84,632.16l0.38-28.01c0.02-1.61,1.42-2.7,2.94-2.7l17.66,0c2.2,0,3.8,1.48,3.81,3.7l0.13,26.65
		c2.39,0.6,4.18,0.63,6.58,0.02l0.49-39.82l19.98-0.55c2.84-0.08,4.08,1.88,4.08,4.52l-0.06,35.85c2.68,0.6,4.72,0.55,6.86,0.06
		l0.26-64.45l21.03-0.22c2.1-0.02,3.22,1.67,3.22,3.79l-0.16,60.84c4.29,1.04,7.61-0.56,8.33,2.67c0.29,1.3-0.51,3.45-2.55,3.45
		l-128.67,0.01c-2.14,0-3.06-1.14-3.24-2.49c-0.24-1.78,0.79-3.45,3.14-3.32c1.67,0.09,3.2,0.17,4.83-0.29l0.61-17.29l19.55-0.61
		c2.66-0.08,4.27,1.29,4.26,3.98l-0.05,13.98L405.84,632.16z M474.59,572.8l-0.04,59.42l12.71,0.01l0.04-59.42L474.59,572.8z
		 M455.85,597.13l-12.53,0.01l0.04,35.08l12.53-0.01L455.85,597.13z M424.7,607.32l-12.72,0.01l0.02,24.91l12.72-0.01L424.7,607.32z
		 M393.34,619.68l-12.57,0.05l0.05,12.5l12.57-0.05L393.34,619.68z"/><path fill="#131310" d="M409.01,575.68l-30.1,29.19c-1.36,1.32-3.48,1.72-4.86,0.72c-1-0.72-1.25-3.07,0.18-4.43
		l34.49-32.88l20.39,15.99l48.09-46.89l-9.19-0.38c-1.87-0.08-2.62-1.19-2.69-2.53c-0.08-1.54,1.07-3,3.08-2.93l19.18,0.67
		l-1.24,19.12c-0.1,1.48-1.95,2.06-2.82,2.03c-4.47-0.17-1.6-5.76-2.67-11.65l-51.41,49.9L409.01,575.68z"/><path fill="#131310" d="M429.77,563.02l-1.22,4.04c-0.27,0.89-2.52,1.1-3.61,0.51c-0.87-0.47-0.74-3.49-1.58-4.07
		c-3.13-2.2-7.27-4.32-8.06-8.7c-0.29-1.62,0.13-2.99,1.48-3.36c3.76-1.04,3.58,3.93,6.82,5.89l0.16-10.26
		c-4.52-1.26-7.49-4.59-7.78-8.61c-0.34-4.71,2.43-8.49,7.28-10.21c0.57-1.35,0.74-3.18,1.71-4.35c0.72-0.87,2.58-0.65,2.83-0.1
		l1.68,3.82c3.02,2,6.64,3.45,7.42,7.6c0.23,1.26,0.11,2.6-0.88,3.27c-2.82,1.89-4.07-2.17-6.85-4.61l-0.03,9.1
		c4.91,1.75,7.78,5,8,9.51C437.36,557.28,433.79,560.69,429.77,563.02z M423.7,541.13l0.11-6.99c-1.75,0.65-2.46,2.07-2.47,3.4
		C421.32,539.29,421.98,540.77,423.7,541.13z"/><path fill="#F07B66" d="M423.7,541.13c-1.72-0.37-2.37-1.84-2.36-3.59c0.01-1.33,0.72-2.74,2.47-3.4L423.7,541.13z"/></svg>