<svg xmlns="http://www.w3.org/2000/svg" viewBox="0 0 1024 1024"><path fill="#030303" d="M514.55,643.17l-15.48,8.98c-24.87,14.43-80.04,53.32-100.93,32.73
		c-11.78-11.61-7.22-40.44-3.57-58.46l11.02-54.37c0.56-2.75-0.73-4.48-2.58-6.15l-35.28-31.62c-9.83-8.81-18.63-17.92-26.35-28.61
		c-10.17-14.08-13.82-30.48,0.61-39.75c13.3-8.54,36.59-10.86,53.82-13.08l49.68-6.41c15.49-26.67,29.07-72.04,50.49-91.29
		c9.6-8.62,22.14-8.29,31.48,0.61c7.99,7.61,13.94,16.7,18.96,26.85l28.39,57.41c1.7,3.44,3.28,5.03,7.17,5.37l51.05,4.51
		c19.36,1.71,47.74,4.09,56.73,19.27c9.17,15.48-7.42,38.08-20.23,50.45l-48.85,47.22l7.2,33.12l8.66,43.15
		c1.2,8.41,1.54,16.62,0.35,24.84c-1.65,11.48-10.32,19.04-21.96,19.1c-8.71,0.05-17.16-1.43-25.04-5.17l-37.19-17.65L514.55,643.17
		z M526.77,623.92l54,29.27c10.49,5.69,21.12,9.86,33.22,10.97c1.13-6.54,0.84-12.63-0.42-18.8l-7.59-37.3l-8.19-38.91
		c-1.37-6.52,0.67-12.55,5.35-17.03l20.46-19.56l28.43-28.51c7.03-7.05,13.23-14.52,17.26-23.89c-6.86-3.45-13.76-4.94-21.03-5.61
		l-36.27-3.38l-39.05-4.07c-6.84-0.71-12.5-4.42-15.53-10.58l-14.81-30.18l-18.72-37.21c-3.22-6.4-6.96-12.5-12.65-17.16
		c-8.5,9.2-13.65,19.05-18.61,29.69l-25.04,53.73c-3.58,7.67-9.45,12.47-17.65,13.56l-31.83,4.23l-40.68,5.19
		c-7.43,0.95-14.36,2.72-21.56,5.95c2.67,6.57,6.82,12.08,11.81,17.01l24.13,23.88l31.73,29.2c5.14,4.73,6.44,11.58,5.13,18.37
		l-8.55,44.25l-5.61,34.67c-0.88,5.42-0.9,10.74,0.57,16.33c11.01-1.5,20.64-5.49,30.06-11.03l55.27-32.52
		C509.19,619.32,517.31,618.79,526.77,623.92z"/><path fill="#040404" d="M418.64,412.19c3.3,5.22,0.51,11.92-4.05,14.8c-4.86,3.07-12.16,2.45-15.62-2.95l-32.75-51.24
		c-3.81-5.96-3.33-12.7,2.25-16.91c4.94-3.74,12.8-2.75,16.54,3.15L418.64,412.19z"/><path fill="#040404" d="M295.36,590.32c-6.38,1.02-10.75-5.2-11.18-9.88c-0.48-5.24,2.41-11.7,8.37-12.65l63.56-10.17
		c5.77-0.92,10.47,4.71,11.33,9.28c1.03,5.46-1.95,12.24-8.13,13.22L295.36,590.32z"/><path fill="#040404" d="M625.67,422.13c-3.52,5.56-10.91,5.47-15.27,2.89c-5.27-3.13-7.39-10.1-3.88-15.64l33.7-53.19
		c3.13-4.95,10.34-5.19,14.94-2.8c4.54,2.36,8.13,9.32,4.74,14.67L625.67,422.13z"/><path fill="#040404" d="M729.48,587.78l-63.8-9.63c-6.14-0.93-9.1-7.03-8.63-12.62c0.4-4.79,4.93-10.8,11.11-9.9l61.35,8.99
		c6.24,0.91,10.15,5.37,10.53,11.06C740.37,580.72,736.61,588.86,729.48,587.78z"/><path fill="#F7D47A" d="M526.77,623.92c-9.45-5.12-17.58-4.6-26.39,0.59l-55.27,32.52c-9.42,5.54-19.05,9.54-30.06,11.03
		c-1.47-5.6-1.44-10.92-0.57-16.33l5.61-34.67l8.55-44.25c1.31-6.79,0.02-13.64-5.13-18.37l-31.73-29.2l-24.13-23.88
		c-4.99-4.93-9.14-10.44-11.81-17.01c7.2-3.23,14.13-5,21.56-5.95l40.68-5.19l31.83-4.23c8.2-1.09,14.08-5.89,17.65-13.56
		l25.04-53.73c4.96-10.64,10.12-20.49,18.61-29.69c5.69,4.65,9.43,10.76,12.65,17.16l18.72,37.21l14.81,30.18
		c3.03,6.16,8.69,9.87,15.53,10.58l39.05,4.07l36.27,3.38c7.27,0.68,14.17,2.16,21.03,5.61c-4.03,9.37-10.23,16.84-17.26,23.89
		l-28.43,28.51l-20.46,19.56c-4.68,4.48-6.72,10.51-5.35,17.03l8.19,38.91l7.59,37.3c1.26,6.17,1.55,12.26,0.42,18.8
		c-12.1-1.1-22.73-5.28-33.22-10.97L526.77,623.92z"/></svg>