<svg xmlns="http://www.w3.org/2000/svg" viewBox="0 0 1024 1024"><path fill="#383838" d="M554.4,825.89l-81.59-45.7c-9.63-5.4-12.97-17.1-10.48-27.24c2.63-9.66,10.69-17.42,21.63-18.46
		c8.98-16.95,27.16-18.75,43.14-12.92c10.21-3.44,22.55-7.37,34.46-1.08c9.08,4.79,17.2,12.98,19.57,25.88
		c8.23,3.29,14.54,9.98,17.31,18.32c2.86,8.6,1.64,18.04-3.32,25.7c4.02,12.86,1.14,23.85-8.12,32.04
		C578.38,829.49,565.64,832.18,554.4,825.89z M554.21,822.21c8.52,4.79,17.33,5.3,25.9,0.82c11.96-6.25,16.89-19.84,11.14-33.06
		c6.32-7.5,6.12-16.1,4.05-25.02c-1.86-8.05-10.75-11.85-16.05-16.95c-5.04-10.09-8.84-20.65-19.64-24.86
		c-11.02-4.29-22.65-3.97-32.53,3.22c-14.66-9.65-33.28-4.63-40.93,10.81c-9.92,0.63-17.66,7.19-20.3,15.57
		c-2.9,9.18,0.08,19.8,8.76,24.68L554.21,822.21z"/><path fill="#383838" d="M813.69,416.83l-82.6,10.99c-11.18,1.49-21.99-1.77-27.16-11.34c-5.41-9.53-4.43-21.38,3.94-29.49
		c-1.33-16.31,8.96-30.05,25.13-32.72c4.14-10.76,12.93-17.7,22.64-20.3c11.53-3.08,22.67,0.16,31.44,8.25
		c17.34-4.43,33.22,7.57,35.21,25.31c9.31,6.52,13.76,16.65,11.68,27.99C831.92,404.69,825.19,415.3,813.69,416.83z M813.13,413.56
		c10.71-1.42,16.49-11.79,17.85-20.2c1.25-10.24-3.55-18.71-11.96-24.17c-0.25-8.49-4.65-15.82-10.42-19.6
		c-6.22-6.29-15.3-4.8-22.3-4.14c-8.69-7.01-18.35-11.72-30.28-8.21c-8.87,2.61-17.45,9.83-20.67,20.17
		c-15.8,1.24-26.32,14.84-23.86,30.64c-7.69,6.59-9.65,16.63-5.5,25.25c4.07,8.53,12.79,12.81,22.71,11.49L813.13,413.56z"/><path fill="#383838" d="M209.15,540.49c-20.11,1.88-35.92-12.64-35.97-32.54c-0.01-6.58,1.87-12.23,5.4-17.85
		c-4.31-14.53,4.85-28.17,19.47-30.75c5.98-10,15.91-16.35,26.59-16.9c11.94-0.86,22.87,4.4,29.61,14.92
		c16.31,1.41,28.32,14.13,29.45,30.58c0.9,13.2-5.49,24.4-16.8,30.85c-1.28,13.42-9.95,24.31-21.01,28.85
		C233.35,552.8,219.52,550.45,209.15,540.49z M210.12,536.74c9.32,10.21,22.45,12.57,34.59,7.87c10.48-4.43,18.41-14.9,19.2-27.93
		c12.61-6.29,19.14-19.59,15.81-33.52c-2.96-12.33-13.42-22.28-27.32-22.55c-5.41-10.09-15.96-15.22-26.71-15.12
		c-11.33,0.11-19.18,7.58-26.06,16.36c-5.33,2.54-12.09,4.45-15.28,9.42c-4.09,6.37-3.39,13.11-2.75,19.4
		c-5.53,10.32-7.41,21.44-1.3,32.13C186.31,533.35,197.48,538.85,210.12,536.74z"/><path fill="#383838" d="M818.64,575.97c-13.08,10.88-30.65,10.07-42.7-1.24c-16.51-2.59-28.34-14.27-32-30.36
		c-5.21-22.91,8.27-44.81,31.55-49.84c7.66-12.91,22.63-18.46,36.4-12c8.38-3.81,17.3-2.37,24.02,3.03
		c6.39,5.12,9.65,13.62,8.43,22.52c7.62,7.72,11.53,17.12,11.52,27.92C855.82,556.92,840.48,574.98,818.64,575.97z M816.71,572.92
		c15.93-0.07,28.35-10.53,33.49-23.51c5.93-14.96,0.76-29.1-8.8-40.64c-0.42-7.22-0.89-16.33-7.94-20.96
		c-6.41-4.21-14.09-6.15-21.81-1.61c-12.4-6.84-27.15-1.8-33.75,11.09c-22.05,4-35.79,24.35-30.72,46.53
		c3.41,14.89,14.95,25.97,30.14,27.67C788.37,582.48,804.76,584.01,816.71,572.92z"/><path fill="#383838" d="M522.27,505.73c1.67,13.82-3.1,26.09-13.14,34.04c-10.54,8.34-24.36,10.07-37.33,4.02
		c-14.75,7.02-31.86,2.72-41.04-10.06c-9.44-13.14-8.83-31.37,3.66-42.9c-2.47-13.38,2.6-26.11,12.31-33.89
		c10.77-8.62,24.58-9.98,37.24-4.26c14.8-7.15,31.72-2.82,41.05,9.79C534.45,475.2,534.84,493.49,522.27,505.73z M518.7,504.75
		c10.44-9.15,12.5-22.72,7.17-34.55c-7.26-16.08-26.3-22.78-41.96-13.82c-11.78-6.25-24.89-5.05-35,2.98
		c-9.45,7.5-13.81,19.88-11.04,32.49c-12.13,10.45-13.8,27.31-4.44,40.03c8.63,11.74,24.78,15.7,38.1,8.21
		c11.91,6.37,25.31,5.21,35.34-2.66C516.46,529.9,521.15,517.79,518.7,504.75z"/><path fill="#383838" d="M561.23,424.74l-14.41,3.86c-4.38,1.17-9.08,1.85-13.45-0.15c-9.06-4.13-12.02-16.18-6.14-24.18
		l12.44-13.17l-8.38-15.23c-3.15-5.72-0.53-12.63,4.02-16.88c4.62-4.32,11.28-5.47,17.59-2.78l12.33,5.24
		c7.89-9.95,15.57-17.74,26.79-12.06c4.51,2.28,7.94,7.07,8.32,12.93l0.86,13.24l10.57,4.79c5.78,2.62,9.54,8.18,9.56,14.19
		c0.02,6.37-3.6,12.49-9.74,15.01l-11.03,4.51l-1.2,16.68c-0.47,6.48-4.99,11.15-10.22,13.01c-6.3,2.25-13.19,0.67-17.19-4.68
		L561.23,424.74z M573.48,435.96c3.71,4.95,8.96,6.66,14.49,4.72c4.6-1.61,8.14-5.84,8.39-11.72l0.73-17l13.27-5.54
		c5.06-2.11,7.77-6.85,7.69-11.91c-0.07-4.78-2.68-8.93-7.45-11.13l-13.06-6.03l-0.79-16c-0.23-4.67-3.86-8.21-7.3-9.54
		c-4.28-1.65-9.12-1.73-12.11,1.49l-11.14,12.04l-15.26-6.29c-5.1-2.1-10.47-0.72-13.77,2.76c-3.51,3.71-5.12,8.92-2.54,13.55
		l9.15,16.44l-12.89,13.07c-3.86,3.91-4.43,9.6-2.37,14.18c2.07,4.61,7.05,8.73,12.49,7.32l21.19-5.48L573.48,435.96z"/><path fill="#383838" d="M424.15,354.21c-8.21,10.96-19.85,17.24-32.65,15.75c-23.54-2.73-27.47-24.02-30-24.5
		c-0.85-0.16-2.03,0.17-3.01,0.89c-8.44,6.22-19.59,5.48-26.55-1.84c-6.73-7.08-7.6-18.64-1.01-26.7
		c6.9-8.44,17.01-13.97,27.82-15.75c17.01-2.79,32.12,6.59,38.78,22.15c10.55-9.59,24.03-12.82,36.45-8
		c9.33,3.63,13.42,13.3,11.33,22.74C443.32,347.94,435.33,355.18,424.15,354.21z M399.62,366.51c8.79-1.45,17.17-6.99,22.58-15.57
		c9.15,1.31,17.05-3.11,19.66-11.63c2.31-7.63-0.75-16.84-9.13-20.09c-13.32-5.17-27.12,0.08-36.69,11.11
		c-5.04-19.23-23.01-29.31-40.9-24.2c-8.37,2.39-15.96,6.88-21.44,13.46c-6.14,7.37-5.09,17.67,1.61,23.56
		c6.78,5.95,16,5.39,23.1-0.86c1.66-1.45,3.66-3.26,5.95-2.84C368.83,358.1,381.69,368.49,399.62,366.51z"/><path fill="#383838" d="M747.29,720.22c-6.19,11.09-6.18,25.74-19.13,27.39c-6.62,0.84-13.68-1.19-16.08-7.57l-7.48-19.89
		l-19.82-8.04c-5.86-2.38-8.39-8.48-8.11-14.38c0.29-6.1,3.98-11.58,10.2-13.71l17.93-6.13l5.79-16.31
		c2.32-6.54,6.93-10.79,13.06-11.42c7.05-0.73,13.61,2.13,16.19,8.94l7.19,18.97l21.14,7.96c5.77,2.17,7.13,9.94,6.39,15.3
		C772.79,714.18,758.1,714.23,747.29,720.22z M737.42,735.82l6.74-18.63l18.92-7c5.41-2,8.6-6.25,8.51-11.7
		c-0.08-4.92-2.87-9.27-7.97-11.15l-19.55-7.21l-7.32-19.87c-1.87-5.07-7.05-7.27-11.95-6.97c-5.12,0.32-8.98,3.63-10.82,8.78
		l-6.59,18.41l-17.8,5.95c-4.99,1.67-8.44,4.94-9.33,9.47c-0.95,4.83,0.28,10.74,5.15,12.66l21.52,8.49l6.93,18.99
		c1.99,5.45,6.23,8.71,11.65,8.66C730.8,744.66,735.33,741.6,737.42,735.82z"/><path fill="#383838" d="M256.82,371.4c-2.47,6.92-8.01,10.68-14.52,10.95c-6.78,0.28-12.59-3.79-15.02-10.55l-6.11-17.02
		l-16.65-6.33c-6.04-2.3-9.8-6.66-10.64-12.78c-2.08-15.22,13.08-17.21,27.24-22.5l7.53-19.64c2.37-6.17,8.53-8.54,14.77-8.2
		c6.07,0.33,11.11,4.47,13.43,10.8l6.22,16.97l16.03,5.91c6.15,2.27,10.3,6.83,10.78,12.61c0.52,6.29-1.67,12.99-7.74,15.28
		l-19.14,7.23L256.82,371.4z M253.65,370.04l6.23-18.31l19.53-7.26c5.11-1.9,7.54-6.68,7.26-11.73c-0.26-4.7-3.2-8.66-8.05-10.39
		l-18.38-6.54l-7.17-19.83c-1.87-5.16-6.42-7.62-11.54-7.41c-5.06,0.21-8.82,3.18-10.74,8.35l-7.04,18.91l-17.65,6.15
		c-5.21,1.82-8.63,5.62-8.99,10.7c-0.35,4.94,2.25,10.1,7.25,11.96l19.19,7.15l7.13,19.5c1.94,5.3,6.56,7.85,11.76,7.71
		C247.59,378.86,251.72,375.73,253.65,370.04z"/><path fill="#383838" d="M342.91,623.5c-2.3,6.28-6.99,10.14-12.97,10.65c-5.7,0.49-12.03-1.83-14.29-7.63l-7.04-18.09
		l-19.24-7.89c-4.74-1.94-5.95-7.49-6.08-12.04c-0.13-4.93,1.57-10.62,6.67-12.53l18.88-7.09l5.61-15.55
		c2.27-6.28,7.14-10.04,13.06-10.29c6.92-0.29,12.33,2.85,14.94,9.51l6.18,15.79l15.34,5.7c5.9,2.19,9.82,6.92,10.26,12.86
		c0.44,5.94-2.53,12.52-8.4,14.77l-17.38,6.66L342.91,623.5z M339.47,622.94l6.28-17.25l16.72-6.1c4.64-1.69,7.73-5.02,8.25-9.44
		c0.52-4.44-0.77-9.89-5.31-11.53l-19.71-7.14l-6.11-16.97c-1.81-5.03-6.1-8.18-11.08-8.19c-5.14,0-9.1,3.2-10.95,8.33l-6.06,16.86
		l-17.11,5.88c-4.75,1.63-7.61,5.78-7.85,10.16c-0.25,4.48,1.62,9.2,6.04,10.88l18.75,7.14l6.15,16.84
		c1.92,5.25,5.66,8.54,11.04,8.48C333.15,630.83,337.55,628.21,339.47,622.94z"/><path fill="#383838" d="M571.32,669.47c3.1-18.21,15.5-31.99,34.03-31.89c-0.96-20.25,15.78-34.63,34.63-35.53
		c10.74-0.51,19.7,6.72,21.4,16.68c1.76,10.32-4.32,19.7-14.84,22.92c1.01,10.74-1.88,20.39-8.88,27.42
		c-6.79,6.82-16.33,10.09-26.85,9.13c-3.67,10.42-13.68,15.83-23.28,13.6C577.38,689.45,570.12,680.91,571.32,669.47z
		 M574.57,672.54c-0.02,9.72,8.45,16.23,16.79,16.33c8.33,0.1,15.43-5.47,17.25-14.46c10.77,2.01,20.57-1.15,27.18-8.24
		c6.7-7.19,8.96-16.91,7.24-27.15c9.36-1.51,15.73-8.74,15.33-17.58c-0.39-8.58-7.35-15.92-16.64-16.13
		c-18.74-0.42-36.05,15.39-32.96,35.73c-10.7-1.31-20.84,2.77-27.06,11.71C577.85,658.3,574.58,664.82,574.57,672.54z"/><path fill="#383838" d="M423.57,668.13c-7.61,6.89-16.65,8.67-24.78,4.57c-7.78-3.92-12-13.19-10.06-22.52
		c1.54-7.39,6.88-13.01,12.72-17.68c12.4-9.92,28.41-11.62,42.26-3.48c6.71-8.46,17.52-9.82,25.81-5.08
		c8.3,4.75,12.47,14.45,9.08,24.44c5.85,4.27,9.23,10.26,9.15,17.15c-0.08,6.78-3.08,13.96-9.9,17.3
		C459.71,691.73,434.62,688.41,423.57,668.13z M424.43,662.03c9.45,21.41,27.59,25.79,48.17,19.58c7.12-2.15,11.55-8.28,11.94-15.13
		c0.4-6.92-3.31-12.9-9.99-16.25c4.65-9.38,1.02-19.31-7.42-23.82c-8.1-4.32-17.41-1.17-22.87,7.21
		c-17.62-13.59-41.41-4.35-50.7,12.91c-4.67,8.66-1.13,19.42,7.5,23.61C409.15,674.05,417.82,670.47,424.43,662.03z"/><path fill="#383838" d="M639.2,556.78c-2.07,7.05-7.24,11.14-13.71,11.15c-6.53,0-11.42-4.21-13.48-10.89l-5.22-16.94
		l-17.3-6.76c-4.76-1.86-6.52-7.22-6.46-11.82c0.05-4.57,1.94-9.95,6.77-11.67l17.14-6.09l6.49-20.44c1.77-5.58,7.5-8.02,12.84-7.75
		c5.31,0.26,10.13,3.62,11.88,9.15l6.03,19.07l14.2,4.96c6.04,2.11,9.62,6.89,9.66,12.76c0.04,6.02-3.3,10.87-9.32,13.13l-14.65,5.5
		L639.2,556.78z M635.42,557.35l5.96-20.02l16.75-6.07c4.72-1.71,6.93-5.89,6.55-10.51c-0.35-4.25-3.07-7.43-7.53-8.97l-15.66-5.4
		l-6.43-20.33c-1.43-4.53-5.22-7.26-9.57-7.28c-4.37-0.02-8.23,2.59-9.64,7.14l-6.32,20.4l-17.28,5.9c-4.39,1.5-6.21,6-6.07,10.11
		c0.15,4.43,2.89,7.56,7.36,9.24l15.96,5.96l6.11,19.8c1.45,4.72,5.36,7.4,9.89,7.4C630,564.74,634.02,562.04,635.42,557.35z"/><path fill="#383838" d="M658.22,318.51c-5.73,4.2-11.81,4.47-18.04,3.05c-5.53-1.26-9.48-7-12.85-11.48
		c-15.51,3.75-24.66-0.84-30.34-15.02c-7.45-1.21-14.69-3.52-18.06-9.76c-3.64-6.72-3.78-14.56,0.4-21.1
		c4.73-7.39,12.41-11.68,21.01-13.61c14.15-3.18,28.84,2.5,35.78,15.7c8.96-0.01,16.85,2.31,23.45,8.12
		C673.01,286.25,673.01,307.65,658.22,318.51z M656.37,315.78c12.43-9.19,12.71-26.1,2.99-37.09c-6.59-7.45-16.06-8.4-25.02-9.76
		c-4.58-5.57-9.54-13.32-18.53-15.11c-12.15-2.41-25.17,0.91-32.92,10.94c-4.6,5.96-4.31,13.19-1.15,18.95
		c3.58,6.53,11.64,7.12,17.82,7.65c1.96,6,4.79,12.34,10.13,14.96c7.02,3.44,13.34,1.03,19.76-0.31
		c2.35,4.92,5.91,10.61,10.48,12.04C645.67,319.85,651.18,319.61,656.37,315.78z"/><path fill="#383838" d="M298.19,675.31c0,22.41-18.16,40.57-40.57,40.57c-22.41,0-40.57-18.16-40.57-40.57
		c0-22.41,18.16-40.57,40.57-40.57C280.02,634.74,298.19,652.9,298.19,675.31z M294.81,675.28c0-20.56-16.67-37.23-37.23-37.23
		s-37.23,16.67-37.23,37.23s16.67,37.23,37.23,37.23S294.81,695.84,294.81,675.28z"/><path fill="#383838" d="M536.63,233.73c0,22.41-18.17,40.58-40.58,40.58c-22.41,0-40.58-18.17-40.58-40.58
		s18.17-40.58,40.58-40.58C518.46,193.14,536.63,211.31,536.63,233.73z M533.34,233.71c0-20.59-16.69-37.29-37.29-37.29
		c-20.59,0-37.29,16.69-37.29,37.29S475.46,271,496.06,271C516.65,271,533.34,254.3,533.34,233.71z"/><path fill="#383838" d="M392.84,448.09c0,21.48-17.41,38.89-38.89,38.89s-38.89-17.41-38.89-38.89s17.41-38.89,38.89-38.89
		S392.84,426.61,392.84,448.09z M389.53,448.07c0-19.65-15.93-35.58-35.58-35.58c-19.65,0-35.58,15.93-35.58,35.58
		c0,19.65,15.93,35.58,35.58,35.58C373.6,483.65,389.53,467.72,389.53,448.07z"/><path fill="#383838" d="M541.81,595.72c0,12.78-10.36,23.15-23.15,23.15c-12.78,0-23.15-10.36-23.15-23.15
		s10.36-23.15,23.15-23.15C531.45,572.57,541.81,582.93,541.81,595.72z M538.62,595.73c0-11.01-8.92-19.93-19.93-19.93
		s-19.93,8.92-19.93,19.93s8.92,19.93,19.93,19.93S538.62,606.73,538.62,595.73z"/><path fill="#383838" d="M719.93,251.04c0,8.2-6.65,14.85-14.85,14.85c-8.2,0-14.85-6.65-14.85-14.85
		c0-8.2,6.65-14.85,14.85-14.85C713.28,236.19,719.93,242.84,719.93,251.04z M716.54,251.05c0-6.31-5.11-11.42-11.42-11.42
		s-11.42,5.11-11.42,11.42s5.11,11.42,11.42,11.42S716.54,257.36,716.54,251.05z"/><path fill="#383838" d="M805.23,631.1c0,8.26-6.69,14.95-14.95,14.95c-8.26,0-14.95-6.69-14.95-14.95
		c0-8.26,6.69-14.95,14.95-14.95C798.54,616.15,805.23,622.85,805.23,631.1z M801.7,631.08c0-6.3-5.1-11.4-11.4-11.4
		s-11.4,5.1-11.4,11.4s5.1,11.4,11.4,11.4S801.7,637.38,801.7,631.08z"/><path fill="#383838" d="M385,759.98c0,8.18-6.63,14.81-14.81,14.81s-14.81-6.63-14.81-14.81c0-8.18,6.63-14.81,14.81-14.81
		S385,751.8,385,759.98z M381.61,759.94c0-6.27-5.08-11.35-11.35-11.35c-6.27,0-11.35,5.08-11.35,11.35s5.08,11.35,11.35,11.35
		C376.52,771.3,381.61,766.21,381.61,759.94z"/><path fill="#383838" d="M339.65,264.29c0,8.15-6.61,14.75-14.75,14.75c-8.15,0-14.75-6.61-14.75-14.75
		c0-8.15,6.61-14.75,14.75-14.75C333.04,249.54,339.65,256.14,339.65,264.29z M336.2,264.33c0-6.24-5.06-11.3-11.3-11.3
		c-6.24,0-11.3,5.06-11.3,11.3s5.06,11.3,11.3,11.3C331.14,275.63,336.2,270.57,336.2,264.33z"/><path fill="#383838" d="M732.68,484.14c0,8.2-6.65,14.85-14.85,14.85s-14.85-6.65-14.85-14.85c0-8.2,6.65-14.85,14.85-14.85
		S732.68,475.93,732.68,484.14z M729.27,484.18c0-6.31-5.11-11.42-11.42-11.42s-11.42,5.11-11.42,11.42s5.11,11.42,11.42,11.42
		S729.27,490.49,729.27,484.18z"/><path fill="#383838" d="M225.66,592.98c0,7.04-5.71,12.75-12.75,12.75c-7.04,0-12.75-5.71-12.75-12.75
		c0-7.04,5.71-12.75,12.75-12.75C219.95,580.22,225.66,585.93,225.66,592.98z M222.4,593.01c0-5.23-4.24-9.48-9.48-9.48
		c-5.23,0-9.48,4.24-9.48,9.48c0,5.23,4.24,9.48,9.48,9.48C218.16,602.49,222.4,598.24,222.4,593.01z"/><path fill="#383838" d="M689.06,790.53c-4.33,4.51-10.66,4.92-15.4,2.3c-4.78-2.64-7.14-8.12-6.08-13.92
		c0.9-4.91,5.19-9.44,11.06-10.06c5.33-0.56,10.18,2.79,12.27,6.8C693.41,780.45,693.1,786.32,689.06,790.53z M689.27,781.69
		c0-5.17-4.19-9.36-9.36-9.36c-5.17,0-9.36,4.19-9.36,9.36s4.19,9.36,9.36,9.36C685.08,791.05,689.27,786.86,689.27,781.69z"/><path fill="#F6F6F5" d="M554.21,822.21l-79.59-44.78c-8.68-4.88-11.66-15.51-8.76-24.68c2.64-8.38,10.38-14.94,20.3-15.57
		c7.65-15.44,26.27-20.47,40.93-10.81c9.88-7.19,21.51-7.52,32.53-3.22c10.8,4.21,14.6,14.77,19.64,24.86
		c5.3,5.1,14.18,8.9,16.05,16.95c2.07,8.92,2.27,17.52-4.05,25.02c5.75,13.22,0.82,26.81-11.14,33.06
		C571.53,827.5,562.73,827,554.21,822.21z M558.94,815.88c8.22,4.62,16.78,2.29,22.66-3.65c6.71-6.78,4.13-15.51,1.5-23.54
		c3.53-6.15,8.18-13.05,4.57-21.66c-2.59-6.19-9.2-10.88-16.59-12.55c-1.05-10.31-5.48-20.38-14.92-24.46
		c-10.4-4.5-20.84-1.27-28.84,5.99c-5.85-5.48-13.71-7.92-21.6-6.3c-7.43,1.53-10.5,8.95-14.93,13.93
		c-5.95,1.9-14.27,1.95-16.81,9.31c-1.99,5.76-2.1,14,4.48,17.7L558.94,815.88z"/><path fill="#F6F6F5" d="M813.13,413.56l-84.43,11.23c-9.92,1.32-18.64-2.95-22.71-11.49c-4.16-8.62-2.19-18.66,5.5-25.25
		c-2.46-15.8,8.05-29.4,23.86-30.64c3.23-10.33,11.81-17.55,20.67-20.17c11.92-3.52,21.59,1.2,30.28,8.21
		c7-0.66,16.08-2.14,22.3,4.14c5.78,3.78,10.17,11.11,10.42,19.6c8.4,5.45,13.21,13.93,11.96,24.17
		C829.63,401.76,823.84,412.13,813.13,413.56z M811.56,405.95c8.06-1.05,11.89-9.88,11.74-16.27c-0.17-7.25-4.8-13.24-12.15-15.79
		c1.2-7.86-1.81-14.61-7.79-18.74c-5.92-4.09-13.26-3.83-19.84-0.06c-5.51-9.06-15.28-12.95-25.12-10.38
		c-8.66,2.26-15.84,9.7-16.82,20.23c-7.84-1.28-14,2.19-18.6,6.5c-5.96,5.58-2.58,13.3-4.23,19.08c-2.13,4.9-9.76,8.31-7.22,15.85
		c1.8,5.35,6,11.85,13.53,10.87L811.56,405.95z"/><path fill="#F6F6F5" d="M210.12,536.74c-12.63,2.11-23.8-3.39-29.83-13.94c-6.1-10.69-4.23-21.81,1.3-32.13
		c-0.64-6.28-1.34-13.02,2.75-19.4c3.19-4.97,9.96-6.88,15.28-9.42c6.87-8.78,14.73-16.25,26.06-16.36
		c10.76-0.1,21.3,5.03,26.71,15.12c13.89,0.26,24.35,10.22,27.32,22.55c3.33,13.93-3.2,27.23-15.81,33.52
		c-0.8,13.03-8.73,23.5-19.2,27.93C232.56,549.3,219.44,546.94,210.12,536.74z M213.24,528.21c6.96,10.61,19.03,13.37,29.23,8.84
		c9.38-4.16,14.59-14.56,13.8-25.32c12.21-3.54,18.51-15.14,15.98-26.57c-2.5-11.29-12.91-18.48-24.85-16.92
		c-3.37-9.98-12.28-15.06-21.61-14.85c-9.65,0.22-16.74,7.39-20.61,15.81c-5.51,0.57-11.58,2.35-14.27,6.53
		c-3.44,5.35-2.19,10.9-0.34,16.35c-6.9,7.69-9.12,19.31-2.61,28.19C193.19,528.37,203.17,531.31,213.24,528.21z"/><path fill="#F6F6F5" d="M816.71,572.92c-11.95,11.1-28.33,9.57-39.38-1.43c-15.19-1.69-26.73-12.78-30.14-27.67
		c-5.08-22.18,8.67-42.53,30.72-46.53c6.6-12.89,21.35-17.93,33.75-11.09c7.71-4.54,15.4-2.6,21.81,1.61
		c7.05,4.62,7.52,13.73,7.94,20.96c9.56,11.54,14.73,25.68,8.8,40.64C845.05,562.38,832.63,572.84,816.71,572.92z M814.64,565.81
		c13.87-1.15,25.1-8.31,29.02-20.85c3.91-12.51-1.37-26.12-11.63-33.7c2.54-6.39,1.77-13.03-3.38-17.29
		c-5.65-4.67-11.56-1.47-17.37,0.37c-5.27-1.5-10.9-5.29-17.46-2.26c-4.33,2-8.65,6.79-10.73,12.29
		c-10.17,1.19-20.14,6.31-24.95,14.77c-5.66,9.97-5.73,21.15-0.14,30.81c4.9,8.78,13.51,13.91,23.61,13.97
		c4.07,5.96,10.06,7.89,15.99,8.77C804.2,573.67,809.27,568.33,814.64,565.81z"/><path fill="#F6F6F5" d="M518.7,504.75c2.45,13.04-2.24,25.16-11.83,32.68c-10.04,7.87-23.43,9.03-35.34,2.66
		c-13.32,7.49-29.47,3.53-38.1-8.21c-9.36-12.72-7.69-29.58,4.44-40.03c-2.77-12.61,1.59-24.99,11.04-32.49
		c10.11-8.02,23.22-9.23,35-2.98c15.66-8.96,34.71-2.26,41.96,13.82C531.2,482.02,529.14,495.59,518.7,504.75z M509.62,501.97
		c12.48-7.56,14.3-22.39,6.7-32.84c-7.41-10.2-21.72-11.74-32.3-3.83c-9.61-6.95-21.76-6.54-30.2,0.21
		c-8.86,7.08-11.31,18.46-7.31,29.54c-11.73,6.97-14.6,21.75-7,32.01c7.66,10.34,21.99,12.03,32.02,3.62
		c9.58,7.5,21.74,7.52,30.82,0.44C510.87,524.47,513.72,513.32,509.62,501.97z"/><path fill="#F6F6F5" d="M573.48,435.96l-11.29-15.08L541,426.36c-5.44,1.41-10.42-2.71-12.49-7.32
		c-2.06-4.58-1.49-10.27,2.37-14.18l12.89-13.07l-9.15-16.44c-2.58-4.63-0.98-9.84,2.54-13.55c3.3-3.48,8.67-4.86,13.77-2.76
		l15.26,6.29l11.14-12.04c2.98-3.22,7.83-3.14,12.11-1.49c3.44,1.33,7.07,4.87,7.3,9.54l0.79,16l13.06,6.03
		c4.76,2.2,7.38,6.35,7.45,11.13c0.07,5.06-2.64,9.8-7.69,11.91l-13.27,5.54l-0.73,17c-0.25,5.88-3.79,10.11-8.39,11.72
		C582.44,442.61,577.18,440.91,573.48,435.96z M580.85,432.61c1.36,1.79,3.79,1.17,4.89,0.67c1.47-0.67,2.52-2.05,2.61-4.04
		l1.12-23.32l16.93-6.45c2.45-0.93,3.79-2.58,3.7-4.94c-0.09-2.26-1.42-3.8-3.83-4.79l-16.41-6.78l-1.01-20.78
		c-0.11-2.19-1.82-3.53-3.58-3.77c-1.44-0.2-3.06,0.25-4.26,1.63l-12.78,14.62l-21.37-8.52c-1.96-0.78-3.82,0.88-4.52,1.92
		c-0.9,1.33-0.96,3.07-0.11,4.62l10.97,20.1l-15.75,16.67c-1.97,2.08-2.68,4.55-1.74,6.46c1.21,2.45,3.72,3.11,6.31,2.39l23.12-6.41
		L580.85,432.61z"/><path fill="#F6F6F5" d="M399.62,366.51c-17.93,1.98-30.79-8.4-35.26-27.08c-2.29-0.41-4.29,1.39-5.95,2.84
		c-7.11,6.24-16.32,6.81-23.1,0.86c-6.71-5.88-7.75-16.19-1.61-23.56c5.48-6.58,13.07-11.07,21.44-13.46
		c17.9-5.1,35.87,4.98,40.9,24.2c9.57-11.03,23.36-16.28,36.69-11.11c8.38,3.25,11.44,12.47,9.13,20.09
		c-2.61,8.52-10.51,12.94-19.66,11.63C416.79,359.52,408.41,365.06,399.62,366.51z M422.23,343.33c5.65,1.14,9.78-0.68,11.83-5.01
		c1.74-3.69,1.35-9.3-3.06-11.31c-11.39-5.2-23.77,0.34-30.27,10.7c-1.89,3-6.06,5.28-8.62,2.21c-2.06-2.47-2.72-6.24-3.68-9.27
		c-4.15-13.08-16.66-20.47-30.11-17.26c-7.25,1.73-13.84,5.48-18.81,11.09c-3.55,4-2.57,10.08,1.26,13.16
		c9.82,7.89,15.55-10.68,26.7-6.15c6.49,2.64,4.03,23.14,22.74,27.04c9.72,2.03,18.4-2.14,24.54-9.96
		C416.46,346.35,418.56,342.59,422.23,343.33z"/><path fill="#F6F6F5" d="M737.42,735.82c-2.09,5.78-6.63,8.84-11.92,8.89c-5.42,0.05-9.66-3.21-11.65-8.66l-6.93-18.99
		l-21.52-8.49c-4.87-1.92-6.1-7.83-5.15-12.66c0.89-4.53,4.34-7.81,9.33-9.47l17.8-5.95l6.59-18.41c1.85-5.16,5.7-8.47,10.82-8.78
		c4.9-0.3,10.08,1.89,11.95,6.97l7.32,19.87l19.55,7.21c5.1,1.88,7.89,6.23,7.97,11.15c0.09,5.45-3.1,9.7-8.51,11.7l-18.92,7
		L737.42,735.82z M729.3,734.3l8.65-23.28l23.25-8.82c1.69-0.64,2.51-2.32,2.5-3.68c-0.02-1.51-0.95-2.87-2.7-3.5l-22.89-8.22
		l-8.36-22.5c-0.8-2.15-2.13-3.39-4.19-3.23c-1.53,0.11-2.93,1.08-3.62,2.93l-8.4,22.62l-24.13,8.82c-1.62,0.59-1.85,2.56-1.55,3.99
		c0.28,1.32,1.1,2.2,2.85,2.88l22.47,8.7l8.88,23.99c0.68,1.83,2.73,2.18,4.22,1.84C727.45,736.55,728.72,735.86,729.3,734.3z"/><path fill="#F6F6F5" d="M253.65,370.04c-1.94,5.7-6.06,8.83-11.21,8.97c-5.21,0.14-9.83-2.41-11.76-7.71l-7.13-19.5
		l-19.19-7.15c-5-1.86-7.6-7.02-7.25-11.96c0.36-5.08,3.78-8.88,8.99-10.7l17.65-6.15l7.04-18.91c1.92-5.17,5.69-8.14,10.74-8.35
		c5.12-0.21,9.67,2.25,11.54,7.41l7.17,19.83l18.38,6.54c4.85,1.73,7.78,5.69,8.05,10.39c0.28,5.05-2.15,9.83-7.26,11.73
		l-19.53,7.26L253.65,370.04z M245.68,368.67l8.47-23.25l22.14-8.09c1.91-0.7,2.86-2.22,2.84-3.81c-0.02-1.76-1.01-2.99-2.98-3.7
		l-22.01-7.95l-8.73-23.23c-0.65-1.74-2.4-2.44-3.78-2.32c-1.6,0.14-2.67,1.26-3.33,3.01l-8.44,22.66l-22.58,8.28
		c-1.86,0.68-2.52,2.57-2.31,4.17c0.17,1.32,1.05,2.28,2.67,2.9l21.87,8.3l8.7,23.09c0.75,2,2.39,2.75,4.23,2.5
		C243.68,371.05,245.09,370.31,245.68,368.67z"/><path fill="#F6F6F5" d="M339.47,622.94c-1.92,5.27-6.31,7.89-10.95,7.94c-5.38,0.07-9.12-3.22-11.04-8.48l-6.15-16.84
		l-18.75-7.14c-4.42-1.68-6.3-6.41-6.04-10.88c0.25-4.38,3.1-8.53,7.85-10.16l17.11-5.88l6.06-16.86c1.85-5.13,5.81-8.33,10.95-8.33
		c4.99,0,9.27,3.16,11.08,8.19l6.11,16.97l19.71,7.14c4.54,1.64,5.83,7.09,5.31,11.53c-0.52,4.43-3.61,7.75-8.25,9.44l-16.72,6.1
		L339.47,622.94z M332.61,620.04l7.38-20.22l20.18-7.62c1.98-0.75,3.1-1.87,3.16-3.71c0.06-1.91-0.99-3.08-3-3.82l-20.38-7.47
		l-7.62-20.52c-0.73-1.97-1.97-2.98-3.82-2.95c-1.76,0.03-2.93,1.23-3.62,3.18l-7.13,20.13l-21.05,7.65
		c-1.94,0.71-3.04,1.92-2.89,3.78c0.1,1.19,0.96,2.67,2.51,3.28l20.82,8.21l7.83,21.05c0.73,1.97,2.66,2.61,4.49,2.25
		C330.66,623.04,331.88,622.04,332.61,620.04z"/><path fill="#F6F6F5" d="M574.57,672.54c0.02-7.72,3.28-14.24,7.14-19.79c6.22-8.94,16.36-13.02,27.06-11.71
		c-3.09-20.34,14.22-36.15,32.96-35.73c9.29,0.21,16.25,7.55,16.64,16.13c0.4,8.84-5.98,16.07-15.33,17.58
		c1.72,10.24-0.54,19.97-7.24,27.15c-6.61,7.08-16.41,10.25-27.18,8.24c-1.82,9-8.92,14.56-17.25,14.46
		C583.01,688.77,574.55,682.26,574.57,672.54z M607.59,666.4c7.92,2.12,16.41,0.75,22.12-5.05c11.14-11.3,2.84-24.6,6.01-28.04
		c2.35-2.55,13.37-0.5,14.57-9.88c0.62-4.84-2.18-9.61-7.49-10.21c-4.95-0.56-9.81,1.26-14.17,3.38
		c-10.5,5.1-14.92,16.75-10.79,27.6c0.63,1.66-0.24,3.54-1.03,4.28c-0.98,0.92-3.32,1.37-4.79,0.93
		c-13.47-3.99-25.04,4.01-28.6,17.09c-1.13,4.16-1.88,8.23,1.1,11.54c2.64,2.93,7.01,3.81,11.08,2.14
		C603.1,677.13,599.03,664.11,607.59,666.4z"/><path fill="#F6F6F5" d="M424.43,662.03c-6.61,8.45-15.28,12.03-23.37,8.11c-8.64-4.19-12.17-14.95-7.5-23.61
		c9.3-17.26,33.08-26.5,50.7-12.91c5.45-8.38,14.77-11.53,22.87-7.21c8.44,4.51,12.06,14.44,7.42,23.82
		c6.68,3.35,10.39,9.32,9.99,16.25c-0.39,6.84-4.82,12.98-11.94,15.13C452.02,687.82,433.88,683.43,424.43,662.03z M468.92,641.98
		c0-5.24-4.24-9.48-9.48-9.48c-5.24,0-9.48,4.24-9.48,9.48c0,5.23,4.24,9.48,9.48,9.48C464.68,651.46,468.92,647.22,468.92,641.98z
		 M458.4,676.41c4.67-0.38,9.62-1.11,13.7-3.23c4.74-2.46,5.58-8.06,3.8-11.73c-4.77-9.83-15.82-0.69-22.27-3.46
		c-2.08-0.89-4.13-3.5-5.34-6.31c-4.28-9.96-13.02-17.47-24.32-16.93c-9.53,0.46-17.19,6.22-22.63,13.58
		c-3.65,4.94-2.5,11.27,2.56,14.25c10.5,6.17,13.41-10.38,21.49-9.69c3.18,0.27,5.32,2.99,6.56,6.16
		C436.33,670.29,446.29,677.41,458.4,676.41z"/><path fill="#F6F6F5" d="M635.42,557.35c-1.4,4.7-5.43,7.4-9.92,7.39c-4.53,0-8.43-2.68-9.89-7.4l-6.11-19.8l-15.96-5.96
		c-4.47-1.67-7.21-4.81-7.36-9.24c-0.14-4.12,1.68-8.62,6.07-10.11l17.28-5.9l6.32-20.4c1.41-4.55,5.27-7.17,9.64-7.14
		c4.35,0.02,8.13,2.75,9.57,7.28l6.43,20.33l15.66,5.4c4.46,1.54,7.17,4.72,7.53,8.97c0.39,4.62-1.83,8.8-6.55,10.51l-16.75,6.07
		L635.42,557.35z M628.26,554.68l6.99-23.09l20.03-7.29c1.27-0.46,1.67-1.9,1.63-2.78c-0.05-1.03-0.59-1.96-1.98-2.44l-19.48-6.71
		l-7.91-24.95c-0.42-1.33-1.89-1.7-2.91-1.27c-0.57,0.24-1.23,0.86-1.55,1.93l-7.26,23.9l-21.1,7.63c-0.97,0.35-1.05,2.17-0.72,2.76
		c0.3,0.53,0.84,1.38,1.93,1.79l19.65,7.38l8.1,24.72c0.31,0.96,2.14,1.01,2.71,0.7C626.91,556.68,627.82,556.15,628.26,554.68z"/><path fill="#F6F6F5" d="M656.37,315.78c-5.18,3.84-10.69,4.08-16.45,2.26c-4.56-1.44-8.13-7.12-10.48-12.04
		c-6.42,1.34-12.74,3.75-19.76,0.31c-5.35-2.62-8.17-8.96-10.13-14.96c-6.17-0.53-14.24-1.12-17.82-7.65
		c-3.16-5.76-3.45-12.99,1.15-18.95c7.75-10.03,20.77-13.35,32.92-10.94c8.99,1.79,13.96,9.54,18.53,15.11
		c8.96,1.36,18.43,2.31,25.02,9.76C669.07,289.68,668.79,306.58,656.37,315.78z M634.17,294.67c2.79-1.07,5.31-0.94,7.17,1.47
		c-4.52,3.19-5,7.56-2.84,11.08c2.39,3.89,6.9,5.12,11.2,3.31c5.46-2.29,8.44-7.98,8.85-13.36c0.42-5.46-1.87-10.76-6.27-14.49
		c-6.43-5.46-14.76-6.56-23.52-4.45c-1.54-7.57-5.73-13.41-12.97-16.05c-9.34-3.41-20.01-0.5-26.56,6.97
		c-2.75,3.14-3.17,7.97-0.42,10.99c4.42,4.86,11.33,3.84,15.48-0.82c1.54-1.73,4.38-1.91,5.77-0.88c4.62,3.45-5.29,9.62-0.39,17.48
		c2.3,3.7,6.89,5.5,11.16,3.86L634.17,294.67z"/><path fill="#F6F6F5" d="M294.81,675.28c0,20.56-16.67,37.23-37.23,37.23s-37.23-16.67-37.23-37.23s16.67-37.23,37.23-37.23
		S294.81,654.72,294.81,675.28z M286.98,675.22c0-16.28-13.19-29.47-29.47-29.47s-29.47,13.19-29.47,29.47
		c0,16.28,13.19,29.47,29.47,29.47S286.98,691.49,286.98,675.22z"/><path fill="#F6F6F5" d="M533.34,233.71c0,20.59-16.69,37.29-37.29,37.29c-20.59,0-37.29-16.69-37.29-37.29
		s16.69-37.29,37.29-37.29C516.65,196.42,533.34,213.11,533.34,233.71z M525.55,233.65c0-16.29-13.2-29.49-29.49-29.49
		s-29.49,13.2-29.49,29.49s13.2,29.49,29.49,29.49S525.55,249.94,525.55,233.65z"/><path fill="#F6F6F5" d="M389.53,448.07c0,19.65-15.93,35.58-35.58,35.58c-19.65,0-35.58-15.93-35.58-35.58
		c0-19.65,15.93-35.58,35.58-35.58C373.6,412.49,389.53,428.42,389.53,448.07z M382,448c0-15.45-12.53-27.98-27.98-27.98
		c-15.45,0-27.98,12.53-27.98,27.98c0,15.45,12.53,27.98,27.98,27.98C369.47,475.97,382,463.45,382,448z"/><path fill="#F6F6F5" d="M538.62,595.73c0,11.01-8.92,19.93-19.93,19.93s-19.93-8.92-19.93-19.93s8.92-19.93,19.93-19.93
		S538.62,584.72,538.62,595.73z M530.82,595.67c0-6.65-5.39-12.03-12.03-12.03s-12.03,5.39-12.03,12.03
		c0,6.65,5.39,12.03,12.03,12.03S530.82,602.32,530.82,595.67z"/><path fill="#383838" d="M558.94,815.88l-80.48-45.23c-6.58-3.7-6.47-11.94-4.48-17.7c2.54-7.36,10.86-7.4,16.81-9.31
		c4.43-4.98,7.5-12.4,14.93-13.93c7.89-1.63,15.75,0.82,21.6,6.3c8.01-7.26,18.45-10.49,28.84-5.99
		c9.44,4.08,13.86,14.15,14.92,24.46c7.39,1.67,14,6.36,16.59,12.55c3.6,8.61-1.05,15.51-4.57,21.66c2.62,8.03,5.21,16.77-1.5,23.54
		C575.72,818.18,567.17,820.51,558.94,815.88z M562.59,813.92c7.03,3.94,15.03-1.15,18.25-6.44c3.83-6.27,1.89-13.61-3.08-19.52
		c2.89-2.6,5.77-4.78,7.01-8.28c2.03-5.77,0.63-11.63-3.43-16.27c-3.11-3.56-8.28-5.55-14.28-5.6c1.61-10.73-3.45-21.02-12.68-24.85
		c-9.6-3.99-20.15-0.65-26.9,8.44c-5.02-6.61-11.95-10.26-19.82-8.55c-6.86,1.49-12.24,7.69-13.24,16c-6.08-2.12-12-1.47-15.96,3.32
		c-2.86,3.46-4.29,12.25,1.19,15.32L562.59,813.92z"/><path fill="#383838" d="M811.56,405.95l-86.5,11.28c-7.53,0.98-11.72-5.52-13.53-10.87c-2.54-7.54,5.09-10.94,7.22-15.85
		c1.65-5.78-1.74-13.5,4.23-19.08c4.6-4.31,10.76-7.78,18.6-6.5c0.98-10.52,8.16-17.97,16.82-20.23
		c9.84-2.57,19.61,1.33,25.12,10.38c6.58-3.77,13.92-4.04,19.84,0.06c5.99,4.14,8.99,10.88,7.79,18.74
		c7.35,2.55,11.98,8.54,12.15,15.79C823.45,396.07,819.62,404.89,811.56,405.95z M808.51,403.35c8.23-1.06,11.29-7.82,11.55-14.36
		c0.3-7.63-7.83-10.24-11.89-13.52c-0.83-6.18,0.01-14.14-6.86-17.73c-6.18-3.24-12.46-2.74-18.98,1.84
		c-4.67-9.57-14.01-14.14-23.45-11.54c-8.48,2.33-14.58,10.61-14.32,20.95c-7.51-2.13-14.21-0.48-18.75,4.35
		c-5.32,5.66-3.52,13.14-1.94,19.57c-4.31,2.29-10.91,6.09-9.16,12.62c1.47,5.48,5.68,9.21,12.18,8.37L808.51,403.35z"/><path fill="#383838" d="M213.24,528.21c-10.07,3.1-20.05,0.16-25.29-7.95c-6.51-8.89-4.29-20.5,2.61-28.19
		c-1.85-5.45-3.1-11,0.34-16.35c2.69-4.17,8.76-5.96,14.27-6.53c3.87-8.42,10.97-15.59,20.61-15.81
		c9.34-0.21,18.24,4.87,21.61,14.85c11.93-1.56,22.34,5.63,24.85,16.92c2.53,11.43-3.77,23.03-15.98,26.57
		c0.79,10.76-4.42,21.16-13.8,25.32C232.27,541.57,220.19,538.82,213.24,528.21z M214.38,524.18c5.45,10.49,16.86,14.13,26.28,10.06
		c8.95-3.86,14.28-13.98,11.61-24.58c11.17-2.46,18.97-11.69,17.11-22.33c-2.03-11.56-12.41-18.31-24.33-15.38
		c-2.07-9.78-10.09-15.71-19.42-15.35c-9.28,0.36-15.27,7.96-18.13,16.62c-5.67-0.95-11.21,0.22-13.93,4.9
		c-2.46,4.26-2.09,9.42,1.85,14.11c-8.34,6.37-10.52,17.18-5.08,25.67C195.48,525.91,204.99,528.24,214.38,524.18z"/><path fill="#383838" d="M814.64,565.81c-5.38,2.52-10.44,7.87-17.04,6.89c-5.94-0.88-11.92-2.81-15.99-8.77
		c-10.1-0.06-18.71-5.19-23.61-13.97c-5.58-9.66-5.52-20.85,0.14-30.81c4.81-8.46,14.78-13.58,24.95-14.77
		c2.07-5.51,6.4-10.29,10.73-12.29c6.57-3.04,12.19,0.75,17.46,2.26c5.81-1.84,11.71-5.04,17.37-0.37
		c5.15,4.25,5.92,10.9,3.38,17.29c10.26,7.58,15.53,21.19,11.63,33.7C839.75,557.5,828.52,564.66,814.64,565.81z M813.42,562.1
		c13.45,0.23,24.22-7.47,27.3-19.26c3.14-12.03-2.23-24.19-13.5-30.58c4.16-5.22,4.1-11.03-0.01-14.98
		c-3.55-3.41-9.55-3.22-13.48,0.45c-3.68,3.44-9.36-7.35-19.93-1.78c-3.81,2.01-6.92,6.36-7.68,12.29
		c-11.47-1.03-20.65,5.16-25.4,13.47c-5.81,10.14-3.77,21.1,2.36,29.93c5.15,7.42,12.66,7.49,19.78,10
		c4.78,2.18,8.44,7.96,14.79,7.97C803.65,569.62,808.45,565.83,813.42,562.1z"/><path fill="#383838" d="M509.62,501.97c4.1,11.35,1.25,22.5-7.28,29.15c-9.07,7.08-21.24,7.06-30.82-0.44
		c-10.03,8.4-24.36,6.72-32.02-3.62c-7.6-10.25-4.73-25.03,7-32.01c-4-11.08-1.55-22.46,7.31-29.54c8.45-6.75,20.59-7.16,30.2-0.21
		c10.59-7.91,24.9-6.36,32.3,3.83C523.92,479.59,522.11,494.41,509.62,501.97z M505.48,500.75c12.33-5.7,15.38-19.44,8.51-29.14
		c-6.95-9.81-20.53-10.92-29.8-2c-8.77-7.91-20.95-8.35-29.26-0.68c-7.84,7.24-8.66,17.97-4.4,27.59
		c-7.99,4.06-12.35,11.11-11.91,18.97c0.41,7.28,5.5,13.61,12.35,16.19c7.2,2.71,14.51,0.28,20.6-5.05c8.71,7.96,20.34,8.56,28.6,2
		C508.56,521.97,510.7,511.34,505.48,500.75z"/><path fill="#383838" d="M580.85,432.61l-15.71-20.75l-23.12,6.41c-2.6,0.72-5.1,0.06-6.31-2.39
		c-0.95-1.91-0.23-4.38,1.74-6.46l15.75-16.67l-10.97-20.1c-0.85-1.55-0.78-3.29,0.11-4.62c0.7-1.04,2.56-2.7,4.52-1.92l21.37,8.52
		L581,360.02c1.21-1.38,2.83-1.82,4.26-1.63c1.76,0.24,3.48,1.58,3.58,3.77l1.01,20.78l16.41,6.78c2.41,1,3.74,2.53,3.83,4.79
		c0.09,2.35-1.25,4-3.7,4.94l-16.93,6.45l-1.12,23.32c-0.1,1.99-1.14,3.37-2.61,4.04C584.64,433.78,582.21,434.4,580.85,432.61z
		 M584.37,431.18l2.09-27.51l18.88-7.32c0.76-0.29,1.55-1.34,1.5-1.84c-0.06-0.53-1.01-1.3-1.75-1.62l-18.27-7.91l-0.52-19.06
		c-0.04-1.57-0.61-4.11-2.25-4.3l-14.98,16.74c-8.49-2.52-15.36-7.65-24.49-8.86l12.32,23.79l-18.23,19.76
		c-0.46,1.1,0.94,2.52,2.23,2.16l22.2-6.21c2.25-0.63,3.91,0.1,5.19,1.74L584.37,431.18z"/><path fill="#383838" d="M422.23,343.33c-3.67-0.74-5.77,3.02-7.5,5.23c-6.14,7.82-14.82,11.99-24.54,9.96
		c-18.71-3.9-16.25-24.4-22.74-27.04c-11.15-4.53-16.88,14.04-26.7,6.15c-3.83-3.07-4.8-9.15-1.26-13.16
		c4.97-5.61,11.56-9.36,18.81-11.09c13.45-3.21,25.97,4.18,30.11,17.26c0.96,3.03,1.62,6.8,3.68,9.27c2.57,3.07,6.74,0.79,8.62-2.21
		c6.51-10.35,18.88-15.9,30.27-10.7c4.41,2.01,4.8,7.62,3.06,11.31C432.01,342.65,427.88,344.47,422.23,343.33z M431.72,334.57
		c0.02-3.23-2.27-5.09-5.75-5.71c-19.02-3.4-21.76,16.56-31.31,15.86c-3.29-0.24-5.96-2.66-7.18-6.16l-3.36-9.64
		c-2.91-8.36-11.04-13.05-20.2-12.81c-12.01,0.31-27.89,10.68-21.74,18.27c1.34,1.66,5.13,3.21,7.18,0.95
		c4.7-5.2,11.41-9.41,18.67-7.29c9.91,2.91,5.22,23.83,23.35,27.37c8.16,1.59,15.95-2.17,20.82-9.22
		C420.21,334.58,431.65,345,431.72,334.57z"/><path fill="#383838" d="M729.3,734.3c-0.58,1.56-1.85,2.25-3.02,2.52c-1.49,0.34-3.54-0.01-4.22-1.84l-8.88-23.99
		l-22.47-8.7c-1.74-0.68-2.56-1.56-2.85-2.88c-0.31-1.43-0.07-3.4,1.55-3.99l24.13-8.82l8.4-22.62c0.69-1.85,2.08-2.81,3.62-2.93
		c2.06-0.15,3.39,1.08,4.19,3.23l8.36,22.5l22.89,8.22c1.76,0.63,2.69,1.99,2.7,3.5c0.02,1.36-0.8,3.04-2.5,3.68l-23.25,8.82
		L729.3,734.3z M725.65,733.38l10.27-25.15l24.57-9.52l-25.24-9.73l-9.54-24.56l-9.79,24.64l-24.51,9.59l24.1,9.88L725.65,733.38z"/><path fill="#383838" d="M245.68,368.67c-0.6,1.64-2,2.39-3.22,2.55c-1.84,0.24-3.48-0.51-4.23-2.5l-8.7-23.09l-21.87-8.3
		c-1.62-0.62-2.5-1.58-2.67-2.9c-0.2-1.61,0.45-3.49,2.31-4.17l22.58-8.28l8.44-22.66c0.65-1.75,1.72-2.88,3.33-3.01
		c1.38-0.12,3.13,0.58,3.78,2.32l8.73,23.23l22.01,7.95c1.97,0.71,2.96,1.94,2.98,3.7c0.02,1.59-0.93,3.11-2.84,3.81l-22.14,8.09
		L245.68,368.67z M241.85,368.31l9.84-25.36l23.89-9.26l-24.01-9.28l-9.39-24.88l-9.91,25.1l-23.87,9.1l23.94,9.89
		C235.71,352.03,237.8,360.48,241.85,368.31z"/><path fill="#383838" d="M332.61,620.04c-0.73,2-1.95,3-3.16,3.24c-1.83,0.36-3.76-0.28-4.49-2.25l-7.83-21.05l-20.82-8.21
		c-1.55-0.61-2.42-2.09-2.51-3.28c-0.15-1.86,0.95-3.07,2.89-3.78l21.05-7.65l7.13-20.13c0.69-1.95,1.86-3.15,3.62-3.18
		c1.85-0.03,3.09,0.98,3.82,2.95l7.62,20.52l20.38,7.47c2.01,0.74,3.06,1.91,3,3.82c-0.06,1.84-1.18,2.96-3.16,3.71l-20.18,7.62
		L332.61,620.04z M328.59,620.37l8.84-22.97l22.22-8.99l-22.38-8.62l-8.56-22.38l-8.73,22.52l-22.5,8.34l22.05,9.26L328.59,620.37z"/><path fill="#383838" d="M607.59,666.4c-8.56-2.29-4.49,10.73-11.98,13.78c-4.08,1.66-8.44,0.79-11.08-2.14
		c-2.99-3.31-2.23-7.38-1.1-11.54c3.55-13.08,15.13-21.08,28.6-17.09c1.46,0.43,3.8-0.02,4.79-0.93c0.79-0.74,1.66-2.62,1.03-4.28
		c-4.12-10.85,0.29-22.5,10.79-27.6c4.36-2.12,9.22-3.93,14.17-3.38c5.31,0.6,8.11,5.38,7.49,10.21c-1.2,9.39-12.23,7.34-14.57,9.88
		c-3.17,3.44,5.13,16.74-6.01,28.04C624,667.15,615.51,668.52,607.59,666.4z M627.58,658.89c9.93-10.65,1.06-22.15,4.84-26.85
		c4.83-6.01,13.11-1.86,14.42-8.8c0.45-2.39-0.6-6.12-3.82-6.52c-4.88-0.6-9.66,1.22-13.82,3.42c-8.12,4.29-11.58,13.46-8.61,22.12
		c1.06,3.1,0.81,6.17-1.42,8.4c-1.61,1.61-4.98,2.82-7.89,1.96c-11.78-3.46-21.9,3.41-24.63,15.28c-0.59,2.55-1.7,5.59,0.2,7.74
		c1.65,1.87,4.67,2.53,7.47,1.53c4.44-1.59,1.81-8.93,6.73-12.84C606.37,660.11,618.43,668.7,627.58,658.89z"/><path fill="#383838" d="M458.4,676.41c-12.11,1-22.07-6.12-26.45-17.36c-1.24-3.17-3.38-5.89-6.56-6.16
		c-8.09-0.69-10.99,15.86-21.49,9.69c-5.06-2.98-6.21-9.31-2.56-14.25c5.44-7.36,13.1-13.12,22.63-13.58
		c11.3-0.54,20.04,6.97,24.32,16.93c1.21,2.81,3.26,5.42,5.34,6.31c6.45,2.77,17.51-6.36,22.27,3.46c1.78,3.67,0.94,9.26-3.8,11.73
		C468.02,675.31,463.07,676.03,458.4,676.41z M468.21,671.37c4.06-0.98,6.16-4.03,5.02-7.86c-2.52-8.43-14.33,1.75-21.87-2.95
		c-7.3-4.55-7.63-18.23-21.02-21.82c-10.3-2.77-20.05,2.58-26.61,12.03c-2.05,2.95-1.56,6.76,1.3,8.69
		c6.48,4.37,8.87-5.07,14.88-8.46c5.6-3.15,11.43-0.66,14.03,5.11C441.36,672.6,451.69,675.37,468.21,671.37z"/><path fill="#383838" d="M468.92,641.98c0,5.23-4.24,9.48-9.48,9.48c-5.24,0-9.48-4.24-9.48-9.48c0-5.24,4.24-9.48,9.48-9.48
		C464.68,632.5,468.92,636.75,468.92,641.98z M465.58,642.05c0-3.39-2.75-6.13-6.13-6.13s-6.13,2.75-6.13,6.13
		c0,3.39,2.75,6.13,6.13,6.13S465.58,645.44,465.58,642.05z"/><path fill="#383838" d="M628.26,554.68c-0.44,1.47-1.36,2-1.88,2.29c-0.57,0.31-2.4,0.26-2.71-0.7l-8.1-24.72l-19.65-7.38
		c-1.09-0.41-1.63-1.25-1.93-1.79c-0.33-0.59-0.26-2.41,0.72-2.76l21.1-7.63l7.26-23.9c0.33-1.07,0.98-1.69,1.55-1.93
		c1.02-0.43,2.49-0.06,2.91,1.27l7.91,24.95l19.48,6.71c1.39,0.48,1.93,1.41,1.98,2.44c0.04,0.89-0.36,2.32-1.63,2.78l-20.03,7.29
		L628.26,554.68z M625.59,551.44l7.26-22.3l18.72-7.44l-18.71-6.75l-7.35-22.39l-7.42,22.34l-19.2,6.66l19.14,7.58L625.59,551.44z"/><path fill="#383838" d="M634.17,294.67l-13.34,5.11c-4.27,1.64-8.86-0.16-11.16-3.86c-4.9-7.86,5.01-14.03,0.39-17.48
		c-1.38-1.03-4.23-0.85-5.77,0.88c-4.15,4.66-11.06,5.69-15.48,0.82c-2.75-3.03-2.33-7.85,0.42-10.99
		c6.55-7.48,17.22-10.39,26.56-6.97c7.24,2.64,11.43,8.48,12.97,16.05c8.76-2.11,17.09-1.01,23.52,4.45
		c4.4,3.73,6.69,9.03,6.27,14.49c-0.42,5.38-3.39,11.07-8.85,13.36c-4.3,1.81-8.81,0.58-11.2-3.31c-2.16-3.52-1.68-7.89,2.84-11.08
		C639.47,293.73,636.96,293.61,634.17,294.67z M642.65,307.05c1.3,0.77,3.32,1.45,5.01,0.7c7.5-3.32,9.92-12.07,5.4-18.83
		c-4.58-6.85-12.61-9.52-20.72-7.58c-2.08,0.5-3.97,1.22-6.37,0.61c-0.24-6.23-3.11-11.41-7.25-14.38
		c-9.77-7.02-23.91-2.15-27.91,5.24c-1.73,3.2,0.89,6.03,3.15,6.85c6.28,2.28,10.54-9.25,17.89-3.96c3.08,2.22,3.71,6.97,1.33,10.43
		c-1.82,2.64-2.52,5.72-0.33,8.4c1.27,1.55,4.02,3.04,6.83,2.03l16.22-5.78c3.29-1.17,6.71,1.27,7.78,3.9
		C645.58,299.37,636.21,303.26,642.65,307.05z"/><path fill="#383838" d="M286.98,675.22c0,16.28-13.19,29.47-29.47,29.47s-29.47-13.19-29.47-29.47
		c0-16.28,13.19-29.47,29.47-29.47S286.98,658.94,286.98,675.22z M283.56,675.25c0-14.4-11.67-26.07-26.07-26.07
		s-26.07,11.67-26.07,26.07c0,14.4,11.67,26.07,26.07,26.07S283.56,689.65,283.56,675.25z"/><path fill="#383838" d="M525.55,233.65c0,16.29-13.2,29.49-29.49,29.49s-29.49-13.2-29.49-29.49s13.2-29.49,29.49-29.49
		S525.55,217.37,525.55,233.65z M522.32,233.71c0-14.5-11.75-26.25-26.25-26.25s-26.25,11.75-26.25,26.25s11.75,26.25,26.25,26.25
		S522.32,248.21,522.32,233.71z"/><path fill="#383838" d="M382,448c0,15.45-12.53,27.98-27.98,27.98c-15.45,0-27.98-12.53-27.98-27.98
		c0-15.45,12.53-27.98,27.98-27.98C369.47,420.02,382,432.54,382,448z M378.68,447.97c0-13.6-11.03-24.63-24.63-24.63
		s-24.63,11.03-24.63,24.63s11.03,24.63,24.63,24.63S378.68,461.57,378.68,447.97z"/><path fill="#383838" d="M530.82,595.67c0,6.65-5.39,12.03-12.03,12.03s-12.03-5.39-12.03-12.03
		c0-6.65,5.39-12.03,12.03-12.03S530.82,589.02,530.82,595.67z M527.61,595.65c0-4.88-3.96-8.84-8.84-8.84s-8.84,3.96-8.84,8.84
		s3.96,8.84,8.84,8.84S527.61,600.54,527.61,595.65z"/><path fill="#F6F6F5" d="M562.59,813.92l-82.94-46.44c-5.48-3.07-4.05-11.86-1.19-15.32c3.97-4.79,9.88-5.45,15.96-3.32
		c1-8.31,6.38-14.5,13.24-16c7.87-1.71,14.8,1.93,19.82,8.55c6.76-9.1,17.3-12.43,26.9-8.44c9.23,3.83,14.29,14.12,12.68,24.85
		c6,0.05,11.17,2.05,14.28,5.6c4.06,4.64,5.46,10.5,3.43,16.27c-1.23,3.51-4.12,5.68-7.01,8.28c4.97,5.92,6.91,13.25,3.08,19.52
		C577.61,812.77,569.62,817.86,562.59,813.92z"/><path fill="#F6F6F5" d="M808.51,403.35l-81.62,10.55c-6.5,0.84-10.71-2.89-12.18-8.37c-1.75-6.53,4.85-10.33,9.16-12.62
		c-1.59-6.43-3.38-13.91,1.94-19.57c4.54-4.83,11.24-6.48,18.75-4.35c-0.26-10.34,5.84-18.62,14.32-20.95
		c9.44-2.59,18.78,1.97,23.45,11.54c6.52-4.58,12.79-5.07,18.98-1.84c6.86,3.59,6.03,11.55,6.86,17.73
		c4.06,3.28,12.19,5.89,11.89,13.52C819.8,395.53,816.74,402.29,808.51,403.35z"/><path fill="#F6F6F5" d="M214.38,524.18c-9.39,4.05-18.9,1.73-24.04-6.28c-5.45-8.49-3.26-19.3,5.08-25.67
		c-3.94-4.7-4.31-9.85-1.85-14.11c2.71-4.68,8.26-5.85,13.93-4.9c2.86-8.65,8.85-16.26,18.13-16.62
		c9.33-0.36,17.34,5.57,19.42,15.35c11.92-2.93,22.3,3.82,24.33,15.38c1.87,10.64-5.94,19.87-17.11,22.33
		c2.67,10.6-2.66,20.72-11.61,24.58C231.24,538.31,219.83,534.68,214.38,524.18z"/><path fill="#98C29D" d="M813.42,562.1c-4.98,3.73-9.77,7.52-15.76,7.51c-6.35-0.01-10.01-5.79-14.79-7.97
		c-7.12-2.5-14.63-2.58-19.78-10c-6.13-8.83-8.17-19.79-2.36-29.93c4.75-8.3,13.93-14.5,25.4-13.47c0.76-5.93,3.87-10.28,7.68-12.29
		c10.57-5.57,16.25,5.22,19.93,1.78c3.92-3.67,9.93-3.86,13.48-0.45c4.11,3.94,4.17,9.76,0.01,14.98
		c11.27,6.39,16.64,18.55,13.5,30.58C837.64,554.63,826.87,562.33,813.42,562.1z M773.59,521.51c0-1.41-1.14-2.55-2.55-2.55
		s-2.55,1.14-2.55,2.55s1.14,2.55,2.55,2.55S773.59,522.92,773.59,521.51z M768.09,532c0.21-1.29-0.3-2.12-0.8-2.55
		c-0.44-0.39-2.31-0.44-2.47,0.27c-3.66,15.28,10.95,27.09,10.6,20.8C775.32,548.89,766.2,543.46,768.09,532z"/><path fill="#EA725F" d="M505.48,500.75c5.22,10.59,3.07,21.22-5.31,27.88c-8.26,6.56-19.89,5.96-28.6-2
		c-6.09,5.32-13.41,7.76-20.6,5.05c-6.85-2.58-11.95-8.91-12.35-16.19c-0.44-7.86,3.93-14.91,11.91-18.97
		c-4.25-9.62-3.44-20.35,4.4-27.59c8.32-7.67,20.5-7.23,29.26,0.68c9.28-8.92,22.85-7.81,29.8,2
		C520.86,481.31,517.81,495.05,505.48,500.75z"/><path fill="#EFCF71" d="M584.37,431.18l-16.09-20.45c-1.28-1.63-2.95-2.36-5.19-1.74l-22.2,6.21
		c-1.28,0.36-2.69-1.06-2.23-2.16l18.23-19.76l-12.32-23.79c9.14,1.21,16,6.34,24.49,8.86l14.98-16.74c1.63,0.19,2.2,2.74,2.25,4.3
		l0.52,19.06l18.27,7.91c0.73,0.32,1.69,1.08,1.75,1.62c0.05,0.5-0.74,1.55-1.5,1.84l-18.88,7.32L584.37,431.18z"/><path fill="#98C29D" d="M431.72,334.57c-0.07,10.43-11.51,0.01-19.53,11.61c-4.87,7.05-12.66,10.82-20.82,9.22
		c-18.13-3.54-13.44-24.46-23.35-27.37c-7.25-2.13-13.97,2.08-18.67,7.29c-2.05,2.27-5.84,0.71-7.18-0.95
		c-6.15-7.59,9.73-17.96,21.74-18.27c9.16-0.24,17.29,4.45,20.2,12.81l3.36,9.64c1.22,3.5,3.89,5.92,7.18,6.16
		c9.55,0.7,12.29-19.26,31.31-15.86C429.45,329.47,431.74,331.33,431.72,334.57z"/><path fill="#EA725F" d="M241.85,368.31c-4.05-7.83-6.15-16.28-9.5-24.69l-23.94-9.89l23.87-9.1l9.91-25.1l9.39,24.88
		l24.01,9.28l-23.89,9.26L241.85,368.31z"/><path fill="#98C29D" d="M627.58,658.89c-9.16,9.82-21.22,1.23-26.53,5.45c-4.92,3.91-2.28,11.24-6.73,12.84
		c-2.8,1-5.82,0.34-7.47-1.53c-1.9-2.15-0.79-5.19-0.2-7.74c2.74-11.87,12.85-18.74,24.63-15.28c2.91,0.86,6.29-0.35,7.89-1.96
		c2.23-2.23,2.48-5.3,1.42-8.4c-2.97-8.66,0.48-17.83,8.61-22.12c4.15-2.2,8.94-4.02,13.82-3.42c3.22,0.4,4.27,4.13,3.82,6.52
		c-1.31,6.95-9.59,2.8-14.42,8.8C628.64,636.74,637.51,648.24,627.58,658.89z"/><path fill="#EA725F" d="M468.21,671.37c-16.52,4-26.85,1.23-34.27-15.26c-2.59-5.77-8.42-8.26-14.03-5.11
		c-6.01,3.38-8.4,12.83-14.88,8.46c-2.86-1.93-3.35-5.74-1.3-8.69c6.55-9.45,16.3-14.8,26.61-12.03
		c13.39,3.6,13.72,17.28,21.02,21.82c7.54,4.7,19.35-5.48,21.87,2.95C474.38,667.34,472.27,670.38,468.21,671.37z"/><path fill="#EA725F" d="M642.65,307.05c-6.43-3.8,2.94-7.68,1.02-12.36c-1.08-2.63-4.49-5.07-7.78-3.9l-16.22,5.78
		c-2.81,1-5.56-0.48-6.83-2.03c-2.19-2.68-1.49-5.77,0.33-8.4c2.38-3.45,1.75-8.21-1.33-10.43c-7.34-5.3-11.6,6.24-17.89,3.96
		c-2.26-0.82-4.88-3.64-3.15-6.85c4-7.39,18.14-12.25,27.91-5.24c4.14,2.97,7.01,8.15,7.25,14.38c2.4,0.61,4.29-0.11,6.37-0.61
		c8.11-1.95,16.14,0.73,20.72,7.58c4.52,6.76,2.1,15.51-5.4,18.83C645.96,308.51,643.95,307.82,642.65,307.05z"/><path fill="#EFCF71" d="M522.32,233.71c0,14.5-11.75,26.25-26.25,26.25s-26.25-11.75-26.25-26.25s11.75-26.25,26.25-26.25
		S522.32,219.22,522.32,233.71z M515.51,233.66c0-10.72-8.69-19.42-19.42-19.42s-19.42,8.69-19.42,19.42s8.69,19.42,19.42,19.42
		S515.51,244.38,515.51,233.66z"/><path fill="#98C29D" d="M378.68,447.97c0,13.6-11.03,24.63-24.63,24.63s-24.63-11.03-24.63-24.63s11.03-24.63,24.63-24.63
		S378.68,434.36,378.68,447.97z M372.75,447.94c0-10.25-8.31-18.57-18.57-18.57s-18.57,8.31-18.57,18.57
		c0,10.25,8.31,18.57,18.57,18.57S372.75,458.19,372.75,447.94z"/><path fill="#383838" d="M768.09,532c-1.89,11.46,7.23,16.89,7.32,18.51c0.36,6.29-14.26-5.52-10.6-20.8
		c0.17-0.71,2.03-0.65,2.47-0.27C767.79,529.88,768.3,530.71,768.09,532z"/><path fill="#383838" d="M515.51,233.66c0,10.72-8.69,19.42-19.42,19.42s-19.42-8.69-19.42-19.42s8.69-19.42,19.42-19.42
		S515.51,222.94,515.51,233.66z M512.28,233.62c0-8.91-7.23-16.14-16.14-16.14S480,224.71,480,233.62s7.23,16.14,16.14,16.14
		S512.28,242.53,512.28,233.62z"/><path fill="#383838" d="M372.75,447.94c0,10.25-8.31,18.57-18.57,18.57s-18.57-8.31-18.57-18.57
		c0-10.25,8.31-18.57,18.57-18.57S372.75,437.68,372.75,447.94z M369.4,447.97c0-8.39-6.81-15.2-15.2-15.2s-15.2,6.81-15.2,15.2
		s6.81,15.2,15.2,15.2S369.4,456.37,369.4,447.97z"/></svg>