<svg xmlns="http://www.w3.org/2000/svg" viewBox="0 0 1024 1024"><path fill="#090707" d="M408.38,774.59c0.22-13.3,9.22-22.68,21.17-22.4c12.73,0.3,20.79,10.74,20.11,23.87
		c-0.32,6.17,1.57,13.05,6.31,16.94c6.3,5.17,14.56,5.54,22.25,2.03c6-2.74,11.9-9.86,11.99-18.2l0.59-52.17
		c-9.38-9.05-7.94-23.13,2.14-30.55l0.05-225.77c-29.14,3.36-56,15.68-78.47,34.14c-1.57,8.59,1.86,16.23-5.03,16.72
		c-3.46,0.25-5.42-2.21-5.54-6.16l-0.29-9.72c-31.32-29.81-74.87-42.27-117.09-31.79c-19.65,4.88-37.3,14.38-51.47,28.8
		c-2.32,2.36,1.62,11.86-4.78,13.54c-2.12,0.56-6.19-0.58-6.15-3.97c0.32-30.47,5.11-60.01,14.98-88.91
		C265.04,345.16,318.63,291.03,391,258c31.92-14.57,65.04-23.34,100.32-26.44c2.15-14.7,3.94-33.61,13.11-43.04
		c4.55-4.69,11.45-4.55,15.75,0.36c8.26,9.43,11.05,28.84,13.13,42.84c62.22,5.05,122.8,30.72,170.37,70.56
		c61.77,51.75,95.84,128.2,96.21,208.46c0.01,3.12-4.55,3.8-6.32,3.29c-5.4-1.56-2.93-6.89-4.26-13.34
		c-15.79-15.85-35.54-26.07-57.69-30.43c-40.62-8.01-81.44,4.7-111.51,32.86l-0.57,12.68c-0.13,2.9-3.77,3.78-5.94,3.27
		c-6.04-1.42-2.46-8.68-4.16-16.6c-22.12-18.23-48.47-30.39-78.39-34.29l-0.04,225.94c9.91,7.15,11.4,20.37,3.6,29.94l-0.47,55.12
		c-0.19,22.14-12.97,41.76-32.87,52.14c-19.25,10.04-42.89,9.72-62.09-0.46C418.39,819.84,408,798.16,408.38,774.59z M523.22,230.89
		c-1.11-9.55-2.55-17.16-4.87-25.26c-1.43-3.94-2.81-7.97-5.98-10.62c-8.07,6.09-9.47,23.93-11.11,36.02L523.22,230.89z
		 M610.34,490.45c0.42-45.3-3.91-87.45-14.32-129.28c-9.39-33.4-23.8-63.92-45.13-90.98c-8.94-11.25-18.41-20.81-30.09-29.29
		c-5.94-0.71-11.64-0.7-17.7-0.01c-18.17,13.7-32.5,30.41-44.59,49.68c-17.32,28.1-28.48,58.49-34.97,91.01
		c-7.17,35.89-10.01,71.52-9.7,108.94c27.82-21.32,59.98-32.19,94.39-32.98C545.46,456.7,579.85,467.96,610.34,490.45z
		 M403.59,489.91c0.85-65.06,7.23-132.49,38.21-190.12c11.83-21.74,26.05-40.88,44.46-57.9c-51.12,5.28-100.8,24.91-142.15,54.14
		c-62.79,44.37-100.93,112.01-108.61,189.78C286.27,446.59,354.14,449.35,403.59,489.91z M788.94,486.49
		c-2.8-26.54-8.54-51.1-18.24-75.19c-16.08-40.12-41.31-74.81-74.52-102.62c-44.75-36.5-99.03-60.38-158.06-66.88
		c18.81,18.48,33.85,38.31,45.68,61.37c12.64,23.68,20.65,48.34,26.31,74.71c7.45,37.06,9.95,73.85,10.29,111.86
		C669.87,449.07,739.66,446.89,788.94,486.49z M502.47,467.13v225.53h18.99V467.13H502.47z M522.13,718.6
		c4.98-0.43,7.65-3.44,7.96-7.2c0.3-3.64-1.19-8.74-5.68-8.71l-25.58,0.16c-3.8,0.02-4.79,5.53-4.46,8.31
		c0.36,3.02,1.96,6.21,5.62,6.91C507.08,719.42,514.56,719.26,522.13,718.6z M418.28,774.65c-0.23,33.89,21.97,55.17,54.7,54.44
		c28.86-0.65,50.5-22.58,51.6-51.51l0.6-49.84c-8.83,1.04-16.65,0.81-24.78-0.14l-0.14,45.39c-0.75,9.53-3.29,18.41-10.18,25.2
		c-10.9,10.74-29.07,11.63-40.71,1.53c-7.45-6.47-9.44-16.25-9.21-25.65c0.18-7.28-4.95-12.55-11.59-12.3
		C422.23,762.02,418.33,767.33,418.28,774.65z"/><path fill="#EC6453" d="M610.34,490.45c-30.5-22.5-64.89-33.76-102.11-32.9c-34.42,0.79-66.57,11.66-94.39,32.98
		c-0.31-37.42,2.53-73.04,9.7-108.94c6.49-32.53,17.65-62.91,34.97-91.01c12.1-19.27,26.42-35.98,44.59-49.68
		c6.06-0.7,11.76-0.71,17.7,0.01c11.68,8.48,21.15,18.03,30.09,29.29c21.33,27.06,35.74,57.58,45.13,90.98
		C606.43,403.01,610.76,445.15,610.34,490.45z"/><path fill="#EB6351" d="M403.59,489.91c-49.44-40.56-117.32-43.33-168.09-4.1c7.68-77.77,45.82-145.41,108.61-189.78
		c41.35-29.22,91.03-48.86,142.15-54.14c-18.41,17.02-32.63,36.15-44.46,57.9C410.82,357.42,404.44,424.86,403.59,489.91z"/><path fill="#EC6452" d="M788.94,486.49c-49.28-39.6-119.07-37.41-168.53,3.25c-0.33-38.01-2.84-74.8-10.29-111.86
		c-5.67-26.36-13.67-51.03-26.31-74.71c-11.83-23.06-26.87-42.89-45.68-61.37c59.02,6.49,113.31,30.38,158.06,66.88
		c33.21,27.81,58.44,62.5,74.52,102.62C780.4,435.38,786.14,459.95,788.94,486.49z"/><path fill="#F5EBCD" d="M418.28,774.65c0.05-7.32,3.95-12.64,10.29-12.88c6.64-0.25,11.77,5.02,11.59,12.3
		c-0.23,9.4,1.76,19.18,9.21,25.65c11.63,10.1,29.81,9.21,40.71-1.53c6.89-6.79,9.43-15.67,10.18-25.2l0.14-45.39
		c8.14,0.95,15.95,1.17,24.78,0.14l-0.6,49.84c-1.09,28.93-22.74,50.86-51.6,51.51C440.25,829.83,418.05,808.54,418.28,774.65z"/><path fill="#F5EBCD" d="M522.13,718.6c-7.57,0.66-15.05,0.82-22.14-0.53c-3.67-0.7-5.27-3.89-5.62-6.91
		c-0.33-2.78,0.66-8.28,4.46-8.31l25.58-0.16c4.49-0.03,5.98,5.07,5.68,8.71C529.78,715.16,527.11,718.17,522.13,718.6z"/><path fill="#F5EBCD" d="M523.22,230.89l-21.96,0.14c1.64-12.09,3.03-29.93,11.11-36.02c3.17,2.65,4.55,6.68,5.98,10.62
		C520.67,213.73,522.11,221.34,523.22,230.89z"/></svg>